<?xml version="1.0" encoding="utf-8"?>
<!-- Generator: Adobe Illustrator 27.7.0, SVG Export Plug-In . SVG Version: 6.00 Build 0)  -->
<svg version="1.1" xmlns="http://www.w3.org/2000/svg" xmlns:xlink="http://www.w3.org/1999/xlink" x="0px" y="0px"
	 viewBox="0 0 800 800" style="enable-background:new 0 0 800 800;" xml:space="preserve">
<style type="text/css">
	.st0{fill:#FFFFFF;}
	.st1{fill:none;stroke:#000000;stroke-linecap:round;stroke-miterlimit:10;}
</style>
<g id="Layer_2">
	<rect class="st0" width="800" height="800"/>
</g>
<g id="Layer_1">
	<g>
		<rect y="0" class="st0" width="800" height="800"/>
		<g>
			<g>
				<g>
					<path class="st1" d="M10.6-18.3l32.3,5.7l14.2-8.2L34.6-59.8"/>
					<path class="st1" d="M10.6-18.3l-21.1-25.2v-16.4h45.1"/>
				</g>
				<g>
					<path class="st1" d="M21.1,0l11.2,30.9l14.2,8.2L69.1,0"/>
					<path class="st1" d="M21.1,0l11.2-30.9l14.2-8.2L69.1,0"/>
				</g>
				<g>
					<path class="st1" d="M10.6,18.3l-21.1,25.2v16.4h45.1"/>
					<path class="st1" d="M10.6,18.3l32.3-5.7l14.2,8.2L34.6,59.8"/>
				</g>
				<g>
					<path class="st1" d="M-10.6,18.3l-32.3-5.7l-14.2,8.2l22.6,39.1"/>
					<path class="st1" d="M-10.6,18.3l21.1,25.2v16.4h-45.1"/>
				</g>
				<g>
					<path class="st1" d="M-21.1,0l-11.2-30.9l-14.2-8.2L-69.1,0"/>
					<path class="st1" d="M-21.1,0l-11.2,30.9l-14.2,8.2L-69.1,0"/>
				</g>
				<g>
					<path class="st1" d="M-10.6-18.3l21.1-25.2v-16.4h-45.1"/>
					<path class="st1" d="M-10.6-18.3l-32.3,5.7l-14.2-8.2l22.6-39.1"/>
				</g>
			</g>
		</g>
		<g>
			<g>
				<g>
					<path class="st1" d="M10.6,101.4l32.3,5.7l14.2-8.2L34.6,59.8"/>
					<path class="st1" d="M10.6,101.4l-21.1-25.2V59.8h45.1"/>
				</g>
				<g>
					<path class="st1" d="M21.1,119.7l11.2,30.9l14.2,8.2l22.6-39.1"/>
					<path class="st1" d="M21.1,119.7l11.2-30.9l14.2-8.2l22.6,39.1"/>
				</g>
				<g>
					<path class="st1" d="M10.6,138l-21.1,25.2v16.4h45.1"/>
					<path class="st1" d="M10.6,138l32.3-5.7l14.2,8.2l-22.6,39.1"/>
				</g>
				<g>
					<path class="st1" d="M-10.6,138l-32.3-5.7l-14.2,8.2l22.6,39.1"/>
					<path class="st1" d="M-10.6,138l21.1,25.2v16.4h-45.1"/>
				</g>
				<g>
					<path class="st1" d="M-21.1,119.7l-11.2-30.9l-14.2-8.2l-22.6,39.1"/>
					<path class="st1" d="M-21.1,119.7l-11.2,30.9l-14.2,8.2l-22.6-39.1"/>
				</g>
				<g>
					<path class="st1" d="M-10.6,101.4l21.1-25.2V59.8h-45.1"/>
					<path class="st1" d="M-10.6,101.4l-32.3,5.7l-14.2-8.2l22.6-39.1"/>
				</g>
			</g>
		</g>
		<g>
			<g>
				<g>
					<path class="st1" d="M10.6,221.1l32.3,5.7l14.2-8.2l-22.6-39.1"/>
					<path class="st1" d="M10.6,221.1L-10.6,196v-16.4h45.1"/>
				</g>
				<g>
					<path class="st1" d="M21.1,239.4l11.2,30.9l14.2,8.2l22.6-39.1"/>
					<path class="st1" d="M21.1,239.4l11.2-30.9l14.2-8.2l22.6,39.1"/>
				</g>
				<g>
					<path class="st1" d="M10.6,257.7l-21.1,25.2v16.4h45.1"/>
					<path class="st1" d="M10.6,257.7l32.3-5.7l14.2,8.2l-22.6,39.1"/>
				</g>
				<g>
					<path class="st1" d="M-10.6,257.7l-32.3-5.7l-14.2,8.2l22.6,39.1"/>
					<path class="st1" d="M-10.6,257.7l21.1,25.2v16.4h-45.1"/>
				</g>
				<g>
					<path class="st1" d="M-21.1,239.4l-11.2-30.9l-14.2-8.2l-22.6,39.1"/>
					<path class="st1" d="M-21.1,239.4l-11.2,30.9l-14.2,8.2l-22.6-39.1"/>
				</g>
				<g>
					<path class="st1" d="M-10.6,221.1L10.6,196v-16.4h-45.1"/>
					<path class="st1" d="M-10.6,221.1l-32.3,5.7l-14.2-8.2l22.6-39.1"/>
				</g>
			</g>
		</g>
		<g>
			<g>
				<g>
					<path class="st1" d="M10.6,340.8l32.3,5.7l14.2-8.2l-22.6-39.1"/>
					<path class="st1" d="M10.6,340.8l-21.1-25.2v-16.4h45.1"/>
				</g>
				<g>
					<path class="st1" d="M21.1,359.1l11.2,30.9l14.2,8.2l22.6-39.1"/>
					<path class="st1" d="M21.1,359.1l11.2-30.9l14.2-8.2l22.6,39.1"/>
				</g>
				<g>
					<path class="st1" d="M10.6,377.4l-21.1,25.2v16.4h45.1"/>
					<path class="st1" d="M10.6,377.4l32.3-5.7l14.2,8.2l-22.6,39.1"/>
				</g>
				<g>
					<path class="st1" d="M-10.6,377.4l-32.3-5.7l-14.2,8.2l22.6,39.1"/>
					<path class="st1" d="M-10.6,377.4l21.1,25.2v16.4h-45.1"/>
				</g>
				<g>
					<path class="st1" d="M-21.1,359.1l-11.2-30.9l-14.2-8.2l-22.6,39.1"/>
					<path class="st1" d="M-21.1,359.1l-11.2,30.9l-14.2,8.2l-22.6-39.1"/>
				</g>
				<g>
					<path class="st1" d="M-10.6,340.8l21.1-25.2v-16.4h-45.1"/>
					<path class="st1" d="M-10.6,340.8l-32.3,5.7l-14.2-8.2l22.6-39.1"/>
				</g>
			</g>
		</g>
		<g>
			<g>
				<g>
					<path class="st1" d="M10.6,460.5l32.3,5.7l14.2-8.2l-22.6-39.1"/>
					<path class="st1" d="M10.6,460.5l-21.1-25.2v-16.4h45.1"/>
				</g>
				<g>
					<path class="st1" d="M21.1,478.8l11.2,30.9l14.2,8.2l22.6-39.1"/>
					<path class="st1" d="M21.1,478.8l11.2-30.9l14.2-8.2l22.6,39.1"/>
				</g>
				<g>
					<path class="st1" d="M10.6,497.1l-21.1,25.2v16.4h45.1"/>
					<path class="st1" d="M10.6,497.1l32.3-5.7l14.2,8.2l-22.6,39.1"/>
				</g>
				<g>
					<path class="st1" d="M-10.6,497.1l-32.3-5.7l-14.2,8.2l22.6,39.1"/>
					<path class="st1" d="M-10.6,497.1l21.1,25.2v16.4h-45.1"/>
				</g>
				<g>
					<path class="st1" d="M-21.1,478.8l-11.2-30.9l-14.2-8.2l-22.6,39.1"/>
					<path class="st1" d="M-21.1,478.8l-11.2,30.9l-14.2,8.2l-22.6-39.1"/>
				</g>
				<g>
					<path class="st1" d="M-10.6,460.5l21.1-25.2v-16.4h-45.1"/>
					<path class="st1" d="M-10.6,460.5l-32.3,5.7l-14.2-8.2l22.6-39.1"/>
				</g>
			</g>
		</g>
		<g>
			<g>
				<g>
					<path class="st1" d="M10.6,580.2l32.3,5.7l14.2-8.2l-22.6-39.1"/>
					<path class="st1" d="M10.6,580.2L-10.6,555v-16.4h45.1"/>
				</g>
				<g>
					<path class="st1" d="M21.1,598.5l11.2,30.9l14.2,8.2l22.6-39.1"/>
					<path class="st1" d="M21.1,598.5l11.2-30.9l14.2-8.2l22.6,39.1"/>
				</g>
				<g>
					<path class="st1" d="M10.6,616.7l-21.1,25.2v16.4h45.1"/>
					<path class="st1" d="M10.6,616.7l32.3-5.7l14.2,8.2l-22.6,39.1"/>
				</g>
				<g>
					<path class="st1" d="M-10.6,616.7l-32.3-5.7l-14.2,8.2l22.6,39.1"/>
					<path class="st1" d="M-10.6,616.7l21.1,25.2v16.4h-45.1"/>
				</g>
				<g>
					<path class="st1" d="M-21.1,598.5l-11.2-30.9l-14.2-8.2l-22.6,39.1"/>
					<path class="st1" d="M-21.1,598.5l-11.2,30.9l-14.2,8.2l-22.6-39.1"/>
				</g>
				<g>
					<path class="st1" d="M-10.6,580.2L10.6,555v-16.4h-45.1"/>
					<path class="st1" d="M-10.6,580.2l-32.3,5.7l-14.2-8.2l22.6-39.1"/>
				</g>
			</g>
		</g>
		<g>
			<g>
				<g>
					<path class="st1" d="M10.6,699.9l32.3,5.7l14.2-8.2l-22.6-39.1"/>
					<path class="st1" d="M10.6,699.9l-21.1-25.2v-16.4h45.1"/>
				</g>
				<g>
					<path class="st1" d="M21.1,718.2L32.3,749l14.2,8.2l22.6-39.1"/>
					<path class="st1" d="M21.1,718.2l11.2-30.9l14.2-8.2l22.6,39.1"/>
				</g>
				<g>
					<path class="st1" d="M10.6,736.4l-21.1,25.2V778h45.1"/>
					<path class="st1" d="M10.6,736.4l32.3-5.7l14.2,8.2L34.6,778"/>
				</g>
				<g>
					<path class="st1" d="M-10.6,736.4l-32.3-5.7l-14.2,8.2l22.6,39.1"/>
					<path class="st1" d="M-10.6,736.4l21.1,25.2V778h-45.1"/>
				</g>
				<g>
					<path class="st1" d="M-21.1,718.2l-11.2-30.9l-14.2-8.2l-22.6,39.1"/>
					<path class="st1" d="M-21.1,718.2L-32.3,749l-14.2,8.2l-22.6-39.1"/>
				</g>
				<g>
					<path class="st1" d="M-10.6,699.9l21.1-25.2v-16.4h-45.1"/>
					<path class="st1" d="M-10.6,699.9l-32.3,5.7l-14.2-8.2l22.6-39.1"/>
				</g>
			</g>
		</g>
		<g>
			<g>
				<g>
					<path class="st1" d="M10.6,819.6l32.3,5.7l14.2-8.2L34.6,778"/>
					<path class="st1" d="M10.6,819.6l-21.1-25.2V778h45.1"/>
				</g>
				<g>
					<path class="st1" d="M21.1,837.9l11.2,30.9l14.2,8.2l22.6-39.1"/>
					<path class="st1" d="M21.1,837.9L32.3,807l14.2-8.2l22.6,39.1"/>
				</g>
				<g>
					<path class="st1" d="M10.6,856.1l-21.1,25.2v16.4h45.1"/>
					<path class="st1" d="M10.6,856.1l32.3-5.7l14.2,8.2l-22.6,39.1"/>
				</g>
				<g>
					<path class="st1" d="M-10.6,856.1l-32.3-5.7l-14.2,8.2l22.6,39.1"/>
					<path class="st1" d="M-10.6,856.1l21.1,25.2v16.4h-45.1"/>
				</g>
				<g>
					<path class="st1" d="M-21.1,837.9L-32.3,807l-14.2-8.2l-22.6,39.1"/>
					<path class="st1" d="M-21.1,837.9l-11.2,30.9l-14.2,8.2l-22.6-39.1"/>
				</g>
				<g>
					<path class="st1" d="M-10.6,819.6l21.1-25.2V778h-45.1"/>
					<path class="st1" d="M-10.6,819.6l-32.3,5.7l-14.2-8.2l22.6-39.1"/>
				</g>
			</g>
		</g>
		<g>
			<g>
				<g>
					<path class="st1" d="M114.2,41.6l32.3,5.7l14.2-8.2L138.2,0"/>
					<path class="st1" d="M114.2,41.6L93.1,16.4V0h45.1"/>
				</g>
				<g>
					<path class="st1" d="M124.8,59.8L136,90.7l14.2,8.2l22.6-39.1"/>
					<path class="st1" d="M124.8,59.8L136,29l14.2-8.2l22.6,39.1"/>
				</g>
				<g>
					<path class="st1" d="M114.2,78.1l-21.1,25.2v16.4h45.1"/>
					<path class="st1" d="M114.2,78.1l32.3-5.7l14.2,8.2l-22.6,39.1"/>
				</g>
				<g>
					<path class="st1" d="M93.1,78.1l-32.3-5.7l-14.2,8.2l22.6,39.1"/>
					<path class="st1" d="M93.1,78.1l21.1,25.2v16.4H69.1"/>
				</g>
				<g>
					<path class="st1" d="M82.6,59.8L71.3,29l-14.2-8.2L34.6,59.8"/>
					<path class="st1" d="M82.6,59.8L71.3,90.7l-14.2,8.2L34.6,59.8"/>
				</g>
				<g>
					<path class="st1" d="M93.1,41.6l21.1-25.2V0H69.1"/>
					<path class="st1" d="M93.1,41.6l-32.3,5.7l-14.2-8.2L69.1,0"/>
				</g>
			</g>
		</g>
		<g>
			<g>
				<g>
					<path class="st1" d="M114.2,161.3l32.3,5.7l14.2-8.2l-22.6-39.1"/>
					<path class="st1" d="M114.2,161.3l-21.1-25.2v-16.4h45.1"/>
				</g>
				<g>
					<path class="st1" d="M124.8,179.5l11.2,30.9l14.2,8.2l22.6-39.1"/>
					<path class="st1" d="M124.8,179.5l11.2-30.9l14.2-8.2l22.6,39.1"/>
				</g>
				<g>
					<path class="st1" d="M114.2,197.8L93.1,223v16.4h45.1"/>
					<path class="st1" d="M114.2,197.8l32.3-5.7l14.2,8.2l-22.6,39.1"/>
				</g>
				<g>
					<path class="st1" d="M93.1,197.8l-32.3-5.7l-14.2,8.2l22.6,39.1"/>
					<path class="st1" d="M93.1,197.8l21.1,25.2v16.4H69.1"/>
				</g>
				<g>
					<path class="st1" d="M82.6,179.5l-11.2-30.9l-14.2-8.2l-22.6,39.1"/>
					<path class="st1" d="M82.6,179.5l-11.2,30.9l-14.2,8.2l-22.6-39.1"/>
				</g>
				<g>
					<path class="st1" d="M93.1,161.3l21.1-25.2v-16.4H69.1"/>
					<path class="st1" d="M93.1,161.3L60.8,167l-14.2-8.2l22.6-39.1"/>
				</g>
			</g>
		</g>
		<g>
			<g>
				<g>
					<path class="st1" d="M114.2,281l32.3,5.7l14.2-8.2l-22.6-39.1"/>
					<path class="st1" d="M114.2,281l-21.1-25.2v-16.4h45.1"/>
				</g>
				<g>
					<path class="st1" d="M124.8,299.2l11.2,30.9l14.2,8.2l22.6-39.1"/>
					<path class="st1" d="M124.8,299.2l11.2-30.9l14.2-8.2l22.6,39.1"/>
				</g>
				<g>
					<path class="st1" d="M114.2,317.5l-21.1,25.2v16.4h45.1"/>
					<path class="st1" d="M114.2,317.5l32.3-5.7l14.2,8.2l-22.6,39.1"/>
				</g>
				<g>
					<path class="st1" d="M93.1,317.5l-32.3-5.7L46.6,320l22.6,39.1"/>
					<path class="st1" d="M93.1,317.5l21.1,25.2v16.4H69.1"/>
				</g>
				<g>
					<path class="st1" d="M82.6,299.2l-11.2-30.9l-14.2-8.2l-22.6,39.1"/>
					<path class="st1" d="M82.6,299.2l-11.2,30.9l-14.2,8.2l-22.6-39.1"/>
				</g>
				<g>
					<path class="st1" d="M93.1,281l21.1-25.2v-16.4H69.1"/>
					<path class="st1" d="M93.1,281l-32.3,5.7l-14.2-8.2l22.6-39.1"/>
				</g>
			</g>
		</g>
		<g>
			<g>
				<g>
					<path class="st1" d="M114.2,400.7l32.3,5.7l14.2-8.2l-22.6-39.1"/>
					<path class="st1" d="M114.2,400.7l-21.1-25.2v-16.4h45.1"/>
				</g>
				<g>
					<path class="st1" d="M124.8,418.9l11.2,30.9l14.2,8.2l22.6-39.1"/>
					<path class="st1" d="M124.8,418.9l11.2-30.9l14.2-8.2l22.6,39.1"/>
				</g>
				<g>
					<path class="st1" d="M114.2,437.2l-21.1,25.2v16.4h45.1"/>
					<path class="st1" d="M114.2,437.2l32.3-5.7l14.2,8.2l-22.6,39.1"/>
				</g>
				<g>
					<path class="st1" d="M93.1,437.2l-32.3-5.7l-14.2,8.2l22.6,39.1"/>
					<path class="st1" d="M93.1,437.2l21.1,25.2v16.4H69.1"/>
				</g>
				<g>
					<path class="st1" d="M82.6,418.9l-11.2-30.9l-14.2-8.2l-22.6,39.1"/>
					<path class="st1" d="M82.6,418.9l-11.2,30.9L57.1,458l-22.6-39.1"/>
				</g>
				<g>
					<path class="st1" d="M93.1,400.7l21.1-25.2v-16.4H69.1"/>
					<path class="st1" d="M93.1,400.7l-32.3,5.7l-14.2-8.2l22.6-39.1"/>
				</g>
			</g>
		</g>
		<g>
			<g>
				<g>
					<path class="st1" d="M114.2,520.3l32.3,5.7l14.2-8.2l-22.6-39.1"/>
					<path class="st1" d="M114.2,520.3l-21.1-25.2v-16.4h45.1"/>
				</g>
				<g>
					<path class="st1" d="M124.8,538.6l11.2,30.9l14.2,8.2l22.6-39.1"/>
					<path class="st1" d="M124.8,538.6l11.2-30.9l14.2-8.2l22.6,39.1"/>
				</g>
				<g>
					<path class="st1" d="M114.2,556.9l-21.1,25.2v16.4h45.1"/>
					<path class="st1" d="M114.2,556.9l32.3-5.7l14.2,8.2l-22.6,39.1"/>
				</g>
				<g>
					<path class="st1" d="M93.1,556.9l-32.3-5.7l-14.2,8.2l22.6,39.1"/>
					<path class="st1" d="M93.1,556.9l21.1,25.2v16.4H69.1"/>
				</g>
				<g>
					<path class="st1" d="M82.6,538.6l-11.2-30.9l-14.2-8.2l-22.6,39.1"/>
					<path class="st1" d="M82.6,538.6l-11.2,30.9l-14.2,8.2l-22.6-39.1"/>
				</g>
				<g>
					<path class="st1" d="M93.1,520.3l21.1-25.2v-16.4H69.1"/>
					<path class="st1" d="M93.1,520.3L60.8,526l-14.2-8.2l22.6-39.1"/>
				</g>
			</g>
		</g>
		<g>
			<g>
				<g>
					<path class="st1" d="M114.2,640l32.3,5.7l14.2-8.2l-22.6-39.1"/>
					<path class="st1" d="M114.2,640l-21.1-25.2v-16.4h45.1"/>
				</g>
				<g>
					<path class="st1" d="M124.8,658.3l11.2,30.9l14.2,8.2l22.6-39.1"/>
					<path class="st1" d="M124.8,658.3l11.2-30.9l14.2-8.2l22.6,39.1"/>
				</g>
				<g>
					<path class="st1" d="M114.2,676.6l-21.1,25.2v16.4h45.1"/>
					<path class="st1" d="M114.2,676.6l32.3-5.7l14.2,8.2l-22.6,39.1"/>
				</g>
				<g>
					<path class="st1" d="M93.1,676.6l-32.3-5.7l-14.2,8.2l22.6,39.1"/>
					<path class="st1" d="M93.1,676.6l21.1,25.2v16.4H69.1"/>
				</g>
				<g>
					<path class="st1" d="M82.6,658.3l-11.2-30.9l-14.2-8.2l-22.6,39.1"/>
					<path class="st1" d="M82.6,658.3l-11.2,30.9l-14.2,8.2l-22.6-39.1"/>
				</g>
				<g>
					<path class="st1" d="M93.1,640l21.1-25.2v-16.4H69.1"/>
					<path class="st1" d="M93.1,640l-32.3,5.7l-14.2-8.2l22.6-39.1"/>
				</g>
			</g>
		</g>
		<g>
			<g>
				<g>
					<path class="st1" d="M114.2,759.7l32.3,5.7l14.2-8.2l-22.6-39.1"/>
					<path class="st1" d="M114.2,759.7l-21.1-25.2v-16.4h45.1"/>
				</g>
				<g>
					<path class="st1" d="M124.8,778l11.2,30.9l14.2,8.2l22.6-39.1"/>
					<path class="st1" d="M124.8,778l11.2-30.9l14.2-8.2l22.6,39.1"/>
				</g>
				<g>
					<path class="st1" d="M114.2,796.3l-21.1,25.2v16.4h45.1"/>
					<path class="st1" d="M114.2,796.3l32.3-5.7l14.2,8.2l-22.6,39.1"/>
				</g>
				<g>
					<path class="st1" d="M93.1,796.3l-32.3-5.7l-14.2,8.2l22.6,39.1"/>
					<path class="st1" d="M93.1,796.3l21.1,25.2v16.4H69.1"/>
				</g>
				<g>
					<path class="st1" d="M82.6,778l-11.2-30.9l-14.2-8.2L34.6,778"/>
					<path class="st1" d="M82.6,778l-11.2,30.9l-14.2,8.2L34.6,778"/>
				</g>
				<g>
					<path class="st1" d="M93.1,759.7l21.1-25.2v-16.4H69.1"/>
					<path class="st1" d="M93.1,759.7l-32.3,5.7l-14.2-8.2l22.6-39.1"/>
				</g>
			</g>
		</g>
		<g>
			<g>
				<g>
					<path class="st1" d="M114.2,879.4l32.3,5.7l14.2-8.2l-22.6-39.1"/>
					<path class="st1" d="M114.2,879.4l-21.1-25.2v-16.4h45.1"/>
				</g>
				<g>
					<path class="st1" d="M124.8,897.7l11.2,30.9l14.2,8.2l22.6-39.1"/>
					<path class="st1" d="M124.8,897.7l11.2-30.9l14.2-8.2l22.6,39.1"/>
				</g>
				<g>
					<path class="st1" d="M114.2,916l-21.1,25.2v16.4h45.1"/>
					<path class="st1" d="M114.2,916l32.3-5.7l14.2,8.2l-22.6,39.1"/>
				</g>
				<g>
					<path class="st1" d="M93.1,916l-32.3-5.7l-14.2,8.2l22.6,39.1"/>
					<path class="st1" d="M93.1,916l21.1,25.2v16.4H69.1"/>
				</g>
				<g>
					<path class="st1" d="M82.6,897.7l-11.2-30.9l-14.2-8.2l-22.6,39.1"/>
					<path class="st1" d="M82.6,897.7l-11.2,30.9l-14.2,8.2l-22.6-39.1"/>
				</g>
				<g>
					<path class="st1" d="M93.1,879.4l21.1-25.2v-16.4H69.1"/>
					<path class="st1" d="M93.1,879.4l-32.3,5.7l-14.2-8.2l22.6-39.1"/>
				</g>
			</g>
		</g>
		<g>
			<g>
				<g>
					<path class="st1" d="M217.9-18.3l32.3,5.7l14.2-8.2l-22.6-39.1"/>
					<path class="st1" d="M217.9-18.3l-21.1-25.2v-16.4h45.1"/>
				</g>
				<g>
					<path class="st1" d="M228.4,0l11.2,30.9l14.2,8.2L276.4,0"/>
					<path class="st1" d="M228.4,0l11.2-30.9l14.2-8.2L276.4,0"/>
				</g>
				<g>
					<path class="st1" d="M217.9,18.3l-21.1,25.2v16.4h45.1"/>
					<path class="st1" d="M217.9,18.3l32.3-5.7l14.2,8.2l-22.6,39.1"/>
				</g>
				<g>
					<path class="st1" d="M196.8,18.3l-32.3-5.7l-14.2,8.2l22.6,39.1"/>
					<path class="st1" d="M196.8,18.3l21.1,25.2v16.4h-45.1"/>
				</g>
				<g>
					<path class="st1" d="M186.2,0L175-30.9l-14.2-8.2L138.2,0"/>
					<path class="st1" d="M186.2,0L175,30.9l-14.2,8.2L138.2,0"/>
				</g>
				<g>
					<path class="st1" d="M196.8-18.3l21.1-25.2v-16.4h-45.1"/>
					<path class="st1" d="M196.8-18.3l-32.3,5.7l-14.2-8.2l22.6-39.1"/>
				</g>
			</g>
		</g>
		<g>
			<g>
				<g>
					<path class="st1" d="M217.9,101.4l32.3,5.7l14.2-8.2l-22.6-39.1"/>
					<path class="st1" d="M217.9,101.4l-21.1-25.2V59.8h45.1"/>
				</g>
				<g>
					<path class="st1" d="M228.4,119.7l11.2,30.9l14.2,8.2l22.6-39.1"/>
					<path class="st1" d="M228.4,119.7l11.2-30.9l14.2-8.2l22.6,39.1"/>
				</g>
				<g>
					<path class="st1" d="M217.9,138l-21.1,25.2v16.4h45.1"/>
					<path class="st1" d="M217.9,138l32.3-5.7l14.2,8.2l-22.6,39.1"/>
				</g>
				<g>
					<path class="st1" d="M196.8,138l-32.3-5.7l-14.2,8.2l22.6,39.1"/>
					<path class="st1" d="M196.8,138l21.1,25.2v16.4h-45.1"/>
				</g>
				<g>
					<path class="st1" d="M186.2,119.7L175,88.8l-14.2-8.2l-22.6,39.1"/>
					<path class="st1" d="M186.2,119.7L175,150.5l-14.2,8.2l-22.6-39.1"/>
				</g>
				<g>
					<path class="st1" d="M196.8,101.4l21.1-25.2V59.8h-45.1"/>
					<path class="st1" d="M196.8,101.4l-32.3,5.7l-14.2-8.2l22.6-39.1"/>
				</g>
			</g>
		</g>
		<g>
			<g>
				<g>
					<path class="st1" d="M217.9,221.1l32.3,5.7l14.2-8.2l-22.6-39.1"/>
					<path class="st1" d="M217.9,221.1L196.8,196v-16.4h45.1"/>
				</g>
				<g>
					<path class="st1" d="M228.4,239.4l11.2,30.9l14.2,8.2l22.6-39.1"/>
					<path class="st1" d="M228.4,239.4l11.2-30.9l14.2-8.2l22.6,39.1"/>
				</g>
				<g>
					<path class="st1" d="M217.9,257.7l-21.1,25.2v16.4h45.1"/>
					<path class="st1" d="M217.9,257.7l32.3-5.7l14.2,8.2l-22.6,39.1"/>
				</g>
				<g>
					<path class="st1" d="M196.8,257.7l-32.3-5.7l-14.2,8.2l22.6,39.1"/>
					<path class="st1" d="M196.8,257.7l21.1,25.2v16.4h-45.1"/>
				</g>
				<g>
					<path class="st1" d="M186.2,239.4L175,208.5l-14.2-8.2l-22.6,39.1"/>
					<path class="st1" d="M186.2,239.4L175,270.2l-14.2,8.2l-22.6-39.1"/>
				</g>
				<g>
					<path class="st1" d="M196.8,221.1l21.1-25.2v-16.4h-45.1"/>
					<path class="st1" d="M196.8,221.1l-32.3,5.7l-14.2-8.2l22.6-39.1"/>
				</g>
			</g>
		</g>
		<g>
			<g>
				<g>
					<path class="st1" d="M217.9,340.8l32.3,5.7l14.2-8.2l-22.6-39.1"/>
					<path class="st1" d="M217.9,340.8l-21.1-25.2v-16.4h45.1"/>
				</g>
				<g>
					<path class="st1" d="M228.4,359.1l11.2,30.9l14.2,8.2l22.6-39.1"/>
					<path class="st1" d="M228.4,359.1l11.2-30.9l14.2-8.2l22.6,39.1"/>
				</g>
				<g>
					<path class="st1" d="M217.9,377.4l-21.1,25.2v16.4h45.1"/>
					<path class="st1" d="M217.9,377.4l32.3-5.7l14.2,8.2l-22.6,39.1"/>
				</g>
				<g>
					<path class="st1" d="M196.8,377.4l-32.3-5.7l-14.2,8.2l22.6,39.1"/>
					<path class="st1" d="M196.8,377.4l21.1,25.2v16.4h-45.1"/>
				</g>
				<g>
					<path class="st1" d="M186.2,359.1L175,328.2l-14.2-8.2l-22.6,39.1"/>
					<path class="st1" d="M186.2,359.1L175,389.9l-14.2,8.2l-22.6-39.1"/>
				</g>
				<g>
					<path class="st1" d="M196.8,340.8l21.1-25.2v-16.4h-45.1"/>
					<path class="st1" d="M196.8,340.8l-32.3,5.7l-14.2-8.2l22.6-39.1"/>
				</g>
			</g>
		</g>
		<g>
			<g>
				<g>
					<path class="st1" d="M217.9,460.5l32.3,5.7l14.2-8.2l-22.6-39.1"/>
					<path class="st1" d="M217.9,460.5l-21.1-25.2v-16.4h45.1"/>
				</g>
				<g>
					<path class="st1" d="M228.4,478.8l11.2,30.9l14.2,8.2l22.6-39.1"/>
					<path class="st1" d="M228.4,478.8l11.2-30.9l14.2-8.2l22.6,39.1"/>
				</g>
				<g>
					<path class="st1" d="M217.9,497.1l-21.1,25.2v16.4h45.1"/>
					<path class="st1" d="M217.9,497.1l32.3-5.7l14.2,8.2l-22.6,39.1"/>
				</g>
				<g>
					<path class="st1" d="M196.8,497.1l-32.3-5.7l-14.2,8.2l22.6,39.1"/>
					<path class="st1" d="M196.8,497.1l21.1,25.2v16.4h-45.1"/>
				</g>
				<g>
					<path class="st1" d="M186.2,478.8L175,447.9l-14.2-8.2l-22.6,39.1"/>
					<path class="st1" d="M186.2,478.8L175,509.6l-14.2,8.2l-22.6-39.1"/>
				</g>
				<g>
					<path class="st1" d="M196.8,460.5l21.1-25.2v-16.4h-45.1"/>
					<path class="st1" d="M196.8,460.5l-32.3,5.7l-14.2-8.2l22.6-39.1"/>
				</g>
			</g>
		</g>
		<g>
			<g>
				<g>
					<path class="st1" d="M217.9,580.2l32.3,5.7l14.2-8.2l-22.6-39.1"/>
					<path class="st1" d="M217.9,580.2L196.8,555v-16.4h45.1"/>
				</g>
				<g>
					<path class="st1" d="M228.4,598.5l11.2,30.9l14.2,8.2l22.6-39.1"/>
					<path class="st1" d="M228.4,598.5l11.2-30.9l14.2-8.2l22.6,39.1"/>
				</g>
				<g>
					<path class="st1" d="M217.9,616.7l-21.1,25.2v16.4h45.1"/>
					<path class="st1" d="M217.9,616.7l32.3-5.7l14.2,8.2l-22.6,39.1"/>
				</g>
				<g>
					<path class="st1" d="M196.8,616.7l-32.3-5.7l-14.2,8.2l22.6,39.1"/>
					<path class="st1" d="M196.8,616.7l21.1,25.2v16.4h-45.1"/>
				</g>
				<g>
					<path class="st1" d="M186.2,598.5L175,567.6l-14.2-8.2l-22.6,39.1"/>
					<path class="st1" d="M186.2,598.5L175,629.3l-14.2,8.2l-22.6-39.1"/>
				</g>
				<g>
					<path class="st1" d="M196.8,580.2l21.1-25.2v-16.4h-45.1"/>
					<path class="st1" d="M196.8,580.2l-32.3,5.7l-14.2-8.2l22.6-39.1"/>
				</g>
			</g>
		</g>
		<g>
			<g>
				<g>
					<path class="st1" d="M217.9,699.9l32.3,5.7l14.2-8.2l-22.6-39.1"/>
					<path class="st1" d="M217.9,699.9l-21.1-25.2v-16.4h45.1"/>
				</g>
				<g>
					<path class="st1" d="M228.4,718.2l11.2,30.9l14.2,8.2l22.6-39.1"/>
					<path class="st1" d="M228.4,718.2l11.2-30.9l14.2-8.2l22.6,39.1"/>
				</g>
				<g>
					<path class="st1" d="M217.9,736.4l-21.1,25.2V778h45.1"/>
					<path class="st1" d="M217.9,736.4l32.3-5.7l14.2,8.2L241.9,778"/>
				</g>
				<g>
					<path class="st1" d="M196.8,736.4l-32.3-5.7l-14.2,8.2l22.6,39.1"/>
					<path class="st1" d="M196.8,736.4l21.1,25.2V778h-45.1"/>
				</g>
				<g>
					<path class="st1" d="M186.2,718.2L175,687.3l-14.2-8.2l-22.6,39.1"/>
					<path class="st1" d="M186.2,718.2L175,749l-14.2,8.2l-22.6-39.1"/>
				</g>
				<g>
					<path class="st1" d="M196.8,699.9l21.1-25.2v-16.4h-45.1"/>
					<path class="st1" d="M196.8,699.9l-32.3,5.7l-14.2-8.2l22.6-39.1"/>
				</g>
			</g>
		</g>
		<g>
			<g>
				<g>
					<path class="st1" d="M217.9,819.6l32.3,5.7l14.2-8.2L241.9,778"/>
					<path class="st1" d="M217.9,819.6l-21.1-25.2V778h45.1"/>
				</g>
				<g>
					<path class="st1" d="M228.4,837.9l11.2,30.9l14.2,8.2l22.6-39.1"/>
					<path class="st1" d="M228.4,837.9l11.2-30.9l14.2-8.2l22.6,39.1"/>
				</g>
				<g>
					<path class="st1" d="M217.9,856.1l-21.1,25.2v16.4h45.1"/>
					<path class="st1" d="M217.9,856.1l32.3-5.7l14.2,8.2l-22.6,39.1"/>
				</g>
				<g>
					<path class="st1" d="M196.8,856.1l-32.3-5.7l-14.2,8.2l22.6,39.1"/>
					<path class="st1" d="M196.8,856.1l21.1,25.2v16.4h-45.1"/>
				</g>
				<g>
					<path class="st1" d="M186.2,837.9L175,807l-14.2-8.2l-22.6,39.1"/>
					<path class="st1" d="M186.2,837.9L175,868.7l-14.2,8.2l-22.6-39.1"/>
				</g>
				<g>
					<path class="st1" d="M196.8,819.6l21.1-25.2V778h-45.1"/>
					<path class="st1" d="M196.8,819.6l-32.3,5.7l-14.2-8.2l22.6-39.1"/>
				</g>
			</g>
		</g>
		<g>
			<g>
				<g>
					<path class="st1" d="M321.5,41.6l32.3,5.7l14.2-8.2L345.5,0"/>
					<path class="st1" d="M321.5,41.6l-21.1-25.2V0h45.1"/>
				</g>
				<g>
					<path class="st1" d="M332.1,59.8l11.2,30.9l14.2,8.2l22.6-39.1"/>
					<path class="st1" d="M332.1,59.8L343.3,29l14.2-8.2l22.6,39.1"/>
				</g>
				<g>
					<path class="st1" d="M321.5,78.1l-21.1,25.2v16.4h45.1"/>
					<path class="st1" d="M321.5,78.1l32.3-5.7l14.2,8.2l-22.6,39.1"/>
				</g>
				<g>
					<path class="st1" d="M300.4,78.1l-32.3-5.7l-14.2,8.2l22.6,39.1"/>
					<path class="st1" d="M300.4,78.1l21.1,25.2v16.4h-45.1"/>
				</g>
				<g>
					<path class="st1" d="M289.9,59.8L278.6,29l-14.2-8.2l-22.6,39.1"/>
					<path class="st1" d="M289.9,59.8l-11.2,30.9l-14.2,8.2l-22.6-39.1"/>
				</g>
				<g>
					<path class="st1" d="M300.4,41.6l21.1-25.2V0h-45.1"/>
					<path class="st1" d="M300.4,41.6l-32.3,5.7l-14.2-8.2L276.4,0"/>
				</g>
			</g>
		</g>
		<g>
			<g>
				<g>
					<path class="st1" d="M321.5,161.3l32.3,5.7l14.2-8.2l-22.6-39.1"/>
					<path class="st1" d="M321.5,161.3l-21.1-25.2v-16.4h45.1"/>
				</g>
				<g>
					<path class="st1" d="M332.1,179.5l11.2,30.9l14.2,8.2l22.6-39.1"/>
					<path class="st1" d="M332.1,179.5l11.2-30.9l14.2-8.2l22.6,39.1"/>
				</g>
				<g>
					<path class="st1" d="M321.5,197.8L300.4,223v16.4h45.1"/>
					<path class="st1" d="M321.5,197.8l32.3-5.7l14.2,8.2l-22.6,39.1"/>
				</g>
				<g>
					<path class="st1" d="M300.4,197.8l-32.3-5.7l-14.2,8.2l22.6,39.1"/>
					<path class="st1" d="M300.4,197.8l21.1,25.2v16.4h-45.1"/>
				</g>
				<g>
					<path class="st1" d="M289.9,179.5l-11.2-30.9l-14.2-8.2l-22.6,39.1"/>
					<path class="st1" d="M289.9,179.5l-11.2,30.9l-14.2,8.2l-22.6-39.1"/>
				</g>
				<g>
					<path class="st1" d="M300.4,161.3l21.1-25.2v-16.4h-45.1"/>
					<path class="st1" d="M300.4,161.3l-32.3,5.7l-14.2-8.2l22.6-39.1"/>
				</g>
			</g>
		</g>
		<g>
			<g>
				<g>
					<path class="st1" d="M321.5,281l32.3,5.7l14.2-8.2l-22.6-39.1"/>
					<path class="st1" d="M321.5,281l-21.1-25.2v-16.4h45.1"/>
				</g>
				<g>
					<path class="st1" d="M332.1,299.2l11.2,30.9l14.2,8.2l22.6-39.1"/>
					<path class="st1" d="M332.1,299.2l11.2-30.9l14.2-8.2l22.6,39.1"/>
				</g>
				<g>
					<path class="st1" d="M321.5,317.5l-21.1,25.2v16.4h45.1"/>
					<path class="st1" d="M321.5,317.5l32.3-5.7l14.2,8.2l-22.6,39.1"/>
				</g>
				<g>
					<path class="st1" d="M300.4,317.5l-32.3-5.7l-14.2,8.2l22.6,39.1"/>
					<path class="st1" d="M300.4,317.5l21.1,25.2v16.4h-45.1"/>
				</g>
				<g>
					<path class="st1" d="M289.9,299.2l-11.2-30.9l-14.2-8.2l-22.6,39.1"/>
					<path class="st1" d="M289.9,299.2l-11.2,30.9l-14.2,8.2l-22.6-39.1"/>
				</g>
				<g>
					<path class="st1" d="M300.4,281l21.1-25.2v-16.4h-45.1"/>
					<path class="st1" d="M300.4,281l-32.3,5.7l-14.2-8.2l22.6-39.1"/>
				</g>
			</g>
		</g>
		<g>
			<g>
				<g>
					<path class="st1" d="M321.5,400.7l32.3,5.7l14.2-8.2l-22.6-39.1"/>
					<path class="st1" d="M321.5,400.7l-21.1-25.2v-16.4h45.1"/>
				</g>
				<g>
					<path class="st1" d="M332.1,418.9l11.2,30.9l14.2,8.2l22.6-39.1"/>
					<path class="st1" d="M332.1,418.9l11.2-30.9l14.2-8.2l22.6,39.1"/>
				</g>
				<g>
					<path class="st1" d="M321.5,437.2l-21.1,25.2v16.4h45.1"/>
					<path class="st1" d="M321.5,437.2l32.3-5.7l14.2,8.2l-22.6,39.1"/>
				</g>
				<g>
					<path class="st1" d="M300.4,437.2l-32.3-5.7l-14.2,8.2l22.6,39.1"/>
					<path class="st1" d="M300.4,437.2l21.1,25.2v16.4h-45.1"/>
				</g>
				<g>
					<path class="st1" d="M289.9,418.9l-11.2-30.9l-14.2-8.2l-22.6,39.1"/>
					<path class="st1" d="M289.9,418.9l-11.2,30.9l-14.2,8.2l-22.6-39.1"/>
				</g>
				<g>
					<path class="st1" d="M300.4,400.7l21.1-25.2v-16.4h-45.1"/>
					<path class="st1" d="M300.4,400.7l-32.3,5.7l-14.2-8.2l22.6-39.1"/>
				</g>
			</g>
		</g>
		<g>
			<g>
				<g>
					<path class="st1" d="M321.5,520.3l32.3,5.7l14.2-8.2l-22.6-39.1"/>
					<path class="st1" d="M321.5,520.3l-21.1-25.2v-16.4h45.1"/>
				</g>
				<g>
					<path class="st1" d="M332.1,538.6l11.2,30.9l14.2,8.2l22.6-39.1"/>
					<path class="st1" d="M332.1,538.6l11.2-30.9l14.2-8.2l22.6,39.1"/>
				</g>
				<g>
					<path class="st1" d="M321.5,556.9l-21.1,25.2v16.4h45.1"/>
					<path class="st1" d="M321.5,556.9l32.3-5.7l14.2,8.2l-22.6,39.1"/>
				</g>
				<g>
					<path class="st1" d="M300.4,556.9l-32.3-5.7l-14.2,8.2l22.6,39.1"/>
					<path class="st1" d="M300.4,556.9l21.1,25.2v16.4h-45.1"/>
				</g>
				<g>
					<path class="st1" d="M289.9,538.6l-11.2-30.9l-14.2-8.2l-22.6,39.1"/>
					<path class="st1" d="M289.9,538.6l-11.2,30.9l-14.2,8.2l-22.6-39.1"/>
				</g>
				<g>
					<path class="st1" d="M300.4,520.3l21.1-25.2v-16.4h-45.1"/>
					<path class="st1" d="M300.4,520.3l-32.3,5.7l-14.2-8.2l22.6-39.1"/>
				</g>
			</g>
		</g>
		<g>
			<g>
				<g>
					<path class="st1" d="M321.5,640l32.3,5.7l14.2-8.2l-22.6-39.1"/>
					<path class="st1" d="M321.5,640l-21.1-25.2v-16.4h45.1"/>
				</g>
				<g>
					<path class="st1" d="M332.1,658.3l11.2,30.9l14.2,8.2l22.6-39.1"/>
					<path class="st1" d="M332.1,658.3l11.2-30.9l14.2-8.2l22.6,39.1"/>
				</g>
				<g>
					<path class="st1" d="M321.5,676.6l-21.1,25.2v16.4h45.1"/>
					<path class="st1" d="M321.5,676.6l32.3-5.7l14.2,8.2l-22.6,39.1"/>
				</g>
				<g>
					<path class="st1" d="M300.4,676.6l-32.3-5.7l-14.2,8.2l22.6,39.1"/>
					<path class="st1" d="M300.4,676.6l21.1,25.2v16.4h-45.1"/>
				</g>
				<g>
					<path class="st1" d="M289.9,658.3l-11.2-30.9l-14.2-8.2l-22.6,39.1"/>
					<path class="st1" d="M289.9,658.3l-11.2,30.9l-14.2,8.2l-22.6-39.1"/>
				</g>
				<g>
					<path class="st1" d="M300.4,640l21.1-25.2v-16.4h-45.1"/>
					<path class="st1" d="M300.4,640l-32.3,5.7l-14.2-8.2l22.6-39.1"/>
				</g>
			</g>
		</g>
		<g>
			<g>
				<g>
					<path class="st1" d="M321.5,759.7l32.3,5.7l14.2-8.2l-22.6-39.1"/>
					<path class="st1" d="M321.5,759.7l-21.1-25.2v-16.4h45.1"/>
				</g>
				<g>
					<path class="st1" d="M332.1,778l11.2,30.9l14.2,8.2l22.6-39.1"/>
					<path class="st1" d="M332.1,778l11.2-30.9l14.2-8.2l22.6,39.1"/>
				</g>
				<g>
					<path class="st1" d="M321.5,796.3l-21.1,25.2v16.4h45.1"/>
					<path class="st1" d="M321.5,796.3l32.3-5.7l14.2,8.2l-22.6,39.1"/>
				</g>
				<g>
					<path class="st1" d="M300.4,796.3l-32.3-5.7l-14.2,8.2l22.6,39.1"/>
					<path class="st1" d="M300.4,796.3l21.1,25.2v16.4h-45.1"/>
				</g>
				<g>
					<path class="st1" d="M289.9,778l-11.2-30.9l-14.2-8.2L241.9,778"/>
					<path class="st1" d="M289.9,778l-11.2,30.9l-14.2,8.2L241.9,778"/>
				</g>
				<g>
					<path class="st1" d="M300.4,759.7l21.1-25.2v-16.4h-45.1"/>
					<path class="st1" d="M300.4,759.7l-32.3,5.7l-14.2-8.2l22.6-39.1"/>
				</g>
			</g>
		</g>
		<g>
			<g>
				<g>
					<path class="st1" d="M321.5,879.4l32.3,5.7l14.2-8.2l-22.6-39.1"/>
					<path class="st1" d="M321.5,879.4l-21.1-25.2v-16.4h45.1"/>
				</g>
				<g>
					<path class="st1" d="M332.1,897.7l11.2,30.9l14.2,8.2l22.6-39.1"/>
					<path class="st1" d="M332.1,897.7l11.2-30.9l14.2-8.2l22.6,39.1"/>
				</g>
				<g>
					<path class="st1" d="M321.5,916l-21.1,25.2v16.4h45.1"/>
					<path class="st1" d="M321.5,916l32.3-5.7l14.2,8.2l-22.6,39.1"/>
				</g>
				<g>
					<path class="st1" d="M300.4,916l-32.3-5.7l-14.2,8.2l22.6,39.1"/>
					<path class="st1" d="M300.4,916l21.1,25.2v16.4h-45.1"/>
				</g>
				<g>
					<path class="st1" d="M289.9,897.7l-11.2-30.9l-14.2-8.2l-22.6,39.1"/>
					<path class="st1" d="M289.9,897.7l-11.2,30.9l-14.2,8.2l-22.6-39.1"/>
				</g>
				<g>
					<path class="st1" d="M300.4,879.4l21.1-25.2v-16.4h-45.1"/>
					<path class="st1" d="M300.4,879.4l-32.3,5.7l-14.2-8.2l22.6-39.1"/>
				</g>
			</g>
		</g>
		<g>
			<g>
				<g>
					<path class="st1" d="M425.2-18.3l32.3,5.7l14.2-8.2l-22.6-39.1"/>
					<path class="st1" d="M425.2-18.3l-21.1-25.2v-16.4h45.1"/>
				</g>
				<g>
					<path class="st1" d="M435.7,0L447,30.9l14.2,8.2L483.7,0"/>
					<path class="st1" d="M435.7,0L447-30.9l14.2-8.2L483.7,0"/>
				</g>
				<g>
					<path class="st1" d="M425.2,18.3l-21.1,25.2v16.4h45.1"/>
					<path class="st1" d="M425.2,18.3l32.3-5.7l14.2,8.2l-22.6,39.1"/>
				</g>
				<g>
					<path class="st1" d="M404.1,18.3l-32.3-5.7l-14.2,8.2l22.6,39.1"/>
					<path class="st1" d="M404.1,18.3l21.1,25.2v16.4h-45.1"/>
				</g>
				<g>
					<path class="st1" d="M393.5,0l-11.2-30.9l-14.2-8.2L345.5,0"/>
					<path class="st1" d="M393.5,0l-11.2,30.9l-14.2,8.2L345.5,0"/>
				</g>
				<g>
					<path class="st1" d="M404.1-18.3l21.1-25.2v-16.4h-45.1"/>
					<path class="st1" d="M404.1-18.3l-32.3,5.7l-14.2-8.2l22.6-39.1"/>
				</g>
			</g>
		</g>
		<g>
			<g>
				<g>
					<path class="st1" d="M425.2,101.4l32.3,5.7l14.2-8.2l-22.6-39.1"/>
					<path class="st1" d="M425.2,101.4l-21.1-25.2V59.8h45.1"/>
				</g>
				<g>
					<path class="st1" d="M435.7,119.7l11.2,30.9l14.2,8.2l22.6-39.1"/>
					<path class="st1" d="M435.7,119.7L447,88.8l14.2-8.2l22.6,39.1"/>
				</g>
				<g>
					<path class="st1" d="M425.2,138l-21.1,25.2v16.4h45.1"/>
					<path class="st1" d="M425.2,138l32.3-5.7l14.2,8.2l-22.6,39.1"/>
				</g>
				<g>
					<path class="st1" d="M404.1,138l-32.3-5.7l-14.2,8.2l22.6,39.1"/>
					<path class="st1" d="M404.1,138l21.1,25.2v16.4h-45.1"/>
				</g>
				<g>
					<path class="st1" d="M393.5,119.7l-11.2-30.9l-14.2-8.2l-22.6,39.1"/>
					<path class="st1" d="M393.5,119.7l-11.2,30.9l-14.2,8.2l-22.6-39.1"/>
				</g>
				<g>
					<path class="st1" d="M404.1,101.4l21.1-25.2V59.8h-45.1"/>
					<path class="st1" d="M404.1,101.4l-32.3,5.7l-14.2-8.2l22.6-39.1"/>
				</g>
			</g>
		</g>
		<g>
			<g>
				<g>
					<path class="st1" d="M425.2,221.1l32.3,5.7l14.2-8.2l-22.6-39.1"/>
					<path class="st1" d="M425.2,221.1L404.1,196v-16.4h45.1"/>
				</g>
				<g>
					<path class="st1" d="M435.7,239.4l11.2,30.9l14.2,8.2l22.6-39.1"/>
					<path class="st1" d="M435.7,239.4l11.2-30.9l14.2-8.2l22.6,39.1"/>
				</g>
				<g>
					<path class="st1" d="M425.2,257.7l-21.1,25.2v16.4h45.1"/>
					<path class="st1" d="M425.2,257.7l32.3-5.7l14.2,8.2l-22.6,39.1"/>
				</g>
				<g>
					<path class="st1" d="M404.1,257.7l-32.3-5.7l-14.2,8.2l22.6,39.1"/>
					<path class="st1" d="M404.1,257.7l21.1,25.2v16.4h-45.1"/>
				</g>
				<g>
					<path class="st1" d="M393.5,239.4l-11.2-30.9l-14.2-8.2l-22.6,39.1"/>
					<path class="st1" d="M393.5,239.4l-11.2,30.9l-14.2,8.2l-22.6-39.1"/>
				</g>
				<g>
					<path class="st1" d="M404.1,221.1l21.1-25.2v-16.4h-45.1"/>
					<path class="st1" d="M404.1,221.1l-32.3,5.7l-14.2-8.2l22.6-39.1"/>
				</g>
			</g>
		</g>
		<g>
			<g>
				<g>
					<path class="st1" d="M425.2,340.8l32.3,5.7l14.2-8.2l-22.6-39.1"/>
					<path class="st1" d="M425.2,340.8l-21.1-25.2v-16.4h45.1"/>
				</g>
				<g>
					<path class="st1" d="M435.7,359.1l11.2,30.9l14.2,8.2l22.6-39.1"/>
					<path class="st1" d="M435.7,359.1l11.2-30.9l14.2-8.2l22.6,39.1"/>
				</g>
				<g>
					<path class="st1" d="M425.2,377.4l-21.1,25.2v16.4h45.1"/>
					<path class="st1" d="M425.2,377.4l32.3-5.7l14.2,8.2l-22.6,39.1"/>
				</g>
				<g>
					<path class="st1" d="M404.1,377.4l-32.3-5.7l-14.2,8.2l22.6,39.1"/>
					<path class="st1" d="M404.1,377.4l21.1,25.2v16.4h-45.1"/>
				</g>
				<g>
					<path class="st1" d="M393.5,359.1l-11.2-30.9l-14.2-8.2l-22.6,39.1"/>
					<path class="st1" d="M393.5,359.1l-11.2,30.9l-14.2,8.2l-22.6-39.1"/>
				</g>
				<g>
					<path class="st1" d="M404.1,340.8l21.1-25.2v-16.4h-45.1"/>
					<path class="st1" d="M404.1,340.8l-32.3,5.7l-14.2-8.2l22.6-39.1"/>
				</g>
			</g>
		</g>
		<g>
			<g>
				<g>
					<path class="st1" d="M425.2,460.5l32.3,5.7l14.2-8.2l-22.6-39.1"/>
					<path class="st1" d="M425.2,460.5l-21.1-25.2v-16.4h45.1"/>
				</g>
				<g>
					<path class="st1" d="M435.7,478.8l11.2,30.9l14.2,8.2l22.6-39.1"/>
					<path class="st1" d="M435.7,478.8l11.2-30.9l14.2-8.2l22.6,39.1"/>
				</g>
				<g>
					<path class="st1" d="M425.2,497.1l-21.1,25.2v16.4h45.1"/>
					<path class="st1" d="M425.2,497.1l32.3-5.7l14.2,8.2l-22.6,39.1"/>
				</g>
				<g>
					<path class="st1" d="M404.1,497.1l-32.3-5.7l-14.2,8.2l22.6,39.1"/>
					<path class="st1" d="M404.1,497.1l21.1,25.2v16.4h-45.1"/>
				</g>
				<g>
					<path class="st1" d="M393.5,478.8l-11.2-30.9l-14.2-8.2l-22.6,39.1"/>
					<path class="st1" d="M393.5,478.8l-11.2,30.9l-14.2,8.2l-22.6-39.1"/>
				</g>
				<g>
					<path class="st1" d="M404.1,460.5l21.1-25.2v-16.4h-45.1"/>
					<path class="st1" d="M404.1,460.5l-32.3,5.7l-14.2-8.2l22.6-39.1"/>
				</g>
			</g>
		</g>
		<g>
			<g>
				<g>
					<path class="st1" d="M425.2,580.2l32.3,5.7l14.2-8.2l-22.6-39.1"/>
					<path class="st1" d="M425.2,580.2L404.1,555v-16.4h45.1"/>
				</g>
				<g>
					<path class="st1" d="M435.7,598.5l11.2,30.9l14.2,8.2l22.6-39.1"/>
					<path class="st1" d="M435.7,598.5l11.2-30.9l14.2-8.2l22.6,39.1"/>
				</g>
				<g>
					<path class="st1" d="M425.2,616.7l-21.1,25.2v16.4h45.1"/>
					<path class="st1" d="M425.2,616.7l32.3-5.7l14.2,8.2l-22.6,39.1"/>
				</g>
				<g>
					<path class="st1" d="M404.1,616.7l-32.3-5.7l-14.2,8.2l22.6,39.1"/>
					<path class="st1" d="M404.1,616.7l21.1,25.2v16.4h-45.1"/>
				</g>
				<g>
					<path class="st1" d="M393.5,598.5l-11.2-30.9l-14.2-8.2l-22.6,39.1"/>
					<path class="st1" d="M393.5,598.5l-11.2,30.9l-14.2,8.2l-22.6-39.1"/>
				</g>
				<g>
					<path class="st1" d="M404.1,580.2l21.1-25.2v-16.4h-45.1"/>
					<path class="st1" d="M404.1,580.2l-32.3,5.7l-14.2-8.2l22.6-39.1"/>
				</g>
			</g>
		</g>
		<g>
			<g>
				<g>
					<path class="st1" d="M425.2,699.9l32.3,5.7l14.2-8.2l-22.6-39.1"/>
					<path class="st1" d="M425.2,699.9l-21.1-25.2v-16.4h45.1"/>
				</g>
				<g>
					<path class="st1" d="M435.7,718.2L447,749l14.2,8.2l22.6-39.1"/>
					<path class="st1" d="M435.7,718.2l11.2-30.9l14.2-8.2l22.6,39.1"/>
				</g>
				<g>
					<path class="st1" d="M425.2,736.4l-21.1,25.2V778h45.1"/>
					<path class="st1" d="M425.2,736.4l32.3-5.7l14.2,8.2L449.2,778"/>
				</g>
				<g>
					<path class="st1" d="M404.1,736.4l-32.3-5.7l-14.2,8.2l22.6,39.1"/>
					<path class="st1" d="M404.1,736.4l21.1,25.2V778h-45.1"/>
				</g>
				<g>
					<path class="st1" d="M393.5,718.2l-11.2-30.9l-14.2-8.2l-22.6,39.1"/>
					<path class="st1" d="M393.5,718.2L382.3,749l-14.2,8.2l-22.6-39.1"/>
				</g>
				<g>
					<path class="st1" d="M404.1,699.9l21.1-25.2v-16.4h-45.1"/>
					<path class="st1" d="M404.1,699.9l-32.3,5.7l-14.2-8.2l22.6-39.1"/>
				</g>
			</g>
		</g>
		<g>
			<g>
				<g>
					<path class="st1" d="M425.2,819.6l32.3,5.7l14.2-8.2L449.2,778"/>
					<path class="st1" d="M425.2,819.6l-21.1-25.2V778h45.1"/>
				</g>
				<g>
					<path class="st1" d="M435.7,837.9l11.2,30.9l14.2,8.2l22.6-39.1"/>
					<path class="st1" d="M435.7,837.9L447,807l14.2-8.2l22.6,39.1"/>
				</g>
				<g>
					<path class="st1" d="M425.2,856.1l-21.1,25.2v16.4h45.1"/>
					<path class="st1" d="M425.2,856.1l32.3-5.7l14.2,8.2l-22.6,39.1"/>
				</g>
				<g>
					<path class="st1" d="M404.1,856.1l-32.3-5.7l-14.2,8.2l22.6,39.1"/>
					<path class="st1" d="M404.1,856.1l21.1,25.2v16.4h-45.1"/>
				</g>
				<g>
					<path class="st1" d="M393.5,837.9L382.3,807l-14.2-8.2l-22.6,39.1"/>
					<path class="st1" d="M393.5,837.9l-11.2,30.9l-14.2,8.2l-22.6-39.1"/>
				</g>
				<g>
					<path class="st1" d="M404.1,819.6l21.1-25.2V778h-45.1"/>
					<path class="st1" d="M404.1,819.6l-32.3,5.7l-14.2-8.2l22.6-39.1"/>
				</g>
			</g>
		</g>
		<g>
			<g>
				<g>
					<path class="st1" d="M528.8,41.6l32.3,5.7l14.2-8.2L552.8,0"/>
					<path class="st1" d="M528.8,41.6l-21.1-25.2V0h45.1"/>
				</g>
				<g>
					<path class="st1" d="M539.4,59.8l11.2,30.9l14.2,8.2l22.6-39.1"/>
					<path class="st1" d="M539.4,59.8L550.6,29l14.2-8.2l22.6,39.1"/>
				</g>
				<g>
					<path class="st1" d="M528.8,78.1l-21.1,25.2v16.4h45.1"/>
					<path class="st1" d="M528.8,78.1l32.3-5.7l14.2,8.2l-22.6,39.1"/>
				</g>
				<g>
					<path class="st1" d="M507.7,78.1l-32.3-5.7l-14.2,8.2l22.6,39.1"/>
					<path class="st1" d="M507.7,78.1l21.1,25.2v16.4h-45.1"/>
				</g>
				<g>
					<path class="st1" d="M497.2,59.8L486,29l-14.2-8.2l-22.6,39.1"/>
					<path class="st1" d="M497.2,59.8L486,90.7l-14.2,8.2l-22.6-39.1"/>
				</g>
				<g>
					<path class="st1" d="M507.7,41.6l21.1-25.2V0h-45.1"/>
					<path class="st1" d="M507.7,41.6l-32.3,5.7l-14.2-8.2L483.7,0"/>
				</g>
			</g>
		</g>
		<g>
			<g>
				<g>
					<path class="st1" d="M528.8,161.3l32.3,5.7l14.2-8.2l-22.6-39.1"/>
					<path class="st1" d="M528.8,161.3l-21.1-25.2v-16.4h45.1"/>
				</g>
				<g>
					<path class="st1" d="M539.4,179.5l11.2,30.9l14.2,8.2l22.6-39.1"/>
					<path class="st1" d="M539.4,179.5l11.2-30.9l14.2-8.2l22.6,39.1"/>
				</g>
				<g>
					<path class="st1" d="M528.8,197.8L507.7,223v16.4h45.1"/>
					<path class="st1" d="M528.8,197.8l32.3-5.7l14.2,8.2l-22.6,39.1"/>
				</g>
				<g>
					<path class="st1" d="M507.7,197.8l-32.3-5.7l-14.2,8.2l22.6,39.1"/>
					<path class="st1" d="M507.7,197.8l21.1,25.2v16.4h-45.1"/>
				</g>
				<g>
					<path class="st1" d="M497.2,179.5L486,148.7l-14.2-8.2l-22.6,39.1"/>
					<path class="st1" d="M497.2,179.5L486,210.4l-14.2,8.2l-22.6-39.1"/>
				</g>
				<g>
					<path class="st1" d="M507.7,161.3l21.1-25.2v-16.4h-45.1"/>
					<path class="st1" d="M507.7,161.3l-32.3,5.7l-14.2-8.2l22.6-39.1"/>
				</g>
			</g>
		</g>
		<g>
			<g>
				<g>
					<path class="st1" d="M528.8,281l32.3,5.7l14.2-8.2l-22.6-39.1"/>
					<path class="st1" d="M528.8,281l-21.1-25.2v-16.4h45.1"/>
				</g>
				<g>
					<path class="st1" d="M539.4,299.2l11.2,30.9l14.2,8.2l22.6-39.1"/>
					<path class="st1" d="M539.4,299.2l11.2-30.9l14.2-8.2l22.6,39.1"/>
				</g>
				<g>
					<path class="st1" d="M528.8,317.5l-21.1,25.2v16.4h45.1"/>
					<path class="st1" d="M528.8,317.5l32.3-5.7l14.2,8.2l-22.6,39.1"/>
				</g>
				<g>
					<path class="st1" d="M507.7,317.5l-32.3-5.7l-14.2,8.2l22.6,39.1"/>
					<path class="st1" d="M507.7,317.5l21.1,25.2v16.4h-45.1"/>
				</g>
				<g>
					<path class="st1" d="M497.2,299.2L486,268.4l-14.2-8.2l-22.6,39.1"/>
					<path class="st1" d="M497.2,299.2L486,330.1l-14.2,8.2l-22.6-39.1"/>
				</g>
				<g>
					<path class="st1" d="M507.7,281l21.1-25.2v-16.4h-45.1"/>
					<path class="st1" d="M507.7,281l-32.3,5.7l-14.2-8.2l22.6-39.1"/>
				</g>
			</g>
		</g>
		<g>
			<g>
				<g>
					<path class="st1" d="M528.8,400.7l32.3,5.7l14.2-8.2l-22.6-39.1"/>
					<path class="st1" d="M528.8,400.7l-21.1-25.2v-16.4h45.1"/>
				</g>
				<g>
					<path class="st1" d="M539.4,418.9l11.2,30.9l14.2,8.2l22.6-39.1"/>
					<path class="st1" d="M539.4,418.9l11.2-30.9l14.2-8.2l22.6,39.1"/>
				</g>
				<g>
					<path class="st1" d="M528.8,437.2l-21.1,25.2v16.4h45.1"/>
					<path class="st1" d="M528.8,437.2l32.3-5.7l14.2,8.2l-22.6,39.1"/>
				</g>
				<g>
					<path class="st1" d="M507.7,437.2l-32.3-5.7l-14.2,8.2l22.6,39.1"/>
					<path class="st1" d="M507.7,437.2l21.1,25.2v16.4h-45.1"/>
				</g>
				<g>
					<path class="st1" d="M497.2,418.9L486,388.1l-14.2-8.2l-22.6,39.1"/>
					<path class="st1" d="M497.2,418.9L486,449.8l-14.2,8.2l-22.6-39.1"/>
				</g>
				<g>
					<path class="st1" d="M507.7,400.7l21.1-25.2v-16.4h-45.1"/>
					<path class="st1" d="M507.7,400.7l-32.3,5.7l-14.2-8.2l22.6-39.1"/>
				</g>
			</g>
		</g>
		<g>
			<g>
				<g>
					<path class="st1" d="M528.8,520.3l32.3,5.7l14.2-8.2l-22.6-39.1"/>
					<path class="st1" d="M528.8,520.3l-21.1-25.2v-16.4h45.1"/>
				</g>
				<g>
					<path class="st1" d="M539.4,538.6l11.2,30.9l14.2,8.2l22.6-39.1"/>
					<path class="st1" d="M539.4,538.6l11.2-30.9l14.2-8.2l22.6,39.1"/>
				</g>
				<g>
					<path class="st1" d="M528.8,556.9l-21.1,25.2v16.4h45.1"/>
					<path class="st1" d="M528.8,556.9l32.3-5.7l14.2,8.2l-22.6,39.1"/>
				</g>
				<g>
					<path class="st1" d="M507.7,556.9l-32.3-5.7l-14.2,8.2l22.6,39.1"/>
					<path class="st1" d="M507.7,556.9l21.1,25.2v16.4h-45.1"/>
				</g>
				<g>
					<path class="st1" d="M497.2,538.6L486,507.8l-14.2-8.2l-22.6,39.1"/>
					<path class="st1" d="M497.2,538.6L486,569.5l-14.2,8.2l-22.6-39.1"/>
				</g>
				<g>
					<path class="st1" d="M507.7,520.3l21.1-25.2v-16.4h-45.1"/>
					<path class="st1" d="M507.7,520.3l-32.3,5.7l-14.2-8.2l22.6-39.1"/>
				</g>
			</g>
		</g>
		<g>
			<g>
				<g>
					<path class="st1" d="M528.8,640l32.3,5.7l14.2-8.2l-22.6-39.1"/>
					<path class="st1" d="M528.8,640l-21.1-25.2v-16.4h45.1"/>
				</g>
				<g>
					<path class="st1" d="M539.4,658.3l11.2,30.9l14.2,8.2l22.6-39.1"/>
					<path class="st1" d="M539.4,658.3l11.2-30.9l14.2-8.2l22.6,39.1"/>
				</g>
				<g>
					<path class="st1" d="M528.8,676.6l-21.1,25.2v16.4h45.1"/>
					<path class="st1" d="M528.8,676.6l32.3-5.7l14.2,8.2l-22.6,39.1"/>
				</g>
				<g>
					<path class="st1" d="M507.7,676.6l-32.3-5.7l-14.2,8.2l22.6,39.1"/>
					<path class="st1" d="M507.7,676.6l21.1,25.2v16.4h-45.1"/>
				</g>
				<g>
					<path class="st1" d="M497.2,658.3L486,627.5l-14.2-8.2l-22.6,39.1"/>
					<path class="st1" d="M497.2,658.3L486,689.2l-14.2,8.2l-22.6-39.1"/>
				</g>
				<g>
					<path class="st1" d="M507.7,640l21.1-25.2v-16.4h-45.1"/>
					<path class="st1" d="M507.7,640l-32.3,5.7l-14.2-8.2l22.6-39.1"/>
				</g>
			</g>
		</g>
		<g>
			<g>
				<g>
					<path class="st1" d="M528.8,759.7l32.3,5.7l14.2-8.2l-22.6-39.1"/>
					<path class="st1" d="M528.8,759.7l-21.1-25.2v-16.4h45.1"/>
				</g>
				<g>
					<path class="st1" d="M539.4,778l11.2,30.9l14.2,8.2l22.6-39.1"/>
					<path class="st1" d="M539.4,778l11.2-30.9l14.2-8.2l22.6,39.1"/>
				</g>
				<g>
					<path class="st1" d="M528.8,796.3l-21.1,25.2v16.4h45.1"/>
					<path class="st1" d="M528.8,796.3l32.3-5.7l14.2,8.2l-22.6,39.1"/>
				</g>
				<g>
					<path class="st1" d="M507.7,796.3l-32.3-5.7l-14.2,8.2l22.6,39.1"/>
					<path class="st1" d="M507.7,796.3l21.1,25.2v16.4h-45.1"/>
				</g>
				<g>
					<path class="st1" d="M497.2,778L486,747.2l-14.2-8.2L449.2,778"/>
					<path class="st1" d="M497.2,778L486,808.9l-14.2,8.2L449.2,778"/>
				</g>
				<g>
					<path class="st1" d="M507.7,759.7l21.1-25.2v-16.4h-45.1"/>
					<path class="st1" d="M507.7,759.7l-32.3,5.7l-14.2-8.2l22.6-39.1"/>
				</g>
			</g>
		</g>
		<g>
			<g>
				<g>
					<path class="st1" d="M528.8,879.4l32.3,5.7l14.2-8.2l-22.6-39.1"/>
					<path class="st1" d="M528.8,879.4l-21.1-25.2v-16.4h45.1"/>
				</g>
				<g>
					<path class="st1" d="M539.4,897.7l11.2,30.9l14.2,8.2l22.6-39.1"/>
					<path class="st1" d="M539.4,897.7l11.2-30.9l14.2-8.2l22.6,39.1"/>
				</g>
				<g>
					<path class="st1" d="M528.8,916l-21.1,25.2v16.4h45.1"/>
					<path class="st1" d="M528.8,916l32.3-5.7l14.2,8.2l-22.6,39.1"/>
				</g>
				<g>
					<path class="st1" d="M507.7,916l-32.3-5.7l-14.2,8.2l22.6,39.1"/>
					<path class="st1" d="M507.7,916l21.1,25.2v16.4h-45.1"/>
				</g>
				<g>
					<path class="st1" d="M497.2,897.7L486,866.8l-14.2-8.2l-22.6,39.1"/>
					<path class="st1" d="M497.2,897.7L486,928.6l-14.2,8.2l-22.6-39.1"/>
				</g>
				<g>
					<path class="st1" d="M507.7,879.4l21.1-25.2v-16.4h-45.1"/>
					<path class="st1" d="M507.7,879.4l-32.3,5.7l-14.2-8.2l22.6-39.1"/>
				</g>
			</g>
		</g>
		<g>
			<g>
				<g>
					<path class="st1" d="M632.5-18.3l32.3,5.7l14.2-8.2l-22.6-39.1"/>
					<path class="st1" d="M632.5-18.3l-21.1-25.2v-16.4h45.1"/>
				</g>
				<g>
					<path class="st1" d="M643.1,0l11.2,30.9l14.2,8.2L691.1,0"/>
					<path class="st1" d="M643.1,0l11.2-30.9l14.2-8.2L691.1,0"/>
				</g>
				<g>
					<path class="st1" d="M632.5,18.3l-21.1,25.2v16.4h45.1"/>
					<path class="st1" d="M632.5,18.3l32.3-5.7l14.2,8.2l-22.6,39.1"/>
				</g>
				<g>
					<path class="st1" d="M611.4,18.3l-32.3-5.7l-14.2,8.2l22.6,39.1"/>
					<path class="st1" d="M611.4,18.3l21.1,25.2v16.4h-45.1"/>
				</g>
				<g>
					<path class="st1" d="M600.8,0l-11.2-30.9l-14.2-8.2L552.8,0"/>
					<path class="st1" d="M600.8,0l-11.2,30.9l-14.2,8.2L552.8,0"/>
				</g>
				<g>
					<path class="st1" d="M611.4-18.3l21.1-25.2v-16.4h-45.1"/>
					<path class="st1" d="M611.4-18.3l-32.3,5.7l-14.2-8.2l22.6-39.1"/>
				</g>
			</g>
		</g>
		<g>
			<g>
				<g>
					<path class="st1" d="M632.5,101.4l32.3,5.7l14.2-8.2l-22.6-39.1"/>
					<path class="st1" d="M632.5,101.4l-21.1-25.2V59.8h45.1"/>
				</g>
				<g>
					<path class="st1" d="M643.1,119.7l11.2,30.9l14.2,8.2l22.6-39.1"/>
					<path class="st1" d="M643.1,119.7l11.2-30.9l14.2-8.2l22.6,39.1"/>
				</g>
				<g>
					<path class="st1" d="M632.5,138l-21.1,25.2v16.4h45.1"/>
					<path class="st1" d="M632.5,138l32.3-5.7l14.2,8.2l-22.6,39.1"/>
				</g>
				<g>
					<path class="st1" d="M611.4,138l-32.3-5.7l-14.2,8.2l22.6,39.1"/>
					<path class="st1" d="M611.4,138l21.1,25.2v16.4h-45.1"/>
				</g>
				<g>
					<path class="st1" d="M600.8,119.7l-11.2-30.9l-14.2-8.2l-22.6,39.1"/>
					<path class="st1" d="M600.8,119.7l-11.2,30.9l-14.2,8.2l-22.6-39.1"/>
				</g>
				<g>
					<path class="st1" d="M611.4,101.4l21.1-25.2V59.8h-45.1"/>
					<path class="st1" d="M611.4,101.4l-32.3,5.7l-14.2-8.2l22.6-39.1"/>
				</g>
			</g>
		</g>
		<g>
			<g>
				<g>
					<path class="st1" d="M632.5,221.1l32.3,5.7l14.2-8.2l-22.6-39.1"/>
					<path class="st1" d="M632.5,221.1L611.4,196v-16.4h45.1"/>
				</g>
				<g>
					<path class="st1" d="M643.1,239.4l11.2,30.9l14.2,8.2l22.6-39.1"/>
					<path class="st1" d="M643.1,239.4l11.2-30.9l14.2-8.2l22.6,39.1"/>
				</g>
				<g>
					<path class="st1" d="M632.5,257.7l-21.1,25.2v16.4h45.1"/>
					<path class="st1" d="M632.5,257.7l32.3-5.7l14.2,8.2l-22.6,39.1"/>
				</g>
				<g>
					<path class="st1" d="M611.4,257.7l-32.3-5.7l-14.2,8.2l22.6,39.1"/>
					<path class="st1" d="M611.4,257.7l21.1,25.2v16.4h-45.1"/>
				</g>
				<g>
					<path class="st1" d="M600.8,239.4l-11.2-30.9l-14.2-8.2l-22.6,39.1"/>
					<path class="st1" d="M600.8,239.4l-11.2,30.9l-14.2,8.2l-22.6-39.1"/>
				</g>
				<g>
					<path class="st1" d="M611.4,221.1l21.1-25.2v-16.4h-45.1"/>
					<path class="st1" d="M611.4,221.1l-32.3,5.7l-14.2-8.2l22.6-39.1"/>
				</g>
			</g>
		</g>
		<g>
			<g>
				<g>
					<path class="st1" d="M632.5,340.8l32.3,5.7l14.2-8.2l-22.6-39.1"/>
					<path class="st1" d="M632.5,340.8l-21.1-25.2v-16.4h45.1"/>
				</g>
				<g>
					<path class="st1" d="M643.1,359.1l11.2,30.9l14.2,8.2l22.6-39.1"/>
					<path class="st1" d="M643.1,359.1l11.2-30.9l14.2-8.2l22.6,39.1"/>
				</g>
				<g>
					<path class="st1" d="M632.5,377.4l-21.1,25.2v16.4h45.1"/>
					<path class="st1" d="M632.5,377.4l32.3-5.7l14.2,8.2l-22.6,39.1"/>
				</g>
				<g>
					<path class="st1" d="M611.4,377.4l-32.3-5.7l-14.2,8.2l22.6,39.1"/>
					<path class="st1" d="M611.4,377.4l21.1,25.2v16.4h-45.1"/>
				</g>
				<g>
					<path class="st1" d="M600.8,359.1l-11.2-30.9l-14.2-8.2l-22.6,39.1"/>
					<path class="st1" d="M600.8,359.1l-11.2,30.9l-14.2,8.2l-22.6-39.1"/>
				</g>
				<g>
					<path class="st1" d="M611.4,340.8l21.1-25.2v-16.4h-45.1"/>
					<path class="st1" d="M611.4,340.8l-32.3,5.7l-14.2-8.2l22.6-39.1"/>
				</g>
			</g>
		</g>
		<g>
			<g>
				<g>
					<path class="st1" d="M632.5,460.5l32.3,5.7l14.2-8.2l-22.6-39.1"/>
					<path class="st1" d="M632.5,460.5l-21.1-25.2v-16.4h45.1"/>
				</g>
				<g>
					<path class="st1" d="M643.1,478.8l11.2,30.9l14.2,8.2l22.6-39.1"/>
					<path class="st1" d="M643.1,478.8l11.2-30.9l14.2-8.2l22.6,39.1"/>
				</g>
				<g>
					<path class="st1" d="M632.5,497.1l-21.1,25.2v16.4h45.1"/>
					<path class="st1" d="M632.5,497.1l32.3-5.7l14.2,8.2l-22.6,39.1"/>
				</g>
				<g>
					<path class="st1" d="M611.4,497.1l-32.3-5.7l-14.2,8.2l22.6,39.1"/>
					<path class="st1" d="M611.4,497.1l21.1,25.2v16.4h-45.1"/>
				</g>
				<g>
					<path class="st1" d="M600.8,478.8l-11.2-30.9l-14.2-8.2l-22.6,39.1"/>
					<path class="st1" d="M600.8,478.8l-11.2,30.9l-14.2,8.2l-22.6-39.1"/>
				</g>
				<g>
					<path class="st1" d="M611.4,460.5l21.1-25.2v-16.4h-45.1"/>
					<path class="st1" d="M611.4,460.5l-32.3,5.7l-14.2-8.2l22.6-39.1"/>
				</g>
			</g>
		</g>
		<g>
			<g>
				<g>
					<path class="st1" d="M632.5,580.2l32.3,5.7l14.2-8.2l-22.6-39.1"/>
					<path class="st1" d="M632.5,580.2L611.4,555v-16.4h45.1"/>
				</g>
				<g>
					<path class="st1" d="M643.1,598.5l11.2,30.9l14.2,8.2l22.6-39.1"/>
					<path class="st1" d="M643.1,598.5l11.2-30.9l14.2-8.2l22.6,39.1"/>
				</g>
				<g>
					<path class="st1" d="M632.5,616.7l-21.1,25.2v16.4h45.1"/>
					<path class="st1" d="M632.5,616.7l32.3-5.7l14.2,8.2l-22.6,39.1"/>
				</g>
				<g>
					<path class="st1" d="M611.4,616.7l-32.3-5.7l-14.2,8.2l22.6,39.1"/>
					<path class="st1" d="M611.4,616.7l21.1,25.2v16.4h-45.1"/>
				</g>
				<g>
					<path class="st1" d="M600.8,598.5l-11.2-30.9l-14.2-8.2l-22.6,39.1"/>
					<path class="st1" d="M600.8,598.5l-11.2,30.9l-14.2,8.2l-22.6-39.1"/>
				</g>
				<g>
					<path class="st1" d="M611.4,580.2l21.1-25.2v-16.4h-45.1"/>
					<path class="st1" d="M611.4,580.2l-32.3,5.7l-14.2-8.2l22.6-39.1"/>
				</g>
			</g>
		</g>
		<g>
			<g>
				<g>
					<path class="st1" d="M632.5,699.9l32.3,5.7l14.2-8.2l-22.6-39.1"/>
					<path class="st1" d="M632.5,699.9l-21.1-25.2v-16.4h45.1"/>
				</g>
				<g>
					<path class="st1" d="M643.1,718.2l11.2,30.9l14.2,8.2l22.6-39.1"/>
					<path class="st1" d="M643.1,718.2l11.2-30.9l14.2-8.2l22.6,39.1"/>
				</g>
				<g>
					<path class="st1" d="M632.5,736.4l-21.1,25.2V778h45.1"/>
					<path class="st1" d="M632.5,736.4l32.3-5.7l14.2,8.2L656.5,778"/>
				</g>
				<g>
					<path class="st1" d="M611.4,736.4l-32.3-5.7l-14.2,8.2l22.6,39.1"/>
					<path class="st1" d="M611.4,736.4l21.1,25.2V778h-45.1"/>
				</g>
				<g>
					<path class="st1" d="M600.8,718.2l-11.2-30.9l-14.2-8.2l-22.6,39.1"/>
					<path class="st1" d="M600.8,718.2L589.6,749l-14.2,8.2l-22.6-39.1"/>
				</g>
				<g>
					<path class="st1" d="M611.4,699.9l21.1-25.2v-16.4h-45.1"/>
					<path class="st1" d="M611.4,699.9l-32.3,5.7l-14.2-8.2l22.6-39.1"/>
				</g>
			</g>
		</g>
		<g>
			<g>
				<g>
					<path class="st1" d="M632.5,819.6l32.3,5.7l14.2-8.2L656.5,778"/>
					<path class="st1" d="M632.5,819.6l-21.1-25.2V778h45.1"/>
				</g>
				<g>
					<path class="st1" d="M643.1,837.9l11.2,30.9l14.2,8.2l22.6-39.1"/>
					<path class="st1" d="M643.1,837.9l11.2-30.9l14.2-8.2l22.6,39.1"/>
				</g>
				<g>
					<path class="st1" d="M632.5,856.1l-21.1,25.2v16.4h45.1"/>
					<path class="st1" d="M632.5,856.1l32.3-5.7l14.2,8.2l-22.6,39.1"/>
				</g>
				<g>
					<path class="st1" d="M611.4,856.1l-32.3-5.7l-14.2,8.2l22.6,39.1"/>
					<path class="st1" d="M611.4,856.1l21.1,25.2v16.4h-45.1"/>
				</g>
				<g>
					<path class="st1" d="M600.8,837.9L589.6,807l-14.2-8.2l-22.6,39.1"/>
					<path class="st1" d="M600.8,837.9l-11.2,30.9l-14.2,8.2l-22.6-39.1"/>
				</g>
				<g>
					<path class="st1" d="M611.4,819.6l21.1-25.2V778h-45.1"/>
					<path class="st1" d="M611.4,819.6l-32.3,5.7l-14.2-8.2l22.6-39.1"/>
				</g>
			</g>
		</g>
		<g>
			<g>
				<g>
					<path class="st1" d="M736.2,41.6l32.3,5.7l14.2-8.2L760.2,0"/>
					<path class="st1" d="M736.2,41.6l-21.1-25.2V0h45.1"/>
				</g>
				<g>
					<path class="st1" d="M746.7,59.8l11.2,30.9l14.2,8.2l22.6-39.1"/>
					<path class="st1" d="M746.7,59.8L757.9,29l14.2-8.2l22.6,39.1"/>
				</g>
				<g>
					<path class="st1" d="M736.2,78.1l-21.1,25.2v16.4h45.1"/>
					<path class="st1" d="M736.2,78.1l32.3-5.7l14.2,8.2l-22.6,39.1"/>
				</g>
				<g>
					<path class="st1" d="M715.1,78.1l-32.3-5.7l-14.2,8.2l22.6,39.1"/>
					<path class="st1" d="M715.1,78.1l21.1,25.2v16.4h-45.1"/>
				</g>
				<g>
					<path class="st1" d="M704.5,59.8L693.3,29l-14.2-8.2l-22.6,39.1"/>
					<path class="st1" d="M704.5,59.8l-11.2,30.9l-14.2,8.2l-22.6-39.1"/>
				</g>
				<g>
					<path class="st1" d="M715.1,41.6l21.1-25.2V0h-45.1"/>
					<path class="st1" d="M715.1,41.6l-32.3,5.7l-14.2-8.2L691.1,0"/>
				</g>
			</g>
		</g>
		<g>
			<g>
				<g>
					<path class="st1" d="M736.2,161.3l32.3,5.7l14.2-8.2l-22.6-39.1"/>
					<path class="st1" d="M736.2,161.3l-21.1-25.2v-16.4h45.1"/>
				</g>
				<g>
					<path class="st1" d="M746.7,179.5l11.2,30.9l14.2,8.2l22.6-39.1"/>
					<path class="st1" d="M746.7,179.5l11.2-30.9l14.2-8.2l22.6,39.1"/>
				</g>
				<g>
					<path class="st1" d="M736.2,197.8L715.1,223v16.4h45.1"/>
					<path class="st1" d="M736.2,197.8l32.3-5.7l14.2,8.2l-22.6,39.1"/>
				</g>
				<g>
					<path class="st1" d="M715.1,197.8l-32.3-5.7l-14.2,8.2l22.6,39.1"/>
					<path class="st1" d="M715.1,197.8l21.1,25.2v16.4h-45.1"/>
				</g>
				<g>
					<path class="st1" d="M704.5,179.5l-11.2-30.9l-14.2-8.2l-22.6,39.1"/>
					<path class="st1" d="M704.5,179.5l-11.2,30.9l-14.2,8.2l-22.6-39.1"/>
				</g>
				<g>
					<path class="st1" d="M715.1,161.3l21.1-25.2v-16.4h-45.1"/>
					<path class="st1" d="M715.1,161.3l-32.3,5.7l-14.2-8.2l22.6-39.1"/>
				</g>
			</g>
		</g>
		<g>
			<g>
				<g>
					<path class="st1" d="M736.2,281l32.3,5.7l14.2-8.2l-22.6-39.1"/>
					<path class="st1" d="M736.2,281l-21.1-25.2v-16.4h45.1"/>
				</g>
				<g>
					<path class="st1" d="M746.7,299.2l11.2,30.9l14.2,8.2l22.6-39.1"/>
					<path class="st1" d="M746.7,299.2l11.2-30.9l14.2-8.2l22.6,39.1"/>
				</g>
				<g>
					<path class="st1" d="M736.2,317.5l-21.1,25.2v16.4h45.1"/>
					<path class="st1" d="M736.2,317.5l32.3-5.7l14.2,8.2l-22.6,39.1"/>
				</g>
				<g>
					<path class="st1" d="M715.1,317.5l-32.3-5.7l-14.2,8.2l22.6,39.1"/>
					<path class="st1" d="M715.1,317.5l21.1,25.2v16.4h-45.1"/>
				</g>
				<g>
					<path class="st1" d="M704.5,299.2l-11.2-30.9l-14.2-8.2l-22.6,39.1"/>
					<path class="st1" d="M704.5,299.2l-11.2,30.9l-14.2,8.2l-22.6-39.1"/>
				</g>
				<g>
					<path class="st1" d="M715.1,281l21.1-25.2v-16.4h-45.1"/>
					<path class="st1" d="M715.1,281l-32.3,5.7l-14.2-8.2l22.6-39.1"/>
				</g>
			</g>
		</g>
		<g>
			<g>
				<g>
					<path class="st1" d="M736.2,400.7l32.3,5.7l14.2-8.2l-22.6-39.1"/>
					<path class="st1" d="M736.2,400.7l-21.1-25.2v-16.4h45.1"/>
				</g>
				<g>
					<path class="st1" d="M746.7,418.9l11.2,30.9l14.2,8.2l22.6-39.1"/>
					<path class="st1" d="M746.7,418.9l11.2-30.9l14.2-8.2l22.6,39.1"/>
				</g>
				<g>
					<path class="st1" d="M736.2,437.2l-21.1,25.2v16.4h45.1"/>
					<path class="st1" d="M736.2,437.2l32.3-5.7l14.2,8.2l-22.6,39.1"/>
				</g>
				<g>
					<path class="st1" d="M715.1,437.2l-32.3-5.7l-14.2,8.2l22.6,39.1"/>
					<path class="st1" d="M715.1,437.2l21.1,25.2v16.4h-45.1"/>
				</g>
				<g>
					<path class="st1" d="M704.5,418.9l-11.2-30.9l-14.2-8.2l-22.6,39.1"/>
					<path class="st1" d="M704.5,418.9l-11.2,30.9l-14.2,8.2l-22.6-39.1"/>
				</g>
				<g>
					<path class="st1" d="M715.1,400.7l21.1-25.2v-16.4h-45.1"/>
					<path class="st1" d="M715.1,400.7l-32.3,5.7l-14.2-8.2l22.6-39.1"/>
				</g>
			</g>
		</g>
		<g>
			<g>
				<g>
					<path class="st1" d="M736.2,520.3l32.3,5.7l14.2-8.2l-22.6-39.1"/>
					<path class="st1" d="M736.2,520.3l-21.1-25.2v-16.4h45.1"/>
				</g>
				<g>
					<path class="st1" d="M746.7,538.6l11.2,30.9l14.2,8.2l22.6-39.1"/>
					<path class="st1" d="M746.7,538.6l11.2-30.9l14.2-8.2l22.6,39.1"/>
				</g>
				<g>
					<path class="st1" d="M736.2,556.9l-21.1,25.2v16.4h45.1"/>
					<path class="st1" d="M736.2,556.9l32.3-5.7l14.2,8.2l-22.6,39.1"/>
				</g>
				<g>
					<path class="st1" d="M715.1,556.9l-32.3-5.7l-14.2,8.2l22.6,39.1"/>
					<path class="st1" d="M715.1,556.9l21.1,25.2v16.4h-45.1"/>
				</g>
				<g>
					<path class="st1" d="M704.5,538.6l-11.2-30.9l-14.2-8.2l-22.6,39.1"/>
					<path class="st1" d="M704.5,538.6l-11.2,30.9l-14.2,8.2l-22.6-39.1"/>
				</g>
				<g>
					<path class="st1" d="M715.1,520.3l21.1-25.2v-16.4h-45.1"/>
					<path class="st1" d="M715.1,520.3l-32.3,5.7l-14.2-8.2l22.6-39.1"/>
				</g>
			</g>
		</g>
		<g>
			<g>
				<g>
					<path class="st1" d="M736.2,640l32.3,5.7l14.2-8.2l-22.6-39.1"/>
					<path class="st1" d="M736.2,640l-21.1-25.2v-16.4h45.1"/>
				</g>
				<g>
					<path class="st1" d="M746.7,658.3l11.2,30.9l14.2,8.2l22.6-39.1"/>
					<path class="st1" d="M746.7,658.3l11.2-30.9l14.2-8.2l22.6,39.1"/>
				</g>
				<g>
					<path class="st1" d="M736.2,676.6l-21.1,25.2v16.4h45.1"/>
					<path class="st1" d="M736.2,676.6l32.3-5.7l14.2,8.2l-22.6,39.1"/>
				</g>
				<g>
					<path class="st1" d="M715.1,676.6l-32.3-5.7l-14.2,8.2l22.6,39.1"/>
					<path class="st1" d="M715.1,676.6l21.1,25.2v16.4h-45.1"/>
				</g>
				<g>
					<path class="st1" d="M704.5,658.3l-11.2-30.9l-14.2-8.2l-22.6,39.1"/>
					<path class="st1" d="M704.5,658.3l-11.2,30.9l-14.2,8.2l-22.6-39.1"/>
				</g>
				<g>
					<path class="st1" d="M715.1,640l21.1-25.2v-16.4h-45.1"/>
					<path class="st1" d="M715.1,640l-32.3,5.7l-14.2-8.2l22.6-39.1"/>
				</g>
			</g>
		</g>
		<g>
			<g>
				<g>
					<path class="st1" d="M736.2,759.7l32.3,5.7l14.2-8.2l-22.6-39.1"/>
					<path class="st1" d="M736.2,759.7l-21.1-25.2v-16.4h45.1"/>
				</g>
				<g>
					<path class="st1" d="M746.7,778l11.2,30.9l14.2,8.2l22.6-39.1"/>
					<path class="st1" d="M746.7,778l11.2-30.9l14.2-8.2l22.6,39.1"/>
				</g>
				<g>
					<path class="st1" d="M736.2,796.3l-21.1,25.2v16.4h45.1"/>
					<path class="st1" d="M736.2,796.3l32.3-5.7l14.2,8.2l-22.6,39.1"/>
				</g>
				<g>
					<path class="st1" d="M715.1,796.3l-32.3-5.7l-14.2,8.2l22.6,39.1"/>
					<path class="st1" d="M715.1,796.3l21.1,25.2v16.4h-45.1"/>
				</g>
				<g>
					<path class="st1" d="M704.5,778l-11.2-30.9l-14.2-8.2L656.5,778"/>
					<path class="st1" d="M704.5,778l-11.2,30.9l-14.2,8.2L656.5,778"/>
				</g>
				<g>
					<path class="st1" d="M715.1,759.7l21.1-25.2v-16.4h-45.1"/>
					<path class="st1" d="M715.1,759.7l-32.3,5.7l-14.2-8.2l22.6-39.1"/>
				</g>
			</g>
		</g>
		<g>
			<g>
				<g>
					<path class="st1" d="M736.2,879.4l32.3,5.7l14.2-8.2l-22.6-39.1"/>
					<path class="st1" d="M736.2,879.4l-21.1-25.2v-16.4h45.1"/>
				</g>
				<g>
					<path class="st1" d="M746.7,897.7l11.2,30.9l14.2,8.2l22.6-39.1"/>
					<path class="st1" d="M746.7,897.7l11.2-30.9l14.2-8.2l22.6,39.1"/>
				</g>
				<g>
					<path class="st1" d="M736.2,916l-21.1,25.2v16.4h45.1"/>
					<path class="st1" d="M736.2,916l32.3-5.7l14.2,8.2l-22.6,39.1"/>
				</g>
				<g>
					<path class="st1" d="M715.1,916l-32.3-5.7l-14.2,8.2l22.6,39.1"/>
					<path class="st1" d="M715.1,916l21.1,25.2v16.4h-45.1"/>
				</g>
				<g>
					<path class="st1" d="M704.5,897.7l-11.2-30.9l-14.2-8.2l-22.6,39.1"/>
					<path class="st1" d="M704.5,897.7l-11.2,30.9l-14.2,8.2l-22.6-39.1"/>
				</g>
				<g>
					<path class="st1" d="M715.1,879.4l21.1-25.2v-16.4h-45.1"/>
					<path class="st1" d="M715.1,879.4l-32.3,5.7l-14.2-8.2l22.6-39.1"/>
				</g>
			</g>
		</g>
		<g>
			<g>
				<g>
					<path class="st1" d="M839.8-18.3l32.3,5.7l14.2-8.2l-22.6-39.1"/>
					<path class="st1" d="M839.8-18.3l-21.1-25.2v-16.4h45.1"/>
				</g>
				<g>
					<path class="st1" d="M850.4,0l11.2,30.9l14.2,8.2L898.4,0"/>
					<path class="st1" d="M850.4,0l11.2-30.9l14.2-8.2L898.4,0"/>
				</g>
				<g>
					<path class="st1" d="M839.8,18.3l-21.1,25.2v16.4h45.1"/>
					<path class="st1" d="M839.8,18.3l32.3-5.7l14.2,8.2l-22.6,39.1"/>
				</g>
				<g>
					<path class="st1" d="M818.7,18.3l-32.3-5.7l-14.2,8.2l22.6,39.1"/>
					<path class="st1" d="M818.7,18.3l21.1,25.2v16.4h-45.1"/>
				</g>
				<g>
					<path class="st1" d="M808.2,0l-11.2-30.9l-14.2-8.2L760.2,0"/>
					<path class="st1" d="M808.2,0l-11.2,30.9l-14.2,8.2L760.2,0"/>
				</g>
				<g>
					<path class="st1" d="M818.7-18.3l21.1-25.2v-16.4h-45.1"/>
					<path class="st1" d="M818.7-18.3l-32.3,5.7l-14.2-8.2l22.6-39.1"/>
				</g>
			</g>
		</g>
		<g>
			<g>
				<g>
					<path class="st1" d="M839.8,101.4l32.3,5.7l14.2-8.2l-22.6-39.1"/>
					<path class="st1" d="M839.8,101.4l-21.1-25.2V59.8h45.1"/>
				</g>
				<g>
					<path class="st1" d="M850.4,119.7l11.2,30.9l14.2,8.2l22.6-39.1"/>
					<path class="st1" d="M850.4,119.7l11.2-30.9l14.2-8.2l22.6,39.1"/>
				</g>
				<g>
					<path class="st1" d="M839.8,138l-21.1,25.2v16.4h45.1"/>
					<path class="st1" d="M839.8,138l32.3-5.7l14.2,8.2l-22.6,39.1"/>
				</g>
				<g>
					<path class="st1" d="M818.7,138l-32.3-5.7l-14.2,8.2l22.6,39.1"/>
					<path class="st1" d="M818.7,138l21.1,25.2v16.4h-45.1"/>
				</g>
				<g>
					<path class="st1" d="M808.2,119.7l-11.2-30.9l-14.2-8.2l-22.6,39.1"/>
					<path class="st1" d="M808.2,119.7l-11.2,30.9l-14.2,8.2l-22.6-39.1"/>
				</g>
				<g>
					<path class="st1" d="M818.7,101.4l21.1-25.2V59.8h-45.1"/>
					<path class="st1" d="M818.7,101.4l-32.3,5.7l-14.2-8.2l22.6-39.1"/>
				</g>
			</g>
		</g>
		<g>
			<g>
				<g>
					<path class="st1" d="M839.8,221.1l32.3,5.7l14.2-8.2l-22.6-39.1"/>
					<path class="st1" d="M839.8,221.1L818.7,196v-16.4h45.1"/>
				</g>
				<g>
					<path class="st1" d="M850.4,239.4l11.2,30.9l14.2,8.2l22.6-39.1"/>
					<path class="st1" d="M850.4,239.4l11.2-30.9l14.2-8.2l22.6,39.1"/>
				</g>
				<g>
					<path class="st1" d="M839.8,257.7l-21.1,25.2v16.4h45.1"/>
					<path class="st1" d="M839.8,257.7l32.3-5.7l14.2,8.2l-22.6,39.1"/>
				</g>
				<g>
					<path class="st1" d="M818.7,257.7l-32.3-5.7l-14.2,8.2l22.6,39.1"/>
					<path class="st1" d="M818.7,257.7l21.1,25.2v16.4h-45.1"/>
				</g>
				<g>
					<path class="st1" d="M808.2,239.4l-11.2-30.9l-14.2-8.2l-22.6,39.1"/>
					<path class="st1" d="M808.2,239.4l-11.2,30.9l-14.2,8.2l-22.6-39.1"/>
				</g>
				<g>
					<path class="st1" d="M818.7,221.1l21.1-25.2v-16.4h-45.1"/>
					<path class="st1" d="M818.7,221.1l-32.3,5.7l-14.2-8.2l22.6-39.1"/>
				</g>
			</g>
		</g>
		<g>
			<g>
				<g>
					<path class="st1" d="M839.8,340.8l32.3,5.7l14.2-8.2l-22.6-39.1"/>
					<path class="st1" d="M839.8,340.8l-21.1-25.2v-16.4h45.1"/>
				</g>
				<g>
					<path class="st1" d="M850.4,359.1l11.2,30.9l14.2,8.2l22.6-39.1"/>
					<path class="st1" d="M850.4,359.1l11.2-30.9l14.2-8.2l22.6,39.1"/>
				</g>
				<g>
					<path class="st1" d="M839.8,377.4l-21.1,25.2v16.4h45.1"/>
					<path class="st1" d="M839.8,377.4l32.3-5.7l14.2,8.2l-22.6,39.1"/>
				</g>
				<g>
					<path class="st1" d="M818.7,377.4l-32.3-5.7l-14.2,8.2l22.6,39.1"/>
					<path class="st1" d="M818.7,377.4l21.1,25.2v16.4h-45.1"/>
				</g>
				<g>
					<path class="st1" d="M808.2,359.1l-11.2-30.9l-14.2-8.2l-22.6,39.1"/>
					<path class="st1" d="M808.2,359.1l-11.2,30.9l-14.2,8.2l-22.6-39.1"/>
				</g>
				<g>
					<path class="st1" d="M818.7,340.8l21.1-25.2v-16.4h-45.1"/>
					<path class="st1" d="M818.7,340.8l-32.3,5.7l-14.2-8.2l22.6-39.1"/>
				</g>
			</g>
		</g>
		<g>
			<g>
				<g>
					<path class="st1" d="M839.8,460.5l32.3,5.7l14.2-8.2l-22.6-39.1"/>
					<path class="st1" d="M839.8,460.5l-21.1-25.2v-16.4h45.1"/>
				</g>
				<g>
					<path class="st1" d="M850.4,478.8l11.2,30.9l14.2,8.2l22.6-39.1"/>
					<path class="st1" d="M850.4,478.8l11.2-30.9l14.2-8.2l22.6,39.1"/>
				</g>
				<g>
					<path class="st1" d="M839.8,497.1l-21.1,25.2v16.4h45.1"/>
					<path class="st1" d="M839.8,497.1l32.3-5.7l14.2,8.2l-22.6,39.1"/>
				</g>
				<g>
					<path class="st1" d="M818.7,497.1l-32.3-5.7l-14.2,8.2l22.6,39.1"/>
					<path class="st1" d="M818.7,497.1l21.1,25.2v16.4h-45.1"/>
				</g>
				<g>
					<path class="st1" d="M808.2,478.8l-11.2-30.9l-14.2-8.2l-22.6,39.1"/>
					<path class="st1" d="M808.2,478.8l-11.2,30.9l-14.2,8.2l-22.6-39.1"/>
				</g>
				<g>
					<path class="st1" d="M818.7,460.5l21.1-25.2v-16.4h-45.1"/>
					<path class="st1" d="M818.7,460.5l-32.3,5.7l-14.2-8.2l22.6-39.1"/>
				</g>
			</g>
		</g>
		<g>
			<g>
				<g>
					<path class="st1" d="M839.8,580.2l32.3,5.7l14.2-8.2l-22.6-39.1"/>
					<path class="st1" d="M839.8,580.2L818.7,555v-16.4h45.1"/>
				</g>
				<g>
					<path class="st1" d="M850.4,598.5l11.2,30.9l14.2,8.2l22.6-39.1"/>
					<path class="st1" d="M850.4,598.5l11.2-30.9l14.2-8.2l22.6,39.1"/>
				</g>
				<g>
					<path class="st1" d="M839.8,616.7l-21.1,25.2v16.4h45.1"/>
					<path class="st1" d="M839.8,616.7l32.3-5.7l14.2,8.2l-22.6,39.1"/>
				</g>
				<g>
					<path class="st1" d="M818.7,616.7l-32.3-5.7l-14.2,8.2l22.6,39.1"/>
					<path class="st1" d="M818.7,616.7l21.1,25.2v16.4h-45.1"/>
				</g>
				<g>
					<path class="st1" d="M808.2,598.5l-11.2-30.9l-14.2-8.2l-22.6,39.1"/>
					<path class="st1" d="M808.2,598.5l-11.2,30.9l-14.2,8.2l-22.6-39.1"/>
				</g>
				<g>
					<path class="st1" d="M818.7,580.2l21.1-25.2v-16.4h-45.1"/>
					<path class="st1" d="M818.7,580.2l-32.3,5.7l-14.2-8.2l22.6-39.1"/>
				</g>
			</g>
		</g>
		<g>
			<g>
				<g>
					<path class="st1" d="M839.8,699.9l32.3,5.7l14.2-8.2l-22.6-39.1"/>
					<path class="st1" d="M839.8,699.9l-21.1-25.2v-16.4h45.1"/>
				</g>
				<g>
					<path class="st1" d="M850.4,718.2l11.2,30.9l14.2,8.2l22.6-39.1"/>
					<path class="st1" d="M850.4,718.2l11.2-30.9l14.2-8.2l22.6,39.1"/>
				</g>
				<g>
					<path class="st1" d="M839.8,736.4l-21.1,25.2V778h45.1"/>
					<path class="st1" d="M839.8,736.4l32.3-5.7l14.2,8.2L863.8,778"/>
				</g>
				<g>
					<path class="st1" d="M818.7,736.4l-32.3-5.7l-14.2,8.2l22.6,39.1"/>
					<path class="st1" d="M818.7,736.4l21.1,25.2V778h-45.1"/>
				</g>
				<g>
					<path class="st1" d="M808.2,718.2l-11.2-30.9l-14.2-8.2l-22.6,39.1"/>
					<path class="st1" d="M808.2,718.2L796.9,749l-14.2,8.2l-22.6-39.1"/>
				</g>
				<g>
					<path class="st1" d="M818.7,699.9l21.1-25.2v-16.4h-45.1"/>
					<path class="st1" d="M818.7,699.9l-32.3,5.7l-14.2-8.2l22.6-39.1"/>
				</g>
			</g>
		</g>
		<g>
			<g>
				<g>
					<path class="st1" d="M839.8,819.6l32.3,5.7l14.2-8.2L863.8,778"/>
					<path class="st1" d="M839.8,819.6l-21.1-25.2V778h45.1"/>
				</g>
				<g>
					<path class="st1" d="M850.4,837.9l11.2,30.9l14.2,8.2l22.6-39.1"/>
					<path class="st1" d="M850.4,837.9l11.2-30.9l14.2-8.2l22.6,39.1"/>
				</g>
				<g>
					<path class="st1" d="M839.8,856.1l-21.1,25.2v16.4h45.1"/>
					<path class="st1" d="M839.8,856.1l32.3-5.7l14.2,8.2l-22.6,39.1"/>
				</g>
				<g>
					<path class="st1" d="M818.7,856.1l-32.3-5.7l-14.2,8.2l22.6,39.1"/>
					<path class="st1" d="M818.7,856.1l21.1,25.2v16.4h-45.1"/>
				</g>
				<g>
					<path class="st1" d="M808.2,837.9L796.9,807l-14.2-8.2l-22.6,39.1"/>
					<path class="st1" d="M808.2,837.9l-11.2,30.9l-14.2,8.2l-22.6-39.1"/>
				</g>
				<g>
					<path class="st1" d="M818.7,819.6l21.1-25.2V778h-45.1"/>
					<path class="st1" d="M818.7,819.6l-32.3,5.7l-14.2-8.2l22.6-39.1"/>
				</g>
			</g>
		</g>
	</g>
</g>
</svg>
