<?xml version="1.0" encoding="utf-8"?>
<!-- Generator: Adobe Illustrator 27.7.0, SVG Export Plug-In . SVG Version: 6.00 Build 0)  -->
<svg version="1.1" xmlns="http://www.w3.org/2000/svg" xmlns:xlink="http://www.w3.org/1999/xlink" x="0px" y="0px"
	 viewBox="0 0 400 400" style="enable-background:new 0 0 400 400;" xml:space="preserve">
<style type="text/css">
	.st0{fill:#FFFFFF;}
	.st1{fill:none;stroke:#000000;stroke-linecap:round;stroke-miterlimit:10;}
</style>
<g id="Layer_2">
	<rect class="st0" width="400" height="400"/>
</g>
<g id="Layer_1">
	<g>
		<g>
			<g>
				<path class="st1" d="M222.5,161l68.9,12.2l30.3-17.5l-48.1-83.3"/>
				<path class="st1" d="M222.5,161l-45-53.6v-35h96.1"/>
			</g>
			<g>
				<path class="st1" d="M245,200l23.9,65.8l30.3,17.5l48.1-83.3"/>
				<path class="st1" d="M245,200l23.9-65.8l30.3-17.5l48.1,83.3"/>
			</g>
			<g>
				<path class="st1" d="M222.5,239l-45,53.6v35h96.1"/>
				<path class="st1" d="M222.5,239l68.9-12.2l30.3,17.5l-48.1,83.3"/>
			</g>
			<g>
				<path class="st1" d="M177.5,239l-68.9-12.2l-30.3,17.5l48.1,83.3"/>
				<path class="st1" d="M177.5,239l45,53.6v35h-96.1"/>
			</g>
			<g>
				<path class="st1" d="M155,200l-23.9-65.8l-30.3-17.5L52.7,200"/>
				<path class="st1" d="M155,200l-23.9,65.8l-30.3,17.5L52.7,200"/>
			</g>
			<g>
				<path class="st1" d="M177.5,161l45-53.6v-35h-96.1"/>
				<path class="st1" d="M177.5,161l-68.9,12.2l-30.3-17.5l48.1-83.3"/>
			</g>
		</g>
	</g>
</g>
</svg>
