<?xml version="1.0" encoding="utf-8"?>
<!-- Generator: Adobe Illustrator 27.7.0, SVG Export Plug-In . SVG Version: 6.00 Build 0)  -->
<svg version="1.1" xmlns="http://www.w3.org/2000/svg" xmlns:xlink="http://www.w3.org/1999/xlink" x="0px" y="0px"
	 viewBox="0 0 600 600" style="enable-background:new 0 0 600 600;" xml:space="preserve">
<style type="text/css">
	.st0{fill:#FFFFFF;}
	.st1{fill:none;stroke:#000000;stroke-linecap:round;stroke-miterlimit:10;}
</style>
<g id="Layer_2">
	<rect class="st0" width="600" height="600"/>
</g>
<g id="Layer_1">
	<g>
		<g>
			<g>
				<path class="st1" d="M507.8,300c-33.1,57.4-106.5,77.1-163.9,43.9c-18.2-10.5-33.4-25.7-43.9-43.9"/>
			</g>
			<g>
				<path class="st1" d="M403.9,480c-66.3,0-120-53.7-120-120c0-21.1,5.5-41.8,16.1-60"/>
			</g>
			<g>
				<path class="st1" d="M196.1,480c-33.1-57.4-13.5-130.8,43.9-163.9c18.2-10.5,38.9-16.1,60-16.1"/>
			</g>
			<g>
				<path class="st1" d="M92.2,300c33.1-57.4,106.5-77.1,163.9-43.9c18.2,10.5,33.4,25.7,43.9,43.9"/>
			</g>
			<g>
				<path class="st1" d="M196.1,120c66.3,0,120,53.7,120,120c0,21.1-5.5,41.8-16.1,60"/>
			</g>
			<g>
				<path class="st1" d="M403.9,120c33.1,57.4,13.5,130.8-43.9,163.9c-18.2,10.5-38.9,16.1-60,16.1"/>
			</g>
		</g>
	</g>
</g>
</svg>
