<?xml version="1.0" encoding="utf-8"?>
<!-- Generator: Adobe Illustrator 27.7.0, SVG Export Plug-In . SVG Version: 6.00 Build 0)  -->
<svg version="1.1" id="Layer_1" xmlns="http://www.w3.org/2000/svg" xmlns:xlink="http://www.w3.org/1999/xlink" x="0px" y="0px"
	 viewBox="0 0 400 400" style="enable-background:new 0 0 400 400;" xml:space="preserve">
<style type="text/css">
	.st0{fill:#FFFFFF;}
	.st1{fill:none;stroke:#000000;stroke-linecap:round;stroke-miterlimit:10;}
</style>
<g>
	<rect y="0" class="st0" width="400" height="400"/>
	<g>
		<g>
			<path class="st1" d="M200,145.4l85.8-49.6"/>
			<g>
				<path class="st1" d="M200,145.4l-85.8-49.6"/>
			</g>
		</g>
		<g>
			<path class="st1" d="M227.3,152.8h109.1"/>
			<g>
				<path class="st1" d="M227.3,152.8l-54.6-94.5"/>
			</g>
		</g>
		<g>
			<path class="st1" d="M247.2,172.7l94.5,54.6"/>
			<g>
				<path class="st1" d="M247.2,172.7V63.6"/>
			</g>
		</g>
		<g>
			<path class="st1" d="M254.6,200l49.6,85.8"/>
			<g>
				<path class="st1" d="M254.6,200l49.6-85.8"/>
			</g>
		</g>
		<g>
			<path class="st1" d="M247.2,227.3v109.1"/>
			<g>
				<path class="st1" d="M247.2,227.3l94.5-54.6"/>
			</g>
		</g>
		<g>
			<path class="st1" d="M227.3,247.2l-54.6,94.5"/>
			<g>
				<path class="st1" d="M227.3,247.2h109.1"/>
			</g>
		</g>
		<g>
			<path class="st1" d="M200,254.6l-85.8,49.6"/>
			<g>
				<path class="st1" d="M200,254.6l85.8,49.6"/>
			</g>
		</g>
		<g>
			<path class="st1" d="M172.7,247.2H63.6"/>
			<g>
				<path class="st1" d="M172.7,247.2l54.6,94.5"/>
			</g>
		</g>
		<g>
			<path class="st1" d="M152.8,227.3l-94.5-54.6"/>
			<g>
				<path class="st1" d="M152.8,227.3v109.1"/>
			</g>
		</g>
		<g>
			<path class="st1" d="M145.4,200l-49.6-85.8"/>
			<g>
				<path class="st1" d="M145.4,200l-49.6,85.8"/>
			</g>
		</g>
		<g>
			<path class="st1" d="M152.8,172.7V63.6"/>
			<g>
				<path class="st1" d="M152.8,172.7l-94.5,54.6"/>
			</g>
		</g>
		<g>
			<path class="st1" d="M172.7,152.8l54.6-94.5"/>
			<g>
				<path class="st1" d="M172.7,152.8H63.6"/>
			</g>
		</g>
	</g>
</g>
</svg>
