<?xml version="1.0" encoding="utf-8"?>
<!-- Generator: Adobe Illustrator 27.7.0, SVG Export Plug-In . SVG Version: 6.00 Build 0)  -->
<svg version="1.1" xmlns="http://www.w3.org/2000/svg" xmlns:xlink="http://www.w3.org/1999/xlink" x="0px" y="0px"
	 viewBox="0 0 800 800" style="enable-background:new 0 0 800 800;" xml:space="preserve">
<style type="text/css">
	.st0{fill:#FFFFFF;}
	.st1{fill:none;stroke:#000000;stroke-linecap:round;stroke-miterlimit:10;}
</style>
<g id="Layer_2">
	<rect class="st0" width="800" height="800"/>
</g>
<g id="Layer_1">
	<g>
		<rect y="0" class="st0" width="800" height="800"/>
		<g>
			<g>
				<path class="st1" d="M0-54.6l85.4-49.3"/>
				<g>
					<path class="st1" d="M0-54.6l-85.4-49.3"/>
				</g>
			</g>
			<g>
				<path class="st1" d="M27.3-47.3h109.3"/>
				<g>
					<path class="st1" d="M27.3-47.3L-27.3-142"/>
				</g>
			</g>
			<g>
				<path class="st1" d="M47.3-27.3L142,27.3"/>
				<g>
					<path class="st1" d="M47.3-27.3v-109.3"/>
				</g>
			</g>
			<g>
				<path class="st1" d="M54.6,0l49.3,85.4"/>
				<g>
					<path class="st1" d="M54.6,0l49.3-85.4"/>
				</g>
			</g>
			<g>
				<path class="st1" d="M47.3,27.3v109.3"/>
				<g>
					<path class="st1" d="M47.3,27.3L142-27.3"/>
				</g>
			</g>
			<g>
				<path class="st1" d="M27.3,47.3L-27.3,142"/>
				<g>
					<path class="st1" d="M27.3,47.3h109.3"/>
				</g>
			</g>
			<g>
				<path class="st1" d="M0,54.6l-85.4,49.3"/>
				<g>
					<path class="st1" d="M0,54.6l85.4,49.3"/>
				</g>
			</g>
			<g>
				<path class="st1" d="M-27.3,47.3h-109.3"/>
				<g>
					<path class="st1" d="M-27.3,47.3L27.3,142"/>
				</g>
			</g>
			<g>
				<path class="st1" d="M-47.3,27.3L-142-27.3"/>
				<g>
					<path class="st1" d="M-47.3,27.3v109.3"/>
				</g>
			</g>
			<g>
				<path class="st1" d="M-54.6,0l-49.3-85.4"/>
				<g>
					<path class="st1" d="M-54.6,0l-49.3,85.4"/>
				</g>
			</g>
			<g>
				<path class="st1" d="M-47.3-27.3v-109.3"/>
				<g>
					<path class="st1" d="M-47.3-27.3L-142,27.3"/>
				</g>
			</g>
			<g>
				<path class="st1" d="M-27.3-47.3L27.3-142"/>
				<g>
					<path class="st1" d="M-27.3-47.3h-109.3"/>
				</g>
			</g>
		</g>
		<g>
			<g>
				<path class="st1" d="M0,134.6l85.4-49.3"/>
				<g>
					<path class="st1" d="M0,134.6l-85.4-49.3"/>
				</g>
			</g>
			<g>
				<path class="st1" d="M27.3,142h109.3"/>
				<g>
					<path class="st1" d="M27.3,142l-54.6-94.6"/>
				</g>
			</g>
			<g>
				<path class="st1" d="M47.3,162l94.6,54.6"/>
				<g>
					<path class="st1" d="M47.3,162V52.7"/>
				</g>
			</g>
			<g>
				<path class="st1" d="M54.6,189.3l49.3,85.4"/>
				<g>
					<path class="st1" d="M54.6,189.3l49.3-85.4"/>
				</g>
			</g>
			<g>
				<path class="st1" d="M47.3,216.6v109.3"/>
				<g>
					<path class="st1" d="M47.3,216.6L142,162"/>
				</g>
			</g>
			<g>
				<path class="st1" d="M27.3,236.6l-54.6,94.6"/>
				<g>
					<path class="st1" d="M27.3,236.6h109.3"/>
				</g>
			</g>
			<g>
				<path class="st1" d="M0,243.9l-85.4,49.3"/>
				<g>
					<path class="st1" d="M0,243.9l85.4,49.3"/>
				</g>
			</g>
			<g>
				<path class="st1" d="M-27.3,236.6h-109.3"/>
				<g>
					<path class="st1" d="M-27.3,236.6l54.6,94.6"/>
				</g>
			</g>
			<g>
				<path class="st1" d="M-47.3,216.6L-142,162"/>
				<g>
					<path class="st1" d="M-47.3,216.6v109.3"/>
				</g>
			</g>
			<g>
				<path class="st1" d="M-54.6,189.3l-49.3-85.4"/>
				<g>
					<path class="st1" d="M-54.6,189.3l-49.3,85.4"/>
				</g>
			</g>
			<g>
				<path class="st1" d="M-47.3,162V52.7"/>
				<g>
					<path class="st1" d="M-47.3,162l-94.6,54.6"/>
				</g>
			</g>
			<g>
				<path class="st1" d="M-27.3,142l54.6-94.6"/>
				<g>
					<path class="st1" d="M-27.3,142h-109.3"/>
				</g>
			</g>
		</g>
		<g>
			<g>
				<path class="st1" d="M0,323.9l85.4-49.3"/>
				<g>
					<path class="st1" d="M0,323.9l-85.4-49.3"/>
				</g>
			</g>
			<g>
				<path class="st1" d="M27.3,331.2h109.3"/>
				<g>
					<path class="st1" d="M27.3,331.2l-54.6-94.6"/>
				</g>
			</g>
			<g>
				<path class="st1" d="M47.3,351.2l94.6,54.6"/>
				<g>
					<path class="st1" d="M47.3,351.2V242"/>
				</g>
			</g>
			<g>
				<path class="st1" d="M54.6,378.6l49.3,85.4"/>
				<g>
					<path class="st1" d="M54.6,378.6l49.3-85.4"/>
				</g>
			</g>
			<g>
				<path class="st1" d="M47.3,405.9v109.3"/>
				<g>
					<path class="st1" d="M47.3,405.9l94.6-54.6"/>
				</g>
			</g>
			<g>
				<path class="st1" d="M27.3,425.9l-54.6,94.6"/>
				<g>
					<path class="st1" d="M27.3,425.9h109.3"/>
				</g>
			</g>
			<g>
				<path class="st1" d="M0,433.2l-85.4,49.3"/>
				<g>
					<path class="st1" d="M0,433.2l85.4,49.3"/>
				</g>
			</g>
			<g>
				<path class="st1" d="M-27.3,425.9h-109.3"/>
				<g>
					<path class="st1" d="M-27.3,425.9l54.6,94.6"/>
				</g>
			</g>
			<g>
				<path class="st1" d="M-47.3,405.9l-94.6-54.6"/>
				<g>
					<path class="st1" d="M-47.3,405.9v109.3"/>
				</g>
			</g>
			<g>
				<path class="st1" d="M-54.6,378.6l-49.3-85.4"/>
				<g>
					<path class="st1" d="M-54.6,378.6l-49.3,85.4"/>
				</g>
			</g>
			<g>
				<path class="st1" d="M-47.3,351.2V242"/>
				<g>
					<path class="st1" d="M-47.3,351.2l-94.6,54.6"/>
				</g>
			</g>
			<g>
				<path class="st1" d="M-27.3,331.2l54.6-94.6"/>
				<g>
					<path class="st1" d="M-27.3,331.2h-109.3"/>
				</g>
			</g>
		</g>
		<g>
			<g>
				<path class="st1" d="M0,513.2l85.4-49.3"/>
				<g>
					<path class="st1" d="M0,513.2l-85.4-49.3"/>
				</g>
			</g>
			<g>
				<path class="st1" d="M27.3,520.5h109.3"/>
				<g>
					<path class="st1" d="M27.3,520.5l-54.6-94.6"/>
				</g>
			</g>
			<g>
				<path class="st1" d="M47.3,540.5l94.6,54.6"/>
				<g>
					<path class="st1" d="M47.3,540.5V431.2"/>
				</g>
			</g>
			<g>
				<path class="st1" d="M54.6,567.8l49.3,85.4"/>
				<g>
					<path class="st1" d="M54.6,567.8l49.3-85.4"/>
				</g>
			</g>
			<g>
				<path class="st1" d="M47.3,595.2v109.3"/>
				<g>
					<path class="st1" d="M47.3,595.2l94.6-54.6"/>
				</g>
			</g>
			<g>
				<path class="st1" d="M27.3,615.2l-54.6,94.6"/>
				<g>
					<path class="st1" d="M27.3,615.2h109.3"/>
				</g>
			</g>
			<g>
				<path class="st1" d="M0,622.5l-85.4,49.3"/>
				<g>
					<path class="st1" d="M0,622.5l85.4,49.3"/>
				</g>
			</g>
			<g>
				<path class="st1" d="M-27.3,615.2h-109.3"/>
				<g>
					<path class="st1" d="M-27.3,615.2l54.6,94.6"/>
				</g>
			</g>
			<g>
				<path class="st1" d="M-47.3,595.2l-94.6-54.6"/>
				<g>
					<path class="st1" d="M-47.3,595.2v109.3"/>
				</g>
			</g>
			<g>
				<path class="st1" d="M-54.6,567.8l-49.3-85.4"/>
				<g>
					<path class="st1" d="M-54.6,567.8l-49.3,85.4"/>
				</g>
			</g>
			<g>
				<path class="st1" d="M-47.3,540.5V431.2"/>
				<g>
					<path class="st1" d="M-47.3,540.5l-94.6,54.6"/>
				</g>
			</g>
			<g>
				<path class="st1" d="M-27.3,520.5l54.6-94.6"/>
				<g>
					<path class="st1" d="M-27.3,520.5h-109.3"/>
				</g>
			</g>
		</g>
		<g>
			<g>
				<path class="st1" d="M0,702.5l85.4-49.3"/>
				<g>
					<path class="st1" d="M0,702.5l-85.4-49.3"/>
				</g>
			</g>
			<g>
				<path class="st1" d="M27.3,709.8h109.3"/>
				<g>
					<path class="st1" d="M27.3,709.8l-54.6-94.6"/>
				</g>
			</g>
			<g>
				<path class="st1" d="M47.3,729.8l94.6,54.6"/>
				<g>
					<path class="st1" d="M47.3,729.8V620.5"/>
				</g>
			</g>
			<g>
				<path class="st1" d="M54.6,757.1l49.3,85.4"/>
				<g>
					<path class="st1" d="M54.6,757.1l49.3-85.4"/>
				</g>
			</g>
			<g>
				<path class="st1" d="M47.3,784.4v109.3"/>
				<g>
					<path class="st1" d="M47.3,784.4l94.6-54.6"/>
				</g>
			</g>
			<g>
				<path class="st1" d="M27.3,804.4l-54.6,94.6"/>
				<g>
					<path class="st1" d="M27.3,804.4h109.3"/>
				</g>
			</g>
			<g>
				<path class="st1" d="M0,811.8l-85.4,49.3"/>
				<g>
					<path class="st1" d="M0,811.8l85.4,49.3"/>
				</g>
			</g>
			<g>
				<path class="st1" d="M-27.3,804.4h-109.3"/>
				<g>
					<path class="st1" d="M-27.3,804.4l54.6,94.6"/>
				</g>
			</g>
			<g>
				<path class="st1" d="M-47.3,784.4l-94.6-54.6"/>
				<g>
					<path class="st1" d="M-47.3,784.4v109.3"/>
				</g>
			</g>
			<g>
				<path class="st1" d="M-54.6,757.1l-49.3-85.4"/>
				<g>
					<path class="st1" d="M-54.6,757.1l-49.3,85.4"/>
				</g>
			</g>
			<g>
				<path class="st1" d="M-47.3,729.8V620.5"/>
				<g>
					<path class="st1" d="M-47.3,729.8l-94.6,54.6"/>
				</g>
			</g>
			<g>
				<path class="st1" d="M-27.3,709.8l54.6-94.6"/>
				<g>
					<path class="st1" d="M-27.3,709.8h-109.3"/>
				</g>
			</g>
		</g>
		<g>
			<g>
				<path class="st1" d="M189.3-54.6l85.4-49.3"/>
				<g>
					<path class="st1" d="M189.3-54.6l-85.4-49.3"/>
				</g>
			</g>
			<g>
				<path class="st1" d="M216.6-47.3h109.3"/>
				<g>
					<path class="st1" d="M216.6-47.3L162-142"/>
				</g>
			</g>
			<g>
				<path class="st1" d="M236.6-27.3l94.6,54.6"/>
				<g>
					<path class="st1" d="M236.6-27.3v-109.3"/>
				</g>
			</g>
			<g>
				<path class="st1" d="M243.9,0l49.3,85.4"/>
				<g>
					<path class="st1" d="M243.9,0l49.3-85.4"/>
				</g>
			</g>
			<g>
				<path class="st1" d="M236.6,27.3v109.3"/>
				<g>
					<path class="st1" d="M236.6,27.3l94.6-54.6"/>
				</g>
			</g>
			<g>
				<path class="st1" d="M216.6,47.3L162,142"/>
				<g>
					<path class="st1" d="M216.6,47.3h109.3"/>
				</g>
			</g>
			<g>
				<path class="st1" d="M189.3,54.6l-85.4,49.3"/>
				<g>
					<path class="st1" d="M189.3,54.6l85.4,49.3"/>
				</g>
			</g>
			<g>
				<path class="st1" d="M162,47.3H52.7"/>
				<g>
					<path class="st1" d="M162,47.3l54.6,94.6"/>
				</g>
			</g>
			<g>
				<path class="st1" d="M142,27.3L47.3-27.3"/>
				<g>
					<path class="st1" d="M142,27.3v109.3"/>
				</g>
			</g>
			<g>
				<path class="st1" d="M134.6,0L85.4-85.4"/>
				<g>
					<path class="st1" d="M134.6,0L85.4,85.4"/>
				</g>
			</g>
			<g>
				<path class="st1" d="M142-27.3v-109.3"/>
				<g>
					<path class="st1" d="M142-27.3L47.3,27.3"/>
				</g>
			</g>
			<g>
				<path class="st1" d="M162-47.3l54.6-94.6"/>
				<g>
					<path class="st1" d="M162-47.3H52.7"/>
				</g>
			</g>
		</g>
		<g>
			<g>
				<path class="st1" d="M189.3,134.6l85.4-49.3"/>
				<g>
					<path class="st1" d="M189.3,134.6l-85.4-49.3"/>
				</g>
			</g>
			<g>
				<path class="st1" d="M216.6,142h109.3"/>
				<g>
					<path class="st1" d="M216.6,142L162,47.3"/>
				</g>
			</g>
			<g>
				<path class="st1" d="M236.6,162l94.6,54.6"/>
				<g>
					<path class="st1" d="M236.6,162V52.7"/>
				</g>
			</g>
			<g>
				<path class="st1" d="M243.9,189.3l49.3,85.4"/>
				<g>
					<path class="st1" d="M243.9,189.3l49.3-85.4"/>
				</g>
			</g>
			<g>
				<path class="st1" d="M236.6,216.6v109.3"/>
				<g>
					<path class="st1" d="M236.6,216.6l94.6-54.6"/>
				</g>
			</g>
			<g>
				<path class="st1" d="M216.6,236.6L162,331.2"/>
				<g>
					<path class="st1" d="M216.6,236.6h109.3"/>
				</g>
			</g>
			<g>
				<path class="st1" d="M189.3,243.9l-85.4,49.3"/>
				<g>
					<path class="st1" d="M189.3,243.9l85.4,49.3"/>
				</g>
			</g>
			<g>
				<path class="st1" d="M162,236.6H52.7"/>
				<g>
					<path class="st1" d="M162,236.6l54.6,94.6"/>
				</g>
			</g>
			<g>
				<path class="st1" d="M142,216.6L47.3,162"/>
				<g>
					<path class="st1" d="M142,216.6v109.3"/>
				</g>
			</g>
			<g>
				<path class="st1" d="M134.6,189.3l-49.3-85.4"/>
				<g>
					<path class="st1" d="M134.6,189.3l-49.3,85.4"/>
				</g>
			</g>
			<g>
				<path class="st1" d="M142,162V52.7"/>
				<g>
					<path class="st1" d="M142,162l-94.6,54.6"/>
				</g>
			</g>
			<g>
				<path class="st1" d="M162,142l54.6-94.6"/>
				<g>
					<path class="st1" d="M162,142H52.7"/>
				</g>
			</g>
		</g>
		<g>
			<g>
				<path class="st1" d="M189.3,323.9l85.4-49.3"/>
				<g>
					<path class="st1" d="M189.3,323.9l-85.4-49.3"/>
				</g>
			</g>
			<g>
				<path class="st1" d="M216.6,331.2h109.3"/>
				<g>
					<path class="st1" d="M216.6,331.2L162,236.6"/>
				</g>
			</g>
			<g>
				<path class="st1" d="M236.6,351.2l94.6,54.6"/>
				<g>
					<path class="st1" d="M236.6,351.2V242"/>
				</g>
			</g>
			<g>
				<path class="st1" d="M243.9,378.6l49.3,85.4"/>
				<g>
					<path class="st1" d="M243.9,378.6l49.3-85.4"/>
				</g>
			</g>
			<g>
				<path class="st1" d="M236.6,405.9v109.3"/>
				<g>
					<path class="st1" d="M236.6,405.9l94.6-54.6"/>
				</g>
			</g>
			<g>
				<path class="st1" d="M216.6,425.9L162,520.5"/>
				<g>
					<path class="st1" d="M216.6,425.9h109.3"/>
				</g>
			</g>
			<g>
				<path class="st1" d="M189.3,433.2l-85.4,49.3"/>
				<g>
					<path class="st1" d="M189.3,433.2l85.4,49.3"/>
				</g>
			</g>
			<g>
				<path class="st1" d="M162,425.9H52.7"/>
				<g>
					<path class="st1" d="M162,425.9l54.6,94.6"/>
				</g>
			</g>
			<g>
				<path class="st1" d="M142,405.9l-94.6-54.6"/>
				<g>
					<path class="st1" d="M142,405.9v109.3"/>
				</g>
			</g>
			<g>
				<path class="st1" d="M134.6,378.6l-49.3-85.4"/>
				<g>
					<path class="st1" d="M134.6,378.6l-49.3,85.4"/>
				</g>
			</g>
			<g>
				<path class="st1" d="M142,351.2V242"/>
				<g>
					<path class="st1" d="M142,351.2l-94.6,54.6"/>
				</g>
			</g>
			<g>
				<path class="st1" d="M162,331.2l54.6-94.6"/>
				<g>
					<path class="st1" d="M162,331.2H52.7"/>
				</g>
			</g>
		</g>
		<g>
			<g>
				<path class="st1" d="M189.3,513.2l85.4-49.3"/>
				<g>
					<path class="st1" d="M189.3,513.2l-85.4-49.3"/>
				</g>
			</g>
			<g>
				<path class="st1" d="M216.6,520.5h109.3"/>
				<g>
					<path class="st1" d="M216.6,520.5L162,425.9"/>
				</g>
			</g>
			<g>
				<path class="st1" d="M236.6,540.5l94.6,54.6"/>
				<g>
					<path class="st1" d="M236.6,540.5V431.2"/>
				</g>
			</g>
			<g>
				<path class="st1" d="M243.9,567.8l49.3,85.4"/>
				<g>
					<path class="st1" d="M243.9,567.8l49.3-85.4"/>
				</g>
			</g>
			<g>
				<path class="st1" d="M236.6,595.2v109.3"/>
				<g>
					<path class="st1" d="M236.6,595.2l94.6-54.6"/>
				</g>
			</g>
			<g>
				<path class="st1" d="M216.6,615.2L162,709.8"/>
				<g>
					<path class="st1" d="M216.6,615.2h109.3"/>
				</g>
			</g>
			<g>
				<path class="st1" d="M189.3,622.5l-85.4,49.3"/>
				<g>
					<path class="st1" d="M189.3,622.5l85.4,49.3"/>
				</g>
			</g>
			<g>
				<path class="st1" d="M162,615.2H52.7"/>
				<g>
					<path class="st1" d="M162,615.2l54.6,94.6"/>
				</g>
			</g>
			<g>
				<path class="st1" d="M142,595.2l-94.6-54.6"/>
				<g>
					<path class="st1" d="M142,595.2v109.3"/>
				</g>
			</g>
			<g>
				<path class="st1" d="M134.6,567.8l-49.3-85.4"/>
				<g>
					<path class="st1" d="M134.6,567.8l-49.3,85.4"/>
				</g>
			</g>
			<g>
				<path class="st1" d="M142,540.5V431.2"/>
				<g>
					<path class="st1" d="M142,540.5l-94.6,54.6"/>
				</g>
			</g>
			<g>
				<path class="st1" d="M162,520.5l54.6-94.6"/>
				<g>
					<path class="st1" d="M162,520.5H52.7"/>
				</g>
			</g>
		</g>
		<g>
			<g>
				<path class="st1" d="M189.3,702.5l85.4-49.3"/>
				<g>
					<path class="st1" d="M189.3,702.5l-85.4-49.3"/>
				</g>
			</g>
			<g>
				<path class="st1" d="M216.6,709.8h109.3"/>
				<g>
					<path class="st1" d="M216.6,709.8L162,615.2"/>
				</g>
			</g>
			<g>
				<path class="st1" d="M236.6,729.8l94.6,54.6"/>
				<g>
					<path class="st1" d="M236.6,729.8V620.5"/>
				</g>
			</g>
			<g>
				<path class="st1" d="M243.9,757.1l49.3,85.4"/>
				<g>
					<path class="st1" d="M243.9,757.1l49.3-85.4"/>
				</g>
			</g>
			<g>
				<path class="st1" d="M236.6,784.4v109.3"/>
				<g>
					<path class="st1" d="M236.6,784.4l94.6-54.6"/>
				</g>
			</g>
			<g>
				<path class="st1" d="M216.6,804.4L162,899.1"/>
				<g>
					<path class="st1" d="M216.6,804.4h109.3"/>
				</g>
			</g>
			<g>
				<path class="st1" d="M189.3,811.8l-85.4,49.3"/>
				<g>
					<path class="st1" d="M189.3,811.8l85.4,49.3"/>
				</g>
			</g>
			<g>
				<path class="st1" d="M162,804.4H52.7"/>
				<g>
					<path class="st1" d="M162,804.4l54.6,94.6"/>
				</g>
			</g>
			<g>
				<path class="st1" d="M142,784.4l-94.6-54.6"/>
				<g>
					<path class="st1" d="M142,784.4v109.3"/>
				</g>
			</g>
			<g>
				<path class="st1" d="M134.6,757.1l-49.3-85.4"/>
				<g>
					<path class="st1" d="M134.6,757.1l-49.3,85.4"/>
				</g>
			</g>
			<g>
				<path class="st1" d="M142,729.8V620.5"/>
				<g>
					<path class="st1" d="M142,729.8l-94.6,54.6"/>
				</g>
			</g>
			<g>
				<path class="st1" d="M162,709.8l54.6-94.6"/>
				<g>
					<path class="st1" d="M162,709.8H52.7"/>
				</g>
			</g>
		</g>
		<g>
			<g>
				<path class="st1" d="M378.6-54.6l85.4-49.3"/>
				<g>
					<path class="st1" d="M378.6-54.6l-85.4-49.3"/>
				</g>
			</g>
			<g>
				<path class="st1" d="M405.9-47.3h109.3"/>
				<g>
					<path class="st1" d="M405.9-47.3L351.2-142"/>
				</g>
			</g>
			<g>
				<path class="st1" d="M425.9-27.3l94.6,54.6"/>
				<g>
					<path class="st1" d="M425.9-27.3v-109.3"/>
				</g>
			</g>
			<g>
				<path class="st1" d="M433.2,0l49.3,85.4"/>
				<g>
					<path class="st1" d="M433.2,0l49.3-85.4"/>
				</g>
			</g>
			<g>
				<path class="st1" d="M425.9,27.3v109.3"/>
				<g>
					<path class="st1" d="M425.9,27.3l94.6-54.6"/>
				</g>
			</g>
			<g>
				<path class="st1" d="M405.9,47.3L351.2,142"/>
				<g>
					<path class="st1" d="M405.9,47.3h109.3"/>
				</g>
			</g>
			<g>
				<path class="st1" d="M378.6,54.6l-85.4,49.3"/>
				<g>
					<path class="st1" d="M378.6,54.6l85.4,49.3"/>
				</g>
			</g>
			<g>
				<path class="st1" d="M351.2,47.3H242"/>
				<g>
					<path class="st1" d="M351.2,47.3l54.6,94.6"/>
				</g>
			</g>
			<g>
				<path class="st1" d="M331.2,27.3l-94.6-54.6"/>
				<g>
					<path class="st1" d="M331.2,27.3v109.3"/>
				</g>
			</g>
			<g>
				<path class="st1" d="M323.9,0l-49.3-85.4"/>
				<g>
					<path class="st1" d="M323.9,0l-49.3,85.4"/>
				</g>
			</g>
			<g>
				<path class="st1" d="M331.2-27.3v-109.3"/>
				<g>
					<path class="st1" d="M331.2-27.3l-94.6,54.6"/>
				</g>
			</g>
			<g>
				<path class="st1" d="M351.2-47.3l54.6-94.6"/>
				<g>
					<path class="st1" d="M351.2-47.3H242"/>
				</g>
			</g>
		</g>
		<g>
			<g>
				<path class="st1" d="M378.6,134.6l85.4-49.3"/>
				<g>
					<path class="st1" d="M378.6,134.6l-85.4-49.3"/>
				</g>
			</g>
			<g>
				<path class="st1" d="M405.9,142h109.3"/>
				<g>
					<path class="st1" d="M405.9,142l-54.6-94.6"/>
				</g>
			</g>
			<g>
				<path class="st1" d="M425.9,162l94.6,54.6"/>
				<g>
					<path class="st1" d="M425.9,162V52.7"/>
				</g>
			</g>
			<g>
				<path class="st1" d="M433.2,189.3l49.3,85.4"/>
				<g>
					<path class="st1" d="M433.2,189.3l49.3-85.4"/>
				</g>
			</g>
			<g>
				<path class="st1" d="M425.9,216.6v109.3"/>
				<g>
					<path class="st1" d="M425.9,216.6l94.6-54.6"/>
				</g>
			</g>
			<g>
				<path class="st1" d="M405.9,236.6l-54.6,94.6"/>
				<g>
					<path class="st1" d="M405.9,236.6h109.3"/>
				</g>
			</g>
			<g>
				<path class="st1" d="M378.6,243.9l-85.4,49.3"/>
				<g>
					<path class="st1" d="M378.6,243.9l85.4,49.3"/>
				</g>
			</g>
			<g>
				<path class="st1" d="M351.2,236.6H242"/>
				<g>
					<path class="st1" d="M351.2,236.6l54.6,94.6"/>
				</g>
			</g>
			<g>
				<path class="st1" d="M331.2,216.6L236.6,162"/>
				<g>
					<path class="st1" d="M331.2,216.6v109.3"/>
				</g>
			</g>
			<g>
				<path class="st1" d="M323.9,189.3l-49.3-85.4"/>
				<g>
					<path class="st1" d="M323.9,189.3l-49.3,85.4"/>
				</g>
			</g>
			<g>
				<path class="st1" d="M331.2,162V52.7"/>
				<g>
					<path class="st1" d="M331.2,162l-94.6,54.6"/>
				</g>
			</g>
			<g>
				<path class="st1" d="M351.2,142l54.6-94.6"/>
				<g>
					<path class="st1" d="M351.2,142H242"/>
				</g>
			</g>
		</g>
		<g>
			<g>
				<path class="st1" d="M378.6,323.9l85.4-49.3"/>
				<g>
					<path class="st1" d="M378.6,323.9l-85.4-49.3"/>
				</g>
			</g>
			<g>
				<path class="st1" d="M405.9,331.2h109.3"/>
				<g>
					<path class="st1" d="M405.9,331.2l-54.6-94.6"/>
				</g>
			</g>
			<g>
				<path class="st1" d="M425.9,351.2l94.6,54.6"/>
				<g>
					<path class="st1" d="M425.9,351.2V242"/>
				</g>
			</g>
			<g>
				<path class="st1" d="M433.2,378.6l49.3,85.4"/>
				<g>
					<path class="st1" d="M433.2,378.6l49.3-85.4"/>
				</g>
			</g>
			<g>
				<path class="st1" d="M425.9,405.9v109.3"/>
				<g>
					<path class="st1" d="M425.9,405.9l94.6-54.6"/>
				</g>
			</g>
			<g>
				<path class="st1" d="M405.9,425.9l-54.6,94.6"/>
				<g>
					<path class="st1" d="M405.9,425.9h109.3"/>
				</g>
			</g>
			<g>
				<path class="st1" d="M378.6,433.2l-85.4,49.3"/>
				<g>
					<path class="st1" d="M378.6,433.2l85.4,49.3"/>
				</g>
			</g>
			<g>
				<path class="st1" d="M351.2,425.9H242"/>
				<g>
					<path class="st1" d="M351.2,425.9l54.6,94.6"/>
				</g>
			</g>
			<g>
				<path class="st1" d="M331.2,405.9l-94.6-54.6"/>
				<g>
					<path class="st1" d="M331.2,405.9v109.3"/>
				</g>
			</g>
			<g>
				<path class="st1" d="M323.9,378.6l-49.3-85.4"/>
				<g>
					<path class="st1" d="M323.9,378.6l-49.3,85.4"/>
				</g>
			</g>
			<g>
				<path class="st1" d="M331.2,351.2V242"/>
				<g>
					<path class="st1" d="M331.2,351.2l-94.6,54.6"/>
				</g>
			</g>
			<g>
				<path class="st1" d="M351.2,331.2l54.6-94.6"/>
				<g>
					<path class="st1" d="M351.2,331.2H242"/>
				</g>
			</g>
		</g>
		<g>
			<g>
				<path class="st1" d="M378.6,513.2l85.4-49.3"/>
				<g>
					<path class="st1" d="M378.6,513.2l-85.4-49.3"/>
				</g>
			</g>
			<g>
				<path class="st1" d="M405.9,520.5h109.3"/>
				<g>
					<path class="st1" d="M405.9,520.5l-54.6-94.6"/>
				</g>
			</g>
			<g>
				<path class="st1" d="M425.9,540.5l94.6,54.6"/>
				<g>
					<path class="st1" d="M425.9,540.5V431.2"/>
				</g>
			</g>
			<g>
				<path class="st1" d="M433.2,567.8l49.3,85.4"/>
				<g>
					<path class="st1" d="M433.2,567.8l49.3-85.4"/>
				</g>
			</g>
			<g>
				<path class="st1" d="M425.9,595.2v109.3"/>
				<g>
					<path class="st1" d="M425.9,595.2l94.6-54.6"/>
				</g>
			</g>
			<g>
				<path class="st1" d="M405.9,615.2l-54.6,94.6"/>
				<g>
					<path class="st1" d="M405.9,615.2h109.3"/>
				</g>
			</g>
			<g>
				<path class="st1" d="M378.6,622.5l-85.4,49.3"/>
				<g>
					<path class="st1" d="M378.6,622.5l85.4,49.3"/>
				</g>
			</g>
			<g>
				<path class="st1" d="M351.2,615.2H242"/>
				<g>
					<path class="st1" d="M351.2,615.2l54.6,94.6"/>
				</g>
			</g>
			<g>
				<path class="st1" d="M331.2,595.2l-94.6-54.6"/>
				<g>
					<path class="st1" d="M331.2,595.2v109.3"/>
				</g>
			</g>
			<g>
				<path class="st1" d="M323.9,567.8l-49.3-85.4"/>
				<g>
					<path class="st1" d="M323.9,567.8l-49.3,85.4"/>
				</g>
			</g>
			<g>
				<path class="st1" d="M331.2,540.5V431.2"/>
				<g>
					<path class="st1" d="M331.2,540.5l-94.6,54.6"/>
				</g>
			</g>
			<g>
				<path class="st1" d="M351.2,520.5l54.6-94.6"/>
				<g>
					<path class="st1" d="M351.2,520.5H242"/>
				</g>
			</g>
		</g>
		<g>
			<g>
				<path class="st1" d="M378.6,702.5l85.4-49.3"/>
				<g>
					<path class="st1" d="M378.6,702.5l-85.4-49.3"/>
				</g>
			</g>
			<g>
				<path class="st1" d="M405.9,709.8h109.3"/>
				<g>
					<path class="st1" d="M405.9,709.8l-54.6-94.6"/>
				</g>
			</g>
			<g>
				<path class="st1" d="M425.9,729.8l94.6,54.6"/>
				<g>
					<path class="st1" d="M425.9,729.8V620.5"/>
				</g>
			</g>
			<g>
				<path class="st1" d="M433.2,757.1l49.3,85.4"/>
				<g>
					<path class="st1" d="M433.2,757.1l49.3-85.4"/>
				</g>
			</g>
			<g>
				<path class="st1" d="M425.9,784.4v109.3"/>
				<g>
					<path class="st1" d="M425.9,784.4l94.6-54.6"/>
				</g>
			</g>
			<g>
				<path class="st1" d="M405.9,804.4l-54.6,94.6"/>
				<g>
					<path class="st1" d="M405.9,804.4h109.3"/>
				</g>
			</g>
			<g>
				<path class="st1" d="M378.6,811.8l-85.4,49.3"/>
				<g>
					<path class="st1" d="M378.6,811.8l85.4,49.3"/>
				</g>
			</g>
			<g>
				<path class="st1" d="M351.2,804.4H242"/>
				<g>
					<path class="st1" d="M351.2,804.4l54.6,94.6"/>
				</g>
			</g>
			<g>
				<path class="st1" d="M331.2,784.4l-94.6-54.6"/>
				<g>
					<path class="st1" d="M331.2,784.4v109.3"/>
				</g>
			</g>
			<g>
				<path class="st1" d="M323.9,757.1l-49.3-85.4"/>
				<g>
					<path class="st1" d="M323.9,757.1l-49.3,85.4"/>
				</g>
			</g>
			<g>
				<path class="st1" d="M331.2,729.8V620.5"/>
				<g>
					<path class="st1" d="M331.2,729.8l-94.6,54.6"/>
				</g>
			</g>
			<g>
				<path class="st1" d="M351.2,709.8l54.6-94.6"/>
				<g>
					<path class="st1" d="M351.2,709.8H242"/>
				</g>
			</g>
		</g>
		<g>
			<g>
				<path class="st1" d="M567.8-54.6l85.4-49.3"/>
				<g>
					<path class="st1" d="M567.8-54.6l-85.4-49.3"/>
				</g>
			</g>
			<g>
				<path class="st1" d="M595.2-47.3h109.3"/>
				<g>
					<path class="st1" d="M595.2-47.3L540.5-142"/>
				</g>
			</g>
			<g>
				<path class="st1" d="M615.2-27.3l94.6,54.6"/>
				<g>
					<path class="st1" d="M615.2-27.3v-109.3"/>
				</g>
			</g>
			<g>
				<path class="st1" d="M622.5,0l49.3,85.4"/>
				<g>
					<path class="st1" d="M622.5,0l49.3-85.4"/>
				</g>
			</g>
			<g>
				<path class="st1" d="M615.2,27.3v109.3"/>
				<g>
					<path class="st1" d="M615.2,27.3l94.6-54.6"/>
				</g>
			</g>
			<g>
				<path class="st1" d="M595.2,47.3L540.5,142"/>
				<g>
					<path class="st1" d="M595.2,47.3h109.3"/>
				</g>
			</g>
			<g>
				<path class="st1" d="M567.8,54.6l-85.4,49.3"/>
				<g>
					<path class="st1" d="M567.8,54.6l85.4,49.3"/>
				</g>
			</g>
			<g>
				<path class="st1" d="M540.5,47.3H431.2"/>
				<g>
					<path class="st1" d="M540.5,47.3l54.6,94.6"/>
				</g>
			</g>
			<g>
				<path class="st1" d="M520.5,27.3l-94.6-54.6"/>
				<g>
					<path class="st1" d="M520.5,27.3v109.3"/>
				</g>
			</g>
			<g>
				<path class="st1" d="M513.2,0l-49.3-85.4"/>
				<g>
					<path class="st1" d="M513.2,0l-49.3,85.4"/>
				</g>
			</g>
			<g>
				<path class="st1" d="M520.5-27.3v-109.3"/>
				<g>
					<path class="st1" d="M520.5-27.3l-94.6,54.6"/>
				</g>
			</g>
			<g>
				<path class="st1" d="M540.5-47.3l54.6-94.6"/>
				<g>
					<path class="st1" d="M540.5-47.3H431.2"/>
				</g>
			</g>
		</g>
		<g>
			<g>
				<path class="st1" d="M567.8,134.6l85.4-49.3"/>
				<g>
					<path class="st1" d="M567.8,134.6l-85.4-49.3"/>
				</g>
			</g>
			<g>
				<path class="st1" d="M595.2,142h109.3"/>
				<g>
					<path class="st1" d="M595.2,142l-54.6-94.6"/>
				</g>
			</g>
			<g>
				<path class="st1" d="M615.2,162l94.6,54.6"/>
				<g>
					<path class="st1" d="M615.2,162V52.7"/>
				</g>
			</g>
			<g>
				<path class="st1" d="M622.5,189.3l49.3,85.4"/>
				<g>
					<path class="st1" d="M622.5,189.3l49.3-85.4"/>
				</g>
			</g>
			<g>
				<path class="st1" d="M615.2,216.6v109.3"/>
				<g>
					<path class="st1" d="M615.2,216.6l94.6-54.6"/>
				</g>
			</g>
			<g>
				<path class="st1" d="M595.2,236.6l-54.6,94.6"/>
				<g>
					<path class="st1" d="M595.2,236.6h109.3"/>
				</g>
			</g>
			<g>
				<path class="st1" d="M567.8,243.9l-85.4,49.3"/>
				<g>
					<path class="st1" d="M567.8,243.9l85.4,49.3"/>
				</g>
			</g>
			<g>
				<path class="st1" d="M540.5,236.6H431.2"/>
				<g>
					<path class="st1" d="M540.5,236.6l54.6,94.6"/>
				</g>
			</g>
			<g>
				<path class="st1" d="M520.5,216.6L425.9,162"/>
				<g>
					<path class="st1" d="M520.5,216.6v109.3"/>
				</g>
			</g>
			<g>
				<path class="st1" d="M513.2,189.3l-49.3-85.4"/>
				<g>
					<path class="st1" d="M513.2,189.3l-49.3,85.4"/>
				</g>
			</g>
			<g>
				<path class="st1" d="M520.5,162V52.7"/>
				<g>
					<path class="st1" d="M520.5,162l-94.6,54.6"/>
				</g>
			</g>
			<g>
				<path class="st1" d="M540.5,142l54.6-94.6"/>
				<g>
					<path class="st1" d="M540.5,142H431.2"/>
				</g>
			</g>
		</g>
		<g>
			<g>
				<path class="st1" d="M567.8,323.9l85.4-49.3"/>
				<g>
					<path class="st1" d="M567.8,323.9l-85.4-49.3"/>
				</g>
			</g>
			<g>
				<path class="st1" d="M595.2,331.2h109.3"/>
				<g>
					<path class="st1" d="M595.2,331.2l-54.6-94.6"/>
				</g>
			</g>
			<g>
				<path class="st1" d="M615.2,351.2l94.6,54.6"/>
				<g>
					<path class="st1" d="M615.2,351.2V242"/>
				</g>
			</g>
			<g>
				<path class="st1" d="M622.5,378.6l49.3,85.4"/>
				<g>
					<path class="st1" d="M622.5,378.6l49.3-85.4"/>
				</g>
			</g>
			<g>
				<path class="st1" d="M615.2,405.9v109.3"/>
				<g>
					<path class="st1" d="M615.2,405.9l94.6-54.6"/>
				</g>
			</g>
			<g>
				<path class="st1" d="M595.2,425.9l-54.6,94.6"/>
				<g>
					<path class="st1" d="M595.2,425.9h109.3"/>
				</g>
			</g>
			<g>
				<path class="st1" d="M567.8,433.2l-85.4,49.3"/>
				<g>
					<path class="st1" d="M567.8,433.2l85.4,49.3"/>
				</g>
			</g>
			<g>
				<path class="st1" d="M540.5,425.9H431.2"/>
				<g>
					<path class="st1" d="M540.5,425.9l54.6,94.6"/>
				</g>
			</g>
			<g>
				<path class="st1" d="M520.5,405.9l-94.6-54.6"/>
				<g>
					<path class="st1" d="M520.5,405.9v109.3"/>
				</g>
			</g>
			<g>
				<path class="st1" d="M513.2,378.6l-49.3-85.4"/>
				<g>
					<path class="st1" d="M513.2,378.6l-49.3,85.4"/>
				</g>
			</g>
			<g>
				<path class="st1" d="M520.5,351.2V242"/>
				<g>
					<path class="st1" d="M520.5,351.2l-94.6,54.6"/>
				</g>
			</g>
			<g>
				<path class="st1" d="M540.5,331.2l54.6-94.6"/>
				<g>
					<path class="st1" d="M540.5,331.2H431.2"/>
				</g>
			</g>
		</g>
		<g>
			<g>
				<path class="st1" d="M567.8,513.2l85.4-49.3"/>
				<g>
					<path class="st1" d="M567.8,513.2l-85.4-49.3"/>
				</g>
			</g>
			<g>
				<path class="st1" d="M595.2,520.5h109.3"/>
				<g>
					<path class="st1" d="M595.2,520.5l-54.6-94.6"/>
				</g>
			</g>
			<g>
				<path class="st1" d="M615.2,540.5l94.6,54.6"/>
				<g>
					<path class="st1" d="M615.2,540.5V431.2"/>
				</g>
			</g>
			<g>
				<path class="st1" d="M622.5,567.8l49.3,85.4"/>
				<g>
					<path class="st1" d="M622.5,567.8l49.3-85.4"/>
				</g>
			</g>
			<g>
				<path class="st1" d="M615.2,595.2v109.3"/>
				<g>
					<path class="st1" d="M615.2,595.2l94.6-54.6"/>
				</g>
			</g>
			<g>
				<path class="st1" d="M595.2,615.2l-54.6,94.6"/>
				<g>
					<path class="st1" d="M595.2,615.2h109.3"/>
				</g>
			</g>
			<g>
				<path class="st1" d="M567.8,622.5l-85.4,49.3"/>
				<g>
					<path class="st1" d="M567.8,622.5l85.4,49.3"/>
				</g>
			</g>
			<g>
				<path class="st1" d="M540.5,615.2H431.2"/>
				<g>
					<path class="st1" d="M540.5,615.2l54.6,94.6"/>
				</g>
			</g>
			<g>
				<path class="st1" d="M520.5,595.2l-94.6-54.6"/>
				<g>
					<path class="st1" d="M520.5,595.2v109.3"/>
				</g>
			</g>
			<g>
				<path class="st1" d="M513.2,567.8l-49.3-85.4"/>
				<g>
					<path class="st1" d="M513.2,567.8l-49.3,85.4"/>
				</g>
			</g>
			<g>
				<path class="st1" d="M520.5,540.5V431.2"/>
				<g>
					<path class="st1" d="M520.5,540.5l-94.6,54.6"/>
				</g>
			</g>
			<g>
				<path class="st1" d="M540.5,520.5l54.6-94.6"/>
				<g>
					<path class="st1" d="M540.5,520.5H431.2"/>
				</g>
			</g>
		</g>
		<g>
			<g>
				<path class="st1" d="M567.8,702.5l85.4-49.3"/>
				<g>
					<path class="st1" d="M567.8,702.5l-85.4-49.3"/>
				</g>
			</g>
			<g>
				<path class="st1" d="M595.2,709.8h109.3"/>
				<g>
					<path class="st1" d="M595.2,709.8l-54.6-94.6"/>
				</g>
			</g>
			<g>
				<path class="st1" d="M615.2,729.8l94.6,54.6"/>
				<g>
					<path class="st1" d="M615.2,729.8V620.5"/>
				</g>
			</g>
			<g>
				<path class="st1" d="M622.5,757.1l49.3,85.4"/>
				<g>
					<path class="st1" d="M622.5,757.1l49.3-85.4"/>
				</g>
			</g>
			<g>
				<path class="st1" d="M615.2,784.4v109.3"/>
				<g>
					<path class="st1" d="M615.2,784.4l94.6-54.6"/>
				</g>
			</g>
			<g>
				<path class="st1" d="M595.2,804.4l-54.6,94.6"/>
				<g>
					<path class="st1" d="M595.2,804.4h109.3"/>
				</g>
			</g>
			<g>
				<path class="st1" d="M567.8,811.8l-85.4,49.3"/>
				<g>
					<path class="st1" d="M567.8,811.8l85.4,49.3"/>
				</g>
			</g>
			<g>
				<path class="st1" d="M540.5,804.4H431.2"/>
				<g>
					<path class="st1" d="M540.5,804.4l54.6,94.6"/>
				</g>
			</g>
			<g>
				<path class="st1" d="M520.5,784.4l-94.6-54.6"/>
				<g>
					<path class="st1" d="M520.5,784.4v109.3"/>
				</g>
			</g>
			<g>
				<path class="st1" d="M513.2,757.1l-49.3-85.4"/>
				<g>
					<path class="st1" d="M513.2,757.1l-49.3,85.4"/>
				</g>
			</g>
			<g>
				<path class="st1" d="M520.5,729.8V620.5"/>
				<g>
					<path class="st1" d="M520.5,729.8l-94.6,54.6"/>
				</g>
			</g>
			<g>
				<path class="st1" d="M540.5,709.8l54.6-94.6"/>
				<g>
					<path class="st1" d="M540.5,709.8H431.2"/>
				</g>
			</g>
		</g>
		<g>
			<g>
				<path class="st1" d="M757.1-54.6l85.4-49.3"/>
				<g>
					<path class="st1" d="M757.1-54.6l-85.4-49.3"/>
				</g>
			</g>
			<g>
				<path class="st1" d="M784.4-47.3h109.3"/>
				<g>
					<path class="st1" d="M784.4-47.3L729.8-142"/>
				</g>
			</g>
			<g>
				<path class="st1" d="M804.4-27.3l94.6,54.6"/>
				<g>
					<path class="st1" d="M804.4-27.3v-109.3"/>
				</g>
			</g>
			<g>
				<path class="st1" d="M811.8,0l49.3,85.4"/>
				<g>
					<path class="st1" d="M811.8,0l49.3-85.4"/>
				</g>
			</g>
			<g>
				<path class="st1" d="M804.4,27.3v109.3"/>
				<g>
					<path class="st1" d="M804.4,27.3l94.6-54.6"/>
				</g>
			</g>
			<g>
				<path class="st1" d="M784.4,47.3L729.8,142"/>
				<g>
					<path class="st1" d="M784.4,47.3h109.3"/>
				</g>
			</g>
			<g>
				<path class="st1" d="M757.1,54.6l-85.4,49.3"/>
				<g>
					<path class="st1" d="M757.1,54.6l85.4,49.3"/>
				</g>
			</g>
			<g>
				<path class="st1" d="M729.8,47.3H620.5"/>
				<g>
					<path class="st1" d="M729.8,47.3l54.6,94.6"/>
				</g>
			</g>
			<g>
				<path class="st1" d="M709.8,27.3l-94.6-54.6"/>
				<g>
					<path class="st1" d="M709.8,27.3v109.3"/>
				</g>
			</g>
			<g>
				<path class="st1" d="M702.5,0l-49.3-85.4"/>
				<g>
					<path class="st1" d="M702.5,0l-49.3,85.4"/>
				</g>
			</g>
			<g>
				<path class="st1" d="M709.8-27.3v-109.3"/>
				<g>
					<path class="st1" d="M709.8-27.3l-94.6,54.6"/>
				</g>
			</g>
			<g>
				<path class="st1" d="M729.8-47.3l54.6-94.6"/>
				<g>
					<path class="st1" d="M729.8-47.3H620.5"/>
				</g>
			</g>
		</g>
		<g>
			<g>
				<path class="st1" d="M757.1,134.6l85.4-49.3"/>
				<g>
					<path class="st1" d="M757.1,134.6l-85.4-49.3"/>
				</g>
			</g>
			<g>
				<path class="st1" d="M784.4,142h109.3"/>
				<g>
					<path class="st1" d="M784.4,142l-54.6-94.6"/>
				</g>
			</g>
			<g>
				<path class="st1" d="M804.4,162l94.6,54.6"/>
				<g>
					<path class="st1" d="M804.4,162V52.7"/>
				</g>
			</g>
			<g>
				<path class="st1" d="M811.8,189.3l49.3,85.4"/>
				<g>
					<path class="st1" d="M811.8,189.3l49.3-85.4"/>
				</g>
			</g>
			<g>
				<path class="st1" d="M804.4,216.6v109.3"/>
				<g>
					<path class="st1" d="M804.4,216.6l94.6-54.6"/>
				</g>
			</g>
			<g>
				<path class="st1" d="M784.4,236.6l-54.6,94.6"/>
				<g>
					<path class="st1" d="M784.4,236.6h109.3"/>
				</g>
			</g>
			<g>
				<path class="st1" d="M757.1,243.9l-85.4,49.3"/>
				<g>
					<path class="st1" d="M757.1,243.9l85.4,49.3"/>
				</g>
			</g>
			<g>
				<path class="st1" d="M729.8,236.6H620.5"/>
				<g>
					<path class="st1" d="M729.8,236.6l54.6,94.6"/>
				</g>
			</g>
			<g>
				<path class="st1" d="M709.8,216.6L615.2,162"/>
				<g>
					<path class="st1" d="M709.8,216.6v109.3"/>
				</g>
			</g>
			<g>
				<path class="st1" d="M702.5,189.3l-49.3-85.4"/>
				<g>
					<path class="st1" d="M702.5,189.3l-49.3,85.4"/>
				</g>
			</g>
			<g>
				<path class="st1" d="M709.8,162V52.7"/>
				<g>
					<path class="st1" d="M709.8,162l-94.6,54.6"/>
				</g>
			</g>
			<g>
				<path class="st1" d="M729.8,142l54.6-94.6"/>
				<g>
					<path class="st1" d="M729.8,142H620.5"/>
				</g>
			</g>
		</g>
		<g>
			<g>
				<path class="st1" d="M757.1,323.9l85.4-49.3"/>
				<g>
					<path class="st1" d="M757.1,323.9l-85.4-49.3"/>
				</g>
			</g>
			<g>
				<path class="st1" d="M784.4,331.2h109.3"/>
				<g>
					<path class="st1" d="M784.4,331.2l-54.6-94.6"/>
				</g>
			</g>
			<g>
				<path class="st1" d="M804.4,351.2l94.6,54.6"/>
				<g>
					<path class="st1" d="M804.4,351.2V242"/>
				</g>
			</g>
			<g>
				<path class="st1" d="M811.8,378.6l49.3,85.4"/>
				<g>
					<path class="st1" d="M811.8,378.6l49.3-85.4"/>
				</g>
			</g>
			<g>
				<path class="st1" d="M804.4,405.9v109.3"/>
				<g>
					<path class="st1" d="M804.4,405.9l94.6-54.6"/>
				</g>
			</g>
			<g>
				<path class="st1" d="M784.4,425.9l-54.6,94.6"/>
				<g>
					<path class="st1" d="M784.4,425.9h109.3"/>
				</g>
			</g>
			<g>
				<path class="st1" d="M757.1,433.2l-85.4,49.3"/>
				<g>
					<path class="st1" d="M757.1,433.2l85.4,49.3"/>
				</g>
			</g>
			<g>
				<path class="st1" d="M729.8,425.9H620.5"/>
				<g>
					<path class="st1" d="M729.8,425.9l54.6,94.6"/>
				</g>
			</g>
			<g>
				<path class="st1" d="M709.8,405.9l-94.6-54.6"/>
				<g>
					<path class="st1" d="M709.8,405.9v109.3"/>
				</g>
			</g>
			<g>
				<path class="st1" d="M702.5,378.6l-49.3-85.4"/>
				<g>
					<path class="st1" d="M702.5,378.6l-49.3,85.4"/>
				</g>
			</g>
			<g>
				<path class="st1" d="M709.8,351.2V242"/>
				<g>
					<path class="st1" d="M709.8,351.2l-94.6,54.6"/>
				</g>
			</g>
			<g>
				<path class="st1" d="M729.8,331.2l54.6-94.6"/>
				<g>
					<path class="st1" d="M729.8,331.2H620.5"/>
				</g>
			</g>
		</g>
		<g>
			<g>
				<path class="st1" d="M757.1,513.2l85.4-49.3"/>
				<g>
					<path class="st1" d="M757.1,513.2l-85.4-49.3"/>
				</g>
			</g>
			<g>
				<path class="st1" d="M784.4,520.5h109.3"/>
				<g>
					<path class="st1" d="M784.4,520.5l-54.6-94.6"/>
				</g>
			</g>
			<g>
				<path class="st1" d="M804.4,540.5l94.6,54.6"/>
				<g>
					<path class="st1" d="M804.4,540.5V431.2"/>
				</g>
			</g>
			<g>
				<path class="st1" d="M811.8,567.8l49.3,85.4"/>
				<g>
					<path class="st1" d="M811.8,567.8l49.3-85.4"/>
				</g>
			</g>
			<g>
				<path class="st1" d="M804.4,595.2v109.3"/>
				<g>
					<path class="st1" d="M804.4,595.2l94.6-54.6"/>
				</g>
			</g>
			<g>
				<path class="st1" d="M784.4,615.2l-54.6,94.6"/>
				<g>
					<path class="st1" d="M784.4,615.2h109.3"/>
				</g>
			</g>
			<g>
				<path class="st1" d="M757.1,622.5l-85.4,49.3"/>
				<g>
					<path class="st1" d="M757.1,622.5l85.4,49.3"/>
				</g>
			</g>
			<g>
				<path class="st1" d="M729.8,615.2H620.5"/>
				<g>
					<path class="st1" d="M729.8,615.2l54.6,94.6"/>
				</g>
			</g>
			<g>
				<path class="st1" d="M709.8,595.2l-94.6-54.6"/>
				<g>
					<path class="st1" d="M709.8,595.2v109.3"/>
				</g>
			</g>
			<g>
				<path class="st1" d="M702.5,567.8l-49.3-85.4"/>
				<g>
					<path class="st1" d="M702.5,567.8l-49.3,85.4"/>
				</g>
			</g>
			<g>
				<path class="st1" d="M709.8,540.5V431.2"/>
				<g>
					<path class="st1" d="M709.8,540.5l-94.6,54.6"/>
				</g>
			</g>
			<g>
				<path class="st1" d="M729.8,520.5l54.6-94.6"/>
				<g>
					<path class="st1" d="M729.8,520.5H620.5"/>
				</g>
			</g>
		</g>
		<g>
			<g>
				<path class="st1" d="M757.1,702.5l85.4-49.3"/>
				<g>
					<path class="st1" d="M757.1,702.5l-85.4-49.3"/>
				</g>
			</g>
			<g>
				<path class="st1" d="M784.4,709.8h109.3"/>
				<g>
					<path class="st1" d="M784.4,709.8l-54.6-94.6"/>
				</g>
			</g>
			<g>
				<path class="st1" d="M804.4,729.8l94.6,54.6"/>
				<g>
					<path class="st1" d="M804.4,729.8V620.5"/>
				</g>
			</g>
			<g>
				<path class="st1" d="M811.8,757.1l49.3,85.4"/>
				<g>
					<path class="st1" d="M811.8,757.1l49.3-85.4"/>
				</g>
			</g>
			<g>
				<path class="st1" d="M804.4,784.4v109.3"/>
				<g>
					<path class="st1" d="M804.4,784.4l94.6-54.6"/>
				</g>
			</g>
			<g>
				<path class="st1" d="M784.4,804.4l-54.6,94.6"/>
				<g>
					<path class="st1" d="M784.4,804.4h109.3"/>
				</g>
			</g>
			<g>
				<path class="st1" d="M757.1,811.8l-85.4,49.3"/>
				<g>
					<path class="st1" d="M757.1,811.8l85.4,49.3"/>
				</g>
			</g>
			<g>
				<path class="st1" d="M729.8,804.4H620.5"/>
				<g>
					<path class="st1" d="M729.8,804.4l54.6,94.6"/>
				</g>
			</g>
			<g>
				<path class="st1" d="M709.8,784.4l-94.6-54.6"/>
				<g>
					<path class="st1" d="M709.8,784.4v109.3"/>
				</g>
			</g>
			<g>
				<path class="st1" d="M702.5,757.1l-49.3-85.4"/>
				<g>
					<path class="st1" d="M702.5,757.1l-49.3,85.4"/>
				</g>
			</g>
			<g>
				<path class="st1" d="M709.8,729.8V620.5"/>
				<g>
					<path class="st1" d="M709.8,729.8l-94.6,54.6"/>
				</g>
			</g>
			<g>
				<path class="st1" d="M729.8,709.8l54.6-94.6"/>
				<g>
					<path class="st1" d="M729.8,709.8H620.5"/>
				</g>
			</g>
		</g>
	</g>
</g>
</svg>
