<svg version="1.1" xmlns="http://www.w3.org/2000/svg" xmlns:xlink="http://www.w3.org/1999/xlink" width="800" height="800" viewBox="0 0 800 800"><defs/><g><g><g><path fill="none" stroke="#000000" paint-order="fill stroke markers" d=" M 42.426406871192846 17.573593128807147 L 42.42640687119285 42.42640687119285 L 17.573593128807147 42.426406871192846 L 3.552713678800501e-15 60 L -17.573593128807143 42.426406871192846 L -42.42640687119285 42.42640687119285 L -42.426406871192846 17.573593128807147 L -60 7.105427357601002e-15 L -42.426406871192846 -17.573593128807143 L -42.42640687119286 -42.42640687119285 L -17.573593128807154 -42.42640687119285 L 2.1316282072803006e-14 -60 L 17.57359312880714 -42.426406871192846 L 42.42640687119287 -42.42640687119284 L 42.42640687119284 -17.573593128807154 L 60 1.7763568394002505e-14 L 42.426406871192846 17.573593128807147 L 42.426406871192846 17.573593128807147 Z" stroke-linecap="round" stroke-miterlimit="10" stroke-dasharray=""/></g></g><g><g><path fill="none" stroke="#000000" paint-order="fill stroke markers" d=" M 42.426406871192846 137.57359312880715 L 42.42640687119285 162.42640687119285 L 17.573593128807147 162.42640687119285 L 3.552713678800501e-15 180 L -17.573593128807143 162.42640687119285 L -42.42640687119285 162.42640687119285 L -42.426406871192846 137.57359312880715 L -60 120 L -42.426406871192846 102.42640687119285 L -42.42640687119286 77.57359312880715 L -17.573593128807154 77.57359312880715 L 2.1316282072803006e-14 60 L 17.57359312880714 77.57359312880715 L 42.42640687119287 77.57359312880716 L 42.42640687119284 102.42640687119285 L 60 120.00000000000001 L 42.426406871192846 137.57359312880715 L 42.426406871192846 137.57359312880715 Z" stroke-linecap="round" stroke-miterlimit="10" stroke-dasharray=""/></g></g><g><g><path fill="none" stroke="#000000" paint-order="fill stroke markers" d=" M 42.426406871192846 257.57359312880715 L 42.42640687119285 282.42640687119285 L 17.573593128807147 282.42640687119285 L 3.552713678800501e-15 300 L -17.573593128807143 282.42640687119285 L -42.42640687119285 282.42640687119285 L -42.426406871192846 257.57359312880715 L -60 240 L -42.426406871192846 222.42640687119285 L -42.42640687119286 197.57359312880715 L -17.573593128807154 197.57359312880715 L 2.1316282072803006e-14 180 L 17.57359312880714 197.57359312880715 L 42.42640687119287 197.57359312880715 L 42.42640687119284 222.42640687119285 L 60 240.00000000000003 L 42.426406871192846 257.57359312880715 L 42.426406871192846 257.57359312880715 Z" stroke-linecap="round" stroke-miterlimit="10" stroke-dasharray=""/></g></g><g><g><path fill="none" stroke="#000000" paint-order="fill stroke markers" d=" M 42.426406871192846 377.57359312880715 L 42.42640687119285 402.42640687119285 L 17.573593128807147 402.42640687119285 L 3.552713678800501e-15 420 L -17.573593128807143 402.42640687119285 L -42.42640687119285 402.42640687119285 L -42.426406871192846 377.57359312880715 L -60 360 L -42.426406871192846 342.42640687119285 L -42.42640687119286 317.57359312880715 L -17.573593128807154 317.57359312880715 L 2.1316282072803006e-14 300 L 17.57359312880714 317.57359312880715 L 42.42640687119287 317.57359312880715 L 42.42640687119284 342.42640687119285 L 60 360 L 42.426406871192846 377.57359312880715 L 42.426406871192846 377.57359312880715 Z" stroke-linecap="round" stroke-miterlimit="10" stroke-dasharray=""/></g></g><g><g><path fill="none" stroke="#000000" paint-order="fill stroke markers" d=" M 42.426406871192846 497.57359312880715 L 42.42640687119285 522.4264068711929 L 17.573593128807147 522.4264068711929 L 3.552713678800501e-15 540 L -17.573593128807143 522.4264068711929 L -42.42640687119285 522.4264068711929 L -42.426406871192846 497.57359312880715 L -60 480 L -42.426406871192846 462.42640687119285 L -42.42640687119286 437.57359312880715 L -17.573593128807154 437.57359312880715 L 2.1316282072803006e-14 420 L 17.57359312880714 437.57359312880715 L 42.42640687119287 437.57359312880715 L 42.42640687119284 462.42640687119285 L 60 480 L 42.426406871192846 497.57359312880715 L 42.426406871192846 497.57359312880715 Z" stroke-linecap="round" stroke-miterlimit="10" stroke-dasharray=""/></g></g><g><g><path fill="none" stroke="#000000" paint-order="fill stroke markers" d=" M 42.426406871192846 617.5735931288071 L 42.42640687119285 642.4264068711929 L 17.573593128807147 642.4264068711929 L 3.552713678800501e-15 660 L -17.573593128807143 642.4264068711929 L -42.42640687119285 642.4264068711929 L -42.426406871192846 617.5735931288071 L -60 600 L -42.426406871192846 582.4264068711929 L -42.42640687119286 557.5735931288071 L -17.573593128807154 557.5735931288071 L 2.1316282072803006e-14 540 L 17.57359312880714 557.5735931288071 L 42.42640687119287 557.5735931288071 L 42.42640687119284 582.4264068711929 L 60 600 L 42.426406871192846 617.5735931288071 L 42.426406871192846 617.5735931288071 Z" stroke-linecap="round" stroke-miterlimit="10" stroke-dasharray=""/></g></g><g><g><path fill="none" stroke="#000000" paint-order="fill stroke markers" d=" M 42.426406871192846 737.5735931288071 L 42.42640687119285 762.4264068711929 L 17.573593128807147 762.4264068711929 L 3.552713678800501e-15 780 L -17.573593128807143 762.4264068711929 L -42.42640687119285 762.4264068711929 L -42.426406871192846 737.5735931288071 L -60 720 L -42.426406871192846 702.4264068711929 L -42.42640687119286 677.5735931288071 L -17.573593128807154 677.5735931288071 L 2.1316282072803006e-14 660 L 17.57359312880714 677.5735931288071 L 42.42640687119287 677.5735931288071 L 42.42640687119284 702.4264068711929 L 60 720 L 42.426406871192846 737.5735931288071 L 42.426406871192846 737.5735931288071 Z" stroke-linecap="round" stroke-miterlimit="10" stroke-dasharray=""/></g></g><g><g><path fill="none" stroke="#000000" paint-order="fill stroke markers" d=" M 162.42640687119285 17.573593128807147 L 162.42640687119285 42.42640687119285 L 137.57359312880715 42.426406871192846 L 120 60 L 102.42640687119285 42.426406871192846 L 77.57359312880715 42.42640687119285 L 77.57359312880715 17.573593128807147 L 60 7.105427357601002e-15 L 77.57359312880715 -17.573593128807143 L 77.57359312880715 -42.42640687119285 L 102.42640687119285 -42.42640687119285 L 120.00000000000003 -60 L 137.57359312880715 -42.426406871192846 L 162.42640687119285 -42.42640687119284 L 162.42640687119285 -17.573593128807154 L 180 1.7763568394002505e-14 L 162.42640687119285 17.573593128807147 L 162.42640687119285 17.573593128807147 Z" stroke-linecap="round" stroke-miterlimit="10" stroke-dasharray=""/></g></g><g><g><path fill="none" stroke="#000000" paint-order="fill stroke markers" d=" M 162.42640687119285 137.57359312880715 L 162.42640687119285 162.42640687119285 L 137.57359312880715 162.42640687119285 L 120 180 L 102.42640687119285 162.42640687119285 L 77.57359312880715 162.42640687119285 L 77.57359312880715 137.57359312880715 L 60 120 L 77.57359312880715 102.42640687119285 L 77.57359312880715 77.57359312880715 L 102.42640687119285 77.57359312880715 L 120.00000000000003 60 L 137.57359312880715 77.57359312880715 L 162.42640687119285 77.57359312880716 L 162.42640687119285 102.42640687119285 L 180 120.00000000000001 L 162.42640687119285 137.57359312880715 L 162.42640687119285 137.57359312880715 Z" stroke-linecap="round" stroke-miterlimit="10" stroke-dasharray=""/></g></g><g><g><path fill="none" stroke="#000000" paint-order="fill stroke markers" d=" M 162.42640687119285 257.57359312880715 L 162.42640687119285 282.42640687119285 L 137.57359312880715 282.42640687119285 L 120 300 L 102.42640687119285 282.42640687119285 L 77.57359312880715 282.42640687119285 L 77.57359312880715 257.57359312880715 L 60 240 L 77.57359312880715 222.42640687119285 L 77.57359312880715 197.57359312880715 L 102.42640687119285 197.57359312880715 L 120.00000000000003 180 L 137.57359312880715 197.57359312880715 L 162.42640687119285 197.57359312880715 L 162.42640687119285 222.42640687119285 L 180 240.00000000000003 L 162.42640687119285 257.57359312880715 L 162.42640687119285 257.57359312880715 Z" stroke-linecap="round" stroke-miterlimit="10" stroke-dasharray=""/></g></g><g><g><path fill="none" stroke="#000000" paint-order="fill stroke markers" d=" M 162.42640687119285 377.57359312880715 L 162.42640687119285 402.42640687119285 L 137.57359312880715 402.42640687119285 L 120 420 L 102.42640687119285 402.42640687119285 L 77.57359312880715 402.42640687119285 L 77.57359312880715 377.57359312880715 L 60 360 L 77.57359312880715 342.42640687119285 L 77.57359312880715 317.57359312880715 L 102.42640687119285 317.57359312880715 L 120.00000000000003 300 L 137.57359312880715 317.57359312880715 L 162.42640687119285 317.57359312880715 L 162.42640687119285 342.42640687119285 L 180 360 L 162.42640687119285 377.57359312880715 L 162.42640687119285 377.57359312880715 Z" stroke-linecap="round" stroke-miterlimit="10" stroke-dasharray=""/></g></g><g><g><path fill="none" stroke="#000000" paint-order="fill stroke markers" d=" M 162.42640687119285 497.57359312880715 L 162.42640687119285 522.4264068711929 L 137.57359312880715 522.4264068711929 L 120 540 L 102.42640687119285 522.4264068711929 L 77.57359312880715 522.4264068711929 L 77.57359312880715 497.57359312880715 L 60 480 L 77.57359312880715 462.42640687119285 L 77.57359312880715 437.57359312880715 L 102.42640687119285 437.57359312880715 L 120.00000000000003 420 L 137.57359312880715 437.57359312880715 L 162.42640687119285 437.57359312880715 L 162.42640687119285 462.42640687119285 L 180 480 L 162.42640687119285 497.57359312880715 L 162.42640687119285 497.57359312880715 Z" stroke-linecap="round" stroke-miterlimit="10" stroke-dasharray=""/></g></g><g><g><path fill="none" stroke="#000000" paint-order="fill stroke markers" d=" M 162.42640687119285 617.5735931288071 L 162.42640687119285 642.4264068711929 L 137.57359312880715 642.4264068711929 L 120 660 L 102.42640687119285 642.4264068711929 L 77.57359312880715 642.4264068711929 L 77.57359312880715 617.5735931288071 L 60 600 L 77.57359312880715 582.4264068711929 L 77.57359312880715 557.5735931288071 L 102.42640687119285 557.5735931288071 L 120.00000000000003 540 L 137.57359312880715 557.5735931288071 L 162.42640687119285 557.5735931288071 L 162.42640687119285 582.4264068711929 L 180 600 L 162.42640687119285 617.5735931288071 L 162.42640687119285 617.5735931288071 Z" stroke-linecap="round" stroke-miterlimit="10" stroke-dasharray=""/></g></g><g><g><path fill="none" stroke="#000000" paint-order="fill stroke markers" d=" M 162.42640687119285 737.5735931288071 L 162.42640687119285 762.4264068711929 L 137.57359312880715 762.4264068711929 L 120 780 L 102.42640687119285 762.4264068711929 L 77.57359312880715 762.4264068711929 L 77.57359312880715 737.5735931288071 L 60 720 L 77.57359312880715 702.4264068711929 L 77.57359312880715 677.5735931288071 L 102.42640687119285 677.5735931288071 L 120.00000000000003 660 L 137.57359312880715 677.5735931288071 L 162.42640687119285 677.5735931288071 L 162.42640687119285 702.4264068711929 L 180 720 L 162.42640687119285 737.5735931288071 L 162.42640687119285 737.5735931288071 Z" stroke-linecap="round" stroke-miterlimit="10" stroke-dasharray=""/></g></g><g><g><path fill="none" stroke="#000000" paint-order="fill stroke markers" d=" M 282.42640687119285 17.573593128807147 L 282.42640687119285 42.42640687119285 L 257.57359312880715 42.426406871192846 L 240 60 L 222.42640687119285 42.426406871192846 L 197.57359312880715 42.42640687119285 L 197.57359312880715 17.573593128807147 L 180 7.105427357601002e-15 L 197.57359312880715 -17.573593128807143 L 197.57359312880715 -42.42640687119285 L 222.42640687119285 -42.42640687119285 L 240.00000000000003 -60 L 257.57359312880715 -42.426406871192846 L 282.42640687119285 -42.42640687119284 L 282.42640687119285 -17.573593128807154 L 300 1.7763568394002505e-14 L 282.42640687119285 17.573593128807147 L 282.42640687119285 17.573593128807147 Z" stroke-linecap="round" stroke-miterlimit="10" stroke-dasharray=""/></g></g><g><g><path fill="none" stroke="#000000" paint-order="fill stroke markers" d=" M 282.42640687119285 137.57359312880715 L 282.42640687119285 162.42640687119285 L 257.57359312880715 162.42640687119285 L 240 180 L 222.42640687119285 162.42640687119285 L 197.57359312880715 162.42640687119285 L 197.57359312880715 137.57359312880715 L 180 120 L 197.57359312880715 102.42640687119285 L 197.57359312880715 77.57359312880715 L 222.42640687119285 77.57359312880715 L 240.00000000000003 60 L 257.57359312880715 77.57359312880715 L 282.42640687119285 77.57359312880716 L 282.42640687119285 102.42640687119285 L 300 120.00000000000001 L 282.42640687119285 137.57359312880715 L 282.42640687119285 137.57359312880715 Z" stroke-linecap="round" stroke-miterlimit="10" stroke-dasharray=""/></g></g><g><g><path fill="none" stroke="#000000" paint-order="fill stroke markers" d=" M 282.42640687119285 257.57359312880715 L 282.42640687119285 282.42640687119285 L 257.57359312880715 282.42640687119285 L 240 300 L 222.42640687119285 282.42640687119285 L 197.57359312880715 282.42640687119285 L 197.57359312880715 257.57359312880715 L 180 240 L 197.57359312880715 222.42640687119285 L 197.57359312880715 197.57359312880715 L 222.42640687119285 197.57359312880715 L 240.00000000000003 180 L 257.57359312880715 197.57359312880715 L 282.42640687119285 197.57359312880715 L 282.42640687119285 222.42640687119285 L 300 240.00000000000003 L 282.42640687119285 257.57359312880715 L 282.42640687119285 257.57359312880715 Z" stroke-linecap="round" stroke-miterlimit="10" stroke-dasharray=""/></g></g><g><g><path fill="none" stroke="#000000" paint-order="fill stroke markers" d=" M 282.42640687119285 377.57359312880715 L 282.42640687119285 402.42640687119285 L 257.57359312880715 402.42640687119285 L 240 420 L 222.42640687119285 402.42640687119285 L 197.57359312880715 402.42640687119285 L 197.57359312880715 377.57359312880715 L 180 360 L 197.57359312880715 342.42640687119285 L 197.57359312880715 317.57359312880715 L 222.42640687119285 317.57359312880715 L 240.00000000000003 300 L 257.57359312880715 317.57359312880715 L 282.42640687119285 317.57359312880715 L 282.42640687119285 342.42640687119285 L 300 360 L 282.42640687119285 377.57359312880715 L 282.42640687119285 377.57359312880715 Z" stroke-linecap="round" stroke-miterlimit="10" stroke-dasharray=""/></g></g><g><g><path fill="none" stroke="#000000" paint-order="fill stroke markers" d=" M 282.42640687119285 497.57359312880715 L 282.42640687119285 522.4264068711929 L 257.57359312880715 522.4264068711929 L 240 540 L 222.42640687119285 522.4264068711929 L 197.57359312880715 522.4264068711929 L 197.57359312880715 497.57359312880715 L 180 480 L 197.57359312880715 462.42640687119285 L 197.57359312880715 437.57359312880715 L 222.42640687119285 437.57359312880715 L 240.00000000000003 420 L 257.57359312880715 437.57359312880715 L 282.42640687119285 437.57359312880715 L 282.42640687119285 462.42640687119285 L 300 480 L 282.42640687119285 497.57359312880715 L 282.42640687119285 497.57359312880715 Z" stroke-linecap="round" stroke-miterlimit="10" stroke-dasharray=""/></g></g><g><g><path fill="none" stroke="#000000" paint-order="fill stroke markers" d=" M 282.42640687119285 617.5735931288071 L 282.42640687119285 642.4264068711929 L 257.57359312880715 642.4264068711929 L 240 660 L 222.42640687119285 642.4264068711929 L 197.57359312880715 642.4264068711929 L 197.57359312880715 617.5735931288071 L 180 600 L 197.57359312880715 582.4264068711929 L 197.57359312880715 557.5735931288071 L 222.42640687119285 557.5735931288071 L 240.00000000000003 540 L 257.57359312880715 557.5735931288071 L 282.42640687119285 557.5735931288071 L 282.42640687119285 582.4264068711929 L 300 600 L 282.42640687119285 617.5735931288071 L 282.42640687119285 617.5735931288071 Z" stroke-linecap="round" stroke-miterlimit="10" stroke-dasharray=""/></g></g><g><g><path fill="none" stroke="#000000" paint-order="fill stroke markers" d=" M 282.42640687119285 737.5735931288071 L 282.42640687119285 762.4264068711929 L 257.57359312880715 762.4264068711929 L 240 780 L 222.42640687119285 762.4264068711929 L 197.57359312880715 762.4264068711929 L 197.57359312880715 737.5735931288071 L 180 720 L 197.57359312880715 702.4264068711929 L 197.57359312880715 677.5735931288071 L 222.42640687119285 677.5735931288071 L 240.00000000000003 660 L 257.57359312880715 677.5735931288071 L 282.42640687119285 677.5735931288071 L 282.42640687119285 702.4264068711929 L 300 720 L 282.42640687119285 737.5735931288071 L 282.42640687119285 737.5735931288071 Z" stroke-linecap="round" stroke-miterlimit="10" stroke-dasharray=""/></g></g><g><g><path fill="none" stroke="#000000" paint-order="fill stroke markers" d=" M 402.42640687119285 17.573593128807147 L 402.42640687119285 42.42640687119285 L 377.57359312880715 42.426406871192846 L 360 60 L 342.42640687119285 42.426406871192846 L 317.57359312880715 42.42640687119285 L 317.57359312880715 17.573593128807147 L 300 7.105427357601002e-15 L 317.57359312880715 -17.573593128807143 L 317.57359312880715 -42.42640687119285 L 342.42640687119285 -42.42640687119285 L 360 -60 L 377.57359312880715 -42.426406871192846 L 402.42640687119285 -42.42640687119284 L 402.42640687119285 -17.573593128807154 L 420 1.7763568394002505e-14 L 402.42640687119285 17.573593128807147 L 402.42640687119285 17.573593128807147 Z" stroke-linecap="round" stroke-miterlimit="10" stroke-dasharray=""/></g></g><g><g><path fill="none" stroke="#000000" paint-order="fill stroke markers" d=" M 402.42640687119285 137.57359312880715 L 402.42640687119285 162.42640687119285 L 377.57359312880715 162.42640687119285 L 360 180 L 342.42640687119285 162.42640687119285 L 317.57359312880715 162.42640687119285 L 317.57359312880715 137.57359312880715 L 300 120 L 317.57359312880715 102.42640687119285 L 317.57359312880715 77.57359312880715 L 342.42640687119285 77.57359312880715 L 360 60 L 377.57359312880715 77.57359312880715 L 402.42640687119285 77.57359312880716 L 402.42640687119285 102.42640687119285 L 420 120.00000000000001 L 402.42640687119285 137.57359312880715 L 402.42640687119285 137.57359312880715 Z" stroke-linecap="round" stroke-miterlimit="10" stroke-dasharray=""/></g></g><g><g><path fill="none" stroke="#000000" paint-order="fill stroke markers" d=" M 402.42640687119285 257.57359312880715 L 402.42640687119285 282.42640687119285 L 377.57359312880715 282.42640687119285 L 360 300 L 342.42640687119285 282.42640687119285 L 317.57359312880715 282.42640687119285 L 317.57359312880715 257.57359312880715 L 300 240 L 317.57359312880715 222.42640687119285 L 317.57359312880715 197.57359312880715 L 342.42640687119285 197.57359312880715 L 360 180 L 377.57359312880715 197.57359312880715 L 402.42640687119285 197.57359312880715 L 402.42640687119285 222.42640687119285 L 420 240.00000000000003 L 402.42640687119285 257.57359312880715 L 402.42640687119285 257.57359312880715 Z" stroke-linecap="round" stroke-miterlimit="10" stroke-dasharray=""/></g></g><g><g><path fill="none" stroke="#000000" paint-order="fill stroke markers" d=" M 402.42640687119285 377.57359312880715 L 402.42640687119285 402.42640687119285 L 377.57359312880715 402.42640687119285 L 360 420 L 342.42640687119285 402.42640687119285 L 317.57359312880715 402.42640687119285 L 317.57359312880715 377.57359312880715 L 300 360 L 317.57359312880715 342.42640687119285 L 317.57359312880715 317.57359312880715 L 342.42640687119285 317.57359312880715 L 360 300 L 377.57359312880715 317.57359312880715 L 402.42640687119285 317.57359312880715 L 402.42640687119285 342.42640687119285 L 420 360 L 402.42640687119285 377.57359312880715 L 402.42640687119285 377.57359312880715 Z" stroke-linecap="round" stroke-miterlimit="10" stroke-dasharray=""/></g></g><g><g><path fill="none" stroke="#000000" paint-order="fill stroke markers" d=" M 402.42640687119285 497.57359312880715 L 402.42640687119285 522.4264068711929 L 377.57359312880715 522.4264068711929 L 360 540 L 342.42640687119285 522.4264068711929 L 317.57359312880715 522.4264068711929 L 317.57359312880715 497.57359312880715 L 300 480 L 317.57359312880715 462.42640687119285 L 317.57359312880715 437.57359312880715 L 342.42640687119285 437.57359312880715 L 360 420 L 377.57359312880715 437.57359312880715 L 402.42640687119285 437.57359312880715 L 402.42640687119285 462.42640687119285 L 420 480 L 402.42640687119285 497.57359312880715 L 402.42640687119285 497.57359312880715 Z" stroke-linecap="round" stroke-miterlimit="10" stroke-dasharray=""/></g></g><g><g><path fill="none" stroke="#000000" paint-order="fill stroke markers" d=" M 402.42640687119285 617.5735931288071 L 402.42640687119285 642.4264068711929 L 377.57359312880715 642.4264068711929 L 360 660 L 342.42640687119285 642.4264068711929 L 317.57359312880715 642.4264068711929 L 317.57359312880715 617.5735931288071 L 300 600 L 317.57359312880715 582.4264068711929 L 317.57359312880715 557.5735931288071 L 342.42640687119285 557.5735931288071 L 360 540 L 377.57359312880715 557.5735931288071 L 402.42640687119285 557.5735931288071 L 402.42640687119285 582.4264068711929 L 420 600 L 402.42640687119285 617.5735931288071 L 402.42640687119285 617.5735931288071 Z" stroke-linecap="round" stroke-miterlimit="10" stroke-dasharray=""/></g></g><g><g><path fill="none" stroke="#000000" paint-order="fill stroke markers" d=" M 402.42640687119285 737.5735931288071 L 402.42640687119285 762.4264068711929 L 377.57359312880715 762.4264068711929 L 360 780 L 342.42640687119285 762.4264068711929 L 317.57359312880715 762.4264068711929 L 317.57359312880715 737.5735931288071 L 300 720 L 317.57359312880715 702.4264068711929 L 317.57359312880715 677.5735931288071 L 342.42640687119285 677.5735931288071 L 360 660 L 377.57359312880715 677.5735931288071 L 402.42640687119285 677.5735931288071 L 402.42640687119285 702.4264068711929 L 420 720 L 402.42640687119285 737.5735931288071 L 402.42640687119285 737.5735931288071 Z" stroke-linecap="round" stroke-miterlimit="10" stroke-dasharray=""/></g></g><g><g><path fill="none" stroke="#000000" paint-order="fill stroke markers" d=" M 522.4264068711929 17.573593128807147 L 522.4264068711929 42.42640687119285 L 497.57359312880715 42.426406871192846 L 480 60 L 462.42640687119285 42.426406871192846 L 437.57359312880715 42.42640687119285 L 437.57359312880715 17.573593128807147 L 420 7.105427357601002e-15 L 437.57359312880715 -17.573593128807143 L 437.57359312880715 -42.42640687119285 L 462.42640687119285 -42.42640687119285 L 480 -60 L 497.57359312880715 -42.426406871192846 L 522.4264068711929 -42.42640687119284 L 522.4264068711929 -17.573593128807154 L 540 1.7763568394002505e-14 L 522.4264068711929 17.573593128807147 L 522.4264068711929 17.573593128807147 Z" stroke-linecap="round" stroke-miterlimit="10" stroke-dasharray=""/></g></g><g><g><path fill="none" stroke="#000000" paint-order="fill stroke markers" d=" M 522.4264068711929 137.57359312880715 L 522.4264068711929 162.42640687119285 L 497.57359312880715 162.42640687119285 L 480 180 L 462.42640687119285 162.42640687119285 L 437.57359312880715 162.42640687119285 L 437.57359312880715 137.57359312880715 L 420 120 L 437.57359312880715 102.42640687119285 L 437.57359312880715 77.57359312880715 L 462.42640687119285 77.57359312880715 L 480 60 L 497.57359312880715 77.57359312880715 L 522.4264068711929 77.57359312880716 L 522.4264068711929 102.42640687119285 L 540 120.00000000000001 L 522.4264068711929 137.57359312880715 L 522.4264068711929 137.57359312880715 Z" stroke-linecap="round" stroke-miterlimit="10" stroke-dasharray=""/></g></g><g><g><path fill="none" stroke="#000000" paint-order="fill stroke markers" d=" M 522.4264068711929 257.57359312880715 L 522.4264068711929 282.42640687119285 L 497.57359312880715 282.42640687119285 L 480 300 L 462.42640687119285 282.42640687119285 L 437.57359312880715 282.42640687119285 L 437.57359312880715 257.57359312880715 L 420 240 L 437.57359312880715 222.42640687119285 L 437.57359312880715 197.57359312880715 L 462.42640687119285 197.57359312880715 L 480 180 L 497.57359312880715 197.57359312880715 L 522.4264068711929 197.57359312880715 L 522.4264068711929 222.42640687119285 L 540 240.00000000000003 L 522.4264068711929 257.57359312880715 L 522.4264068711929 257.57359312880715 Z" stroke-linecap="round" stroke-miterlimit="10" stroke-dasharray=""/></g></g><g><g><path fill="none" stroke="#000000" paint-order="fill stroke markers" d=" M 522.4264068711929 377.57359312880715 L 522.4264068711929 402.42640687119285 L 497.57359312880715 402.42640687119285 L 480 420 L 462.42640687119285 402.42640687119285 L 437.57359312880715 402.42640687119285 L 437.57359312880715 377.57359312880715 L 420 360 L 437.57359312880715 342.42640687119285 L 437.57359312880715 317.57359312880715 L 462.42640687119285 317.57359312880715 L 480 300 L 497.57359312880715 317.57359312880715 L 522.4264068711929 317.57359312880715 L 522.4264068711929 342.42640687119285 L 540 360 L 522.4264068711929 377.57359312880715 L 522.4264068711929 377.57359312880715 Z" stroke-linecap="round" stroke-miterlimit="10" stroke-dasharray=""/></g></g><g><g><path fill="none" stroke="#000000" paint-order="fill stroke markers" d=" M 522.4264068711929 497.57359312880715 L 522.4264068711929 522.4264068711929 L 497.57359312880715 522.4264068711929 L 480 540 L 462.42640687119285 522.4264068711929 L 437.57359312880715 522.4264068711929 L 437.57359312880715 497.57359312880715 L 420 480 L 437.57359312880715 462.42640687119285 L 437.57359312880715 437.57359312880715 L 462.42640687119285 437.57359312880715 L 480 420 L 497.57359312880715 437.57359312880715 L 522.4264068711929 437.57359312880715 L 522.4264068711929 462.42640687119285 L 540 480 L 522.4264068711929 497.57359312880715 L 522.4264068711929 497.57359312880715 Z" stroke-linecap="round" stroke-miterlimit="10" stroke-dasharray=""/></g></g><g><g><path fill="none" stroke="#000000" paint-order="fill stroke markers" d=" M 522.4264068711929 617.5735931288071 L 522.4264068711929 642.4264068711929 L 497.57359312880715 642.4264068711929 L 480 660 L 462.42640687119285 642.4264068711929 L 437.57359312880715 642.4264068711929 L 437.57359312880715 617.5735931288071 L 420 600 L 437.57359312880715 582.4264068711929 L 437.57359312880715 557.5735931288071 L 462.42640687119285 557.5735931288071 L 480 540 L 497.57359312880715 557.5735931288071 L 522.4264068711929 557.5735931288071 L 522.4264068711929 582.4264068711929 L 540 600 L 522.4264068711929 617.5735931288071 L 522.4264068711929 617.5735931288071 Z" stroke-linecap="round" stroke-miterlimit="10" stroke-dasharray=""/></g></g><g><g><path fill="none" stroke="#000000" paint-order="fill stroke markers" d=" M 522.4264068711929 737.5735931288071 L 522.4264068711929 762.4264068711929 L 497.57359312880715 762.4264068711929 L 480 780 L 462.42640687119285 762.4264068711929 L 437.57359312880715 762.4264068711929 L 437.57359312880715 737.5735931288071 L 420 720 L 437.57359312880715 702.4264068711929 L 437.57359312880715 677.5735931288071 L 462.42640687119285 677.5735931288071 L 480 660 L 497.57359312880715 677.5735931288071 L 522.4264068711929 677.5735931288071 L 522.4264068711929 702.4264068711929 L 540 720 L 522.4264068711929 737.5735931288071 L 522.4264068711929 737.5735931288071 Z" stroke-linecap="round" stroke-miterlimit="10" stroke-dasharray=""/></g></g><g><g><path fill="none" stroke="#000000" paint-order="fill stroke markers" d=" M 642.4264068711929 17.573593128807147 L 642.4264068711929 42.42640687119285 L 617.5735931288071 42.426406871192846 L 600 60 L 582.4264068711929 42.426406871192846 L 557.5735931288071 42.42640687119285 L 557.5735931288071 17.573593128807147 L 540 7.105427357601002e-15 L 557.5735931288071 -17.573593128807143 L 557.5735931288071 -42.42640687119285 L 582.4264068711929 -42.42640687119285 L 600 -60 L 617.5735931288071 -42.426406871192846 L 642.4264068711929 -42.42640687119284 L 642.4264068711929 -17.573593128807154 L 660 1.7763568394002505e-14 L 642.4264068711929 17.573593128807147 L 642.4264068711929 17.573593128807147 Z" stroke-linecap="round" stroke-miterlimit="10" stroke-dasharray=""/></g></g><g><g><path fill="none" stroke="#000000" paint-order="fill stroke markers" d=" M 642.4264068711929 137.57359312880715 L 642.4264068711929 162.42640687119285 L 617.5735931288071 162.42640687119285 L 600 180 L 582.4264068711929 162.42640687119285 L 557.5735931288071 162.42640687119285 L 557.5735931288071 137.57359312880715 L 540 120 L 557.5735931288071 102.42640687119285 L 557.5735931288071 77.57359312880715 L 582.4264068711929 77.57359312880715 L 600 60 L 617.5735931288071 77.57359312880715 L 642.4264068711929 77.57359312880716 L 642.4264068711929 102.42640687119285 L 660 120.00000000000001 L 642.4264068711929 137.57359312880715 L 642.4264068711929 137.57359312880715 Z" stroke-linecap="round" stroke-miterlimit="10" stroke-dasharray=""/></g></g><g><g><path fill="none" stroke="#000000" paint-order="fill stroke markers" d=" M 642.4264068711929 257.57359312880715 L 642.4264068711929 282.42640687119285 L 617.5735931288071 282.42640687119285 L 600 300 L 582.4264068711929 282.42640687119285 L 557.5735931288071 282.42640687119285 L 557.5735931288071 257.57359312880715 L 540 240 L 557.5735931288071 222.42640687119285 L 557.5735931288071 197.57359312880715 L 582.4264068711929 197.57359312880715 L 600 180 L 617.5735931288071 197.57359312880715 L 642.4264068711929 197.57359312880715 L 642.4264068711929 222.42640687119285 L 660 240.00000000000003 L 642.4264068711929 257.57359312880715 L 642.4264068711929 257.57359312880715 Z" stroke-linecap="round" stroke-miterlimit="10" stroke-dasharray=""/></g></g><g><g><path fill="none" stroke="#000000" paint-order="fill stroke markers" d=" M 642.4264068711929 377.57359312880715 L 642.4264068711929 402.42640687119285 L 617.5735931288071 402.42640687119285 L 600 420 L 582.4264068711929 402.42640687119285 L 557.5735931288071 402.42640687119285 L 557.5735931288071 377.57359312880715 L 540 360 L 557.5735931288071 342.42640687119285 L 557.5735931288071 317.57359312880715 L 582.4264068711929 317.57359312880715 L 600 300 L 617.5735931288071 317.57359312880715 L 642.4264068711929 317.57359312880715 L 642.4264068711929 342.42640687119285 L 660 360 L 642.4264068711929 377.57359312880715 L 642.4264068711929 377.57359312880715 Z" stroke-linecap="round" stroke-miterlimit="10" stroke-dasharray=""/></g></g><g><g><path fill="none" stroke="#000000" paint-order="fill stroke markers" d=" M 642.4264068711929 497.57359312880715 L 642.4264068711929 522.4264068711929 L 617.5735931288071 522.4264068711929 L 600 540 L 582.4264068711929 522.4264068711929 L 557.5735931288071 522.4264068711929 L 557.5735931288071 497.57359312880715 L 540 480 L 557.5735931288071 462.42640687119285 L 557.5735931288071 437.57359312880715 L 582.4264068711929 437.57359312880715 L 600 420 L 617.5735931288071 437.57359312880715 L 642.4264068711929 437.57359312880715 L 642.4264068711929 462.42640687119285 L 660 480 L 642.4264068711929 497.57359312880715 L 642.4264068711929 497.57359312880715 Z" stroke-linecap="round" stroke-miterlimit="10" stroke-dasharray=""/></g></g><g><g><path fill="none" stroke="#000000" paint-order="fill stroke markers" d=" M 642.4264068711929 617.5735931288071 L 642.4264068711929 642.4264068711929 L 617.5735931288071 642.4264068711929 L 600 660 L 582.4264068711929 642.4264068711929 L 557.5735931288071 642.4264068711929 L 557.5735931288071 617.5735931288071 L 540 600 L 557.5735931288071 582.4264068711929 L 557.5735931288071 557.5735931288071 L 582.4264068711929 557.5735931288071 L 600 540 L 617.5735931288071 557.5735931288071 L 642.4264068711929 557.5735931288071 L 642.4264068711929 582.4264068711929 L 660 600 L 642.4264068711929 617.5735931288071 L 642.4264068711929 617.5735931288071 Z" stroke-linecap="round" stroke-miterlimit="10" stroke-dasharray=""/></g></g><g><g><path fill="none" stroke="#000000" paint-order="fill stroke markers" d=" M 642.4264068711929 737.5735931288071 L 642.4264068711929 762.4264068711929 L 617.5735931288071 762.4264068711929 L 600 780 L 582.4264068711929 762.4264068711929 L 557.5735931288071 762.4264068711929 L 557.5735931288071 737.5735931288071 L 540 720 L 557.5735931288071 702.4264068711929 L 557.5735931288071 677.5735931288071 L 582.4264068711929 677.5735931288071 L 600 660 L 617.5735931288071 677.5735931288071 L 642.4264068711929 677.5735931288071 L 642.4264068711929 702.4264068711929 L 660 720 L 642.4264068711929 737.5735931288071 L 642.4264068711929 737.5735931288071 Z" stroke-linecap="round" stroke-miterlimit="10" stroke-dasharray=""/></g></g><g><g><path fill="none" stroke="#000000" paint-order="fill stroke markers" d=" M 762.4264068711929 17.573593128807147 L 762.4264068711929 42.42640687119285 L 737.5735931288071 42.426406871192846 L 720 60 L 702.4264068711929 42.426406871192846 L 677.5735931288071 42.42640687119285 L 677.5735931288071 17.573593128807147 L 660 7.105427357601002e-15 L 677.5735931288071 -17.573593128807143 L 677.5735931288071 -42.42640687119285 L 702.4264068711929 -42.42640687119285 L 720 -60 L 737.5735931288071 -42.426406871192846 L 762.4264068711929 -42.42640687119284 L 762.4264068711929 -17.573593128807154 L 780 1.7763568394002505e-14 L 762.4264068711929 17.573593128807147 L 762.4264068711929 17.573593128807147 Z" stroke-linecap="round" stroke-miterlimit="10" stroke-dasharray=""/></g></g><g><g><path fill="none" stroke="#000000" paint-order="fill stroke markers" d=" M 762.4264068711929 137.57359312880715 L 762.4264068711929 162.42640687119285 L 737.5735931288071 162.42640687119285 L 720 180 L 702.4264068711929 162.42640687119285 L 677.5735931288071 162.42640687119285 L 677.5735931288071 137.57359312880715 L 660 120 L 677.5735931288071 102.42640687119285 L 677.5735931288071 77.57359312880715 L 702.4264068711929 77.57359312880715 L 720 60 L 737.5735931288071 77.57359312880715 L 762.4264068711929 77.57359312880716 L 762.4264068711929 102.42640687119285 L 780 120.00000000000001 L 762.4264068711929 137.57359312880715 L 762.4264068711929 137.57359312880715 Z" stroke-linecap="round" stroke-miterlimit="10" stroke-dasharray=""/></g></g><g><g><path fill="none" stroke="#000000" paint-order="fill stroke markers" d=" M 762.4264068711929 257.57359312880715 L 762.4264068711929 282.42640687119285 L 737.5735931288071 282.42640687119285 L 720 300 L 702.4264068711929 282.42640687119285 L 677.5735931288071 282.42640687119285 L 677.5735931288071 257.57359312880715 L 660 240 L 677.5735931288071 222.42640687119285 L 677.5735931288071 197.57359312880715 L 702.4264068711929 197.57359312880715 L 720 180 L 737.5735931288071 197.57359312880715 L 762.4264068711929 197.57359312880715 L 762.4264068711929 222.42640687119285 L 780 240.00000000000003 L 762.4264068711929 257.57359312880715 L 762.4264068711929 257.57359312880715 Z" stroke-linecap="round" stroke-miterlimit="10" stroke-dasharray=""/></g></g><g><g><path fill="none" stroke="#000000" paint-order="fill stroke markers" d=" M 762.4264068711929 377.57359312880715 L 762.4264068711929 402.42640687119285 L 737.5735931288071 402.42640687119285 L 720 420 L 702.4264068711929 402.42640687119285 L 677.5735931288071 402.42640687119285 L 677.5735931288071 377.57359312880715 L 660 360 L 677.5735931288071 342.42640687119285 L 677.5735931288071 317.57359312880715 L 702.4264068711929 317.57359312880715 L 720 300 L 737.5735931288071 317.57359312880715 L 762.4264068711929 317.57359312880715 L 762.4264068711929 342.42640687119285 L 780 360 L 762.4264068711929 377.57359312880715 L 762.4264068711929 377.57359312880715 Z" stroke-linecap="round" stroke-miterlimit="10" stroke-dasharray=""/></g></g><g><g><path fill="none" stroke="#000000" paint-order="fill stroke markers" d=" M 762.4264068711929 497.57359312880715 L 762.4264068711929 522.4264068711929 L 737.5735931288071 522.4264068711929 L 720 540 L 702.4264068711929 522.4264068711929 L 677.5735931288071 522.4264068711929 L 677.5735931288071 497.57359312880715 L 660 480 L 677.5735931288071 462.42640687119285 L 677.5735931288071 437.57359312880715 L 702.4264068711929 437.57359312880715 L 720 420 L 737.5735931288071 437.57359312880715 L 762.4264068711929 437.57359312880715 L 762.4264068711929 462.42640687119285 L 780 480 L 762.4264068711929 497.57359312880715 L 762.4264068711929 497.57359312880715 Z" stroke-linecap="round" stroke-miterlimit="10" stroke-dasharray=""/></g></g><g><g><path fill="none" stroke="#000000" paint-order="fill stroke markers" d=" M 762.4264068711929 617.5735931288071 L 762.4264068711929 642.4264068711929 L 737.5735931288071 642.4264068711929 L 720 660 L 702.4264068711929 642.4264068711929 L 677.5735931288071 642.4264068711929 L 677.5735931288071 617.5735931288071 L 660 600 L 677.5735931288071 582.4264068711929 L 677.5735931288071 557.5735931288071 L 702.4264068711929 557.5735931288071 L 720 540 L 737.5735931288071 557.5735931288071 L 762.4264068711929 557.5735931288071 L 762.4264068711929 582.4264068711929 L 780 600 L 762.4264068711929 617.5735931288071 L 762.4264068711929 617.5735931288071 Z" stroke-linecap="round" stroke-miterlimit="10" stroke-dasharray=""/></g></g><g><g><path fill="none" stroke="#000000" paint-order="fill stroke markers" d=" M 762.4264068711929 737.5735931288071 L 762.4264068711929 762.4264068711929 L 737.5735931288071 762.4264068711929 L 720 780 L 702.4264068711929 762.4264068711929 L 677.5735931288071 762.4264068711929 L 677.5735931288071 737.5735931288071 L 660 720 L 677.5735931288071 702.4264068711929 L 677.5735931288071 677.5735931288071 L 702.4264068711929 677.5735931288071 L 720 660 L 737.5735931288071 677.5735931288071 L 762.4264068711929 677.5735931288071 L 762.4264068711929 702.4264068711929 L 780 720 L 762.4264068711929 737.5735931288071 L 762.4264068711929 737.5735931288071 Z" stroke-linecap="round" stroke-miterlimit="10" stroke-dasharray=""/></g></g></g></svg>