<?xml version="1.0" encoding="utf-8"?>
<!-- Generator: Adobe Illustrator 27.7.0, SVG Export Plug-In . SVG Version: 6.00 Build 0)  -->
<svg version="1.1" xmlns="http://www.w3.org/2000/svg" xmlns:xlink="http://www.w3.org/1999/xlink" x="0px" y="0px"
	 viewBox="0 0 800 800" style="enable-background:new 0 0 800 800;" xml:space="preserve">
<style type="text/css">
	.st0{fill:#FFFFFF;}
	.st1{fill:none;stroke:#000000;stroke-linecap:round;stroke-miterlimit:10;}
</style>
<g id="Layer_2">
	<rect class="st0" width="800" height="800"/>
</g>
<g id="Layer_1">
	<g>
		<g>
			<g>
				<path class="st1" d="M42.4,17.6v24.9H17.6L0,60l-17.6-17.6h-24.9V17.6L-60,0l17.6-17.6v-24.9h24.9L0-60l17.6,17.6h24.9v24.9
					L60,0L42.4,17.6L42.4,17.6z"/>
			</g>
		</g>
		<g>
			<g>
				<path class="st1" d="M42.4,137.6v24.9H17.6L0,180l-17.6-17.6h-24.9v-24.9L-60,120l17.6-17.6V77.6h24.9L0,60l17.6,17.6h24.9v24.9
					L60,120L42.4,137.6L42.4,137.6z"/>
			</g>
		</g>
		<g>
			<g>
				<path class="st1" d="M42.4,257.6v24.9H17.6L0,300l-17.6-17.6h-24.9v-24.9L-60,240l17.6-17.6v-24.9h24.9L0,180l17.6,17.6h24.9
					v24.9L60,240L42.4,257.6L42.4,257.6z"/>
			</g>
		</g>
		<g>
			<g>
				<path class="st1" d="M42.4,377.6v24.9H17.6L0,420l-17.6-17.6h-24.9v-24.9L-60,360l17.6-17.6v-24.9h24.9L0,300l17.6,17.6h24.9
					v24.9L60,360L42.4,377.6L42.4,377.6z"/>
			</g>
		</g>
		<g>
			<g>
				<path class="st1" d="M42.4,497.6v24.9H17.6L0,540l-17.6-17.6h-24.9v-24.9L-60,480l17.6-17.6v-24.9h24.9L0,420l17.6,17.6h24.9
					v24.9L60,480L42.4,497.6L42.4,497.6z"/>
			</g>
		</g>
		<g>
			<g>
				<path class="st1" d="M42.4,617.6v24.9H17.6L0,660l-17.6-17.6h-24.9v-24.9L-60,600l17.6-17.6v-24.9h24.9L0,540l17.6,17.6h24.9
					v24.9L60,600L42.4,617.6L42.4,617.6z"/>
			</g>
		</g>
		<g>
			<g>
				<path class="st1" d="M42.4,737.6v24.9H17.6L0,780l-17.6-17.6h-24.9v-24.9L-60,720l17.6-17.6v-24.9h24.9L0,660l17.6,17.6h24.9
					v24.9L60,720L42.4,737.6L42.4,737.6z"/>
			</g>
		</g>
		<g>
			<g>
				<path class="st1" d="M162.4,17.6v24.9h-24.9L120,60l-17.6-17.6H77.6V17.6L60,0l17.6-17.6v-24.9h24.9L120-60l17.6,17.6h24.9v24.9
					L180,0L162.4,17.6L162.4,17.6z"/>
			</g>
		</g>
		<g>
			<g>
				<path class="st1" d="M162.4,137.6v24.9h-24.9L120,180l-17.6-17.6H77.6v-24.9L60,120l17.6-17.6V77.6h24.9L120,60l17.6,17.6h24.9
					v24.9L180,120L162.4,137.6L162.4,137.6z"/>
			</g>
		</g>
		<g>
			<g>
				<path class="st1" d="M162.4,257.6v24.9h-24.9L120,300l-17.6-17.6H77.6v-24.9L60,240l17.6-17.6v-24.9h24.9L120,180l17.6,17.6
					h24.9v24.9L180,240L162.4,257.6L162.4,257.6z"/>
			</g>
		</g>
		<g>
			<g>
				<path class="st1" d="M162.4,377.6v24.9h-24.9L120,420l-17.6-17.6H77.6v-24.9L60,360l17.6-17.6v-24.9h24.9L120,300l17.6,17.6
					h24.9v24.9L180,360L162.4,377.6L162.4,377.6z"/>
			</g>
		</g>
		<g>
			<g>
				<path class="st1" d="M162.4,497.6v24.9h-24.9L120,540l-17.6-17.6H77.6v-24.9L60,480l17.6-17.6v-24.9h24.9L120,420l17.6,17.6
					h24.9v24.9L180,480L162.4,497.6L162.4,497.6z"/>
			</g>
		</g>
		<g>
			<g>
				<path class="st1" d="M162.4,617.6v24.9h-24.9L120,660l-17.6-17.6H77.6v-24.9L60,600l17.6-17.6v-24.9h24.9L120,540l17.6,17.6
					h24.9v24.9L180,600L162.4,617.6L162.4,617.6z"/>
			</g>
		</g>
		<g>
			<g>
				<path class="st1" d="M162.4,737.6v24.9h-24.9L120,780l-17.6-17.6H77.6v-24.9L60,720l17.6-17.6v-24.9h24.9L120,660l17.6,17.6
					h24.9v24.9L180,720L162.4,737.6L162.4,737.6z"/>
			</g>
		</g>
		<g>
			<g>
				<path class="st1" d="M282.4,17.6v24.9h-24.9L240,60l-17.6-17.6h-24.9V17.6L180,0l17.6-17.6v-24.9h24.9L240-60l17.6,17.6h24.9
					v24.9L300,0L282.4,17.6L282.4,17.6z"/>
			</g>
		</g>
		<g>
			<g>
				<path class="st1" d="M282.4,137.6v24.9h-24.9L240,180l-17.6-17.6h-24.9v-24.9L180,120l17.6-17.6V77.6h24.9L240,60l17.6,17.6
					h24.9v24.9L300,120L282.4,137.6L282.4,137.6z"/>
			</g>
		</g>
		<g>
			<g>
				<path class="st1" d="M282.4,257.6v24.9h-24.9L240,300l-17.6-17.6h-24.9v-24.9L180,240l17.6-17.6v-24.9h24.9L240,180l17.6,17.6
					h24.9v24.9L300,240L282.4,257.6L282.4,257.6z"/>
			</g>
		</g>
		<g>
			<g>
				<path class="st1" d="M282.4,377.6v24.9h-24.9L240,420l-17.6-17.6h-24.9v-24.9L180,360l17.6-17.6v-24.9h24.9L240,300l17.6,17.6
					h24.9v24.9L300,360L282.4,377.6L282.4,377.6z"/>
			</g>
		</g>
		<g>
			<g>
				<path class="st1" d="M282.4,497.6v24.9h-24.9L240,540l-17.6-17.6h-24.9v-24.9L180,480l17.6-17.6v-24.9h24.9L240,420l17.6,17.6
					h24.9v24.9L300,480L282.4,497.6L282.4,497.6z"/>
			</g>
		</g>
		<g>
			<g>
				<path class="st1" d="M282.4,617.6v24.9h-24.9L240,660l-17.6-17.6h-24.9v-24.9L180,600l17.6-17.6v-24.9h24.9L240,540l17.6,17.6
					h24.9v24.9L300,600L282.4,617.6L282.4,617.6z"/>
			</g>
		</g>
		<g>
			<g>
				<path class="st1" d="M282.4,737.6v24.9h-24.9L240,780l-17.6-17.6h-24.9v-24.9L180,720l17.6-17.6v-24.9h24.9L240,660l17.6,17.6
					h24.9v24.9L300,720L282.4,737.6L282.4,737.6z"/>
			</g>
		</g>
		<g>
			<g>
				<path class="st1" d="M402.4,17.6v24.9h-24.9L360,60l-17.6-17.6h-24.9V17.6L300,0l17.6-17.6v-24.9h24.9L360-60l17.6,17.6h24.9
					v24.9L420,0L402.4,17.6L402.4,17.6z"/>
			</g>
		</g>
		<g>
			<g>
				<path class="st1" d="M402.4,137.6v24.9h-24.9L360,180l-17.6-17.6h-24.9v-24.9L300,120l17.6-17.6V77.6h24.9L360,60l17.6,17.6
					h24.9v24.9L420,120L402.4,137.6L402.4,137.6z"/>
			</g>
		</g>
		<g>
			<g>
				<path class="st1" d="M402.4,257.6v24.9h-24.9L360,300l-17.6-17.6h-24.9v-24.9L300,240l17.6-17.6v-24.9h24.9L360,180l17.6,17.6
					h24.9v24.9L420,240L402.4,257.6L402.4,257.6z"/>
			</g>
		</g>
		<g>
			<g>
				<path class="st1" d="M402.4,377.6v24.9h-24.9L360,420l-17.6-17.6h-24.9v-24.9L300,360l17.6-17.6v-24.9h24.9L360,300l17.6,17.6
					h24.9v24.9L420,360L402.4,377.6L402.4,377.6z"/>
			</g>
		</g>
		<g>
			<g>
				<path class="st1" d="M402.4,497.6v24.9h-24.9L360,540l-17.6-17.6h-24.9v-24.9L300,480l17.6-17.6v-24.9h24.9L360,420l17.6,17.6
					h24.9v24.9L420,480L402.4,497.6L402.4,497.6z"/>
			</g>
		</g>
		<g>
			<g>
				<path class="st1" d="M402.4,617.6v24.9h-24.9L360,660l-17.6-17.6h-24.9v-24.9L300,600l17.6-17.6v-24.9h24.9L360,540l17.6,17.6
					h24.9v24.9L420,600L402.4,617.6L402.4,617.6z"/>
			</g>
		</g>
		<g>
			<g>
				<path class="st1" d="M402.4,737.6v24.9h-24.9L360,780l-17.6-17.6h-24.9v-24.9L300,720l17.6-17.6v-24.9h24.9L360,660l17.6,17.6
					h24.9v24.9L420,720L402.4,737.6L402.4,737.6z"/>
			</g>
		</g>
		<g>
			<g>
				<path class="st1" d="M522.4,17.6v24.9h-24.9L480,60l-17.6-17.6h-24.9V17.6L420,0l17.6-17.6v-24.9h24.9L480-60l17.6,17.6h24.9
					v24.9L540,0L522.4,17.6L522.4,17.6z"/>
			</g>
		</g>
		<g>
			<g>
				<path class="st1" d="M522.4,137.6v24.9h-24.9L480,180l-17.6-17.6h-24.9v-24.9L420,120l17.6-17.6V77.6h24.9L480,60l17.6,17.6
					h24.9v24.9L540,120L522.4,137.6L522.4,137.6z"/>
			</g>
		</g>
		<g>
			<g>
				<path class="st1" d="M522.4,257.6v24.9h-24.9L480,300l-17.6-17.6h-24.9v-24.9L420,240l17.6-17.6v-24.9h24.9L480,180l17.6,17.6
					h24.9v24.9L540,240L522.4,257.6L522.4,257.6z"/>
			</g>
		</g>
		<g>
			<g>
				<path class="st1" d="M522.4,377.6v24.9h-24.9L480,420l-17.6-17.6h-24.9v-24.9L420,360l17.6-17.6v-24.9h24.9L480,300l17.6,17.6
					h24.9v24.9L540,360L522.4,377.6L522.4,377.6z"/>
			</g>
		</g>
		<g>
			<g>
				<path class="st1" d="M522.4,497.6v24.9h-24.9L480,540l-17.6-17.6h-24.9v-24.9L420,480l17.6-17.6v-24.9h24.9L480,420l17.6,17.6
					h24.9v24.9L540,480L522.4,497.6L522.4,497.6z"/>
			</g>
		</g>
		<g>
			<g>
				<path class="st1" d="M522.4,617.6v24.9h-24.9L480,660l-17.6-17.6h-24.9v-24.9L420,600l17.6-17.6v-24.9h24.9L480,540l17.6,17.6
					h24.9v24.9L540,600L522.4,617.6L522.4,617.6z"/>
			</g>
		</g>
		<g>
			<g>
				<path class="st1" d="M522.4,737.6v24.9h-24.9L480,780l-17.6-17.6h-24.9v-24.9L420,720l17.6-17.6v-24.9h24.9L480,660l17.6,17.6
					h24.9v24.9L540,720L522.4,737.6L522.4,737.6z"/>
			</g>
		</g>
		<g>
			<g>
				<path class="st1" d="M642.4,17.6v24.9h-24.9L600,60l-17.6-17.6h-24.9V17.6L540,0l17.6-17.6v-24.9h24.9L600-60l17.6,17.6h24.9
					v24.9L660,0L642.4,17.6L642.4,17.6z"/>
			</g>
		</g>
		<g>
			<g>
				<path class="st1" d="M642.4,137.6v24.9h-24.9L600,180l-17.6-17.6h-24.9v-24.9L540,120l17.6-17.6V77.6h24.9L600,60l17.6,17.6
					h24.9v24.9L660,120L642.4,137.6L642.4,137.6z"/>
			</g>
		</g>
		<g>
			<g>
				<path class="st1" d="M642.4,257.6v24.9h-24.9L600,300l-17.6-17.6h-24.9v-24.9L540,240l17.6-17.6v-24.9h24.9L600,180l17.6,17.6
					h24.9v24.9L660,240L642.4,257.6L642.4,257.6z"/>
			</g>
		</g>
		<g>
			<g>
				<path class="st1" d="M642.4,377.6v24.9h-24.9L600,420l-17.6-17.6h-24.9v-24.9L540,360l17.6-17.6v-24.9h24.9L600,300l17.6,17.6
					h24.9v24.9L660,360L642.4,377.6L642.4,377.6z"/>
			</g>
		</g>
		<g>
			<g>
				<path class="st1" d="M642.4,497.6v24.9h-24.9L600,540l-17.6-17.6h-24.9v-24.9L540,480l17.6-17.6v-24.9h24.9L600,420l17.6,17.6
					h24.9v24.9L660,480L642.4,497.6L642.4,497.6z"/>
			</g>
		</g>
		<g>
			<g>
				<path class="st1" d="M642.4,617.6v24.9h-24.9L600,660l-17.6-17.6h-24.9v-24.9L540,600l17.6-17.6v-24.9h24.9L600,540l17.6,17.6
					h24.9v24.9L660,600L642.4,617.6L642.4,617.6z"/>
			</g>
		</g>
		<g>
			<g>
				<path class="st1" d="M642.4,737.6v24.9h-24.9L600,780l-17.6-17.6h-24.9v-24.9L540,720l17.6-17.6v-24.9h24.9L600,660l17.6,17.6
					h24.9v24.9L660,720L642.4,737.6L642.4,737.6z"/>
			</g>
		</g>
		<g>
			<g>
				<path class="st1" d="M762.4,17.6v24.9h-24.9L720,60l-17.6-17.6h-24.9V17.6L660,0l17.6-17.6v-24.9h24.9L720-60l17.6,17.6h24.9
					v24.9L780,0L762.4,17.6L762.4,17.6z"/>
			</g>
		</g>
		<g>
			<g>
				<path class="st1" d="M762.4,137.6v24.9h-24.9L720,180l-17.6-17.6h-24.9v-24.9L660,120l17.6-17.6V77.6h24.9L720,60l17.6,17.6
					h24.9v24.9L780,120L762.4,137.6L762.4,137.6z"/>
			</g>
		</g>
		<g>
			<g>
				<path class="st1" d="M762.4,257.6v24.9h-24.9L720,300l-17.6-17.6h-24.9v-24.9L660,240l17.6-17.6v-24.9h24.9L720,180l17.6,17.6
					h24.9v24.9L780,240L762.4,257.6L762.4,257.6z"/>
			</g>
		</g>
		<g>
			<g>
				<path class="st1" d="M762.4,377.6v24.9h-24.9L720,420l-17.6-17.6h-24.9v-24.9L660,360l17.6-17.6v-24.9h24.9L720,300l17.6,17.6
					h24.9v24.9L780,360L762.4,377.6L762.4,377.6z"/>
			</g>
		</g>
		<g>
			<g>
				<path class="st1" d="M762.4,497.6v24.9h-24.9L720,540l-17.6-17.6h-24.9v-24.9L660,480l17.6-17.6v-24.9h24.9L720,420l17.6,17.6
					h24.9v24.9L780,480L762.4,497.6L762.4,497.6z"/>
			</g>
		</g>
		<g>
			<g>
				<path class="st1" d="M762.4,617.6v24.9h-24.9L720,660l-17.6-17.6h-24.9v-24.9L660,600l17.6-17.6v-24.9h24.9L720,540l17.6,17.6
					h24.9v24.9L780,600L762.4,617.6L762.4,617.6z"/>
			</g>
		</g>
		<g>
			<g>
				<path class="st1" d="M762.4,737.6v24.9h-24.9L720,780l-17.6-17.6h-24.9v-24.9L660,720l17.6-17.6v-24.9h24.9L720,660l17.6,17.6
					h24.9v24.9L780,720L762.4,737.6L762.4,737.6z"/>
			</g>
		</g>
	</g>
</g>
</svg>
