<?xml version="1.0" encoding="utf-8"?>
<!-- Generator: Adobe Illustrator 27.7.0, SVG Export Plug-In . SVG Version: 6.00 Build 0)  -->
<svg version="1.1" xmlns="http://www.w3.org/2000/svg" xmlns:xlink="http://www.w3.org/1999/xlink" x="0px" y="0px"
	 viewBox="0 0 400 400" style="enable-background:new 0 0 400 400;" xml:space="preserve">
<style type="text/css">
	.st0{fill:#FFFFFF;}
	.st1{fill:none;stroke:#000000;stroke-linecap:round;stroke-miterlimit:10;}
</style>
<g id="Layer_2">
	<rect class="st0" width="400" height="400"/>
</g>
<g id="Layer_1">
	<g>
		<g>
			<g>
				<g>
					<path class="st1" d="M279.7,227.6l15.9,27.6h31.9l-47.8-82.9"/>
					<g>
						<path class="st1" d="M279.7,227.6l-15.9,27.6h-31.9l47.8-82.9"/>
					</g>
				</g>
			</g>
			<g>
				<g>
					<path class="st1" d="M215.9,282.9L200,310.5l15.9,27.6l47.8-82.9"/>
					<g>
						<path class="st1" d="M215.9,282.9h-31.9l-15.9-27.6h95.7"/>
					</g>
				</g>
			</g>
			<g>
				<g>
					<path class="st1" d="M136.2,255.2h-31.9l-15.9,27.6h95.7"/>
					<g>
						<path class="st1" d="M136.2,255.2l-15.9-27.6l15.9-27.6l47.8,82.9"/>
					</g>
				</g>
			</g>
			<g>
				<g>
					<path class="st1" d="M120.3,172.4l-15.9-27.6H72.4l47.8,82.9"/>
					<g>
						<path class="st1" d="M120.3,172.4l15.9-27.6h31.9l-47.8,82.9"/>
					</g>
				</g>
			</g>
			<g>
				<g>
					<path class="st1" d="M184.1,117.1L200,89.5l-15.9-27.6l-47.8,82.9"/>
					<g>
						<path class="st1" d="M184.1,117.1h31.9l15.9,27.6h-95.7"/>
					</g>
				</g>
			</g>
			<g>
				<g>
					<path class="st1" d="M263.8,144.8h31.9l15.9-27.6h-95.7"/>
					<g>
						<path class="st1" d="M263.8,144.8l15.9,27.6L263.8,200l-47.8-82.9"/>
					</g>
				</g>
			</g>
		</g>
	</g>
</g>
</svg>
