<?xml version="1.0" encoding="utf-8"?>
<!-- Generator: Adobe Illustrator 27.7.0, SVG Export Plug-In . SVG Version: 6.00 Build 0)  -->
<svg version="1.1" xmlns="http://www.w3.org/2000/svg" xmlns:xlink="http://www.w3.org/1999/xlink" x="0px" y="0px"
	 viewBox="0 0 400 400" style="enable-background:new 0 0 400 400;" xml:space="preserve">
<style type="text/css">
	.st0{fill:#FFFFFF;}
	.st1{fill:none;stroke:#000000;stroke-linecap:round;stroke-miterlimit:10;}
</style>
<g id="Layer_2">
	<rect class="st0" width="400" height="400"/>
</g>
<g id="Layer_1">
	<g>
		<g>
			<g>
				<path class="st1" d="M228.1,209.1v11.3l-10.7,3.5l-6.6,9.1l-10.7-3.5l-10.7,3.5l-6.6-9.1l-10.7-3.5v-11.3l-6.6-9.1l6.6-9.1
					v-11.3l10.7-3.5l6.6-9.1l10.7,3.5l10.7-3.5l6.6,9.1l10.7,3.5v11.3l6.6,9.1L228.1,209.1L228.1,209.1z"/>
			</g>
			<g>
				<path class="st1" d="M165.3,200l-32.2,44.3l-52-16.9v-54.7l52-16.9L165.3,200L165.3,200z"/>
			</g>
			<g>
				<path class="st1" d="M171.9,179.6l-52,16.9l-32.2-44.3l32.2-44.3l52,16.9V179.6L171.9,179.6z"/>
			</g>
			<g>
				<path class="st1" d="M189.3,167l-52-16.9V95.4l52-16.9l32.2,44.3L189.3,167L189.3,167z"/>
			</g>
			<g>
				<path class="st1" d="M210.7,167l-32.2-44.3l32.2-44.3l52,16.9v54.7L210.7,167L210.7,167z"/>
			</g>
			<g>
				<path class="st1" d="M228.1,179.6v-54.7l52-16.9l32.2,44.3l-32.2,44.3L228.1,179.6L228.1,179.6z"/>
			</g>
			<g>
				<path class="st1" d="M234.7,200l32.2-44.3l52,16.9v54.7l-52,16.9L234.7,200L234.7,200z"/>
			</g>
			<g>
				<path class="st1" d="M228.1,220.4l52-16.9l32.2,44.3L280.1,292l-52-16.9V220.4L228.1,220.4z"/>
			</g>
			<g>
				<path class="st1" d="M210.7,233l52,16.9v54.7l-52,16.9l-32.2-44.3L210.7,233L210.7,233z"/>
			</g>
			<g>
				<path class="st1" d="M189.3,233l32.2,44.3l-32.2,44.3l-52-16.9v-54.7L189.3,233L189.3,233z"/>
			</g>
			<g>
				<path class="st1" d="M171.9,220.4v54.7l-52,16.9l-32.2-44.3l32.2-44.3L171.9,220.4L171.9,220.4z"/>
			</g>
			<g>
				<path class="st1" d="M262.8,220.4l-24,33L200,266l-38.8-12.6l-24-33v-40.8l24-33L200,134l38.8,12.6l24,33V220.4L262.8,220.4z"/>
			</g>
			<g>
				<path class="st1" d="M200,111.5l28.1-9.1V75"/>
				<g>
					<path class="st1" d="M200,111.5l-28.1-9.1V75"/>
				</g>
			</g>
			<g>
				<path class="st1" d="M252,128.4l28.1,9.1l16.1-22.1"/>
				<g>
					<path class="st1" d="M252,128.4l-17.3-23.9l16.1-22.1"/>
				</g>
			</g>
			<g>
				<path class="st1" d="M284.2,172.6l17.3,23.9l26-8.5"/>
				<g>
					<path class="st1" d="M284.2,172.6v-29.5l26-8.5"/>
				</g>
			</g>
			<g>
				<path class="st1" d="M284.2,227.4v29.5l26,8.5"/>
				<g>
					<path class="st1" d="M284.2,227.4l17.3-23.9l26,8.5"/>
				</g>
			</g>
			<g>
				<path class="st1" d="M252,271.6l-17.3,23.9l16.1,22.1"/>
				<g>
					<path class="st1" d="M252,271.6l28.1-9.1l16.1,22.1"/>
				</g>
			</g>
			<g>
				<path class="st1" d="M200,288.5l-28.1,9.1V325"/>
				<g>
					<path class="st1" d="M200,288.5l28.1,9.1V325"/>
				</g>
			</g>
			<g>
				<path class="st1" d="M148,271.6l-28.1-9.1l-16.1,22.1"/>
				<g>
					<path class="st1" d="M148,271.6l17.3,23.9l-16.1,22.1"/>
				</g>
			</g>
			<g>
				<path class="st1" d="M115.8,227.4l-17.3-23.9l-26,8.5"/>
				<g>
					<path class="st1" d="M115.8,227.4v29.5l-26,8.5"/>
				</g>
			</g>
			<g>
				<path class="st1" d="M115.8,172.6v-29.5l-26-8.5"/>
				<g>
					<path class="st1" d="M115.8,172.6l-17.3,23.9l-26-8.5"/>
				</g>
			</g>
			<g>
				<path class="st1" d="M148,128.4l17.3-23.9l-16.1-22.1"/>
				<g>
					<path class="st1" d="M148,128.4l-28.1,9.1l-16.1-22.1"/>
				</g>
			</g>
		</g>
	</g>
</g>
</svg>
