<svg version="1.1" xmlns="http://www.w3.org/2000/svg" xmlns:xlink="http://www.w3.org/1999/xlink" width="400" height="400" viewBox="0 0 400 400"><defs/><g><g><g><path fill="none" stroke="#000000" paint-order="fill stroke markers" d=" M 230.43380852144492 209.88854381999832 L 230.43380852144492 222.11145618000168 L 218.80912807335915 225.88854381999832 L 211.62468044808577 235.77708763999664 L 200 232 L 188.37531955191423 235.77708763999664 L 181.19087192664085 225.88854381999832 L 169.56619147855508 222.11145618000168 L 169.56619147855508 209.88854381999832 L 162.3817438532817 200 L 169.56619147855508 190.11145618000168 L 169.56619147855508 177.88854381999832 L 181.19087192664085 174.11145618000168 L 188.37531955191423 164.22291236000336 L 200 168 L 211.62468044808577 164.22291236000336 L 218.80912807335915 174.11145618000168 L 230.43380852144492 177.88854381999832 L 230.43380852144492 190.11145618000168 L 237.6182561467183 200 L 230.43380852144492 209.88854381999832 L 230.43380852144492 209.88854381999832 Z" stroke-linecap="round" stroke-miterlimit="10" stroke-dasharray=""/></g><g><path fill="none" stroke="#000000" paint-order="fill stroke markers" d=" M 162.38174385328173 200 L 127.50770250902441 248 L 71.080318288947 229.66563145999496 L 71.08031828894698 170.33436854000504 L 127.5077025090244 152 L 162.38174385328173 200 L 162.38174385328173 200 Z" stroke-linecap="round" stroke-miterlimit="10" stroke-dasharray=""/></g><g><path fill="none" stroke="#000000" paint-order="fill stroke markers" d=" M 169.5661914785551 177.88854381999832 L 113.1388072584777 196.22291236000336 L 78.26476591422036 148.22291236000336 L 113.13880725847768 100.22291236000336 L 169.56619147855508 118.55728090000841 L 169.5661914785551 177.88854381999832 L 169.5661914785551 177.88854381999832 Z" stroke-linecap="round" stroke-miterlimit="10" stroke-dasharray=""/></g><g><path fill="none" stroke="#000000" paint-order="fill stroke markers" d=" M 188.37531955191423 164.22291236000336 L 131.94793533183685 145.88854381999832 L 131.94793533183682 86.55728090000844 L 188.37531955191423 68.22291236000339 L 223.24936089617157 116.22291236000336 L 188.37531955191423 164.22291236000336 L 188.37531955191423 164.22291236000336 Z" stroke-linecap="round" stroke-miterlimit="10" stroke-dasharray=""/></g><g><path fill="none" stroke="#000000" paint-order="fill stroke markers" d=" M 211.62468044808577 164.22291236000336 L 176.75063910382843 116.22291236000336 L 211.62468044808574 68.22291236000336 L 268.05206466816315 86.55728090000841 L 268.0520646681632 145.8885438199983 L 211.62468044808577 164.22291236000336 L 211.62468044808577 164.22291236000336 Z" stroke-linecap="round" stroke-miterlimit="10" stroke-dasharray=""/></g><g><path fill="none" stroke="#000000" paint-order="fill stroke markers" d=" M 230.43380852144492 177.88854381999832 L 230.4338085214449 118.55728090000842 L 286.8611927415223 100.22291236000336 L 321.7352340857796 148.22291236000336 L 286.8611927415223 196.22291236000336 L 230.43380852144492 177.88854381999832 L 230.43380852144492 177.88854381999832 Z" stroke-linecap="round" stroke-miterlimit="10" stroke-dasharray=""/></g><g><path fill="none" stroke="#000000" paint-order="fill stroke markers" d=" M 237.61825614671827 200 L 272.4922974909756 152 L 328.919681711053 170.33436854000504 L 328.91968171105304 229.66563145999493 L 272.4922974909756 248 L 237.61825614671827 200 L 237.61825614671827 200 Z" stroke-linecap="round" stroke-miterlimit="10" stroke-dasharray=""/></g><g><path fill="none" stroke="#000000" paint-order="fill stroke markers" d=" M 230.4338085214449 222.11145618000168 L 286.8611927415223 203.77708763999664 L 321.7352340857796 251.77708763999664 L 286.8611927415223 299.77708763999664 L 230.43380852144492 281.4427190999916 L 230.4338085214449 222.11145618000168 L 230.4338085214449 222.11145618000168 Z" stroke-linecap="round" stroke-miterlimit="10" stroke-dasharray=""/></g><g><path fill="none" stroke="#000000" paint-order="fill stroke markers" d=" M 211.62468044808577 235.77708763999664 L 268.0520646681632 254.11145618000168 L 268.0520646681632 313.44271909999156 L 211.6246804480858 331.77708763999664 L 176.75063910382846 283.77708763999664 L 211.62468044808577 235.77708763999664 L 211.62468044808577 235.77708763999664 Z" stroke-linecap="round" stroke-miterlimit="10" stroke-dasharray=""/></g><g><path fill="none" stroke="#000000" paint-order="fill stroke markers" d=" M 188.37531955191423 235.77708763999664 L 223.24936089617157 283.77708763999664 L 188.37531955191426 331.77708763999664 L 131.94793533183685 313.4427190999916 L 131.94793533183682 254.1114561800017 L 188.37531955191423 235.77708763999664 L 188.37531955191423 235.77708763999664 Z" stroke-linecap="round" stroke-miterlimit="10" stroke-dasharray=""/></g><g><path fill="none" stroke="#000000" paint-order="fill stroke markers" d=" M 169.56619147855508 222.11145618000168 L 169.5661914785551 281.44271909999156 L 113.13880725847771 299.77708763999664 L 78.26476591422036 251.77708763999667 L 113.13880725847767 203.77708763999664 L 169.56619147855508 222.11145618000168 L 169.56619147855508 222.11145618000168 Z" stroke-linecap="round" stroke-miterlimit="10" stroke-dasharray=""/></g><g><path fill="none" stroke="#000000" paint-order="fill stroke markers" d=" M 268.0520646681632 222.11145618000168 L 242.05848896953069 257.8885438199983 L 200 271.5541752799933 L 157.94151103046931 257.8885438199983 L 131.94793533183682 222.11145618000168 L 131.9479353318368 177.88854381999832 L 157.94151103046931 142.11145618000168 L 200 128.44582472000673 L 242.05848896953069 142.11145618000168 L 268.0520646681632 177.8885438199983 L 268.0520646681632 222.11145618000168 L 268.0520646681632 222.11145618000168 Z" stroke-linecap="round" stroke-miterlimit="10" stroke-dasharray=""/></g><g><path fill="none" stroke="#000000" paint-order="fill stroke markers" d=" M 200 104 L 230.43380852144492 94.11145618000168 L 230.43380852144492 64.44582472000674" stroke-linecap="round" stroke-miterlimit="10" stroke-dasharray=""/><g><path fill="none" stroke="#000000" paint-order="fill stroke markers" d=" M 200 104 L 169.56619147855508 94.11145618000168 L 169.56619147855508 64.44582472000674" stroke-linecap="round" stroke-miterlimit="10" stroke-dasharray=""/></g></g><g><path fill="none" stroke="#000000" paint-order="fill stroke markers" d=" M 256.42738422007744 122.33436854000504 L 286.86119274152236 132.22291236000336 L 304.298213413651 108.22291236000336" stroke-linecap="round" stroke-miterlimit="10" stroke-dasharray=""/><g><path fill="none" stroke="#000000" paint-order="fill stroke markers" d=" M 256.42738422007744 122.33436854000504 L 237.6182561467183 96.44582472000673 L 255.05527681884695 72.44582472000674" stroke-linecap="round" stroke-miterlimit="10" stroke-dasharray=""/></g></g><g><path fill="none" stroke="#000000" paint-order="fill stroke markers" d=" M 291.30142556433475 170.33436854000504 L 310.1105536376939 196.22291236000336 L 338.32424574773256 187.05572809000083" stroke-linecap="round" stroke-miterlimit="10" stroke-dasharray=""/><g><path fill="none" stroke="#000000" paint-order="fill stroke markers" d=" M 291.30142556433475 170.33436854000504 L 291.30142556433475 138.33436854000504 L 319.51511767437347 129.16718427000254" stroke-linecap="round" stroke-miterlimit="10" stroke-dasharray=""/></g></g><g><path fill="none" stroke="#000000" paint-order="fill stroke markers" d=" M 291.30142556433475 229.66563145999496 L 291.30142556433475 261.6656314599949 L 319.51511767437347 270.8328157299975" stroke-linecap="round" stroke-miterlimit="10" stroke-dasharray=""/><g><path fill="none" stroke="#000000" paint-order="fill stroke markers" d=" M 291.30142556433475 229.66563145999496 L 310.1105536376939 203.77708763999664 L 338.32424574773256 212.94427190999915" stroke-linecap="round" stroke-miterlimit="10" stroke-dasharray=""/></g></g><g><path fill="none" stroke="#000000" paint-order="fill stroke markers" d=" M 256.42738422007744 277.6656314599949 L 237.6182561467183 303.5541752799932 L 255.05527681884698 327.5541752799932" stroke-linecap="round" stroke-miterlimit="10" stroke-dasharray=""/><g><path fill="none" stroke="#000000" paint-order="fill stroke markers" d=" M 256.42738422007744 277.6656314599949 L 286.86119274152236 267.7770876399966 L 304.298213413651 291.7770876399966" stroke-linecap="round" stroke-miterlimit="10" stroke-dasharray=""/></g></g><g><path fill="none" stroke="#000000" paint-order="fill stroke markers" d=" M 200 296 L 169.56619147855508 305.8885438199983 L 169.56619147855508 335.5541752799933" stroke-linecap="round" stroke-miterlimit="10" stroke-dasharray=""/><g><path fill="none" stroke="#000000" paint-order="fill stroke markers" d=" M 200 296 L 230.43380852144492 305.8885438199983 L 230.43380852144492 335.5541752799933" stroke-linecap="round" stroke-miterlimit="10" stroke-dasharray=""/></g></g><g><path fill="none" stroke="#000000" paint-order="fill stroke markers" d=" M 143.5726157799226 277.665631459995 L 113.13880725847767 267.7770876399967 L 95.70178658634902 291.7770876399967" stroke-linecap="round" stroke-miterlimit="10" stroke-dasharray=""/><g><path fill="none" stroke="#000000" paint-order="fill stroke markers" d=" M 143.5726157799226 277.665631459995 L 162.38174385328173 303.5541752799933 L 144.94472318115308 327.5541752799933" stroke-linecap="round" stroke-miterlimit="10" stroke-dasharray=""/></g></g><g><path fill="none" stroke="#000000" paint-order="fill stroke markers" d=" M 108.69857443566526 229.66563145999496 L 89.88944636230613 203.77708763999664 L 61.675754252267424 212.94427190999917" stroke-linecap="round" stroke-miterlimit="10" stroke-dasharray=""/><g><path fill="none" stroke="#000000" paint-order="fill stroke markers" d=" M 108.69857443566526 229.66563145999496 L 108.69857443566526 261.6656314599949 L 80.48488232562657 270.8328157299975" stroke-linecap="round" stroke-miterlimit="10" stroke-dasharray=""/></g></g><g><path fill="none" stroke="#000000" paint-order="fill stroke markers" d=" M 108.69857443566525 170.33436854000507 L 108.69857443566525 138.33436854000507 L 80.48488232562654 129.16718427000256" stroke-linecap="round" stroke-miterlimit="10" stroke-dasharray=""/><g><path fill="none" stroke="#000000" paint-order="fill stroke markers" d=" M 108.69857443566525 170.33436854000507 L 89.88944636230612 196.2229123600034 L 61.67575425226741 187.05572809000088" stroke-linecap="round" stroke-miterlimit="10" stroke-dasharray=""/></g></g><g><path fill="none" stroke="#000000" paint-order="fill stroke markers" d=" M 143.57261577992256 122.33436854000506 L 162.3817438532817 96.44582472000674 L 144.94472318115302 72.44582472000675" stroke-linecap="round" stroke-miterlimit="10" stroke-dasharray=""/><g><path fill="none" stroke="#000000" paint-order="fill stroke markers" d=" M 143.57261577992256 122.33436854000506 L 113.13880725847764 132.2229123600034 L 95.70178658634899 108.22291236000339" stroke-linecap="round" stroke-miterlimit="10" stroke-dasharray=""/></g></g></g></g></svg>