<svg version="1.1" xmlns="http://www.w3.org/2000/svg" xmlns:xlink="http://www.w3.org/1999/xlink" width="400" height="400" viewBox="0 0 400 400"><defs/><g><g><g><g><g><path fill="none" stroke="#000000" paint-order="fill stroke markers" d=" M 200 200 L 176.75063910382846 232 L 200 264 L 188.37531955191423 280 L 157.94151103046931 270.1114561800017" stroke-linecap="round" stroke-miterlimit="10" stroke-dasharray=""/><path fill="none" stroke="#000000" paint-order="fill stroke markers" d=" M 200 244.22291236000336 L 169.56619147855508 254.11145618000168 L 169.56619147855508 286.1114561800017" stroke-linecap="round" stroke-miterlimit="10" stroke-dasharray=""/><path fill="none" stroke="#000000" paint-order="fill stroke markers" d=" M 200 219.77708763999664 L 178.97075551523466 212.94427190999915" stroke-linecap="round" stroke-miterlimit="10" stroke-dasharray=""/></g><g><path fill="none" stroke="#000000" paint-order="fill stroke markers" d=" M 200 200 L 223.24936089617154 232 L 200 264 L 211.62468044808577 280 L 242.05848896953069 270.1114561800017" stroke-linecap="round" stroke-miterlimit="10" stroke-dasharray=""/><path fill="none" stroke="#000000" paint-order="fill stroke markers" d=" M 200 244.22291236000336 L 230.43380852144492 254.11145618000168 L 230.43380852144492 286.1114561800017" stroke-linecap="round" stroke-miterlimit="10" stroke-dasharray=""/><path fill="none" stroke="#000000" paint-order="fill stroke markers" d=" M 200 219.77708763999664 L 221.02924448476534 212.94427190999915" stroke-linecap="round" stroke-miterlimit="10" stroke-dasharray=""/></g></g><g><g><path fill="none" stroke="#000000" paint-order="fill stroke markers" d=" M 200 200 L 176.75063910382846 168 L 200 136 L 188.37531955191423 120 L 157.94151103046931 129.88854381999832" stroke-linecap="round" stroke-miterlimit="10" stroke-dasharray=""/><path fill="none" stroke="#000000" paint-order="fill stroke markers" d=" M 200 155.77708763999664 L 169.56619147855508 145.88854381999832 L 169.56619147855508 113.88854381999832" stroke-linecap="round" stroke-miterlimit="10" stroke-dasharray=""/><path fill="none" stroke="#000000" paint-order="fill stroke markers" d=" M 200 180.22291236000336 L 178.97075551523466 187.05572809000085" stroke-linecap="round" stroke-miterlimit="10" stroke-dasharray=""/></g><g><path fill="none" stroke="#000000" paint-order="fill stroke markers" d=" M 200 200 L 223.24936089617154 168 L 200 136 L 211.62468044808577 120 L 242.05848896953069 129.88854381999832" stroke-linecap="round" stroke-miterlimit="10" stroke-dasharray=""/><path fill="none" stroke="#000000" paint-order="fill stroke markers" d=" M 200 155.77708763999664 L 230.43380852144492 145.88854381999832 L 230.43380852144492 113.88854381999832" stroke-linecap="round" stroke-miterlimit="10" stroke-dasharray=""/><path fill="none" stroke="#000000" paint-order="fill stroke markers" d=" M 200 180.22291236000336 L 221.02924448476534 187.05572809000085" stroke-linecap="round" stroke-miterlimit="10" stroke-dasharray=""/></g></g></g></g></g></svg>