<svg version="1.1" xmlns="http://www.w3.org/2000/svg" xmlns:xlink="http://www.w3.org/1999/xlink" width="800" height="800" viewBox="0 0 800 800"><defs/><g><g><g><g><path fill="none" stroke="#000000" paint-order="fill stroke markers" d=" M 126 0 L 99 46.76537180435968 L 45.000000000000014 46.76537180435969 L 18 6.6130927153957075e-15 L 44.99999999999997 -46.765371804359674 L 99 -46.76537180435968 L 126 0 L 126 0 Z" stroke-linecap="round" stroke-miterlimit="10" stroke-dasharray=""/></g><g><path fill="none" stroke="#000000" paint-order="fill stroke markers" d=" M 63.000000000000014 109.11920087683926 L 9.000000000000021 109.11920087683927 L -17.999999999999993 62.35382907247959 L 8.999999999999993 15.588457268119896 L 62.99999999999998 15.588457268119875 L 90 62.353829072479584 L 63.000000000000014 109.11920087683926 L 63.000000000000014 109.11920087683926 Z" stroke-linecap="round" stroke-miterlimit="10" stroke-dasharray=""/></g><g><path fill="none" stroke="#000000" paint-order="fill stroke markers" d=" M -62.99999999999997 109.11920087683927 L -89.99999999999999 62.353829072479606 L -63 15.58845726811991 L -9.000000000000004 15.588457268119896 L 18.000000000000014 62.35382907247954 L -8.999999999999986 109.11920087683927 L -62.99999999999997 109.11920087683927 L -62.99999999999997 109.11920087683927 Z" stroke-linecap="round" stroke-miterlimit="10" stroke-dasharray=""/></g><g><path fill="none" stroke="#000000" paint-order="fill stroke markers" d=" M -126 1.543054966925665e-14 L -99.00000000000001 -46.765371804359674 L -45.000000000000014 -46.76537180435968 L -18 -4.408728476930472e-15 L -44.99999999999997 46.76537180435968 L -99 46.76537180435969 L -126 1.543054966925665e-14 L -126 1.543054966925665e-14 Z" stroke-linecap="round" stroke-miterlimit="10" stroke-dasharray=""/></g><g><path fill="none" stroke="#000000" paint-order="fill stroke markers" d=" M -63.00000000000006 -109.11920087683924 L -9.000000000000064 -109.11920087683927 L 17.999999999999964 -62.3538290724796 L -8.999999999999996 -15.588457268119889 L -62.999999999999986 -15.588457268119846 L -90.00000000000003 -62.35382907247954 L -63.00000000000006 -109.11920087683924 L -63.00000000000006 -109.11920087683924 Z" stroke-linecap="round" stroke-miterlimit="10" stroke-dasharray=""/></g><g><path fill="none" stroke="#000000" paint-order="fill stroke markers" d=" M 63.000000000000014 -109.11920087683926 L 90 -62.353829072479584 L 63.00000000000001 -15.588457268119896 L 9.000000000000007 -15.588457268119896 L -17.999999999999993 -62.353829072479556 L 9.000000000000021 -109.11920087683927 L 63.000000000000014 -109.11920087683926 L 63.000000000000014 -109.11920087683926 Z" stroke-linecap="round" stroke-miterlimit="10" stroke-dasharray=""/></g></g><g><g><path fill="none" stroke="#000000" paint-order="fill stroke markers" d=" M 342 0 L 315 46.76537180435968 L 261 46.76537180435969 L 234 6.6130927153957075e-15 L 261 -46.765371804359674 L 315 -46.76537180435968 L 342 0 L 342 0 Z" stroke-linecap="round" stroke-miterlimit="10" stroke-dasharray=""/></g><g><path fill="none" stroke="#000000" paint-order="fill stroke markers" d=" M 279 109.11920087683926 L 225 109.11920087683927 L 198 62.35382907247959 L 225 15.588457268119896 L 279 15.588457268119875 L 306 62.353829072479584 L 279 109.11920087683926 L 279 109.11920087683926 Z" stroke-linecap="round" stroke-miterlimit="10" stroke-dasharray=""/></g><g><path fill="none" stroke="#000000" paint-order="fill stroke markers" d=" M 153 109.11920087683927 L 126 62.353829072479606 L 152.99999999999997 15.58845726811991 L 206.99999999999997 15.588457268119896 L 234 62.35382907247954 L 207 109.11920087683927 L 153 109.11920087683927 L 153 109.11920087683927 Z" stroke-linecap="round" stroke-miterlimit="10" stroke-dasharray=""/></g><g><path fill="none" stroke="#000000" paint-order="fill stroke markers" d=" M 90 1.543054966925665e-14 L 116.99999999999999 -46.765371804359674 L 170.99999999999997 -46.76537180435968 L 198 -4.408728476930472e-15 L 171.00000000000003 46.76537180435968 L 117 46.76537180435969 L 90 1.543054966925665e-14 L 90 1.543054966925665e-14 Z" stroke-linecap="round" stroke-miterlimit="10" stroke-dasharray=""/></g><g><path fill="none" stroke="#000000" paint-order="fill stroke markers" d=" M 152.99999999999994 -109.11920087683924 L 206.99999999999994 -109.11920087683927 L 233.99999999999997 -62.3538290724796 L 207 -15.588457268119889 L 153.00000000000003 -15.588457268119846 L 125.99999999999997 -62.35382907247954 L 152.99999999999994 -109.11920087683924 L 152.99999999999994 -109.11920087683924 Z" stroke-linecap="round" stroke-miterlimit="10" stroke-dasharray=""/></g><g><path fill="none" stroke="#000000" paint-order="fill stroke markers" d=" M 279 -109.11920087683926 L 306 -62.353829072479584 L 279 -15.588457268119896 L 225 -15.588457268119896 L 198 -62.353829072479556 L 225 -109.11920087683927 L 279 -109.11920087683926 L 279 -109.11920087683926 Z" stroke-linecap="round" stroke-miterlimit="10" stroke-dasharray=""/></g></g><g><g><path fill="none" stroke="#000000" paint-order="fill stroke markers" d=" M 558 0 L 531 46.76537180435968 L 477 46.76537180435969 L 450 6.6130927153957075e-15 L 477 -46.765371804359674 L 531 -46.76537180435968 L 558 0 L 558 0 Z" stroke-linecap="round" stroke-miterlimit="10" stroke-dasharray=""/></g><g><path fill="none" stroke="#000000" paint-order="fill stroke markers" d=" M 495 109.11920087683926 L 441 109.11920087683927 L 414 62.35382907247959 L 441 15.588457268119896 L 495 15.588457268119875 L 522 62.353829072479584 L 495 109.11920087683926 L 495 109.11920087683926 Z" stroke-linecap="round" stroke-miterlimit="10" stroke-dasharray=""/></g><g><path fill="none" stroke="#000000" paint-order="fill stroke markers" d=" M 369 109.11920087683927 L 342 62.353829072479606 L 369 15.58845726811991 L 423 15.588457268119896 L 450 62.35382907247954 L 423 109.11920087683927 L 369 109.11920087683927 L 369 109.11920087683927 Z" stroke-linecap="round" stroke-miterlimit="10" stroke-dasharray=""/></g><g><path fill="none" stroke="#000000" paint-order="fill stroke markers" d=" M 306 1.543054966925665e-14 L 333 -46.765371804359674 L 387 -46.76537180435968 L 414 -4.408728476930472e-15 L 387.00000000000006 46.76537180435968 L 333 46.76537180435969 L 306 1.543054966925665e-14 L 306 1.543054966925665e-14 Z" stroke-linecap="round" stroke-miterlimit="10" stroke-dasharray=""/></g><g><path fill="none" stroke="#000000" paint-order="fill stroke markers" d=" M 369 -109.11920087683924 L 422.99999999999994 -109.11920087683927 L 450 -62.3538290724796 L 423.00000000000006 -15.588457268119889 L 369.00000000000006 -15.588457268119846 L 342 -62.35382907247954 L 369 -109.11920087683924 L 369 -109.11920087683924 Z" stroke-linecap="round" stroke-miterlimit="10" stroke-dasharray=""/></g><g><path fill="none" stroke="#000000" paint-order="fill stroke markers" d=" M 495 -109.11920087683926 L 522 -62.353829072479584 L 495 -15.588457268119896 L 441 -15.588457268119896 L 414 -62.353829072479556 L 441 -109.11920087683927 L 495 -109.11920087683926 L 495 -109.11920087683926 Z" stroke-linecap="round" stroke-miterlimit="10" stroke-dasharray=""/></g></g><g><g><path fill="none" stroke="#000000" paint-order="fill stroke markers" d=" M 774 0 L 747 46.76537180435968 L 693 46.76537180435969 L 666 6.6130927153957075e-15 L 693 -46.765371804359674 L 747 -46.76537180435968 L 774 0 L 774 0 Z" stroke-linecap="round" stroke-miterlimit="10" stroke-dasharray=""/></g><g><path fill="none" stroke="#000000" paint-order="fill stroke markers" d=" M 711 109.11920087683926 L 657 109.11920087683927 L 630 62.35382907247959 L 657 15.588457268119896 L 711 15.588457268119875 L 738 62.353829072479584 L 711 109.11920087683926 L 711 109.11920087683926 Z" stroke-linecap="round" stroke-miterlimit="10" stroke-dasharray=""/></g><g><path fill="none" stroke="#000000" paint-order="fill stroke markers" d=" M 585 109.11920087683927 L 558 62.353829072479606 L 585 15.58845726811991 L 639 15.588457268119896 L 666 62.35382907247954 L 639 109.11920087683927 L 585 109.11920087683927 L 585 109.11920087683927 Z" stroke-linecap="round" stroke-miterlimit="10" stroke-dasharray=""/></g><g><path fill="none" stroke="#000000" paint-order="fill stroke markers" d=" M 522 1.543054966925665e-14 L 549 -46.765371804359674 L 603 -46.76537180435968 L 630 -4.408728476930472e-15 L 603 46.76537180435968 L 549 46.76537180435969 L 522 1.543054966925665e-14 L 522 1.543054966925665e-14 Z" stroke-linecap="round" stroke-miterlimit="10" stroke-dasharray=""/></g><g><path fill="none" stroke="#000000" paint-order="fill stroke markers" d=" M 585 -109.11920087683924 L 639 -109.11920087683927 L 666 -62.3538290724796 L 639 -15.588457268119889 L 585 -15.588457268119846 L 558 -62.35382907247954 L 585 -109.11920087683924 L 585 -109.11920087683924 Z" stroke-linecap="round" stroke-miterlimit="10" stroke-dasharray=""/></g><g><path fill="none" stroke="#000000" paint-order="fill stroke markers" d=" M 711 -109.11920087683926 L 738 -62.353829072479584 L 711 -15.588457268119896 L 657 -15.588457268119896 L 630 -62.353829072479556 L 657 -109.11920087683927 L 711 -109.11920087683926 L 711 -109.11920087683926 Z" stroke-linecap="round" stroke-miterlimit="10" stroke-dasharray=""/></g></g><g><g><path fill="none" stroke="#000000" paint-order="fill stroke markers" d=" M 990 0 L 963 46.76537180435968 L 909 46.76537180435969 L 882 6.6130927153957075e-15 L 909 -46.765371804359674 L 963 -46.76537180435968 L 990 0 L 990 0 Z" stroke-linecap="round" stroke-miterlimit="10" stroke-dasharray=""/></g><g><path fill="none" stroke="#000000" paint-order="fill stroke markers" d=" M 927 109.11920087683926 L 873 109.11920087683927 L 846 62.35382907247959 L 873 15.588457268119896 L 927 15.588457268119875 L 954 62.353829072479584 L 927 109.11920087683926 L 927 109.11920087683926 Z" stroke-linecap="round" stroke-miterlimit="10" stroke-dasharray=""/></g><g><path fill="none" stroke="#000000" paint-order="fill stroke markers" d=" M 801 109.11920087683927 L 774 62.353829072479606 L 801 15.58845726811991 L 855 15.588457268119896 L 882 62.35382907247954 L 855 109.11920087683927 L 801 109.11920087683927 L 801 109.11920087683927 Z" stroke-linecap="round" stroke-miterlimit="10" stroke-dasharray=""/></g><g><path fill="none" stroke="#000000" paint-order="fill stroke markers" d=" M 738 1.543054966925665e-14 L 765 -46.765371804359674 L 819 -46.76537180435968 L 846 -4.408728476930472e-15 L 819 46.76537180435968 L 765 46.76537180435969 L 738 1.543054966925665e-14 L 738 1.543054966925665e-14 Z" stroke-linecap="round" stroke-miterlimit="10" stroke-dasharray=""/></g><g><path fill="none" stroke="#000000" paint-order="fill stroke markers" d=" M 801 -109.11920087683924 L 855 -109.11920087683927 L 882 -62.3538290724796 L 855 -15.588457268119889 L 801 -15.588457268119846 L 774 -62.35382907247954 L 801 -109.11920087683924 L 801 -109.11920087683924 Z" stroke-linecap="round" stroke-miterlimit="10" stroke-dasharray=""/></g><g><path fill="none" stroke="#000000" paint-order="fill stroke markers" d=" M 927 -109.11920087683926 L 954 -62.353829072479584 L 927 -15.588457268119896 L 873 -15.588457268119896 L 846 -62.353829072479556 L 873 -109.11920087683927 L 927 -109.11920087683926 L 927 -109.11920087683926 Z" stroke-linecap="round" stroke-miterlimit="10" stroke-dasharray=""/></g></g><g><g><path fill="none" stroke="#000000" paint-order="fill stroke markers" d=" M 126 124.70765686035156 L 99 171.47302866471125 L 45.000000000000014 171.47302866471125 L 18 124.70765686035156 L 44.99999999999997 77.94228505599189 L 99 77.94228505599187 L 126 124.70765686035156 L 126 124.70765686035156 Z" stroke-linecap="round" stroke-miterlimit="10" stroke-dasharray=""/></g><g><path fill="none" stroke="#000000" paint-order="fill stroke markers" d=" M 63.000000000000014 233.82685773719083 L 9.000000000000021 233.82685773719083 L -17.999999999999993 187.06148593283115 L 8.999999999999993 140.29611412847146 L 62.99999999999998 140.29611412847146 L 90 187.06148593283115 L 63.000000000000014 233.82685773719083 L 63.000000000000014 233.82685773719083 Z" stroke-linecap="round" stroke-miterlimit="10" stroke-dasharray=""/></g><g><path fill="none" stroke="#000000" paint-order="fill stroke markers" d=" M -62.99999999999997 233.82685773719083 L -89.99999999999999 187.06148593283118 L -63 140.29611412847146 L -9.000000000000004 140.29611412847146 L 18.000000000000014 187.06148593283112 L -8.999999999999986 233.82685773719083 L -62.99999999999997 233.82685773719083 L -62.99999999999997 233.82685773719083 Z" stroke-linecap="round" stroke-miterlimit="10" stroke-dasharray=""/></g><g><path fill="none" stroke="#000000" paint-order="fill stroke markers" d=" M -126 124.70765686035158 L -99.00000000000001 77.9422850559919 L -45.000000000000014 77.94228505599189 L -18 124.70765686035156 L -44.99999999999997 171.47302866471125 L -99 171.47302866471125 L -126 124.70765686035158 L -126 124.70765686035158 Z" stroke-linecap="round" stroke-miterlimit="10" stroke-dasharray=""/></g><g><path fill="none" stroke="#000000" paint-order="fill stroke markers" d=" M -63.00000000000006 15.588455983512326 L -9.000000000000064 15.588455983512297 L 17.999999999999964 62.353827787871964 L -8.999999999999996 109.11919959223167 L -62.999999999999986 109.11919959223172 L -90.00000000000003 62.35382778787202 L -63.00000000000006 15.588455983512326 L -63.00000000000006 15.588455983512326 Z" stroke-linecap="round" stroke-miterlimit="10" stroke-dasharray=""/></g><g><path fill="none" stroke="#000000" paint-order="fill stroke markers" d=" M 63.000000000000014 15.588455983512304 L 90 62.35382778787198 L 63.00000000000001 109.11919959223167 L 9.000000000000007 109.11919959223167 L -17.999999999999993 62.35382778787201 L 9.000000000000021 15.588455983512297 L 63.000000000000014 15.588455983512304 L 63.000000000000014 15.588455983512304 Z" stroke-linecap="round" stroke-miterlimit="10" stroke-dasharray=""/></g></g><g><g><path fill="none" stroke="#000000" paint-order="fill stroke markers" d=" M 342 124.70765686035156 L 315 171.47302866471125 L 261 171.47302866471125 L 234 124.70765686035156 L 261 77.94228505599189 L 315 77.94228505599187 L 342 124.70765686035156 L 342 124.70765686035156 Z" stroke-linecap="round" stroke-miterlimit="10" stroke-dasharray=""/></g><g><path fill="none" stroke="#000000" paint-order="fill stroke markers" d=" M 279 233.82685773719083 L 225 233.82685773719083 L 198 187.06148593283115 L 225 140.29611412847146 L 279 140.29611412847146 L 306 187.06148593283115 L 279 233.82685773719083 L 279 233.82685773719083 Z" stroke-linecap="round" stroke-miterlimit="10" stroke-dasharray=""/></g><g><path fill="none" stroke="#000000" paint-order="fill stroke markers" d=" M 153 233.82685773719083 L 126 187.06148593283118 L 152.99999999999997 140.29611412847146 L 206.99999999999997 140.29611412847146 L 234 187.06148593283112 L 207 233.82685773719083 L 153 233.82685773719083 L 153 233.82685773719083 Z" stroke-linecap="round" stroke-miterlimit="10" stroke-dasharray=""/></g><g><path fill="none" stroke="#000000" paint-order="fill stroke markers" d=" M 90 124.70765686035158 L 116.99999999999999 77.9422850559919 L 170.99999999999997 77.94228505599189 L 198 124.70765686035156 L 171.00000000000003 171.47302866471125 L 117 171.47302866471125 L 90 124.70765686035158 L 90 124.70765686035158 Z" stroke-linecap="round" stroke-miterlimit="10" stroke-dasharray=""/></g><g><path fill="none" stroke="#000000" paint-order="fill stroke markers" d=" M 152.99999999999994 15.588455983512326 L 206.99999999999994 15.588455983512297 L 233.99999999999997 62.353827787871964 L 207 109.11919959223167 L 153.00000000000003 109.11919959223172 L 125.99999999999997 62.35382778787202 L 152.99999999999994 15.588455983512326 L 152.99999999999994 15.588455983512326 Z" stroke-linecap="round" stroke-miterlimit="10" stroke-dasharray=""/></g><g><path fill="none" stroke="#000000" paint-order="fill stroke markers" d=" M 279 15.588455983512304 L 306 62.35382778787198 L 279 109.11919959223167 L 225 109.11919959223167 L 198 62.35382778787201 L 225 15.588455983512297 L 279 15.588455983512304 L 279 15.588455983512304 Z" stroke-linecap="round" stroke-miterlimit="10" stroke-dasharray=""/></g></g><g><g><path fill="none" stroke="#000000" paint-order="fill stroke markers" d=" M 558 124.70765686035156 L 531 171.47302866471125 L 477 171.47302866471125 L 450 124.70765686035156 L 477 77.94228505599189 L 531 77.94228505599187 L 558 124.70765686035156 L 558 124.70765686035156 Z" stroke-linecap="round" stroke-miterlimit="10" stroke-dasharray=""/></g><g><path fill="none" stroke="#000000" paint-order="fill stroke markers" d=" M 495 233.82685773719083 L 441 233.82685773719083 L 414 187.06148593283115 L 441 140.29611412847146 L 495 140.29611412847146 L 522 187.06148593283115 L 495 233.82685773719083 L 495 233.82685773719083 Z" stroke-linecap="round" stroke-miterlimit="10" stroke-dasharray=""/></g><g><path fill="none" stroke="#000000" paint-order="fill stroke markers" d=" M 369 233.82685773719083 L 342 187.06148593283118 L 369 140.29611412847146 L 423 140.29611412847146 L 450 187.06148593283112 L 423 233.82685773719083 L 369 233.82685773719083 L 369 233.82685773719083 Z" stroke-linecap="round" stroke-miterlimit="10" stroke-dasharray=""/></g><g><path fill="none" stroke="#000000" paint-order="fill stroke markers" d=" M 306 124.70765686035158 L 333 77.9422850559919 L 387 77.94228505599189 L 414 124.70765686035156 L 387.00000000000006 171.47302866471125 L 333 171.47302866471125 L 306 124.70765686035158 L 306 124.70765686035158 Z" stroke-linecap="round" stroke-miterlimit="10" stroke-dasharray=""/></g><g><path fill="none" stroke="#000000" paint-order="fill stroke markers" d=" M 369 15.588455983512326 L 422.99999999999994 15.588455983512297 L 450 62.353827787871964 L 423.00000000000006 109.11919959223167 L 369.00000000000006 109.11919959223172 L 342 62.35382778787202 L 369 15.588455983512326 L 369 15.588455983512326 Z" stroke-linecap="round" stroke-miterlimit="10" stroke-dasharray=""/></g><g><path fill="none" stroke="#000000" paint-order="fill stroke markers" d=" M 495 15.588455983512304 L 522 62.35382778787198 L 495 109.11919959223167 L 441 109.11919959223167 L 414 62.35382778787201 L 441 15.588455983512297 L 495 15.588455983512304 L 495 15.588455983512304 Z" stroke-linecap="round" stroke-miterlimit="10" stroke-dasharray=""/></g></g><g><g><path fill="none" stroke="#000000" paint-order="fill stroke markers" d=" M 774 124.70765686035156 L 747 171.47302866471125 L 693 171.47302866471125 L 666 124.70765686035156 L 693 77.94228505599189 L 747 77.94228505599187 L 774 124.70765686035156 L 774 124.70765686035156 Z" stroke-linecap="round" stroke-miterlimit="10" stroke-dasharray=""/></g><g><path fill="none" stroke="#000000" paint-order="fill stroke markers" d=" M 711 233.82685773719083 L 657 233.82685773719083 L 630 187.06148593283115 L 657 140.29611412847146 L 711 140.29611412847146 L 738 187.06148593283115 L 711 233.82685773719083 L 711 233.82685773719083 Z" stroke-linecap="round" stroke-miterlimit="10" stroke-dasharray=""/></g><g><path fill="none" stroke="#000000" paint-order="fill stroke markers" d=" M 585 233.82685773719083 L 558 187.06148593283118 L 585 140.29611412847146 L 639 140.29611412847146 L 666 187.06148593283112 L 639 233.82685773719083 L 585 233.82685773719083 L 585 233.82685773719083 Z" stroke-linecap="round" stroke-miterlimit="10" stroke-dasharray=""/></g><g><path fill="none" stroke="#000000" paint-order="fill stroke markers" d=" M 522 124.70765686035158 L 549 77.9422850559919 L 603 77.94228505599189 L 630 124.70765686035156 L 603 171.47302866471125 L 549 171.47302866471125 L 522 124.70765686035158 L 522 124.70765686035158 Z" stroke-linecap="round" stroke-miterlimit="10" stroke-dasharray=""/></g><g><path fill="none" stroke="#000000" paint-order="fill stroke markers" d=" M 585 15.588455983512326 L 639 15.588455983512297 L 666 62.353827787871964 L 639 109.11919959223167 L 585 109.11919959223172 L 558 62.35382778787202 L 585 15.588455983512326 L 585 15.588455983512326 Z" stroke-linecap="round" stroke-miterlimit="10" stroke-dasharray=""/></g><g><path fill="none" stroke="#000000" paint-order="fill stroke markers" d=" M 711 15.588455983512304 L 738 62.35382778787198 L 711 109.11919959223167 L 657 109.11919959223167 L 630 62.35382778787201 L 657 15.588455983512297 L 711 15.588455983512304 L 711 15.588455983512304 Z" stroke-linecap="round" stroke-miterlimit="10" stroke-dasharray=""/></g></g><g><g><path fill="none" stroke="#000000" paint-order="fill stroke markers" d=" M 990 124.70765686035156 L 963 171.47302866471125 L 909 171.47302866471125 L 882 124.70765686035156 L 909 77.94228505599189 L 963 77.94228505599187 L 990 124.70765686035156 L 990 124.70765686035156 Z" stroke-linecap="round" stroke-miterlimit="10" stroke-dasharray=""/></g><g><path fill="none" stroke="#000000" paint-order="fill stroke markers" d=" M 927 233.82685773719083 L 873 233.82685773719083 L 846 187.06148593283115 L 873 140.29611412847146 L 927 140.29611412847146 L 954 187.06148593283115 L 927 233.82685773719083 L 927 233.82685773719083 Z" stroke-linecap="round" stroke-miterlimit="10" stroke-dasharray=""/></g><g><path fill="none" stroke="#000000" paint-order="fill stroke markers" d=" M 801 233.82685773719083 L 774 187.06148593283118 L 801 140.29611412847146 L 855 140.29611412847146 L 882 187.06148593283112 L 855 233.82685773719083 L 801 233.82685773719083 L 801 233.82685773719083 Z" stroke-linecap="round" stroke-miterlimit="10" stroke-dasharray=""/></g><g><path fill="none" stroke="#000000" paint-order="fill stroke markers" d=" M 738 124.70765686035158 L 765 77.9422850559919 L 819 77.94228505599189 L 846 124.70765686035156 L 819 171.47302866471125 L 765 171.47302866471125 L 738 124.70765686035158 L 738 124.70765686035158 Z" stroke-linecap="round" stroke-miterlimit="10" stroke-dasharray=""/></g><g><path fill="none" stroke="#000000" paint-order="fill stroke markers" d=" M 801 15.588455983512326 L 855 15.588455983512297 L 882 62.353827787871964 L 855 109.11919959223167 L 801 109.11919959223172 L 774 62.35382778787202 L 801 15.588455983512326 L 801 15.588455983512326 Z" stroke-linecap="round" stroke-miterlimit="10" stroke-dasharray=""/></g><g><path fill="none" stroke="#000000" paint-order="fill stroke markers" d=" M 927 15.588455983512304 L 954 62.35382778787198 L 927 109.11919959223167 L 873 109.11919959223167 L 846 62.35382778787201 L 873 15.588455983512297 L 927 15.588455983512304 L 927 15.588455983512304 Z" stroke-linecap="round" stroke-miterlimit="10" stroke-dasharray=""/></g></g><g><g><path fill="none" stroke="#000000" paint-order="fill stroke markers" d=" M 126 249.41531372070312 L 99 296.1806855250628 L 45.000000000000014 296.1806855250628 L 18 249.41531372070312 L 44.99999999999997 202.64994191634344 L 99 202.64994191634344 L 126 249.41531372070312 L 126 249.41531372070312 Z" stroke-linecap="round" stroke-miterlimit="10" stroke-dasharray=""/></g><g><path fill="none" stroke="#000000" paint-order="fill stroke markers" d=" M 63.000000000000014 358.5345145975424 L 9.000000000000021 358.5345145975424 L -17.999999999999993 311.7691427931827 L 8.999999999999993 265.003770988823 L 62.99999999999998 265.003770988823 L 90 311.7691427931827 L 63.000000000000014 358.5345145975424 L 63.000000000000014 358.5345145975424 Z" stroke-linecap="round" stroke-miterlimit="10" stroke-dasharray=""/></g><g><path fill="none" stroke="#000000" paint-order="fill stroke markers" d=" M -62.99999999999997 358.5345145975424 L -89.99999999999999 311.7691427931827 L -63 265.003770988823 L -9.000000000000004 265.003770988823 L 18.000000000000014 311.76914279318265 L -8.999999999999986 358.5345145975424 L -62.99999999999997 358.5345145975424 L -62.99999999999997 358.5345145975424 Z" stroke-linecap="round" stroke-miterlimit="10" stroke-dasharray=""/></g><g><path fill="none" stroke="#000000" paint-order="fill stroke markers" d=" M -126 249.41531372070312 L -99.00000000000001 202.64994191634344 L -45.000000000000014 202.64994191634344 L -18 249.41531372070312 L -44.99999999999997 296.1806855250628 L -99 296.1806855250628 L -126 249.41531372070312 L -126 249.41531372070312 Z" stroke-linecap="round" stroke-miterlimit="10" stroke-dasharray=""/></g><g><path fill="none" stroke="#000000" paint-order="fill stroke markers" d=" M -63.00000000000006 140.2961128438639 L -9.000000000000064 140.29611284386385 L 17.999999999999964 187.06148464822354 L -8.999999999999996 233.82685645258323 L -62.999999999999986 233.82685645258329 L -90.00000000000003 187.0614846482236 L -63.00000000000006 140.2961128438639 L -63.00000000000006 140.2961128438639 Z" stroke-linecap="round" stroke-miterlimit="10" stroke-dasharray=""/></g><g><path fill="none" stroke="#000000" paint-order="fill stroke markers" d=" M 63.000000000000014 140.29611284386385 L 90 187.06148464822354 L 63.00000000000001 233.82685645258323 L 9.000000000000007 233.82685645258323 L -17.999999999999993 187.06148464822357 L 9.000000000000021 140.29611284386385 L 63.000000000000014 140.29611284386385 L 63.000000000000014 140.29611284386385 Z" stroke-linecap="round" stroke-miterlimit="10" stroke-dasharray=""/></g></g><g><g><path fill="none" stroke="#000000" paint-order="fill stroke markers" d=" M 342 249.41531372070312 L 315 296.1806855250628 L 261 296.1806855250628 L 234 249.41531372070312 L 261 202.64994191634344 L 315 202.64994191634344 L 342 249.41531372070312 L 342 249.41531372070312 Z" stroke-linecap="round" stroke-miterlimit="10" stroke-dasharray=""/></g><g><path fill="none" stroke="#000000" paint-order="fill stroke markers" d=" M 279 358.5345145975424 L 225 358.5345145975424 L 198 311.7691427931827 L 225 265.003770988823 L 279 265.003770988823 L 306 311.7691427931827 L 279 358.5345145975424 L 279 358.5345145975424 Z" stroke-linecap="round" stroke-miterlimit="10" stroke-dasharray=""/></g><g><path fill="none" stroke="#000000" paint-order="fill stroke markers" d=" M 153 358.5345145975424 L 126 311.7691427931827 L 152.99999999999997 265.003770988823 L 206.99999999999997 265.003770988823 L 234 311.76914279318265 L 207 358.5345145975424 L 153 358.5345145975424 L 153 358.5345145975424 Z" stroke-linecap="round" stroke-miterlimit="10" stroke-dasharray=""/></g><g><path fill="none" stroke="#000000" paint-order="fill stroke markers" d=" M 90 249.41531372070312 L 116.99999999999999 202.64994191634344 L 170.99999999999997 202.64994191634344 L 198 249.41531372070312 L 171.00000000000003 296.1806855250628 L 117 296.1806855250628 L 90 249.41531372070312 L 90 249.41531372070312 Z" stroke-linecap="round" stroke-miterlimit="10" stroke-dasharray=""/></g><g><path fill="none" stroke="#000000" paint-order="fill stroke markers" d=" M 152.99999999999994 140.2961128438639 L 206.99999999999994 140.29611284386385 L 233.99999999999997 187.06148464822354 L 207 233.82685645258323 L 153.00000000000003 233.82685645258329 L 125.99999999999997 187.0614846482236 L 152.99999999999994 140.2961128438639 L 152.99999999999994 140.2961128438639 Z" stroke-linecap="round" stroke-miterlimit="10" stroke-dasharray=""/></g><g><path fill="none" stroke="#000000" paint-order="fill stroke markers" d=" M 279 140.29611284386385 L 306 187.06148464822354 L 279 233.82685645258323 L 225 233.82685645258323 L 198 187.06148464822357 L 225 140.29611284386385 L 279 140.29611284386385 L 279 140.29611284386385 Z" stroke-linecap="round" stroke-miterlimit="10" stroke-dasharray=""/></g></g><g><g><path fill="none" stroke="#000000" paint-order="fill stroke markers" d=" M 558 249.41531372070312 L 531 296.1806855250628 L 477 296.1806855250628 L 450 249.41531372070312 L 477 202.64994191634344 L 531 202.64994191634344 L 558 249.41531372070312 L 558 249.41531372070312 Z" stroke-linecap="round" stroke-miterlimit="10" stroke-dasharray=""/></g><g><path fill="none" stroke="#000000" paint-order="fill stroke markers" d=" M 495 358.5345145975424 L 441 358.5345145975424 L 414 311.7691427931827 L 441 265.003770988823 L 495 265.003770988823 L 522 311.7691427931827 L 495 358.5345145975424 L 495 358.5345145975424 Z" stroke-linecap="round" stroke-miterlimit="10" stroke-dasharray=""/></g><g><path fill="none" stroke="#000000" paint-order="fill stroke markers" d=" M 369 358.5345145975424 L 342 311.7691427931827 L 369 265.003770988823 L 423 265.003770988823 L 450 311.76914279318265 L 423 358.5345145975424 L 369 358.5345145975424 L 369 358.5345145975424 Z" stroke-linecap="round" stroke-miterlimit="10" stroke-dasharray=""/></g><g><path fill="none" stroke="#000000" paint-order="fill stroke markers" d=" M 306 249.41531372070312 L 333 202.64994191634344 L 387 202.64994191634344 L 414 249.41531372070312 L 387.00000000000006 296.1806855250628 L 333 296.1806855250628 L 306 249.41531372070312 L 306 249.41531372070312 Z" stroke-linecap="round" stroke-miterlimit="10" stroke-dasharray=""/></g><g><path fill="none" stroke="#000000" paint-order="fill stroke markers" d=" M 369 140.2961128438639 L 422.99999999999994 140.29611284386385 L 450 187.06148464822354 L 423.00000000000006 233.82685645258323 L 369.00000000000006 233.82685645258329 L 342 187.0614846482236 L 369 140.2961128438639 L 369 140.2961128438639 Z" stroke-linecap="round" stroke-miterlimit="10" stroke-dasharray=""/></g><g><path fill="none" stroke="#000000" paint-order="fill stroke markers" d=" M 495 140.29611284386385 L 522 187.06148464822354 L 495 233.82685645258323 L 441 233.82685645258323 L 414 187.06148464822357 L 441 140.29611284386385 L 495 140.29611284386385 L 495 140.29611284386385 Z" stroke-linecap="round" stroke-miterlimit="10" stroke-dasharray=""/></g></g><g><g><path fill="none" stroke="#000000" paint-order="fill stroke markers" d=" M 774 249.41531372070312 L 747 296.1806855250628 L 693 296.1806855250628 L 666 249.41531372070312 L 693 202.64994191634344 L 747 202.64994191634344 L 774 249.41531372070312 L 774 249.41531372070312 Z" stroke-linecap="round" stroke-miterlimit="10" stroke-dasharray=""/></g><g><path fill="none" stroke="#000000" paint-order="fill stroke markers" d=" M 711 358.5345145975424 L 657 358.5345145975424 L 630 311.7691427931827 L 657 265.003770988823 L 711 265.003770988823 L 738 311.7691427931827 L 711 358.5345145975424 L 711 358.5345145975424 Z" stroke-linecap="round" stroke-miterlimit="10" stroke-dasharray=""/></g><g><path fill="none" stroke="#000000" paint-order="fill stroke markers" d=" M 585 358.5345145975424 L 558 311.7691427931827 L 585 265.003770988823 L 639 265.003770988823 L 666 311.76914279318265 L 639 358.5345145975424 L 585 358.5345145975424 L 585 358.5345145975424 Z" stroke-linecap="round" stroke-miterlimit="10" stroke-dasharray=""/></g><g><path fill="none" stroke="#000000" paint-order="fill stroke markers" d=" M 522 249.41531372070312 L 549 202.64994191634344 L 603 202.64994191634344 L 630 249.41531372070312 L 603 296.1806855250628 L 549 296.1806855250628 L 522 249.41531372070312 L 522 249.41531372070312 Z" stroke-linecap="round" stroke-miterlimit="10" stroke-dasharray=""/></g><g><path fill="none" stroke="#000000" paint-order="fill stroke markers" d=" M 585 140.2961128438639 L 639 140.29611284386385 L 666 187.06148464822354 L 639 233.82685645258323 L 585 233.82685645258329 L 558 187.0614846482236 L 585 140.2961128438639 L 585 140.2961128438639 Z" stroke-linecap="round" stroke-miterlimit="10" stroke-dasharray=""/></g><g><path fill="none" stroke="#000000" paint-order="fill stroke markers" d=" M 711 140.29611284386385 L 738 187.06148464822354 L 711 233.82685645258323 L 657 233.82685645258323 L 630 187.06148464822357 L 657 140.29611284386385 L 711 140.29611284386385 L 711 140.29611284386385 Z" stroke-linecap="round" stroke-miterlimit="10" stroke-dasharray=""/></g></g><g><g><path fill="none" stroke="#000000" paint-order="fill stroke markers" d=" M 990 249.41531372070312 L 963 296.1806855250628 L 909 296.1806855250628 L 882 249.41531372070312 L 909 202.64994191634344 L 963 202.64994191634344 L 990 249.41531372070312 L 990 249.41531372070312 Z" stroke-linecap="round" stroke-miterlimit="10" stroke-dasharray=""/></g><g><path fill="none" stroke="#000000" paint-order="fill stroke markers" d=" M 927 358.5345145975424 L 873 358.5345145975424 L 846 311.7691427931827 L 873 265.003770988823 L 927 265.003770988823 L 954 311.7691427931827 L 927 358.5345145975424 L 927 358.5345145975424 Z" stroke-linecap="round" stroke-miterlimit="10" stroke-dasharray=""/></g><g><path fill="none" stroke="#000000" paint-order="fill stroke markers" d=" M 801 358.5345145975424 L 774 311.7691427931827 L 801 265.003770988823 L 855 265.003770988823 L 882 311.76914279318265 L 855 358.5345145975424 L 801 358.5345145975424 L 801 358.5345145975424 Z" stroke-linecap="round" stroke-miterlimit="10" stroke-dasharray=""/></g><g><path fill="none" stroke="#000000" paint-order="fill stroke markers" d=" M 738 249.41531372070312 L 765 202.64994191634344 L 819 202.64994191634344 L 846 249.41531372070312 L 819 296.1806855250628 L 765 296.1806855250628 L 738 249.41531372070312 L 738 249.41531372070312 Z" stroke-linecap="round" stroke-miterlimit="10" stroke-dasharray=""/></g><g><path fill="none" stroke="#000000" paint-order="fill stroke markers" d=" M 801 140.2961128438639 L 855 140.29611284386385 L 882 187.06148464822354 L 855 233.82685645258323 L 801 233.82685645258329 L 774 187.0614846482236 L 801 140.2961128438639 L 801 140.2961128438639 Z" stroke-linecap="round" stroke-miterlimit="10" stroke-dasharray=""/></g><g><path fill="none" stroke="#000000" paint-order="fill stroke markers" d=" M 927 140.29611284386385 L 954 187.06148464822354 L 927 233.82685645258323 L 873 233.82685645258323 L 846 187.06148464822357 L 873 140.29611284386385 L 927 140.29611284386385 L 927 140.29611284386385 Z" stroke-linecap="round" stroke-miterlimit="10" stroke-dasharray=""/></g></g><g><g><path fill="none" stroke="#000000" paint-order="fill stroke markers" d=" M 126 374.12298583984375 L 99 420.88835764420344 L 45.000000000000014 420.88835764420344 L 18 374.12298583984375 L 44.99999999999997 327.35761403548406 L 99 327.35761403548406 L 126 374.12298583984375 L 126 374.12298583984375 Z" stroke-linecap="round" stroke-miterlimit="10" stroke-dasharray=""/></g><g><path fill="none" stroke="#000000" paint-order="fill stroke markers" d=" M 63.000000000000014 483.242186716683 L 9.000000000000021 483.242186716683 L -17.999999999999993 436.47681491232333 L 8.999999999999993 389.71144310796365 L 62.99999999999998 389.71144310796365 L 90 436.47681491232333 L 63.000000000000014 483.242186716683 L 63.000000000000014 483.242186716683 Z" stroke-linecap="round" stroke-miterlimit="10" stroke-dasharray=""/></g><g><path fill="none" stroke="#000000" paint-order="fill stroke markers" d=" M -62.99999999999997 483.242186716683 L -89.99999999999999 436.47681491232333 L -63 389.71144310796365 L -9.000000000000004 389.71144310796365 L 18.000000000000014 436.4768149123233 L -8.999999999999986 483.242186716683 L -62.99999999999997 483.242186716683 L -62.99999999999997 483.242186716683 Z" stroke-linecap="round" stroke-miterlimit="10" stroke-dasharray=""/></g><g><path fill="none" stroke="#000000" paint-order="fill stroke markers" d=" M -126 374.12298583984375 L -99.00000000000001 327.35761403548406 L -45.000000000000014 327.35761403548406 L -18 374.12298583984375 L -44.99999999999997 420.88835764420344 L -99 420.88835764420344 L -126 374.12298583984375 L -126 374.12298583984375 Z" stroke-linecap="round" stroke-miterlimit="10" stroke-dasharray=""/></g><g><path fill="none" stroke="#000000" paint-order="fill stroke markers" d=" M -63.00000000000006 265.0037849630045 L -9.000000000000064 265.0037849630045 L 17.999999999999964 311.7691567673641 L -8.999999999999996 358.53452857172385 L -62.999999999999986 358.53452857172385 L -90.00000000000003 311.76915676736417 L -63.00000000000006 265.0037849630045 L -63.00000000000006 265.0037849630045 Z" stroke-linecap="round" stroke-miterlimit="10" stroke-dasharray=""/></g><g><path fill="none" stroke="#000000" paint-order="fill stroke markers" d=" M 63.000000000000014 265.0037849630045 L 90 311.76915676736417 L 63.00000000000001 358.53452857172385 L 9.000000000000007 358.53452857172385 L -17.999999999999993 311.76915676736417 L 9.000000000000021 265.0037849630045 L 63.000000000000014 265.0037849630045 L 63.000000000000014 265.0037849630045 Z" stroke-linecap="round" stroke-miterlimit="10" stroke-dasharray=""/></g></g><g><g><path fill="none" stroke="#000000" paint-order="fill stroke markers" d=" M 342 374.12298583984375 L 315 420.88835764420344 L 261 420.88835764420344 L 234 374.12298583984375 L 261 327.35761403548406 L 315 327.35761403548406 L 342 374.12298583984375 L 342 374.12298583984375 Z" stroke-linecap="round" stroke-miterlimit="10" stroke-dasharray=""/></g><g><path fill="none" stroke="#000000" paint-order="fill stroke markers" d=" M 279 483.242186716683 L 225 483.242186716683 L 198 436.47681491232333 L 225 389.71144310796365 L 279 389.71144310796365 L 306 436.47681491232333 L 279 483.242186716683 L 279 483.242186716683 Z" stroke-linecap="round" stroke-miterlimit="10" stroke-dasharray=""/></g><g><path fill="none" stroke="#000000" paint-order="fill stroke markers" d=" M 153 483.242186716683 L 126 436.47681491232333 L 152.99999999999997 389.71144310796365 L 206.99999999999997 389.71144310796365 L 234 436.4768149123233 L 207 483.242186716683 L 153 483.242186716683 L 153 483.242186716683 Z" stroke-linecap="round" stroke-miterlimit="10" stroke-dasharray=""/></g><g><path fill="none" stroke="#000000" paint-order="fill stroke markers" d=" M 90 374.12298583984375 L 116.99999999999999 327.35761403548406 L 170.99999999999997 327.35761403548406 L 198 374.12298583984375 L 171.00000000000003 420.88835764420344 L 117 420.88835764420344 L 90 374.12298583984375 L 90 374.12298583984375 Z" stroke-linecap="round" stroke-miterlimit="10" stroke-dasharray=""/></g><g><path fill="none" stroke="#000000" paint-order="fill stroke markers" d=" M 152.99999999999994 265.0037849630045 L 206.99999999999994 265.0037849630045 L 233.99999999999997 311.7691567673641 L 207 358.53452857172385 L 153.00000000000003 358.53452857172385 L 125.99999999999997 311.76915676736417 L 152.99999999999994 265.0037849630045 L 152.99999999999994 265.0037849630045 Z" stroke-linecap="round" stroke-miterlimit="10" stroke-dasharray=""/></g><g><path fill="none" stroke="#000000" paint-order="fill stroke markers" d=" M 279 265.0037849630045 L 306 311.76915676736417 L 279 358.53452857172385 L 225 358.53452857172385 L 198 311.76915676736417 L 225 265.0037849630045 L 279 265.0037849630045 L 279 265.0037849630045 Z" stroke-linecap="round" stroke-miterlimit="10" stroke-dasharray=""/></g></g><g><g><path fill="none" stroke="#000000" paint-order="fill stroke markers" d=" M 558 374.12298583984375 L 531 420.88835764420344 L 477 420.88835764420344 L 450 374.12298583984375 L 477 327.35761403548406 L 531 327.35761403548406 L 558 374.12298583984375 L 558 374.12298583984375 Z" stroke-linecap="round" stroke-miterlimit="10" stroke-dasharray=""/></g><g><path fill="none" stroke="#000000" paint-order="fill stroke markers" d=" M 495 483.242186716683 L 441 483.242186716683 L 414 436.47681491232333 L 441 389.71144310796365 L 495 389.71144310796365 L 522 436.47681491232333 L 495 483.242186716683 L 495 483.242186716683 Z" stroke-linecap="round" stroke-miterlimit="10" stroke-dasharray=""/></g><g><path fill="none" stroke="#000000" paint-order="fill stroke markers" d=" M 369 483.242186716683 L 342 436.47681491232333 L 369 389.71144310796365 L 423 389.71144310796365 L 450 436.4768149123233 L 423 483.242186716683 L 369 483.242186716683 L 369 483.242186716683 Z" stroke-linecap="round" stroke-miterlimit="10" stroke-dasharray=""/></g><g><path fill="none" stroke="#000000" paint-order="fill stroke markers" d=" M 306 374.12298583984375 L 333 327.35761403548406 L 387 327.35761403548406 L 414 374.12298583984375 L 387.00000000000006 420.88835764420344 L 333 420.88835764420344 L 306 374.12298583984375 L 306 374.12298583984375 Z" stroke-linecap="round" stroke-miterlimit="10" stroke-dasharray=""/></g><g><path fill="none" stroke="#000000" paint-order="fill stroke markers" d=" M 369 265.0037849630045 L 422.99999999999994 265.0037849630045 L 450 311.7691567673641 L 423.00000000000006 358.53452857172385 L 369.00000000000006 358.53452857172385 L 342 311.76915676736417 L 369 265.0037849630045 L 369 265.0037849630045 Z" stroke-linecap="round" stroke-miterlimit="10" stroke-dasharray=""/></g><g><path fill="none" stroke="#000000" paint-order="fill stroke markers" d=" M 495 265.0037849630045 L 522 311.76915676736417 L 495 358.53452857172385 L 441 358.53452857172385 L 414 311.76915676736417 L 441 265.0037849630045 L 495 265.0037849630045 L 495 265.0037849630045 Z" stroke-linecap="round" stroke-miterlimit="10" stroke-dasharray=""/></g></g><g><g><path fill="none" stroke="#000000" paint-order="fill stroke markers" d=" M 774 374.12298583984375 L 747 420.88835764420344 L 693 420.88835764420344 L 666 374.12298583984375 L 693 327.35761403548406 L 747 327.35761403548406 L 774 374.12298583984375 L 774 374.12298583984375 Z" stroke-linecap="round" stroke-miterlimit="10" stroke-dasharray=""/></g><g><path fill="none" stroke="#000000" paint-order="fill stroke markers" d=" M 711 483.242186716683 L 657 483.242186716683 L 630 436.47681491232333 L 657 389.71144310796365 L 711 389.71144310796365 L 738 436.47681491232333 L 711 483.242186716683 L 711 483.242186716683 Z" stroke-linecap="round" stroke-miterlimit="10" stroke-dasharray=""/></g><g><path fill="none" stroke="#000000" paint-order="fill stroke markers" d=" M 585 483.242186716683 L 558 436.47681491232333 L 585 389.71144310796365 L 639 389.71144310796365 L 666 436.4768149123233 L 639 483.242186716683 L 585 483.242186716683 L 585 483.242186716683 Z" stroke-linecap="round" stroke-miterlimit="10" stroke-dasharray=""/></g><g><path fill="none" stroke="#000000" paint-order="fill stroke markers" d=" M 522 374.12298583984375 L 549 327.35761403548406 L 603 327.35761403548406 L 630 374.12298583984375 L 603 420.88835764420344 L 549 420.88835764420344 L 522 374.12298583984375 L 522 374.12298583984375 Z" stroke-linecap="round" stroke-miterlimit="10" stroke-dasharray=""/></g><g><path fill="none" stroke="#000000" paint-order="fill stroke markers" d=" M 585 265.0037849630045 L 639 265.0037849630045 L 666 311.7691567673641 L 639 358.53452857172385 L 585 358.53452857172385 L 558 311.76915676736417 L 585 265.0037849630045 L 585 265.0037849630045 Z" stroke-linecap="round" stroke-miterlimit="10" stroke-dasharray=""/></g><g><path fill="none" stroke="#000000" paint-order="fill stroke markers" d=" M 711 265.0037849630045 L 738 311.76915676736417 L 711 358.53452857172385 L 657 358.53452857172385 L 630 311.76915676736417 L 657 265.0037849630045 L 711 265.0037849630045 L 711 265.0037849630045 Z" stroke-linecap="round" stroke-miterlimit="10" stroke-dasharray=""/></g></g><g><g><path fill="none" stroke="#000000" paint-order="fill stroke markers" d=" M 990 374.12298583984375 L 963 420.88835764420344 L 909 420.88835764420344 L 882 374.12298583984375 L 909 327.35761403548406 L 963 327.35761403548406 L 990 374.12298583984375 L 990 374.12298583984375 Z" stroke-linecap="round" stroke-miterlimit="10" stroke-dasharray=""/></g><g><path fill="none" stroke="#000000" paint-order="fill stroke markers" d=" M 927 483.242186716683 L 873 483.242186716683 L 846 436.47681491232333 L 873 389.71144310796365 L 927 389.71144310796365 L 954 436.47681491232333 L 927 483.242186716683 L 927 483.242186716683 Z" stroke-linecap="round" stroke-miterlimit="10" stroke-dasharray=""/></g><g><path fill="none" stroke="#000000" paint-order="fill stroke markers" d=" M 801 483.242186716683 L 774 436.47681491232333 L 801 389.71144310796365 L 855 389.71144310796365 L 882 436.4768149123233 L 855 483.242186716683 L 801 483.242186716683 L 801 483.242186716683 Z" stroke-linecap="round" stroke-miterlimit="10" stroke-dasharray=""/></g><g><path fill="none" stroke="#000000" paint-order="fill stroke markers" d=" M 738 374.12298583984375 L 765 327.35761403548406 L 819 327.35761403548406 L 846 374.12298583984375 L 819 420.88835764420344 L 765 420.88835764420344 L 738 374.12298583984375 L 738 374.12298583984375 Z" stroke-linecap="round" stroke-miterlimit="10" stroke-dasharray=""/></g><g><path fill="none" stroke="#000000" paint-order="fill stroke markers" d=" M 801 265.0037849630045 L 855 265.0037849630045 L 882 311.7691567673641 L 855 358.53452857172385 L 801 358.53452857172385 L 774 311.76915676736417 L 801 265.0037849630045 L 801 265.0037849630045 Z" stroke-linecap="round" stroke-miterlimit="10" stroke-dasharray=""/></g><g><path fill="none" stroke="#000000" paint-order="fill stroke markers" d=" M 927 265.0037849630045 L 954 311.76915676736417 L 927 358.53452857172385 L 873 358.53452857172385 L 846 311.76915676736417 L 873 265.0037849630045 L 927 265.0037849630045 L 927 265.0037849630045 Z" stroke-linecap="round" stroke-miterlimit="10" stroke-dasharray=""/></g></g><g><g><path fill="none" stroke="#000000" paint-order="fill stroke markers" d=" M 126 498.83062744140625 L 99 545.5959992457659 L 45.000000000000014 545.5959992457659 L 18 498.83062744140625 L 44.99999999999997 452.06525563704656 L 99 452.06525563704656 L 126 498.83062744140625 L 126 498.83062744140625 Z" stroke-linecap="round" stroke-miterlimit="10" stroke-dasharray=""/></g><g><path fill="none" stroke="#000000" paint-order="fill stroke markers" d=" M 63.000000000000014 607.9498283182455 L 9.000000000000021 607.9498283182455 L -17.999999999999993 561.1844565138858 L 8.999999999999993 514.4190847095261 L 62.99999999999998 514.4190847095261 L 90 561.1844565138858 L 63.000000000000014 607.9498283182455 L 63.000000000000014 607.9498283182455 Z" stroke-linecap="round" stroke-miterlimit="10" stroke-dasharray=""/></g><g><path fill="none" stroke="#000000" paint-order="fill stroke markers" d=" M -62.99999999999997 607.9498283182455 L -89.99999999999999 561.1844565138858 L -63 514.4190847095261 L -9.000000000000004 514.4190847095261 L 18.000000000000014 561.1844565138858 L -8.999999999999986 607.9498283182455 L -62.99999999999997 607.9498283182455 L -62.99999999999997 607.9498283182455 Z" stroke-linecap="round" stroke-miterlimit="10" stroke-dasharray=""/></g><g><path fill="none" stroke="#000000" paint-order="fill stroke markers" d=" M -126 498.83062744140625 L -99.00000000000001 452.06525563704656 L -45.000000000000014 452.06525563704656 L -18 498.83062744140625 L -44.99999999999997 545.5959992457659 L -99 545.5959992457659 L -126 498.83062744140625 L -126 498.83062744140625 Z" stroke-linecap="round" stroke-miterlimit="10" stroke-dasharray=""/></g><g><path fill="none" stroke="#000000" paint-order="fill stroke markers" d=" M -63.00000000000006 389.711426564567 L -9.000000000000064 389.711426564567 L 17.999999999999964 436.4767983689266 L -8.999999999999996 483.24217017328635 L -62.999999999999986 483.24217017328635 L -90.00000000000003 436.47679836892667 L -63.00000000000006 389.711426564567 L -63.00000000000006 389.711426564567 Z" stroke-linecap="round" stroke-miterlimit="10" stroke-dasharray=""/></g><g><path fill="none" stroke="#000000" paint-order="fill stroke markers" d=" M 63.000000000000014 389.711426564567 L 90 436.47679836892667 L 63.00000000000001 483.24217017328635 L 9.000000000000007 483.24217017328635 L -17.999999999999993 436.47679836892667 L 9.000000000000021 389.711426564567 L 63.000000000000014 389.711426564567 L 63.000000000000014 389.711426564567 Z" stroke-linecap="round" stroke-miterlimit="10" stroke-dasharray=""/></g></g><g><g><path fill="none" stroke="#000000" paint-order="fill stroke markers" d=" M 342 498.83062744140625 L 315 545.5959992457659 L 261 545.5959992457659 L 234 498.83062744140625 L 261 452.06525563704656 L 315 452.06525563704656 L 342 498.83062744140625 L 342 498.83062744140625 Z" stroke-linecap="round" stroke-miterlimit="10" stroke-dasharray=""/></g><g><path fill="none" stroke="#000000" paint-order="fill stroke markers" d=" M 279 607.9498283182455 L 225 607.9498283182455 L 198 561.1844565138858 L 225 514.4190847095261 L 279 514.4190847095261 L 306 561.1844565138858 L 279 607.9498283182455 L 279 607.9498283182455 Z" stroke-linecap="round" stroke-miterlimit="10" stroke-dasharray=""/></g><g><path fill="none" stroke="#000000" paint-order="fill stroke markers" d=" M 153 607.9498283182455 L 126 561.1844565138858 L 152.99999999999997 514.4190847095261 L 206.99999999999997 514.4190847095261 L 234 561.1844565138858 L 207 607.9498283182455 L 153 607.9498283182455 L 153 607.9498283182455 Z" stroke-linecap="round" stroke-miterlimit="10" stroke-dasharray=""/></g><g><path fill="none" stroke="#000000" paint-order="fill stroke markers" d=" M 90 498.83062744140625 L 116.99999999999999 452.06525563704656 L 170.99999999999997 452.06525563704656 L 198 498.83062744140625 L 171.00000000000003 545.5959992457659 L 117 545.5959992457659 L 90 498.83062744140625 L 90 498.83062744140625 Z" stroke-linecap="round" stroke-miterlimit="10" stroke-dasharray=""/></g><g><path fill="none" stroke="#000000" paint-order="fill stroke markers" d=" M 152.99999999999994 389.711426564567 L 206.99999999999994 389.711426564567 L 233.99999999999997 436.4767983689266 L 207 483.24217017328635 L 153.00000000000003 483.24217017328635 L 125.99999999999997 436.47679836892667 L 152.99999999999994 389.711426564567 L 152.99999999999994 389.711426564567 Z" stroke-linecap="round" stroke-miterlimit="10" stroke-dasharray=""/></g><g><path fill="none" stroke="#000000" paint-order="fill stroke markers" d=" M 279 389.711426564567 L 306 436.47679836892667 L 279 483.24217017328635 L 225 483.24217017328635 L 198 436.47679836892667 L 225 389.711426564567 L 279 389.711426564567 L 279 389.711426564567 Z" stroke-linecap="round" stroke-miterlimit="10" stroke-dasharray=""/></g></g><g><g><path fill="none" stroke="#000000" paint-order="fill stroke markers" d=" M 558 498.83062744140625 L 531 545.5959992457659 L 477 545.5959992457659 L 450 498.83062744140625 L 477 452.06525563704656 L 531 452.06525563704656 L 558 498.83062744140625 L 558 498.83062744140625 Z" stroke-linecap="round" stroke-miterlimit="10" stroke-dasharray=""/></g><g><path fill="none" stroke="#000000" paint-order="fill stroke markers" d=" M 495 607.9498283182455 L 441 607.9498283182455 L 414 561.1844565138858 L 441 514.4190847095261 L 495 514.4190847095261 L 522 561.1844565138858 L 495 607.9498283182455 L 495 607.9498283182455 Z" stroke-linecap="round" stroke-miterlimit="10" stroke-dasharray=""/></g><g><path fill="none" stroke="#000000" paint-order="fill stroke markers" d=" M 369 607.9498283182455 L 342 561.1844565138858 L 369 514.4190847095261 L 423 514.4190847095261 L 450 561.1844565138858 L 423 607.9498283182455 L 369 607.9498283182455 L 369 607.9498283182455 Z" stroke-linecap="round" stroke-miterlimit="10" stroke-dasharray=""/></g><g><path fill="none" stroke="#000000" paint-order="fill stroke markers" d=" M 306 498.83062744140625 L 333 452.06525563704656 L 387 452.06525563704656 L 414 498.83062744140625 L 387.00000000000006 545.5959992457659 L 333 545.5959992457659 L 306 498.83062744140625 L 306 498.83062744140625 Z" stroke-linecap="round" stroke-miterlimit="10" stroke-dasharray=""/></g><g><path fill="none" stroke="#000000" paint-order="fill stroke markers" d=" M 369 389.711426564567 L 422.99999999999994 389.711426564567 L 450 436.4767983689266 L 423.00000000000006 483.24217017328635 L 369.00000000000006 483.24217017328635 L 342 436.47679836892667 L 369 389.711426564567 L 369 389.711426564567 Z" stroke-linecap="round" stroke-miterlimit="10" stroke-dasharray=""/></g><g><path fill="none" stroke="#000000" paint-order="fill stroke markers" d=" M 495 389.711426564567 L 522 436.47679836892667 L 495 483.24217017328635 L 441 483.24217017328635 L 414 436.47679836892667 L 441 389.711426564567 L 495 389.711426564567 L 495 389.711426564567 Z" stroke-linecap="round" stroke-miterlimit="10" stroke-dasharray=""/></g></g><g><g><path fill="none" stroke="#000000" paint-order="fill stroke markers" d=" M 774 498.83062744140625 L 747 545.5959992457659 L 693 545.5959992457659 L 666 498.83062744140625 L 693 452.06525563704656 L 747 452.06525563704656 L 774 498.83062744140625 L 774 498.83062744140625 Z" stroke-linecap="round" stroke-miterlimit="10" stroke-dasharray=""/></g><g><path fill="none" stroke="#000000" paint-order="fill stroke markers" d=" M 711 607.9498283182455 L 657 607.9498283182455 L 630 561.1844565138858 L 657 514.4190847095261 L 711 514.4190847095261 L 738 561.1844565138858 L 711 607.9498283182455 L 711 607.9498283182455 Z" stroke-linecap="round" stroke-miterlimit="10" stroke-dasharray=""/></g><g><path fill="none" stroke="#000000" paint-order="fill stroke markers" d=" M 585 607.9498283182455 L 558 561.1844565138858 L 585 514.4190847095261 L 639 514.4190847095261 L 666 561.1844565138858 L 639 607.9498283182455 L 585 607.9498283182455 L 585 607.9498283182455 Z" stroke-linecap="round" stroke-miterlimit="10" stroke-dasharray=""/></g><g><path fill="none" stroke="#000000" paint-order="fill stroke markers" d=" M 522 498.83062744140625 L 549 452.06525563704656 L 603 452.06525563704656 L 630 498.83062744140625 L 603 545.5959992457659 L 549 545.5959992457659 L 522 498.83062744140625 L 522 498.83062744140625 Z" stroke-linecap="round" stroke-miterlimit="10" stroke-dasharray=""/></g><g><path fill="none" stroke="#000000" paint-order="fill stroke markers" d=" M 585 389.711426564567 L 639 389.711426564567 L 666 436.4767983689266 L 639 483.24217017328635 L 585 483.24217017328635 L 558 436.47679836892667 L 585 389.711426564567 L 585 389.711426564567 Z" stroke-linecap="round" stroke-miterlimit="10" stroke-dasharray=""/></g><g><path fill="none" stroke="#000000" paint-order="fill stroke markers" d=" M 711 389.711426564567 L 738 436.47679836892667 L 711 483.24217017328635 L 657 483.24217017328635 L 630 436.47679836892667 L 657 389.711426564567 L 711 389.711426564567 L 711 389.711426564567 Z" stroke-linecap="round" stroke-miterlimit="10" stroke-dasharray=""/></g></g><g><g><path fill="none" stroke="#000000" paint-order="fill stroke markers" d=" M 990 498.83062744140625 L 963 545.5959992457659 L 909 545.5959992457659 L 882 498.83062744140625 L 909 452.06525563704656 L 963 452.06525563704656 L 990 498.83062744140625 L 990 498.83062744140625 Z" stroke-linecap="round" stroke-miterlimit="10" stroke-dasharray=""/></g><g><path fill="none" stroke="#000000" paint-order="fill stroke markers" d=" M 927 607.9498283182455 L 873 607.9498283182455 L 846 561.1844565138858 L 873 514.4190847095261 L 927 514.4190847095261 L 954 561.1844565138858 L 927 607.9498283182455 L 927 607.9498283182455 Z" stroke-linecap="round" stroke-miterlimit="10" stroke-dasharray=""/></g><g><path fill="none" stroke="#000000" paint-order="fill stroke markers" d=" M 801 607.9498283182455 L 774 561.1844565138858 L 801 514.4190847095261 L 855 514.4190847095261 L 882 561.1844565138858 L 855 607.9498283182455 L 801 607.9498283182455 L 801 607.9498283182455 Z" stroke-linecap="round" stroke-miterlimit="10" stroke-dasharray=""/></g><g><path fill="none" stroke="#000000" paint-order="fill stroke markers" d=" M 738 498.83062744140625 L 765 452.06525563704656 L 819 452.06525563704656 L 846 498.83062744140625 L 819 545.5959992457659 L 765 545.5959992457659 L 738 498.83062744140625 L 738 498.83062744140625 Z" stroke-linecap="round" stroke-miterlimit="10" stroke-dasharray=""/></g><g><path fill="none" stroke="#000000" paint-order="fill stroke markers" d=" M 801 389.711426564567 L 855 389.711426564567 L 882 436.4767983689266 L 855 483.24217017328635 L 801 483.24217017328635 L 774 436.47679836892667 L 801 389.711426564567 L 801 389.711426564567 Z" stroke-linecap="round" stroke-miterlimit="10" stroke-dasharray=""/></g><g><path fill="none" stroke="#000000" paint-order="fill stroke markers" d=" M 927 389.711426564567 L 954 436.47679836892667 L 927 483.24217017328635 L 873 483.24217017328635 L 846 436.47679836892667 L 873 389.711426564567 L 927 389.711426564567 L 927 389.711426564567 Z" stroke-linecap="round" stroke-miterlimit="10" stroke-dasharray=""/></g></g><g><g><path fill="none" stroke="#000000" paint-order="fill stroke markers" d=" M 126 623.5382690429688 L 99 670.3036408473284 L 45.000000000000014 670.3036408473284 L 18 623.5382690429688 L 44.99999999999997 576.7728972386091 L 99 576.7728972386091 L 126 623.5382690429688 L 126 623.5382690429688 Z" stroke-linecap="round" stroke-miterlimit="10" stroke-dasharray=""/></g><g><path fill="none" stroke="#000000" paint-order="fill stroke markers" d=" M 63.000000000000014 732.657469919808 L 9.000000000000021 732.657469919808 L -17.999999999999993 685.8920981154483 L 8.999999999999993 639.1267263110886 L 62.99999999999998 639.1267263110886 L 90 685.8920981154483 L 63.000000000000014 732.657469919808 L 63.000000000000014 732.657469919808 Z" stroke-linecap="round" stroke-miterlimit="10" stroke-dasharray=""/></g><g><path fill="none" stroke="#000000" paint-order="fill stroke markers" d=" M -62.99999999999997 732.657469919808 L -89.99999999999999 685.8920981154483 L -63 639.1267263110886 L -9.000000000000004 639.1267263110886 L 18.000000000000014 685.8920981154483 L -8.999999999999986 732.657469919808 L -62.99999999999997 732.657469919808 L -62.99999999999997 732.657469919808 Z" stroke-linecap="round" stroke-miterlimit="10" stroke-dasharray=""/></g><g><path fill="none" stroke="#000000" paint-order="fill stroke markers" d=" M -126 623.5382690429688 L -99.00000000000001 576.7728972386091 L -45.000000000000014 576.7728972386091 L -18 623.5382690429688 L -44.99999999999997 670.3036408473284 L -99 670.3036408473284 L -126 623.5382690429688 L -126 623.5382690429688 Z" stroke-linecap="round" stroke-miterlimit="10" stroke-dasharray=""/></g><g><path fill="none" stroke="#000000" paint-order="fill stroke markers" d=" M -63.00000000000006 514.4190681661295 L -9.000000000000064 514.4190681661295 L 17.999999999999964 561.1844399704892 L -8.999999999999996 607.9498117748489 L -62.999999999999986 607.9498117748489 L -90.00000000000003 561.1844399704892 L -63.00000000000006 514.4190681661295 L -63.00000000000006 514.4190681661295 Z" stroke-linecap="round" stroke-miterlimit="10" stroke-dasharray=""/></g><g><path fill="none" stroke="#000000" paint-order="fill stroke markers" d=" M 63.000000000000014 514.4190681661295 L 90 561.1844399704892 L 63.00000000000001 607.9498117748489 L 9.000000000000007 607.9498117748489 L -17.999999999999993 561.1844399704892 L 9.000000000000021 514.4190681661295 L 63.000000000000014 514.4190681661295 L 63.000000000000014 514.4190681661295 Z" stroke-linecap="round" stroke-miterlimit="10" stroke-dasharray=""/></g></g><g><g><path fill="none" stroke="#000000" paint-order="fill stroke markers" d=" M 342 623.5382690429688 L 315 670.3036408473284 L 261 670.3036408473284 L 234 623.5382690429688 L 261 576.7728972386091 L 315 576.7728972386091 L 342 623.5382690429688 L 342 623.5382690429688 Z" stroke-linecap="round" stroke-miterlimit="10" stroke-dasharray=""/></g><g><path fill="none" stroke="#000000" paint-order="fill stroke markers" d=" M 279 732.657469919808 L 225 732.657469919808 L 198 685.8920981154483 L 225 639.1267263110886 L 279 639.1267263110886 L 306 685.8920981154483 L 279 732.657469919808 L 279 732.657469919808 Z" stroke-linecap="round" stroke-miterlimit="10" stroke-dasharray=""/></g><g><path fill="none" stroke="#000000" paint-order="fill stroke markers" d=" M 153 732.657469919808 L 126 685.8920981154483 L 152.99999999999997 639.1267263110886 L 206.99999999999997 639.1267263110886 L 234 685.8920981154483 L 207 732.657469919808 L 153 732.657469919808 L 153 732.657469919808 Z" stroke-linecap="round" stroke-miterlimit="10" stroke-dasharray=""/></g><g><path fill="none" stroke="#000000" paint-order="fill stroke markers" d=" M 90 623.5382690429688 L 116.99999999999999 576.7728972386091 L 170.99999999999997 576.7728972386091 L 198 623.5382690429688 L 171.00000000000003 670.3036408473284 L 117 670.3036408473284 L 90 623.5382690429688 L 90 623.5382690429688 Z" stroke-linecap="round" stroke-miterlimit="10" stroke-dasharray=""/></g><g><path fill="none" stroke="#000000" paint-order="fill stroke markers" d=" M 152.99999999999994 514.4190681661295 L 206.99999999999994 514.4190681661295 L 233.99999999999997 561.1844399704892 L 207 607.9498117748489 L 153.00000000000003 607.9498117748489 L 125.99999999999997 561.1844399704892 L 152.99999999999994 514.4190681661295 L 152.99999999999994 514.4190681661295 Z" stroke-linecap="round" stroke-miterlimit="10" stroke-dasharray=""/></g><g><path fill="none" stroke="#000000" paint-order="fill stroke markers" d=" M 279 514.4190681661295 L 306 561.1844399704892 L 279 607.9498117748489 L 225 607.9498117748489 L 198 561.1844399704892 L 225 514.4190681661295 L 279 514.4190681661295 L 279 514.4190681661295 Z" stroke-linecap="round" stroke-miterlimit="10" stroke-dasharray=""/></g></g><g><g><path fill="none" stroke="#000000" paint-order="fill stroke markers" d=" M 558 623.5382690429688 L 531 670.3036408473284 L 477 670.3036408473284 L 450 623.5382690429688 L 477 576.7728972386091 L 531 576.7728972386091 L 558 623.5382690429688 L 558 623.5382690429688 Z" stroke-linecap="round" stroke-miterlimit="10" stroke-dasharray=""/></g><g><path fill="none" stroke="#000000" paint-order="fill stroke markers" d=" M 495 732.657469919808 L 441 732.657469919808 L 414 685.8920981154483 L 441 639.1267263110886 L 495 639.1267263110886 L 522 685.8920981154483 L 495 732.657469919808 L 495 732.657469919808 Z" stroke-linecap="round" stroke-miterlimit="10" stroke-dasharray=""/></g><g><path fill="none" stroke="#000000" paint-order="fill stroke markers" d=" M 369 732.657469919808 L 342 685.8920981154483 L 369 639.1267263110886 L 423 639.1267263110886 L 450 685.8920981154483 L 423 732.657469919808 L 369 732.657469919808 L 369 732.657469919808 Z" stroke-linecap="round" stroke-miterlimit="10" stroke-dasharray=""/></g><g><path fill="none" stroke="#000000" paint-order="fill stroke markers" d=" M 306 623.5382690429688 L 333 576.7728972386091 L 387 576.7728972386091 L 414 623.5382690429688 L 387.00000000000006 670.3036408473284 L 333 670.3036408473284 L 306 623.5382690429688 L 306 623.5382690429688 Z" stroke-linecap="round" stroke-miterlimit="10" stroke-dasharray=""/></g><g><path fill="none" stroke="#000000" paint-order="fill stroke markers" d=" M 369 514.4190681661295 L 422.99999999999994 514.4190681661295 L 450 561.1844399704892 L 423.00000000000006 607.9498117748489 L 369.00000000000006 607.9498117748489 L 342 561.1844399704892 L 369 514.4190681661295 L 369 514.4190681661295 Z" stroke-linecap="round" stroke-miterlimit="10" stroke-dasharray=""/></g><g><path fill="none" stroke="#000000" paint-order="fill stroke markers" d=" M 495 514.4190681661295 L 522 561.1844399704892 L 495 607.9498117748489 L 441 607.9498117748489 L 414 561.1844399704892 L 441 514.4190681661295 L 495 514.4190681661295 L 495 514.4190681661295 Z" stroke-linecap="round" stroke-miterlimit="10" stroke-dasharray=""/></g></g><g><g><path fill="none" stroke="#000000" paint-order="fill stroke markers" d=" M 774 623.5382690429688 L 747 670.3036408473284 L 693 670.3036408473284 L 666 623.5382690429688 L 693 576.7728972386091 L 747 576.7728972386091 L 774 623.5382690429688 L 774 623.5382690429688 Z" stroke-linecap="round" stroke-miterlimit="10" stroke-dasharray=""/></g><g><path fill="none" stroke="#000000" paint-order="fill stroke markers" d=" M 711 732.657469919808 L 657 732.657469919808 L 630 685.8920981154483 L 657 639.1267263110886 L 711 639.1267263110886 L 738 685.8920981154483 L 711 732.657469919808 L 711 732.657469919808 Z" stroke-linecap="round" stroke-miterlimit="10" stroke-dasharray=""/></g><g><path fill="none" stroke="#000000" paint-order="fill stroke markers" d=" M 585 732.657469919808 L 558 685.8920981154483 L 585 639.1267263110886 L 639 639.1267263110886 L 666 685.8920981154483 L 639 732.657469919808 L 585 732.657469919808 L 585 732.657469919808 Z" stroke-linecap="round" stroke-miterlimit="10" stroke-dasharray=""/></g><g><path fill="none" stroke="#000000" paint-order="fill stroke markers" d=" M 522 623.5382690429688 L 549 576.7728972386091 L 603 576.7728972386091 L 630 623.5382690429688 L 603 670.3036408473284 L 549 670.3036408473284 L 522 623.5382690429688 L 522 623.5382690429688 Z" stroke-linecap="round" stroke-miterlimit="10" stroke-dasharray=""/></g><g><path fill="none" stroke="#000000" paint-order="fill stroke markers" d=" M 585 514.4190681661295 L 639 514.4190681661295 L 666 561.1844399704892 L 639 607.9498117748489 L 585 607.9498117748489 L 558 561.1844399704892 L 585 514.4190681661295 L 585 514.4190681661295 Z" stroke-linecap="round" stroke-miterlimit="10" stroke-dasharray=""/></g><g><path fill="none" stroke="#000000" paint-order="fill stroke markers" d=" M 711 514.4190681661295 L 738 561.1844399704892 L 711 607.9498117748489 L 657 607.9498117748489 L 630 561.1844399704892 L 657 514.4190681661295 L 711 514.4190681661295 L 711 514.4190681661295 Z" stroke-linecap="round" stroke-miterlimit="10" stroke-dasharray=""/></g></g><g><g><path fill="none" stroke="#000000" paint-order="fill stroke markers" d=" M 990 623.5382690429688 L 963 670.3036408473284 L 909 670.3036408473284 L 882 623.5382690429688 L 909 576.7728972386091 L 963 576.7728972386091 L 990 623.5382690429688 L 990 623.5382690429688 Z" stroke-linecap="round" stroke-miterlimit="10" stroke-dasharray=""/></g><g><path fill="none" stroke="#000000" paint-order="fill stroke markers" d=" M 927 732.657469919808 L 873 732.657469919808 L 846 685.8920981154483 L 873 639.1267263110886 L 927 639.1267263110886 L 954 685.8920981154483 L 927 732.657469919808 L 927 732.657469919808 Z" stroke-linecap="round" stroke-miterlimit="10" stroke-dasharray=""/></g><g><path fill="none" stroke="#000000" paint-order="fill stroke markers" d=" M 801 732.657469919808 L 774 685.8920981154483 L 801 639.1267263110886 L 855 639.1267263110886 L 882 685.8920981154483 L 855 732.657469919808 L 801 732.657469919808 L 801 732.657469919808 Z" stroke-linecap="round" stroke-miterlimit="10" stroke-dasharray=""/></g><g><path fill="none" stroke="#000000" paint-order="fill stroke markers" d=" M 738 623.5382690429688 L 765 576.7728972386091 L 819 576.7728972386091 L 846 623.5382690429688 L 819 670.3036408473284 L 765 670.3036408473284 L 738 623.5382690429688 L 738 623.5382690429688 Z" stroke-linecap="round" stroke-miterlimit="10" stroke-dasharray=""/></g><g><path fill="none" stroke="#000000" paint-order="fill stroke markers" d=" M 801 514.4190681661295 L 855 514.4190681661295 L 882 561.1844399704892 L 855 607.9498117748489 L 801 607.9498117748489 L 774 561.1844399704892 L 801 514.4190681661295 L 801 514.4190681661295 Z" stroke-linecap="round" stroke-miterlimit="10" stroke-dasharray=""/></g><g><path fill="none" stroke="#000000" paint-order="fill stroke markers" d=" M 927 514.4190681661295 L 954 561.1844399704892 L 927 607.9498117748489 L 873 607.9498117748489 L 846 561.1844399704892 L 873 514.4190681661295 L 927 514.4190681661295 L 927 514.4190681661295 Z" stroke-linecap="round" stroke-miterlimit="10" stroke-dasharray=""/></g></g><g><g><path fill="none" stroke="#000000" paint-order="fill stroke markers" d=" M 126 748.2459716796875 L 99 795.0113434840472 L 45.000000000000014 795.0113434840472 L 18 748.2459716796875 L 44.99999999999997 701.4805998753278 L 99 701.4805998753278 L 126 748.2459716796875 L 126 748.2459716796875 Z" stroke-linecap="round" stroke-miterlimit="10" stroke-dasharray=""/></g><g><path fill="none" stroke="#000000" paint-order="fill stroke markers" d=" M 63.000000000000014 857.3651725565268 L 9.000000000000021 857.3651725565268 L -17.999999999999993 810.5998007521671 L 8.999999999999993 763.8344289478074 L 62.99999999999998 763.8344289478074 L 90 810.5998007521671 L 63.000000000000014 857.3651725565268 L 63.000000000000014 857.3651725565268 Z" stroke-linecap="round" stroke-miterlimit="10" stroke-dasharray=""/></g><g><path fill="none" stroke="#000000" paint-order="fill stroke markers" d=" M -62.99999999999997 857.3651725565268 L -89.99999999999999 810.5998007521671 L -63 763.8344289478074 L -9.000000000000004 763.8344289478074 L 18.000000000000014 810.5998007521671 L -8.999999999999986 857.3651725565268 L -62.99999999999997 857.3651725565268 L -62.99999999999997 857.3651725565268 Z" stroke-linecap="round" stroke-miterlimit="10" stroke-dasharray=""/></g><g><path fill="none" stroke="#000000" paint-order="fill stroke markers" d=" M -126 748.2459716796875 L -99.00000000000001 701.4805998753278 L -45.000000000000014 701.4805998753278 L -18 748.2459716796875 L -44.99999999999997 795.0113434840472 L -99 795.0113434840472 L -126 748.2459716796875 L -126 748.2459716796875 Z" stroke-linecap="round" stroke-miterlimit="10" stroke-dasharray=""/></g><g><path fill="none" stroke="#000000" paint-order="fill stroke markers" d=" M -63.00000000000006 639.1267708028482 L -9.000000000000064 639.1267708028482 L 17.999999999999964 685.8921426072079 L -8.999999999999996 732.6575144115676 L -62.999999999999986 732.6575144115676 L -90.00000000000003 685.8921426072079 L -63.00000000000006 639.1267708028482 L -63.00000000000006 639.1267708028482 Z" stroke-linecap="round" stroke-miterlimit="10" stroke-dasharray=""/></g><g><path fill="none" stroke="#000000" paint-order="fill stroke markers" d=" M 63.000000000000014 639.1267708028482 L 90 685.8921426072079 L 63.00000000000001 732.6575144115676 L 9.000000000000007 732.6575144115676 L -17.999999999999993 685.8921426072079 L 9.000000000000021 639.1267708028482 L 63.000000000000014 639.1267708028482 L 63.000000000000014 639.1267708028482 Z" stroke-linecap="round" stroke-miterlimit="10" stroke-dasharray=""/></g></g><g><g><path fill="none" stroke="#000000" paint-order="fill stroke markers" d=" M 342 748.2459716796875 L 315 795.0113434840472 L 261 795.0113434840472 L 234 748.2459716796875 L 261 701.4805998753278 L 315 701.4805998753278 L 342 748.2459716796875 L 342 748.2459716796875 Z" stroke-linecap="round" stroke-miterlimit="10" stroke-dasharray=""/></g><g><path fill="none" stroke="#000000" paint-order="fill stroke markers" d=" M 279 857.3651725565268 L 225 857.3651725565268 L 198 810.5998007521671 L 225 763.8344289478074 L 279 763.8344289478074 L 306 810.5998007521671 L 279 857.3651725565268 L 279 857.3651725565268 Z" stroke-linecap="round" stroke-miterlimit="10" stroke-dasharray=""/></g><g><path fill="none" stroke="#000000" paint-order="fill stroke markers" d=" M 153 857.3651725565268 L 126 810.5998007521671 L 152.99999999999997 763.8344289478074 L 206.99999999999997 763.8344289478074 L 234 810.5998007521671 L 207 857.3651725565268 L 153 857.3651725565268 L 153 857.3651725565268 Z" stroke-linecap="round" stroke-miterlimit="10" stroke-dasharray=""/></g><g><path fill="none" stroke="#000000" paint-order="fill stroke markers" d=" M 90 748.2459716796875 L 116.99999999999999 701.4805998753278 L 170.99999999999997 701.4805998753278 L 198 748.2459716796875 L 171.00000000000003 795.0113434840472 L 117 795.0113434840472 L 90 748.2459716796875 L 90 748.2459716796875 Z" stroke-linecap="round" stroke-miterlimit="10" stroke-dasharray=""/></g><g><path fill="none" stroke="#000000" paint-order="fill stroke markers" d=" M 152.99999999999994 639.1267708028482 L 206.99999999999994 639.1267708028482 L 233.99999999999997 685.8921426072079 L 207 732.6575144115676 L 153.00000000000003 732.6575144115676 L 125.99999999999997 685.8921426072079 L 152.99999999999994 639.1267708028482 L 152.99999999999994 639.1267708028482 Z" stroke-linecap="round" stroke-miterlimit="10" stroke-dasharray=""/></g><g><path fill="none" stroke="#000000" paint-order="fill stroke markers" d=" M 279 639.1267708028482 L 306 685.8921426072079 L 279 732.6575144115676 L 225 732.6575144115676 L 198 685.8921426072079 L 225 639.1267708028482 L 279 639.1267708028482 L 279 639.1267708028482 Z" stroke-linecap="round" stroke-miterlimit="10" stroke-dasharray=""/></g></g><g><g><path fill="none" stroke="#000000" paint-order="fill stroke markers" d=" M 558 748.2459716796875 L 531 795.0113434840472 L 477 795.0113434840472 L 450 748.2459716796875 L 477 701.4805998753278 L 531 701.4805998753278 L 558 748.2459716796875 L 558 748.2459716796875 Z" stroke-linecap="round" stroke-miterlimit="10" stroke-dasharray=""/></g><g><path fill="none" stroke="#000000" paint-order="fill stroke markers" d=" M 495 857.3651725565268 L 441 857.3651725565268 L 414 810.5998007521671 L 441 763.8344289478074 L 495 763.8344289478074 L 522 810.5998007521671 L 495 857.3651725565268 L 495 857.3651725565268 Z" stroke-linecap="round" stroke-miterlimit="10" stroke-dasharray=""/></g><g><path fill="none" stroke="#000000" paint-order="fill stroke markers" d=" M 369 857.3651725565268 L 342 810.5998007521671 L 369 763.8344289478074 L 423 763.8344289478074 L 450 810.5998007521671 L 423 857.3651725565268 L 369 857.3651725565268 L 369 857.3651725565268 Z" stroke-linecap="round" stroke-miterlimit="10" stroke-dasharray=""/></g><g><path fill="none" stroke="#000000" paint-order="fill stroke markers" d=" M 306 748.2459716796875 L 333 701.4805998753278 L 387 701.4805998753278 L 414 748.2459716796875 L 387.00000000000006 795.0113434840472 L 333 795.0113434840472 L 306 748.2459716796875 L 306 748.2459716796875 Z" stroke-linecap="round" stroke-miterlimit="10" stroke-dasharray=""/></g><g><path fill="none" stroke="#000000" paint-order="fill stroke markers" d=" M 369 639.1267708028482 L 422.99999999999994 639.1267708028482 L 450 685.8921426072079 L 423.00000000000006 732.6575144115676 L 369.00000000000006 732.6575144115676 L 342 685.8921426072079 L 369 639.1267708028482 L 369 639.1267708028482 Z" stroke-linecap="round" stroke-miterlimit="10" stroke-dasharray=""/></g><g><path fill="none" stroke="#000000" paint-order="fill stroke markers" d=" M 495 639.1267708028482 L 522 685.8921426072079 L 495 732.6575144115676 L 441 732.6575144115676 L 414 685.8921426072079 L 441 639.1267708028482 L 495 639.1267708028482 L 495 639.1267708028482 Z" stroke-linecap="round" stroke-miterlimit="10" stroke-dasharray=""/></g></g><g><g><path fill="none" stroke="#000000" paint-order="fill stroke markers" d=" M 774 748.2459716796875 L 747 795.0113434840472 L 693 795.0113434840472 L 666 748.2459716796875 L 693 701.4805998753278 L 747 701.4805998753278 L 774 748.2459716796875 L 774 748.2459716796875 Z" stroke-linecap="round" stroke-miterlimit="10" stroke-dasharray=""/></g><g><path fill="none" stroke="#000000" paint-order="fill stroke markers" d=" M 711 857.3651725565268 L 657 857.3651725565268 L 630 810.5998007521671 L 657 763.8344289478074 L 711 763.8344289478074 L 738 810.5998007521671 L 711 857.3651725565268 L 711 857.3651725565268 Z" stroke-linecap="round" stroke-miterlimit="10" stroke-dasharray=""/></g><g><path fill="none" stroke="#000000" paint-order="fill stroke markers" d=" M 585 857.3651725565268 L 558 810.5998007521671 L 585 763.8344289478074 L 639 763.8344289478074 L 666 810.5998007521671 L 639 857.3651725565268 L 585 857.3651725565268 L 585 857.3651725565268 Z" stroke-linecap="round" stroke-miterlimit="10" stroke-dasharray=""/></g><g><path fill="none" stroke="#000000" paint-order="fill stroke markers" d=" M 522 748.2459716796875 L 549 701.4805998753278 L 603 701.4805998753278 L 630 748.2459716796875 L 603 795.0113434840472 L 549 795.0113434840472 L 522 748.2459716796875 L 522 748.2459716796875 Z" stroke-linecap="round" stroke-miterlimit="10" stroke-dasharray=""/></g><g><path fill="none" stroke="#000000" paint-order="fill stroke markers" d=" M 585 639.1267708028482 L 639 639.1267708028482 L 666 685.8921426072079 L 639 732.6575144115676 L 585 732.6575144115676 L 558 685.8921426072079 L 585 639.1267708028482 L 585 639.1267708028482 Z" stroke-linecap="round" stroke-miterlimit="10" stroke-dasharray=""/></g><g><path fill="none" stroke="#000000" paint-order="fill stroke markers" d=" M 711 639.1267708028482 L 738 685.8921426072079 L 711 732.6575144115676 L 657 732.6575144115676 L 630 685.8921426072079 L 657 639.1267708028482 L 711 639.1267708028482 L 711 639.1267708028482 Z" stroke-linecap="round" stroke-miterlimit="10" stroke-dasharray=""/></g></g><g><g><path fill="none" stroke="#000000" paint-order="fill stroke markers" d=" M 990 748.2459716796875 L 963 795.0113434840472 L 909 795.0113434840472 L 882 748.2459716796875 L 909 701.4805998753278 L 963 701.4805998753278 L 990 748.2459716796875 L 990 748.2459716796875 Z" stroke-linecap="round" stroke-miterlimit="10" stroke-dasharray=""/></g><g><path fill="none" stroke="#000000" paint-order="fill stroke markers" d=" M 927 857.3651725565268 L 873 857.3651725565268 L 846 810.5998007521671 L 873 763.8344289478074 L 927 763.8344289478074 L 954 810.5998007521671 L 927 857.3651725565268 L 927 857.3651725565268 Z" stroke-linecap="round" stroke-miterlimit="10" stroke-dasharray=""/></g><g><path fill="none" stroke="#000000" paint-order="fill stroke markers" d=" M 801 857.3651725565268 L 774 810.5998007521671 L 801 763.8344289478074 L 855 763.8344289478074 L 882 810.5998007521671 L 855 857.3651725565268 L 801 857.3651725565268 L 801 857.3651725565268 Z" stroke-linecap="round" stroke-miterlimit="10" stroke-dasharray=""/></g><g><path fill="none" stroke="#000000" paint-order="fill stroke markers" d=" M 738 748.2459716796875 L 765 701.4805998753278 L 819 701.4805998753278 L 846 748.2459716796875 L 819 795.0113434840472 L 765 795.0113434840472 L 738 748.2459716796875 L 738 748.2459716796875 Z" stroke-linecap="round" stroke-miterlimit="10" stroke-dasharray=""/></g><g><path fill="none" stroke="#000000" paint-order="fill stroke markers" d=" M 801 639.1267708028482 L 855 639.1267708028482 L 882 685.8921426072079 L 855 732.6575144115676 L 801 732.6575144115676 L 774 685.8921426072079 L 801 639.1267708028482 L 801 639.1267708028482 Z" stroke-linecap="round" stroke-miterlimit="10" stroke-dasharray=""/></g><g><path fill="none" stroke="#000000" paint-order="fill stroke markers" d=" M 927 639.1267708028482 L 954 685.8921426072079 L 927 732.6575144115676 L 873 732.6575144115676 L 846 685.8921426072079 L 873 639.1267708028482 L 927 639.1267708028482 L 927 639.1267708028482 Z" stroke-linecap="round" stroke-miterlimit="10" stroke-dasharray=""/></g></g></g></g></svg>