<?xml version="1.0" encoding="utf-8"?>
<!-- Generator: Adobe Illustrator 27.7.0, SVG Export Plug-In . SVG Version: 6.00 Build 0)  -->
<svg version="1.1" xmlns="http://www.w3.org/2000/svg" xmlns:xlink="http://www.w3.org/1999/xlink" x="0px" y="0px"
	 viewBox="0 0 400 400" style="enable-background:new 0 0 400 400;" xml:space="preserve">
<style type="text/css">
	.st0{fill:#FFFFFF;}
	.st1{fill:none;stroke:#000000;stroke-linecap:round;stroke-miterlimit:10;}
</style>
<g id="Layer_2">
	<rect class="st0" width="400" height="400"/>
</g>
<g id="Layer_1">
	<g>
		<g>
			<g>
				<path class="st1" d="M340,200l-30,52h-60l-30-52l30-52h60L340,200L340,200z"/>
			</g>
			<g>
				<path class="st1" d="M270,321.2h-60l-30-52l30-52h60l30,52L270,321.2L270,321.2z"/>
			</g>
			<g>
				<path class="st1" d="M130,321.2l-30-52l30-52h60l30,52l-30,52H130L130,321.2z"/>
			</g>
			<g>
				<path class="st1" d="M60,200l30-52h60l30,52l-30,52H90L60,200L60,200z"/>
			</g>
			<g>
				<path class="st1" d="M130,78.8h60l30,52l-30,52h-60l-30-52L130,78.8L130,78.8z"/>
			</g>
			<g>
				<path class="st1" d="M270,78.8l30,52l-30,52h-60l-30-52l30-52H270L270,78.8z"/>
			</g>
		</g>
	</g>
</g>
</svg>
