<?xml version="1.0" encoding="utf-8"?>
<!-- Generator: Adobe Illustrator 27.7.0, SVG Export Plug-In . SVG Version: 6.00 Build 0)  -->
<svg version="1.1" xmlns="http://www.w3.org/2000/svg" xmlns:xlink="http://www.w3.org/1999/xlink" x="0px" y="0px"
	 viewBox="0 0 800 800" style="enable-background:new 0 0 800 800;" xml:space="preserve">
<style type="text/css">
	.st0{fill:#FFFFFF;}
	.st1{fill:none;stroke:#000000;stroke-linecap:round;stroke-miterlimit:10;}
</style>
<g id="Layer_2">
	<rect class="st0" width="800" height="800"/>
</g>
<g id="Layer_1">
	<g>
		<g>
			<g>
				<g>
					<path class="st1" d="M126,0L99,46.8H45L18,0l27-46.8h54L126,0L126,0z"/>
				</g>
				<g>
					<path class="st1" d="M63,109.1H9l-27-46.8L9,15.6h54l27,46.8L63,109.1L63,109.1z"/>
				</g>
				<g>
					<path class="st1" d="M-63,109.1l-27-46.8l27-46.8h54l27,46.8l-27,46.8H-63L-63,109.1z"/>
				</g>
				<g>
					<path class="st1" d="M-126,0l27-46.8h54L-18,0l-27,46.8h-54L-126,0L-126,0z"/>
				</g>
				<g>
					<path class="st1" d="M-63-109.1h54l27,46.8L-9-15.6h-54l-27-46.8L-63-109.1L-63-109.1z"/>
				</g>
				<g>
					<path class="st1" d="M63-109.1l27,46.8L63-15.6H9l-27-46.8l27-46.8H63L63-109.1z"/>
				</g>
			</g>
			<g>
				<g>
					<path class="st1" d="M342,0l-27,46.8h-54L234,0l27-46.8h54L342,0L342,0z"/>
				</g>
				<g>
					<path class="st1" d="M279,109.1h-54l-27-46.8l27-46.8h54l27,46.8L279,109.1L279,109.1z"/>
				</g>
				<g>
					<path class="st1" d="M153,109.1l-27-46.8l27-46.8h54l27,46.8l-27,46.8H153L153,109.1z"/>
				</g>
				<g>
					<path class="st1" d="M90,0l27-46.8h54L198,0l-27,46.8h-54L90,0L90,0z"/>
				</g>
				<g>
					<path class="st1" d="M153-109.1h54l27,46.8l-27,46.8h-54l-27-46.8L153-109.1L153-109.1z"/>
				</g>
				<g>
					<path class="st1" d="M279-109.1l27,46.8l-27,46.8h-54l-27-46.8l27-46.8H279L279-109.1z"/>
				</g>
			</g>
			<g>
				<g>
					<path class="st1" d="M558,0l-27,46.8h-54L450,0l27-46.8h54L558,0L558,0z"/>
				</g>
				<g>
					<path class="st1" d="M495,109.1h-54l-27-46.8l27-46.8h54l27,46.8L495,109.1L495,109.1z"/>
				</g>
				<g>
					<path class="st1" d="M369,109.1l-27-46.8l27-46.8h54l27,46.8l-27,46.8H369L369,109.1z"/>
				</g>
				<g>
					<path class="st1" d="M306,0l27-46.8h54L414,0l-27,46.8h-54L306,0L306,0z"/>
				</g>
				<g>
					<path class="st1" d="M369-109.1h54l27,46.8l-27,46.8h-54l-27-46.8L369-109.1L369-109.1z"/>
				</g>
				<g>
					<path class="st1" d="M495-109.1l27,46.8l-27,46.8h-54l-27-46.8l27-46.8H495L495-109.1z"/>
				</g>
			</g>
			<g>
				<g>
					<path class="st1" d="M774,0l-27,46.8h-54L666,0l27-46.8h54L774,0L774,0z"/>
				</g>
				<g>
					<path class="st1" d="M711,109.1h-54l-27-46.8l27-46.8h54l27,46.8L711,109.1L711,109.1z"/>
				</g>
				<g>
					<path class="st1" d="M585,109.1l-27-46.8l27-46.8h54l27,46.8l-27,46.8H585L585,109.1z"/>
				</g>
				<g>
					<path class="st1" d="M522,0l27-46.8h54L630,0l-27,46.8h-54L522,0L522,0z"/>
				</g>
				<g>
					<path class="st1" d="M585-109.1h54l27,46.8l-27,46.8h-54l-27-46.8L585-109.1L585-109.1z"/>
				</g>
				<g>
					<path class="st1" d="M711-109.1l27,46.8l-27,46.8h-54l-27-46.8l27-46.8H711L711-109.1z"/>
				</g>
			</g>
			<g>
				<g>
					<path class="st1" d="M990,0l-27,46.8h-54L882,0l27-46.8h54L990,0L990,0z"/>
				</g>
				<g>
					<path class="st1" d="M927,109.1h-54l-27-46.8l27-46.8h54l27,46.8L927,109.1L927,109.1z"/>
				</g>
				<g>
					<path class="st1" d="M801,109.1l-27-46.8l27-46.8h54l27,46.8l-27,46.8H801L801,109.1z"/>
				</g>
				<g>
					<path class="st1" d="M738,0l27-46.8h54L846,0l-27,46.8h-54L738,0L738,0z"/>
				</g>
				<g>
					<path class="st1" d="M801-109.1h54l27,46.8l-27,46.8h-54l-27-46.8L801-109.1L801-109.1z"/>
				</g>
				<g>
					<path class="st1" d="M927-109.1l27,46.8l-27,46.8h-54l-27-46.8l27-46.8H927L927-109.1z"/>
				</g>
			</g>
			<g>
				<g>
					<path class="st1" d="M126,124.7l-27,46.8H45l-27-46.8l27-46.8h54L126,124.7L126,124.7z"/>
				</g>
				<g>
					<path class="st1" d="M63,233.8H9l-27-46.8l27-46.8h54l27,46.8L63,233.8L63,233.8z"/>
				</g>
				<g>
					<path class="st1" d="M-63,233.8l-27-46.8l27-46.8h54l27,46.8l-27,46.8H-63L-63,233.8z"/>
				</g>
				<g>
					<path class="st1" d="M-126,124.7l27-46.8h54l27,46.8l-27,46.8h-54L-126,124.7L-126,124.7z"/>
				</g>
				<g>
					<path class="st1" d="M-63,15.6h54l27,46.8l-27,46.8h-54l-27-46.8L-63,15.6L-63,15.6z"/>
				</g>
				<g>
					<path class="st1" d="M63,15.6l27,46.8l-27,46.8H9l-27-46.8L9,15.6H63L63,15.6z"/>
				</g>
			</g>
			<g>
				<g>
					<path class="st1" d="M342,124.7l-27,46.8h-54l-27-46.8l27-46.8h54L342,124.7L342,124.7z"/>
				</g>
				<g>
					<path class="st1" d="M279,233.8h-54l-27-46.8l27-46.8h54l27,46.8L279,233.8L279,233.8z"/>
				</g>
				<g>
					<path class="st1" d="M153,233.8l-27-46.8l27-46.8h54l27,46.8l-27,46.8H153L153,233.8z"/>
				</g>
				<g>
					<path class="st1" d="M90,124.7l27-46.8h54l27,46.8l-27,46.8h-54L90,124.7L90,124.7z"/>
				</g>
				<g>
					<path class="st1" d="M153,15.6h54l27,46.8l-27,46.8h-54l-27-46.8L153,15.6L153,15.6z"/>
				</g>
				<g>
					<path class="st1" d="M279,15.6l27,46.8l-27,46.8h-54l-27-46.8l27-46.8H279L279,15.6z"/>
				</g>
			</g>
			<g>
				<g>
					<path class="st1" d="M558,124.7l-27,46.8h-54l-27-46.8l27-46.8h54L558,124.7L558,124.7z"/>
				</g>
				<g>
					<path class="st1" d="M495,233.8h-54l-27-46.8l27-46.8h54l27,46.8L495,233.8L495,233.8z"/>
				</g>
				<g>
					<path class="st1" d="M369,233.8l-27-46.8l27-46.8h54l27,46.8l-27,46.8H369L369,233.8z"/>
				</g>
				<g>
					<path class="st1" d="M306,124.7l27-46.8h54l27,46.8l-27,46.8h-54L306,124.7L306,124.7z"/>
				</g>
				<g>
					<path class="st1" d="M369,15.6h54l27,46.8l-27,46.8h-54l-27-46.8L369,15.6L369,15.6z"/>
				</g>
				<g>
					<path class="st1" d="M495,15.6l27,46.8l-27,46.8h-54l-27-46.8l27-46.8H495L495,15.6z"/>
				</g>
			</g>
			<g>
				<g>
					<path class="st1" d="M774,124.7l-27,46.8h-54l-27-46.8l27-46.8h54L774,124.7L774,124.7z"/>
				</g>
				<g>
					<path class="st1" d="M711,233.8h-54l-27-46.8l27-46.8h54l27,46.8L711,233.8L711,233.8z"/>
				</g>
				<g>
					<path class="st1" d="M585,233.8l-27-46.8l27-46.8h54l27,46.8l-27,46.8H585L585,233.8z"/>
				</g>
				<g>
					<path class="st1" d="M522,124.7l27-46.8h54l27,46.8l-27,46.8h-54L522,124.7L522,124.7z"/>
				</g>
				<g>
					<path class="st1" d="M585,15.6h54l27,46.8l-27,46.8h-54l-27-46.8L585,15.6L585,15.6z"/>
				</g>
				<g>
					<path class="st1" d="M711,15.6l27,46.8l-27,46.8h-54l-27-46.8l27-46.8H711L711,15.6z"/>
				</g>
			</g>
			<g>
				<g>
					<path class="st1" d="M990,124.7l-27,46.8h-54l-27-46.8l27-46.8h54L990,124.7L990,124.7z"/>
				</g>
				<g>
					<path class="st1" d="M927,233.8h-54l-27-46.8l27-46.8h54l27,46.8L927,233.8L927,233.8z"/>
				</g>
				<g>
					<path class="st1" d="M801,233.8l-27-46.8l27-46.8h54l27,46.8l-27,46.8H801L801,233.8z"/>
				</g>
				<g>
					<path class="st1" d="M738,124.7l27-46.8h54l27,46.8l-27,46.8h-54L738,124.7L738,124.7z"/>
				</g>
				<g>
					<path class="st1" d="M801,15.6h54l27,46.8l-27,46.8h-54l-27-46.8L801,15.6L801,15.6z"/>
				</g>
				<g>
					<path class="st1" d="M927,15.6l27,46.8l-27,46.8h-54l-27-46.8l27-46.8H927L927,15.6z"/>
				</g>
			</g>
			<g>
				<g>
					<path class="st1" d="M126,249.4l-27,46.8H45l-27-46.8l27-46.8h54L126,249.4L126,249.4z"/>
				</g>
				<g>
					<path class="st1" d="M63,358.5H9l-27-46.8L9,265h54l27,46.8L63,358.5L63,358.5z"/>
				</g>
				<g>
					<path class="st1" d="M-63,358.5l-27-46.8l27-46.8h54l27,46.8l-27,46.8H-63L-63,358.5z"/>
				</g>
				<g>
					<path class="st1" d="M-126,249.4l27-46.8h54l27,46.8l-27,46.8h-54L-126,249.4L-126,249.4z"/>
				</g>
				<g>
					<path class="st1" d="M-63,140.3h54l27,46.8l-27,46.8h-54l-27-46.8L-63,140.3L-63,140.3z"/>
				</g>
				<g>
					<path class="st1" d="M63,140.3l27,46.8l-27,46.8H9l-27-46.8l27-46.8H63L63,140.3z"/>
				</g>
			</g>
			<g>
				<g>
					<path class="st1" d="M342,249.4l-27,46.8h-54l-27-46.8l27-46.8h54L342,249.4L342,249.4z"/>
				</g>
				<g>
					<path class="st1" d="M279,358.5h-54l-27-46.8l27-46.8h54l27,46.8L279,358.5L279,358.5z"/>
				</g>
				<g>
					<path class="st1" d="M153,358.5l-27-46.8l27-46.8h54l27,46.8l-27,46.8H153L153,358.5z"/>
				</g>
				<g>
					<path class="st1" d="M90,249.4l27-46.8h54l27,46.8l-27,46.8h-54L90,249.4L90,249.4z"/>
				</g>
				<g>
					<path class="st1" d="M153,140.3h54l27,46.8l-27,46.8h-54l-27-46.8L153,140.3L153,140.3z"/>
				</g>
				<g>
					<path class="st1" d="M279,140.3l27,46.8l-27,46.8h-54l-27-46.8l27-46.8H279L279,140.3z"/>
				</g>
			</g>
			<g>
				<g>
					<path class="st1" d="M558,249.4l-27,46.8h-54l-27-46.8l27-46.8h54L558,249.4L558,249.4z"/>
				</g>
				<g>
					<path class="st1" d="M495,358.5h-54l-27-46.8l27-46.8h54l27,46.8L495,358.5L495,358.5z"/>
				</g>
				<g>
					<path class="st1" d="M369,358.5l-27-46.8l27-46.8h54l27,46.8l-27,46.8H369L369,358.5z"/>
				</g>
				<g>
					<path class="st1" d="M306,249.4l27-46.8h54l27,46.8l-27,46.8h-54L306,249.4L306,249.4z"/>
				</g>
				<g>
					<path class="st1" d="M369,140.3h54l27,46.8l-27,46.8h-54l-27-46.8L369,140.3L369,140.3z"/>
				</g>
				<g>
					<path class="st1" d="M495,140.3l27,46.8l-27,46.8h-54l-27-46.8l27-46.8H495L495,140.3z"/>
				</g>
			</g>
			<g>
				<g>
					<path class="st1" d="M774,249.4l-27,46.8h-54l-27-46.8l27-46.8h54L774,249.4L774,249.4z"/>
				</g>
				<g>
					<path class="st1" d="M711,358.5h-54l-27-46.8l27-46.8h54l27,46.8L711,358.5L711,358.5z"/>
				</g>
				<g>
					<path class="st1" d="M585,358.5l-27-46.8l27-46.8h54l27,46.8l-27,46.8H585L585,358.5z"/>
				</g>
				<g>
					<path class="st1" d="M522,249.4l27-46.8h54l27,46.8l-27,46.8h-54L522,249.4L522,249.4z"/>
				</g>
				<g>
					<path class="st1" d="M585,140.3h54l27,46.8l-27,46.8h-54l-27-46.8L585,140.3L585,140.3z"/>
				</g>
				<g>
					<path class="st1" d="M711,140.3l27,46.8l-27,46.8h-54l-27-46.8l27-46.8H711L711,140.3z"/>
				</g>
			</g>
			<g>
				<g>
					<path class="st1" d="M990,249.4l-27,46.8h-54l-27-46.8l27-46.8h54L990,249.4L990,249.4z"/>
				</g>
				<g>
					<path class="st1" d="M927,358.5h-54l-27-46.8l27-46.8h54l27,46.8L927,358.5L927,358.5z"/>
				</g>
				<g>
					<path class="st1" d="M801,358.5l-27-46.8l27-46.8h54l27,46.8l-27,46.8H801L801,358.5z"/>
				</g>
				<g>
					<path class="st1" d="M738,249.4l27-46.8h54l27,46.8l-27,46.8h-54L738,249.4L738,249.4z"/>
				</g>
				<g>
					<path class="st1" d="M801,140.3h54l27,46.8l-27,46.8h-54l-27-46.8L801,140.3L801,140.3z"/>
				</g>
				<g>
					<path class="st1" d="M927,140.3l27,46.8l-27,46.8h-54l-27-46.8l27-46.8H927L927,140.3z"/>
				</g>
			</g>
			<g>
				<g>
					<path class="st1" d="M126,374.1l-27,46.8H45l-27-46.8l27-46.8h54L126,374.1L126,374.1z"/>
				</g>
				<g>
					<path class="st1" d="M63,483.2H9l-27-46.8l27-46.8h54l27,46.8L63,483.2L63,483.2z"/>
				</g>
				<g>
					<path class="st1" d="M-63,483.2l-27-46.8l27-46.8h54l27,46.8l-27,46.8H-63L-63,483.2z"/>
				</g>
				<g>
					<path class="st1" d="M-126,374.1l27-46.8h54l27,46.8l-27,46.8h-54L-126,374.1L-126,374.1z"/>
				</g>
				<g>
					<path class="st1" d="M-63,265h54l27,46.8l-27,46.8h-54l-27-46.8L-63,265L-63,265z"/>
				</g>
				<g>
					<path class="st1" d="M63,265l27,46.8l-27,46.8H9l-27-46.8L9,265H63L63,265z"/>
				</g>
			</g>
			<g>
				<g>
					<path class="st1" d="M342,374.1l-27,46.8h-54l-27-46.8l27-46.8h54L342,374.1L342,374.1z"/>
				</g>
				<g>
					<path class="st1" d="M279,483.2h-54l-27-46.8l27-46.8h54l27,46.8L279,483.2L279,483.2z"/>
				</g>
				<g>
					<path class="st1" d="M153,483.2l-27-46.8l27-46.8h54l27,46.8l-27,46.8H153L153,483.2z"/>
				</g>
				<g>
					<path class="st1" d="M90,374.1l27-46.8h54l27,46.8l-27,46.8h-54L90,374.1L90,374.1z"/>
				</g>
				<g>
					<path class="st1" d="M153,265h54l27,46.8l-27,46.8h-54l-27-46.8L153,265L153,265z"/>
				</g>
				<g>
					<path class="st1" d="M279,265l27,46.8l-27,46.8h-54l-27-46.8l27-46.8H279L279,265z"/>
				</g>
			</g>
			<g>
				<g>
					<path class="st1" d="M558,374.1l-27,46.8h-54l-27-46.8l27-46.8h54L558,374.1L558,374.1z"/>
				</g>
				<g>
					<path class="st1" d="M495,483.2h-54l-27-46.8l27-46.8h54l27,46.8L495,483.2L495,483.2z"/>
				</g>
				<g>
					<path class="st1" d="M369,483.2l-27-46.8l27-46.8h54l27,46.8l-27,46.8H369L369,483.2z"/>
				</g>
				<g>
					<path class="st1" d="M306,374.1l27-46.8h54l27,46.8l-27,46.8h-54L306,374.1L306,374.1z"/>
				</g>
				<g>
					<path class="st1" d="M369,265h54l27,46.8l-27,46.8h-54l-27-46.8L369,265L369,265z"/>
				</g>
				<g>
					<path class="st1" d="M495,265l27,46.8l-27,46.8h-54l-27-46.8l27-46.8H495L495,265z"/>
				</g>
			</g>
			<g>
				<g>
					<path class="st1" d="M774,374.1l-27,46.8h-54l-27-46.8l27-46.8h54L774,374.1L774,374.1z"/>
				</g>
				<g>
					<path class="st1" d="M711,483.2h-54l-27-46.8l27-46.8h54l27,46.8L711,483.2L711,483.2z"/>
				</g>
				<g>
					<path class="st1" d="M585,483.2l-27-46.8l27-46.8h54l27,46.8l-27,46.8H585L585,483.2z"/>
				</g>
				<g>
					<path class="st1" d="M522,374.1l27-46.8h54l27,46.8l-27,46.8h-54L522,374.1L522,374.1z"/>
				</g>
				<g>
					<path class="st1" d="M585,265h54l27,46.8l-27,46.8h-54l-27-46.8L585,265L585,265z"/>
				</g>
				<g>
					<path class="st1" d="M711,265l27,46.8l-27,46.8h-54l-27-46.8l27-46.8H711L711,265z"/>
				</g>
			</g>
			<g>
				<g>
					<path class="st1" d="M990,374.1l-27,46.8h-54l-27-46.8l27-46.8h54L990,374.1L990,374.1z"/>
				</g>
				<g>
					<path class="st1" d="M927,483.2h-54l-27-46.8l27-46.8h54l27,46.8L927,483.2L927,483.2z"/>
				</g>
				<g>
					<path class="st1" d="M801,483.2l-27-46.8l27-46.8h54l27,46.8l-27,46.8H801L801,483.2z"/>
				</g>
				<g>
					<path class="st1" d="M738,374.1l27-46.8h54l27,46.8l-27,46.8h-54L738,374.1L738,374.1z"/>
				</g>
				<g>
					<path class="st1" d="M801,265h54l27,46.8l-27,46.8h-54l-27-46.8L801,265L801,265z"/>
				</g>
				<g>
					<path class="st1" d="M927,265l27,46.8l-27,46.8h-54l-27-46.8l27-46.8H927L927,265z"/>
				</g>
			</g>
			<g>
				<g>
					<path class="st1" d="M126,498.8l-27,46.8H45l-27-46.8l27-46.8h54L126,498.8L126,498.8z"/>
				</g>
				<g>
					<path class="st1" d="M63,607.9H9l-27-46.8l27-46.8h54l27,46.8L63,607.9L63,607.9z"/>
				</g>
				<g>
					<path class="st1" d="M-63,607.9l-27-46.8l27-46.8h54l27,46.8l-27,46.8H-63L-63,607.9z"/>
				</g>
				<g>
					<path class="st1" d="M-126,498.8l27-46.8h54l27,46.8l-27,46.8h-54L-126,498.8L-126,498.8z"/>
				</g>
				<g>
					<path class="st1" d="M-63,389.7h54l27,46.8l-27,46.8h-54l-27-46.8L-63,389.7L-63,389.7z"/>
				</g>
				<g>
					<path class="st1" d="M63,389.7l27,46.8l-27,46.8H9l-27-46.8l27-46.8H63L63,389.7z"/>
				</g>
			</g>
			<g>
				<g>
					<path class="st1" d="M342,498.8l-27,46.8h-54l-27-46.8l27-46.8h54L342,498.8L342,498.8z"/>
				</g>
				<g>
					<path class="st1" d="M279,607.9h-54l-27-46.8l27-46.8h54l27,46.8L279,607.9L279,607.9z"/>
				</g>
				<g>
					<path class="st1" d="M153,607.9l-27-46.8l27-46.8h54l27,46.8l-27,46.8H153L153,607.9z"/>
				</g>
				<g>
					<path class="st1" d="M90,498.8l27-46.8h54l27,46.8l-27,46.8h-54L90,498.8L90,498.8z"/>
				</g>
				<g>
					<path class="st1" d="M153,389.7h54l27,46.8l-27,46.8h-54l-27-46.8L153,389.7L153,389.7z"/>
				</g>
				<g>
					<path class="st1" d="M279,389.7l27,46.8l-27,46.8h-54l-27-46.8l27-46.8H279L279,389.7z"/>
				</g>
			</g>
			<g>
				<g>
					<path class="st1" d="M558,498.8l-27,46.8h-54l-27-46.8l27-46.8h54L558,498.8L558,498.8z"/>
				</g>
				<g>
					<path class="st1" d="M495,607.9h-54l-27-46.8l27-46.8h54l27,46.8L495,607.9L495,607.9z"/>
				</g>
				<g>
					<path class="st1" d="M369,607.9l-27-46.8l27-46.8h54l27,46.8l-27,46.8H369L369,607.9z"/>
				</g>
				<g>
					<path class="st1" d="M306,498.8l27-46.8h54l27,46.8l-27,46.8h-54L306,498.8L306,498.8z"/>
				</g>
				<g>
					<path class="st1" d="M369,389.7h54l27,46.8l-27,46.8h-54l-27-46.8L369,389.7L369,389.7z"/>
				</g>
				<g>
					<path class="st1" d="M495,389.7l27,46.8l-27,46.8h-54l-27-46.8l27-46.8H495L495,389.7z"/>
				</g>
			</g>
			<g>
				<g>
					<path class="st1" d="M774,498.8l-27,46.8h-54l-27-46.8l27-46.8h54L774,498.8L774,498.8z"/>
				</g>
				<g>
					<path class="st1" d="M711,607.9h-54l-27-46.8l27-46.8h54l27,46.8L711,607.9L711,607.9z"/>
				</g>
				<g>
					<path class="st1" d="M585,607.9l-27-46.8l27-46.8h54l27,46.8l-27,46.8H585L585,607.9z"/>
				</g>
				<g>
					<path class="st1" d="M522,498.8l27-46.8h54l27,46.8l-27,46.8h-54L522,498.8L522,498.8z"/>
				</g>
				<g>
					<path class="st1" d="M585,389.7h54l27,46.8l-27,46.8h-54l-27-46.8L585,389.7L585,389.7z"/>
				</g>
				<g>
					<path class="st1" d="M711,389.7l27,46.8l-27,46.8h-54l-27-46.8l27-46.8H711L711,389.7z"/>
				</g>
			</g>
			<g>
				<g>
					<path class="st1" d="M990,498.8l-27,46.8h-54l-27-46.8l27-46.8h54L990,498.8L990,498.8z"/>
				</g>
				<g>
					<path class="st1" d="M927,607.9h-54l-27-46.8l27-46.8h54l27,46.8L927,607.9L927,607.9z"/>
				</g>
				<g>
					<path class="st1" d="M801,607.9l-27-46.8l27-46.8h54l27,46.8l-27,46.8H801L801,607.9z"/>
				</g>
				<g>
					<path class="st1" d="M738,498.8l27-46.8h54l27,46.8l-27,46.8h-54L738,498.8L738,498.8z"/>
				</g>
				<g>
					<path class="st1" d="M801,389.7h54l27,46.8l-27,46.8h-54l-27-46.8L801,389.7L801,389.7z"/>
				</g>
				<g>
					<path class="st1" d="M927,389.7l27,46.8l-27,46.8h-54l-27-46.8l27-46.8H927L927,389.7z"/>
				</g>
			</g>
			<g>
				<g>
					<path class="st1" d="M126,623.5l-27,46.8H45l-27-46.8l27-46.8h54L126,623.5L126,623.5z"/>
				</g>
				<g>
					<path class="st1" d="M63,732.7H9l-27-46.8l27-46.8h54l27,46.8L63,732.7L63,732.7z"/>
				</g>
				<g>
					<path class="st1" d="M-63,732.7l-27-46.8l27-46.8h54l27,46.8l-27,46.8H-63L-63,732.7z"/>
				</g>
				<g>
					<path class="st1" d="M-126,623.5l27-46.8h54l27,46.8l-27,46.8h-54L-126,623.5L-126,623.5z"/>
				</g>
				<g>
					<path class="st1" d="M-63,514.4h54l27,46.8l-27,46.8h-54l-27-46.8L-63,514.4L-63,514.4z"/>
				</g>
				<g>
					<path class="st1" d="M63,514.4l27,46.8l-27,46.8H9l-27-46.8l27-46.8H63L63,514.4z"/>
				</g>
			</g>
			<g>
				<g>
					<path class="st1" d="M342,623.5l-27,46.8h-54l-27-46.8l27-46.8h54L342,623.5L342,623.5z"/>
				</g>
				<g>
					<path class="st1" d="M279,732.7h-54l-27-46.8l27-46.8h54l27,46.8L279,732.7L279,732.7z"/>
				</g>
				<g>
					<path class="st1" d="M153,732.7l-27-46.8l27-46.8h54l27,46.8l-27,46.8H153L153,732.7z"/>
				</g>
				<g>
					<path class="st1" d="M90,623.5l27-46.8h54l27,46.8l-27,46.8h-54L90,623.5L90,623.5z"/>
				</g>
				<g>
					<path class="st1" d="M153,514.4h54l27,46.8l-27,46.8h-54l-27-46.8L153,514.4L153,514.4z"/>
				</g>
				<g>
					<path class="st1" d="M279,514.4l27,46.8l-27,46.8h-54l-27-46.8l27-46.8H279L279,514.4z"/>
				</g>
			</g>
			<g>
				<g>
					<path class="st1" d="M558,623.5l-27,46.8h-54l-27-46.8l27-46.8h54L558,623.5L558,623.5z"/>
				</g>
				<g>
					<path class="st1" d="M495,732.7h-54l-27-46.8l27-46.8h54l27,46.8L495,732.7L495,732.7z"/>
				</g>
				<g>
					<path class="st1" d="M369,732.7l-27-46.8l27-46.8h54l27,46.8l-27,46.8H369L369,732.7z"/>
				</g>
				<g>
					<path class="st1" d="M306,623.5l27-46.8h54l27,46.8l-27,46.8h-54L306,623.5L306,623.5z"/>
				</g>
				<g>
					<path class="st1" d="M369,514.4h54l27,46.8l-27,46.8h-54l-27-46.8L369,514.4L369,514.4z"/>
				</g>
				<g>
					<path class="st1" d="M495,514.4l27,46.8l-27,46.8h-54l-27-46.8l27-46.8H495L495,514.4z"/>
				</g>
			</g>
			<g>
				<g>
					<path class="st1" d="M774,623.5l-27,46.8h-54l-27-46.8l27-46.8h54L774,623.5L774,623.5z"/>
				</g>
				<g>
					<path class="st1" d="M711,732.7h-54l-27-46.8l27-46.8h54l27,46.8L711,732.7L711,732.7z"/>
				</g>
				<g>
					<path class="st1" d="M585,732.7l-27-46.8l27-46.8h54l27,46.8l-27,46.8H585L585,732.7z"/>
				</g>
				<g>
					<path class="st1" d="M522,623.5l27-46.8h54l27,46.8l-27,46.8h-54L522,623.5L522,623.5z"/>
				</g>
				<g>
					<path class="st1" d="M585,514.4h54l27,46.8l-27,46.8h-54l-27-46.8L585,514.4L585,514.4z"/>
				</g>
				<g>
					<path class="st1" d="M711,514.4l27,46.8l-27,46.8h-54l-27-46.8l27-46.8H711L711,514.4z"/>
				</g>
			</g>
			<g>
				<g>
					<path class="st1" d="M990,623.5l-27,46.8h-54l-27-46.8l27-46.8h54L990,623.5L990,623.5z"/>
				</g>
				<g>
					<path class="st1" d="M927,732.7h-54l-27-46.8l27-46.8h54l27,46.8L927,732.7L927,732.7z"/>
				</g>
				<g>
					<path class="st1" d="M801,732.7l-27-46.8l27-46.8h54l27,46.8l-27,46.8H801L801,732.7z"/>
				</g>
				<g>
					<path class="st1" d="M738,623.5l27-46.8h54l27,46.8l-27,46.8h-54L738,623.5L738,623.5z"/>
				</g>
				<g>
					<path class="st1" d="M801,514.4h54l27,46.8l-27,46.8h-54l-27-46.8L801,514.4L801,514.4z"/>
				</g>
				<g>
					<path class="st1" d="M927,514.4l27,46.8l-27,46.8h-54l-27-46.8l27-46.8H927L927,514.4z"/>
				</g>
			</g>
			<g>
				<g>
					<path class="st1" d="M126,748.2L99,795H45l-27-46.8l27-46.8h54L126,748.2L126,748.2z"/>
				</g>
				<g>
					<path class="st1" d="M63,857.4H9l-27-46.8l27-46.8h54l27,46.8L63,857.4L63,857.4z"/>
				</g>
				<g>
					<path class="st1" d="M-63,857.4l-27-46.8l27-46.8h54l27,46.8l-27,46.8H-63L-63,857.4z"/>
				</g>
				<g>
					<path class="st1" d="M-126,748.2l27-46.8h54l27,46.8L-45,795h-54L-126,748.2L-126,748.2z"/>
				</g>
				<g>
					<path class="st1" d="M-63,639.1h54l27,46.8l-27,46.8h-54l-27-46.8L-63,639.1L-63,639.1z"/>
				</g>
				<g>
					<path class="st1" d="M63,639.1l27,46.8l-27,46.8H9l-27-46.8l27-46.8H63L63,639.1z"/>
				</g>
			</g>
			<g>
				<g>
					<path class="st1" d="M342,748.2L315,795h-54l-27-46.8l27-46.8h54L342,748.2L342,748.2z"/>
				</g>
				<g>
					<path class="st1" d="M279,857.4h-54l-27-46.8l27-46.8h54l27,46.8L279,857.4L279,857.4z"/>
				</g>
				<g>
					<path class="st1" d="M153,857.4l-27-46.8l27-46.8h54l27,46.8l-27,46.8H153L153,857.4z"/>
				</g>
				<g>
					<path class="st1" d="M90,748.2l27-46.8h54l27,46.8L171,795h-54L90,748.2L90,748.2z"/>
				</g>
				<g>
					<path class="st1" d="M153,639.1h54l27,46.8l-27,46.8h-54l-27-46.8L153,639.1L153,639.1z"/>
				</g>
				<g>
					<path class="st1" d="M279,639.1l27,46.8l-27,46.8h-54l-27-46.8l27-46.8H279L279,639.1z"/>
				</g>
			</g>
			<g>
				<g>
					<path class="st1" d="M558,748.2L531,795h-54l-27-46.8l27-46.8h54L558,748.2L558,748.2z"/>
				</g>
				<g>
					<path class="st1" d="M495,857.4h-54l-27-46.8l27-46.8h54l27,46.8L495,857.4L495,857.4z"/>
				</g>
				<g>
					<path class="st1" d="M369,857.4l-27-46.8l27-46.8h54l27,46.8l-27,46.8H369L369,857.4z"/>
				</g>
				<g>
					<path class="st1" d="M306,748.2l27-46.8h54l27,46.8L387,795h-54L306,748.2L306,748.2z"/>
				</g>
				<g>
					<path class="st1" d="M369,639.1h54l27,46.8l-27,46.8h-54l-27-46.8L369,639.1L369,639.1z"/>
				</g>
				<g>
					<path class="st1" d="M495,639.1l27,46.8l-27,46.8h-54l-27-46.8l27-46.8H495L495,639.1z"/>
				</g>
			</g>
			<g>
				<g>
					<path class="st1" d="M774,748.2L747,795h-54l-27-46.8l27-46.8h54L774,748.2L774,748.2z"/>
				</g>
				<g>
					<path class="st1" d="M711,857.4h-54l-27-46.8l27-46.8h54l27,46.8L711,857.4L711,857.4z"/>
				</g>
				<g>
					<path class="st1" d="M585,857.4l-27-46.8l27-46.8h54l27,46.8l-27,46.8H585L585,857.4z"/>
				</g>
				<g>
					<path class="st1" d="M522,748.2l27-46.8h54l27,46.8L603,795h-54L522,748.2L522,748.2z"/>
				</g>
				<g>
					<path class="st1" d="M585,639.1h54l27,46.8l-27,46.8h-54l-27-46.8L585,639.1L585,639.1z"/>
				</g>
				<g>
					<path class="st1" d="M711,639.1l27,46.8l-27,46.8h-54l-27-46.8l27-46.8H711L711,639.1z"/>
				</g>
			</g>
			<g>
				<g>
					<path class="st1" d="M990,748.2L963,795h-54l-27-46.8l27-46.8h54L990,748.2L990,748.2z"/>
				</g>
				<g>
					<path class="st1" d="M927,857.4h-54l-27-46.8l27-46.8h54l27,46.8L927,857.4L927,857.4z"/>
				</g>
				<g>
					<path class="st1" d="M801,857.4l-27-46.8l27-46.8h54l27,46.8l-27,46.8H801L801,857.4z"/>
				</g>
				<g>
					<path class="st1" d="M738,748.2l27-46.8h54l27,46.8L819,795h-54L738,748.2L738,748.2z"/>
				</g>
				<g>
					<path class="st1" d="M801,639.1h54l27,46.8l-27,46.8h-54l-27-46.8L801,639.1L801,639.1z"/>
				</g>
				<g>
					<path class="st1" d="M927,639.1l27,46.8l-27,46.8h-54l-27-46.8l27-46.8H927L927,639.1z"/>
				</g>
			</g>
		</g>
	</g>
</g>
</svg>
