<svg version="1.1" xmlns="http://www.w3.org/2000/svg" xmlns:xlink="http://www.w3.org/1999/xlink" width="400" height="400" viewBox="0 0 400 400"><defs/><g><rect fill="rgb(255,255,255)" stroke="none" x="0" y="0" width="400" height="400" transform="matrix(1 0 0 1 0 0)" fill-opacity="1"/><g><g><path fill="none" stroke="#000000" paint-order="fill stroke markers" d=" M 200 329.9038105676658 L 215 329.9038105676658 L 245 277.9422863405995" stroke-linecap="round" stroke-miterlimit="10" stroke-dasharray=""/><path fill="none" stroke="#000000" paint-order="fill stroke markers" d=" M 215 329.9038105676658 L 275 329.9038105676658" stroke-linecap="round" stroke-miterlimit="10" stroke-dasharray=""/><path fill="none" stroke="#000000" paint-order="fill stroke markers" d=" M 245 329.9038105676658 L 245 312.583302491977 L 200 286.60254037844385 L 215 277.9422863405995 L 200 251.96152422706632 L 215 225.98076211353316 L 200 225.98076211353316" stroke-linecap="round" stroke-miterlimit="10" stroke-dasharray=""/><path fill="none" stroke="#000000" paint-order="fill stroke markers" d=" M 200 329.9038105676658 L 185 329.9038105676658 L 155 277.9422863405995" stroke-linecap="round" stroke-miterlimit="10" stroke-dasharray=""/><path fill="none" stroke="#000000" paint-order="fill stroke markers" d=" M 185 329.9038105676658 L 125 329.9038105676658" stroke-linecap="round" stroke-miterlimit="10" stroke-dasharray=""/><path fill="none" stroke="#000000" paint-order="fill stroke markers" d=" M 155 329.9038105676658 L 155 312.583302491977 L 200 286.60254037844385 L 185 277.9422863405995 L 200 251.96152422706632 L 185 225.98076211353316 L 200 225.98076211353316" stroke-linecap="round" stroke-miterlimit="10" stroke-dasharray=""/></g><g><path fill="none" stroke="#000000" paint-order="fill stroke markers" d=" M 87.5 264.9519052838329 L 95 277.9422863405995 L 155 277.9422863405995" stroke-linecap="round" stroke-miterlimit="10" stroke-dasharray=""/><path fill="none" stroke="#000000" paint-order="fill stroke markers" d=" M 95 277.9422863405995 L 125 329.9038105676658" stroke-linecap="round" stroke-miterlimit="10" stroke-dasharray=""/><path fill="none" stroke="#000000" paint-order="fill stroke markers" d=" M 110 303.92304845413264 L 125 295.2627944162883 L 125 243.30127018922192 L 140 251.96152422706632 L 155 225.98076211353316 L 185 225.98076211353316 L 177.5 212.99038105676658" stroke-linecap="round" stroke-miterlimit="10" stroke-dasharray=""/><path fill="none" stroke="#000000" paint-order="fill stroke markers" d=" M 87.5 264.9519052838329 L 80 251.96152422706632 L 109.99999999999999 200" stroke-linecap="round" stroke-miterlimit="10" stroke-dasharray=""/><path fill="none" stroke="#000000" paint-order="fill stroke markers" d=" M 80 251.96152422706632 L 49.99999999999999 200" stroke-linecap="round" stroke-miterlimit="10" stroke-dasharray=""/><path fill="none" stroke="#000000" paint-order="fill stroke markers" d=" M 65 225.98076211353316 L 80 217.32050807568876 L 125 243.30127018922192 L 125 225.98076211353316 L 155 225.98076211353316 L 170 200 L 177.5 212.99038105676658" stroke-linecap="round" stroke-miterlimit="10" stroke-dasharray=""/></g><g><path fill="none" stroke="#000000" paint-order="fill stroke markers" d=" M 87.49999999999999 135.04809471616713 L 79.99999999999999 148.0384757729337 L 110 200.00000000000003" stroke-linecap="round" stroke-miterlimit="10" stroke-dasharray=""/><path fill="none" stroke="#000000" paint-order="fill stroke markers" d=" M 79.99999999999999 148.0384757729337 L 50 200.00000000000003" stroke-linecap="round" stroke-miterlimit="10" stroke-dasharray=""/><path fill="none" stroke="#000000" paint-order="fill stroke markers" d=" M 65 174.01923788646687 L 80 182.67949192431126 L 125 156.6987298107781 L 125 174.01923788646684 L 155 174.01923788646684 L 170 200 L 177.5 187.00961894323342" stroke-linecap="round" stroke-miterlimit="10" stroke-dasharray=""/><path fill="none" stroke="#000000" paint-order="fill stroke markers" d=" M 87.49999999999999 135.04809471616713 L 94.99999999999999 122.05771365940055 L 155 122.05771365940052" stroke-linecap="round" stroke-miterlimit="10" stroke-dasharray=""/><path fill="none" stroke="#000000" paint-order="fill stroke markers" d=" M 94.99999999999999 122.05771365940055 L 124.99999999999997 70.09618943233423" stroke-linecap="round" stroke-miterlimit="10" stroke-dasharray=""/><path fill="none" stroke="#000000" paint-order="fill stroke markers" d=" M 109.99999999999997 96.07695154586739 L 124.99999999999997 104.73720558371177 L 125 156.6987298107781 L 139.99999999999997 148.0384757729337 L 155 174.01923788646684 L 185 174.01923788646684 L 177.5 187.00961894323342" stroke-linecap="round" stroke-miterlimit="10" stroke-dasharray=""/></g><g><path fill="none" stroke="#000000" paint-order="fill stroke markers" d=" M 199.99999999999997 70.0961894323342 L 184.99999999999997 70.0961894323342 L 154.99999999999997 122.05771365940052" stroke-linecap="round" stroke-miterlimit="10" stroke-dasharray=""/><path fill="none" stroke="#000000" paint-order="fill stroke markers" d=" M 184.99999999999997 70.0961894323342 L 124.99999999999997 70.09618943233421" stroke-linecap="round" stroke-miterlimit="10" stroke-dasharray=""/><path fill="none" stroke="#000000" paint-order="fill stroke markers" d=" M 154.99999999999997 70.0961894323342 L 154.99999999999997 87.41669750802299 L 199.99999999999997 113.39745962155615 L 184.99999999999997 122.05771365940052 L 199.99999999999997 148.03847577293368 L 185 174.01923788646684 L 199.99999999999997 174.01923788646684" stroke-linecap="round" stroke-miterlimit="10" stroke-dasharray=""/><path fill="none" stroke="#000000" paint-order="fill stroke markers" d=" M 199.99999999999997 70.0961894323342 L 214.99999999999997 70.0961894323342 L 245 122.0577136594005" stroke-linecap="round" stroke-miterlimit="10" stroke-dasharray=""/><path fill="none" stroke="#000000" paint-order="fill stroke markers" d=" M 214.99999999999997 70.0961894323342 L 275 70.09618943233419" stroke-linecap="round" stroke-miterlimit="10" stroke-dasharray=""/><path fill="none" stroke="#000000" paint-order="fill stroke markers" d=" M 244.99999999999997 70.0961894323342 L 244.99999999999997 87.41669750802296 L 199.99999999999997 113.39745962155615 L 214.99999999999997 122.05771365940052 L 199.99999999999997 148.03847577293368 L 214.99999999999997 174.01923788646684 L 199.99999999999997 174.01923788646684" stroke-linecap="round" stroke-miterlimit="10" stroke-dasharray=""/></g><g><path fill="none" stroke="#000000" paint-order="fill stroke markers" d=" M 312.5 135.04809471616704 L 305 122.05771365940046 L 245 122.05771365940048" stroke-linecap="round" stroke-miterlimit="10" stroke-dasharray=""/><path fill="none" stroke="#000000" paint-order="fill stroke markers" d=" M 305 122.05771365940046 L 274.99999999999994 70.09618943233416" stroke-linecap="round" stroke-miterlimit="10" stroke-dasharray=""/><path fill="none" stroke="#000000" paint-order="fill stroke markers" d=" M 290 96.0769515458673 L 275 104.7372055837117 L 275 156.69872981077805 L 260 148.03847577293365 L 245 174.0192378864668 L 215.00000000000003 174.01923788646684 L 222.50000000000003 187.0096189432334" stroke-linecap="round" stroke-miterlimit="10" stroke-dasharray=""/><path fill="none" stroke="#000000" paint-order="fill stroke markers" d=" M 312.5 135.04809471616704 L 320 148.03847577293362 L 290.00000000000006 199.99999999999994" stroke-linecap="round" stroke-miterlimit="10" stroke-dasharray=""/><path fill="none" stroke="#000000" paint-order="fill stroke markers" d=" M 320 148.03847577293362 L 350.00000000000006 199.99999999999994" stroke-linecap="round" stroke-miterlimit="10" stroke-dasharray=""/><path fill="none" stroke="#000000" paint-order="fill stroke markers" d=" M 335 174.01923788646678 L 320 182.67949192431118 L 275 156.69872981077805 L 275 174.01923788646678 L 245 174.0192378864668 L 230.00000000000003 199.99999999999997 L 222.50000000000003 187.0096189432334" stroke-linecap="round" stroke-miterlimit="10" stroke-dasharray=""/></g><g><path fill="none" stroke="#000000" paint-order="fill stroke markers" d=" M 312.5 264.9519052838329 L 320 251.96152422706632 L 290 200" stroke-linecap="round" stroke-miterlimit="10" stroke-dasharray=""/><path fill="none" stroke="#000000" paint-order="fill stroke markers" d=" M 320 251.96152422706632 L 350 200" stroke-linecap="round" stroke-miterlimit="10" stroke-dasharray=""/><path fill="none" stroke="#000000" paint-order="fill stroke markers" d=" M 335 225.98076211353316 L 320 217.32050807568876 L 275 243.30127018922192 L 275 225.98076211353316 L 245 225.98076211353316 L 230 200 L 222.5 212.99038105676658" stroke-linecap="round" stroke-miterlimit="10" stroke-dasharray=""/><path fill="none" stroke="#000000" paint-order="fill stroke markers" d=" M 312.5 264.9519052838329 L 305 277.9422863405995 L 245 277.9422863405995" stroke-linecap="round" stroke-miterlimit="10" stroke-dasharray=""/><path fill="none" stroke="#000000" paint-order="fill stroke markers" d=" M 305 277.9422863405995 L 275 329.9038105676658" stroke-linecap="round" stroke-miterlimit="10" stroke-dasharray=""/><path fill="none" stroke="#000000" paint-order="fill stroke markers" d=" M 290 303.92304845413264 L 275 295.2627944162883 L 275 243.30127018922192 L 260 251.96152422706632 L 245 225.98076211353316 L 215 225.98076211353316 L 222.5 212.99038105676658" stroke-linecap="round" stroke-miterlimit="10" stroke-dasharray=""/></g></g></g></svg>