<svg version="1.1" xmlns="http://www.w3.org/2000/svg" xmlns:xlink="http://www.w3.org/1999/xlink" width="400" height="400" viewBox="0 0 400 400"><defs/><g><g><g><path fill="none" stroke="#000000" paint-order="fill stroke markers" d=" M 269.2820323027551 80 L 200 120 L 130.7179676972449 80" stroke-linecap="round" stroke-miterlimit="10" stroke-dasharray=""/></g><g><path fill="none" stroke="#000000" paint-order="fill stroke markers" d=" M 320 130.7179676972449 L 240 130.7179676972449 L 200 61.4359353944898" stroke-linecap="round" stroke-miterlimit="10" stroke-dasharray=""/></g><g><path fill="none" stroke="#000000" paint-order="fill stroke markers" d=" M 338.5640646055101 200 L 269.28203230275506 160 L 269.28203230275506 80" stroke-linecap="round" stroke-miterlimit="10" stroke-dasharray=""/></g><g><path fill="none" stroke="#000000" paint-order="fill stroke markers" d=" M 320 269.2820323027551 L 280 200 L 320 130.7179676972449" stroke-linecap="round" stroke-miterlimit="10" stroke-dasharray=""/></g><g><path fill="none" stroke="#000000" paint-order="fill stroke markers" d=" M 269.2820323027551 320 L 269.2820323027551 240 L 338.5640646055102 200" stroke-linecap="round" stroke-miterlimit="10" stroke-dasharray=""/></g><g><path fill="none" stroke="#000000" paint-order="fill stroke markers" d=" M 200 338.5640646055102 L 240 269.2820323027551 L 320 269.2820323027551" stroke-linecap="round" stroke-miterlimit="10" stroke-dasharray=""/></g><g><path fill="none" stroke="#000000" paint-order="fill stroke markers" d=" M 130.7179676972449 320 L 200 280 L 269.2820323027551 320" stroke-linecap="round" stroke-miterlimit="10" stroke-dasharray=""/></g><g><path fill="none" stroke="#000000" paint-order="fill stroke markers" d=" M 80 269.28203230275506 L 160 269.28203230275506 L 200 338.5640646055101" stroke-linecap="round" stroke-miterlimit="10" stroke-dasharray=""/></g><g><path fill="none" stroke="#000000" paint-order="fill stroke markers" d=" M 61.43593539448983 200.00000000000006 L 130.71796769724494 240.00000000000003 L 130.717967697245 320" stroke-linecap="round" stroke-miterlimit="10" stroke-dasharray=""/></g><g><path fill="none" stroke="#000000" paint-order="fill stroke markers" d=" M 80 130.71796769724494 L 120 200.00000000000003 L 80.00000000000003 269.28203230275517" stroke-linecap="round" stroke-miterlimit="10" stroke-dasharray=""/></g><g><path fill="none" stroke="#000000" paint-order="fill stroke markers" d=" M 130.71796769724494 80 L 130.71796769724492 160 L 61.43593539448983 200" stroke-linecap="round" stroke-miterlimit="10" stroke-dasharray=""/></g><g><path fill="none" stroke="#000000" paint-order="fill stroke markers" d=" M 199.99999999999994 61.43593539448983 L 159.99999999999997 130.71796769724494 L 79.99999999999997 130.717967697245" stroke-linecap="round" stroke-miterlimit="10" stroke-dasharray=""/></g></g></g></svg>