<?xml version="1.0" encoding="utf-8"?>
<!-- Generator: Adobe Illustrator 27.7.0, SVG Export Plug-In . SVG Version: 6.00 Build 0)  -->
<svg version="1.1" xmlns="http://www.w3.org/2000/svg" xmlns:xlink="http://www.w3.org/1999/xlink" x="0px" y="0px"
	 viewBox="0 0 400 400" style="enable-background:new 0 0 400 400;" xml:space="preserve">
<style type="text/css">
	.st0{fill:#FFFFFF;}
	.st1{fill:none;stroke:#000000;stroke-linecap:round;stroke-miterlimit:10;}
</style>
<g id="Layer_2">
	<rect class="st0" width="400" height="400"/>
</g>
<g id="Layer_1">
	<g>
		<g>
			<g>
				<path class="st1" d="M269.3,80L200,120l-69.3-40"/>
			</g>
			<g>
				<path class="st1" d="M320,130.7h-80l-40-69.3"/>
			</g>
			<g>
				<path class="st1" d="M338.6,200l-69.3-40V80"/>
			</g>
			<g>
				<path class="st1" d="M320,269.3L280,200l40-69.3"/>
			</g>
			<g>
				<path class="st1" d="M269.3,320v-80l69.3-40"/>
			</g>
			<g>
				<path class="st1" d="M200,338.6l40-69.3h80"/>
			</g>
			<g>
				<path class="st1" d="M130.7,320l69.3-40l69.3,40"/>
			</g>
			<g>
				<path class="st1" d="M80,269.3h80l40,69.3"/>
			</g>
			<g>
				<path class="st1" d="M61.4,200l69.3,40v80"/>
			</g>
			<g>
				<path class="st1" d="M80,130.7l40,69.3l-40,69.3"/>
			</g>
			<g>
				<path class="st1" d="M130.7,80v80l-69.3,40"/>
			</g>
			<g>
				<path class="st1" d="M200,61.4l-40,69.3H80"/>
			</g>
		</g>
	</g>
</g>
</svg>
