<?xml version="1.0" encoding="utf-8"?>
<!-- Generator: Adobe Illustrator 27.7.0, SVG Export Plug-In . SVG Version: 6.00 Build 0)  -->
<svg version="1.1" xmlns="http://www.w3.org/2000/svg" xmlns:xlink="http://www.w3.org/1999/xlink" x="0px" y="0px"
	 viewBox="0 0 800 800" style="enable-background:new 0 0 800 800;" xml:space="preserve">
<style type="text/css">
	.st0{fill:#FFFFFF;}
	.st1{fill:none;stroke:#000000;stroke-linecap:round;stroke-miterlimit:10;}
</style>
<g id="Layer_2">
	<rect class="st0" width="800" height="800"/>
</g>
<g id="Layer_1">
	<g>
		<g>
			<g>
				<g>
					<path class="st1" d="M21.6-21.6l89.2,37"/>
				</g>
				<g>
					<path class="st1" d="M21.6,21.6l89.2-37"/>
				</g>
			</g>
			<g>
				<g>
					<path class="st1" d="M30.6,0l30.6,73.9"/>
				</g>
				<g>
					<path class="st1" d="M0,30.6l73.9,30.6"/>
				</g>
			</g>
			<g>
				<g>
					<path class="st1" d="M21.6,21.6l-37,89.2"/>
				</g>
				<g>
					<path class="st1" d="M-21.6,21.6l37,89.2"/>
				</g>
			</g>
			<g>
				<g>
					<path class="st1" d="M0,30.6l-73.9,30.6"/>
				</g>
				<g>
					<path class="st1" d="M-30.6,0l-30.6,73.9"/>
				</g>
			</g>
			<g>
				<g>
					<path class="st1" d="M-21.6,21.6l-89.2-37"/>
				</g>
				<g>
					<path class="st1" d="M-21.6-21.6l-89.2,37"/>
				</g>
			</g>
			<g>
				<g>
					<path class="st1" d="M-30.6,0l-30.6-73.9"/>
				</g>
				<g>
					<path class="st1" d="M0-30.6l-73.9-30.6"/>
				</g>
			</g>
			<g>
				<g>
					<path class="st1" d="M-21.6-21.6l37-89.2"/>
				</g>
				<g>
					<path class="st1" d="M21.6-21.6l-37-89.2"/>
				</g>
			</g>
			<g>
				<g>
					<path class="st1" d="M0-30.6l73.9-30.6"/>
				</g>
				<g>
					<path class="st1" d="M30.6,0l30.6-73.9"/>
				</g>
			</g>
		</g>
		<g>
			<g>
				<g>
					<path class="st1" d="M21.6,126.2l89.2,37"/>
				</g>
				<g>
					<path class="st1" d="M21.6,169.5l89.2-37"/>
				</g>
			</g>
			<g>
				<g>
					<path class="st1" d="M30.6,147.8l30.6,73.9"/>
				</g>
				<g>
					<path class="st1" d="M0,178.4l73.9,30.6"/>
				</g>
			</g>
			<g>
				<g>
					<path class="st1" d="M21.6,169.5l-37,89.2"/>
				</g>
				<g>
					<path class="st1" d="M-21.6,169.5l37,89.2"/>
				</g>
			</g>
			<g>
				<g>
					<path class="st1" d="M0,178.4l-73.9,30.6"/>
				</g>
				<g>
					<path class="st1" d="M-30.6,147.8l-30.6,73.9"/>
				</g>
			</g>
			<g>
				<g>
					<path class="st1" d="M-21.6,169.5l-89.2-37"/>
				</g>
				<g>
					<path class="st1" d="M-21.6,126.2l-89.2,37"/>
				</g>
			</g>
			<g>
				<g>
					<path class="st1" d="M-30.6,147.8l-30.6-73.9"/>
				</g>
				<g>
					<path class="st1" d="M0,117.2l-73.9-30.6"/>
				</g>
			</g>
			<g>
				<g>
					<path class="st1" d="M-21.6,126.2l37-89.2"/>
				</g>
				<g>
					<path class="st1" d="M21.6,126.2l-37-89.2"/>
				</g>
			</g>
			<g>
				<g>
					<path class="st1" d="M0,117.2l73.9-30.6"/>
				</g>
				<g>
					<path class="st1" d="M30.6,147.8l30.6-73.9"/>
				</g>
			</g>
		</g>
		<g>
			<g>
				<g>
					<path class="st1" d="M21.6,274l89.2,37"/>
				</g>
				<g>
					<path class="st1" d="M21.6,317.3l89.2-37"/>
				</g>
			</g>
			<g>
				<g>
					<path class="st1" d="M30.6,295.6l30.6,73.9"/>
				</g>
				<g>
					<path class="st1" d="M0,326.3l73.9,30.6"/>
				</g>
			</g>
			<g>
				<g>
					<path class="st1" d="M21.6,317.3l-37,89.2"/>
				</g>
				<g>
					<path class="st1" d="M-21.6,317.3l37,89.2"/>
				</g>
			</g>
			<g>
				<g>
					<path class="st1" d="M0,326.3l-73.9,30.6"/>
				</g>
				<g>
					<path class="st1" d="M-30.6,295.6l-30.6,73.9"/>
				</g>
			</g>
			<g>
				<g>
					<path class="st1" d="M-21.6,317.3l-89.2-37"/>
				</g>
				<g>
					<path class="st1" d="M-21.6,274l-89.2,37"/>
				</g>
			</g>
			<g>
				<g>
					<path class="st1" d="M-30.6,295.6l-30.6-73.9"/>
				</g>
				<g>
					<path class="st1" d="M0,265l-73.9-30.6"/>
				</g>
			</g>
			<g>
				<g>
					<path class="st1" d="M-21.6,274l37-89.2"/>
				</g>
				<g>
					<path class="st1" d="M21.6,274l-37-89.2"/>
				</g>
			</g>
			<g>
				<g>
					<path class="st1" d="M0,265l73.9-30.6"/>
				</g>
				<g>
					<path class="st1" d="M30.6,295.6l30.6-73.9"/>
				</g>
			</g>
		</g>
		<g>
			<g>
				<g>
					<path class="st1" d="M21.6,421.8l89.2,37"/>
				</g>
				<g>
					<path class="st1" d="M21.6,465.1l89.2-37"/>
				</g>
			</g>
			<g>
				<g>
					<path class="st1" d="M30.6,443.5l30.6,73.9"/>
				</g>
				<g>
					<path class="st1" d="M0,474.1l73.9,30.6"/>
				</g>
			</g>
			<g>
				<g>
					<path class="st1" d="M21.6,465.1l-37,89.2"/>
				</g>
				<g>
					<path class="st1" d="M-21.6,465.1l37,89.2"/>
				</g>
			</g>
			<g>
				<g>
					<path class="st1" d="M0,474.1l-73.9,30.6"/>
				</g>
				<g>
					<path class="st1" d="M-30.6,443.5l-30.6,73.9"/>
				</g>
			</g>
			<g>
				<g>
					<path class="st1" d="M-21.6,465.1l-89.2-37"/>
				</g>
				<g>
					<path class="st1" d="M-21.6,421.8l-89.2,37"/>
				</g>
			</g>
			<g>
				<g>
					<path class="st1" d="M-30.6,443.5l-30.6-73.9"/>
				</g>
				<g>
					<path class="st1" d="M0,412.8l-73.9-30.6"/>
				</g>
			</g>
			<g>
				<g>
					<path class="st1" d="M-21.6,421.8l37-89.2"/>
				</g>
				<g>
					<path class="st1" d="M21.6,421.8l-37-89.2"/>
				</g>
			</g>
			<g>
				<g>
					<path class="st1" d="M0,412.8l73.9-30.6"/>
				</g>
				<g>
					<path class="st1" d="M30.6,443.5l30.6-73.9"/>
				</g>
			</g>
		</g>
		<g>
			<g>
				<g>
					<path class="st1" d="M21.6,569.6l89.2,37"/>
				</g>
				<g>
					<path class="st1" d="M21.6,612.9l89.2-37"/>
				</g>
			</g>
			<g>
				<g>
					<path class="st1" d="M30.6,591.3l30.6,73.9"/>
				</g>
				<g>
					<path class="st1" d="M0,621.9l73.9,30.6"/>
				</g>
			</g>
			<g>
				<g>
					<path class="st1" d="M21.6,612.9l-37,89.2"/>
				</g>
				<g>
					<path class="st1" d="M-21.6,612.9l37,89.2"/>
				</g>
			</g>
			<g>
				<g>
					<path class="st1" d="M0,621.9l-73.9,30.6"/>
				</g>
				<g>
					<path class="st1" d="M-30.6,591.3l-30.6,73.9"/>
				</g>
			</g>
			<g>
				<g>
					<path class="st1" d="M-21.6,612.9l-89.2-37"/>
				</g>
				<g>
					<path class="st1" d="M-21.6,569.6l-89.2,37"/>
				</g>
			</g>
			<g>
				<g>
					<path class="st1" d="M-30.6,591.3l-30.6-73.9"/>
				</g>
				<g>
					<path class="st1" d="M0,560.7l-73.9-30.6"/>
				</g>
			</g>
			<g>
				<g>
					<path class="st1" d="M-21.6,569.6l37-89.2"/>
				</g>
				<g>
					<path class="st1" d="M21.6,569.6l-37-89.2"/>
				</g>
			</g>
			<g>
				<g>
					<path class="st1" d="M0,560.7l73.9-30.6"/>
				</g>
				<g>
					<path class="st1" d="M30.6,591.3l30.6-73.9"/>
				</g>
			</g>
		</g>
		<g>
			<g>
				<g>
					<path class="st1" d="M21.6,717.5l89.2,37"/>
				</g>
				<g>
					<path class="st1" d="M21.6,760.8l89.2-37"/>
				</g>
			</g>
			<g>
				<g>
					<path class="st1" d="M30.6,739.1L61.2,813"/>
				</g>
				<g>
					<path class="st1" d="M0,769.7l73.9,30.6"/>
				</g>
			</g>
			<g>
				<g>
					<path class="st1" d="M21.6,760.8l-37,89.2"/>
				</g>
				<g>
					<path class="st1" d="M-21.6,760.8l37,89.2"/>
				</g>
			</g>
			<g>
				<g>
					<path class="st1" d="M0,769.7l-73.9,30.6"/>
				</g>
				<g>
					<path class="st1" d="M-30.6,739.1L-61.2,813"/>
				</g>
			</g>
			<g>
				<g>
					<path class="st1" d="M-21.6,760.8l-89.2-37"/>
				</g>
				<g>
					<path class="st1" d="M-21.6,717.5l-89.2,37"/>
				</g>
			</g>
			<g>
				<g>
					<path class="st1" d="M-30.6,739.1l-30.6-73.9"/>
				</g>
				<g>
					<path class="st1" d="M0,708.5l-73.9-30.6"/>
				</g>
			</g>
			<g>
				<g>
					<path class="st1" d="M-21.6,717.5l37-89.2"/>
				</g>
				<g>
					<path class="st1" d="M21.6,717.5l-37-89.2"/>
				</g>
			</g>
			<g>
				<g>
					<path class="st1" d="M0,708.5l73.9-30.6"/>
				</g>
				<g>
					<path class="st1" d="M30.6,739.1l30.6-73.9"/>
				</g>
			</g>
		</g>
		<g>
			<g>
				<g>
					<path class="st1" d="M169.5-21.6l89.2,37"/>
				</g>
				<g>
					<path class="st1" d="M169.5,21.6l89.2-37"/>
				</g>
			</g>
			<g>
				<g>
					<path class="st1" d="M178.4,0l30.6,73.9"/>
				</g>
				<g>
					<path class="st1" d="M147.8,30.6l73.9,30.6"/>
				</g>
			</g>
			<g>
				<g>
					<path class="st1" d="M169.5,21.6l-37,89.2"/>
				</g>
				<g>
					<path class="st1" d="M126.2,21.6l37,89.2"/>
				</g>
			</g>
			<g>
				<g>
					<path class="st1" d="M147.8,30.6L73.9,61.2"/>
				</g>
				<g>
					<path class="st1" d="M117.2,0L86.6,73.9"/>
				</g>
			</g>
			<g>
				<g>
					<path class="st1" d="M126.2,21.6L37-15.3"/>
				</g>
				<g>
					<path class="st1" d="M126.2-21.6L37,15.3"/>
				</g>
			</g>
			<g>
				<g>
					<path class="st1" d="M117.2,0L86.6-73.9"/>
				</g>
				<g>
					<path class="st1" d="M147.8-30.6L73.9-61.2"/>
				</g>
			</g>
			<g>
				<g>
					<path class="st1" d="M126.2-21.6l37-89.2"/>
				</g>
				<g>
					<path class="st1" d="M169.5-21.6l-37-89.2"/>
				</g>
			</g>
			<g>
				<g>
					<path class="st1" d="M147.8-30.6l73.9-30.6"/>
				</g>
				<g>
					<path class="st1" d="M178.4,0l30.6-73.9"/>
				</g>
			</g>
		</g>
		<g>
			<g>
				<g>
					<path class="st1" d="M169.5,126.2l89.2,37"/>
				</g>
				<g>
					<path class="st1" d="M169.5,169.5l89.2-37"/>
				</g>
			</g>
			<g>
				<g>
					<path class="st1" d="M178.4,147.8l30.6,73.9"/>
				</g>
				<g>
					<path class="st1" d="M147.8,178.4l73.9,30.6"/>
				</g>
			</g>
			<g>
				<g>
					<path class="st1" d="M169.5,169.5l-37,89.2"/>
				</g>
				<g>
					<path class="st1" d="M126.2,169.5l37,89.2"/>
				</g>
			</g>
			<g>
				<g>
					<path class="st1" d="M147.8,178.4l-73.9,30.6"/>
				</g>
				<g>
					<path class="st1" d="M117.2,147.8l-30.6,73.9"/>
				</g>
			</g>
			<g>
				<g>
					<path class="st1" d="M126.2,169.5l-89.2-37"/>
				</g>
				<g>
					<path class="st1" d="M126.2,126.2l-89.2,37"/>
				</g>
			</g>
			<g>
				<g>
					<path class="st1" d="M117.2,147.8L86.6,73.9"/>
				</g>
				<g>
					<path class="st1" d="M147.8,117.2L73.9,86.6"/>
				</g>
			</g>
			<g>
				<g>
					<path class="st1" d="M126.2,126.2l37-89.2"/>
				</g>
				<g>
					<path class="st1" d="M169.5,126.2l-37-89.2"/>
				</g>
			</g>
			<g>
				<g>
					<path class="st1" d="M147.8,117.2l73.9-30.6"/>
				</g>
				<g>
					<path class="st1" d="M178.4,147.8l30.6-73.9"/>
				</g>
			</g>
		</g>
		<g>
			<g>
				<g>
					<path class="st1" d="M169.5,274l89.2,37"/>
				</g>
				<g>
					<path class="st1" d="M169.5,317.3l89.2-37"/>
				</g>
			</g>
			<g>
				<g>
					<path class="st1" d="M178.4,295.6l30.6,73.9"/>
				</g>
				<g>
					<path class="st1" d="M147.8,326.3l73.9,30.6"/>
				</g>
			</g>
			<g>
				<g>
					<path class="st1" d="M169.5,317.3l-37,89.2"/>
				</g>
				<g>
					<path class="st1" d="M126.2,317.3l37,89.2"/>
				</g>
			</g>
			<g>
				<g>
					<path class="st1" d="M147.8,326.3l-73.9,30.6"/>
				</g>
				<g>
					<path class="st1" d="M117.2,295.6l-30.6,73.9"/>
				</g>
			</g>
			<g>
				<g>
					<path class="st1" d="M126.2,317.3l-89.2-37"/>
				</g>
				<g>
					<path class="st1" d="M126.2,274l-89.2,37"/>
				</g>
			</g>
			<g>
				<g>
					<path class="st1" d="M117.2,295.6l-30.6-73.9"/>
				</g>
				<g>
					<path class="st1" d="M147.8,265l-73.9-30.6"/>
				</g>
			</g>
			<g>
				<g>
					<path class="st1" d="M126.2,274l37-89.2"/>
				</g>
				<g>
					<path class="st1" d="M169.5,274l-37-89.2"/>
				</g>
			</g>
			<g>
				<g>
					<path class="st1" d="M147.8,265l73.9-30.6"/>
				</g>
				<g>
					<path class="st1" d="M178.4,295.6l30.6-73.9"/>
				</g>
			</g>
		</g>
		<g>
			<g>
				<g>
					<path class="st1" d="M169.5,421.8l89.2,37"/>
				</g>
				<g>
					<path class="st1" d="M169.5,465.1l89.2-37"/>
				</g>
			</g>
			<g>
				<g>
					<path class="st1" d="M178.4,443.5l30.6,73.9"/>
				</g>
				<g>
					<path class="st1" d="M147.8,474.1l73.9,30.6"/>
				</g>
			</g>
			<g>
				<g>
					<path class="st1" d="M169.5,465.1l-37,89.2"/>
				</g>
				<g>
					<path class="st1" d="M126.2,465.1l37,89.2"/>
				</g>
			</g>
			<g>
				<g>
					<path class="st1" d="M147.8,474.1l-73.9,30.6"/>
				</g>
				<g>
					<path class="st1" d="M117.2,443.5l-30.6,73.9"/>
				</g>
			</g>
			<g>
				<g>
					<path class="st1" d="M126.2,465.1l-89.2-37"/>
				</g>
				<g>
					<path class="st1" d="M126.2,421.8l-89.2,37"/>
				</g>
			</g>
			<g>
				<g>
					<path class="st1" d="M117.2,443.5l-30.6-73.9"/>
				</g>
				<g>
					<path class="st1" d="M147.8,412.8l-73.9-30.6"/>
				</g>
			</g>
			<g>
				<g>
					<path class="st1" d="M126.2,421.8l37-89.2"/>
				</g>
				<g>
					<path class="st1" d="M169.5,421.8l-37-89.2"/>
				</g>
			</g>
			<g>
				<g>
					<path class="st1" d="M147.8,412.8l73.9-30.6"/>
				</g>
				<g>
					<path class="st1" d="M178.4,443.5l30.6-73.9"/>
				</g>
			</g>
		</g>
		<g>
			<g>
				<g>
					<path class="st1" d="M169.5,569.6l89.2,37"/>
				</g>
				<g>
					<path class="st1" d="M169.5,612.9l89.2-37"/>
				</g>
			</g>
			<g>
				<g>
					<path class="st1" d="M178.4,591.3l30.6,73.9"/>
				</g>
				<g>
					<path class="st1" d="M147.8,621.9l73.9,30.6"/>
				</g>
			</g>
			<g>
				<g>
					<path class="st1" d="M169.5,612.9l-37,89.2"/>
				</g>
				<g>
					<path class="st1" d="M126.2,612.9l37,89.2"/>
				</g>
			</g>
			<g>
				<g>
					<path class="st1" d="M147.8,621.9l-73.9,30.6"/>
				</g>
				<g>
					<path class="st1" d="M117.2,591.3l-30.6,73.9"/>
				</g>
			</g>
			<g>
				<g>
					<path class="st1" d="M126.2,612.9L37,576"/>
				</g>
				<g>
					<path class="st1" d="M126.2,569.6l-89.2,37"/>
				</g>
			</g>
			<g>
				<g>
					<path class="st1" d="M117.2,591.3l-30.6-73.9"/>
				</g>
				<g>
					<path class="st1" d="M147.8,560.7l-73.9-30.6"/>
				</g>
			</g>
			<g>
				<g>
					<path class="st1" d="M126.2,569.6l37-89.2"/>
				</g>
				<g>
					<path class="st1" d="M169.5,569.6l-37-89.2"/>
				</g>
			</g>
			<g>
				<g>
					<path class="st1" d="M147.8,560.7l73.9-30.6"/>
				</g>
				<g>
					<path class="st1" d="M178.4,591.3l30.6-73.9"/>
				</g>
			</g>
		</g>
		<g>
			<g>
				<g>
					<path class="st1" d="M169.5,717.5l89.2,37"/>
				</g>
				<g>
					<path class="st1" d="M169.5,760.8l89.2-37"/>
				</g>
			</g>
			<g>
				<g>
					<path class="st1" d="M178.4,739.1l30.6,73.9"/>
				</g>
				<g>
					<path class="st1" d="M147.8,769.7l73.9,30.6"/>
				</g>
			</g>
			<g>
				<g>
					<path class="st1" d="M169.5,760.8l-37,89.2"/>
				</g>
				<g>
					<path class="st1" d="M126.2,760.8l37,89.2"/>
				</g>
			</g>
			<g>
				<g>
					<path class="st1" d="M147.8,769.7l-73.9,30.6"/>
				</g>
				<g>
					<path class="st1" d="M117.2,739.1L86.6,813"/>
				</g>
			</g>
			<g>
				<g>
					<path class="st1" d="M126.2,760.8l-89.2-37"/>
				</g>
				<g>
					<path class="st1" d="M126.2,717.5l-89.2,37"/>
				</g>
			</g>
			<g>
				<g>
					<path class="st1" d="M117.2,739.1l-30.6-73.9"/>
				</g>
				<g>
					<path class="st1" d="M147.8,708.5l-73.9-30.6"/>
				</g>
			</g>
			<g>
				<g>
					<path class="st1" d="M126.2,717.5l37-89.2"/>
				</g>
				<g>
					<path class="st1" d="M169.5,717.5l-37-89.2"/>
				</g>
			</g>
			<g>
				<g>
					<path class="st1" d="M147.8,708.5l73.9-30.6"/>
				</g>
				<g>
					<path class="st1" d="M178.4,739.1l30.6-73.9"/>
				</g>
			</g>
		</g>
		<g>
			<g>
				<g>
					<path class="st1" d="M317.3-21.6l89.2,37"/>
				</g>
				<g>
					<path class="st1" d="M317.3,21.6l89.2-37"/>
				</g>
			</g>
			<g>
				<g>
					<path class="st1" d="M326.3,0l30.6,73.9"/>
				</g>
				<g>
					<path class="st1" d="M295.6,30.6l73.9,30.6"/>
				</g>
			</g>
			<g>
				<g>
					<path class="st1" d="M317.3,21.6l-37,89.2"/>
				</g>
				<g>
					<path class="st1" d="M274,21.6l37,89.2"/>
				</g>
			</g>
			<g>
				<g>
					<path class="st1" d="M295.6,30.6l-73.9,30.6"/>
				</g>
				<g>
					<path class="st1" d="M265,0l-30.6,73.9"/>
				</g>
			</g>
			<g>
				<g>
					<path class="st1" d="M274,21.6l-89.2-37"/>
				</g>
				<g>
					<path class="st1" d="M274-21.6l-89.2,37"/>
				</g>
			</g>
			<g>
				<g>
					<path class="st1" d="M265,0l-30.6-73.9"/>
				</g>
				<g>
					<path class="st1" d="M295.6-30.6l-73.9-30.6"/>
				</g>
			</g>
			<g>
				<g>
					<path class="st1" d="M274-21.6l37-89.2"/>
				</g>
				<g>
					<path class="st1" d="M317.3-21.6l-37-89.2"/>
				</g>
			</g>
			<g>
				<g>
					<path class="st1" d="M295.6-30.6l73.9-30.6"/>
				</g>
				<g>
					<path class="st1" d="M326.3,0l30.6-73.9"/>
				</g>
			</g>
		</g>
		<g>
			<g>
				<g>
					<path class="st1" d="M317.3,126.2l89.2,37"/>
				</g>
				<g>
					<path class="st1" d="M317.3,169.5l89.2-37"/>
				</g>
			</g>
			<g>
				<g>
					<path class="st1" d="M326.3,147.8l30.6,73.9"/>
				</g>
				<g>
					<path class="st1" d="M295.6,178.4l73.9,30.6"/>
				</g>
			</g>
			<g>
				<g>
					<path class="st1" d="M317.3,169.5l-37,89.2"/>
				</g>
				<g>
					<path class="st1" d="M274,169.5l37,89.2"/>
				</g>
			</g>
			<g>
				<g>
					<path class="st1" d="M295.6,178.4l-73.9,30.6"/>
				</g>
				<g>
					<path class="st1" d="M265,147.8l-30.6,73.9"/>
				</g>
			</g>
			<g>
				<g>
					<path class="st1" d="M274,169.5l-89.2-37"/>
				</g>
				<g>
					<path class="st1" d="M274,126.2l-89.2,37"/>
				</g>
			</g>
			<g>
				<g>
					<path class="st1" d="M265,147.8l-30.6-73.9"/>
				</g>
				<g>
					<path class="st1" d="M295.6,117.2l-73.9-30.6"/>
				</g>
			</g>
			<g>
				<g>
					<path class="st1" d="M274,126.2l37-89.2"/>
				</g>
				<g>
					<path class="st1" d="M317.3,126.2l-37-89.2"/>
				</g>
			</g>
			<g>
				<g>
					<path class="st1" d="M295.6,117.2l73.9-30.6"/>
				</g>
				<g>
					<path class="st1" d="M326.3,147.8l30.6-73.9"/>
				</g>
			</g>
		</g>
		<g>
			<g>
				<g>
					<path class="st1" d="M317.3,274l89.2,37"/>
				</g>
				<g>
					<path class="st1" d="M317.3,317.3l89.2-37"/>
				</g>
			</g>
			<g>
				<g>
					<path class="st1" d="M326.3,295.6l30.6,73.9"/>
				</g>
				<g>
					<path class="st1" d="M295.6,326.3l73.9,30.6"/>
				</g>
			</g>
			<g>
				<g>
					<path class="st1" d="M317.3,317.3l-37,89.2"/>
				</g>
				<g>
					<path class="st1" d="M274,317.3l37,89.2"/>
				</g>
			</g>
			<g>
				<g>
					<path class="st1" d="M295.6,326.3l-73.9,30.6"/>
				</g>
				<g>
					<path class="st1" d="M265,295.6l-30.6,73.9"/>
				</g>
			</g>
			<g>
				<g>
					<path class="st1" d="M274,317.3l-89.2-37"/>
				</g>
				<g>
					<path class="st1" d="M274,274l-89.2,37"/>
				</g>
			</g>
			<g>
				<g>
					<path class="st1" d="M265,295.6l-30.6-73.9"/>
				</g>
				<g>
					<path class="st1" d="M295.6,265l-73.9-30.6"/>
				</g>
			</g>
			<g>
				<g>
					<path class="st1" d="M274,274l37-89.2"/>
				</g>
				<g>
					<path class="st1" d="M317.3,274l-37-89.2"/>
				</g>
			</g>
			<g>
				<g>
					<path class="st1" d="M295.6,265l73.9-30.6"/>
				</g>
				<g>
					<path class="st1" d="M326.3,295.6l30.6-73.9"/>
				</g>
			</g>
		</g>
		<g>
			<g>
				<g>
					<path class="st1" d="M317.3,421.8l89.2,37"/>
				</g>
				<g>
					<path class="st1" d="M317.3,465.1l89.2-37"/>
				</g>
			</g>
			<g>
				<g>
					<path class="st1" d="M326.3,443.5l30.6,73.9"/>
				</g>
				<g>
					<path class="st1" d="M295.6,474.1l73.9,30.6"/>
				</g>
			</g>
			<g>
				<g>
					<path class="st1" d="M317.3,465.1l-37,89.2"/>
				</g>
				<g>
					<path class="st1" d="M274,465.1l37,89.2"/>
				</g>
			</g>
			<g>
				<g>
					<path class="st1" d="M295.6,474.1l-73.9,30.6"/>
				</g>
				<g>
					<path class="st1" d="M265,443.5l-30.6,73.9"/>
				</g>
			</g>
			<g>
				<g>
					<path class="st1" d="M274,465.1l-89.2-37"/>
				</g>
				<g>
					<path class="st1" d="M274,421.8l-89.2,37"/>
				</g>
			</g>
			<g>
				<g>
					<path class="st1" d="M265,443.5l-30.6-73.9"/>
				</g>
				<g>
					<path class="st1" d="M295.6,412.8l-73.9-30.6"/>
				</g>
			</g>
			<g>
				<g>
					<path class="st1" d="M274,421.8l37-89.2"/>
				</g>
				<g>
					<path class="st1" d="M317.3,421.8l-37-89.2"/>
				</g>
			</g>
			<g>
				<g>
					<path class="st1" d="M295.6,412.8l73.9-30.6"/>
				</g>
				<g>
					<path class="st1" d="M326.3,443.5l30.6-73.9"/>
				</g>
			</g>
		</g>
		<g>
			<g>
				<g>
					<path class="st1" d="M317.3,569.6l89.2,37"/>
				</g>
				<g>
					<path class="st1" d="M317.3,612.9l89.2-37"/>
				</g>
			</g>
			<g>
				<g>
					<path class="st1" d="M326.3,591.3l30.6,73.9"/>
				</g>
				<g>
					<path class="st1" d="M295.6,621.9l73.9,30.6"/>
				</g>
			</g>
			<g>
				<g>
					<path class="st1" d="M317.3,612.9l-37,89.2"/>
				</g>
				<g>
					<path class="st1" d="M274,612.9l37,89.2"/>
				</g>
			</g>
			<g>
				<g>
					<path class="st1" d="M295.6,621.9l-73.9,30.6"/>
				</g>
				<g>
					<path class="st1" d="M265,591.3l-30.6,73.9"/>
				</g>
			</g>
			<g>
				<g>
					<path class="st1" d="M274,612.9l-89.2-37"/>
				</g>
				<g>
					<path class="st1" d="M274,569.6l-89.2,37"/>
				</g>
			</g>
			<g>
				<g>
					<path class="st1" d="M265,591.3l-30.6-73.9"/>
				</g>
				<g>
					<path class="st1" d="M295.6,560.7l-73.9-30.6"/>
				</g>
			</g>
			<g>
				<g>
					<path class="st1" d="M274,569.6l37-89.2"/>
				</g>
				<g>
					<path class="st1" d="M317.3,569.6l-37-89.2"/>
				</g>
			</g>
			<g>
				<g>
					<path class="st1" d="M295.6,560.7l73.9-30.6"/>
				</g>
				<g>
					<path class="st1" d="M326.3,591.3l30.6-73.9"/>
				</g>
			</g>
		</g>
		<g>
			<g>
				<g>
					<path class="st1" d="M317.3,717.5l89.2,37"/>
				</g>
				<g>
					<path class="st1" d="M317.3,760.8l89.2-37"/>
				</g>
			</g>
			<g>
				<g>
					<path class="st1" d="M326.3,739.1l30.6,73.9"/>
				</g>
				<g>
					<path class="st1" d="M295.6,769.7l73.9,30.6"/>
				</g>
			</g>
			<g>
				<g>
					<path class="st1" d="M317.3,760.8l-37,89.2"/>
				</g>
				<g>
					<path class="st1" d="M274,760.8l37,89.2"/>
				</g>
			</g>
			<g>
				<g>
					<path class="st1" d="M295.6,769.7l-73.9,30.6"/>
				</g>
				<g>
					<path class="st1" d="M265,739.1L234.4,813"/>
				</g>
			</g>
			<g>
				<g>
					<path class="st1" d="M274,760.8l-89.2-37"/>
				</g>
				<g>
					<path class="st1" d="M274,717.5l-89.2,37"/>
				</g>
			</g>
			<g>
				<g>
					<path class="st1" d="M265,739.1l-30.6-73.9"/>
				</g>
				<g>
					<path class="st1" d="M295.6,708.5l-73.9-30.6"/>
				</g>
			</g>
			<g>
				<g>
					<path class="st1" d="M274,717.5l37-89.2"/>
				</g>
				<g>
					<path class="st1" d="M317.3,717.5l-37-89.2"/>
				</g>
			</g>
			<g>
				<g>
					<path class="st1" d="M295.6,708.5l73.9-30.6"/>
				</g>
				<g>
					<path class="st1" d="M326.3,739.1l30.6-73.9"/>
				</g>
			</g>
		</g>
		<g>
			<g>
				<g>
					<path class="st1" d="M465.1-21.6l89.2,37"/>
				</g>
				<g>
					<path class="st1" d="M465.1,21.6l89.2-37"/>
				</g>
			</g>
			<g>
				<g>
					<path class="st1" d="M474.1,0l30.6,73.9"/>
				</g>
				<g>
					<path class="st1" d="M443.5,30.6l73.9,30.6"/>
				</g>
			</g>
			<g>
				<g>
					<path class="st1" d="M465.1,21.6l-37,89.2"/>
				</g>
				<g>
					<path class="st1" d="M421.8,21.6l37,89.2"/>
				</g>
			</g>
			<g>
				<g>
					<path class="st1" d="M443.5,30.6l-73.9,30.6"/>
				</g>
				<g>
					<path class="st1" d="M412.8,0l-30.6,73.9"/>
				</g>
			</g>
			<g>
				<g>
					<path class="st1" d="M421.8,21.6l-89.2-37"/>
				</g>
				<g>
					<path class="st1" d="M421.8-21.6l-89.2,37"/>
				</g>
			</g>
			<g>
				<g>
					<path class="st1" d="M412.8,0l-30.6-73.9"/>
				</g>
				<g>
					<path class="st1" d="M443.5-30.6l-73.9-30.6"/>
				</g>
			</g>
			<g>
				<g>
					<path class="st1" d="M421.8-21.6l37-89.2"/>
				</g>
				<g>
					<path class="st1" d="M465.1-21.6l-37-89.2"/>
				</g>
			</g>
			<g>
				<g>
					<path class="st1" d="M443.5-30.6l73.9-30.6"/>
				</g>
				<g>
					<path class="st1" d="M474.1,0l30.6-73.9"/>
				</g>
			</g>
		</g>
		<g>
			<g>
				<g>
					<path class="st1" d="M465.1,126.2l89.2,37"/>
				</g>
				<g>
					<path class="st1" d="M465.1,169.5l89.2-37"/>
				</g>
			</g>
			<g>
				<g>
					<path class="st1" d="M474.1,147.8l30.6,73.9"/>
				</g>
				<g>
					<path class="st1" d="M443.5,178.4l73.9,30.6"/>
				</g>
			</g>
			<g>
				<g>
					<path class="st1" d="M465.1,169.5l-37,89.2"/>
				</g>
				<g>
					<path class="st1" d="M421.8,169.5l37,89.2"/>
				</g>
			</g>
			<g>
				<g>
					<path class="st1" d="M443.5,178.4l-73.9,30.6"/>
				</g>
				<g>
					<path class="st1" d="M412.8,147.8l-30.6,73.9"/>
				</g>
			</g>
			<g>
				<g>
					<path class="st1" d="M421.8,169.5l-89.2-37"/>
				</g>
				<g>
					<path class="st1" d="M421.8,126.2l-89.2,37"/>
				</g>
			</g>
			<g>
				<g>
					<path class="st1" d="M412.8,147.8l-30.6-73.9"/>
				</g>
				<g>
					<path class="st1" d="M443.5,117.2l-73.9-30.6"/>
				</g>
			</g>
			<g>
				<g>
					<path class="st1" d="M421.8,126.2l37-89.2"/>
				</g>
				<g>
					<path class="st1" d="M465.1,126.2l-37-89.2"/>
				</g>
			</g>
			<g>
				<g>
					<path class="st1" d="M443.5,117.2l73.9-30.6"/>
				</g>
				<g>
					<path class="st1" d="M474.1,147.8l30.6-73.9"/>
				</g>
			</g>
		</g>
		<g>
			<g>
				<g>
					<path class="st1" d="M465.1,274l89.2,37"/>
				</g>
				<g>
					<path class="st1" d="M465.1,317.3l89.2-37"/>
				</g>
			</g>
			<g>
				<g>
					<path class="st1" d="M474.1,295.6l30.6,73.9"/>
				</g>
				<g>
					<path class="st1" d="M443.5,326.3l73.9,30.6"/>
				</g>
			</g>
			<g>
				<g>
					<path class="st1" d="M465.1,317.3l-37,89.2"/>
				</g>
				<g>
					<path class="st1" d="M421.8,317.3l37,89.2"/>
				</g>
			</g>
			<g>
				<g>
					<path class="st1" d="M443.5,326.3l-73.9,30.6"/>
				</g>
				<g>
					<path class="st1" d="M412.8,295.6l-30.6,73.9"/>
				</g>
			</g>
			<g>
				<g>
					<path class="st1" d="M421.8,317.3l-89.2-37"/>
				</g>
				<g>
					<path class="st1" d="M421.8,274l-89.2,37"/>
				</g>
			</g>
			<g>
				<g>
					<path class="st1" d="M412.8,295.6l-30.6-73.9"/>
				</g>
				<g>
					<path class="st1" d="M443.5,265l-73.9-30.6"/>
				</g>
			</g>
			<g>
				<g>
					<path class="st1" d="M421.8,274l37-89.2"/>
				</g>
				<g>
					<path class="st1" d="M465.1,274l-37-89.2"/>
				</g>
			</g>
			<g>
				<g>
					<path class="st1" d="M443.5,265l73.9-30.6"/>
				</g>
				<g>
					<path class="st1" d="M474.1,295.6l30.6-73.9"/>
				</g>
			</g>
		</g>
		<g>
			<g>
				<g>
					<path class="st1" d="M465.1,421.8l89.2,37"/>
				</g>
				<g>
					<path class="st1" d="M465.1,465.1l89.2-37"/>
				</g>
			</g>
			<g>
				<g>
					<path class="st1" d="M474.1,443.5l30.6,73.9"/>
				</g>
				<g>
					<path class="st1" d="M443.5,474.1l73.9,30.6"/>
				</g>
			</g>
			<g>
				<g>
					<path class="st1" d="M465.1,465.1l-37,89.2"/>
				</g>
				<g>
					<path class="st1" d="M421.8,465.1l37,89.2"/>
				</g>
			</g>
			<g>
				<g>
					<path class="st1" d="M443.5,474.1l-73.9,30.6"/>
				</g>
				<g>
					<path class="st1" d="M412.8,443.5l-30.6,73.9"/>
				</g>
			</g>
			<g>
				<g>
					<path class="st1" d="M421.8,465.1l-89.2-37"/>
				</g>
				<g>
					<path class="st1" d="M421.8,421.8l-89.2,37"/>
				</g>
			</g>
			<g>
				<g>
					<path class="st1" d="M412.8,443.5l-30.6-73.9"/>
				</g>
				<g>
					<path class="st1" d="M443.5,412.8l-73.9-30.6"/>
				</g>
			</g>
			<g>
				<g>
					<path class="st1" d="M421.8,421.8l37-89.2"/>
				</g>
				<g>
					<path class="st1" d="M465.1,421.8l-37-89.2"/>
				</g>
			</g>
			<g>
				<g>
					<path class="st1" d="M443.5,412.8l73.9-30.6"/>
				</g>
				<g>
					<path class="st1" d="M474.1,443.5l30.6-73.9"/>
				</g>
			</g>
		</g>
		<g>
			<g>
				<g>
					<path class="st1" d="M465.1,569.6l89.2,37"/>
				</g>
				<g>
					<path class="st1" d="M465.1,612.9l89.2-37"/>
				</g>
			</g>
			<g>
				<g>
					<path class="st1" d="M474.1,591.3l30.6,73.9"/>
				</g>
				<g>
					<path class="st1" d="M443.5,621.9l73.9,30.6"/>
				</g>
			</g>
			<g>
				<g>
					<path class="st1" d="M465.1,612.9l-37,89.2"/>
				</g>
				<g>
					<path class="st1" d="M421.8,612.9l37,89.2"/>
				</g>
			</g>
			<g>
				<g>
					<path class="st1" d="M443.5,621.9l-73.9,30.6"/>
				</g>
				<g>
					<path class="st1" d="M412.8,591.3l-30.6,73.9"/>
				</g>
			</g>
			<g>
				<g>
					<path class="st1" d="M421.8,612.9l-89.2-37"/>
				</g>
				<g>
					<path class="st1" d="M421.8,569.6l-89.2,37"/>
				</g>
			</g>
			<g>
				<g>
					<path class="st1" d="M412.8,591.3l-30.6-73.9"/>
				</g>
				<g>
					<path class="st1" d="M443.5,560.7l-73.9-30.6"/>
				</g>
			</g>
			<g>
				<g>
					<path class="st1" d="M421.8,569.6l37-89.2"/>
				</g>
				<g>
					<path class="st1" d="M465.1,569.6l-37-89.2"/>
				</g>
			</g>
			<g>
				<g>
					<path class="st1" d="M443.5,560.7l73.9-30.6"/>
				</g>
				<g>
					<path class="st1" d="M474.1,591.3l30.6-73.9"/>
				</g>
			</g>
		</g>
		<g>
			<g>
				<g>
					<path class="st1" d="M465.1,717.5l89.2,37"/>
				</g>
				<g>
					<path class="st1" d="M465.1,760.8l89.2-37"/>
				</g>
			</g>
			<g>
				<g>
					<path class="st1" d="M474.1,739.1l30.6,73.9"/>
				</g>
				<g>
					<path class="st1" d="M443.5,769.7l73.9,30.6"/>
				</g>
			</g>
			<g>
				<g>
					<path class="st1" d="M465.1,760.8l-37,89.2"/>
				</g>
				<g>
					<path class="st1" d="M421.8,760.8l37,89.2"/>
				</g>
			</g>
			<g>
				<g>
					<path class="st1" d="M443.5,769.7l-73.9,30.6"/>
				</g>
				<g>
					<path class="st1" d="M412.8,739.1L382.2,813"/>
				</g>
			</g>
			<g>
				<g>
					<path class="st1" d="M421.8,760.8l-89.2-37"/>
				</g>
				<g>
					<path class="st1" d="M421.8,717.5l-89.2,37"/>
				</g>
			</g>
			<g>
				<g>
					<path class="st1" d="M412.8,739.1l-30.6-73.9"/>
				</g>
				<g>
					<path class="st1" d="M443.5,708.5l-73.9-30.6"/>
				</g>
			</g>
			<g>
				<g>
					<path class="st1" d="M421.8,717.5l37-89.2"/>
				</g>
				<g>
					<path class="st1" d="M465.1,717.5l-37-89.2"/>
				</g>
			</g>
			<g>
				<g>
					<path class="st1" d="M443.5,708.5l73.9-30.6"/>
				</g>
				<g>
					<path class="st1" d="M474.1,739.1l30.6-73.9"/>
				</g>
			</g>
		</g>
		<g>
			<g>
				<g>
					<path class="st1" d="M612.9-21.6l89.2,37"/>
				</g>
				<g>
					<path class="st1" d="M612.9,21.6l89.2-37"/>
				</g>
			</g>
			<g>
				<g>
					<path class="st1" d="M621.9,0l30.6,73.9"/>
				</g>
				<g>
					<path class="st1" d="M591.3,30.6l73.9,30.6"/>
				</g>
			</g>
			<g>
				<g>
					<path class="st1" d="M612.9,21.6l-37,89.2"/>
				</g>
				<g>
					<path class="st1" d="M569.6,21.6l37,89.2"/>
				</g>
			</g>
			<g>
				<g>
					<path class="st1" d="M591.3,30.6l-73.9,30.6"/>
				</g>
				<g>
					<path class="st1" d="M560.7,0l-30.6,73.9"/>
				</g>
			</g>
			<g>
				<g>
					<path class="st1" d="M569.6,21.6l-89.2-37"/>
				</g>
				<g>
					<path class="st1" d="M569.6-21.6l-89.2,37"/>
				</g>
			</g>
			<g>
				<g>
					<path class="st1" d="M560.7,0l-30.6-73.9"/>
				</g>
				<g>
					<path class="st1" d="M591.3-30.6l-73.9-30.6"/>
				</g>
			</g>
			<g>
				<g>
					<path class="st1" d="M569.6-21.6l37-89.2"/>
				</g>
				<g>
					<path class="st1" d="M612.9-21.6l-37-89.2"/>
				</g>
			</g>
			<g>
				<g>
					<path class="st1" d="M591.3-30.6l73.9-30.6"/>
				</g>
				<g>
					<path class="st1" d="M621.9,0l30.6-73.9"/>
				</g>
			</g>
		</g>
		<g>
			<g>
				<g>
					<path class="st1" d="M612.9,126.2l89.2,37"/>
				</g>
				<g>
					<path class="st1" d="M612.9,169.5l89.2-37"/>
				</g>
			</g>
			<g>
				<g>
					<path class="st1" d="M621.9,147.8l30.6,73.9"/>
				</g>
				<g>
					<path class="st1" d="M591.3,178.4l73.9,30.6"/>
				</g>
			</g>
			<g>
				<g>
					<path class="st1" d="M612.9,169.5l-37,89.2"/>
				</g>
				<g>
					<path class="st1" d="M569.6,169.5l37,89.2"/>
				</g>
			</g>
			<g>
				<g>
					<path class="st1" d="M591.3,178.4l-73.9,30.6"/>
				</g>
				<g>
					<path class="st1" d="M560.7,147.8l-30.6,73.9"/>
				</g>
			</g>
			<g>
				<g>
					<path class="st1" d="M569.6,169.5l-89.2-37"/>
				</g>
				<g>
					<path class="st1" d="M569.6,126.2l-89.2,37"/>
				</g>
			</g>
			<g>
				<g>
					<path class="st1" d="M560.7,147.8l-30.6-73.9"/>
				</g>
				<g>
					<path class="st1" d="M591.3,117.2l-73.9-30.6"/>
				</g>
			</g>
			<g>
				<g>
					<path class="st1" d="M569.6,126.2l37-89.2"/>
				</g>
				<g>
					<path class="st1" d="M612.9,126.2L576,37"/>
				</g>
			</g>
			<g>
				<g>
					<path class="st1" d="M591.3,117.2l73.9-30.6"/>
				</g>
				<g>
					<path class="st1" d="M621.9,147.8l30.6-73.9"/>
				</g>
			</g>
		</g>
		<g>
			<g>
				<g>
					<path class="st1" d="M612.9,274l89.2,37"/>
				</g>
				<g>
					<path class="st1" d="M612.9,317.3l89.2-37"/>
				</g>
			</g>
			<g>
				<g>
					<path class="st1" d="M621.9,295.6l30.6,73.9"/>
				</g>
				<g>
					<path class="st1" d="M591.3,326.3l73.9,30.6"/>
				</g>
			</g>
			<g>
				<g>
					<path class="st1" d="M612.9,317.3l-37,89.2"/>
				</g>
				<g>
					<path class="st1" d="M569.6,317.3l37,89.2"/>
				</g>
			</g>
			<g>
				<g>
					<path class="st1" d="M591.3,326.3l-73.9,30.6"/>
				</g>
				<g>
					<path class="st1" d="M560.7,295.6l-30.6,73.9"/>
				</g>
			</g>
			<g>
				<g>
					<path class="st1" d="M569.6,317.3l-89.2-37"/>
				</g>
				<g>
					<path class="st1" d="M569.6,274l-89.2,37"/>
				</g>
			</g>
			<g>
				<g>
					<path class="st1" d="M560.7,295.6l-30.6-73.9"/>
				</g>
				<g>
					<path class="st1" d="M591.3,265l-73.9-30.6"/>
				</g>
			</g>
			<g>
				<g>
					<path class="st1" d="M569.6,274l37-89.2"/>
				</g>
				<g>
					<path class="st1" d="M612.9,274l-37-89.2"/>
				</g>
			</g>
			<g>
				<g>
					<path class="st1" d="M591.3,265l73.9-30.6"/>
				</g>
				<g>
					<path class="st1" d="M621.9,295.6l30.6-73.9"/>
				</g>
			</g>
		</g>
		<g>
			<g>
				<g>
					<path class="st1" d="M612.9,421.8l89.2,37"/>
				</g>
				<g>
					<path class="st1" d="M612.9,465.1l89.2-37"/>
				</g>
			</g>
			<g>
				<g>
					<path class="st1" d="M621.9,443.5l30.6,73.9"/>
				</g>
				<g>
					<path class="st1" d="M591.3,474.1l73.9,30.6"/>
				</g>
			</g>
			<g>
				<g>
					<path class="st1" d="M612.9,465.1l-37,89.2"/>
				</g>
				<g>
					<path class="st1" d="M569.6,465.1l37,89.2"/>
				</g>
			</g>
			<g>
				<g>
					<path class="st1" d="M591.3,474.1l-73.9,30.6"/>
				</g>
				<g>
					<path class="st1" d="M560.7,443.5l-30.6,73.9"/>
				</g>
			</g>
			<g>
				<g>
					<path class="st1" d="M569.6,465.1l-89.2-37"/>
				</g>
				<g>
					<path class="st1" d="M569.6,421.8l-89.2,37"/>
				</g>
			</g>
			<g>
				<g>
					<path class="st1" d="M560.7,443.5l-30.6-73.9"/>
				</g>
				<g>
					<path class="st1" d="M591.3,412.8l-73.9-30.6"/>
				</g>
			</g>
			<g>
				<g>
					<path class="st1" d="M569.6,421.8l37-89.2"/>
				</g>
				<g>
					<path class="st1" d="M612.9,421.8l-37-89.2"/>
				</g>
			</g>
			<g>
				<g>
					<path class="st1" d="M591.3,412.8l73.9-30.6"/>
				</g>
				<g>
					<path class="st1" d="M621.9,443.5l30.6-73.9"/>
				</g>
			</g>
		</g>
		<g>
			<g>
				<g>
					<path class="st1" d="M612.9,569.6l89.2,37"/>
				</g>
				<g>
					<path class="st1" d="M612.9,612.9l89.2-37"/>
				</g>
			</g>
			<g>
				<g>
					<path class="st1" d="M621.9,591.3l30.6,73.9"/>
				</g>
				<g>
					<path class="st1" d="M591.3,621.9l73.9,30.6"/>
				</g>
			</g>
			<g>
				<g>
					<path class="st1" d="M612.9,612.9l-37,89.2"/>
				</g>
				<g>
					<path class="st1" d="M569.6,612.9l37,89.2"/>
				</g>
			</g>
			<g>
				<g>
					<path class="st1" d="M591.3,621.9l-73.9,30.6"/>
				</g>
				<g>
					<path class="st1" d="M560.7,591.3l-30.6,73.9"/>
				</g>
			</g>
			<g>
				<g>
					<path class="st1" d="M569.6,612.9l-89.2-37"/>
				</g>
				<g>
					<path class="st1" d="M569.6,569.6l-89.2,37"/>
				</g>
			</g>
			<g>
				<g>
					<path class="st1" d="M560.7,591.3l-30.6-73.9"/>
				</g>
				<g>
					<path class="st1" d="M591.3,560.7l-73.9-30.6"/>
				</g>
			</g>
			<g>
				<g>
					<path class="st1" d="M569.6,569.6l37-89.2"/>
				</g>
				<g>
					<path class="st1" d="M612.9,569.6l-37-89.2"/>
				</g>
			</g>
			<g>
				<g>
					<path class="st1" d="M591.3,560.7l73.9-30.6"/>
				</g>
				<g>
					<path class="st1" d="M621.9,591.3l30.6-73.9"/>
				</g>
			</g>
		</g>
		<g>
			<g>
				<g>
					<path class="st1" d="M612.9,717.5l89.2,37"/>
				</g>
				<g>
					<path class="st1" d="M612.9,760.8l89.2-37"/>
				</g>
			</g>
			<g>
				<g>
					<path class="st1" d="M621.9,739.1l30.6,73.9"/>
				</g>
				<g>
					<path class="st1" d="M591.3,769.7l73.9,30.6"/>
				</g>
			</g>
			<g>
				<g>
					<path class="st1" d="M612.9,760.8L576,850"/>
				</g>
				<g>
					<path class="st1" d="M569.6,760.8l37,89.2"/>
				</g>
			</g>
			<g>
				<g>
					<path class="st1" d="M591.3,769.7l-73.9,30.6"/>
				</g>
				<g>
					<path class="st1" d="M560.7,739.1L530.1,813"/>
				</g>
			</g>
			<g>
				<g>
					<path class="st1" d="M569.6,760.8l-89.2-37"/>
				</g>
				<g>
					<path class="st1" d="M569.6,717.5l-89.2,37"/>
				</g>
			</g>
			<g>
				<g>
					<path class="st1" d="M560.7,739.1l-30.6-73.9"/>
				</g>
				<g>
					<path class="st1" d="M591.3,708.5l-73.9-30.6"/>
				</g>
			</g>
			<g>
				<g>
					<path class="st1" d="M569.6,717.5l37-89.2"/>
				</g>
				<g>
					<path class="st1" d="M612.9,717.5l-37-89.2"/>
				</g>
			</g>
			<g>
				<g>
					<path class="st1" d="M591.3,708.5l73.9-30.6"/>
				</g>
				<g>
					<path class="st1" d="M621.9,739.1l30.6-73.9"/>
				</g>
			</g>
		</g>
		<g>
			<g>
				<g>
					<path class="st1" d="M760.8-21.6l89.2,37"/>
				</g>
				<g>
					<path class="st1" d="M760.8,21.6l89.2-37"/>
				</g>
			</g>
			<g>
				<g>
					<path class="st1" d="M769.7,0l30.6,73.9"/>
				</g>
				<g>
					<path class="st1" d="M739.1,30.6L813,61.2"/>
				</g>
			</g>
			<g>
				<g>
					<path class="st1" d="M760.8,21.6l-37,89.2"/>
				</g>
				<g>
					<path class="st1" d="M717.5,21.6l37,89.2"/>
				</g>
			</g>
			<g>
				<g>
					<path class="st1" d="M739.1,30.6l-73.9,30.6"/>
				</g>
				<g>
					<path class="st1" d="M708.5,0l-30.6,73.9"/>
				</g>
			</g>
			<g>
				<g>
					<path class="st1" d="M717.5,21.6l-89.2-37"/>
				</g>
				<g>
					<path class="st1" d="M717.5-21.6l-89.2,37"/>
				</g>
			</g>
			<g>
				<g>
					<path class="st1" d="M708.5,0l-30.6-73.9"/>
				</g>
				<g>
					<path class="st1" d="M739.1-30.6l-73.9-30.6"/>
				</g>
			</g>
			<g>
				<g>
					<path class="st1" d="M717.5-21.6l37-89.2"/>
				</g>
				<g>
					<path class="st1" d="M760.8-21.6l-37-89.2"/>
				</g>
			</g>
			<g>
				<g>
					<path class="st1" d="M739.1-30.6L813-61.2"/>
				</g>
				<g>
					<path class="st1" d="M769.7,0l30.6-73.9"/>
				</g>
			</g>
		</g>
		<g>
			<g>
				<g>
					<path class="st1" d="M760.8,126.2l89.2,37"/>
				</g>
				<g>
					<path class="st1" d="M760.8,169.5l89.2-37"/>
				</g>
			</g>
			<g>
				<g>
					<path class="st1" d="M769.7,147.8l30.6,73.9"/>
				</g>
				<g>
					<path class="st1" d="M739.1,178.4l73.9,30.6"/>
				</g>
			</g>
			<g>
				<g>
					<path class="st1" d="M760.8,169.5l-37,89.2"/>
				</g>
				<g>
					<path class="st1" d="M717.5,169.5l37,89.2"/>
				</g>
			</g>
			<g>
				<g>
					<path class="st1" d="M739.1,178.4l-73.9,30.6"/>
				</g>
				<g>
					<path class="st1" d="M708.5,147.8l-30.6,73.9"/>
				</g>
			</g>
			<g>
				<g>
					<path class="st1" d="M717.5,169.5l-89.2-37"/>
				</g>
				<g>
					<path class="st1" d="M717.5,126.2l-89.2,37"/>
				</g>
			</g>
			<g>
				<g>
					<path class="st1" d="M708.5,147.8l-30.6-73.9"/>
				</g>
				<g>
					<path class="st1" d="M739.1,117.2l-73.9-30.6"/>
				</g>
			</g>
			<g>
				<g>
					<path class="st1" d="M717.5,126.2l37-89.2"/>
				</g>
				<g>
					<path class="st1" d="M760.8,126.2l-37-89.2"/>
				</g>
			</g>
			<g>
				<g>
					<path class="st1" d="M739.1,117.2L813,86.6"/>
				</g>
				<g>
					<path class="st1" d="M769.7,147.8l30.6-73.9"/>
				</g>
			</g>
		</g>
		<g>
			<g>
				<g>
					<path class="st1" d="M760.8,274l89.2,37"/>
				</g>
				<g>
					<path class="st1" d="M760.8,317.3l89.2-37"/>
				</g>
			</g>
			<g>
				<g>
					<path class="st1" d="M769.7,295.6l30.6,73.9"/>
				</g>
				<g>
					<path class="st1" d="M739.1,326.3l73.9,30.6"/>
				</g>
			</g>
			<g>
				<g>
					<path class="st1" d="M760.8,317.3l-37,89.2"/>
				</g>
				<g>
					<path class="st1" d="M717.5,317.3l37,89.2"/>
				</g>
			</g>
			<g>
				<g>
					<path class="st1" d="M739.1,326.3l-73.9,30.6"/>
				</g>
				<g>
					<path class="st1" d="M708.5,295.6l-30.6,73.9"/>
				</g>
			</g>
			<g>
				<g>
					<path class="st1" d="M717.5,317.3l-89.2-37"/>
				</g>
				<g>
					<path class="st1" d="M717.5,274l-89.2,37"/>
				</g>
			</g>
			<g>
				<g>
					<path class="st1" d="M708.5,295.6l-30.6-73.9"/>
				</g>
				<g>
					<path class="st1" d="M739.1,265l-73.9-30.6"/>
				</g>
			</g>
			<g>
				<g>
					<path class="st1" d="M717.5,274l37-89.2"/>
				</g>
				<g>
					<path class="st1" d="M760.8,274l-37-89.2"/>
				</g>
			</g>
			<g>
				<g>
					<path class="st1" d="M739.1,265l73.9-30.6"/>
				</g>
				<g>
					<path class="st1" d="M769.7,295.6l30.6-73.9"/>
				</g>
			</g>
		</g>
		<g>
			<g>
				<g>
					<path class="st1" d="M760.8,421.8l89.2,37"/>
				</g>
				<g>
					<path class="st1" d="M760.8,465.1l89.2-37"/>
				</g>
			</g>
			<g>
				<g>
					<path class="st1" d="M769.7,443.5l30.6,73.9"/>
				</g>
				<g>
					<path class="st1" d="M739.1,474.1l73.9,30.6"/>
				</g>
			</g>
			<g>
				<g>
					<path class="st1" d="M760.8,465.1l-37,89.2"/>
				</g>
				<g>
					<path class="st1" d="M717.5,465.1l37,89.2"/>
				</g>
			</g>
			<g>
				<g>
					<path class="st1" d="M739.1,474.1l-73.9,30.6"/>
				</g>
				<g>
					<path class="st1" d="M708.5,443.5l-30.6,73.9"/>
				</g>
			</g>
			<g>
				<g>
					<path class="st1" d="M717.5,465.1l-89.2-37"/>
				</g>
				<g>
					<path class="st1" d="M717.5,421.8l-89.2,37"/>
				</g>
			</g>
			<g>
				<g>
					<path class="st1" d="M708.5,443.5l-30.6-73.9"/>
				</g>
				<g>
					<path class="st1" d="M739.1,412.8l-73.9-30.6"/>
				</g>
			</g>
			<g>
				<g>
					<path class="st1" d="M717.5,421.8l37-89.2"/>
				</g>
				<g>
					<path class="st1" d="M760.8,421.8l-37-89.2"/>
				</g>
			</g>
			<g>
				<g>
					<path class="st1" d="M739.1,412.8l73.9-30.6"/>
				</g>
				<g>
					<path class="st1" d="M769.7,443.5l30.6-73.9"/>
				</g>
			</g>
		</g>
		<g>
			<g>
				<g>
					<path class="st1" d="M760.8,569.6l89.2,37"/>
				</g>
				<g>
					<path class="st1" d="M760.8,612.9l89.2-37"/>
				</g>
			</g>
			<g>
				<g>
					<path class="st1" d="M769.7,591.3l30.6,73.9"/>
				</g>
				<g>
					<path class="st1" d="M739.1,621.9l73.9,30.6"/>
				</g>
			</g>
			<g>
				<g>
					<path class="st1" d="M760.8,612.9l-37,89.2"/>
				</g>
				<g>
					<path class="st1" d="M717.5,612.9l37,89.2"/>
				</g>
			</g>
			<g>
				<g>
					<path class="st1" d="M739.1,621.9l-73.9,30.6"/>
				</g>
				<g>
					<path class="st1" d="M708.5,591.3l-30.6,73.9"/>
				</g>
			</g>
			<g>
				<g>
					<path class="st1" d="M717.5,612.9l-89.2-37"/>
				</g>
				<g>
					<path class="st1" d="M717.5,569.6l-89.2,37"/>
				</g>
			</g>
			<g>
				<g>
					<path class="st1" d="M708.5,591.3l-30.6-73.9"/>
				</g>
				<g>
					<path class="st1" d="M739.1,560.7l-73.9-30.6"/>
				</g>
			</g>
			<g>
				<g>
					<path class="st1" d="M717.5,569.6l37-89.2"/>
				</g>
				<g>
					<path class="st1" d="M760.8,569.6l-37-89.2"/>
				</g>
			</g>
			<g>
				<g>
					<path class="st1" d="M739.1,560.7l73.9-30.6"/>
				</g>
				<g>
					<path class="st1" d="M769.7,591.3l30.6-73.9"/>
				</g>
			</g>
		</g>
		<g>
			<g>
				<g>
					<path class="st1" d="M760.8,717.5l89.2,37"/>
				</g>
				<g>
					<path class="st1" d="M760.8,760.8l89.2-37"/>
				</g>
			</g>
			<g>
				<g>
					<path class="st1" d="M769.7,739.1l30.6,73.9"/>
				</g>
				<g>
					<path class="st1" d="M739.1,769.7l73.9,30.6"/>
				</g>
			</g>
			<g>
				<g>
					<path class="st1" d="M760.8,760.8l-37,89.2"/>
				</g>
				<g>
					<path class="st1" d="M717.5,760.8l37,89.2"/>
				</g>
			</g>
			<g>
				<g>
					<path class="st1" d="M739.1,769.7l-73.9,30.6"/>
				</g>
				<g>
					<path class="st1" d="M708.5,739.1L677.9,813"/>
				</g>
			</g>
			<g>
				<g>
					<path class="st1" d="M717.5,760.8l-89.2-37"/>
				</g>
				<g>
					<path class="st1" d="M717.5,717.5l-89.2,37"/>
				</g>
			</g>
			<g>
				<g>
					<path class="st1" d="M708.5,739.1l-30.6-73.9"/>
				</g>
				<g>
					<path class="st1" d="M739.1,708.5l-73.9-30.6"/>
				</g>
			</g>
			<g>
				<g>
					<path class="st1" d="M717.5,717.5l37-89.2"/>
				</g>
				<g>
					<path class="st1" d="M760.8,717.5l-37-89.2"/>
				</g>
			</g>
			<g>
				<g>
					<path class="st1" d="M739.1,708.5l73.9-30.6"/>
				</g>
				<g>
					<path class="st1" d="M769.7,739.1l30.6-73.9"/>
				</g>
			</g>
		</g>
	</g>
</g>
</svg>
