<?xml version="1.0" encoding="utf-8"?>
<!-- Generator: Adobe Illustrator 27.7.0, SVG Export Plug-In . SVG Version: 6.00 Build 0)  -->
<svg version="1.1" xmlns="http://www.w3.org/2000/svg" xmlns:xlink="http://www.w3.org/1999/xlink" x="0px" y="0px"
	 viewBox="0 0 400 400" style="enable-background:new 0 0 400 400;" xml:space="preserve">
<style type="text/css">
	.st0{fill:#FFFFFF;}
	.st1{fill:#FFFFFF;stroke:#000000;stroke-miterlimit:10;}
</style>
<g id="Layer_2">
	<rect class="st0" width="400" height="400"/>
</g>
<g id="Layer_1">
	<g>
		<g>
			<g>
				<g>
					<path class="st1" d="M224.9,175.1l102.7,42.5"/>
				</g>
				<g>
					<path class="st1" d="M224.9,224.9l102.7-42.5"/>
				</g>
			</g>
			<g>
				<g>
					<path class="st1" d="M235.2,200l35.2,85"/>
				</g>
				<g>
					<path class="st1" d="M200,235.2l85,35.2"/>
				</g>
			</g>
			<g>
				<g>
					<path class="st1" d="M224.9,224.9l-42.5,102.7"/>
				</g>
				<g>
					<path class="st1" d="M175.1,224.9l42.5,102.7"/>
				</g>
			</g>
			<g>
				<g>
					<path class="st1" d="M200,235.2l-85,35.2"/>
				</g>
				<g>
					<path class="st1" d="M164.8,200l-35.2,85"/>
				</g>
			</g>
			<g>
				<g>
					<path class="st1" d="M175.1,224.9L72.4,182.4"/>
				</g>
				<g>
					<path class="st1" d="M175.1,175.1L72.4,217.6"/>
				</g>
			</g>
			<g>
				<g>
					<path class="st1" d="M164.8,200l-35.2-85"/>
				</g>
				<g>
					<path class="st1" d="M200,164.8l-85-35.2"/>
				</g>
			</g>
			<g>
				<g>
					<path class="st1" d="M175.1,175.1l42.5-102.7"/>
				</g>
				<g>
					<path class="st1" d="M224.9,175.1L182.4,72.4"/>
				</g>
			</g>
			<g>
				<g>
					<path class="st1" d="M200,164.8l85-35.2"/>
				</g>
				<g>
					<path class="st1" d="M235.2,200l35.2-85"/>
				</g>
			</g>
		</g>
	</g>
</g>
</svg>
