<?xml version="1.0" encoding="utf-8"?>
<!-- Generator: Adobe Illustrator 27.7.0, SVG Export Plug-In . SVG Version: 6.00 Build 0)  -->
<svg version="1.1" id="Layer_1" xmlns="http://www.w3.org/2000/svg" xmlns:xlink="http://www.w3.org/1999/xlink" x="0px" y="0px"
	 viewBox="0 0 400 400" style="enable-background:new 0 0 400 400;" xml:space="preserve">
<style type="text/css">
	.st0{fill:#FFFFFF;}
	.st1{fill:none;stroke:#000000;stroke-linecap:round;stroke-miterlimit:10;}
</style>
<g>
	<rect y="0" class="st0" width="400" height="400"/>
	<g>
		<g>
			<path class="st1" d="M215.7,172.7h126L326,200"/>
			<path class="st1" d="M231.5,200l63-109.1H263"/>
		</g>
		<g>
			<path class="st1" d="M231.5,200l63,109.1H263"/>
			<path class="st1" d="M215.7,227.3h126L326,200"/>
		</g>
		<g>
			<path class="st1" d="M215.7,227.3l-63,109.1L137,309.1"/>
			<path class="st1" d="M184.3,227.3l63,109.1l15.7-27.3"/>
		</g>
		<g>
			<path class="st1" d="M184.3,227.3h-126L74,200"/>
			<path class="st1" d="M168.5,200l-63,109.1H137"/>
		</g>
		<g>
			<path class="st1" d="M168.5,200l-63-109.1H137"/>
			<path class="st1" d="M184.3,172.7h-126L74,200"/>
		</g>
		<g>
			<path class="st1" d="M184.3,172.7l63-109.1L263,90.9"/>
			<path class="st1" d="M215.7,172.7l-63-109.1L137,90.9"/>
		</g>
		<path class="st1" d="M200,294.5l-81.8-47.2v-94.5l81.8-47.2l81.8,47.2v94.5L200,294.5L200,294.5z"/>
	</g>
</g>
</svg>
