<svg version="1.1" xmlns="http://www.w3.org/2000/svg" xmlns:xlink="http://www.w3.org/1999/xlink" width="800" height="800" viewBox="0 0 800 800"><defs/><g><rect fill="rgb(255,255,255)" stroke="none" x="0" y="0" width="800" height="800" transform="matrix(1 0 0 1 0 0)" fill-opacity="1"/><g><g><g><path fill="none" stroke="#000000" paint-order="fill stroke markers" d=" M 343.43145750507614 400 L 322.7259338968745 477.27406610312545 L 245.45186779374905 456.5685424949238" stroke-linecap="round" stroke-miterlimit="10" stroke-dasharray=""/></g><g><path fill="none" stroke="#000000" paint-order="fill stroke markers" d=" M 245.45186779374907 456.5685424949238 L 188.88332529882524 400 L 245.45186779374902 343.4314575050762" stroke-linecap="round" stroke-miterlimit="10" stroke-dasharray=""/></g><g><path fill="none" stroke="#000000" paint-order="fill stroke markers" d=" M 245.451867793749 343.4314575050762 L 322.7259338968745 322.7259338968745 L 343.4314575050762 400" stroke-linecap="round" stroke-miterlimit="10" stroke-dasharray=""/></g></g><g><g><path fill="none" stroke="#000000" paint-order="fill stroke markers" d=" M 371.7157287525381 351.01020514433645 L 294.44166264941265 371.7157287525381 L 273.736139041211 294.44166264941265" stroke-linecap="round" stroke-miterlimit="10" stroke-dasharray=""/></g><g><path fill="none" stroke="#000000" paint-order="fill stroke markers" d=" M 273.73613904121095 294.44166264941265 L 294.4416626494126 217.1675965462872 L 371.71572875253804 237.87312015448882" stroke-linecap="round" stroke-miterlimit="10" stroke-dasharray=""/></g><g><path fill="none" stroke="#000000" paint-order="fill stroke markers" d=" M 371.71572875253804 237.87312015448884 L 428.2842712474619 294.4416626494126 L 371.71572875253815 351.01020514433645" stroke-linecap="round" stroke-miterlimit="10" stroke-dasharray=""/></g></g><g><g><path fill="none" stroke="#000000" paint-order="fill stroke markers" d=" M 428.28427124746185 351.01020514433645 L 371.71572875253804 294.44166264941265 L 428.28427124746185 237.87312015448884" stroke-linecap="round" stroke-miterlimit="10" stroke-dasharray=""/></g><g><path fill="none" stroke="#000000" paint-order="fill stroke markers" d=" M 428.2842712474618 237.87312015448887 L 505.55833735058724 217.16759654628717 L 526.263860958789 294.4416626494126" stroke-linecap="round" stroke-miterlimit="10" stroke-dasharray=""/></g><g><path fill="none" stroke="#000000" paint-order="fill stroke markers" d=" M 526.263860958789 294.4416626494126 L 505.5583373505874 371.7157287525381 L 428.2842712474619 351.0102051443365" stroke-linecap="round" stroke-miterlimit="10" stroke-dasharray=""/></g></g><g><g><path fill="none" stroke="#000000" paint-order="fill stroke markers" d=" M 456.5685424949238 400 L 477.27406610312545 322.72593389687455 L 554.5481322062509 343.4314575050762" stroke-linecap="round" stroke-miterlimit="10" stroke-dasharray=""/></g><g><path fill="none" stroke="#000000" paint-order="fill stroke markers" d=" M 554.5481322062509 343.4314575050762 L 611.1166747011747 400 L 554.5481322062509 456.5685424949238" stroke-linecap="round" stroke-miterlimit="10" stroke-dasharray=""/></g><g><path fill="none" stroke="#000000" paint-order="fill stroke markers" d=" M 554.548132206251 456.56854249492375 L 477.27406610312556 477.2740661031255 L 456.5685424949238 400.00000000000006" stroke-linecap="round" stroke-miterlimit="10" stroke-dasharray=""/></g></g><g><g><path fill="none" stroke="#000000" paint-order="fill stroke markers" d=" M 428.2842712474619 448.9897948556636 L 505.5583373505874 428.28427124746185 L 526.2638609587891 505.5583373505873" stroke-linecap="round" stroke-miterlimit="10" stroke-dasharray=""/></g><g><path fill="none" stroke="#000000" paint-order="fill stroke markers" d=" M 526.2638609587891 505.55833735058724 L 505.5583373505875 582.8324034537127 L 428.284271247462 562.1268798455111" stroke-linecap="round" stroke-miterlimit="10" stroke-dasharray=""/></g><g><path fill="none" stroke="#000000" paint-order="fill stroke markers" d=" M 428.284271247462 562.1268798455112 L 371.71572875253815 505.55833735058746 L 428.2842712474619 448.9897948556636" stroke-linecap="round" stroke-miterlimit="10" stroke-dasharray=""/></g></g><g><g><path fill="none" stroke="#000000" paint-order="fill stroke markers" d=" M 371.7157287525381 448.98979485566355 L 428.2842712474619 505.55833735058735 L 371.7157287525381 562.1268798455112" stroke-linecap="round" stroke-miterlimit="10" stroke-dasharray=""/></g><g><path fill="none" stroke="#000000" paint-order="fill stroke markers" d=" M 371.7157287525381 562.1268798455112 L 294.44166264941265 582.8324034537129 L 273.736139041211 505.5583373505874" stroke-linecap="round" stroke-miterlimit="10" stroke-dasharray=""/></g><g><path fill="none" stroke="#000000" paint-order="fill stroke markers" d=" M 273.73613904121095 505.55833735058735 L 294.4416626494126 428.2842712474619 L 371.71572875253804 448.98979485566355" stroke-linecap="round" stroke-miterlimit="10" stroke-dasharray=""/></g></g></g></g></svg>