<svg version="1.1" xmlns="http://www.w3.org/2000/svg" xmlns:xlink="http://www.w3.org/1999/xlink" width="800" height="800" viewBox="0 0 800 800"><defs/><g><rect fill="rgb(255,255,255)" stroke="none" x="0" y="0" width="800" height="800" transform="matrix(1 0 0 1 0 0)" fill-opacity="1"/><g><g><path fill="none" stroke="#000000" paint-order="fill stroke markers" d=" M 14.14213562373095 -14.142135623730951 L 48.2842712474619 -3.552713678800501e-15 L 109.49747468305833 -25.355339059327378 L 84.85281374238569 -84.8528137423857 L 120.71067811865474 -70.00000000000001" stroke-linecap="round" stroke-miterlimit="10" stroke-dasharray=""/><g><path fill="none" stroke="#000000" paint-order="fill stroke markers" d=" M 14.14213562373095 -14.142135623730951 L -3.552713678800501e-15 -48.2842712474619 L 25.35533905932737 -109.49747468305833 L 84.85281374238569 -84.8528137423857 L 69.99999999999999 -120.71067811865477" stroke-linecap="round" stroke-miterlimit="10" stroke-dasharray=""/></g></g><g><path fill="none" stroke="#000000" paint-order="fill stroke markers" d=" M 14.142135623730951 14.14213562373095 L 3.552713678800501e-15 48.2842712474619 L 25.355339059327378 109.49747468305833 L 84.8528137423857 84.85281374238569 L 70.00000000000001 120.71067811865474" stroke-linecap="round" stroke-miterlimit="10" stroke-dasharray=""/><g><path fill="none" stroke="#000000" paint-order="fill stroke markers" d=" M 14.142135623730951 14.14213562373095 L 48.2842712474619 -3.552713678800501e-15 L 109.49747468305833 25.35533905932737 L 84.8528137423857 84.85281374238569 L 120.71067811865477 69.99999999999999" stroke-linecap="round" stroke-miterlimit="10" stroke-dasharray=""/></g></g><g><path fill="none" stroke="#000000" paint-order="fill stroke markers" d=" M -14.142135623730947 14.142135623730955 L -48.2842712474619 1.0658141036401503e-14 L -109.49747468305833 25.3553390593274 L -84.85281374238568 84.85281374238572 L -120.71067811865473 70.00000000000003" stroke-linecap="round" stroke-miterlimit="10" stroke-dasharray=""/><g><path fill="none" stroke="#000000" paint-order="fill stroke markers" d=" M -14.142135623730947 14.142135623730955 L 1.0658141036401503e-14 48.2842712474619 L -25.35533905932735 109.49747468305833 L -84.85281374238568 84.85281374238572 L -69.99999999999997 120.71067811865478" stroke-linecap="round" stroke-miterlimit="10" stroke-dasharray=""/></g></g><g><path fill="none" stroke="#000000" paint-order="fill stroke markers" d=" M -14.142135623730955 -14.142135623730947 L -1.0658141036401503e-14 -48.2842712474619 L -25.3553390593274 -109.49747468305833 L -84.85281374238572 -84.85281374238568 L -70.00000000000003 -120.71067811865473" stroke-linecap="round" stroke-miterlimit="10" stroke-dasharray=""/><g><path fill="none" stroke="#000000" paint-order="fill stroke markers" d=" M -14.142135623730955 -14.142135623730947 L -48.2842712474619 1.0658141036401503e-14 L -109.49747468305833 -25.35533905932735 L -84.85281374238572 -84.85281374238568 L -120.71067811865478 -69.99999999999997" stroke-linecap="round" stroke-miterlimit="10" stroke-dasharray=""/></g></g></g><g><g><path fill="none" stroke="#000000" paint-order="fill stroke markers" d=" M 254.14213562373095 -14.142135623730951 L 288.2842712474619 -3.552713678800501e-15 L 349.49747468305833 -25.355339059327378 L 324.8528137423857 -84.8528137423857 L 360.71067811865476 -70.00000000000001" stroke-linecap="round" stroke-miterlimit="10" stroke-dasharray=""/><g><path fill="none" stroke="#000000" paint-order="fill stroke markers" d=" M 254.14213562373095 -14.142135623730951 L 240 -48.2842712474619 L 265.3553390593274 -109.49747468305833 L 324.8528137423857 -84.8528137423857 L 310 -120.71067811865477" stroke-linecap="round" stroke-miterlimit="10" stroke-dasharray=""/></g></g><g><path fill="none" stroke="#000000" paint-order="fill stroke markers" d=" M 254.14213562373095 14.14213562373095 L 240 48.2842712474619 L 265.3553390593274 109.49747468305833 L 324.8528137423857 84.85281374238569 L 310 120.71067811865474" stroke-linecap="round" stroke-miterlimit="10" stroke-dasharray=""/><g><path fill="none" stroke="#000000" paint-order="fill stroke markers" d=" M 254.14213562373095 14.14213562373095 L 288.2842712474619 -3.552713678800501e-15 L 349.49747468305833 25.35533905932737 L 324.8528137423857 84.85281374238569 L 360.71067811865476 69.99999999999999" stroke-linecap="round" stroke-miterlimit="10" stroke-dasharray=""/></g></g><g><path fill="none" stroke="#000000" paint-order="fill stroke markers" d=" M 225.85786437626905 14.142135623730955 L 191.7157287525381 1.0658141036401503e-14 L 130.50252531694167 25.3553390593274 L 155.14718625761432 84.85281374238572 L 119.28932188134527 70.00000000000003" stroke-linecap="round" stroke-miterlimit="10" stroke-dasharray=""/><g><path fill="none" stroke="#000000" paint-order="fill stroke markers" d=" M 225.85786437626905 14.142135623730955 L 240 48.2842712474619 L 214.64466094067265 109.49747468305833 L 155.14718625761432 84.85281374238572 L 170.00000000000003 120.71067811865478" stroke-linecap="round" stroke-miterlimit="10" stroke-dasharray=""/></g></g><g><path fill="none" stroke="#000000" paint-order="fill stroke markers" d=" M 225.85786437626905 -14.142135623730947 L 240 -48.2842712474619 L 214.6446609406726 -109.49747468305833 L 155.1471862576143 -84.85281374238568 L 169.99999999999997 -120.71067811865473" stroke-linecap="round" stroke-miterlimit="10" stroke-dasharray=""/><g><path fill="none" stroke="#000000" paint-order="fill stroke markers" d=" M 225.85786437626905 -14.142135623730947 L 191.7157287525381 1.0658141036401503e-14 L 130.50252531694167 -25.35533905932735 L 155.1471862576143 -84.85281374238568 L 119.28932188134522 -69.99999999999997" stroke-linecap="round" stroke-miterlimit="10" stroke-dasharray=""/></g></g></g><g><g><path fill="none" stroke="#000000" paint-order="fill stroke markers" d=" M 494.14213562373095 -14.142135623730951 L 528.2842712474619 -3.552713678800501e-15 L 589.4974746830583 -25.355339059327378 L 564.8528137423857 -84.8528137423857 L 600.7106781186548 -70.00000000000001" stroke-linecap="round" stroke-miterlimit="10" stroke-dasharray=""/><g><path fill="none" stroke="#000000" paint-order="fill stroke markers" d=" M 494.14213562373095 -14.142135623730951 L 480 -48.2842712474619 L 505.3553390593274 -109.49747468305833 L 564.8528137423857 -84.8528137423857 L 550 -120.71067811865477" stroke-linecap="round" stroke-miterlimit="10" stroke-dasharray=""/></g></g><g><path fill="none" stroke="#000000" paint-order="fill stroke markers" d=" M 494.14213562373095 14.14213562373095 L 480 48.2842712474619 L 505.3553390593274 109.49747468305833 L 564.8528137423857 84.85281374238569 L 550 120.71067811865474" stroke-linecap="round" stroke-miterlimit="10" stroke-dasharray=""/><g><path fill="none" stroke="#000000" paint-order="fill stroke markers" d=" M 494.14213562373095 14.14213562373095 L 528.2842712474619 -3.552713678800501e-15 L 589.4974746830583 25.35533905932737 L 564.8528137423857 84.85281374238569 L 600.7106781186548 69.99999999999999" stroke-linecap="round" stroke-miterlimit="10" stroke-dasharray=""/></g></g><g><path fill="none" stroke="#000000" paint-order="fill stroke markers" d=" M 465.85786437626905 14.142135623730955 L 431.7157287525381 1.0658141036401503e-14 L 370.50252531694167 25.3553390593274 L 395.1471862576143 84.85281374238572 L 359.28932188134524 70.00000000000003" stroke-linecap="round" stroke-miterlimit="10" stroke-dasharray=""/><g><path fill="none" stroke="#000000" paint-order="fill stroke markers" d=" M 465.85786437626905 14.142135623730955 L 480 48.2842712474619 L 454.6446609406727 109.49747468305833 L 395.1471862576143 84.85281374238572 L 410 120.71067811865478" stroke-linecap="round" stroke-miterlimit="10" stroke-dasharray=""/></g></g><g><path fill="none" stroke="#000000" paint-order="fill stroke markers" d=" M 465.85786437626905 -14.142135623730947 L 480 -48.2842712474619 L 454.6446609406726 -109.49747468305833 L 395.1471862576143 -84.85281374238568 L 410 -120.71067811865473" stroke-linecap="round" stroke-miterlimit="10" stroke-dasharray=""/><g><path fill="none" stroke="#000000" paint-order="fill stroke markers" d=" M 465.85786437626905 -14.142135623730947 L 431.7157287525381 1.0658141036401503e-14 L 370.50252531694167 -25.35533905932735 L 395.1471862576143 -84.85281374238568 L 359.28932188134524 -69.99999999999997" stroke-linecap="round" stroke-miterlimit="10" stroke-dasharray=""/></g></g></g><g><g><path fill="none" stroke="#000000" paint-order="fill stroke markers" d=" M 734.142135623731 -14.142135623730951 L 768.2842712474619 -3.552713678800501e-15 L 829.4974746830583 -25.355339059327378 L 804.8528137423857 -84.8528137423857 L 840.7106781186548 -70.00000000000001" stroke-linecap="round" stroke-miterlimit="10" stroke-dasharray=""/><g><path fill="none" stroke="#000000" paint-order="fill stroke markers" d=" M 734.142135623731 -14.142135623730951 L 720 -48.2842712474619 L 745.3553390593273 -109.49747468305833 L 804.8528137423857 -84.8528137423857 L 790 -120.71067811865477" stroke-linecap="round" stroke-miterlimit="10" stroke-dasharray=""/></g></g><g><path fill="none" stroke="#000000" paint-order="fill stroke markers" d=" M 734.142135623731 14.14213562373095 L 720 48.2842712474619 L 745.3553390593274 109.49747468305833 L 804.8528137423857 84.85281374238569 L 790 120.71067811865474" stroke-linecap="round" stroke-miterlimit="10" stroke-dasharray=""/><g><path fill="none" stroke="#000000" paint-order="fill stroke markers" d=" M 734.142135623731 14.14213562373095 L 768.2842712474619 -3.552713678800501e-15 L 829.4974746830583 25.35533905932737 L 804.8528137423857 84.85281374238569 L 840.7106781186548 69.99999999999999" stroke-linecap="round" stroke-miterlimit="10" stroke-dasharray=""/></g></g><g><path fill="none" stroke="#000000" paint-order="fill stroke markers" d=" M 705.857864376269 14.142135623730955 L 671.7157287525381 1.0658141036401503e-14 L 610.5025253169417 25.3553390593274 L 635.1471862576143 84.85281374238572 L 599.2893218813452 70.00000000000003" stroke-linecap="round" stroke-miterlimit="10" stroke-dasharray=""/><g><path fill="none" stroke="#000000" paint-order="fill stroke markers" d=" M 705.857864376269 14.142135623730955 L 720 48.2842712474619 L 694.6446609406727 109.49747468305833 L 635.1471862576143 84.85281374238572 L 650 120.71067811865478" stroke-linecap="round" stroke-miterlimit="10" stroke-dasharray=""/></g></g><g><path fill="none" stroke="#000000" paint-order="fill stroke markers" d=" M 705.857864376269 -14.142135623730947 L 720 -48.2842712474619 L 694.6446609406726 -109.49747468305833 L 635.1471862576143 -84.85281374238568 L 650 -120.71067811865473" stroke-linecap="round" stroke-miterlimit="10" stroke-dasharray=""/><g><path fill="none" stroke="#000000" paint-order="fill stroke markers" d=" M 705.857864376269 -14.142135623730947 L 671.7157287525381 1.0658141036401503e-14 L 610.5025253169417 -25.35533905932735 L 635.1471862576143 -84.85281374238568 L 599.2893218813452 -69.99999999999997" stroke-linecap="round" stroke-miterlimit="10" stroke-dasharray=""/></g></g></g><g><g><path fill="none" stroke="#000000" paint-order="fill stroke markers" d=" M 14.14213562373095 225.85786437626905 L 48.2842712474619 240 L 109.49747468305833 214.64466094067262 L 84.85281374238569 155.1471862576143 L 120.71067811865474 170" stroke-linecap="round" stroke-miterlimit="10" stroke-dasharray=""/><g><path fill="none" stroke="#000000" paint-order="fill stroke markers" d=" M 14.14213562373095 225.85786437626905 L -3.552713678800501e-15 191.7157287525381 L 25.35533905932737 130.50252531694167 L 84.85281374238569 155.1471862576143 L 69.99999999999999 119.28932188134523" stroke-linecap="round" stroke-miterlimit="10" stroke-dasharray=""/></g></g><g><path fill="none" stroke="#000000" paint-order="fill stroke markers" d=" M 14.142135623730951 254.14213562373095 L 3.552713678800501e-15 288.2842712474619 L 25.355339059327378 349.49747468305833 L 84.8528137423857 324.8528137423857 L 70.00000000000001 360.71067811865476" stroke-linecap="round" stroke-miterlimit="10" stroke-dasharray=""/><g><path fill="none" stroke="#000000" paint-order="fill stroke markers" d=" M 14.142135623730951 254.14213562373095 L 48.2842712474619 240 L 109.49747468305833 265.3553390593274 L 84.8528137423857 324.8528137423857 L 120.71067811865477 310" stroke-linecap="round" stroke-miterlimit="10" stroke-dasharray=""/></g></g><g><path fill="none" stroke="#000000" paint-order="fill stroke markers" d=" M -14.142135623730947 254.14213562373095 L -48.2842712474619 240 L -109.49747468305833 265.3553390593274 L -84.85281374238568 324.8528137423857 L -120.71067811865473 310" stroke-linecap="round" stroke-miterlimit="10" stroke-dasharray=""/><g><path fill="none" stroke="#000000" paint-order="fill stroke markers" d=" M -14.142135623730947 254.14213562373095 L 1.0658141036401503e-14 288.2842712474619 L -25.35533905932735 349.49747468305833 L -84.85281374238568 324.8528137423857 L -69.99999999999997 360.71067811865476" stroke-linecap="round" stroke-miterlimit="10" stroke-dasharray=""/></g></g><g><path fill="none" stroke="#000000" paint-order="fill stroke markers" d=" M -14.142135623730955 225.85786437626905 L -1.0658141036401503e-14 191.7157287525381 L -25.3553390593274 130.50252531694167 L -84.85281374238572 155.14718625761432 L -70.00000000000003 119.28932188134527" stroke-linecap="round" stroke-miterlimit="10" stroke-dasharray=""/><g><path fill="none" stroke="#000000" paint-order="fill stroke markers" d=" M -14.142135623730955 225.85786437626905 L -48.2842712474619 240 L -109.49747468305833 214.64466094067265 L -84.85281374238572 155.14718625761432 L -120.71067811865478 170.00000000000003" stroke-linecap="round" stroke-miterlimit="10" stroke-dasharray=""/></g></g></g><g><g><path fill="none" stroke="#000000" paint-order="fill stroke markers" d=" M 254.14213562373095 225.85786437626905 L 288.2842712474619 240 L 349.49747468305833 214.64466094067262 L 324.8528137423857 155.1471862576143 L 360.71067811865476 170" stroke-linecap="round" stroke-miterlimit="10" stroke-dasharray=""/><g><path fill="none" stroke="#000000" paint-order="fill stroke markers" d=" M 254.14213562373095 225.85786437626905 L 240 191.7157287525381 L 265.3553390593274 130.50252531694167 L 324.8528137423857 155.1471862576143 L 310 119.28932188134523" stroke-linecap="round" stroke-miterlimit="10" stroke-dasharray=""/></g></g><g><path fill="none" stroke="#000000" paint-order="fill stroke markers" d=" M 254.14213562373095 254.14213562373095 L 240 288.2842712474619 L 265.3553390593274 349.49747468305833 L 324.8528137423857 324.8528137423857 L 310 360.71067811865476" stroke-linecap="round" stroke-miterlimit="10" stroke-dasharray=""/><g><path fill="none" stroke="#000000" paint-order="fill stroke markers" d=" M 254.14213562373095 254.14213562373095 L 288.2842712474619 240 L 349.49747468305833 265.3553390593274 L 324.8528137423857 324.8528137423857 L 360.71067811865476 310" stroke-linecap="round" stroke-miterlimit="10" stroke-dasharray=""/></g></g><g><path fill="none" stroke="#000000" paint-order="fill stroke markers" d=" M 225.85786437626905 254.14213562373095 L 191.7157287525381 240 L 130.50252531694167 265.3553390593274 L 155.14718625761432 324.8528137423857 L 119.28932188134527 310" stroke-linecap="round" stroke-miterlimit="10" stroke-dasharray=""/><g><path fill="none" stroke="#000000" paint-order="fill stroke markers" d=" M 225.85786437626905 254.14213562373095 L 240 288.2842712474619 L 214.64466094067265 349.49747468305833 L 155.14718625761432 324.8528137423857 L 170.00000000000003 360.71067811865476" stroke-linecap="round" stroke-miterlimit="10" stroke-dasharray=""/></g></g><g><path fill="none" stroke="#000000" paint-order="fill stroke markers" d=" M 225.85786437626905 225.85786437626905 L 240 191.7157287525381 L 214.6446609406726 130.50252531694167 L 155.1471862576143 155.14718625761432 L 169.99999999999997 119.28932188134527" stroke-linecap="round" stroke-miterlimit="10" stroke-dasharray=""/><g><path fill="none" stroke="#000000" paint-order="fill stroke markers" d=" M 225.85786437626905 225.85786437626905 L 191.7157287525381 240 L 130.50252531694167 214.64466094067265 L 155.1471862576143 155.14718625761432 L 119.28932188134522 170.00000000000003" stroke-linecap="round" stroke-miterlimit="10" stroke-dasharray=""/></g></g></g><g><g><path fill="none" stroke="#000000" paint-order="fill stroke markers" d=" M 494.14213562373095 225.85786437626905 L 528.2842712474619 240 L 589.4974746830583 214.64466094067262 L 564.8528137423857 155.1471862576143 L 600.7106781186548 170" stroke-linecap="round" stroke-miterlimit="10" stroke-dasharray=""/><g><path fill="none" stroke="#000000" paint-order="fill stroke markers" d=" M 494.14213562373095 225.85786437626905 L 480 191.7157287525381 L 505.3553390593274 130.50252531694167 L 564.8528137423857 155.1471862576143 L 550 119.28932188134523" stroke-linecap="round" stroke-miterlimit="10" stroke-dasharray=""/></g></g><g><path fill="none" stroke="#000000" paint-order="fill stroke markers" d=" M 494.14213562373095 254.14213562373095 L 480 288.2842712474619 L 505.3553390593274 349.49747468305833 L 564.8528137423857 324.8528137423857 L 550 360.71067811865476" stroke-linecap="round" stroke-miterlimit="10" stroke-dasharray=""/><g><path fill="none" stroke="#000000" paint-order="fill stroke markers" d=" M 494.14213562373095 254.14213562373095 L 528.2842712474619 240 L 589.4974746830583 265.3553390593274 L 564.8528137423857 324.8528137423857 L 600.7106781186548 310" stroke-linecap="round" stroke-miterlimit="10" stroke-dasharray=""/></g></g><g><path fill="none" stroke="#000000" paint-order="fill stroke markers" d=" M 465.85786437626905 254.14213562373095 L 431.7157287525381 240 L 370.50252531694167 265.3553390593274 L 395.1471862576143 324.8528137423857 L 359.28932188134524 310" stroke-linecap="round" stroke-miterlimit="10" stroke-dasharray=""/><g><path fill="none" stroke="#000000" paint-order="fill stroke markers" d=" M 465.85786437626905 254.14213562373095 L 480 288.2842712474619 L 454.6446609406727 349.49747468305833 L 395.1471862576143 324.8528137423857 L 410 360.71067811865476" stroke-linecap="round" stroke-miterlimit="10" stroke-dasharray=""/></g></g><g><path fill="none" stroke="#000000" paint-order="fill stroke markers" d=" M 465.85786437626905 225.85786437626905 L 480 191.7157287525381 L 454.6446609406726 130.50252531694167 L 395.1471862576143 155.14718625761432 L 410 119.28932188134527" stroke-linecap="round" stroke-miterlimit="10" stroke-dasharray=""/><g><path fill="none" stroke="#000000" paint-order="fill stroke markers" d=" M 465.85786437626905 225.85786437626905 L 431.7157287525381 240 L 370.50252531694167 214.64466094067265 L 395.1471862576143 155.14718625761432 L 359.28932188134524 170.00000000000003" stroke-linecap="round" stroke-miterlimit="10" stroke-dasharray=""/></g></g></g><g><g><path fill="none" stroke="#000000" paint-order="fill stroke markers" d=" M 734.142135623731 225.85786437626905 L 768.2842712474619 240 L 829.4974746830583 214.64466094067262 L 804.8528137423857 155.1471862576143 L 840.7106781186548 170" stroke-linecap="round" stroke-miterlimit="10" stroke-dasharray=""/><g><path fill="none" stroke="#000000" paint-order="fill stroke markers" d=" M 734.142135623731 225.85786437626905 L 720 191.7157287525381 L 745.3553390593273 130.50252531694167 L 804.8528137423857 155.1471862576143 L 790 119.28932188134523" stroke-linecap="round" stroke-miterlimit="10" stroke-dasharray=""/></g></g><g><path fill="none" stroke="#000000" paint-order="fill stroke markers" d=" M 734.142135623731 254.14213562373095 L 720 288.2842712474619 L 745.3553390593274 349.49747468305833 L 804.8528137423857 324.8528137423857 L 790 360.71067811865476" stroke-linecap="round" stroke-miterlimit="10" stroke-dasharray=""/><g><path fill="none" stroke="#000000" paint-order="fill stroke markers" d=" M 734.142135623731 254.14213562373095 L 768.2842712474619 240 L 829.4974746830583 265.3553390593274 L 804.8528137423857 324.8528137423857 L 840.7106781186548 310" stroke-linecap="round" stroke-miterlimit="10" stroke-dasharray=""/></g></g><g><path fill="none" stroke="#000000" paint-order="fill stroke markers" d=" M 705.857864376269 254.14213562373095 L 671.7157287525381 240 L 610.5025253169417 265.3553390593274 L 635.1471862576143 324.8528137423857 L 599.2893218813452 310" stroke-linecap="round" stroke-miterlimit="10" stroke-dasharray=""/><g><path fill="none" stroke="#000000" paint-order="fill stroke markers" d=" M 705.857864376269 254.14213562373095 L 720 288.2842712474619 L 694.6446609406727 349.49747468305833 L 635.1471862576143 324.8528137423857 L 650 360.71067811865476" stroke-linecap="round" stroke-miterlimit="10" stroke-dasharray=""/></g></g><g><path fill="none" stroke="#000000" paint-order="fill stroke markers" d=" M 705.857864376269 225.85786437626905 L 720 191.7157287525381 L 694.6446609406726 130.50252531694167 L 635.1471862576143 155.14718625761432 L 650 119.28932188134527" stroke-linecap="round" stroke-miterlimit="10" stroke-dasharray=""/><g><path fill="none" stroke="#000000" paint-order="fill stroke markers" d=" M 705.857864376269 225.85786437626905 L 671.7157287525381 240 L 610.5025253169417 214.64466094067265 L 635.1471862576143 155.14718625761432 L 599.2893218813452 170.00000000000003" stroke-linecap="round" stroke-miterlimit="10" stroke-dasharray=""/></g></g></g><g><g><path fill="none" stroke="#000000" paint-order="fill stroke markers" d=" M 14.14213562373095 465.85786437626905 L 48.2842712474619 480 L 109.49747468305833 454.6446609406726 L 84.85281374238569 395.1471862576143 L 120.71067811865474 410" stroke-linecap="round" stroke-miterlimit="10" stroke-dasharray=""/><g><path fill="none" stroke="#000000" paint-order="fill stroke markers" d=" M 14.14213562373095 465.85786437626905 L -3.552713678800501e-15 431.7157287525381 L 25.35533905932737 370.50252531694167 L 84.85281374238569 395.1471862576143 L 69.99999999999999 359.28932188134524" stroke-linecap="round" stroke-miterlimit="10" stroke-dasharray=""/></g></g><g><path fill="none" stroke="#000000" paint-order="fill stroke markers" d=" M 14.142135623730951 494.14213562373095 L 3.552713678800501e-15 528.2842712474619 L 25.355339059327378 589.4974746830583 L 84.8528137423857 564.8528137423857 L 70.00000000000001 600.7106781186548" stroke-linecap="round" stroke-miterlimit="10" stroke-dasharray=""/><g><path fill="none" stroke="#000000" paint-order="fill stroke markers" d=" M 14.142135623730951 494.14213562373095 L 48.2842712474619 480 L 109.49747468305833 505.3553390593274 L 84.8528137423857 564.8528137423857 L 120.71067811865477 550" stroke-linecap="round" stroke-miterlimit="10" stroke-dasharray=""/></g></g><g><path fill="none" stroke="#000000" paint-order="fill stroke markers" d=" M -14.142135623730947 494.14213562373095 L -48.2842712474619 480 L -109.49747468305833 505.3553390593274 L -84.85281374238568 564.8528137423857 L -120.71067811865473 550" stroke-linecap="round" stroke-miterlimit="10" stroke-dasharray=""/><g><path fill="none" stroke="#000000" paint-order="fill stroke markers" d=" M -14.142135623730947 494.14213562373095 L 1.0658141036401503e-14 528.2842712474619 L -25.35533905932735 589.4974746830583 L -84.85281374238568 564.8528137423857 L -69.99999999999997 600.7106781186548" stroke-linecap="round" stroke-miterlimit="10" stroke-dasharray=""/></g></g><g><path fill="none" stroke="#000000" paint-order="fill stroke markers" d=" M -14.142135623730955 465.85786437626905 L -1.0658141036401503e-14 431.7157287525381 L -25.3553390593274 370.50252531694167 L -84.85281374238572 395.1471862576143 L -70.00000000000003 359.28932188134524" stroke-linecap="round" stroke-miterlimit="10" stroke-dasharray=""/><g><path fill="none" stroke="#000000" paint-order="fill stroke markers" d=" M -14.142135623730955 465.85786437626905 L -48.2842712474619 480 L -109.49747468305833 454.6446609406727 L -84.85281374238572 395.1471862576143 L -120.71067811865478 410" stroke-linecap="round" stroke-miterlimit="10" stroke-dasharray=""/></g></g></g><g><g><path fill="none" stroke="#000000" paint-order="fill stroke markers" d=" M 254.14213562373095 465.85786437626905 L 288.2842712474619 480 L 349.49747468305833 454.6446609406726 L 324.8528137423857 395.1471862576143 L 360.71067811865476 410" stroke-linecap="round" stroke-miterlimit="10" stroke-dasharray=""/><g><path fill="none" stroke="#000000" paint-order="fill stroke markers" d=" M 254.14213562373095 465.85786437626905 L 240 431.7157287525381 L 265.3553390593274 370.50252531694167 L 324.8528137423857 395.1471862576143 L 310 359.28932188134524" stroke-linecap="round" stroke-miterlimit="10" stroke-dasharray=""/></g></g><g><path fill="none" stroke="#000000" paint-order="fill stroke markers" d=" M 254.14213562373095 494.14213562373095 L 240 528.2842712474619 L 265.3553390593274 589.4974746830583 L 324.8528137423857 564.8528137423857 L 310 600.7106781186548" stroke-linecap="round" stroke-miterlimit="10" stroke-dasharray=""/><g><path fill="none" stroke="#000000" paint-order="fill stroke markers" d=" M 254.14213562373095 494.14213562373095 L 288.2842712474619 480 L 349.49747468305833 505.3553390593274 L 324.8528137423857 564.8528137423857 L 360.71067811865476 550" stroke-linecap="round" stroke-miterlimit="10" stroke-dasharray=""/></g></g><g><path fill="none" stroke="#000000" paint-order="fill stroke markers" d=" M 225.85786437626905 494.14213562373095 L 191.7157287525381 480 L 130.50252531694167 505.3553390593274 L 155.14718625761432 564.8528137423857 L 119.28932188134527 550" stroke-linecap="round" stroke-miterlimit="10" stroke-dasharray=""/><g><path fill="none" stroke="#000000" paint-order="fill stroke markers" d=" M 225.85786437626905 494.14213562373095 L 240 528.2842712474619 L 214.64466094067265 589.4974746830583 L 155.14718625761432 564.8528137423857 L 170.00000000000003 600.7106781186548" stroke-linecap="round" stroke-miterlimit="10" stroke-dasharray=""/></g></g><g><path fill="none" stroke="#000000" paint-order="fill stroke markers" d=" M 225.85786437626905 465.85786437626905 L 240 431.7157287525381 L 214.6446609406726 370.50252531694167 L 155.1471862576143 395.1471862576143 L 169.99999999999997 359.28932188134524" stroke-linecap="round" stroke-miterlimit="10" stroke-dasharray=""/><g><path fill="none" stroke="#000000" paint-order="fill stroke markers" d=" M 225.85786437626905 465.85786437626905 L 191.7157287525381 480 L 130.50252531694167 454.6446609406727 L 155.1471862576143 395.1471862576143 L 119.28932188134522 410" stroke-linecap="round" stroke-miterlimit="10" stroke-dasharray=""/></g></g></g><g><g><path fill="none" stroke="#000000" paint-order="fill stroke markers" d=" M 494.14213562373095 465.85786437626905 L 528.2842712474619 480 L 589.4974746830583 454.6446609406726 L 564.8528137423857 395.1471862576143 L 600.7106781186548 410" stroke-linecap="round" stroke-miterlimit="10" stroke-dasharray=""/><g><path fill="none" stroke="#000000" paint-order="fill stroke markers" d=" M 494.14213562373095 465.85786437626905 L 480 431.7157287525381 L 505.3553390593274 370.50252531694167 L 564.8528137423857 395.1471862576143 L 550 359.28932188134524" stroke-linecap="round" stroke-miterlimit="10" stroke-dasharray=""/></g></g><g><path fill="none" stroke="#000000" paint-order="fill stroke markers" d=" M 494.14213562373095 494.14213562373095 L 480 528.2842712474619 L 505.3553390593274 589.4974746830583 L 564.8528137423857 564.8528137423857 L 550 600.7106781186548" stroke-linecap="round" stroke-miterlimit="10" stroke-dasharray=""/><g><path fill="none" stroke="#000000" paint-order="fill stroke markers" d=" M 494.14213562373095 494.14213562373095 L 528.2842712474619 480 L 589.4974746830583 505.3553390593274 L 564.8528137423857 564.8528137423857 L 600.7106781186548 550" stroke-linecap="round" stroke-miterlimit="10" stroke-dasharray=""/></g></g><g><path fill="none" stroke="#000000" paint-order="fill stroke markers" d=" M 465.85786437626905 494.14213562373095 L 431.7157287525381 480 L 370.50252531694167 505.3553390593274 L 395.1471862576143 564.8528137423857 L 359.28932188134524 550" stroke-linecap="round" stroke-miterlimit="10" stroke-dasharray=""/><g><path fill="none" stroke="#000000" paint-order="fill stroke markers" d=" M 465.85786437626905 494.14213562373095 L 480 528.2842712474619 L 454.6446609406727 589.4974746830583 L 395.1471862576143 564.8528137423857 L 410 600.7106781186548" stroke-linecap="round" stroke-miterlimit="10" stroke-dasharray=""/></g></g><g><path fill="none" stroke="#000000" paint-order="fill stroke markers" d=" M 465.85786437626905 465.85786437626905 L 480 431.7157287525381 L 454.6446609406726 370.50252531694167 L 395.1471862576143 395.1471862576143 L 410 359.28932188134524" stroke-linecap="round" stroke-miterlimit="10" stroke-dasharray=""/><g><path fill="none" stroke="#000000" paint-order="fill stroke markers" d=" M 465.85786437626905 465.85786437626905 L 431.7157287525381 480 L 370.50252531694167 454.6446609406727 L 395.1471862576143 395.1471862576143 L 359.28932188134524 410" stroke-linecap="round" stroke-miterlimit="10" stroke-dasharray=""/></g></g></g><g><g><path fill="none" stroke="#000000" paint-order="fill stroke markers" d=" M 734.142135623731 465.85786437626905 L 768.2842712474619 480 L 829.4974746830583 454.6446609406726 L 804.8528137423857 395.1471862576143 L 840.7106781186548 410" stroke-linecap="round" stroke-miterlimit="10" stroke-dasharray=""/><g><path fill="none" stroke="#000000" paint-order="fill stroke markers" d=" M 734.142135623731 465.85786437626905 L 720 431.7157287525381 L 745.3553390593273 370.50252531694167 L 804.8528137423857 395.1471862576143 L 790 359.28932188134524" stroke-linecap="round" stroke-miterlimit="10" stroke-dasharray=""/></g></g><g><path fill="none" stroke="#000000" paint-order="fill stroke markers" d=" M 734.142135623731 494.14213562373095 L 720 528.2842712474619 L 745.3553390593274 589.4974746830583 L 804.8528137423857 564.8528137423857 L 790 600.7106781186548" stroke-linecap="round" stroke-miterlimit="10" stroke-dasharray=""/><g><path fill="none" stroke="#000000" paint-order="fill stroke markers" d=" M 734.142135623731 494.14213562373095 L 768.2842712474619 480 L 829.4974746830583 505.3553390593274 L 804.8528137423857 564.8528137423857 L 840.7106781186548 550" stroke-linecap="round" stroke-miterlimit="10" stroke-dasharray=""/></g></g><g><path fill="none" stroke="#000000" paint-order="fill stroke markers" d=" M 705.857864376269 494.14213562373095 L 671.7157287525381 480 L 610.5025253169417 505.3553390593274 L 635.1471862576143 564.8528137423857 L 599.2893218813452 550" stroke-linecap="round" stroke-miterlimit="10" stroke-dasharray=""/><g><path fill="none" stroke="#000000" paint-order="fill stroke markers" d=" M 705.857864376269 494.14213562373095 L 720 528.2842712474619 L 694.6446609406727 589.4974746830583 L 635.1471862576143 564.8528137423857 L 650 600.7106781186548" stroke-linecap="round" stroke-miterlimit="10" stroke-dasharray=""/></g></g><g><path fill="none" stroke="#000000" paint-order="fill stroke markers" d=" M 705.857864376269 465.85786437626905 L 720 431.7157287525381 L 694.6446609406726 370.50252531694167 L 635.1471862576143 395.1471862576143 L 650 359.28932188134524" stroke-linecap="round" stroke-miterlimit="10" stroke-dasharray=""/><g><path fill="none" stroke="#000000" paint-order="fill stroke markers" d=" M 705.857864376269 465.85786437626905 L 671.7157287525381 480 L 610.5025253169417 454.6446609406727 L 635.1471862576143 395.1471862576143 L 599.2893218813452 410" stroke-linecap="round" stroke-miterlimit="10" stroke-dasharray=""/></g></g></g><g><g><path fill="none" stroke="#000000" paint-order="fill stroke markers" d=" M 14.14213562373095 705.857864376269 L 48.2842712474619 720 L 109.49747468305833 694.6446609406726 L 84.85281374238569 635.1471862576143 L 120.71067811865474 650" stroke-linecap="round" stroke-miterlimit="10" stroke-dasharray=""/><g><path fill="none" stroke="#000000" paint-order="fill stroke markers" d=" M 14.14213562373095 705.857864376269 L -3.552713678800501e-15 671.7157287525381 L 25.35533905932737 610.5025253169417 L 84.85281374238569 635.1471862576143 L 69.99999999999999 599.2893218813452" stroke-linecap="round" stroke-miterlimit="10" stroke-dasharray=""/></g></g><g><path fill="none" stroke="#000000" paint-order="fill stroke markers" d=" M 14.142135623730951 734.142135623731 L 3.552713678800501e-15 768.2842712474619 L 25.355339059327378 829.4974746830583 L 84.8528137423857 804.8528137423857 L 70.00000000000001 840.7106781186548" stroke-linecap="round" stroke-miterlimit="10" stroke-dasharray=""/><g><path fill="none" stroke="#000000" paint-order="fill stroke markers" d=" M 14.142135623730951 734.142135623731 L 48.2842712474619 720 L 109.49747468305833 745.3553390593273 L 84.8528137423857 804.8528137423857 L 120.71067811865477 790" stroke-linecap="round" stroke-miterlimit="10" stroke-dasharray=""/></g></g><g><path fill="none" stroke="#000000" paint-order="fill stroke markers" d=" M -14.142135623730947 734.142135623731 L -48.2842712474619 720 L -109.49747468305833 745.3553390593274 L -84.85281374238568 804.8528137423857 L -120.71067811865473 790" stroke-linecap="round" stroke-miterlimit="10" stroke-dasharray=""/><g><path fill="none" stroke="#000000" paint-order="fill stroke markers" d=" M -14.142135623730947 734.142135623731 L 1.0658141036401503e-14 768.2842712474619 L -25.35533905932735 829.4974746830583 L -84.85281374238568 804.8528137423857 L -69.99999999999997 840.7106781186548" stroke-linecap="round" stroke-miterlimit="10" stroke-dasharray=""/></g></g><g><path fill="none" stroke="#000000" paint-order="fill stroke markers" d=" M -14.142135623730955 705.857864376269 L -1.0658141036401503e-14 671.7157287525381 L -25.3553390593274 610.5025253169417 L -84.85281374238572 635.1471862576143 L -70.00000000000003 599.2893218813452" stroke-linecap="round" stroke-miterlimit="10" stroke-dasharray=""/><g><path fill="none" stroke="#000000" paint-order="fill stroke markers" d=" M -14.142135623730955 705.857864376269 L -48.2842712474619 720 L -109.49747468305833 694.6446609406727 L -84.85281374238572 635.1471862576143 L -120.71067811865478 650" stroke-linecap="round" stroke-miterlimit="10" stroke-dasharray=""/></g></g></g><g><g><path fill="none" stroke="#000000" paint-order="fill stroke markers" d=" M 254.14213562373095 705.857864376269 L 288.2842712474619 720 L 349.49747468305833 694.6446609406726 L 324.8528137423857 635.1471862576143 L 360.71067811865476 650" stroke-linecap="round" stroke-miterlimit="10" stroke-dasharray=""/><g><path fill="none" stroke="#000000" paint-order="fill stroke markers" d=" M 254.14213562373095 705.857864376269 L 240 671.7157287525381 L 265.3553390593274 610.5025253169417 L 324.8528137423857 635.1471862576143 L 310 599.2893218813452" stroke-linecap="round" stroke-miterlimit="10" stroke-dasharray=""/></g></g><g><path fill="none" stroke="#000000" paint-order="fill stroke markers" d=" M 254.14213562373095 734.142135623731 L 240 768.2842712474619 L 265.3553390593274 829.4974746830583 L 324.8528137423857 804.8528137423857 L 310 840.7106781186548" stroke-linecap="round" stroke-miterlimit="10" stroke-dasharray=""/><g><path fill="none" stroke="#000000" paint-order="fill stroke markers" d=" M 254.14213562373095 734.142135623731 L 288.2842712474619 720 L 349.49747468305833 745.3553390593273 L 324.8528137423857 804.8528137423857 L 360.71067811865476 790" stroke-linecap="round" stroke-miterlimit="10" stroke-dasharray=""/></g></g><g><path fill="none" stroke="#000000" paint-order="fill stroke markers" d=" M 225.85786437626905 734.142135623731 L 191.7157287525381 720 L 130.50252531694167 745.3553390593274 L 155.14718625761432 804.8528137423857 L 119.28932188134527 790" stroke-linecap="round" stroke-miterlimit="10" stroke-dasharray=""/><g><path fill="none" stroke="#000000" paint-order="fill stroke markers" d=" M 225.85786437626905 734.142135623731 L 240 768.2842712474619 L 214.64466094067265 829.4974746830583 L 155.14718625761432 804.8528137423857 L 170.00000000000003 840.7106781186548" stroke-linecap="round" stroke-miterlimit="10" stroke-dasharray=""/></g></g><g><path fill="none" stroke="#000000" paint-order="fill stroke markers" d=" M 225.85786437626905 705.857864376269 L 240 671.7157287525381 L 214.6446609406726 610.5025253169417 L 155.1471862576143 635.1471862576143 L 169.99999999999997 599.2893218813452" stroke-linecap="round" stroke-miterlimit="10" stroke-dasharray=""/><g><path fill="none" stroke="#000000" paint-order="fill stroke markers" d=" M 225.85786437626905 705.857864376269 L 191.7157287525381 720 L 130.50252531694167 694.6446609406727 L 155.1471862576143 635.1471862576143 L 119.28932188134522 650" stroke-linecap="round" stroke-miterlimit="10" stroke-dasharray=""/></g></g></g><g><g><path fill="none" stroke="#000000" paint-order="fill stroke markers" d=" M 494.14213562373095 705.857864376269 L 528.2842712474619 720 L 589.4974746830583 694.6446609406726 L 564.8528137423857 635.1471862576143 L 600.7106781186548 650" stroke-linecap="round" stroke-miterlimit="10" stroke-dasharray=""/><g><path fill="none" stroke="#000000" paint-order="fill stroke markers" d=" M 494.14213562373095 705.857864376269 L 480 671.7157287525381 L 505.3553390593274 610.5025253169417 L 564.8528137423857 635.1471862576143 L 550 599.2893218813452" stroke-linecap="round" stroke-miterlimit="10" stroke-dasharray=""/></g></g><g><path fill="none" stroke="#000000" paint-order="fill stroke markers" d=" M 494.14213562373095 734.142135623731 L 480 768.2842712474619 L 505.3553390593274 829.4974746830583 L 564.8528137423857 804.8528137423857 L 550 840.7106781186548" stroke-linecap="round" stroke-miterlimit="10" stroke-dasharray=""/><g><path fill="none" stroke="#000000" paint-order="fill stroke markers" d=" M 494.14213562373095 734.142135623731 L 528.2842712474619 720 L 589.4974746830583 745.3553390593273 L 564.8528137423857 804.8528137423857 L 600.7106781186548 790" stroke-linecap="round" stroke-miterlimit="10" stroke-dasharray=""/></g></g><g><path fill="none" stroke="#000000" paint-order="fill stroke markers" d=" M 465.85786437626905 734.142135623731 L 431.7157287525381 720 L 370.50252531694167 745.3553390593274 L 395.1471862576143 804.8528137423857 L 359.28932188134524 790" stroke-linecap="round" stroke-miterlimit="10" stroke-dasharray=""/><g><path fill="none" stroke="#000000" paint-order="fill stroke markers" d=" M 465.85786437626905 734.142135623731 L 480 768.2842712474619 L 454.6446609406727 829.4974746830583 L 395.1471862576143 804.8528137423857 L 410 840.7106781186548" stroke-linecap="round" stroke-miterlimit="10" stroke-dasharray=""/></g></g><g><path fill="none" stroke="#000000" paint-order="fill stroke markers" d=" M 465.85786437626905 705.857864376269 L 480 671.7157287525381 L 454.6446609406726 610.5025253169417 L 395.1471862576143 635.1471862576143 L 410 599.2893218813452" stroke-linecap="round" stroke-miterlimit="10" stroke-dasharray=""/><g><path fill="none" stroke="#000000" paint-order="fill stroke markers" d=" M 465.85786437626905 705.857864376269 L 431.7157287525381 720 L 370.50252531694167 694.6446609406727 L 395.1471862576143 635.1471862576143 L 359.28932188134524 650" stroke-linecap="round" stroke-miterlimit="10" stroke-dasharray=""/></g></g></g><g><g><path fill="none" stroke="#000000" paint-order="fill stroke markers" d=" M 734.142135623731 705.857864376269 L 768.2842712474619 720 L 829.4974746830583 694.6446609406726 L 804.8528137423857 635.1471862576143 L 840.7106781186548 650" stroke-linecap="round" stroke-miterlimit="10" stroke-dasharray=""/><g><path fill="none" stroke="#000000" paint-order="fill stroke markers" d=" M 734.142135623731 705.857864376269 L 720 671.7157287525381 L 745.3553390593273 610.5025253169417 L 804.8528137423857 635.1471862576143 L 790 599.2893218813452" stroke-linecap="round" stroke-miterlimit="10" stroke-dasharray=""/></g></g><g><path fill="none" stroke="#000000" paint-order="fill stroke markers" d=" M 734.142135623731 734.142135623731 L 720 768.2842712474619 L 745.3553390593274 829.4974746830583 L 804.8528137423857 804.8528137423857 L 790 840.7106781186548" stroke-linecap="round" stroke-miterlimit="10" stroke-dasharray=""/><g><path fill="none" stroke="#000000" paint-order="fill stroke markers" d=" M 734.142135623731 734.142135623731 L 768.2842712474619 720 L 829.4974746830583 745.3553390593273 L 804.8528137423857 804.8528137423857 L 840.7106781186548 790" stroke-linecap="round" stroke-miterlimit="10" stroke-dasharray=""/></g></g><g><path fill="none" stroke="#000000" paint-order="fill stroke markers" d=" M 705.857864376269 734.142135623731 L 671.7157287525381 720 L 610.5025253169417 745.3553390593274 L 635.1471862576143 804.8528137423857 L 599.2893218813452 790" stroke-linecap="round" stroke-miterlimit="10" stroke-dasharray=""/><g><path fill="none" stroke="#000000" paint-order="fill stroke markers" d=" M 705.857864376269 734.142135623731 L 720 768.2842712474619 L 694.6446609406727 829.4974746830583 L 635.1471862576143 804.8528137423857 L 650 840.7106781186548" stroke-linecap="round" stroke-miterlimit="10" stroke-dasharray=""/></g></g><g><path fill="none" stroke="#000000" paint-order="fill stroke markers" d=" M 705.857864376269 705.857864376269 L 720 671.7157287525381 L 694.6446609406726 610.5025253169417 L 635.1471862576143 635.1471862576143 L 650 599.2893218813452" stroke-linecap="round" stroke-miterlimit="10" stroke-dasharray=""/><g><path fill="none" stroke="#000000" paint-order="fill stroke markers" d=" M 705.857864376269 705.857864376269 L 671.7157287525381 720 L 610.5025253169417 694.6446609406727 L 635.1471862576143 635.1471862576143 L 599.2893218813452 650" stroke-linecap="round" stroke-miterlimit="10" stroke-dasharray=""/></g></g></g></g></svg>