<?xml version="1.0" encoding="utf-8"?>
<!-- Generator: Adobe Illustrator 27.7.0, SVG Export Plug-In . SVG Version: 6.00 Build 0)  -->
<svg version="1.1" xmlns="http://www.w3.org/2000/svg" xmlns:xlink="http://www.w3.org/1999/xlink" x="0px" y="0px"
	 viewBox="0 0 800 800" style="enable-background:new 0 0 800 800;" xml:space="preserve">
<style type="text/css">
	.st0{fill:#FFFFFF;}
	.st1{fill:none;stroke:#000000;stroke-linecap:round;stroke-miterlimit:10;}
</style>
<g id="Layer_2">
	<rect class="st0" width="800" height="800"/>
</g>
<g id="Layer_1">
	<g>
		<rect y="0" class="st0" width="800" height="800"/>
		<g>
			<g>
				<path class="st1" d="M14.1-14.1L48.3,0l61.2-25.4L84.9-84.9L120.7-70"/>
				<g>
					<path class="st1" d="M14.1-14.1L0-48.3l25.4-61.2l59.5,24.6L70-120.7"/>
				</g>
			</g>
			<g>
				<path class="st1" d="M14.1,14.1L0,48.3l25.4,61.2l59.5-24.6L70,120.7"/>
				<g>
					<path class="st1" d="M14.1,14.1L48.3,0l61.2,25.4L84.9,84.9L120.7,70"/>
				</g>
			</g>
			<g>
				<path class="st1" d="M-14.1,14.1L-48.3,0l-61.2,25.4l24.6,59.5L-120.7,70"/>
				<g>
					<path class="st1" d="M-14.1,14.1L0,48.3l-25.4,61.2l-59.5-24.6l14.9,35.9"/>
				</g>
			</g>
			<g>
				<path class="st1" d="M-14.1-14.1L0-48.3l-25.4-61.2l-59.5,24.6l14.9-35.9"/>
				<g>
					<path class="st1" d="M-14.1-14.1L-48.3,0l-61.2-25.4l24.6-59.5L-120.7-70"/>
				</g>
			</g>
		</g>
		<g>
			<g>
				<path class="st1" d="M254.1-14.1L288.3,0l61.2-25.4l-24.6-59.5L360.7-70"/>
				<g>
					<path class="st1" d="M254.1-14.1L240-48.3l25.4-61.2l59.5,24.6L310-120.7"/>
				</g>
			</g>
			<g>
				<path class="st1" d="M254.1,14.1L240,48.3l25.4,61.2l59.5-24.6L310,120.7"/>
				<g>
					<path class="st1" d="M254.1,14.1L288.3,0l61.2,25.4l-24.6,59.5L360.7,70"/>
				</g>
			</g>
			<g>
				<path class="st1" d="M225.9,14.1L191.7,0l-61.2,25.4l24.6,59.5L119.3,70"/>
				<g>
					<path class="st1" d="M225.9,14.1L240,48.3l-25.4,61.2l-59.5-24.6l14.9,35.9"/>
				</g>
			</g>
			<g>
				<path class="st1" d="M225.9-14.1L240-48.3l-25.4-61.2l-59.5,24.6l14.9-35.9"/>
				<g>
					<path class="st1" d="M225.9-14.1L191.7,0l-61.2-25.4l24.6-59.5L119.3-70"/>
				</g>
			</g>
		</g>
		<g>
			<g>
				<path class="st1" d="M494.1-14.1L528.3,0l61.2-25.4l-24.6-59.5L600.7-70"/>
				<g>
					<path class="st1" d="M494.1-14.1L480-48.3l25.4-61.2l59.5,24.6L550-120.7"/>
				</g>
			</g>
			<g>
				<path class="st1" d="M494.1,14.1L480,48.3l25.4,61.2l59.5-24.6L550,120.7"/>
				<g>
					<path class="st1" d="M494.1,14.1L528.3,0l61.2,25.4l-24.6,59.5L600.7,70"/>
				</g>
			</g>
			<g>
				<path class="st1" d="M465.9,14.1L431.7,0l-61.2,25.4l24.6,59.5L359.3,70"/>
				<g>
					<path class="st1" d="M465.9,14.1L480,48.3l-25.4,61.2l-59.5-24.6l14.9,35.9"/>
				</g>
			</g>
			<g>
				<path class="st1" d="M465.9-14.1L480-48.3l-25.4-61.2l-59.5,24.6l14.9-35.9"/>
				<g>
					<path class="st1" d="M465.9-14.1L431.7,0l-61.2-25.4l24.6-59.5L359.3-70"/>
				</g>
			</g>
		</g>
		<g>
			<g>
				<path class="st1" d="M734.1-14.1L768.3,0l61.2-25.4l-24.6-59.5L840.7-70"/>
				<g>
					<path class="st1" d="M734.1-14.1L720-48.3l25.4-61.2l59.5,24.6L790-120.7"/>
				</g>
			</g>
			<g>
				<path class="st1" d="M734.1,14.1L720,48.3l25.4,61.2l59.5-24.6L790,120.7"/>
				<g>
					<path class="st1" d="M734.1,14.1L768.3,0l61.2,25.4l-24.6,59.5L840.7,70"/>
				</g>
			</g>
			<g>
				<path class="st1" d="M705.9,14.1L671.7,0l-61.2,25.4l24.6,59.5L599.3,70"/>
				<g>
					<path class="st1" d="M705.9,14.1L720,48.3l-25.4,61.2l-59.5-24.6l14.9,35.9"/>
				</g>
			</g>
			<g>
				<path class="st1" d="M705.9-14.1L720-48.3l-25.4-61.2l-59.5,24.6l14.9-35.9"/>
				<g>
					<path class="st1" d="M705.9-14.1L671.7,0l-61.2-25.4l24.6-59.5L599.3-70"/>
				</g>
			</g>
		</g>
		<g>
			<g>
				<path class="st1" d="M14.1,225.9L48.3,240l61.2-25.4l-24.6-59.5l35.9,14.9"/>
				<g>
					<path class="st1" d="M14.1,225.9L0,191.7l25.4-61.2l59.5,24.6L70,119.3"/>
				</g>
			</g>
			<g>
				<path class="st1" d="M14.1,254.1L0,288.3l25.4,61.2l59.5-24.6L70,360.7"/>
				<g>
					<path class="st1" d="M14.1,254.1L48.3,240l61.2,25.4l-24.6,59.5l35.9-14.9"/>
				</g>
			</g>
			<g>
				<path class="st1" d="M-14.1,254.1L-48.3,240l-61.2,25.4l24.6,59.5l-35.9-14.9"/>
				<g>
					<path class="st1" d="M-14.1,254.1L0,288.3l-25.4,61.2l-59.5-24.6l14.9,35.9"/>
				</g>
			</g>
			<g>
				<path class="st1" d="M-14.1,225.9L0,191.7l-25.4-61.2l-59.5,24.6l14.9-35.9"/>
				<g>
					<path class="st1" d="M-14.1,225.9L-48.3,240l-61.2-25.4l24.6-59.5l-35.9,14.9"/>
				</g>
			</g>
		</g>
		<g>
			<g>
				<path class="st1" d="M254.1,225.9l34.1,14.1l61.2-25.4l-24.6-59.5l35.9,14.9"/>
				<g>
					<path class="st1" d="M254.1,225.9L240,191.7l25.4-61.2l59.5,24.6L310,119.3"/>
				</g>
			</g>
			<g>
				<path class="st1" d="M254.1,254.1L240,288.3l25.4,61.2l59.5-24.6L310,360.7"/>
				<g>
					<path class="st1" d="M254.1,254.1l34.1-14.1l61.2,25.4l-24.6,59.5l35.9-14.9"/>
				</g>
			</g>
			<g>
				<path class="st1" d="M225.9,254.1L191.7,240l-61.2,25.4l24.6,59.5L119.3,310"/>
				<g>
					<path class="st1" d="M225.9,254.1l14.1,34.1l-25.4,61.2l-59.5-24.6l14.9,35.9"/>
				</g>
			</g>
			<g>
				<path class="st1" d="M225.9,225.9l14.1-34.1l-25.4-61.2l-59.5,24.6l14.9-35.9"/>
				<g>
					<path class="st1" d="M225.9,225.9L191.7,240l-61.2-25.4l24.6-59.5L119.3,170"/>
				</g>
			</g>
		</g>
		<g>
			<g>
				<path class="st1" d="M494.1,225.9l34.1,14.1l61.2-25.4l-24.6-59.5l35.9,14.9"/>
				<g>
					<path class="st1" d="M494.1,225.9L480,191.7l25.4-61.2l59.5,24.6L550,119.3"/>
				</g>
			</g>
			<g>
				<path class="st1" d="M494.1,254.1L480,288.3l25.4,61.2l59.5-24.6L550,360.7"/>
				<g>
					<path class="st1" d="M494.1,254.1l34.1-14.1l61.2,25.4l-24.6,59.5l35.9-14.9"/>
				</g>
			</g>
			<g>
				<path class="st1" d="M465.9,254.1L431.7,240l-61.2,25.4l24.6,59.5L359.3,310"/>
				<g>
					<path class="st1" d="M465.9,254.1l14.1,34.1l-25.4,61.2l-59.5-24.6l14.9,35.9"/>
				</g>
			</g>
			<g>
				<path class="st1" d="M465.9,225.9l14.1-34.1l-25.4-61.2l-59.5,24.6l14.9-35.9"/>
				<g>
					<path class="st1" d="M465.9,225.9L431.7,240l-61.2-25.4l24.6-59.5L359.3,170"/>
				</g>
			</g>
		</g>
		<g>
			<g>
				<path class="st1" d="M734.1,225.9l34.1,14.1l61.2-25.4l-24.6-59.5l35.9,14.9"/>
				<g>
					<path class="st1" d="M734.1,225.9L720,191.7l25.4-61.2l59.5,24.6L790,119.3"/>
				</g>
			</g>
			<g>
				<path class="st1" d="M734.1,254.1L720,288.3l25.4,61.2l59.5-24.6L790,360.7"/>
				<g>
					<path class="st1" d="M734.1,254.1l34.1-14.1l61.2,25.4l-24.6,59.5l35.9-14.9"/>
				</g>
			</g>
			<g>
				<path class="st1" d="M705.9,254.1L671.7,240l-61.2,25.4l24.6,59.5L599.3,310"/>
				<g>
					<path class="st1" d="M705.9,254.1l14.1,34.1l-25.4,61.2l-59.5-24.6l14.9,35.9"/>
				</g>
			</g>
			<g>
				<path class="st1" d="M705.9,225.9l14.1-34.1l-25.4-61.2l-59.5,24.6l14.9-35.9"/>
				<g>
					<path class="st1" d="M705.9,225.9L671.7,240l-61.2-25.4l24.6-59.5L599.3,170"/>
				</g>
			</g>
		</g>
		<g>
			<g>
				<path class="st1" d="M14.1,465.9L48.3,480l61.2-25.4l-24.6-59.5l35.9,14.9"/>
				<g>
					<path class="st1" d="M14.1,465.9L0,431.7l25.4-61.2l59.5,24.6L70,359.3"/>
				</g>
			</g>
			<g>
				<path class="st1" d="M14.1,494.1L0,528.3l25.4,61.2l59.5-24.6L70,600.7"/>
				<g>
					<path class="st1" d="M14.1,494.1L48.3,480l61.2,25.4l-24.6,59.5l35.9-14.9"/>
				</g>
			</g>
			<g>
				<path class="st1" d="M-14.1,494.1L-48.3,480l-61.2,25.4l24.6,59.5l-35.9-14.9"/>
				<g>
					<path class="st1" d="M-14.1,494.1L0,528.3l-25.4,61.2l-59.5-24.6l14.9,35.9"/>
				</g>
			</g>
			<g>
				<path class="st1" d="M-14.1,465.9L0,431.7l-25.4-61.2l-59.5,24.6l14.9-35.9"/>
				<g>
					<path class="st1" d="M-14.1,465.9L-48.3,480l-61.2-25.4l24.6-59.5l-35.9,14.9"/>
				</g>
			</g>
		</g>
		<g>
			<g>
				<path class="st1" d="M254.1,465.9l34.1,14.1l61.2-25.4l-24.6-59.5l35.9,14.9"/>
				<g>
					<path class="st1" d="M254.1,465.9L240,431.7l25.4-61.2l59.5,24.6L310,359.3"/>
				</g>
			</g>
			<g>
				<path class="st1" d="M254.1,494.1L240,528.3l25.4,61.2l59.5-24.6L310,600.7"/>
				<g>
					<path class="st1" d="M254.1,494.1l34.1-14.1l61.2,25.4l-24.6,59.5l35.9-14.9"/>
				</g>
			</g>
			<g>
				<path class="st1" d="M225.9,494.1L191.7,480l-61.2,25.4l24.6,59.5L119.3,550"/>
				<g>
					<path class="st1" d="M225.9,494.1l14.1,34.1l-25.4,61.2l-59.5-24.6l14.9,35.9"/>
				</g>
			</g>
			<g>
				<path class="st1" d="M225.9,465.9l14.1-34.1l-25.4-61.2l-59.5,24.6l14.9-35.9"/>
				<g>
					<path class="st1" d="M225.9,465.9L191.7,480l-61.2-25.4l24.6-59.5L119.3,410"/>
				</g>
			</g>
		</g>
		<g>
			<g>
				<path class="st1" d="M494.1,465.9l34.1,14.1l61.2-25.4l-24.6-59.5l35.9,14.9"/>
				<g>
					<path class="st1" d="M494.1,465.9L480,431.7l25.4-61.2l59.5,24.6L550,359.3"/>
				</g>
			</g>
			<g>
				<path class="st1" d="M494.1,494.1L480,528.3l25.4,61.2l59.5-24.6L550,600.7"/>
				<g>
					<path class="st1" d="M494.1,494.1l34.1-14.1l61.2,25.4l-24.6,59.5l35.9-14.9"/>
				</g>
			</g>
			<g>
				<path class="st1" d="M465.9,494.1L431.7,480l-61.2,25.4l24.6,59.5L359.3,550"/>
				<g>
					<path class="st1" d="M465.9,494.1l14.1,34.1l-25.4,61.2l-59.5-24.6l14.9,35.9"/>
				</g>
			</g>
			<g>
				<path class="st1" d="M465.9,465.9l14.1-34.1l-25.4-61.2l-59.5,24.6l14.9-35.9"/>
				<g>
					<path class="st1" d="M465.9,465.9L431.7,480l-61.2-25.4l24.6-59.5L359.3,410"/>
				</g>
			</g>
		</g>
		<g>
			<g>
				<path class="st1" d="M734.1,465.9l34.1,14.1l61.2-25.4l-24.6-59.5l35.9,14.9"/>
				<g>
					<path class="st1" d="M734.1,465.9L720,431.7l25.4-61.2l59.5,24.6L790,359.3"/>
				</g>
			</g>
			<g>
				<path class="st1" d="M734.1,494.1L720,528.3l25.4,61.2l59.5-24.6L790,600.7"/>
				<g>
					<path class="st1" d="M734.1,494.1l34.1-14.1l61.2,25.4l-24.6,59.5l35.9-14.9"/>
				</g>
			</g>
			<g>
				<path class="st1" d="M705.9,494.1L671.7,480l-61.2,25.4l24.6,59.5L599.3,550"/>
				<g>
					<path class="st1" d="M705.9,494.1l14.1,34.1l-25.4,61.2l-59.5-24.6l14.9,35.9"/>
				</g>
			</g>
			<g>
				<path class="st1" d="M705.9,465.9l14.1-34.1l-25.4-61.2l-59.5,24.6l14.9-35.9"/>
				<g>
					<path class="st1" d="M705.9,465.9L671.7,480l-61.2-25.4l24.6-59.5L599.3,410"/>
				</g>
			</g>
		</g>
		<g>
			<g>
				<path class="st1" d="M14.1,705.9L48.3,720l61.2-25.4l-24.6-59.5l35.9,14.9"/>
				<g>
					<path class="st1" d="M14.1,705.9L0,671.7l25.4-61.2l59.5,24.6L70,599.3"/>
				</g>
			</g>
			<g>
				<path class="st1" d="M14.1,734.1L0,768.3l25.4,61.2l59.5-24.6L70,840.7"/>
				<g>
					<path class="st1" d="M14.1,734.1L48.3,720l61.2,25.4l-24.6,59.5l35.9-14.9"/>
				</g>
			</g>
			<g>
				<path class="st1" d="M-14.1,734.1L-48.3,720l-61.2,25.4l24.6,59.5l-35.9-14.9"/>
				<g>
					<path class="st1" d="M-14.1,734.1L0,768.3l-25.4,61.2l-59.5-24.6l14.9,35.9"/>
				</g>
			</g>
			<g>
				<path class="st1" d="M-14.1,705.9L0,671.7l-25.4-61.2l-59.5,24.6l14.9-35.9"/>
				<g>
					<path class="st1" d="M-14.1,705.9L-48.3,720l-61.2-25.4l24.6-59.5l-35.9,14.9"/>
				</g>
			</g>
		</g>
		<g>
			<g>
				<path class="st1" d="M254.1,705.9l34.1,14.1l61.2-25.4l-24.6-59.5l35.9,14.9"/>
				<g>
					<path class="st1" d="M254.1,705.9L240,671.7l25.4-61.2l59.5,24.6L310,599.3"/>
				</g>
			</g>
			<g>
				<path class="st1" d="M254.1,734.1L240,768.3l25.4,61.2l59.5-24.6L310,840.7"/>
				<g>
					<path class="st1" d="M254.1,734.1l34.1-14.1l61.2,25.4l-24.6,59.5l35.9-14.9"/>
				</g>
			</g>
			<g>
				<path class="st1" d="M225.9,734.1L191.7,720l-61.2,25.4l24.6,59.5L119.3,790"/>
				<g>
					<path class="st1" d="M225.9,734.1l14.1,34.1l-25.4,61.2l-59.5-24.6l14.9,35.9"/>
				</g>
			</g>
			<g>
				<path class="st1" d="M225.9,705.9l14.1-34.1l-25.4-61.2l-59.5,24.6l14.9-35.9"/>
				<g>
					<path class="st1" d="M225.9,705.9L191.7,720l-61.2-25.4l24.6-59.5L119.3,650"/>
				</g>
			</g>
		</g>
		<g>
			<g>
				<path class="st1" d="M494.1,705.9l34.1,14.1l61.2-25.4l-24.6-59.5l35.9,14.9"/>
				<g>
					<path class="st1" d="M494.1,705.9L480,671.7l25.4-61.2l59.5,24.6L550,599.3"/>
				</g>
			</g>
			<g>
				<path class="st1" d="M494.1,734.1L480,768.3l25.4,61.2l59.5-24.6L550,840.7"/>
				<g>
					<path class="st1" d="M494.1,734.1l34.1-14.1l61.2,25.4l-24.6,59.5l35.9-14.9"/>
				</g>
			</g>
			<g>
				<path class="st1" d="M465.9,734.1L431.7,720l-61.2,25.4l24.6,59.5L359.3,790"/>
				<g>
					<path class="st1" d="M465.9,734.1l14.1,34.1l-25.4,61.2l-59.5-24.6l14.9,35.9"/>
				</g>
			</g>
			<g>
				<path class="st1" d="M465.9,705.9l14.1-34.1l-25.4-61.2l-59.5,24.6l14.9-35.9"/>
				<g>
					<path class="st1" d="M465.9,705.9L431.7,720l-61.2-25.4l24.6-59.5L359.3,650"/>
				</g>
			</g>
		</g>
		<g>
			<g>
				<path class="st1" d="M734.1,705.9l34.1,14.1l61.2-25.4l-24.6-59.5l35.9,14.9"/>
				<g>
					<path class="st1" d="M734.1,705.9L720,671.7l25.4-61.2l59.5,24.6L790,599.3"/>
				</g>
			</g>
			<g>
				<path class="st1" d="M734.1,734.1L720,768.3l25.4,61.2l59.5-24.6L790,840.7"/>
				<g>
					<path class="st1" d="M734.1,734.1l34.1-14.1l61.2,25.4l-24.6,59.5l35.9-14.9"/>
				</g>
			</g>
			<g>
				<path class="st1" d="M705.9,734.1L671.7,720l-61.2,25.4l24.6,59.5L599.3,790"/>
				<g>
					<path class="st1" d="M705.9,734.1l14.1,34.1l-25.4,61.2l-59.5-24.6l14.9,35.9"/>
				</g>
			</g>
			<g>
				<path class="st1" d="M705.9,705.9l14.1-34.1l-25.4-61.2l-59.5,24.6l14.9-35.9"/>
				<g>
					<path class="st1" d="M705.9,705.9L671.7,720l-61.2-25.4l24.6-59.5L599.3,650"/>
				</g>
			</g>
		</g>
	</g>
</g>
</svg>
