<?xml version="1.0" encoding="utf-8"?>
<!-- Generator: Adobe Illustrator 27.7.0, SVG Export Plug-In . SVG Version: 6.00 Build 0)  -->
<svg version="1.1" id="Layer_1" xmlns="http://www.w3.org/2000/svg" xmlns:xlink="http://www.w3.org/1999/xlink" x="0px" y="0px"
	 viewBox="0 0 400 400" style="enable-background:new 0 0 400 400;" xml:space="preserve">
<style type="text/css">
	.st0{fill:#FFFFFF;}
	.st1{fill:none;stroke:#000000;stroke-linecap:round;stroke-miterlimit:10;}
</style>
<g>
	<rect y="0" class="st0" width="400" height="400"/>
	<g>
		<g>
			<path class="st1" d="M213.3,186.7l32.1,13.3l57.5-23.8l-23.1-55.9l33.7,14"/>
			<path class="st1" d="M213.3,186.7L200,154.6l23.8-57.5l55.9,23.1l-14-33.7"/>
		</g>
		<g>
			<path class="st1" d="M213.3,213.3L200,245.4l23.8,57.5l55.9-23.1l-14,33.7"/>
			<path class="st1" d="M213.3,213.3l32.1-13.3l57.5,23.8l-23.1,55.9l33.7-14"/>
		</g>
		<g>
			<path class="st1" d="M186.7,213.3L154.6,200l-57.5,23.8l23.1,55.9l-33.7-14"/>
			<path class="st1" d="M186.7,213.3l13.3,32.1l-23.8,57.5l-55.9-23.1l14,33.7"/>
		</g>
		<g>
			<path class="st1" d="M186.7,186.7l13.3-32.1l-23.8-57.5l-55.9,23.1l14-33.7"/>
			<path class="st1" d="M186.7,186.7L154.6,200l-57.5-23.8l23.1-55.9l-33.7,14"/>
		</g>
	</g>
</g>
</svg>
