<svg version="1.1" xmlns="http://www.w3.org/2000/svg" xmlns:xlink="http://www.w3.org/1999/xlink" width="400" height="400" viewBox="0 0 400 400"><defs/><g><g><g><path fill="none" stroke="#000000" paint-order="fill stroke markers" d=" M 235.35533905932738 164.64466094067262 L 335.3553390593274 164.64466094067262 L 350 200" stroke-linecap="round" stroke-miterlimit="10" stroke-dasharray=""/><path fill="none" stroke="#000000" paint-order="fill stroke markers" d=" M 250 200 L 320.71067811865476 129.28932188134524 L 306.06601717798213 93.93398282201787 L 350 112.13203435596425" stroke-linecap="round" stroke-miterlimit="10" stroke-dasharray=""/><g><path fill="none" stroke="#000000" paint-order="fill stroke markers" d=" M 235.35533905932738 164.64466094067262 L 235.35533905932735 64.64466094067262 L 199.99999999999997 50" stroke-linecap="round" stroke-miterlimit="10" stroke-dasharray=""/><path fill="none" stroke="#000000" paint-order="fill stroke markers" d=" M 200 150 L 270.71067811865476 79.28932188134524 L 306.06601717798213 93.93398282201787 L 287.86796564403573 50" stroke-linecap="round" stroke-miterlimit="10" stroke-dasharray=""/></g></g><g><path fill="none" stroke="#000000" paint-order="fill stroke markers" d=" M 235.35533905932738 235.35533905932738 L 235.35533905932738 335.3553390593274 L 200 350" stroke-linecap="round" stroke-miterlimit="10" stroke-dasharray=""/><path fill="none" stroke="#000000" paint-order="fill stroke markers" d=" M 200 250 L 270.71067811865476 320.71067811865476 L 306.06601717798213 306.06601717798213 L 287.86796564403573 350" stroke-linecap="round" stroke-miterlimit="10" stroke-dasharray=""/><g><path fill="none" stroke="#000000" paint-order="fill stroke markers" d=" M 235.35533905932738 235.35533905932738 L 335.3553390593274 235.35533905932735 L 350 199.99999999999997" stroke-linecap="round" stroke-miterlimit="10" stroke-dasharray=""/><path fill="none" stroke="#000000" paint-order="fill stroke markers" d=" M 250 200 L 320.71067811865476 270.71067811865476 L 306.06601717798213 306.06601717798213 L 350 287.86796564403573" stroke-linecap="round" stroke-miterlimit="10" stroke-dasharray=""/></g></g><g><path fill="none" stroke="#000000" paint-order="fill stroke markers" d=" M 164.64466094067262 235.35533905932738 L 64.64466094067262 235.3553390593274 L 50 200.00000000000003" stroke-linecap="round" stroke-miterlimit="10" stroke-dasharray=""/><path fill="none" stroke="#000000" paint-order="fill stroke markers" d=" M 150 200 L 79.28932188134527 270.71067811865476 L 93.9339828220179 306.06601717798213 L 50 287.8679656440358" stroke-linecap="round" stroke-miterlimit="10" stroke-dasharray=""/><g><path fill="none" stroke="#000000" paint-order="fill stroke markers" d=" M 164.64466094067262 235.35533905932738 L 164.64466094067268 335.3553390593274 L 200.00000000000006 350" stroke-linecap="round" stroke-miterlimit="10" stroke-dasharray=""/><path fill="none" stroke="#000000" paint-order="fill stroke markers" d=" M 200.00000000000003 250 L 129.28932188134527 320.71067811865476 L 93.9339828220179 306.06601717798213 L 112.1320343559643 350" stroke-linecap="round" stroke-miterlimit="10" stroke-dasharray=""/></g></g><g><path fill="none" stroke="#000000" paint-order="fill stroke markers" d=" M 164.64466094067262 164.64466094067262 L 164.6446609406726 64.64466094067262 L 199.99999999999997 50" stroke-linecap="round" stroke-miterlimit="10" stroke-dasharray=""/><path fill="none" stroke="#000000" paint-order="fill stroke markers" d=" M 200 150 L 129.28932188134524 79.28932188134527 L 93.93398282201785 93.9339828220179 L 112.13203435596422 50" stroke-linecap="round" stroke-miterlimit="10" stroke-dasharray=""/><g><path fill="none" stroke="#000000" paint-order="fill stroke markers" d=" M 164.64466094067262 164.64466094067262 L 64.64466094067262 164.64466094067268 L 50 200.00000000000006" stroke-linecap="round" stroke-miterlimit="10" stroke-dasharray=""/><path fill="none" stroke="#000000" paint-order="fill stroke markers" d=" M 150 200.00000000000003 L 79.28932188134523 129.28932188134527 L 93.93398282201785 93.9339828220179 L 49.99999999999997 112.1320343559643" stroke-linecap="round" stroke-miterlimit="10" stroke-dasharray=""/></g></g></g></g></svg>