<?xml version="1.0" encoding="utf-8"?>
<!-- Generator: Adobe Illustrator 27.7.0, SVG Export Plug-In . SVG Version: 6.00 Build 0)  -->
<svg version="1.1" xmlns="http://www.w3.org/2000/svg" xmlns:xlink="http://www.w3.org/1999/xlink" x="0px" y="0px"
	 viewBox="0 0 400 400" style="enable-background:new 0 0 400 400;" xml:space="preserve">
<style type="text/css">
	.st0{fill:#FFFFFF;}
	.st1{fill:none;stroke:#000000;stroke-linecap:round;stroke-miterlimit:10;}
</style>
<g id="Layer_2">
	<rect class="st0" width="400" height="400"/>
</g>
<g id="Layer_1">
	<g>
		<g>
			<g>
				<path class="st1" d="M230.1,169.9h85l12.5,30.1"/>
				<path class="st1" d="M242.5,200l60.1-60.1l-12.5-30.1l37.4,15.5"/>
				<g>
					<path class="st1" d="M230.1,169.9v-85L200,72.4"/>
					<path class="st1" d="M200,157.5l60.1-60.1l30.1,12.5l-15.5-37.4"/>
				</g>
			</g>
			<g>
				<path class="st1" d="M230.1,230.1v85L200,327.6"/>
				<path class="st1" d="M200,242.5l60.1,60.1l30.1-12.5l-15.5,37.4"/>
				<g>
					<path class="st1" d="M230.1,230.1h85l12.5-30.1"/>
					<path class="st1" d="M242.5,200l60.1,60.1l-12.5,30.1l37.4-15.5"/>
				</g>
			</g>
			<g>
				<path class="st1" d="M169.9,230.1h-85L72.4,200"/>
				<path class="st1" d="M157.5,200l-60.1,60.1l12.5,30.1l-37.4-15.5"/>
				<g>
					<path class="st1" d="M169.9,230.1v85l30.1,12.5"/>
					<path class="st1" d="M200,242.5l-60.1,60.1l-30.1-12.5l15.5,37.4"/>
				</g>
			</g>
			<g>
				<path class="st1" d="M169.9,169.9v-85L200,72.4"/>
				<path class="st1" d="M200,157.5l-60.1-60.1l-30.1,12.5l15.5-37.4"/>
				<g>
					<path class="st1" d="M169.9,169.9h-85L72.4,200"/>
					<path class="st1" d="M157.5,200l-60.1-60.1l12.5-30.1l-37.4,15.5"/>
				</g>
			</g>
		</g>
	</g>
</g>
</svg>
