<?xml version="1.0" encoding="utf-8"?>
<!-- Generator: Adobe Illustrator 27.7.0, SVG Export Plug-In . SVG Version: 6.00 Build 0)  -->
<svg version="1.1" xmlns="http://www.w3.org/2000/svg" xmlns:xlink="http://www.w3.org/1999/xlink" x="0px" y="0px"
	 viewBox="0 0 800 800" style="enable-background:new 0 0 800 800;" xml:space="preserve">
<style type="text/css">
	.st0{fill:#FFFFFF;}
	.st1{fill:none;stroke:#000000;stroke-linecap:round;stroke-miterlimit:10;}
</style>
<g id="Layer_2">
	<rect class="st0" width="800" height="800"/>
</g>
<g id="Layer_1">
	<g>
		<g>
			<g>
				<g>
					<path class="st1" d="M11.3-11.3h32L48,0"/>
					<path class="st1" d="M16,0l22.6-22.6l-4.7-11.3L48-28.1"/>
					<g>
						<path class="st1" d="M11.3-11.3v-32L0-48"/>
						<path class="st1" d="M0-16l22.6-22.6l11.3,4.7L28.1-48"/>
					</g>
				</g>
				<g>
					<path class="st1" d="M11.3,11.3v32L0,48"/>
					<path class="st1" d="M0,16l22.6,22.6l11.3-4.7L28.1,48"/>
					<g>
						<path class="st1" d="M11.3,11.3h32L48,0"/>
						<path class="st1" d="M16,0l22.6,22.6l-4.7,11.3L48,28.1"/>
					</g>
				</g>
				<g>
					<path class="st1" d="M-11.3,11.3h-32L-48,0"/>
					<path class="st1" d="M-16,0l-22.6,22.6l4.7,11.3L-48,28.1"/>
					<g>
						<path class="st1" d="M-11.3,11.3v32L0,48"/>
						<path class="st1" d="M0,16l-22.6,22.6l-11.3-4.7l5.8,14.1"/>
					</g>
				</g>
				<g>
					<path class="st1" d="M-11.3-11.3v-32L0-48"/>
					<path class="st1" d="M0-16l-22.6-22.6l-11.3,4.7l5.8-14.1"/>
					<g>
						<path class="st1" d="M-11.3-11.3h-32L-48,0"/>
						<path class="st1" d="M-16,0l-22.6-22.6l4.7-11.3L-48-28.1"/>
					</g>
				</g>
			</g>
		</g>
		<g>
			<g>
				<g>
					<path class="st1" d="M107.3-11.3h32L144,0"/>
					<path class="st1" d="M112,0l22.6-22.6l-4.7-11.3l14.1,5.8"/>
					<g>
						<path class="st1" d="M107.3-11.3v-32L96-48"/>
						<path class="st1" d="M96-16l22.6-22.6l11.3,4.7L124.1-48"/>
					</g>
				</g>
				<g>
					<path class="st1" d="M107.3,11.3v32L96,48"/>
					<path class="st1" d="M96,16l22.6,22.6l11.3-4.7L124.1,48"/>
					<g>
						<path class="st1" d="M107.3,11.3h32L144,0"/>
						<path class="st1" d="M112,0l22.6,22.6l-4.7,11.3l14.1-5.8"/>
					</g>
				</g>
				<g>
					<path class="st1" d="M84.7,11.3h-32L48,0"/>
					<path class="st1" d="M80,0L57.4,22.6l4.7,11.3L48,28.1"/>
					<g>
						<path class="st1" d="M84.7,11.3v32L96,48"/>
						<path class="st1" d="M96,16L73.4,38.6l-11.3-4.7L67.9,48"/>
					</g>
				</g>
				<g>
					<path class="st1" d="M84.7-11.3v-32L96-48"/>
					<path class="st1" d="M96-16L73.4-38.6l-11.3,4.7L67.9-48"/>
					<g>
						<path class="st1" d="M84.7-11.3h-32L48,0"/>
						<path class="st1" d="M80,0L57.4-22.6l4.7-11.3L48-28.1"/>
					</g>
				</g>
			</g>
		</g>
		<g>
			<g>
				<g>
					<path class="st1" d="M203.3-11.3h32L240,0"/>
					<path class="st1" d="M208,0l22.6-22.6l-4.7-11.3l14.1,5.8"/>
					<g>
						<path class="st1" d="M203.3-11.3v-32L192-48"/>
						<path class="st1" d="M192-16l22.6-22.6l11.3,4.7L220.1-48"/>
					</g>
				</g>
				<g>
					<path class="st1" d="M203.3,11.3v32L192,48"/>
					<path class="st1" d="M192,16l22.6,22.6l11.3-4.7L220.1,48"/>
					<g>
						<path class="st1" d="M203.3,11.3h32L240,0"/>
						<path class="st1" d="M208,0l22.6,22.6l-4.7,11.3l14.1-5.8"/>
					</g>
				</g>
				<g>
					<path class="st1" d="M180.7,11.3h-32L144,0"/>
					<path class="st1" d="M176,0l-22.6,22.6l4.7,11.3L144,28.1"/>
					<g>
						<path class="st1" d="M180.7,11.3v32L192,48"/>
						<path class="st1" d="M192,16l-22.6,22.6l-11.3-4.7l5.8,14.1"/>
					</g>
				</g>
				<g>
					<path class="st1" d="M180.7-11.3v-32L192-48"/>
					<path class="st1" d="M192-16l-22.6-22.6l-11.3,4.7l5.8-14.1"/>
					<g>
						<path class="st1" d="M180.7-11.3h-32L144,0"/>
						<path class="st1" d="M176,0l-22.6-22.6l4.7-11.3L144-28.1"/>
					</g>
				</g>
			</g>
		</g>
		<g>
			<g>
				<g>
					<path class="st1" d="M299.3-11.3h32L336,0"/>
					<path class="st1" d="M304,0l22.6-22.6l-4.7-11.3l14.1,5.8"/>
					<g>
						<path class="st1" d="M299.3-11.3v-32L288-48"/>
						<path class="st1" d="M288-16l22.6-22.6l11.3,4.7L316.1-48"/>
					</g>
				</g>
				<g>
					<path class="st1" d="M299.3,11.3v32L288,48"/>
					<path class="st1" d="M288,16l22.6,22.6l11.3-4.7L316.1,48"/>
					<g>
						<path class="st1" d="M299.3,11.3h32L336,0"/>
						<path class="st1" d="M304,0l22.6,22.6l-4.7,11.3l14.1-5.8"/>
					</g>
				</g>
				<g>
					<path class="st1" d="M276.7,11.3h-32L240,0"/>
					<path class="st1" d="M272,0l-22.6,22.6l4.7,11.3L240,28.1"/>
					<g>
						<path class="st1" d="M276.7,11.3v32L288,48"/>
						<path class="st1" d="M288,16l-22.6,22.6l-11.3-4.7l5.8,14.1"/>
					</g>
				</g>
				<g>
					<path class="st1" d="M276.7-11.3v-32L288-48"/>
					<path class="st1" d="M288-16l-22.6-22.6l-11.3,4.7l5.8-14.1"/>
					<g>
						<path class="st1" d="M276.7-11.3h-32L240,0"/>
						<path class="st1" d="M272,0l-22.6-22.6l4.7-11.3L240-28.1"/>
					</g>
				</g>
			</g>
		</g>
		<g>
			<g>
				<g>
					<path class="st1" d="M395.3-11.3h32L432,0"/>
					<path class="st1" d="M400,0l22.6-22.6l-4.7-11.3l14.1,5.8"/>
					<g>
						<path class="st1" d="M395.3-11.3v-32L384-48"/>
						<path class="st1" d="M384-16l22.6-22.6l11.3,4.7L412.1-48"/>
					</g>
				</g>
				<g>
					<path class="st1" d="M395.3,11.3v32L384,48"/>
					<path class="st1" d="M384,16l22.6,22.6l11.3-4.7L412.1,48"/>
					<g>
						<path class="st1" d="M395.3,11.3h32L432,0"/>
						<path class="st1" d="M400,0l22.6,22.6l-4.7,11.3l14.1-5.8"/>
					</g>
				</g>
				<g>
					<path class="st1" d="M372.7,11.3h-32L336,0"/>
					<path class="st1" d="M368,0l-22.6,22.6l4.7,11.3L336,28.1"/>
					<g>
						<path class="st1" d="M372.7,11.3v32L384,48"/>
						<path class="st1" d="M384,16l-22.6,22.6l-11.3-4.7l5.8,14.1"/>
					</g>
				</g>
				<g>
					<path class="st1" d="M372.7-11.3v-32L384-48"/>
					<path class="st1" d="M384-16l-22.6-22.6l-11.3,4.7l5.8-14.1"/>
					<g>
						<path class="st1" d="M372.7-11.3h-32L336,0"/>
						<path class="st1" d="M368,0l-22.6-22.6l4.7-11.3L336-28.1"/>
					</g>
				</g>
			</g>
		</g>
		<g>
			<g>
				<g>
					<path class="st1" d="M491.3-11.3h32L528,0"/>
					<path class="st1" d="M496,0l22.6-22.6l-4.7-11.3l14.1,5.8"/>
					<g>
						<path class="st1" d="M491.3-11.3v-32L480-48"/>
						<path class="st1" d="M480-16l22.6-22.6l11.3,4.7L508.1-48"/>
					</g>
				</g>
				<g>
					<path class="st1" d="M491.3,11.3v32L480,48"/>
					<path class="st1" d="M480,16l22.6,22.6l11.3-4.7L508.1,48"/>
					<g>
						<path class="st1" d="M491.3,11.3h32L528,0"/>
						<path class="st1" d="M496,0l22.6,22.6l-4.7,11.3l14.1-5.8"/>
					</g>
				</g>
				<g>
					<path class="st1" d="M468.7,11.3h-32L432,0"/>
					<path class="st1" d="M464,0l-22.6,22.6l4.7,11.3L432,28.1"/>
					<g>
						<path class="st1" d="M468.7,11.3v32L480,48"/>
						<path class="st1" d="M480,16l-22.6,22.6l-11.3-4.7l5.8,14.1"/>
					</g>
				</g>
				<g>
					<path class="st1" d="M468.7-11.3v-32L480-48"/>
					<path class="st1" d="M480-16l-22.6-22.6l-11.3,4.7l5.8-14.1"/>
					<g>
						<path class="st1" d="M468.7-11.3h-32L432,0"/>
						<path class="st1" d="M464,0l-22.6-22.6l4.7-11.3L432-28.1"/>
					</g>
				</g>
			</g>
		</g>
		<g>
			<g>
				<g>
					<path class="st1" d="M587.3-11.3h32L624,0"/>
					<path class="st1" d="M592,0l22.6-22.6l-4.7-11.3l14.1,5.8"/>
					<g>
						<path class="st1" d="M587.3-11.3v-32L576-48"/>
						<path class="st1" d="M576-16l22.6-22.6l11.3,4.7L604.1-48"/>
					</g>
				</g>
				<g>
					<path class="st1" d="M587.3,11.3v32L576,48"/>
					<path class="st1" d="M576,16l22.6,22.6l11.3-4.7L604.1,48"/>
					<g>
						<path class="st1" d="M587.3,11.3h32L624,0"/>
						<path class="st1" d="M592,0l22.6,22.6l-4.7,11.3l14.1-5.8"/>
					</g>
				</g>
				<g>
					<path class="st1" d="M564.7,11.3h-32L528,0"/>
					<path class="st1" d="M560,0l-22.6,22.6l4.7,11.3L528,28.1"/>
					<g>
						<path class="st1" d="M564.7,11.3v32L576,48"/>
						<path class="st1" d="M576,16l-22.6,22.6l-11.3-4.7l5.8,14.1"/>
					</g>
				</g>
				<g>
					<path class="st1" d="M564.7-11.3v-32L576-48"/>
					<path class="st1" d="M576-16l-22.6-22.6l-11.3,4.7l5.8-14.1"/>
					<g>
						<path class="st1" d="M564.7-11.3h-32L528,0"/>
						<path class="st1" d="M560,0l-22.6-22.6l4.7-11.3L528-28.1"/>
					</g>
				</g>
			</g>
		</g>
		<g>
			<g>
				<g>
					<path class="st1" d="M683.3-11.3h32L720,0"/>
					<path class="st1" d="M688,0l22.6-22.6l-4.7-11.3l14.1,5.8"/>
					<g>
						<path class="st1" d="M683.3-11.3v-32L672-48"/>
						<path class="st1" d="M672-16l22.6-22.6l11.3,4.7L700.1-48"/>
					</g>
				</g>
				<g>
					<path class="st1" d="M683.3,11.3v32L672,48"/>
					<path class="st1" d="M672,16l22.6,22.6l11.3-4.7L700.1,48"/>
					<g>
						<path class="st1" d="M683.3,11.3h32L720,0"/>
						<path class="st1" d="M688,0l22.6,22.6l-4.7,11.3l14.1-5.8"/>
					</g>
				</g>
				<g>
					<path class="st1" d="M660.7,11.3h-32L624,0"/>
					<path class="st1" d="M656,0l-22.6,22.6l4.7,11.3L624,28.1"/>
					<g>
						<path class="st1" d="M660.7,11.3v32L672,48"/>
						<path class="st1" d="M672,16l-22.6,22.6l-11.3-4.7l5.8,14.1"/>
					</g>
				</g>
				<g>
					<path class="st1" d="M660.7-11.3v-32L672-48"/>
					<path class="st1" d="M672-16l-22.6-22.6l-11.3,4.7l5.8-14.1"/>
					<g>
						<path class="st1" d="M660.7-11.3h-32L624,0"/>
						<path class="st1" d="M656,0l-22.6-22.6l4.7-11.3L624-28.1"/>
					</g>
				</g>
			</g>
		</g>
		<g>
			<g>
				<g>
					<path class="st1" d="M779.3-11.3h32L816,0"/>
					<path class="st1" d="M784,0l22.6-22.6l-4.7-11.3l14.1,5.8"/>
					<g>
						<path class="st1" d="M779.3-11.3v-32L768-48"/>
						<path class="st1" d="M768-16l22.6-22.6l11.3,4.7L796.1-48"/>
					</g>
				</g>
				<g>
					<path class="st1" d="M779.3,11.3v32L768,48"/>
					<path class="st1" d="M768,16l22.6,22.6l11.3-4.7L796.1,48"/>
					<g>
						<path class="st1" d="M779.3,11.3h32L816,0"/>
						<path class="st1" d="M784,0l22.6,22.6l-4.7,11.3l14.1-5.8"/>
					</g>
				</g>
				<g>
					<path class="st1" d="M756.7,11.3h-32L720,0"/>
					<path class="st1" d="M752,0l-22.6,22.6l4.7,11.3L720,28.1"/>
					<g>
						<path class="st1" d="M756.7,11.3v32L768,48"/>
						<path class="st1" d="M768,16l-22.6,22.6l-11.3-4.7l5.8,14.1"/>
					</g>
				</g>
				<g>
					<path class="st1" d="M756.7-11.3v-32L768-48"/>
					<path class="st1" d="M768-16l-22.6-22.6l-11.3,4.7l5.8-14.1"/>
					<g>
						<path class="st1" d="M756.7-11.3h-32L720,0"/>
						<path class="st1" d="M752,0l-22.6-22.6l4.7-11.3L720-28.1"/>
					</g>
				</g>
			</g>
		</g>
		<g>
			<g>
				<g>
					<path class="st1" d="M11.3,84.7h32L48,96"/>
					<path class="st1" d="M16,96l22.6-22.6l-4.7-11.3L48,67.9"/>
					<g>
						<path class="st1" d="M11.3,84.7v-32L0,48"/>
						<path class="st1" d="M0,80l22.6-22.6l11.3,4.7L28.1,48"/>
					</g>
				</g>
				<g>
					<path class="st1" d="M11.3,107.3v32L0,144"/>
					<path class="st1" d="M0,112l22.6,22.6l11.3-4.7L28.1,144"/>
					<g>
						<path class="st1" d="M11.3,107.3h32L48,96"/>
						<path class="st1" d="M16,96l22.6,22.6l-4.7,11.3l14.1-5.8"/>
					</g>
				</g>
				<g>
					<path class="st1" d="M-11.3,107.3h-32L-48,96"/>
					<path class="st1" d="M-16,96l-22.6,22.6l4.7,11.3l-14.1-5.8"/>
					<g>
						<path class="st1" d="M-11.3,107.3v32L0,144"/>
						<path class="st1" d="M0,112l-22.6,22.6l-11.3-4.7l5.8,14.1"/>
					</g>
				</g>
				<g>
					<path class="st1" d="M-11.3,84.7v-32L0,48"/>
					<path class="st1" d="M0,80l-22.6-22.6l-11.3,4.7l5.8-14.1"/>
					<g>
						<path class="st1" d="M-11.3,84.7h-32L-48,96"/>
						<path class="st1" d="M-16,96l-22.6-22.6l4.7-11.3L-48,67.9"/>
					</g>
				</g>
			</g>
		</g>
		<g>
			<g>
				<g>
					<path class="st1" d="M107.3,84.7h32L144,96"/>
					<path class="st1" d="M112,96l22.6-22.6l-4.7-11.3l14.1,5.8"/>
					<g>
						<path class="st1" d="M107.3,84.7v-32L96,48"/>
						<path class="st1" d="M96,80l22.6-22.6l11.3,4.7L124.1,48"/>
					</g>
				</g>
				<g>
					<path class="st1" d="M107.3,107.3v32L96,144"/>
					<path class="st1" d="M96,112l22.6,22.6l11.3-4.7l-5.8,14.1"/>
					<g>
						<path class="st1" d="M107.3,107.3h32L144,96"/>
						<path class="st1" d="M112,96l22.6,22.6l-4.7,11.3l14.1-5.8"/>
					</g>
				</g>
				<g>
					<path class="st1" d="M84.7,107.3h-32L48,96"/>
					<path class="st1" d="M80,96l-22.6,22.6l4.7,11.3L48,124.1"/>
					<g>
						<path class="st1" d="M84.7,107.3v32L96,144"/>
						<path class="st1" d="M96,112l-22.6,22.6l-11.3-4.7l5.8,14.1"/>
					</g>
				</g>
				<g>
					<path class="st1" d="M84.7,84.7v-32L96,48"/>
					<path class="st1" d="M96,80L73.4,57.4l-11.3,4.7L67.9,48"/>
					<g>
						<path class="st1" d="M84.7,84.7h-32L48,96"/>
						<path class="st1" d="M80,96L57.4,73.4l4.7-11.3L48,67.9"/>
					</g>
				</g>
			</g>
		</g>
		<g>
			<g>
				<g>
					<path class="st1" d="M203.3,84.7h32L240,96"/>
					<path class="st1" d="M208,96l22.6-22.6l-4.7-11.3l14.1,5.8"/>
					<g>
						<path class="st1" d="M203.3,84.7v-32L192,48"/>
						<path class="st1" d="M192,80l22.6-22.6l11.3,4.7L220.1,48"/>
					</g>
				</g>
				<g>
					<path class="st1" d="M203.3,107.3v32L192,144"/>
					<path class="st1" d="M192,112l22.6,22.6l11.3-4.7l-5.8,14.1"/>
					<g>
						<path class="st1" d="M203.3,107.3h32L240,96"/>
						<path class="st1" d="M208,96l22.6,22.6l-4.7,11.3l14.1-5.8"/>
					</g>
				</g>
				<g>
					<path class="st1" d="M180.7,107.3h-32L144,96"/>
					<path class="st1" d="M176,96l-22.6,22.6l4.7,11.3l-14.1-5.8"/>
					<g>
						<path class="st1" d="M180.7,107.3v32L192,144"/>
						<path class="st1" d="M192,112l-22.6,22.6l-11.3-4.7l5.8,14.1"/>
					</g>
				</g>
				<g>
					<path class="st1" d="M180.7,84.7v-32L192,48"/>
					<path class="st1" d="M192,80l-22.6-22.6l-11.3,4.7l5.8-14.1"/>
					<g>
						<path class="st1" d="M180.7,84.7h-32L144,96"/>
						<path class="st1" d="M176,96l-22.6-22.6l4.7-11.3L144,67.9"/>
					</g>
				</g>
			</g>
		</g>
		<g>
			<g>
				<g>
					<path class="st1" d="M299.3,84.7h32L336,96"/>
					<path class="st1" d="M304,96l22.6-22.6l-4.7-11.3l14.1,5.8"/>
					<g>
						<path class="st1" d="M299.3,84.7v-32L288,48"/>
						<path class="st1" d="M288,80l22.6-22.6l11.3,4.7L316.1,48"/>
					</g>
				</g>
				<g>
					<path class="st1" d="M299.3,107.3v32L288,144"/>
					<path class="st1" d="M288,112l22.6,22.6l11.3-4.7l-5.8,14.1"/>
					<g>
						<path class="st1" d="M299.3,107.3h32L336,96"/>
						<path class="st1" d="M304,96l22.6,22.6l-4.7,11.3l14.1-5.8"/>
					</g>
				</g>
				<g>
					<path class="st1" d="M276.7,107.3h-32L240,96"/>
					<path class="st1" d="M272,96l-22.6,22.6l4.7,11.3l-14.1-5.8"/>
					<g>
						<path class="st1" d="M276.7,107.3v32L288,144"/>
						<path class="st1" d="M288,112l-22.6,22.6l-11.3-4.7l5.8,14.1"/>
					</g>
				</g>
				<g>
					<path class="st1" d="M276.7,84.7v-32L288,48"/>
					<path class="st1" d="M288,80l-22.6-22.6l-11.3,4.7l5.8-14.1"/>
					<g>
						<path class="st1" d="M276.7,84.7h-32L240,96"/>
						<path class="st1" d="M272,96l-22.6-22.6l4.7-11.3L240,67.9"/>
					</g>
				</g>
			</g>
		</g>
		<g>
			<g>
				<g>
					<path class="st1" d="M395.3,84.7h32L432,96"/>
					<path class="st1" d="M400,96l22.6-22.6l-4.7-11.3l14.1,5.8"/>
					<g>
						<path class="st1" d="M395.3,84.7v-32L384,48"/>
						<path class="st1" d="M384,80l22.6-22.6l11.3,4.7L412.1,48"/>
					</g>
				</g>
				<g>
					<path class="st1" d="M395.3,107.3v32L384,144"/>
					<path class="st1" d="M384,112l22.6,22.6l11.3-4.7l-5.8,14.1"/>
					<g>
						<path class="st1" d="M395.3,107.3h32L432,96"/>
						<path class="st1" d="M400,96l22.6,22.6l-4.7,11.3l14.1-5.8"/>
					</g>
				</g>
				<g>
					<path class="st1" d="M372.7,107.3h-32L336,96"/>
					<path class="st1" d="M368,96l-22.6,22.6l4.7,11.3l-14.1-5.8"/>
					<g>
						<path class="st1" d="M372.7,107.3v32L384,144"/>
						<path class="st1" d="M384,112l-22.6,22.6l-11.3-4.7l5.8,14.1"/>
					</g>
				</g>
				<g>
					<path class="st1" d="M372.7,84.7v-32L384,48"/>
					<path class="st1" d="M384,80l-22.6-22.6l-11.3,4.7l5.8-14.1"/>
					<g>
						<path class="st1" d="M372.7,84.7h-32L336,96"/>
						<path class="st1" d="M368,96l-22.6-22.6l4.7-11.3L336,67.9"/>
					</g>
				</g>
			</g>
		</g>
		<g>
			<g>
				<g>
					<path class="st1" d="M491.3,84.7h32L528,96"/>
					<path class="st1" d="M496,96l22.6-22.6l-4.7-11.3l14.1,5.8"/>
					<g>
						<path class="st1" d="M491.3,84.7v-32L480,48"/>
						<path class="st1" d="M480,80l22.6-22.6l11.3,4.7L508.1,48"/>
					</g>
				</g>
				<g>
					<path class="st1" d="M491.3,107.3v32L480,144"/>
					<path class="st1" d="M480,112l22.6,22.6l11.3-4.7l-5.8,14.1"/>
					<g>
						<path class="st1" d="M491.3,107.3h32L528,96"/>
						<path class="st1" d="M496,96l22.6,22.6l-4.7,11.3l14.1-5.8"/>
					</g>
				</g>
				<g>
					<path class="st1" d="M468.7,107.3h-32L432,96"/>
					<path class="st1" d="M464,96l-22.6,22.6l4.7,11.3l-14.1-5.8"/>
					<g>
						<path class="st1" d="M468.7,107.3v32L480,144"/>
						<path class="st1" d="M480,112l-22.6,22.6l-11.3-4.7l5.8,14.1"/>
					</g>
				</g>
				<g>
					<path class="st1" d="M468.7,84.7v-32L480,48"/>
					<path class="st1" d="M480,80l-22.6-22.6l-11.3,4.7l5.8-14.1"/>
					<g>
						<path class="st1" d="M468.7,84.7h-32L432,96"/>
						<path class="st1" d="M464,96l-22.6-22.6l4.7-11.3L432,67.9"/>
					</g>
				</g>
			</g>
		</g>
		<g>
			<g>
				<g>
					<path class="st1" d="M587.3,84.7h32L624,96"/>
					<path class="st1" d="M592,96l22.6-22.6l-4.7-11.3l14.1,5.8"/>
					<g>
						<path class="st1" d="M587.3,84.7v-32L576,48"/>
						<path class="st1" d="M576,80l22.6-22.6l11.3,4.7L604.1,48"/>
					</g>
				</g>
				<g>
					<path class="st1" d="M587.3,107.3v32L576,144"/>
					<path class="st1" d="M576,112l22.6,22.6l11.3-4.7l-5.8,14.1"/>
					<g>
						<path class="st1" d="M587.3,107.3h32L624,96"/>
						<path class="st1" d="M592,96l22.6,22.6l-4.7,11.3l14.1-5.8"/>
					</g>
				</g>
				<g>
					<path class="st1" d="M564.7,107.3h-32L528,96"/>
					<path class="st1" d="M560,96l-22.6,22.6l4.7,11.3l-14.1-5.8"/>
					<g>
						<path class="st1" d="M564.7,107.3v32L576,144"/>
						<path class="st1" d="M576,112l-22.6,22.6l-11.3-4.7l5.8,14.1"/>
					</g>
				</g>
				<g>
					<path class="st1" d="M564.7,84.7v-32L576,48"/>
					<path class="st1" d="M576,80l-22.6-22.6l-11.3,4.7l5.8-14.1"/>
					<g>
						<path class="st1" d="M564.7,84.7h-32L528,96"/>
						<path class="st1" d="M560,96l-22.6-22.6l4.7-11.3L528,67.9"/>
					</g>
				</g>
			</g>
		</g>
		<g>
			<g>
				<g>
					<path class="st1" d="M683.3,84.7h32L720,96"/>
					<path class="st1" d="M688,96l22.6-22.6l-4.7-11.3l14.1,5.8"/>
					<g>
						<path class="st1" d="M683.3,84.7v-32L672,48"/>
						<path class="st1" d="M672,80l22.6-22.6l11.3,4.7L700.1,48"/>
					</g>
				</g>
				<g>
					<path class="st1" d="M683.3,107.3v32L672,144"/>
					<path class="st1" d="M672,112l22.6,22.6l11.3-4.7l-5.8,14.1"/>
					<g>
						<path class="st1" d="M683.3,107.3h32L720,96"/>
						<path class="st1" d="M688,96l22.6,22.6l-4.7,11.3l14.1-5.8"/>
					</g>
				</g>
				<g>
					<path class="st1" d="M660.7,107.3h-32L624,96"/>
					<path class="st1" d="M656,96l-22.6,22.6l4.7,11.3l-14.1-5.8"/>
					<g>
						<path class="st1" d="M660.7,107.3v32L672,144"/>
						<path class="st1" d="M672,112l-22.6,22.6l-11.3-4.7l5.8,14.1"/>
					</g>
				</g>
				<g>
					<path class="st1" d="M660.7,84.7v-32L672,48"/>
					<path class="st1" d="M672,80l-22.6-22.6l-11.3,4.7l5.8-14.1"/>
					<g>
						<path class="st1" d="M660.7,84.7h-32L624,96"/>
						<path class="st1" d="M656,96l-22.6-22.6l4.7-11.3L624,67.9"/>
					</g>
				</g>
			</g>
		</g>
		<g>
			<g>
				<g>
					<path class="st1" d="M779.3,84.7h32L816,96"/>
					<path class="st1" d="M784,96l22.6-22.6l-4.7-11.3l14.1,5.8"/>
					<g>
						<path class="st1" d="M779.3,84.7v-32L768,48"/>
						<path class="st1" d="M768,80l22.6-22.6l11.3,4.7L796.1,48"/>
					</g>
				</g>
				<g>
					<path class="st1" d="M779.3,107.3v32L768,144"/>
					<path class="st1" d="M768,112l22.6,22.6l11.3-4.7l-5.8,14.1"/>
					<g>
						<path class="st1" d="M779.3,107.3h32L816,96"/>
						<path class="st1" d="M784,96l22.6,22.6l-4.7,11.3l14.1-5.8"/>
					</g>
				</g>
				<g>
					<path class="st1" d="M756.7,107.3h-32L720,96"/>
					<path class="st1" d="M752,96l-22.6,22.6l4.7,11.3l-14.1-5.8"/>
					<g>
						<path class="st1" d="M756.7,107.3v32L768,144"/>
						<path class="st1" d="M768,112l-22.6,22.6l-11.3-4.7l5.8,14.1"/>
					</g>
				</g>
				<g>
					<path class="st1" d="M756.7,84.7v-32L768,48"/>
					<path class="st1" d="M768,80l-22.6-22.6l-11.3,4.7l5.8-14.1"/>
					<g>
						<path class="st1" d="M756.7,84.7h-32L720,96"/>
						<path class="st1" d="M752,96l-22.6-22.6l4.7-11.3L720,67.9"/>
					</g>
				</g>
			</g>
		</g>
		<g>
			<g>
				<g>
					<path class="st1" d="M11.3,180.7h32L48,192"/>
					<path class="st1" d="M16,192l22.6-22.6l-4.7-11.3l14.1,5.8"/>
					<g>
						<path class="st1" d="M11.3,180.7v-32L0,144"/>
						<path class="st1" d="M0,176l22.6-22.6l11.3,4.7L28.1,144"/>
					</g>
				</g>
				<g>
					<path class="st1" d="M11.3,203.3v32L0,240"/>
					<path class="st1" d="M0,208l22.6,22.6l11.3-4.7L28.1,240"/>
					<g>
						<path class="st1" d="M11.3,203.3h32L48,192"/>
						<path class="st1" d="M16,192l22.6,22.6l-4.7,11.3l14.1-5.8"/>
					</g>
				</g>
				<g>
					<path class="st1" d="M-11.3,203.3h-32L-48,192"/>
					<path class="st1" d="M-16,192l-22.6,22.6l4.7,11.3l-14.1-5.8"/>
					<g>
						<path class="st1" d="M-11.3,203.3v32L0,240"/>
						<path class="st1" d="M0,208l-22.6,22.6l-11.3-4.7l5.8,14.1"/>
					</g>
				</g>
				<g>
					<path class="st1" d="M-11.3,180.7v-32L0,144"/>
					<path class="st1" d="M0,176l-22.6-22.6l-11.3,4.7l5.8-14.1"/>
					<g>
						<path class="st1" d="M-11.3,180.7h-32L-48,192"/>
						<path class="st1" d="M-16,192l-22.6-22.6l4.7-11.3l-14.1,5.8"/>
					</g>
				</g>
			</g>
		</g>
		<g>
			<g>
				<g>
					<path class="st1" d="M107.3,180.7h32L144,192"/>
					<path class="st1" d="M112,192l22.6-22.6l-4.7-11.3l14.1,5.8"/>
					<g>
						<path class="st1" d="M107.3,180.7v-32L96,144"/>
						<path class="st1" d="M96,176l22.6-22.6l11.3,4.7l-5.8-14.1"/>
					</g>
				</g>
				<g>
					<path class="st1" d="M107.3,203.3v32L96,240"/>
					<path class="st1" d="M96,208l22.6,22.6l11.3-4.7l-5.8,14.1"/>
					<g>
						<path class="st1" d="M107.3,203.3h32L144,192"/>
						<path class="st1" d="M112,192l22.6,22.6l-4.7,11.3l14.1-5.8"/>
					</g>
				</g>
				<g>
					<path class="st1" d="M84.7,203.3h-32L48,192"/>
					<path class="st1" d="M80,192l-22.6,22.6l4.7,11.3L48,220.1"/>
					<g>
						<path class="st1" d="M84.7,203.3v32L96,240"/>
						<path class="st1" d="M96,208l-22.6,22.6l-11.3-4.7l5.8,14.1"/>
					</g>
				</g>
				<g>
					<path class="st1" d="M84.7,180.7v-32L96,144"/>
					<path class="st1" d="M96,176l-22.6-22.6l-11.3,4.7l5.8-14.1"/>
					<g>
						<path class="st1" d="M84.7,180.7h-32L48,192"/>
						<path class="st1" d="M80,192l-22.6-22.6l4.7-11.3L48,163.9"/>
					</g>
				</g>
			</g>
		</g>
		<g>
			<g>
				<g>
					<path class="st1" d="M203.3,180.7h32L240,192"/>
					<path class="st1" d="M208,192l22.6-22.6l-4.7-11.3l14.1,5.8"/>
					<g>
						<path class="st1" d="M203.3,180.7v-32L192,144"/>
						<path class="st1" d="M192,176l22.6-22.6l11.3,4.7l-5.8-14.1"/>
					</g>
				</g>
				<g>
					<path class="st1" d="M203.3,203.3v32L192,240"/>
					<path class="st1" d="M192,208l22.6,22.6l11.3-4.7l-5.8,14.1"/>
					<g>
						<path class="st1" d="M203.3,203.3h32L240,192"/>
						<path class="st1" d="M208,192l22.6,22.6l-4.7,11.3l14.1-5.8"/>
					</g>
				</g>
				<g>
					<path class="st1" d="M180.7,203.3h-32L144,192"/>
					<path class="st1" d="M176,192l-22.6,22.6l4.7,11.3l-14.1-5.8"/>
					<g>
						<path class="st1" d="M180.7,203.3v32L192,240"/>
						<path class="st1" d="M192,208l-22.6,22.6l-11.3-4.7l5.8,14.1"/>
					</g>
				</g>
				<g>
					<path class="st1" d="M180.7,180.7v-32L192,144"/>
					<path class="st1" d="M192,176l-22.6-22.6l-11.3,4.7l5.8-14.1"/>
					<g>
						<path class="st1" d="M180.7,180.7h-32L144,192"/>
						<path class="st1" d="M176,192l-22.6-22.6l4.7-11.3l-14.1,5.8"/>
					</g>
				</g>
			</g>
		</g>
		<g>
			<g>
				<g>
					<path class="st1" d="M299.3,180.7h32L336,192"/>
					<path class="st1" d="M304,192l22.6-22.6l-4.7-11.3l14.1,5.8"/>
					<g>
						<path class="st1" d="M299.3,180.7v-32L288,144"/>
						<path class="st1" d="M288,176l22.6-22.6l11.3,4.7l-5.8-14.1"/>
					</g>
				</g>
				<g>
					<path class="st1" d="M299.3,203.3v32L288,240"/>
					<path class="st1" d="M288,208l22.6,22.6l11.3-4.7l-5.8,14.1"/>
					<g>
						<path class="st1" d="M299.3,203.3h32L336,192"/>
						<path class="st1" d="M304,192l22.6,22.6l-4.7,11.3l14.1-5.8"/>
					</g>
				</g>
				<g>
					<path class="st1" d="M276.7,203.3h-32L240,192"/>
					<path class="st1" d="M272,192l-22.6,22.6l4.7,11.3l-14.1-5.8"/>
					<g>
						<path class="st1" d="M276.7,203.3v32L288,240"/>
						<path class="st1" d="M288,208l-22.6,22.6l-11.3-4.7l5.8,14.1"/>
					</g>
				</g>
				<g>
					<path class="st1" d="M276.7,180.7v-32L288,144"/>
					<path class="st1" d="M288,176l-22.6-22.6l-11.3,4.7l5.8-14.1"/>
					<g>
						<path class="st1" d="M276.7,180.7h-32L240,192"/>
						<path class="st1" d="M272,192l-22.6-22.6l4.7-11.3l-14.1,5.8"/>
					</g>
				</g>
			</g>
		</g>
		<g>
			<g>
				<g>
					<path class="st1" d="M395.3,180.7h32L432,192"/>
					<path class="st1" d="M400,192l22.6-22.6l-4.7-11.3l14.1,5.8"/>
					<g>
						<path class="st1" d="M395.3,180.7v-32L384,144"/>
						<path class="st1" d="M384,176l22.6-22.6l11.3,4.7l-5.8-14.1"/>
					</g>
				</g>
				<g>
					<path class="st1" d="M395.3,203.3v32L384,240"/>
					<path class="st1" d="M384,208l22.6,22.6l11.3-4.7l-5.8,14.1"/>
					<g>
						<path class="st1" d="M395.3,203.3h32L432,192"/>
						<path class="st1" d="M400,192l22.6,22.6l-4.7,11.3l14.1-5.8"/>
					</g>
				</g>
				<g>
					<path class="st1" d="M372.7,203.3h-32L336,192"/>
					<path class="st1" d="M368,192l-22.6,22.6l4.7,11.3l-14.1-5.8"/>
					<g>
						<path class="st1" d="M372.7,203.3v32L384,240"/>
						<path class="st1" d="M384,208l-22.6,22.6l-11.3-4.7l5.8,14.1"/>
					</g>
				</g>
				<g>
					<path class="st1" d="M372.7,180.7v-32L384,144"/>
					<path class="st1" d="M384,176l-22.6-22.6l-11.3,4.7l5.8-14.1"/>
					<g>
						<path class="st1" d="M372.7,180.7h-32L336,192"/>
						<path class="st1" d="M368,192l-22.6-22.6l4.7-11.3l-14.1,5.8"/>
					</g>
				</g>
			</g>
		</g>
		<g>
			<g>
				<g>
					<path class="st1" d="M491.3,180.7h32L528,192"/>
					<path class="st1" d="M496,192l22.6-22.6l-4.7-11.3l14.1,5.8"/>
					<g>
						<path class="st1" d="M491.3,180.7v-32L480,144"/>
						<path class="st1" d="M480,176l22.6-22.6l11.3,4.7l-5.8-14.1"/>
					</g>
				</g>
				<g>
					<path class="st1" d="M491.3,203.3v32L480,240"/>
					<path class="st1" d="M480,208l22.6,22.6l11.3-4.7l-5.8,14.1"/>
					<g>
						<path class="st1" d="M491.3,203.3h32L528,192"/>
						<path class="st1" d="M496,192l22.6,22.6l-4.7,11.3l14.1-5.8"/>
					</g>
				</g>
				<g>
					<path class="st1" d="M468.7,203.3h-32L432,192"/>
					<path class="st1" d="M464,192l-22.6,22.6l4.7,11.3l-14.1-5.8"/>
					<g>
						<path class="st1" d="M468.7,203.3v32L480,240"/>
						<path class="st1" d="M480,208l-22.6,22.6l-11.3-4.7l5.8,14.1"/>
					</g>
				</g>
				<g>
					<path class="st1" d="M468.7,180.7v-32L480,144"/>
					<path class="st1" d="M480,176l-22.6-22.6l-11.3,4.7l5.8-14.1"/>
					<g>
						<path class="st1" d="M468.7,180.7h-32L432,192"/>
						<path class="st1" d="M464,192l-22.6-22.6l4.7-11.3l-14.1,5.8"/>
					</g>
				</g>
			</g>
		</g>
		<g>
			<g>
				<g>
					<path class="st1" d="M587.3,180.7h32L624,192"/>
					<path class="st1" d="M592,192l22.6-22.6l-4.7-11.3l14.1,5.8"/>
					<g>
						<path class="st1" d="M587.3,180.7v-32L576,144"/>
						<path class="st1" d="M576,176l22.6-22.6l11.3,4.7l-5.8-14.1"/>
					</g>
				</g>
				<g>
					<path class="st1" d="M587.3,203.3v32L576,240"/>
					<path class="st1" d="M576,208l22.6,22.6l11.3-4.7l-5.8,14.1"/>
					<g>
						<path class="st1" d="M587.3,203.3h32L624,192"/>
						<path class="st1" d="M592,192l22.6,22.6l-4.7,11.3l14.1-5.8"/>
					</g>
				</g>
				<g>
					<path class="st1" d="M564.7,203.3h-32L528,192"/>
					<path class="st1" d="M560,192l-22.6,22.6l4.7,11.3l-14.1-5.8"/>
					<g>
						<path class="st1" d="M564.7,203.3v32L576,240"/>
						<path class="st1" d="M576,208l-22.6,22.6l-11.3-4.7l5.8,14.1"/>
					</g>
				</g>
				<g>
					<path class="st1" d="M564.7,180.7v-32L576,144"/>
					<path class="st1" d="M576,176l-22.6-22.6l-11.3,4.7l5.8-14.1"/>
					<g>
						<path class="st1" d="M564.7,180.7h-32L528,192"/>
						<path class="st1" d="M560,192l-22.6-22.6l4.7-11.3l-14.1,5.8"/>
					</g>
				</g>
			</g>
		</g>
		<g>
			<g>
				<g>
					<path class="st1" d="M683.3,180.7h32L720,192"/>
					<path class="st1" d="M688,192l22.6-22.6l-4.7-11.3l14.1,5.8"/>
					<g>
						<path class="st1" d="M683.3,180.7v-32L672,144"/>
						<path class="st1" d="M672,176l22.6-22.6l11.3,4.7l-5.8-14.1"/>
					</g>
				</g>
				<g>
					<path class="st1" d="M683.3,203.3v32L672,240"/>
					<path class="st1" d="M672,208l22.6,22.6l11.3-4.7l-5.8,14.1"/>
					<g>
						<path class="st1" d="M683.3,203.3h32L720,192"/>
						<path class="st1" d="M688,192l22.6,22.6l-4.7,11.3l14.1-5.8"/>
					</g>
				</g>
				<g>
					<path class="st1" d="M660.7,203.3h-32L624,192"/>
					<path class="st1" d="M656,192l-22.6,22.6l4.7,11.3l-14.1-5.8"/>
					<g>
						<path class="st1" d="M660.7,203.3v32L672,240"/>
						<path class="st1" d="M672,208l-22.6,22.6l-11.3-4.7l5.8,14.1"/>
					</g>
				</g>
				<g>
					<path class="st1" d="M660.7,180.7v-32L672,144"/>
					<path class="st1" d="M672,176l-22.6-22.6l-11.3,4.7l5.8-14.1"/>
					<g>
						<path class="st1" d="M660.7,180.7h-32L624,192"/>
						<path class="st1" d="M656,192l-22.6-22.6l4.7-11.3l-14.1,5.8"/>
					</g>
				</g>
			</g>
		</g>
		<g>
			<g>
				<g>
					<path class="st1" d="M779.3,180.7h32L816,192"/>
					<path class="st1" d="M784,192l22.6-22.6l-4.7-11.3l14.1,5.8"/>
					<g>
						<path class="st1" d="M779.3,180.7v-32L768,144"/>
						<path class="st1" d="M768,176l22.6-22.6l11.3,4.7l-5.8-14.1"/>
					</g>
				</g>
				<g>
					<path class="st1" d="M779.3,203.3v32L768,240"/>
					<path class="st1" d="M768,208l22.6,22.6l11.3-4.7l-5.8,14.1"/>
					<g>
						<path class="st1" d="M779.3,203.3h32L816,192"/>
						<path class="st1" d="M784,192l22.6,22.6l-4.7,11.3l14.1-5.8"/>
					</g>
				</g>
				<g>
					<path class="st1" d="M756.7,203.3h-32L720,192"/>
					<path class="st1" d="M752,192l-22.6,22.6l4.7,11.3l-14.1-5.8"/>
					<g>
						<path class="st1" d="M756.7,203.3v32L768,240"/>
						<path class="st1" d="M768,208l-22.6,22.6l-11.3-4.7l5.8,14.1"/>
					</g>
				</g>
				<g>
					<path class="st1" d="M756.7,180.7v-32L768,144"/>
					<path class="st1" d="M768,176l-22.6-22.6l-11.3,4.7l5.8-14.1"/>
					<g>
						<path class="st1" d="M756.7,180.7h-32L720,192"/>
						<path class="st1" d="M752,192l-22.6-22.6l4.7-11.3l-14.1,5.8"/>
					</g>
				</g>
			</g>
		</g>
		<g>
			<g>
				<g>
					<path class="st1" d="M11.3,276.7h32L48,288"/>
					<path class="st1" d="M16,288l22.6-22.6l-4.7-11.3l14.1,5.8"/>
					<g>
						<path class="st1" d="M11.3,276.7v-32L0,240"/>
						<path class="st1" d="M0,272l22.6-22.6l11.3,4.7L28.1,240"/>
					</g>
				</g>
				<g>
					<path class="st1" d="M11.3,299.3v32L0,336"/>
					<path class="st1" d="M0,304l22.6,22.6l11.3-4.7L28.1,336"/>
					<g>
						<path class="st1" d="M11.3,299.3h32L48,288"/>
						<path class="st1" d="M16,288l22.6,22.6l-4.7,11.3l14.1-5.8"/>
					</g>
				</g>
				<g>
					<path class="st1" d="M-11.3,299.3h-32L-48,288"/>
					<path class="st1" d="M-16,288l-22.6,22.6l4.7,11.3l-14.1-5.8"/>
					<g>
						<path class="st1" d="M-11.3,299.3v32L0,336"/>
						<path class="st1" d="M0,304l-22.6,22.6l-11.3-4.7l5.8,14.1"/>
					</g>
				</g>
				<g>
					<path class="st1" d="M-11.3,276.7v-32L0,240"/>
					<path class="st1" d="M0,272l-22.6-22.6l-11.3,4.7l5.8-14.1"/>
					<g>
						<path class="st1" d="M-11.3,276.7h-32L-48,288"/>
						<path class="st1" d="M-16,288l-22.6-22.6l4.7-11.3l-14.1,5.8"/>
					</g>
				</g>
			</g>
		</g>
		<g>
			<g>
				<g>
					<path class="st1" d="M107.3,276.7h32L144,288"/>
					<path class="st1" d="M112,288l22.6-22.6l-4.7-11.3l14.1,5.8"/>
					<g>
						<path class="st1" d="M107.3,276.7v-32L96,240"/>
						<path class="st1" d="M96,272l22.6-22.6l11.3,4.7l-5.8-14.1"/>
					</g>
				</g>
				<g>
					<path class="st1" d="M107.3,299.3v32L96,336"/>
					<path class="st1" d="M96,304l22.6,22.6l11.3-4.7l-5.8,14.1"/>
					<g>
						<path class="st1" d="M107.3,299.3h32L144,288"/>
						<path class="st1" d="M112,288l22.6,22.6l-4.7,11.3l14.1-5.8"/>
					</g>
				</g>
				<g>
					<path class="st1" d="M84.7,299.3h-32L48,288"/>
					<path class="st1" d="M80,288l-22.6,22.6l4.7,11.3L48,316.1"/>
					<g>
						<path class="st1" d="M84.7,299.3v32L96,336"/>
						<path class="st1" d="M96,304l-22.6,22.6l-11.3-4.7l5.8,14.1"/>
					</g>
				</g>
				<g>
					<path class="st1" d="M84.7,276.7v-32L96,240"/>
					<path class="st1" d="M96,272l-22.6-22.6l-11.3,4.7l5.8-14.1"/>
					<g>
						<path class="st1" d="M84.7,276.7h-32L48,288"/>
						<path class="st1" d="M80,288l-22.6-22.6l4.7-11.3L48,259.9"/>
					</g>
				</g>
			</g>
		</g>
		<g>
			<g>
				<g>
					<path class="st1" d="M203.3,276.7h32L240,288"/>
					<path class="st1" d="M208,288l22.6-22.6l-4.7-11.3l14.1,5.8"/>
					<g>
						<path class="st1" d="M203.3,276.7v-32L192,240"/>
						<path class="st1" d="M192,272l22.6-22.6l11.3,4.7l-5.8-14.1"/>
					</g>
				</g>
				<g>
					<path class="st1" d="M203.3,299.3v32L192,336"/>
					<path class="st1" d="M192,304l22.6,22.6l11.3-4.7l-5.8,14.1"/>
					<g>
						<path class="st1" d="M203.3,299.3h32L240,288"/>
						<path class="st1" d="M208,288l22.6,22.6l-4.7,11.3l14.1-5.8"/>
					</g>
				</g>
				<g>
					<path class="st1" d="M180.7,299.3h-32L144,288"/>
					<path class="st1" d="M176,288l-22.6,22.6l4.7,11.3l-14.1-5.8"/>
					<g>
						<path class="st1" d="M180.7,299.3v32L192,336"/>
						<path class="st1" d="M192,304l-22.6,22.6l-11.3-4.7l5.8,14.1"/>
					</g>
				</g>
				<g>
					<path class="st1" d="M180.7,276.7v-32L192,240"/>
					<path class="st1" d="M192,272l-22.6-22.6l-11.3,4.7l5.8-14.1"/>
					<g>
						<path class="st1" d="M180.7,276.7h-32L144,288"/>
						<path class="st1" d="M176,288l-22.6-22.6l4.7-11.3l-14.1,5.8"/>
					</g>
				</g>
			</g>
		</g>
		<g>
			<g>
				<g>
					<path class="st1" d="M299.3,276.7h32L336,288"/>
					<path class="st1" d="M304,288l22.6-22.6l-4.7-11.3l14.1,5.8"/>
					<g>
						<path class="st1" d="M299.3,276.7v-32L288,240"/>
						<path class="st1" d="M288,272l22.6-22.6l11.3,4.7l-5.8-14.1"/>
					</g>
				</g>
				<g>
					<path class="st1" d="M299.3,299.3v32L288,336"/>
					<path class="st1" d="M288,304l22.6,22.6l11.3-4.7l-5.8,14.1"/>
					<g>
						<path class="st1" d="M299.3,299.3h32L336,288"/>
						<path class="st1" d="M304,288l22.6,22.6l-4.7,11.3l14.1-5.8"/>
					</g>
				</g>
				<g>
					<path class="st1" d="M276.7,299.3h-32L240,288"/>
					<path class="st1" d="M272,288l-22.6,22.6l4.7,11.3l-14.1-5.8"/>
					<g>
						<path class="st1" d="M276.7,299.3v32L288,336"/>
						<path class="st1" d="M288,304l-22.6,22.6l-11.3-4.7l5.8,14.1"/>
					</g>
				</g>
				<g>
					<path class="st1" d="M276.7,276.7v-32L288,240"/>
					<path class="st1" d="M288,272l-22.6-22.6l-11.3,4.7l5.8-14.1"/>
					<g>
						<path class="st1" d="M276.7,276.7h-32L240,288"/>
						<path class="st1" d="M272,288l-22.6-22.6l4.7-11.3l-14.1,5.8"/>
					</g>
				</g>
			</g>
		</g>
		<g>
			<g>
				<g>
					<path class="st1" d="M395.3,276.7h32L432,288"/>
					<path class="st1" d="M400,288l22.6-22.6l-4.7-11.3l14.1,5.8"/>
					<g>
						<path class="st1" d="M395.3,276.7v-32L384,240"/>
						<path class="st1" d="M384,272l22.6-22.6l11.3,4.7l-5.8-14.1"/>
					</g>
				</g>
				<g>
					<path class="st1" d="M395.3,299.3v32L384,336"/>
					<path class="st1" d="M384,304l22.6,22.6l11.3-4.7l-5.8,14.1"/>
					<g>
						<path class="st1" d="M395.3,299.3h32L432,288"/>
						<path class="st1" d="M400,288l22.6,22.6l-4.7,11.3l14.1-5.8"/>
					</g>
				</g>
				<g>
					<path class="st1" d="M372.7,299.3h-32L336,288"/>
					<path class="st1" d="M368,288l-22.6,22.6l4.7,11.3l-14.1-5.8"/>
					<g>
						<path class="st1" d="M372.7,299.3v32L384,336"/>
						<path class="st1" d="M384,304l-22.6,22.6l-11.3-4.7l5.8,14.1"/>
					</g>
				</g>
				<g>
					<path class="st1" d="M372.7,276.7v-32L384,240"/>
					<path class="st1" d="M384,272l-22.6-22.6l-11.3,4.7l5.8-14.1"/>
					<g>
						<path class="st1" d="M372.7,276.7h-32L336,288"/>
						<path class="st1" d="M368,288l-22.6-22.6l4.7-11.3l-14.1,5.8"/>
					</g>
				</g>
			</g>
		</g>
		<g>
			<g>
				<g>
					<path class="st1" d="M491.3,276.7h32L528,288"/>
					<path class="st1" d="M496,288l22.6-22.6l-4.7-11.3l14.1,5.8"/>
					<g>
						<path class="st1" d="M491.3,276.7v-32L480,240"/>
						<path class="st1" d="M480,272l22.6-22.6l11.3,4.7l-5.8-14.1"/>
					</g>
				</g>
				<g>
					<path class="st1" d="M491.3,299.3v32L480,336"/>
					<path class="st1" d="M480,304l22.6,22.6l11.3-4.7l-5.8,14.1"/>
					<g>
						<path class="st1" d="M491.3,299.3h32L528,288"/>
						<path class="st1" d="M496,288l22.6,22.6l-4.7,11.3l14.1-5.8"/>
					</g>
				</g>
				<g>
					<path class="st1" d="M468.7,299.3h-32L432,288"/>
					<path class="st1" d="M464,288l-22.6,22.6l4.7,11.3l-14.1-5.8"/>
					<g>
						<path class="st1" d="M468.7,299.3v32L480,336"/>
						<path class="st1" d="M480,304l-22.6,22.6l-11.3-4.7l5.8,14.1"/>
					</g>
				</g>
				<g>
					<path class="st1" d="M468.7,276.7v-32L480,240"/>
					<path class="st1" d="M480,272l-22.6-22.6l-11.3,4.7l5.8-14.1"/>
					<g>
						<path class="st1" d="M468.7,276.7h-32L432,288"/>
						<path class="st1" d="M464,288l-22.6-22.6l4.7-11.3l-14.1,5.8"/>
					</g>
				</g>
			</g>
		</g>
		<g>
			<g>
				<g>
					<path class="st1" d="M587.3,276.7h32L624,288"/>
					<path class="st1" d="M592,288l22.6-22.6l-4.7-11.3l14.1,5.8"/>
					<g>
						<path class="st1" d="M587.3,276.7v-32L576,240"/>
						<path class="st1" d="M576,272l22.6-22.6l11.3,4.7l-5.8-14.1"/>
					</g>
				</g>
				<g>
					<path class="st1" d="M587.3,299.3v32L576,336"/>
					<path class="st1" d="M576,304l22.6,22.6l11.3-4.7l-5.8,14.1"/>
					<g>
						<path class="st1" d="M587.3,299.3h32L624,288"/>
						<path class="st1" d="M592,288l22.6,22.6l-4.7,11.3l14.1-5.8"/>
					</g>
				</g>
				<g>
					<path class="st1" d="M564.7,299.3h-32L528,288"/>
					<path class="st1" d="M560,288l-22.6,22.6l4.7,11.3l-14.1-5.8"/>
					<g>
						<path class="st1" d="M564.7,299.3v32L576,336"/>
						<path class="st1" d="M576,304l-22.6,22.6l-11.3-4.7l5.8,14.1"/>
					</g>
				</g>
				<g>
					<path class="st1" d="M564.7,276.7v-32L576,240"/>
					<path class="st1" d="M576,272l-22.6-22.6l-11.3,4.7l5.8-14.1"/>
					<g>
						<path class="st1" d="M564.7,276.7h-32L528,288"/>
						<path class="st1" d="M560,288l-22.6-22.6l4.7-11.3l-14.1,5.8"/>
					</g>
				</g>
			</g>
		</g>
		<g>
			<g>
				<g>
					<path class="st1" d="M683.3,276.7h32L720,288"/>
					<path class="st1" d="M688,288l22.6-22.6l-4.7-11.3l14.1,5.8"/>
					<g>
						<path class="st1" d="M683.3,276.7v-32L672,240"/>
						<path class="st1" d="M672,272l22.6-22.6l11.3,4.7l-5.8-14.1"/>
					</g>
				</g>
				<g>
					<path class="st1" d="M683.3,299.3v32L672,336"/>
					<path class="st1" d="M672,304l22.6,22.6l11.3-4.7l-5.8,14.1"/>
					<g>
						<path class="st1" d="M683.3,299.3h32L720,288"/>
						<path class="st1" d="M688,288l22.6,22.6l-4.7,11.3l14.1-5.8"/>
					</g>
				</g>
				<g>
					<path class="st1" d="M660.7,299.3h-32L624,288"/>
					<path class="st1" d="M656,288l-22.6,22.6l4.7,11.3l-14.1-5.8"/>
					<g>
						<path class="st1" d="M660.7,299.3v32L672,336"/>
						<path class="st1" d="M672,304l-22.6,22.6l-11.3-4.7l5.8,14.1"/>
					</g>
				</g>
				<g>
					<path class="st1" d="M660.7,276.7v-32L672,240"/>
					<path class="st1" d="M672,272l-22.6-22.6l-11.3,4.7l5.8-14.1"/>
					<g>
						<path class="st1" d="M660.7,276.7h-32L624,288"/>
						<path class="st1" d="M656,288l-22.6-22.6l4.7-11.3l-14.1,5.8"/>
					</g>
				</g>
			</g>
		</g>
		<g>
			<g>
				<g>
					<path class="st1" d="M779.3,276.7h32L816,288"/>
					<path class="st1" d="M784,288l22.6-22.6l-4.7-11.3l14.1,5.8"/>
					<g>
						<path class="st1" d="M779.3,276.7v-32L768,240"/>
						<path class="st1" d="M768,272l22.6-22.6l11.3,4.7l-5.8-14.1"/>
					</g>
				</g>
				<g>
					<path class="st1" d="M779.3,299.3v32L768,336"/>
					<path class="st1" d="M768,304l22.6,22.6l11.3-4.7l-5.8,14.1"/>
					<g>
						<path class="st1" d="M779.3,299.3h32L816,288"/>
						<path class="st1" d="M784,288l22.6,22.6l-4.7,11.3l14.1-5.8"/>
					</g>
				</g>
				<g>
					<path class="st1" d="M756.7,299.3h-32L720,288"/>
					<path class="st1" d="M752,288l-22.6,22.6l4.7,11.3l-14.1-5.8"/>
					<g>
						<path class="st1" d="M756.7,299.3v32L768,336"/>
						<path class="st1" d="M768,304l-22.6,22.6l-11.3-4.7l5.8,14.1"/>
					</g>
				</g>
				<g>
					<path class="st1" d="M756.7,276.7v-32L768,240"/>
					<path class="st1" d="M768,272l-22.6-22.6l-11.3,4.7l5.8-14.1"/>
					<g>
						<path class="st1" d="M756.7,276.7h-32L720,288"/>
						<path class="st1" d="M752,288l-22.6-22.6l4.7-11.3l-14.1,5.8"/>
					</g>
				</g>
			</g>
		</g>
		<g>
			<g>
				<g>
					<path class="st1" d="M11.3,372.7h32L48,384"/>
					<path class="st1" d="M16,384l22.6-22.6l-4.7-11.3l14.1,5.8"/>
					<g>
						<path class="st1" d="M11.3,372.7v-32L0,336"/>
						<path class="st1" d="M0,368l22.6-22.6l11.3,4.7L28.1,336"/>
					</g>
				</g>
				<g>
					<path class="st1" d="M11.3,395.3v32L0,432"/>
					<path class="st1" d="M0,400l22.6,22.6l11.3-4.7L28.1,432"/>
					<g>
						<path class="st1" d="M11.3,395.3h32L48,384"/>
						<path class="st1" d="M16,384l22.6,22.6l-4.7,11.3l14.1-5.8"/>
					</g>
				</g>
				<g>
					<path class="st1" d="M-11.3,395.3h-32L-48,384"/>
					<path class="st1" d="M-16,384l-22.6,22.6l4.7,11.3l-14.1-5.8"/>
					<g>
						<path class="st1" d="M-11.3,395.3v32L0,432"/>
						<path class="st1" d="M0,400l-22.6,22.6l-11.3-4.7l5.8,14.1"/>
					</g>
				</g>
				<g>
					<path class="st1" d="M-11.3,372.7v-32L0,336"/>
					<path class="st1" d="M0,368l-22.6-22.6l-11.3,4.7l5.8-14.1"/>
					<g>
						<path class="st1" d="M-11.3,372.7h-32L-48,384"/>
						<path class="st1" d="M-16,384l-22.6-22.6l4.7-11.3l-14.1,5.8"/>
					</g>
				</g>
			</g>
		</g>
		<g>
			<g>
				<g>
					<path class="st1" d="M107.3,372.7h32L144,384"/>
					<path class="st1" d="M112,384l22.6-22.6l-4.7-11.3l14.1,5.8"/>
					<g>
						<path class="st1" d="M107.3,372.7v-32L96,336"/>
						<path class="st1" d="M96,368l22.6-22.6l11.3,4.7l-5.8-14.1"/>
					</g>
				</g>
				<g>
					<path class="st1" d="M107.3,395.3v32L96,432"/>
					<path class="st1" d="M96,400l22.6,22.6l11.3-4.7l-5.8,14.1"/>
					<g>
						<path class="st1" d="M107.3,395.3h32L144,384"/>
						<path class="st1" d="M112,384l22.6,22.6l-4.7,11.3l14.1-5.8"/>
					</g>
				</g>
				<g>
					<path class="st1" d="M84.7,395.3h-32L48,384"/>
					<path class="st1" d="M80,384l-22.6,22.6l4.7,11.3L48,412.1"/>
					<g>
						<path class="st1" d="M84.7,395.3v32L96,432"/>
						<path class="st1" d="M96,400l-22.6,22.6l-11.3-4.7l5.8,14.1"/>
					</g>
				</g>
				<g>
					<path class="st1" d="M84.7,372.7v-32L96,336"/>
					<path class="st1" d="M96,368l-22.6-22.6l-11.3,4.7l5.8-14.1"/>
					<g>
						<path class="st1" d="M84.7,372.7h-32L48,384"/>
						<path class="st1" d="M80,384l-22.6-22.6l4.7-11.3L48,355.9"/>
					</g>
				</g>
			</g>
		</g>
		<g>
			<g>
				<g>
					<path class="st1" d="M203.3,372.7h32L240,384"/>
					<path class="st1" d="M208,384l22.6-22.6l-4.7-11.3l14.1,5.8"/>
					<g>
						<path class="st1" d="M203.3,372.7v-32L192,336"/>
						<path class="st1" d="M192,368l22.6-22.6l11.3,4.7l-5.8-14.1"/>
					</g>
				</g>
				<g>
					<path class="st1" d="M203.3,395.3v32L192,432"/>
					<path class="st1" d="M192,400l22.6,22.6l11.3-4.7l-5.8,14.1"/>
					<g>
						<path class="st1" d="M203.3,395.3h32L240,384"/>
						<path class="st1" d="M208,384l22.6,22.6l-4.7,11.3l14.1-5.8"/>
					</g>
				</g>
				<g>
					<path class="st1" d="M180.7,395.3h-32L144,384"/>
					<path class="st1" d="M176,384l-22.6,22.6l4.7,11.3l-14.1-5.8"/>
					<g>
						<path class="st1" d="M180.7,395.3v32L192,432"/>
						<path class="st1" d="M192,400l-22.6,22.6l-11.3-4.7l5.8,14.1"/>
					</g>
				</g>
				<g>
					<path class="st1" d="M180.7,372.7v-32L192,336"/>
					<path class="st1" d="M192,368l-22.6-22.6l-11.3,4.7l5.8-14.1"/>
					<g>
						<path class="st1" d="M180.7,372.7h-32L144,384"/>
						<path class="st1" d="M176,384l-22.6-22.6l4.7-11.3l-14.1,5.8"/>
					</g>
				</g>
			</g>
		</g>
		<g>
			<g>
				<g>
					<path class="st1" d="M299.3,372.7h32L336,384"/>
					<path class="st1" d="M304,384l22.6-22.6l-4.7-11.3l14.1,5.8"/>
					<g>
						<path class="st1" d="M299.3,372.7v-32L288,336"/>
						<path class="st1" d="M288,368l22.6-22.6l11.3,4.7l-5.8-14.1"/>
					</g>
				</g>
				<g>
					<path class="st1" d="M299.3,395.3v32L288,432"/>
					<path class="st1" d="M288,400l22.6,22.6l11.3-4.7l-5.8,14.1"/>
					<g>
						<path class="st1" d="M299.3,395.3h32L336,384"/>
						<path class="st1" d="M304,384l22.6,22.6l-4.7,11.3l14.1-5.8"/>
					</g>
				</g>
				<g>
					<path class="st1" d="M276.7,395.3h-32L240,384"/>
					<path class="st1" d="M272,384l-22.6,22.6l4.7,11.3l-14.1-5.8"/>
					<g>
						<path class="st1" d="M276.7,395.3v32L288,432"/>
						<path class="st1" d="M288,400l-22.6,22.6l-11.3-4.7l5.8,14.1"/>
					</g>
				</g>
				<g>
					<path class="st1" d="M276.7,372.7v-32L288,336"/>
					<path class="st1" d="M288,368l-22.6-22.6l-11.3,4.7l5.8-14.1"/>
					<g>
						<path class="st1" d="M276.7,372.7h-32L240,384"/>
						<path class="st1" d="M272,384l-22.6-22.6l4.7-11.3l-14.1,5.8"/>
					</g>
				</g>
			</g>
		</g>
		<g>
			<g>
				<g>
					<path class="st1" d="M395.3,372.7h32L432,384"/>
					<path class="st1" d="M400,384l22.6-22.6l-4.7-11.3l14.1,5.8"/>
					<g>
						<path class="st1" d="M395.3,372.7v-32L384,336"/>
						<path class="st1" d="M384,368l22.6-22.6l11.3,4.7l-5.8-14.1"/>
					</g>
				</g>
				<g>
					<path class="st1" d="M395.3,395.3v32L384,432"/>
					<path class="st1" d="M384,400l22.6,22.6l11.3-4.7l-5.8,14.1"/>
					<g>
						<path class="st1" d="M395.3,395.3h32L432,384"/>
						<path class="st1" d="M400,384l22.6,22.6l-4.7,11.3l14.1-5.8"/>
					</g>
				</g>
				<g>
					<path class="st1" d="M372.7,395.3h-32L336,384"/>
					<path class="st1" d="M368,384l-22.6,22.6l4.7,11.3l-14.1-5.8"/>
					<g>
						<path class="st1" d="M372.7,395.3v32L384,432"/>
						<path class="st1" d="M384,400l-22.6,22.6l-11.3-4.7l5.8,14.1"/>
					</g>
				</g>
				<g>
					<path class="st1" d="M372.7,372.7v-32L384,336"/>
					<path class="st1" d="M384,368l-22.6-22.6l-11.3,4.7l5.8-14.1"/>
					<g>
						<path class="st1" d="M372.7,372.7h-32L336,384"/>
						<path class="st1" d="M368,384l-22.6-22.6l4.7-11.3l-14.1,5.8"/>
					</g>
				</g>
			</g>
		</g>
		<g>
			<g>
				<g>
					<path class="st1" d="M491.3,372.7h32L528,384"/>
					<path class="st1" d="M496,384l22.6-22.6l-4.7-11.3l14.1,5.8"/>
					<g>
						<path class="st1" d="M491.3,372.7v-32L480,336"/>
						<path class="st1" d="M480,368l22.6-22.6l11.3,4.7l-5.8-14.1"/>
					</g>
				</g>
				<g>
					<path class="st1" d="M491.3,395.3v32L480,432"/>
					<path class="st1" d="M480,400l22.6,22.6l11.3-4.7l-5.8,14.1"/>
					<g>
						<path class="st1" d="M491.3,395.3h32L528,384"/>
						<path class="st1" d="M496,384l22.6,22.6l-4.7,11.3l14.1-5.8"/>
					</g>
				</g>
				<g>
					<path class="st1" d="M468.7,395.3h-32L432,384"/>
					<path class="st1" d="M464,384l-22.6,22.6l4.7,11.3l-14.1-5.8"/>
					<g>
						<path class="st1" d="M468.7,395.3v32L480,432"/>
						<path class="st1" d="M480,400l-22.6,22.6l-11.3-4.7l5.8,14.1"/>
					</g>
				</g>
				<g>
					<path class="st1" d="M468.7,372.7v-32L480,336"/>
					<path class="st1" d="M480,368l-22.6-22.6l-11.3,4.7l5.8-14.1"/>
					<g>
						<path class="st1" d="M468.7,372.7h-32L432,384"/>
						<path class="st1" d="M464,384l-22.6-22.6l4.7-11.3l-14.1,5.8"/>
					</g>
				</g>
			</g>
		</g>
		<g>
			<g>
				<g>
					<path class="st1" d="M587.3,372.7h32L624,384"/>
					<path class="st1" d="M592,384l22.6-22.6l-4.7-11.3l14.1,5.8"/>
					<g>
						<path class="st1" d="M587.3,372.7v-32L576,336"/>
						<path class="st1" d="M576,368l22.6-22.6l11.3,4.7l-5.8-14.1"/>
					</g>
				</g>
				<g>
					<path class="st1" d="M587.3,395.3v32L576,432"/>
					<path class="st1" d="M576,400l22.6,22.6l11.3-4.7l-5.8,14.1"/>
					<g>
						<path class="st1" d="M587.3,395.3h32L624,384"/>
						<path class="st1" d="M592,384l22.6,22.6l-4.7,11.3l14.1-5.8"/>
					</g>
				</g>
				<g>
					<path class="st1" d="M564.7,395.3h-32L528,384"/>
					<path class="st1" d="M560,384l-22.6,22.6l4.7,11.3l-14.1-5.8"/>
					<g>
						<path class="st1" d="M564.7,395.3v32L576,432"/>
						<path class="st1" d="M576,400l-22.6,22.6l-11.3-4.7l5.8,14.1"/>
					</g>
				</g>
				<g>
					<path class="st1" d="M564.7,372.7v-32L576,336"/>
					<path class="st1" d="M576,368l-22.6-22.6l-11.3,4.7l5.8-14.1"/>
					<g>
						<path class="st1" d="M564.7,372.7h-32L528,384"/>
						<path class="st1" d="M560,384l-22.6-22.6l4.7-11.3l-14.1,5.8"/>
					</g>
				</g>
			</g>
		</g>
		<g>
			<g>
				<g>
					<path class="st1" d="M683.3,372.7h32L720,384"/>
					<path class="st1" d="M688,384l22.6-22.6l-4.7-11.3l14.1,5.8"/>
					<g>
						<path class="st1" d="M683.3,372.7v-32L672,336"/>
						<path class="st1" d="M672,368l22.6-22.6l11.3,4.7l-5.8-14.1"/>
					</g>
				</g>
				<g>
					<path class="st1" d="M683.3,395.3v32L672,432"/>
					<path class="st1" d="M672,400l22.6,22.6l11.3-4.7l-5.8,14.1"/>
					<g>
						<path class="st1" d="M683.3,395.3h32L720,384"/>
						<path class="st1" d="M688,384l22.6,22.6l-4.7,11.3l14.1-5.8"/>
					</g>
				</g>
				<g>
					<path class="st1" d="M660.7,395.3h-32L624,384"/>
					<path class="st1" d="M656,384l-22.6,22.6l4.7,11.3l-14.1-5.8"/>
					<g>
						<path class="st1" d="M660.7,395.3v32L672,432"/>
						<path class="st1" d="M672,400l-22.6,22.6l-11.3-4.7l5.8,14.1"/>
					</g>
				</g>
				<g>
					<path class="st1" d="M660.7,372.7v-32L672,336"/>
					<path class="st1" d="M672,368l-22.6-22.6l-11.3,4.7l5.8-14.1"/>
					<g>
						<path class="st1" d="M660.7,372.7h-32L624,384"/>
						<path class="st1" d="M656,384l-22.6-22.6l4.7-11.3l-14.1,5.8"/>
					</g>
				</g>
			</g>
		</g>
		<g>
			<g>
				<g>
					<path class="st1" d="M779.3,372.7h32L816,384"/>
					<path class="st1" d="M784,384l22.6-22.6l-4.7-11.3l14.1,5.8"/>
					<g>
						<path class="st1" d="M779.3,372.7v-32L768,336"/>
						<path class="st1" d="M768,368l22.6-22.6l11.3,4.7l-5.8-14.1"/>
					</g>
				</g>
				<g>
					<path class="st1" d="M779.3,395.3v32L768,432"/>
					<path class="st1" d="M768,400l22.6,22.6l11.3-4.7l-5.8,14.1"/>
					<g>
						<path class="st1" d="M779.3,395.3h32L816,384"/>
						<path class="st1" d="M784,384l22.6,22.6l-4.7,11.3l14.1-5.8"/>
					</g>
				</g>
				<g>
					<path class="st1" d="M756.7,395.3h-32L720,384"/>
					<path class="st1" d="M752,384l-22.6,22.6l4.7,11.3l-14.1-5.8"/>
					<g>
						<path class="st1" d="M756.7,395.3v32L768,432"/>
						<path class="st1" d="M768,400l-22.6,22.6l-11.3-4.7l5.8,14.1"/>
					</g>
				</g>
				<g>
					<path class="st1" d="M756.7,372.7v-32L768,336"/>
					<path class="st1" d="M768,368l-22.6-22.6l-11.3,4.7l5.8-14.1"/>
					<g>
						<path class="st1" d="M756.7,372.7h-32L720,384"/>
						<path class="st1" d="M752,384l-22.6-22.6l4.7-11.3l-14.1,5.8"/>
					</g>
				</g>
			</g>
		</g>
		<g>
			<g>
				<g>
					<path class="st1" d="M11.3,468.7h32L48,480"/>
					<path class="st1" d="M16,480l22.6-22.6l-4.7-11.3l14.1,5.8"/>
					<g>
						<path class="st1" d="M11.3,468.7v-32L0,432"/>
						<path class="st1" d="M0,464l22.6-22.6l11.3,4.7L28.1,432"/>
					</g>
				</g>
				<g>
					<path class="st1" d="M11.3,491.3v32L0,528"/>
					<path class="st1" d="M0,496l22.6,22.6l11.3-4.7L28.1,528"/>
					<g>
						<path class="st1" d="M11.3,491.3h32L48,480"/>
						<path class="st1" d="M16,480l22.6,22.6l-4.7,11.3l14.1-5.8"/>
					</g>
				</g>
				<g>
					<path class="st1" d="M-11.3,491.3h-32L-48,480"/>
					<path class="st1" d="M-16,480l-22.6,22.6l4.7,11.3l-14.1-5.8"/>
					<g>
						<path class="st1" d="M-11.3,491.3v32L0,528"/>
						<path class="st1" d="M0,496l-22.6,22.6l-11.3-4.7l5.8,14.1"/>
					</g>
				</g>
				<g>
					<path class="st1" d="M-11.3,468.7v-32L0,432"/>
					<path class="st1" d="M0,464l-22.6-22.6l-11.3,4.7l5.8-14.1"/>
					<g>
						<path class="st1" d="M-11.3,468.7h-32L-48,480"/>
						<path class="st1" d="M-16,480l-22.6-22.6l4.7-11.3l-14.1,5.8"/>
					</g>
				</g>
			</g>
		</g>
		<g>
			<g>
				<g>
					<path class="st1" d="M107.3,468.7h32L144,480"/>
					<path class="st1" d="M112,480l22.6-22.6l-4.7-11.3l14.1,5.8"/>
					<g>
						<path class="st1" d="M107.3,468.7v-32L96,432"/>
						<path class="st1" d="M96,464l22.6-22.6l11.3,4.7l-5.8-14.1"/>
					</g>
				</g>
				<g>
					<path class="st1" d="M107.3,491.3v32L96,528"/>
					<path class="st1" d="M96,496l22.6,22.6l11.3-4.7l-5.8,14.1"/>
					<g>
						<path class="st1" d="M107.3,491.3h32L144,480"/>
						<path class="st1" d="M112,480l22.6,22.6l-4.7,11.3l14.1-5.8"/>
					</g>
				</g>
				<g>
					<path class="st1" d="M84.7,491.3h-32L48,480"/>
					<path class="st1" d="M80,480l-22.6,22.6l4.7,11.3L48,508.1"/>
					<g>
						<path class="st1" d="M84.7,491.3v32L96,528"/>
						<path class="st1" d="M96,496l-22.6,22.6l-11.3-4.7l5.8,14.1"/>
					</g>
				</g>
				<g>
					<path class="st1" d="M84.7,468.7v-32L96,432"/>
					<path class="st1" d="M96,464l-22.6-22.6l-11.3,4.7l5.8-14.1"/>
					<g>
						<path class="st1" d="M84.7,468.7h-32L48,480"/>
						<path class="st1" d="M80,480l-22.6-22.6l4.7-11.3L48,451.9"/>
					</g>
				</g>
			</g>
		</g>
		<g>
			<g>
				<g>
					<path class="st1" d="M203.3,468.7h32L240,480"/>
					<path class="st1" d="M208,480l22.6-22.6l-4.7-11.3l14.1,5.8"/>
					<g>
						<path class="st1" d="M203.3,468.7v-32L192,432"/>
						<path class="st1" d="M192,464l22.6-22.6l11.3,4.7l-5.8-14.1"/>
					</g>
				</g>
				<g>
					<path class="st1" d="M203.3,491.3v32L192,528"/>
					<path class="st1" d="M192,496l22.6,22.6l11.3-4.7l-5.8,14.1"/>
					<g>
						<path class="st1" d="M203.3,491.3h32L240,480"/>
						<path class="st1" d="M208,480l22.6,22.6l-4.7,11.3l14.1-5.8"/>
					</g>
				</g>
				<g>
					<path class="st1" d="M180.7,491.3h-32L144,480"/>
					<path class="st1" d="M176,480l-22.6,22.6l4.7,11.3l-14.1-5.8"/>
					<g>
						<path class="st1" d="M180.7,491.3v32L192,528"/>
						<path class="st1" d="M192,496l-22.6,22.6l-11.3-4.7l5.8,14.1"/>
					</g>
				</g>
				<g>
					<path class="st1" d="M180.7,468.7v-32L192,432"/>
					<path class="st1" d="M192,464l-22.6-22.6l-11.3,4.7l5.8-14.1"/>
					<g>
						<path class="st1" d="M180.7,468.7h-32L144,480"/>
						<path class="st1" d="M176,480l-22.6-22.6l4.7-11.3l-14.1,5.8"/>
					</g>
				</g>
			</g>
		</g>
		<g>
			<g>
				<g>
					<path class="st1" d="M299.3,468.7h32L336,480"/>
					<path class="st1" d="M304,480l22.6-22.6l-4.7-11.3l14.1,5.8"/>
					<g>
						<path class="st1" d="M299.3,468.7v-32L288,432"/>
						<path class="st1" d="M288,464l22.6-22.6l11.3,4.7l-5.8-14.1"/>
					</g>
				</g>
				<g>
					<path class="st1" d="M299.3,491.3v32L288,528"/>
					<path class="st1" d="M288,496l22.6,22.6l11.3-4.7l-5.8,14.1"/>
					<g>
						<path class="st1" d="M299.3,491.3h32L336,480"/>
						<path class="st1" d="M304,480l22.6,22.6l-4.7,11.3l14.1-5.8"/>
					</g>
				</g>
				<g>
					<path class="st1" d="M276.7,491.3h-32L240,480"/>
					<path class="st1" d="M272,480l-22.6,22.6l4.7,11.3l-14.1-5.8"/>
					<g>
						<path class="st1" d="M276.7,491.3v32L288,528"/>
						<path class="st1" d="M288,496l-22.6,22.6l-11.3-4.7l5.8,14.1"/>
					</g>
				</g>
				<g>
					<path class="st1" d="M276.7,468.7v-32L288,432"/>
					<path class="st1" d="M288,464l-22.6-22.6l-11.3,4.7l5.8-14.1"/>
					<g>
						<path class="st1" d="M276.7,468.7h-32L240,480"/>
						<path class="st1" d="M272,480l-22.6-22.6l4.7-11.3l-14.1,5.8"/>
					</g>
				</g>
			</g>
		</g>
		<g>
			<g>
				<g>
					<path class="st1" d="M395.3,468.7h32L432,480"/>
					<path class="st1" d="M400,480l22.6-22.6l-4.7-11.3l14.1,5.8"/>
					<g>
						<path class="st1" d="M395.3,468.7v-32L384,432"/>
						<path class="st1" d="M384,464l22.6-22.6l11.3,4.7l-5.8-14.1"/>
					</g>
				</g>
				<g>
					<path class="st1" d="M395.3,491.3v32L384,528"/>
					<path class="st1" d="M384,496l22.6,22.6l11.3-4.7l-5.8,14.1"/>
					<g>
						<path class="st1" d="M395.3,491.3h32L432,480"/>
						<path class="st1" d="M400,480l22.6,22.6l-4.7,11.3l14.1-5.8"/>
					</g>
				</g>
				<g>
					<path class="st1" d="M372.7,491.3h-32L336,480"/>
					<path class="st1" d="M368,480l-22.6,22.6l4.7,11.3l-14.1-5.8"/>
					<g>
						<path class="st1" d="M372.7,491.3v32L384,528"/>
						<path class="st1" d="M384,496l-22.6,22.6l-11.3-4.7l5.8,14.1"/>
					</g>
				</g>
				<g>
					<path class="st1" d="M372.7,468.7v-32L384,432"/>
					<path class="st1" d="M384,464l-22.6-22.6l-11.3,4.7l5.8-14.1"/>
					<g>
						<path class="st1" d="M372.7,468.7h-32L336,480"/>
						<path class="st1" d="M368,480l-22.6-22.6l4.7-11.3l-14.1,5.8"/>
					</g>
				</g>
			</g>
		</g>
		<g>
			<g>
				<g>
					<path class="st1" d="M491.3,468.7h32L528,480"/>
					<path class="st1" d="M496,480l22.6-22.6l-4.7-11.3l14.1,5.8"/>
					<g>
						<path class="st1" d="M491.3,468.7v-32L480,432"/>
						<path class="st1" d="M480,464l22.6-22.6l11.3,4.7l-5.8-14.1"/>
					</g>
				</g>
				<g>
					<path class="st1" d="M491.3,491.3v32L480,528"/>
					<path class="st1" d="M480,496l22.6,22.6l11.3-4.7l-5.8,14.1"/>
					<g>
						<path class="st1" d="M491.3,491.3h32L528,480"/>
						<path class="st1" d="M496,480l22.6,22.6l-4.7,11.3l14.1-5.8"/>
					</g>
				</g>
				<g>
					<path class="st1" d="M468.7,491.3h-32L432,480"/>
					<path class="st1" d="M464,480l-22.6,22.6l4.7,11.3l-14.1-5.8"/>
					<g>
						<path class="st1" d="M468.7,491.3v32L480,528"/>
						<path class="st1" d="M480,496l-22.6,22.6l-11.3-4.7l5.8,14.1"/>
					</g>
				</g>
				<g>
					<path class="st1" d="M468.7,468.7v-32L480,432"/>
					<path class="st1" d="M480,464l-22.6-22.6l-11.3,4.7l5.8-14.1"/>
					<g>
						<path class="st1" d="M468.7,468.7h-32L432,480"/>
						<path class="st1" d="M464,480l-22.6-22.6l4.7-11.3l-14.1,5.8"/>
					</g>
				</g>
			</g>
		</g>
		<g>
			<g>
				<g>
					<path class="st1" d="M587.3,468.7h32L624,480"/>
					<path class="st1" d="M592,480l22.6-22.6l-4.7-11.3l14.1,5.8"/>
					<g>
						<path class="st1" d="M587.3,468.7v-32L576,432"/>
						<path class="st1" d="M576,464l22.6-22.6l11.3,4.7l-5.8-14.1"/>
					</g>
				</g>
				<g>
					<path class="st1" d="M587.3,491.3v32L576,528"/>
					<path class="st1" d="M576,496l22.6,22.6l11.3-4.7l-5.8,14.1"/>
					<g>
						<path class="st1" d="M587.3,491.3h32L624,480"/>
						<path class="st1" d="M592,480l22.6,22.6l-4.7,11.3l14.1-5.8"/>
					</g>
				</g>
				<g>
					<path class="st1" d="M564.7,491.3h-32L528,480"/>
					<path class="st1" d="M560,480l-22.6,22.6l4.7,11.3l-14.1-5.8"/>
					<g>
						<path class="st1" d="M564.7,491.3v32L576,528"/>
						<path class="st1" d="M576,496l-22.6,22.6l-11.3-4.7l5.8,14.1"/>
					</g>
				</g>
				<g>
					<path class="st1" d="M564.7,468.7v-32L576,432"/>
					<path class="st1" d="M576,464l-22.6-22.6l-11.3,4.7l5.8-14.1"/>
					<g>
						<path class="st1" d="M564.7,468.7h-32L528,480"/>
						<path class="st1" d="M560,480l-22.6-22.6l4.7-11.3l-14.1,5.8"/>
					</g>
				</g>
			</g>
		</g>
		<g>
			<g>
				<g>
					<path class="st1" d="M683.3,468.7h32L720,480"/>
					<path class="st1" d="M688,480l22.6-22.6l-4.7-11.3l14.1,5.8"/>
					<g>
						<path class="st1" d="M683.3,468.7v-32L672,432"/>
						<path class="st1" d="M672,464l22.6-22.6l11.3,4.7l-5.8-14.1"/>
					</g>
				</g>
				<g>
					<path class="st1" d="M683.3,491.3v32L672,528"/>
					<path class="st1" d="M672,496l22.6,22.6l11.3-4.7l-5.8,14.1"/>
					<g>
						<path class="st1" d="M683.3,491.3h32L720,480"/>
						<path class="st1" d="M688,480l22.6,22.6l-4.7,11.3l14.1-5.8"/>
					</g>
				</g>
				<g>
					<path class="st1" d="M660.7,491.3h-32L624,480"/>
					<path class="st1" d="M656,480l-22.6,22.6l4.7,11.3l-14.1-5.8"/>
					<g>
						<path class="st1" d="M660.7,491.3v32L672,528"/>
						<path class="st1" d="M672,496l-22.6,22.6l-11.3-4.7l5.8,14.1"/>
					</g>
				</g>
				<g>
					<path class="st1" d="M660.7,468.7v-32L672,432"/>
					<path class="st1" d="M672,464l-22.6-22.6l-11.3,4.7l5.8-14.1"/>
					<g>
						<path class="st1" d="M660.7,468.7h-32L624,480"/>
						<path class="st1" d="M656,480l-22.6-22.6l4.7-11.3l-14.1,5.8"/>
					</g>
				</g>
			</g>
		</g>
		<g>
			<g>
				<g>
					<path class="st1" d="M779.3,468.7h32L816,480"/>
					<path class="st1" d="M784,480l22.6-22.6l-4.7-11.3l14.1,5.8"/>
					<g>
						<path class="st1" d="M779.3,468.7v-32L768,432"/>
						<path class="st1" d="M768,464l22.6-22.6l11.3,4.7l-5.8-14.1"/>
					</g>
				</g>
				<g>
					<path class="st1" d="M779.3,491.3v32L768,528"/>
					<path class="st1" d="M768,496l22.6,22.6l11.3-4.7l-5.8,14.1"/>
					<g>
						<path class="st1" d="M779.3,491.3h32L816,480"/>
						<path class="st1" d="M784,480l22.6,22.6l-4.7,11.3l14.1-5.8"/>
					</g>
				</g>
				<g>
					<path class="st1" d="M756.7,491.3h-32L720,480"/>
					<path class="st1" d="M752,480l-22.6,22.6l4.7,11.3l-14.1-5.8"/>
					<g>
						<path class="st1" d="M756.7,491.3v32L768,528"/>
						<path class="st1" d="M768,496l-22.6,22.6l-11.3-4.7l5.8,14.1"/>
					</g>
				</g>
				<g>
					<path class="st1" d="M756.7,468.7v-32L768,432"/>
					<path class="st1" d="M768,464l-22.6-22.6l-11.3,4.7l5.8-14.1"/>
					<g>
						<path class="st1" d="M756.7,468.7h-32L720,480"/>
						<path class="st1" d="M752,480l-22.6-22.6l4.7-11.3l-14.1,5.8"/>
					</g>
				</g>
			</g>
		</g>
		<g>
			<g>
				<g>
					<path class="st1" d="M11.3,564.7h32L48,576"/>
					<path class="st1" d="M16,576l22.6-22.6l-4.7-11.3l14.1,5.8"/>
					<g>
						<path class="st1" d="M11.3,564.7v-32L0,528"/>
						<path class="st1" d="M0,560l22.6-22.6l11.3,4.7L28.1,528"/>
					</g>
				</g>
				<g>
					<path class="st1" d="M11.3,587.3v32L0,624"/>
					<path class="st1" d="M0,592l22.6,22.6l11.3-4.7L28.1,624"/>
					<g>
						<path class="st1" d="M11.3,587.3h32L48,576"/>
						<path class="st1" d="M16,576l22.6,22.6l-4.7,11.3l14.1-5.8"/>
					</g>
				</g>
				<g>
					<path class="st1" d="M-11.3,587.3h-32L-48,576"/>
					<path class="st1" d="M-16,576l-22.6,22.6l4.7,11.3l-14.1-5.8"/>
					<g>
						<path class="st1" d="M-11.3,587.3v32L0,624"/>
						<path class="st1" d="M0,592l-22.6,22.6l-11.3-4.7l5.8,14.1"/>
					</g>
				</g>
				<g>
					<path class="st1" d="M-11.3,564.7v-32L0,528"/>
					<path class="st1" d="M0,560l-22.6-22.6l-11.3,4.7l5.8-14.1"/>
					<g>
						<path class="st1" d="M-11.3,564.7h-32L-48,576"/>
						<path class="st1" d="M-16,576l-22.6-22.6l4.7-11.3l-14.1,5.8"/>
					</g>
				</g>
			</g>
		</g>
		<g>
			<g>
				<g>
					<path class="st1" d="M107.3,564.7h32L144,576"/>
					<path class="st1" d="M112,576l22.6-22.6l-4.7-11.3l14.1,5.8"/>
					<g>
						<path class="st1" d="M107.3,564.7v-32L96,528"/>
						<path class="st1" d="M96,560l22.6-22.6l11.3,4.7l-5.8-14.1"/>
					</g>
				</g>
				<g>
					<path class="st1" d="M107.3,587.3v32L96,624"/>
					<path class="st1" d="M96,592l22.6,22.6l11.3-4.7l-5.8,14.1"/>
					<g>
						<path class="st1" d="M107.3,587.3h32L144,576"/>
						<path class="st1" d="M112,576l22.6,22.6l-4.7,11.3l14.1-5.8"/>
					</g>
				</g>
				<g>
					<path class="st1" d="M84.7,587.3h-32L48,576"/>
					<path class="st1" d="M80,576l-22.6,22.6l4.7,11.3L48,604.1"/>
					<g>
						<path class="st1" d="M84.7,587.3v32L96,624"/>
						<path class="st1" d="M96,592l-22.6,22.6l-11.3-4.7l5.8,14.1"/>
					</g>
				</g>
				<g>
					<path class="st1" d="M84.7,564.7v-32L96,528"/>
					<path class="st1" d="M96,560l-22.6-22.6l-11.3,4.7l5.8-14.1"/>
					<g>
						<path class="st1" d="M84.7,564.7h-32L48,576"/>
						<path class="st1" d="M80,576l-22.6-22.6l4.7-11.3L48,547.9"/>
					</g>
				</g>
			</g>
		</g>
		<g>
			<g>
				<g>
					<path class="st1" d="M203.3,564.7h32L240,576"/>
					<path class="st1" d="M208,576l22.6-22.6l-4.7-11.3l14.1,5.8"/>
					<g>
						<path class="st1" d="M203.3,564.7v-32L192,528"/>
						<path class="st1" d="M192,560l22.6-22.6l11.3,4.7l-5.8-14.1"/>
					</g>
				</g>
				<g>
					<path class="st1" d="M203.3,587.3v32L192,624"/>
					<path class="st1" d="M192,592l22.6,22.6l11.3-4.7l-5.8,14.1"/>
					<g>
						<path class="st1" d="M203.3,587.3h32L240,576"/>
						<path class="st1" d="M208,576l22.6,22.6l-4.7,11.3l14.1-5.8"/>
					</g>
				</g>
				<g>
					<path class="st1" d="M180.7,587.3h-32L144,576"/>
					<path class="st1" d="M176,576l-22.6,22.6l4.7,11.3l-14.1-5.8"/>
					<g>
						<path class="st1" d="M180.7,587.3v32L192,624"/>
						<path class="st1" d="M192,592l-22.6,22.6l-11.3-4.7l5.8,14.1"/>
					</g>
				</g>
				<g>
					<path class="st1" d="M180.7,564.7v-32L192,528"/>
					<path class="st1" d="M192,560l-22.6-22.6l-11.3,4.7l5.8-14.1"/>
					<g>
						<path class="st1" d="M180.7,564.7h-32L144,576"/>
						<path class="st1" d="M176,576l-22.6-22.6l4.7-11.3l-14.1,5.8"/>
					</g>
				</g>
			</g>
		</g>
		<g>
			<g>
				<g>
					<path class="st1" d="M299.3,564.7h32L336,576"/>
					<path class="st1" d="M304,576l22.6-22.6l-4.7-11.3l14.1,5.8"/>
					<g>
						<path class="st1" d="M299.3,564.7v-32L288,528"/>
						<path class="st1" d="M288,560l22.6-22.6l11.3,4.7l-5.8-14.1"/>
					</g>
				</g>
				<g>
					<path class="st1" d="M299.3,587.3v32L288,624"/>
					<path class="st1" d="M288,592l22.6,22.6l11.3-4.7l-5.8,14.1"/>
					<g>
						<path class="st1" d="M299.3,587.3h32L336,576"/>
						<path class="st1" d="M304,576l22.6,22.6l-4.7,11.3l14.1-5.8"/>
					</g>
				</g>
				<g>
					<path class="st1" d="M276.7,587.3h-32L240,576"/>
					<path class="st1" d="M272,576l-22.6,22.6l4.7,11.3l-14.1-5.8"/>
					<g>
						<path class="st1" d="M276.7,587.3v32L288,624"/>
						<path class="st1" d="M288,592l-22.6,22.6l-11.3-4.7l5.8,14.1"/>
					</g>
				</g>
				<g>
					<path class="st1" d="M276.7,564.7v-32L288,528"/>
					<path class="st1" d="M288,560l-22.6-22.6l-11.3,4.7l5.8-14.1"/>
					<g>
						<path class="st1" d="M276.7,564.7h-32L240,576"/>
						<path class="st1" d="M272,576l-22.6-22.6l4.7-11.3l-14.1,5.8"/>
					</g>
				</g>
			</g>
		</g>
		<g>
			<g>
				<g>
					<path class="st1" d="M395.3,564.7h32L432,576"/>
					<path class="st1" d="M400,576l22.6-22.6l-4.7-11.3l14.1,5.8"/>
					<g>
						<path class="st1" d="M395.3,564.7v-32L384,528"/>
						<path class="st1" d="M384,560l22.6-22.6l11.3,4.7l-5.8-14.1"/>
					</g>
				</g>
				<g>
					<path class="st1" d="M395.3,587.3v32L384,624"/>
					<path class="st1" d="M384,592l22.6,22.6l11.3-4.7l-5.8,14.1"/>
					<g>
						<path class="st1" d="M395.3,587.3h32L432,576"/>
						<path class="st1" d="M400,576l22.6,22.6l-4.7,11.3l14.1-5.8"/>
					</g>
				</g>
				<g>
					<path class="st1" d="M372.7,587.3h-32L336,576"/>
					<path class="st1" d="M368,576l-22.6,22.6l4.7,11.3l-14.1-5.8"/>
					<g>
						<path class="st1" d="M372.7,587.3v32L384,624"/>
						<path class="st1" d="M384,592l-22.6,22.6l-11.3-4.7l5.8,14.1"/>
					</g>
				</g>
				<g>
					<path class="st1" d="M372.7,564.7v-32L384,528"/>
					<path class="st1" d="M384,560l-22.6-22.6l-11.3,4.7l5.8-14.1"/>
					<g>
						<path class="st1" d="M372.7,564.7h-32L336,576"/>
						<path class="st1" d="M368,576l-22.6-22.6l4.7-11.3l-14.1,5.8"/>
					</g>
				</g>
			</g>
		</g>
		<g>
			<g>
				<g>
					<path class="st1" d="M491.3,564.7h32L528,576"/>
					<path class="st1" d="M496,576l22.6-22.6l-4.7-11.3l14.1,5.8"/>
					<g>
						<path class="st1" d="M491.3,564.7v-32L480,528"/>
						<path class="st1" d="M480,560l22.6-22.6l11.3,4.7l-5.8-14.1"/>
					</g>
				</g>
				<g>
					<path class="st1" d="M491.3,587.3v32L480,624"/>
					<path class="st1" d="M480,592l22.6,22.6l11.3-4.7l-5.8,14.1"/>
					<g>
						<path class="st1" d="M491.3,587.3h32L528,576"/>
						<path class="st1" d="M496,576l22.6,22.6l-4.7,11.3l14.1-5.8"/>
					</g>
				</g>
				<g>
					<path class="st1" d="M468.7,587.3h-32L432,576"/>
					<path class="st1" d="M464,576l-22.6,22.6l4.7,11.3l-14.1-5.8"/>
					<g>
						<path class="st1" d="M468.7,587.3v32L480,624"/>
						<path class="st1" d="M480,592l-22.6,22.6l-11.3-4.7l5.8,14.1"/>
					</g>
				</g>
				<g>
					<path class="st1" d="M468.7,564.7v-32L480,528"/>
					<path class="st1" d="M480,560l-22.6-22.6l-11.3,4.7l5.8-14.1"/>
					<g>
						<path class="st1" d="M468.7,564.7h-32L432,576"/>
						<path class="st1" d="M464,576l-22.6-22.6l4.7-11.3l-14.1,5.8"/>
					</g>
				</g>
			</g>
		</g>
		<g>
			<g>
				<g>
					<path class="st1" d="M587.3,564.7h32L624,576"/>
					<path class="st1" d="M592,576l22.6-22.6l-4.7-11.3l14.1,5.8"/>
					<g>
						<path class="st1" d="M587.3,564.7v-32L576,528"/>
						<path class="st1" d="M576,560l22.6-22.6l11.3,4.7l-5.8-14.1"/>
					</g>
				</g>
				<g>
					<path class="st1" d="M587.3,587.3v32L576,624"/>
					<path class="st1" d="M576,592l22.6,22.6l11.3-4.7l-5.8,14.1"/>
					<g>
						<path class="st1" d="M587.3,587.3h32L624,576"/>
						<path class="st1" d="M592,576l22.6,22.6l-4.7,11.3l14.1-5.8"/>
					</g>
				</g>
				<g>
					<path class="st1" d="M564.7,587.3h-32L528,576"/>
					<path class="st1" d="M560,576l-22.6,22.6l4.7,11.3l-14.1-5.8"/>
					<g>
						<path class="st1" d="M564.7,587.3v32L576,624"/>
						<path class="st1" d="M576,592l-22.6,22.6l-11.3-4.7l5.8,14.1"/>
					</g>
				</g>
				<g>
					<path class="st1" d="M564.7,564.7v-32L576,528"/>
					<path class="st1" d="M576,560l-22.6-22.6l-11.3,4.7l5.8-14.1"/>
					<g>
						<path class="st1" d="M564.7,564.7h-32L528,576"/>
						<path class="st1" d="M560,576l-22.6-22.6l4.7-11.3l-14.1,5.8"/>
					</g>
				</g>
			</g>
		</g>
		<g>
			<g>
				<g>
					<path class="st1" d="M683.3,564.7h32L720,576"/>
					<path class="st1" d="M688,576l22.6-22.6l-4.7-11.3l14.1,5.8"/>
					<g>
						<path class="st1" d="M683.3,564.7v-32L672,528"/>
						<path class="st1" d="M672,560l22.6-22.6l11.3,4.7l-5.8-14.1"/>
					</g>
				</g>
				<g>
					<path class="st1" d="M683.3,587.3v32L672,624"/>
					<path class="st1" d="M672,592l22.6,22.6l11.3-4.7l-5.8,14.1"/>
					<g>
						<path class="st1" d="M683.3,587.3h32L720,576"/>
						<path class="st1" d="M688,576l22.6,22.6l-4.7,11.3l14.1-5.8"/>
					</g>
				</g>
				<g>
					<path class="st1" d="M660.7,587.3h-32L624,576"/>
					<path class="st1" d="M656,576l-22.6,22.6l4.7,11.3l-14.1-5.8"/>
					<g>
						<path class="st1" d="M660.7,587.3v32L672,624"/>
						<path class="st1" d="M672,592l-22.6,22.6l-11.3-4.7l5.8,14.1"/>
					</g>
				</g>
				<g>
					<path class="st1" d="M660.7,564.7v-32L672,528"/>
					<path class="st1" d="M672,560l-22.6-22.6l-11.3,4.7l5.8-14.1"/>
					<g>
						<path class="st1" d="M660.7,564.7h-32L624,576"/>
						<path class="st1" d="M656,576l-22.6-22.6l4.7-11.3l-14.1,5.8"/>
					</g>
				</g>
			</g>
		</g>
		<g>
			<g>
				<g>
					<path class="st1" d="M779.3,564.7h32L816,576"/>
					<path class="st1" d="M784,576l22.6-22.6l-4.7-11.3l14.1,5.8"/>
					<g>
						<path class="st1" d="M779.3,564.7v-32L768,528"/>
						<path class="st1" d="M768,560l22.6-22.6l11.3,4.7l-5.8-14.1"/>
					</g>
				</g>
				<g>
					<path class="st1" d="M779.3,587.3v32L768,624"/>
					<path class="st1" d="M768,592l22.6,22.6l11.3-4.7l-5.8,14.1"/>
					<g>
						<path class="st1" d="M779.3,587.3h32L816,576"/>
						<path class="st1" d="M784,576l22.6,22.6l-4.7,11.3l14.1-5.8"/>
					</g>
				</g>
				<g>
					<path class="st1" d="M756.7,587.3h-32L720,576"/>
					<path class="st1" d="M752,576l-22.6,22.6l4.7,11.3l-14.1-5.8"/>
					<g>
						<path class="st1" d="M756.7,587.3v32L768,624"/>
						<path class="st1" d="M768,592l-22.6,22.6l-11.3-4.7l5.8,14.1"/>
					</g>
				</g>
				<g>
					<path class="st1" d="M756.7,564.7v-32L768,528"/>
					<path class="st1" d="M768,560l-22.6-22.6l-11.3,4.7l5.8-14.1"/>
					<g>
						<path class="st1" d="M756.7,564.7h-32L720,576"/>
						<path class="st1" d="M752,576l-22.6-22.6l4.7-11.3l-14.1,5.8"/>
					</g>
				</g>
			</g>
		</g>
		<g>
			<g>
				<g>
					<path class="st1" d="M11.3,660.7h32L48,672"/>
					<path class="st1" d="M16,672l22.6-22.6l-4.7-11.3l14.1,5.8"/>
					<g>
						<path class="st1" d="M11.3,660.7v-32L0,624"/>
						<path class="st1" d="M0,656l22.6-22.6l11.3,4.7L28.1,624"/>
					</g>
				</g>
				<g>
					<path class="st1" d="M11.3,683.3v32L0,720"/>
					<path class="st1" d="M0,688l22.6,22.6l11.3-4.7L28.1,720"/>
					<g>
						<path class="st1" d="M11.3,683.3h32L48,672"/>
						<path class="st1" d="M16,672l22.6,22.6l-4.7,11.3l14.1-5.8"/>
					</g>
				</g>
				<g>
					<path class="st1" d="M-11.3,683.3h-32L-48,672"/>
					<path class="st1" d="M-16,672l-22.6,22.6l4.7,11.3l-14.1-5.8"/>
					<g>
						<path class="st1" d="M-11.3,683.3v32L0,720"/>
						<path class="st1" d="M0,688l-22.6,22.6l-11.3-4.7l5.8,14.1"/>
					</g>
				</g>
				<g>
					<path class="st1" d="M-11.3,660.7v-32L0,624"/>
					<path class="st1" d="M0,656l-22.6-22.6l-11.3,4.7l5.8-14.1"/>
					<g>
						<path class="st1" d="M-11.3,660.7h-32L-48,672"/>
						<path class="st1" d="M-16,672l-22.6-22.6l4.7-11.3l-14.1,5.8"/>
					</g>
				</g>
			</g>
		</g>
		<g>
			<g>
				<g>
					<path class="st1" d="M107.3,660.7h32L144,672"/>
					<path class="st1" d="M112,672l22.6-22.6l-4.7-11.3l14.1,5.8"/>
					<g>
						<path class="st1" d="M107.3,660.7v-32L96,624"/>
						<path class="st1" d="M96,656l22.6-22.6l11.3,4.7l-5.8-14.1"/>
					</g>
				</g>
				<g>
					<path class="st1" d="M107.3,683.3v32L96,720"/>
					<path class="st1" d="M96,688l22.6,22.6l11.3-4.7l-5.8,14.1"/>
					<g>
						<path class="st1" d="M107.3,683.3h32L144,672"/>
						<path class="st1" d="M112,672l22.6,22.6l-4.7,11.3l14.1-5.8"/>
					</g>
				</g>
				<g>
					<path class="st1" d="M84.7,683.3h-32L48,672"/>
					<path class="st1" d="M80,672l-22.6,22.6l4.7,11.3L48,700.1"/>
					<g>
						<path class="st1" d="M84.7,683.3v32L96,720"/>
						<path class="st1" d="M96,688l-22.6,22.6l-11.3-4.7l5.8,14.1"/>
					</g>
				</g>
				<g>
					<path class="st1" d="M84.7,660.7v-32L96,624"/>
					<path class="st1" d="M96,656l-22.6-22.6l-11.3,4.7l5.8-14.1"/>
					<g>
						<path class="st1" d="M84.7,660.7h-32L48,672"/>
						<path class="st1" d="M80,672l-22.6-22.6l4.7-11.3L48,643.9"/>
					</g>
				</g>
			</g>
		</g>
		<g>
			<g>
				<g>
					<path class="st1" d="M203.3,660.7h32L240,672"/>
					<path class="st1" d="M208,672l22.6-22.6l-4.7-11.3l14.1,5.8"/>
					<g>
						<path class="st1" d="M203.3,660.7v-32L192,624"/>
						<path class="st1" d="M192,656l22.6-22.6l11.3,4.7l-5.8-14.1"/>
					</g>
				</g>
				<g>
					<path class="st1" d="M203.3,683.3v32L192,720"/>
					<path class="st1" d="M192,688l22.6,22.6l11.3-4.7l-5.8,14.1"/>
					<g>
						<path class="st1" d="M203.3,683.3h32L240,672"/>
						<path class="st1" d="M208,672l22.6,22.6l-4.7,11.3l14.1-5.8"/>
					</g>
				</g>
				<g>
					<path class="st1" d="M180.7,683.3h-32L144,672"/>
					<path class="st1" d="M176,672l-22.6,22.6l4.7,11.3l-14.1-5.8"/>
					<g>
						<path class="st1" d="M180.7,683.3v32L192,720"/>
						<path class="st1" d="M192,688l-22.6,22.6l-11.3-4.7l5.8,14.1"/>
					</g>
				</g>
				<g>
					<path class="st1" d="M180.7,660.7v-32L192,624"/>
					<path class="st1" d="M192,656l-22.6-22.6l-11.3,4.7l5.8-14.1"/>
					<g>
						<path class="st1" d="M180.7,660.7h-32L144,672"/>
						<path class="st1" d="M176,672l-22.6-22.6l4.7-11.3l-14.1,5.8"/>
					</g>
				</g>
			</g>
		</g>
		<g>
			<g>
				<g>
					<path class="st1" d="M299.3,660.7h32L336,672"/>
					<path class="st1" d="M304,672l22.6-22.6l-4.7-11.3l14.1,5.8"/>
					<g>
						<path class="st1" d="M299.3,660.7v-32L288,624"/>
						<path class="st1" d="M288,656l22.6-22.6l11.3,4.7l-5.8-14.1"/>
					</g>
				</g>
				<g>
					<path class="st1" d="M299.3,683.3v32L288,720"/>
					<path class="st1" d="M288,688l22.6,22.6l11.3-4.7l-5.8,14.1"/>
					<g>
						<path class="st1" d="M299.3,683.3h32L336,672"/>
						<path class="st1" d="M304,672l22.6,22.6l-4.7,11.3l14.1-5.8"/>
					</g>
				</g>
				<g>
					<path class="st1" d="M276.7,683.3h-32L240,672"/>
					<path class="st1" d="M272,672l-22.6,22.6l4.7,11.3l-14.1-5.8"/>
					<g>
						<path class="st1" d="M276.7,683.3v32L288,720"/>
						<path class="st1" d="M288,688l-22.6,22.6l-11.3-4.7l5.8,14.1"/>
					</g>
				</g>
				<g>
					<path class="st1" d="M276.7,660.7v-32L288,624"/>
					<path class="st1" d="M288,656l-22.6-22.6l-11.3,4.7l5.8-14.1"/>
					<g>
						<path class="st1" d="M276.7,660.7h-32L240,672"/>
						<path class="st1" d="M272,672l-22.6-22.6l4.7-11.3l-14.1,5.8"/>
					</g>
				</g>
			</g>
		</g>
		<g>
			<g>
				<g>
					<path class="st1" d="M395.3,660.7h32L432,672"/>
					<path class="st1" d="M400,672l22.6-22.6l-4.7-11.3l14.1,5.8"/>
					<g>
						<path class="st1" d="M395.3,660.7v-32L384,624"/>
						<path class="st1" d="M384,656l22.6-22.6l11.3,4.7l-5.8-14.1"/>
					</g>
				</g>
				<g>
					<path class="st1" d="M395.3,683.3v32L384,720"/>
					<path class="st1" d="M384,688l22.6,22.6l11.3-4.7l-5.8,14.1"/>
					<g>
						<path class="st1" d="M395.3,683.3h32L432,672"/>
						<path class="st1" d="M400,672l22.6,22.6l-4.7,11.3l14.1-5.8"/>
					</g>
				</g>
				<g>
					<path class="st1" d="M372.7,683.3h-32L336,672"/>
					<path class="st1" d="M368,672l-22.6,22.6l4.7,11.3l-14.1-5.8"/>
					<g>
						<path class="st1" d="M372.7,683.3v32L384,720"/>
						<path class="st1" d="M384,688l-22.6,22.6l-11.3-4.7l5.8,14.1"/>
					</g>
				</g>
				<g>
					<path class="st1" d="M372.7,660.7v-32L384,624"/>
					<path class="st1" d="M384,656l-22.6-22.6l-11.3,4.7l5.8-14.1"/>
					<g>
						<path class="st1" d="M372.7,660.7h-32L336,672"/>
						<path class="st1" d="M368,672l-22.6-22.6l4.7-11.3l-14.1,5.8"/>
					</g>
				</g>
			</g>
		</g>
		<g>
			<g>
				<g>
					<path class="st1" d="M491.3,660.7h32L528,672"/>
					<path class="st1" d="M496,672l22.6-22.6l-4.7-11.3l14.1,5.8"/>
					<g>
						<path class="st1" d="M491.3,660.7v-32L480,624"/>
						<path class="st1" d="M480,656l22.6-22.6l11.3,4.7l-5.8-14.1"/>
					</g>
				</g>
				<g>
					<path class="st1" d="M491.3,683.3v32L480,720"/>
					<path class="st1" d="M480,688l22.6,22.6l11.3-4.7l-5.8,14.1"/>
					<g>
						<path class="st1" d="M491.3,683.3h32L528,672"/>
						<path class="st1" d="M496,672l22.6,22.6l-4.7,11.3l14.1-5.8"/>
					</g>
				</g>
				<g>
					<path class="st1" d="M468.7,683.3h-32L432,672"/>
					<path class="st1" d="M464,672l-22.6,22.6l4.7,11.3l-14.1-5.8"/>
					<g>
						<path class="st1" d="M468.7,683.3v32L480,720"/>
						<path class="st1" d="M480,688l-22.6,22.6l-11.3-4.7l5.8,14.1"/>
					</g>
				</g>
				<g>
					<path class="st1" d="M468.7,660.7v-32L480,624"/>
					<path class="st1" d="M480,656l-22.6-22.6l-11.3,4.7l5.8-14.1"/>
					<g>
						<path class="st1" d="M468.7,660.7h-32L432,672"/>
						<path class="st1" d="M464,672l-22.6-22.6l4.7-11.3l-14.1,5.8"/>
					</g>
				</g>
			</g>
		</g>
		<g>
			<g>
				<g>
					<path class="st1" d="M587.3,660.7h32L624,672"/>
					<path class="st1" d="M592,672l22.6-22.6l-4.7-11.3l14.1,5.8"/>
					<g>
						<path class="st1" d="M587.3,660.7v-32L576,624"/>
						<path class="st1" d="M576,656l22.6-22.6l11.3,4.7l-5.8-14.1"/>
					</g>
				</g>
				<g>
					<path class="st1" d="M587.3,683.3v32L576,720"/>
					<path class="st1" d="M576,688l22.6,22.6l11.3-4.7l-5.8,14.1"/>
					<g>
						<path class="st1" d="M587.3,683.3h32L624,672"/>
						<path class="st1" d="M592,672l22.6,22.6l-4.7,11.3l14.1-5.8"/>
					</g>
				</g>
				<g>
					<path class="st1" d="M564.7,683.3h-32L528,672"/>
					<path class="st1" d="M560,672l-22.6,22.6l4.7,11.3l-14.1-5.8"/>
					<g>
						<path class="st1" d="M564.7,683.3v32L576,720"/>
						<path class="st1" d="M576,688l-22.6,22.6l-11.3-4.7l5.8,14.1"/>
					</g>
				</g>
				<g>
					<path class="st1" d="M564.7,660.7v-32L576,624"/>
					<path class="st1" d="M576,656l-22.6-22.6l-11.3,4.7l5.8-14.1"/>
					<g>
						<path class="st1" d="M564.7,660.7h-32L528,672"/>
						<path class="st1" d="M560,672l-22.6-22.6l4.7-11.3l-14.1,5.8"/>
					</g>
				</g>
			</g>
		</g>
		<g>
			<g>
				<g>
					<path class="st1" d="M683.3,660.7h32L720,672"/>
					<path class="st1" d="M688,672l22.6-22.6l-4.7-11.3l14.1,5.8"/>
					<g>
						<path class="st1" d="M683.3,660.7v-32L672,624"/>
						<path class="st1" d="M672,656l22.6-22.6l11.3,4.7l-5.8-14.1"/>
					</g>
				</g>
				<g>
					<path class="st1" d="M683.3,683.3v32L672,720"/>
					<path class="st1" d="M672,688l22.6,22.6l11.3-4.7l-5.8,14.1"/>
					<g>
						<path class="st1" d="M683.3,683.3h32L720,672"/>
						<path class="st1" d="M688,672l22.6,22.6l-4.7,11.3l14.1-5.8"/>
					</g>
				</g>
				<g>
					<path class="st1" d="M660.7,683.3h-32L624,672"/>
					<path class="st1" d="M656,672l-22.6,22.6l4.7,11.3l-14.1-5.8"/>
					<g>
						<path class="st1" d="M660.7,683.3v32L672,720"/>
						<path class="st1" d="M672,688l-22.6,22.6l-11.3-4.7l5.8,14.1"/>
					</g>
				</g>
				<g>
					<path class="st1" d="M660.7,660.7v-32L672,624"/>
					<path class="st1" d="M672,656l-22.6-22.6l-11.3,4.7l5.8-14.1"/>
					<g>
						<path class="st1" d="M660.7,660.7h-32L624,672"/>
						<path class="st1" d="M656,672l-22.6-22.6l4.7-11.3l-14.1,5.8"/>
					</g>
				</g>
			</g>
		</g>
		<g>
			<g>
				<g>
					<path class="st1" d="M779.3,660.7h32L816,672"/>
					<path class="st1" d="M784,672l22.6-22.6l-4.7-11.3l14.1,5.8"/>
					<g>
						<path class="st1" d="M779.3,660.7v-32L768,624"/>
						<path class="st1" d="M768,656l22.6-22.6l11.3,4.7l-5.8-14.1"/>
					</g>
				</g>
				<g>
					<path class="st1" d="M779.3,683.3v32L768,720"/>
					<path class="st1" d="M768,688l22.6,22.6l11.3-4.7l-5.8,14.1"/>
					<g>
						<path class="st1" d="M779.3,683.3h32L816,672"/>
						<path class="st1" d="M784,672l22.6,22.6l-4.7,11.3l14.1-5.8"/>
					</g>
				</g>
				<g>
					<path class="st1" d="M756.7,683.3h-32L720,672"/>
					<path class="st1" d="M752,672l-22.6,22.6l4.7,11.3l-14.1-5.8"/>
					<g>
						<path class="st1" d="M756.7,683.3v32L768,720"/>
						<path class="st1" d="M768,688l-22.6,22.6l-11.3-4.7l5.8,14.1"/>
					</g>
				</g>
				<g>
					<path class="st1" d="M756.7,660.7v-32L768,624"/>
					<path class="st1" d="M768,656l-22.6-22.6l-11.3,4.7l5.8-14.1"/>
					<g>
						<path class="st1" d="M756.7,660.7h-32L720,672"/>
						<path class="st1" d="M752,672l-22.6-22.6l4.7-11.3l-14.1,5.8"/>
					</g>
				</g>
			</g>
		</g>
		<g>
			<g>
				<g>
					<path class="st1" d="M11.3,756.7h32L48,768"/>
					<path class="st1" d="M16,768l22.6-22.6l-4.7-11.3l14.1,5.8"/>
					<g>
						<path class="st1" d="M11.3,756.7v-32L0,720"/>
						<path class="st1" d="M0,752l22.6-22.6l11.3,4.7L28.1,720"/>
					</g>
				</g>
				<g>
					<path class="st1" d="M11.3,779.3v32L0,816"/>
					<path class="st1" d="M0,784l22.6,22.6l11.3-4.7L28.1,816"/>
					<g>
						<path class="st1" d="M11.3,779.3h32L48,768"/>
						<path class="st1" d="M16,768l22.6,22.6l-4.7,11.3l14.1-5.8"/>
					</g>
				</g>
				<g>
					<path class="st1" d="M-11.3,779.3h-32L-48,768"/>
					<path class="st1" d="M-16,768l-22.6,22.6l4.7,11.3l-14.1-5.8"/>
					<g>
						<path class="st1" d="M-11.3,779.3v32L0,816"/>
						<path class="st1" d="M0,784l-22.6,22.6l-11.3-4.7l5.8,14.1"/>
					</g>
				</g>
				<g>
					<path class="st1" d="M-11.3,756.7v-32L0,720"/>
					<path class="st1" d="M0,752l-22.6-22.6l-11.3,4.7l5.8-14.1"/>
					<g>
						<path class="st1" d="M-11.3,756.7h-32L-48,768"/>
						<path class="st1" d="M-16,768l-22.6-22.6l4.7-11.3l-14.1,5.8"/>
					</g>
				</g>
			</g>
		</g>
		<g>
			<g>
				<g>
					<path class="st1" d="M107.3,756.7h32L144,768"/>
					<path class="st1" d="M112,768l22.6-22.6l-4.7-11.3l14.1,5.8"/>
					<g>
						<path class="st1" d="M107.3,756.7v-32L96,720"/>
						<path class="st1" d="M96,752l22.6-22.6l11.3,4.7l-5.8-14.1"/>
					</g>
				</g>
				<g>
					<path class="st1" d="M107.3,779.3v32L96,816"/>
					<path class="st1" d="M96,784l22.6,22.6l11.3-4.7l-5.8,14.1"/>
					<g>
						<path class="st1" d="M107.3,779.3h32L144,768"/>
						<path class="st1" d="M112,768l22.6,22.6l-4.7,11.3l14.1-5.8"/>
					</g>
				</g>
				<g>
					<path class="st1" d="M84.7,779.3h-32L48,768"/>
					<path class="st1" d="M80,768l-22.6,22.6l4.7,11.3L48,796.1"/>
					<g>
						<path class="st1" d="M84.7,779.3v32L96,816"/>
						<path class="st1" d="M96,784l-22.6,22.6l-11.3-4.7l5.8,14.1"/>
					</g>
				</g>
				<g>
					<path class="st1" d="M84.7,756.7v-32L96,720"/>
					<path class="st1" d="M96,752l-22.6-22.6l-11.3,4.7l5.8-14.1"/>
					<g>
						<path class="st1" d="M84.7,756.7h-32L48,768"/>
						<path class="st1" d="M80,768l-22.6-22.6l4.7-11.3L48,739.9"/>
					</g>
				</g>
			</g>
		</g>
		<g>
			<g>
				<g>
					<path class="st1" d="M203.3,756.7h32L240,768"/>
					<path class="st1" d="M208,768l22.6-22.6l-4.7-11.3l14.1,5.8"/>
					<g>
						<path class="st1" d="M203.3,756.7v-32L192,720"/>
						<path class="st1" d="M192,752l22.6-22.6l11.3,4.7l-5.8-14.1"/>
					</g>
				</g>
				<g>
					<path class="st1" d="M203.3,779.3v32L192,816"/>
					<path class="st1" d="M192,784l22.6,22.6l11.3-4.7l-5.8,14.1"/>
					<g>
						<path class="st1" d="M203.3,779.3h32L240,768"/>
						<path class="st1" d="M208,768l22.6,22.6l-4.7,11.3l14.1-5.8"/>
					</g>
				</g>
				<g>
					<path class="st1" d="M180.7,779.3h-32L144,768"/>
					<path class="st1" d="M176,768l-22.6,22.6l4.7,11.3l-14.1-5.8"/>
					<g>
						<path class="st1" d="M180.7,779.3v32L192,816"/>
						<path class="st1" d="M192,784l-22.6,22.6l-11.3-4.7l5.8,14.1"/>
					</g>
				</g>
				<g>
					<path class="st1" d="M180.7,756.7v-32L192,720"/>
					<path class="st1" d="M192,752l-22.6-22.6l-11.3,4.7l5.8-14.1"/>
					<g>
						<path class="st1" d="M180.7,756.7h-32L144,768"/>
						<path class="st1" d="M176,768l-22.6-22.6l4.7-11.3l-14.1,5.8"/>
					</g>
				</g>
			</g>
		</g>
		<g>
			<g>
				<g>
					<path class="st1" d="M299.3,756.7h32L336,768"/>
					<path class="st1" d="M304,768l22.6-22.6l-4.7-11.3l14.1,5.8"/>
					<g>
						<path class="st1" d="M299.3,756.7v-32L288,720"/>
						<path class="st1" d="M288,752l22.6-22.6l11.3,4.7l-5.8-14.1"/>
					</g>
				</g>
				<g>
					<path class="st1" d="M299.3,779.3v32L288,816"/>
					<path class="st1" d="M288,784l22.6,22.6l11.3-4.7l-5.8,14.1"/>
					<g>
						<path class="st1" d="M299.3,779.3h32L336,768"/>
						<path class="st1" d="M304,768l22.6,22.6l-4.7,11.3l14.1-5.8"/>
					</g>
				</g>
				<g>
					<path class="st1" d="M276.7,779.3h-32L240,768"/>
					<path class="st1" d="M272,768l-22.6,22.6l4.7,11.3l-14.1-5.8"/>
					<g>
						<path class="st1" d="M276.7,779.3v32L288,816"/>
						<path class="st1" d="M288,784l-22.6,22.6l-11.3-4.7l5.8,14.1"/>
					</g>
				</g>
				<g>
					<path class="st1" d="M276.7,756.7v-32L288,720"/>
					<path class="st1" d="M288,752l-22.6-22.6l-11.3,4.7l5.8-14.1"/>
					<g>
						<path class="st1" d="M276.7,756.7h-32L240,768"/>
						<path class="st1" d="M272,768l-22.6-22.6l4.7-11.3l-14.1,5.8"/>
					</g>
				</g>
			</g>
		</g>
		<g>
			<g>
				<g>
					<path class="st1" d="M395.3,756.7h32L432,768"/>
					<path class="st1" d="M400,768l22.6-22.6l-4.7-11.3l14.1,5.8"/>
					<g>
						<path class="st1" d="M395.3,756.7v-32L384,720"/>
						<path class="st1" d="M384,752l22.6-22.6l11.3,4.7l-5.8-14.1"/>
					</g>
				</g>
				<g>
					<path class="st1" d="M395.3,779.3v32L384,816"/>
					<path class="st1" d="M384,784l22.6,22.6l11.3-4.7l-5.8,14.1"/>
					<g>
						<path class="st1" d="M395.3,779.3h32L432,768"/>
						<path class="st1" d="M400,768l22.6,22.6l-4.7,11.3l14.1-5.8"/>
					</g>
				</g>
				<g>
					<path class="st1" d="M372.7,779.3h-32L336,768"/>
					<path class="st1" d="M368,768l-22.6,22.6l4.7,11.3l-14.1-5.8"/>
					<g>
						<path class="st1" d="M372.7,779.3v32L384,816"/>
						<path class="st1" d="M384,784l-22.6,22.6l-11.3-4.7l5.8,14.1"/>
					</g>
				</g>
				<g>
					<path class="st1" d="M372.7,756.7v-32L384,720"/>
					<path class="st1" d="M384,752l-22.6-22.6l-11.3,4.7l5.8-14.1"/>
					<g>
						<path class="st1" d="M372.7,756.7h-32L336,768"/>
						<path class="st1" d="M368,768l-22.6-22.6l4.7-11.3l-14.1,5.8"/>
					</g>
				</g>
			</g>
		</g>
		<g>
			<g>
				<g>
					<path class="st1" d="M491.3,756.7h32L528,768"/>
					<path class="st1" d="M496,768l22.6-22.6l-4.7-11.3l14.1,5.8"/>
					<g>
						<path class="st1" d="M491.3,756.7v-32L480,720"/>
						<path class="st1" d="M480,752l22.6-22.6l11.3,4.7l-5.8-14.1"/>
					</g>
				</g>
				<g>
					<path class="st1" d="M491.3,779.3v32L480,816"/>
					<path class="st1" d="M480,784l22.6,22.6l11.3-4.7l-5.8,14.1"/>
					<g>
						<path class="st1" d="M491.3,779.3h32L528,768"/>
						<path class="st1" d="M496,768l22.6,22.6l-4.7,11.3l14.1-5.8"/>
					</g>
				</g>
				<g>
					<path class="st1" d="M468.7,779.3h-32L432,768"/>
					<path class="st1" d="M464,768l-22.6,22.6l4.7,11.3l-14.1-5.8"/>
					<g>
						<path class="st1" d="M468.7,779.3v32L480,816"/>
						<path class="st1" d="M480,784l-22.6,22.6l-11.3-4.7l5.8,14.1"/>
					</g>
				</g>
				<g>
					<path class="st1" d="M468.7,756.7v-32L480,720"/>
					<path class="st1" d="M480,752l-22.6-22.6l-11.3,4.7l5.8-14.1"/>
					<g>
						<path class="st1" d="M468.7,756.7h-32L432,768"/>
						<path class="st1" d="M464,768l-22.6-22.6l4.7-11.3l-14.1,5.8"/>
					</g>
				</g>
			</g>
		</g>
		<g>
			<g>
				<g>
					<path class="st1" d="M587.3,756.7h32L624,768"/>
					<path class="st1" d="M592,768l22.6-22.6l-4.7-11.3l14.1,5.8"/>
					<g>
						<path class="st1" d="M587.3,756.7v-32L576,720"/>
						<path class="st1" d="M576,752l22.6-22.6l11.3,4.7l-5.8-14.1"/>
					</g>
				</g>
				<g>
					<path class="st1" d="M587.3,779.3v32L576,816"/>
					<path class="st1" d="M576,784l22.6,22.6l11.3-4.7l-5.8,14.1"/>
					<g>
						<path class="st1" d="M587.3,779.3h32L624,768"/>
						<path class="st1" d="M592,768l22.6,22.6l-4.7,11.3l14.1-5.8"/>
					</g>
				</g>
				<g>
					<path class="st1" d="M564.7,779.3h-32L528,768"/>
					<path class="st1" d="M560,768l-22.6,22.6l4.7,11.3l-14.1-5.8"/>
					<g>
						<path class="st1" d="M564.7,779.3v32L576,816"/>
						<path class="st1" d="M576,784l-22.6,22.6l-11.3-4.7l5.8,14.1"/>
					</g>
				</g>
				<g>
					<path class="st1" d="M564.7,756.7v-32L576,720"/>
					<path class="st1" d="M576,752l-22.6-22.6l-11.3,4.7l5.8-14.1"/>
					<g>
						<path class="st1" d="M564.7,756.7h-32L528,768"/>
						<path class="st1" d="M560,768l-22.6-22.6l4.7-11.3l-14.1,5.8"/>
					</g>
				</g>
			</g>
		</g>
		<g>
			<g>
				<g>
					<path class="st1" d="M683.3,756.7h32L720,768"/>
					<path class="st1" d="M688,768l22.6-22.6l-4.7-11.3l14.1,5.8"/>
					<g>
						<path class="st1" d="M683.3,756.7v-32L672,720"/>
						<path class="st1" d="M672,752l22.6-22.6l11.3,4.7l-5.8-14.1"/>
					</g>
				</g>
				<g>
					<path class="st1" d="M683.3,779.3v32L672,816"/>
					<path class="st1" d="M672,784l22.6,22.6l11.3-4.7l-5.8,14.1"/>
					<g>
						<path class="st1" d="M683.3,779.3h32L720,768"/>
						<path class="st1" d="M688,768l22.6,22.6l-4.7,11.3l14.1-5.8"/>
					</g>
				</g>
				<g>
					<path class="st1" d="M660.7,779.3h-32L624,768"/>
					<path class="st1" d="M656,768l-22.6,22.6l4.7,11.3l-14.1-5.8"/>
					<g>
						<path class="st1" d="M660.7,779.3v32L672,816"/>
						<path class="st1" d="M672,784l-22.6,22.6l-11.3-4.7l5.8,14.1"/>
					</g>
				</g>
				<g>
					<path class="st1" d="M660.7,756.7v-32L672,720"/>
					<path class="st1" d="M672,752l-22.6-22.6l-11.3,4.7l5.8-14.1"/>
					<g>
						<path class="st1" d="M660.7,756.7h-32L624,768"/>
						<path class="st1" d="M656,768l-22.6-22.6l4.7-11.3l-14.1,5.8"/>
					</g>
				</g>
			</g>
		</g>
		<g>
			<g>
				<g>
					<path class="st1" d="M779.3,756.7h32L816,768"/>
					<path class="st1" d="M784,768l22.6-22.6l-4.7-11.3l14.1,5.8"/>
					<g>
						<path class="st1" d="M779.3,756.7v-32L768,720"/>
						<path class="st1" d="M768,752l22.6-22.6l11.3,4.7l-5.8-14.1"/>
					</g>
				</g>
				<g>
					<path class="st1" d="M779.3,779.3v32L768,816"/>
					<path class="st1" d="M768,784l22.6,22.6l11.3-4.7l-5.8,14.1"/>
					<g>
						<path class="st1" d="M779.3,779.3h32L816,768"/>
						<path class="st1" d="M784,768l22.6,22.6l-4.7,11.3l14.1-5.8"/>
					</g>
				</g>
				<g>
					<path class="st1" d="M756.7,779.3h-32L720,768"/>
					<path class="st1" d="M752,768l-22.6,22.6l4.7,11.3l-14.1-5.8"/>
					<g>
						<path class="st1" d="M756.7,779.3v32L768,816"/>
						<path class="st1" d="M768,784l-22.6,22.6l-11.3-4.7l5.8,14.1"/>
					</g>
				</g>
				<g>
					<path class="st1" d="M756.7,756.7v-32L768,720"/>
					<path class="st1" d="M768,752l-22.6-22.6l-11.3,4.7l5.8-14.1"/>
					<g>
						<path class="st1" d="M756.7,756.7h-32L720,768"/>
						<path class="st1" d="M752,768l-22.6-22.6l4.7-11.3l-14.1,5.8"/>
					</g>
				</g>
			</g>
		</g>
	</g>
</g>
</svg>
