<?xml version="1.0" encoding="utf-8"?>
<!-- Generator: Adobe Illustrator 27.7.0, SVG Export Plug-In . SVG Version: 6.00 Build 0)  -->
<svg version="1.1" xmlns="http://www.w3.org/2000/svg" xmlns:xlink="http://www.w3.org/1999/xlink" x="0px" y="0px"
	 viewBox="0 0 800 800" style="enable-background:new 0 0 800 800;" xml:space="preserve">
<style type="text/css">
	.st0{fill:#FFFFFF;}
	.st1{fill:none;stroke:#000000;stroke-linecap:round;stroke-miterlimit:10;}
</style>
<g id="Layer_2">
	<rect class="st0" width="800" height="800"/>
</g>
<g id="Layer_1">
	<g>
		<rect y="0" class="st0" width="800" height="800"/>
		<g>
			<path class="st1" d="M43.7,0L13.9,8l8,29.9L0,16l-21.9,21.9l8-29.9l-29.9-8l29.9-8l-8-29.9L0-16l21.9-21.9L13.9-8L43.7,0L43.7,0z
				"/>
		</g>
		<g>
			<path class="st1" d="M131.1,0l-29.9,8l8,29.9L87.4,16L65.6,37.9l8-29.9L43.7,0l29.9-8l-8-29.9L87.4-16l21.9-21.9l-8,29.9L131.1,0
				L131.1,0z"/>
		</g>
		<g>
			<path class="st1" d="M218.6,0l-29.9,8l8,29.9L174.9,16L153,37.9L161,8l-29.9-8L161-8l-8-29.9L174.9-16l21.9-21.9l-8,29.9L218.6,0
				L218.6,0z"/>
		</g>
		<g>
			<path class="st1" d="M306,0l-29.9,8l8,29.9L262.3,16l-21.9,21.9l8-29.9l-29.9-8l29.9-8l-8-29.9L262.3-16l21.9-21.9l-8,29.9L306,0
				L306,0z"/>
		</g>
		<g>
			<path class="st1" d="M393.4,0l-29.9,8l8,29.9L349.7,16l-21.9,21.9l8-29.9L306,0l29.9-8l-8-29.9L349.7-16l21.9-21.9l-8,29.9
				L393.4,0L393.4,0z"/>
		</g>
		<g>
			<path class="st1" d="M480.8,0L451,8l8,29.9L437.1,16l-21.9,21.9l8-29.9l-29.9-8l29.9-8l-8-29.9L437.1-16L459-37.9L451-8L480.8,0
				L480.8,0z"/>
		</g>
		<g>
			<path class="st1" d="M568.3,0l-29.9,8l8,29.9L524.6,16l-21.9,21.9l8-29.9l-29.9-8l29.9-8l-8-29.9L524.6-16l21.9-21.9l-8,29.9
				L568.3,0L568.3,0z"/>
		</g>
		<g>
			<path class="st1" d="M655.7,0l-29.9,8l8,29.9L612,16l-21.9,21.9l8-29.9l-29.9-8l29.9-8l-8-29.9L612-16l21.9-21.9l-8,29.9L655.7,0
				L655.7,0z"/>
		</g>
		<g>
			<path class="st1" d="M743.1,0l-29.9,8l8,29.9L699.4,16l-21.9,21.9l8-29.9l-29.9-8l29.9-8l-8-29.9L699.4-16l21.9-21.9l-8,29.9
				L743.1,0L743.1,0z"/>
		</g>
		<g>
			<path class="st1" d="M830.5,0l-29.9,8l8,29.9L786.8,16L765,37.9L773,8l-29.9-8L773-8l-8-29.9L786.8-16l21.9-21.9l-8,29.9L830.5,0
				L830.5,0z"/>
		</g>
		<g>
			<path class="st1" d="M87.4,75.7l-29.9,8l8,29.9L43.7,91.7l-21.9,21.9l8-29.9L0,75.7l29.9-8l-8-29.9l21.9,21.9l21.9-21.9l-8,29.9
				L87.4,75.7L87.4,75.7z"/>
		</g>
		<g>
			<path class="st1" d="M174.9,75.7l-29.9,8l8,29.9l-21.9-21.9l-21.9,21.9l8-29.9l-29.9-8l29.9-8l-8-29.9l21.9,21.9L153,37.9
				l-8,29.9L174.9,75.7L174.9,75.7z"/>
		</g>
		<g>
			<path class="st1" d="M262.3,75.7l-29.9,8l8,29.9l-21.9-21.9l-21.9,21.9l8-29.9l-29.9-8l29.9-8l-8-29.9l21.9,21.9l21.9-21.9
				l-8,29.9L262.3,75.7L262.3,75.7z"/>
		</g>
		<g>
			<path class="st1" d="M349.7,75.7l-29.9,8l8,29.9L306,91.7l-21.9,21.9l8-29.9l-29.9-8l29.9-8l-8-29.9L306,59.7l21.9-21.9l-8,29.9
				L349.7,75.7L349.7,75.7z"/>
		</g>
		<g>
			<path class="st1" d="M437.1,75.7l-29.9,8l8,29.9l-21.9-21.9l-21.9,21.9l8-29.9l-29.9-8l29.9-8l-8-29.9l21.9,21.9l21.9-21.9
				l-8,29.9L437.1,75.7L437.1,75.7z"/>
		</g>
		<g>
			<path class="st1" d="M524.6,75.7l-29.9,8l8,29.9l-21.9-21.9L459,113.6l8-29.9l-29.9-8l29.9-8l-8-29.9l21.9,21.9l21.9-21.9
				l-8,29.9L524.6,75.7L524.6,75.7z"/>
		</g>
		<g>
			<path class="st1" d="M612,75.7l-29.9,8l8,29.9l-21.9-21.9l-21.9,21.9l8-29.9l-29.9-8l29.9-8l-8-29.9l21.9,21.9l21.9-21.9l-8,29.9
				L612,75.7L612,75.7z"/>
		</g>
		<g>
			<path class="st1" d="M699.4,75.7l-29.9,8l8,29.9l-21.9-21.9l-21.9,21.9l8-29.9l-29.9-8l29.9-8l-8-29.9l21.9,21.9l21.9-21.9
				l-8,29.9L699.4,75.7L699.4,75.7z"/>
		</g>
		<g>
			<path class="st1" d="M786.8,75.7l-29.9,8l8,29.9l-21.9-21.9l-21.9,21.9l8-29.9l-29.9-8l29.9-8l-8-29.9l21.9,21.9L765,37.9
				l-8,29.9L786.8,75.7L786.8,75.7z"/>
		</g>
		<g>
			<path class="st1" d="M874.3,75.7l-29.9,8l8,29.9l-21.9-21.9l-21.9,21.9l8-29.9l-29.9-8l29.9-8l-8-29.9l21.9,21.9l21.9-21.9
				l-8,29.9L874.3,75.7L874.3,75.7z"/>
		</g>
		<g>
			<path class="st1" d="M43.7,151.4l-29.9,8l8,29.9L0,167.4l-21.9,21.9l8-29.9l-29.9-8l29.9-8l-8-29.9L0,135.4l21.9-21.9l-8,29.9
				L43.7,151.4L43.7,151.4z"/>
		</g>
		<g>
			<path class="st1" d="M131.1,151.4l-29.9,8l8,29.9l-21.9-21.9l-21.9,21.9l8-29.9l-29.9-8l29.9-8l-8-29.9l21.9,21.9l21.9-21.9
				l-8,29.9L131.1,151.4L131.1,151.4z"/>
		</g>
		<g>
			<path class="st1" d="M218.6,151.4l-29.9,8l8,29.9l-21.9-21.9L153,189.3l8-29.9l-29.9-8l29.9-8l-8-29.9l21.9,21.9l21.9-21.9
				l-8,29.9L218.6,151.4L218.6,151.4z"/>
		</g>
		<g>
			<path class="st1" d="M306,151.4l-29.9,8l8,29.9l-21.9-21.9l-21.9,21.9l8-29.9l-29.9-8l29.9-8l-8-29.9l21.9,21.9l21.9-21.9
				l-8,29.9L306,151.4L306,151.4z"/>
		</g>
		<g>
			<path class="st1" d="M393.4,151.4l-29.9,8l8,29.9l-21.9-21.9l-21.9,21.9l8-29.9l-29.9-8l29.9-8l-8-29.9l21.9,21.9l21.9-21.9
				l-8,29.9L393.4,151.4L393.4,151.4z"/>
		</g>
		<g>
			<path class="st1" d="M480.8,151.4l-29.9,8l8,29.9l-21.9-21.9l-21.9,21.9l8-29.9l-29.9-8l29.9-8l-8-29.9l21.9,21.9l21.9-21.9
				l-8,29.9L480.8,151.4L480.8,151.4z"/>
		</g>
		<g>
			<path class="st1" d="M568.3,151.4l-29.9,8l8,29.9l-21.9-21.9l-21.9,21.9l8-29.9l-29.9-8l29.9-8l-8-29.9l21.9,21.9l21.9-21.9
				l-8,29.9L568.3,151.4L568.3,151.4z"/>
		</g>
		<g>
			<path class="st1" d="M655.7,151.4l-29.9,8l8,29.9L612,167.4l-21.9,21.9l8-29.9l-29.9-8l29.9-8l-8-29.9l21.9,21.9l21.9-21.9
				l-8,29.9L655.7,151.4L655.7,151.4z"/>
		</g>
		<g>
			<path class="st1" d="M743.1,151.4l-29.9,8l8,29.9l-21.9-21.9l-21.9,21.9l8-29.9l-29.9-8l29.9-8l-8-29.9l21.9,21.9l21.9-21.9
				l-8,29.9L743.1,151.4L743.1,151.4z"/>
		</g>
		<g>
			<path class="st1" d="M830.5,151.4l-29.9,8l8,29.9l-21.9-21.9L765,189.3l8-29.9l-29.9-8l29.9-8l-8-29.9l21.9,21.9l21.9-21.9
				l-8,29.9L830.5,151.4L830.5,151.4z"/>
		</g>
		<g>
			<path class="st1" d="M87.4,227.1l-29.9,8l8,29.9l-21.9-21.9L21.9,265l8-29.9l-29.9-8l29.9-8l-8-29.9l21.9,21.9l21.9-21.9l-8,29.9
				L87.4,227.1L87.4,227.1z"/>
		</g>
		<g>
			<path class="st1" d="M174.9,227.1l-29.9,8l8,29.9l-21.9-21.9L109.3,265l8-29.9l-29.9-8l29.9-8l-8-29.9l21.9,21.9l21.9-21.9
				l-8,29.9L174.9,227.1L174.9,227.1z"/>
		</g>
		<g>
			<path class="st1" d="M262.3,227.1l-29.9,8l8,29.9l-21.9-21.9L196.7,265l8-29.9l-29.9-8l29.9-8l-8-29.9l21.9,21.9l21.9-21.9
				l-8,29.9L262.3,227.1L262.3,227.1z"/>
		</g>
		<g>
			<path class="st1" d="M349.7,227.1l-29.9,8l8,29.9L306,243.1L284.1,265l8-29.9l-29.9-8l29.9-8l-8-29.9l21.9,21.9l21.9-21.9
				l-8,29.9L349.7,227.1L349.7,227.1z"/>
		</g>
		<g>
			<path class="st1" d="M437.1,227.1l-29.9,8l8,29.9l-21.9-21.9L371.6,265l8-29.9l-29.9-8l29.9-8l-8-29.9l21.9,21.9l21.9-21.9
				l-8,29.9L437.1,227.1L437.1,227.1z"/>
		</g>
		<g>
			<path class="st1" d="M524.6,227.1l-29.9,8l8,29.9l-21.9-21.9L459,265l8-29.9l-29.9-8l29.9-8l-8-29.9l21.9,21.9l21.9-21.9l-8,29.9
				L524.6,227.1L524.6,227.1z"/>
		</g>
		<g>
			<path class="st1" d="M612,227.1l-29.9,8l8,29.9l-21.9-21.9L546.4,265l8-29.9l-29.9-8l29.9-8l-8-29.9l21.9,21.9l21.9-21.9l-8,29.9
				L612,227.1L612,227.1z"/>
		</g>
		<g>
			<path class="st1" d="M699.4,227.1l-29.9,8l8,29.9l-21.9-21.9L633.8,265l8-29.9l-29.9-8l29.9-8l-8-29.9l21.9,21.9l21.9-21.9
				l-8,29.9L699.4,227.1L699.4,227.1z"/>
		</g>
		<g>
			<path class="st1" d="M786.8,227.1l-29.9,8l8,29.9l-21.9-21.9L721.3,265l8-29.9l-29.9-8l29.9-8l-8-29.9l21.9,21.9l21.9-21.9
				l-8,29.9L786.8,227.1L786.8,227.1z"/>
		</g>
		<g>
			<path class="st1" d="M874.3,227.1l-29.9,8l8,29.9l-21.9-21.9L808.7,265l8-29.9l-29.9-8l29.9-8l-8-29.9l21.9,21.9l21.9-21.9
				l-8,29.9L874.3,227.1L874.3,227.1z"/>
		</g>
		<g>
			<path class="st1" d="M43.7,302.9l-29.9,8l8,29.9L0,318.9l-21.9,21.9l8-29.9l-29.9-8l29.9-8l-8-29.9L0,286.9L21.9,265l-8,29.9
				L43.7,302.9L43.7,302.9z"/>
		</g>
		<g>
			<path class="st1" d="M131.1,302.9l-29.9,8l8,29.9l-21.9-21.9l-21.9,21.9l8-29.9l-29.9-8l29.9-8l-8-29.9l21.9,21.9l21.9-21.9
				l-8,29.9L131.1,302.9L131.1,302.9z"/>
		</g>
		<g>
			<path class="st1" d="M218.6,302.9l-29.9,8l8,29.9l-21.9-21.9L153,340.7l8-29.9l-29.9-8l29.9-8l-8-29.9l21.9,21.9l21.9-21.9
				l-8,29.9L218.6,302.9L218.6,302.9z"/>
		</g>
		<g>
			<path class="st1" d="M306,302.9l-29.9,8l8,29.9l-21.9-21.9l-21.9,21.9l8-29.9l-29.9-8l29.9-8l-8-29.9l21.9,21.9l21.9-21.9
				l-8,29.9L306,302.9L306,302.9z"/>
		</g>
		<g>
			<path class="st1" d="M393.4,302.9l-29.9,8l8,29.9l-21.9-21.9l-21.9,21.9l8-29.9l-29.9-8l29.9-8l-8-29.9l21.9,21.9l21.9-21.9
				l-8,29.9L393.4,302.9L393.4,302.9z"/>
		</g>
		<g>
			<path class="st1" d="M480.8,302.9l-29.9,8l8,29.9l-21.9-21.9l-21.9,21.9l8-29.9l-29.9-8l29.9-8l-8-29.9l21.9,21.9L459,265
				l-8,29.9L480.8,302.9L480.8,302.9z"/>
		</g>
		<g>
			<path class="st1" d="M568.3,302.9l-29.9,8l8,29.9l-21.9-21.9l-21.9,21.9l8-29.9l-29.9-8l29.9-8l-8-29.9l21.9,21.9l21.9-21.9
				l-8,29.9L568.3,302.9L568.3,302.9z"/>
		</g>
		<g>
			<path class="st1" d="M655.7,302.9l-29.9,8l8,29.9L612,318.9l-21.9,21.9l8-29.9l-29.9-8l29.9-8l-8-29.9l21.9,21.9l21.9-21.9
				l-8,29.9L655.7,302.9L655.7,302.9z"/>
		</g>
		<g>
			<path class="st1" d="M743.1,302.9l-29.9,8l8,29.9l-21.9-21.9l-21.9,21.9l8-29.9l-29.9-8l29.9-8l-8-29.9l21.9,21.9l21.9-21.9
				l-8,29.9L743.1,302.9L743.1,302.9z"/>
		</g>
		<g>
			<path class="st1" d="M830.5,302.9l-29.9,8l8,29.9l-21.9-21.9L765,340.7l8-29.9l-29.9-8l29.9-8l-8-29.9l21.9,21.9l21.9-21.9
				l-8,29.9L830.5,302.9L830.5,302.9z"/>
		</g>
		<g>
			<path class="st1" d="M87.4,378.6l-29.9,8l8,29.9l-21.9-21.9l-21.9,21.9l8-29.9l-29.9-8l29.9-8l-8-29.9l21.9,21.9l21.9-21.9
				l-8,29.9L87.4,378.6L87.4,378.6z"/>
		</g>
		<g>
			<path class="st1" d="M174.9,378.6l-29.9,8l8,29.9l-21.9-21.9l-21.9,21.9l8-29.9l-29.9-8l29.9-8l-8-29.9l21.9,21.9l21.9-21.9
				l-8,29.9L174.9,378.6L174.9,378.6z"/>
		</g>
		<g>
			<path class="st1" d="M262.3,378.6l-29.9,8l8,29.9l-21.9-21.9l-21.9,21.9l8-29.9l-29.9-8l29.9-8l-8-29.9l21.9,21.9l21.9-21.9
				l-8,29.9L262.3,378.6L262.3,378.6z"/>
		</g>
		<g>
			<path class="st1" d="M349.7,378.6l-29.9,8l8,29.9L306,394.6l-21.9,21.9l8-29.9l-29.9-8l29.9-8l-8-29.9l21.9,21.9l21.9-21.9
				l-8,29.9L349.7,378.6L349.7,378.6z"/>
		</g>
		<g>
			<path class="st1" d="M437.1,378.6l-29.9,8l8,29.9l-21.9-21.9l-21.9,21.9l8-29.9l-29.9-8l29.9-8l-8-29.9l21.9,21.9l21.9-21.9
				l-8,29.9L437.1,378.6L437.1,378.6z"/>
		</g>
		<g>
			<path class="st1" d="M524.6,378.6l-29.9,8l8,29.9l-21.9-21.9L459,416.4l8-29.9l-29.9-8l29.9-8l-8-29.9l21.9,21.9l21.9-21.9
				l-8,29.9L524.6,378.6L524.6,378.6z"/>
		</g>
		<g>
			<path class="st1" d="M612,378.6l-29.9,8l8,29.9l-21.9-21.9l-21.9,21.9l8-29.9l-29.9-8l29.9-8l-8-29.9l21.9,21.9l21.9-21.9
				l-8,29.9L612,378.6L612,378.6z"/>
		</g>
		<g>
			<path class="st1" d="M699.4,378.6l-29.9,8l8,29.9l-21.9-21.9l-21.9,21.9l8-29.9l-29.9-8l29.9-8l-8-29.9l21.9,21.9l21.9-21.9
				l-8,29.9L699.4,378.6L699.4,378.6z"/>
		</g>
		<g>
			<path class="st1" d="M786.8,378.6l-29.9,8l8,29.9l-21.9-21.9l-21.9,21.9l8-29.9l-29.9-8l29.9-8l-8-29.9l21.9,21.9l21.9-21.9
				l-8,29.9L786.8,378.6L786.8,378.6z"/>
		</g>
		<g>
			<path class="st1" d="M874.3,378.6l-29.9,8l8,29.9l-21.9-21.9l-21.9,21.9l8-29.9l-29.9-8l29.9-8l-8-29.9l21.9,21.9l21.9-21.9
				l-8,29.9L874.3,378.6L874.3,378.6z"/>
		</g>
		<g>
			<path class="st1" d="M43.7,454.3l-29.9,8l8,29.9L0,470.3l-21.9,21.9l8-29.9l-29.9-8l29.9-8l-8-29.9L0,438.3l21.9-21.9l-8,29.9
				L43.7,454.3L43.7,454.3z"/>
		</g>
		<g>
			<path class="st1" d="M131.1,454.3l-29.9,8l8,29.9l-21.9-21.9l-21.9,21.9l8-29.9l-29.9-8l29.9-8l-8-29.9l21.9,21.9l21.9-21.9
				l-8,29.9L131.1,454.3L131.1,454.3z"/>
		</g>
		<g>
			<path class="st1" d="M218.6,454.3l-29.9,8l8,29.9l-21.9-21.9L153,492.1l8-29.9l-29.9-8l29.9-8l-8-29.9l21.9,21.9l21.9-21.9
				l-8,29.9L218.6,454.3L218.6,454.3z"/>
		</g>
		<g>
			<path class="st1" d="M306,454.3l-29.9,8l8,29.9l-21.9-21.9l-21.9,21.9l8-29.9l-29.9-8l29.9-8l-8-29.9l21.9,21.9l21.9-21.9
				l-8,29.9L306,454.3L306,454.3z"/>
		</g>
		<g>
			<path class="st1" d="M393.4,454.3l-29.9,8l8,29.9l-21.9-21.9l-21.9,21.9l8-29.9l-29.9-8l29.9-8l-8-29.9l21.9,21.9l21.9-21.9
				l-8,29.9L393.4,454.3L393.4,454.3z"/>
		</g>
		<g>
			<path class="st1" d="M480.8,454.3l-29.9,8l8,29.9l-21.9-21.9l-21.9,21.9l8-29.9l-29.9-8l29.9-8l-8-29.9l21.9,21.9l21.9-21.9
				l-8,29.9L480.8,454.3L480.8,454.3z"/>
		</g>
		<g>
			<path class="st1" d="M568.3,454.3l-29.9,8l8,29.9l-21.9-21.9l-21.9,21.9l8-29.9l-29.9-8l29.9-8l-8-29.9l21.9,21.9l21.9-21.9
				l-8,29.9L568.3,454.3L568.3,454.3z"/>
		</g>
		<g>
			<path class="st1" d="M655.7,454.3l-29.9,8l8,29.9L612,470.3l-21.9,21.9l8-29.9l-29.9-8l29.9-8l-8-29.9l21.9,21.9l21.9-21.9
				l-8,29.9L655.7,454.3L655.7,454.3z"/>
		</g>
		<g>
			<path class="st1" d="M743.1,454.3l-29.9,8l8,29.9l-21.9-21.9l-21.9,21.9l8-29.9l-29.9-8l29.9-8l-8-29.9l21.9,21.9l21.9-21.9
				l-8,29.9L743.1,454.3L743.1,454.3z"/>
		</g>
		<g>
			<path class="st1" d="M830.5,454.3l-29.9,8l8,29.9l-21.9-21.9L765,492.1l8-29.9l-29.9-8l29.9-8l-8-29.9l21.9,21.9l21.9-21.9
				l-8,29.9L830.5,454.3L830.5,454.3z"/>
		</g>
		<g>
			<path class="st1" d="M87.4,530l-29.9,8l8,29.9L43.7,546l-21.9,21.9l8-29.9L0,530l29.9-8l-8-29.9L43.7,514l21.9-21.9l-8,29.9
				L87.4,530L87.4,530z"/>
		</g>
		<g>
			<path class="st1" d="M174.9,530l-29.9,8l8,29.9L131.1,546l-21.9,21.9l8-29.9l-29.9-8l29.9-8l-8-29.9l21.9,21.9l21.9-21.9l-8,29.9
				L174.9,530L174.9,530z"/>
		</g>
		<g>
			<path class="st1" d="M262.3,530l-29.9,8l8,29.9L218.6,546l-21.9,21.9l8-29.9l-29.9-8l29.9-8l-8-29.9l21.9,21.9l21.9-21.9l-8,29.9
				L262.3,530L262.3,530z"/>
		</g>
		<g>
			<path class="st1" d="M349.7,530l-29.9,8l8,29.9L306,546l-21.9,21.9l8-29.9l-29.9-8l29.9-8l-8-29.9L306,514l21.9-21.9l-8,29.9
				L349.7,530L349.7,530z"/>
		</g>
		<g>
			<path class="st1" d="M437.1,530l-29.9,8l8,29.9L393.4,546l-21.9,21.9l8-29.9l-29.9-8l29.9-8l-8-29.9l21.9,21.9l21.9-21.9l-8,29.9
				L437.1,530L437.1,530z"/>
		</g>
		<g>
			<path class="st1" d="M524.6,530l-29.9,8l8,29.9L480.8,546L459,567.8l8-29.9l-29.9-8l29.9-8l-8-29.9l21.9,21.9l21.9-21.9l-8,29.9
				L524.6,530L524.6,530z"/>
		</g>
		<g>
			<path class="st1" d="M612,530l-29.9,8l8,29.9L568.3,546l-21.9,21.9l8-29.9l-29.9-8l29.9-8l-8-29.9l21.9,21.9l21.9-21.9l-8,29.9
				L612,530L612,530z"/>
		</g>
		<g>
			<path class="st1" d="M699.4,530l-29.9,8l8,29.9L655.7,546l-21.9,21.9l8-29.9l-29.9-8l29.9-8l-8-29.9l21.9,21.9l21.9-21.9l-8,29.9
				L699.4,530L699.4,530z"/>
		</g>
		<g>
			<path class="st1" d="M786.8,530l-29.9,8l8,29.9L743.1,546l-21.9,21.9l8-29.9l-29.9-8l29.9-8l-8-29.9l21.9,21.9l21.9-21.9l-8,29.9
				L786.8,530L786.8,530z"/>
		</g>
		<g>
			<path class="st1" d="M874.3,530l-29.9,8l8,29.9L830.5,546l-21.9,21.9l8-29.9l-29.9-8l29.9-8l-8-29.9l21.9,21.9l21.9-21.9l-8,29.9
				L874.3,530L874.3,530z"/>
		</g>
		<g>
			<path class="st1" d="M43.7,605.7l-29.9,8l8,29.9L0,621.7l-21.9,21.9l8-29.9l-29.9-8l29.9-8l-8-29.9L0,589.7l21.9-21.9l-8,29.9
				L43.7,605.7L43.7,605.7z"/>
		</g>
		<g>
			<path class="st1" d="M131.1,605.7l-29.9,8l8,29.9l-21.9-21.9l-21.9,21.9l8-29.9l-29.9-8l29.9-8l-8-29.9l21.9,21.9l21.9-21.9
				l-8,29.9L131.1,605.7L131.1,605.7z"/>
		</g>
		<g>
			<path class="st1" d="M218.6,605.7l-29.9,8l8,29.9l-21.9-21.9L153,643.6l8-29.9l-29.9-8l29.9-8l-8-29.9l21.9,21.9l21.9-21.9
				l-8,29.9L218.6,605.7L218.6,605.7z"/>
		</g>
		<g>
			<path class="st1" d="M306,605.7l-29.9,8l8,29.9l-21.9-21.9l-21.9,21.9l8-29.9l-29.9-8l29.9-8l-8-29.9l21.9,21.9l21.9-21.9
				l-8,29.9L306,605.7L306,605.7z"/>
		</g>
		<g>
			<path class="st1" d="M393.4,605.7l-29.9,8l8,29.9l-21.9-21.9l-21.9,21.9l8-29.9l-29.9-8l29.9-8l-8-29.9l21.9,21.9l21.9-21.9
				l-8,29.9L393.4,605.7L393.4,605.7z"/>
		</g>
		<g>
			<path class="st1" d="M480.8,605.7l-29.9,8l8,29.9l-21.9-21.9l-21.9,21.9l8-29.9l-29.9-8l29.9-8l-8-29.9l21.9,21.9l21.9-21.9
				l-8,29.9L480.8,605.7L480.8,605.7z"/>
		</g>
		<g>
			<path class="st1" d="M568.3,605.7l-29.9,8l8,29.9l-21.9-21.9l-21.9,21.9l8-29.9l-29.9-8l29.9-8l-8-29.9l21.9,21.9l21.9-21.9
				l-8,29.9L568.3,605.7L568.3,605.7z"/>
		</g>
		<g>
			<path class="st1" d="M655.7,605.7l-29.9,8l8,29.9L612,621.7l-21.9,21.9l8-29.9l-29.9-8l29.9-8l-8-29.9l21.9,21.9l21.9-21.9
				l-8,29.9L655.7,605.7L655.7,605.7z"/>
		</g>
		<g>
			<path class="st1" d="M743.1,605.7l-29.9,8l8,29.9l-21.9-21.9l-21.9,21.9l8-29.9l-29.9-8l29.9-8l-8-29.9l21.9,21.9l21.9-21.9
				l-8,29.9L743.1,605.7L743.1,605.7z"/>
		</g>
		<g>
			<path class="st1" d="M830.5,605.7l-29.9,8l8,29.9l-21.9-21.9L765,643.6l8-29.9l-29.9-8l29.9-8l-8-29.9l21.9,21.9l21.9-21.9
				l-8,29.9L830.5,605.7L830.5,605.7z"/>
		</g>
		<g>
			<path class="st1" d="M87.4,681.4l-29.9,8l8,29.9l-21.9-21.9l-21.9,21.9l8-29.9l-29.9-8l29.9-8l-8-29.9l21.9,21.9l21.9-21.9
				l-8,29.9L87.4,681.4L87.4,681.4z"/>
		</g>
		<g>
			<path class="st1" d="M174.9,681.4l-29.9,8l8,29.9l-21.9-21.9l-21.9,21.9l8-29.9l-29.9-8l29.9-8l-8-29.9l21.9,21.9l21.9-21.9
				l-8,29.9L174.9,681.4L174.9,681.4z"/>
		</g>
		<g>
			<path class="st1" d="M262.3,681.4l-29.9,8l8,29.9l-21.9-21.9l-21.9,21.9l8-29.9l-29.9-8l29.9-8l-8-29.9l21.9,21.9l21.9-21.9
				l-8,29.9L262.3,681.4L262.3,681.4z"/>
		</g>
		<g>
			<path class="st1" d="M349.7,681.4l-29.9,8l8,29.9L306,697.4l-21.9,21.9l8-29.9l-29.9-8l29.9-8l-8-29.9l21.9,21.9l21.9-21.9
				l-8,29.9L349.7,681.4L349.7,681.4z"/>
		</g>
		<g>
			<path class="st1" d="M437.1,681.4l-29.9,8l8,29.9l-21.9-21.9l-21.9,21.9l8-29.9l-29.9-8l29.9-8l-8-29.9l21.9,21.9l21.9-21.9
				l-8,29.9L437.1,681.4L437.1,681.4z"/>
		</g>
		<g>
			<path class="st1" d="M524.6,681.4l-29.9,8l8,29.9l-21.9-21.9L459,719.3l8-29.9l-29.9-8l29.9-8l-8-29.9l21.9,21.9l21.9-21.9
				l-8,29.9L524.6,681.4L524.6,681.4z"/>
		</g>
		<g>
			<path class="st1" d="M612,681.4l-29.9,8l8,29.9l-21.9-21.9l-21.9,21.9l8-29.9l-29.9-8l29.9-8l-8-29.9l21.9,21.9l21.9-21.9
				l-8,29.9L612,681.4L612,681.4z"/>
		</g>
		<g>
			<path class="st1" d="M699.4,681.4l-29.9,8l8,29.9l-21.9-21.9l-21.9,21.9l8-29.9l-29.9-8l29.9-8l-8-29.9l21.9,21.9l21.9-21.9
				l-8,29.9L699.4,681.4L699.4,681.4z"/>
		</g>
		<g>
			<path class="st1" d="M786.8,681.4l-29.9,8l8,29.9l-21.9-21.9l-21.9,21.9l8-29.9l-29.9-8l29.9-8l-8-29.9l21.9,21.9l21.9-21.9
				l-8,29.9L786.8,681.4L786.8,681.4z"/>
		</g>
		<g>
			<path class="st1" d="M874.3,681.4l-29.9,8l8,29.9l-21.9-21.9l-21.9,21.9l8-29.9l-29.9-8l29.9-8l-8-29.9l21.9,21.9l21.9-21.9
				l-8,29.9L874.3,681.4L874.3,681.4z"/>
		</g>
		<g>
			<path class="st1" d="M43.7,757.1l-29.9,8l8,29.9L0,773.1L-21.9,795l8-29.9l-29.9-8l29.9-8l-8-29.9L0,741.1l21.9-21.9l-8,29.9
				L43.7,757.1L43.7,757.1z"/>
		</g>
		<g>
			<path class="st1" d="M131.1,757.1l-29.9,8l8,29.9l-21.9-21.9L65.6,795l8-29.9l-29.9-8l29.9-8l-8-29.9l21.9,21.9l21.9-21.9
				l-8,29.9L131.1,757.1L131.1,757.1z"/>
		</g>
		<g>
			<path class="st1" d="M218.6,757.1l-29.9,8l8,29.9l-21.9-21.9L153,795l8-29.9l-29.9-8l29.9-8l-8-29.9l21.9,21.9l21.9-21.9l-8,29.9
				L218.6,757.1L218.6,757.1z"/>
		</g>
		<g>
			<path class="st1" d="M306,757.1l-29.9,8l8,29.9l-21.9-21.9L240.4,795l8-29.9l-29.9-8l29.9-8l-8-29.9l21.9,21.9l21.9-21.9l-8,29.9
				L306,757.1L306,757.1z"/>
		</g>
		<g>
			<path class="st1" d="M393.4,757.1l-29.9,8l8,29.9l-21.9-21.9L327.8,795l8-29.9l-29.9-8l29.9-8l-8-29.9l21.9,21.9l21.9-21.9
				l-8,29.9L393.4,757.1L393.4,757.1z"/>
		</g>
		<g>
			<path class="st1" d="M480.8,757.1l-29.9,8l8,29.9l-21.9-21.9L415.3,795l8-29.9l-29.9-8l29.9-8l-8-29.9l21.9,21.9l21.9-21.9
				l-8,29.9L480.8,757.1L480.8,757.1z"/>
		</g>
		<g>
			<path class="st1" d="M568.3,757.1l-29.9,8l8,29.9l-21.9-21.9L502.7,795l8-29.9l-29.9-8l29.9-8l-8-29.9l21.9,21.9l21.9-21.9
				l-8,29.9L568.3,757.1L568.3,757.1z"/>
		</g>
		<g>
			<path class="st1" d="M655.7,757.1l-29.9,8l8,29.9L612,773.1L590.1,795l8-29.9l-29.9-8l29.9-8l-8-29.9l21.9,21.9l21.9-21.9
				l-8,29.9L655.7,757.1L655.7,757.1z"/>
		</g>
		<g>
			<path class="st1" d="M743.1,757.1l-29.9,8l8,29.9l-21.9-21.9L677.5,795l8-29.9l-29.9-8l29.9-8l-8-29.9l21.9,21.9l21.9-21.9
				l-8,29.9L743.1,757.1L743.1,757.1z"/>
		</g>
		<g>
			<path class="st1" d="M830.5,757.1l-29.9,8l8,29.9l-21.9-21.9L765,795l8-29.9l-29.9-8l29.9-8l-8-29.9l21.9,21.9l21.9-21.9l-8,29.9
				L830.5,757.1L830.5,757.1z"/>
		</g>
	</g>
</g>
</svg>
