<svg version="1.1" xmlns="http://www.w3.org/2000/svg" xmlns:xlink="http://www.w3.org/1999/xlink" width="800" height="800" viewBox="0 0 800 800"><defs/><g><rect fill="rgb(255,255,255)" stroke="none" x="0" y="0" width="800" height="800" transform="matrix(1 0 0 1 0 0)" fill-opacity="1"/><g><path fill="none" stroke="#000000" paint-order="fill stroke markers" d=" M 43.71281292110204 0 L 13.85640646055102 7.999999999999999 L 21.856406460551025 37.85640646055102 L 9.797174393178826e-16 16 L -21.85640646055101 37.85640646055103 L -13.85640646055102 7.999999999999999 L -43.71281292110204 5.353275642555468e-15 L -13.856406460551018 -8.000000000000002 L -21.85640646055104 -37.856406460551014 L -2.9391523179536475e-15 -16 L 21.856406460551025 -37.85640646055102 L 13.856406460551014 -8.000000000000007 L 43.71281292110204 0 L 43.71281292110204 0 Z" stroke-linecap="round" stroke-miterlimit="10" stroke-dasharray=""/></g><g><path fill="none" stroke="#000000" paint-order="fill stroke markers" d=" M 131.1384387633061 0 L 101.2820323027551 7.999999999999999 L 109.28203230275511 37.85640646055102 L 87.42562584220408 16 L 65.56921938165307 37.85640646055103 L 73.56921938165307 7.999999999999999 L 43.71281292110204 5.353275642555468e-15 L 73.56921938165307 -8.000000000000002 L 65.56921938165304 -37.856406460551014 L 87.42562584220408 -16 L 109.28203230275511 -37.85640646055102 L 101.2820323027551 -8.000000000000007 L 131.1384387633061 0 L 131.1384387633061 0 Z" stroke-linecap="round" stroke-miterlimit="10" stroke-dasharray=""/></g><g><path fill="none" stroke="#000000" paint-order="fill stroke markers" d=" M 218.56406460551023 0 L 188.7076581449592 7.999999999999999 L 196.7076581449592 37.85640646055102 L 174.85125168440817 16 L 152.99484522385717 37.85640646055103 L 160.99484522385714 7.999999999999999 L 131.1384387633061 5.353275642555468e-15 L 160.99484522385714 -8.000000000000002 L 152.99484522385714 -37.856406460551014 L 174.85125168440817 -16 L 196.7076581449592 -37.85640646055102 L 188.70765814495917 -8.000000000000007 L 218.56406460551023 0 L 218.56406460551023 0 Z" stroke-linecap="round" stroke-miterlimit="10" stroke-dasharray=""/></g><g><path fill="none" stroke="#000000" paint-order="fill stroke markers" d=" M 305.9896904477143 0 L 276.1332839871632 7.999999999999999 L 284.1332839871632 37.85640646055102 L 262.2768775266122 16 L 240.42047106606122 37.85640646055103 L 248.4204710660612 7.999999999999999 L 218.56406460551017 5.353275642555468e-15 L 248.4204710660612 -8.000000000000002 L 240.4204710660612 -37.856406460551014 L 262.2768775266122 -16 L 284.1332839871632 -37.85640646055102 L 276.1332839871632 -8.000000000000007 L 305.9896904477143 0 L 305.9896904477143 0 Z" stroke-linecap="round" stroke-miterlimit="10" stroke-dasharray=""/></g><g><path fill="none" stroke="#000000" paint-order="fill stroke markers" d=" M 393.4153162899184 0 L 363.55890982936734 7.999999999999999 L 371.55890982936734 37.85640646055102 L 349.70250336881634 16 L 327.84609690826534 37.85640646055103 L 335.84609690826534 7.999999999999999 L 305.9896904477143 5.353275642555468e-15 L 335.84609690826534 -8.000000000000002 L 327.8460969082653 -37.856406460551014 L 349.70250336881634 -16 L 371.55890982936734 -37.85640646055102 L 363.55890982936734 -8.000000000000007 L 393.4153162899184 0 L 393.4153162899184 0 Z" stroke-linecap="round" stroke-miterlimit="10" stroke-dasharray=""/></g><g><path fill="none" stroke="#000000" paint-order="fill stroke markers" d=" M 480.8409421321225 0 L 450.98453567157145 7.999999999999999 L 458.98453567157145 37.85640646055102 L 437.12812921102045 16 L 415.27172275046945 37.85640646055103 L 423.27172275046945 7.999999999999999 L 393.4153162899184 5.353275642555468e-15 L 423.27172275046945 -8.000000000000002 L 415.2717227504694 -37.856406460551014 L 437.12812921102045 -16 L 458.98453567157145 -37.85640646055102 L 450.98453567157145 -8.000000000000007 L 480.8409421321225 0 L 480.8409421321225 0 Z" stroke-linecap="round" stroke-miterlimit="10" stroke-dasharray=""/></g><g><path fill="none" stroke="#000000" paint-order="fill stroke markers" d=" M 568.2665679743264 0 L 538.4101615137755 7.999999999999999 L 546.4101615137755 37.85640646055102 L 524.5537550532244 16 L 502.69734859267345 37.85640646055103 L 510.69734859267345 7.999999999999999 L 480.8409421321224 5.353275642555468e-15 L 510.69734859267345 -8.000000000000002 L 502.6973485926734 -37.856406460551014 L 524.5537550532244 -16 L 546.4101615137755 -37.85640646055102 L 538.4101615137755 -8.000000000000007 L 568.2665679743264 0 L 568.2665679743264 0 Z" stroke-linecap="round" stroke-miterlimit="10" stroke-dasharray=""/></g><g><path fill="none" stroke="#000000" paint-order="fill stroke markers" d=" M 655.6921938165306 0 L 625.8357873559796 7.999999999999999 L 633.8357873559796 37.85640646055102 L 611.9793808954286 16 L 590.1229744348775 37.85640646055103 L 598.1229744348775 7.999999999999999 L 568.2665679743266 5.353275642555468e-15 L 598.1229744348775 -8.000000000000002 L 590.1229744348775 -37.856406460551014 L 611.9793808954286 -16 L 633.8357873559796 -37.85640646055102 L 625.8357873559796 -8.000000000000007 L 655.6921938165306 0 L 655.6921938165306 0 Z" stroke-linecap="round" stroke-miterlimit="10" stroke-dasharray=""/></g><g><path fill="none" stroke="#000000" paint-order="fill stroke markers" d=" M 743.1178196587347 0 L 713.2614131981837 7.999999999999999 L 721.2614131981837 37.85640646055102 L 699.4050067376327 16 L 677.5486002770816 37.85640646055103 L 685.5486002770816 7.999999999999999 L 655.6921938165307 5.353275642555468e-15 L 685.5486002770816 -8.000000000000002 L 677.5486002770816 -37.856406460551014 L 699.4050067376327 -16 L 721.2614131981837 -37.85640646055102 L 713.2614131981837 -8.000000000000007 L 743.1178196587347 0 L 743.1178196587347 0 Z" stroke-linecap="round" stroke-miterlimit="10" stroke-dasharray=""/></g><g><path fill="none" stroke="#000000" paint-order="fill stroke markers" d=" M 830.5434455009388 0 L 800.6870390403878 7.999999999999999 L 808.6870390403878 37.85640646055102 L 786.8306325798368 16 L 764.9742261192857 37.85640646055103 L 772.9742261192857 7.999999999999999 L 743.1178196587348 5.353275642555468e-15 L 772.9742261192857 -8.000000000000002 L 764.9742261192857 -37.856406460551014 L 786.8306325798368 -16 L 808.6870390403878 -37.85640646055102 L 800.6870390403878 -8.000000000000007 L 830.5434455009388 0 L 830.5434455009388 0 Z" stroke-linecap="round" stroke-miterlimit="10" stroke-dasharray=""/></g><g><path fill="none" stroke="#000000" paint-order="fill stroke markers" d=" M 87.42562584220408 75.71281292110206 L 57.56921938165306 83.71281292110206 L 65.56921938165307 113.56921938165308 L 43.71281292110204 91.71281292110206 L 21.85640646055103 113.56921938165308 L 29.85640646055102 83.71281292110206 L 0 75.71281292110206 L 29.856406460551025 67.71281292110206 L 21.856406460551003 37.85640646055104 L 43.71281292110204 59.712812921102056 L 65.56921938165307 37.856406460551035 L 57.569219381653056 67.71281292110206 L 87.42562584220408 75.71281292110206 L 87.42562584220408 75.71281292110206 Z" stroke-linecap="round" stroke-miterlimit="10" stroke-dasharray=""/></g><g><path fill="none" stroke="#000000" paint-order="fill stroke markers" d=" M 174.85125168440817 75.71281292110206 L 144.99484522385714 83.71281292110206 L 152.99484522385714 113.56921938165308 L 131.1384387633061 91.71281292110206 L 109.2820323027551 113.56921938165308 L 117.2820323027551 83.71281292110206 L 87.42562584220407 75.71281292110206 L 117.2820323027551 67.71281292110206 L 109.28203230275507 37.85640646055104 L 131.1384387633061 59.712812921102056 L 152.99484522385714 37.856406460551035 L 144.9948452238571 67.71281292110206 L 174.85125168440817 75.71281292110206 L 174.85125168440817 75.71281292110206 Z" stroke-linecap="round" stroke-miterlimit="10" stroke-dasharray=""/></g><g><path fill="none" stroke="#000000" paint-order="fill stroke markers" d=" M 262.2768775266123 75.71281292110206 L 232.42047106606125 83.71281292110206 L 240.42047106606125 113.56921938165308 L 218.56406460551023 91.71281292110206 L 196.70765814495923 113.56921938165308 L 204.7076581449592 83.71281292110206 L 174.85125168440817 75.71281292110206 L 204.7076581449592 67.71281292110206 L 196.7076581449592 37.85640646055104 L 218.56406460551023 59.712812921102056 L 240.42047106606125 37.856406460551035 L 232.42047106606122 67.71281292110206 L 262.2768775266123 75.71281292110206 L 262.2768775266123 75.71281292110206 Z" stroke-linecap="round" stroke-miterlimit="10" stroke-dasharray=""/></g><g><path fill="none" stroke="#000000" paint-order="fill stroke markers" d=" M 349.70250336881634 75.71281292110206 L 319.8460969082653 83.71281292110206 L 327.8460969082653 113.56921938165308 L 305.9896904477143 91.71281292110206 L 284.1332839871633 113.56921938165308 L 292.1332839871633 83.71281292110206 L 262.2768775266122 75.71281292110206 L 292.1332839871633 67.71281292110206 L 284.1332839871632 37.85640646055104 L 305.9896904477143 59.712812921102056 L 327.8460969082653 37.856406460551035 L 319.8460969082653 67.71281292110206 L 349.70250336881634 75.71281292110206 L 349.70250336881634 75.71281292110206 Z" stroke-linecap="round" stroke-miterlimit="10" stroke-dasharray=""/></g><g><path fill="none" stroke="#000000" paint-order="fill stroke markers" d=" M 437.12812921102045 75.71281292110206 L 407.2717227504694 83.71281292110206 L 415.2717227504694 113.56921938165308 L 393.4153162899184 91.71281292110206 L 371.5589098293674 113.56921938165308 L 379.5589098293674 83.71281292110206 L 349.70250336881634 75.71281292110206 L 379.5589098293674 67.71281292110206 L 371.55890982936734 37.85640646055104 L 393.4153162899184 59.712812921102056 L 415.2717227504694 37.856406460551035 L 407.2717227504694 67.71281292110206 L 437.12812921102045 75.71281292110206 L 437.12812921102045 75.71281292110206 Z" stroke-linecap="round" stroke-miterlimit="10" stroke-dasharray=""/></g><g><path fill="none" stroke="#000000" paint-order="fill stroke markers" d=" M 524.5537550532246 75.71281292110206 L 494.6973485926735 83.71281292110206 L 502.6973485926735 113.56921938165308 L 480.8409421321225 91.71281292110206 L 458.9845356715715 113.56921938165308 L 466.9845356715715 83.71281292110206 L 437.12812921102045 75.71281292110206 L 466.9845356715715 67.71281292110206 L 458.98453567157145 37.85640646055104 L 480.8409421321225 59.712812921102056 L 502.6973485926735 37.856406460551035 L 494.6973485926735 67.71281292110206 L 524.5537550532246 75.71281292110206 L 524.5537550532246 75.71281292110206 Z" stroke-linecap="round" stroke-miterlimit="10" stroke-dasharray=""/></g><g><path fill="none" stroke="#000000" paint-order="fill stroke markers" d=" M 611.9793808954284 75.71281292110206 L 582.1229744348775 83.71281292110206 L 590.1229744348775 113.56921938165308 L 568.2665679743264 91.71281292110206 L 546.4101615137754 113.56921938165308 L 554.4101615137754 83.71281292110206 L 524.5537550532244 75.71281292110206 L 554.4101615137754 67.71281292110206 L 546.4101615137754 37.85640646055104 L 568.2665679743264 59.712812921102056 L 590.1229744348775 37.856406460551035 L 582.1229744348775 67.71281292110206 L 611.9793808954284 75.71281292110206 L 611.9793808954284 75.71281292110206 Z" stroke-linecap="round" stroke-miterlimit="10" stroke-dasharray=""/></g><g><path fill="none" stroke="#000000" paint-order="fill stroke markers" d=" M 699.4050067376326 75.71281292110206 L 669.5486002770816 83.71281292110206 L 677.5486002770816 113.56921938165308 L 655.6921938165306 91.71281292110206 L 633.8357873559795 113.56921938165308 L 641.8357873559795 83.71281292110206 L 611.9793808954286 75.71281292110206 L 641.8357873559795 67.71281292110206 L 633.8357873559795 37.85640646055104 L 655.6921938165306 59.712812921102056 L 677.5486002770816 37.856406460551035 L 669.5486002770816 67.71281292110206 L 699.4050067376326 75.71281292110206 L 699.4050067376326 75.71281292110206 Z" stroke-linecap="round" stroke-miterlimit="10" stroke-dasharray=""/></g><g><path fill="none" stroke="#000000" paint-order="fill stroke markers" d=" M 786.8306325798367 75.71281292110206 L 756.9742261192857 83.71281292110206 L 764.9742261192857 113.56921938165308 L 743.1178196587347 91.71281292110206 L 721.2614131981836 113.56921938165308 L 729.2614131981836 83.71281292110206 L 699.4050067376327 75.71281292110206 L 729.2614131981836 67.71281292110206 L 721.2614131981836 37.85640646055104 L 743.1178196587347 59.712812921102056 L 764.9742261192857 37.856406460551035 L 756.9742261192857 67.71281292110206 L 786.8306325798367 75.71281292110206 L 786.8306325798367 75.71281292110206 Z" stroke-linecap="round" stroke-miterlimit="10" stroke-dasharray=""/></g><g><path fill="none" stroke="#000000" paint-order="fill stroke markers" d=" M 874.2562584220408 75.71281292110206 L 844.3998519614898 83.71281292110206 L 852.3998519614898 113.56921938165308 L 830.5434455009388 91.71281292110206 L 808.6870390403877 113.56921938165308 L 816.6870390403877 83.71281292110206 L 786.8306325798368 75.71281292110206 L 816.6870390403877 67.71281292110206 L 808.6870390403877 37.85640646055104 L 830.5434455009388 59.712812921102056 L 852.3998519614898 37.856406460551035 L 844.3998519614898 67.71281292110206 L 874.2562584220408 75.71281292110206 L 874.2562584220408 75.71281292110206 Z" stroke-linecap="round" stroke-miterlimit="10" stroke-dasharray=""/></g><g><path fill="none" stroke="#000000" paint-order="fill stroke markers" d=" M 43.71281292110204 151.4256258422041 L 13.85640646055102 159.4256258422041 L 21.856406460551025 189.28203230275514 L 9.797174393178826e-16 167.4256258422041 L -21.85640646055101 189.28203230275514 L -13.85640646055102 159.4256258422041 L -43.71281292110204 151.4256258422041 L -13.856406460551018 143.4256258422041 L -21.85640646055104 113.5692193816531 L -2.9391523179536475e-15 135.4256258422041 L 21.856406460551025 113.56921938165308 L 13.856406460551014 143.4256258422041 L 43.71281292110204 151.4256258422041 L 43.71281292110204 151.4256258422041 Z" stroke-linecap="round" stroke-miterlimit="10" stroke-dasharray=""/></g><g><path fill="none" stroke="#000000" paint-order="fill stroke markers" d=" M 131.1384387633061 151.4256258422041 L 101.2820323027551 159.4256258422041 L 109.28203230275511 189.28203230275514 L 87.42562584220408 167.4256258422041 L 65.56921938165307 189.28203230275514 L 73.56921938165307 159.4256258422041 L 43.71281292110204 151.4256258422041 L 73.56921938165307 143.4256258422041 L 65.56921938165304 113.5692193816531 L 87.42562584220408 135.4256258422041 L 109.28203230275511 113.56921938165308 L 101.2820323027551 143.4256258422041 L 131.1384387633061 151.4256258422041 L 131.1384387633061 151.4256258422041 Z" stroke-linecap="round" stroke-miterlimit="10" stroke-dasharray=""/></g><g><path fill="none" stroke="#000000" paint-order="fill stroke markers" d=" M 218.56406460551023 151.4256258422041 L 188.7076581449592 159.4256258422041 L 196.7076581449592 189.28203230275514 L 174.85125168440817 167.4256258422041 L 152.99484522385717 189.28203230275514 L 160.99484522385714 159.4256258422041 L 131.1384387633061 151.4256258422041 L 160.99484522385714 143.4256258422041 L 152.99484522385714 113.5692193816531 L 174.85125168440817 135.4256258422041 L 196.7076581449592 113.56921938165308 L 188.70765814495917 143.4256258422041 L 218.56406460551023 151.4256258422041 L 218.56406460551023 151.4256258422041 Z" stroke-linecap="round" stroke-miterlimit="10" stroke-dasharray=""/></g><g><path fill="none" stroke="#000000" paint-order="fill stroke markers" d=" M 305.9896904477143 151.4256258422041 L 276.1332839871632 159.4256258422041 L 284.1332839871632 189.28203230275514 L 262.2768775266122 167.4256258422041 L 240.42047106606122 189.28203230275514 L 248.4204710660612 159.4256258422041 L 218.56406460551017 151.4256258422041 L 248.4204710660612 143.4256258422041 L 240.4204710660612 113.5692193816531 L 262.2768775266122 135.4256258422041 L 284.1332839871632 113.56921938165308 L 276.1332839871632 143.4256258422041 L 305.9896904477143 151.4256258422041 L 305.9896904477143 151.4256258422041 Z" stroke-linecap="round" stroke-miterlimit="10" stroke-dasharray=""/></g><g><path fill="none" stroke="#000000" paint-order="fill stroke markers" d=" M 393.4153162899184 151.4256258422041 L 363.55890982936734 159.4256258422041 L 371.55890982936734 189.28203230275514 L 349.70250336881634 167.4256258422041 L 327.84609690826534 189.28203230275514 L 335.84609690826534 159.4256258422041 L 305.9896904477143 151.4256258422041 L 335.84609690826534 143.4256258422041 L 327.8460969082653 113.5692193816531 L 349.70250336881634 135.4256258422041 L 371.55890982936734 113.56921938165308 L 363.55890982936734 143.4256258422041 L 393.4153162899184 151.4256258422041 L 393.4153162899184 151.4256258422041 Z" stroke-linecap="round" stroke-miterlimit="10" stroke-dasharray=""/></g><g><path fill="none" stroke="#000000" paint-order="fill stroke markers" d=" M 480.8409421321225 151.4256258422041 L 450.98453567157145 159.4256258422041 L 458.98453567157145 189.28203230275514 L 437.12812921102045 167.4256258422041 L 415.27172275046945 189.28203230275514 L 423.27172275046945 159.4256258422041 L 393.4153162899184 151.4256258422041 L 423.27172275046945 143.4256258422041 L 415.2717227504694 113.5692193816531 L 437.12812921102045 135.4256258422041 L 458.98453567157145 113.56921938165308 L 450.98453567157145 143.4256258422041 L 480.8409421321225 151.4256258422041 L 480.8409421321225 151.4256258422041 Z" stroke-linecap="round" stroke-miterlimit="10" stroke-dasharray=""/></g><g><path fill="none" stroke="#000000" paint-order="fill stroke markers" d=" M 568.2665679743264 151.4256258422041 L 538.4101615137755 159.4256258422041 L 546.4101615137755 189.28203230275514 L 524.5537550532244 167.4256258422041 L 502.69734859267345 189.28203230275514 L 510.69734859267345 159.4256258422041 L 480.8409421321224 151.4256258422041 L 510.69734859267345 143.4256258422041 L 502.6973485926734 113.5692193816531 L 524.5537550532244 135.4256258422041 L 546.4101615137755 113.56921938165308 L 538.4101615137755 143.4256258422041 L 568.2665679743264 151.4256258422041 L 568.2665679743264 151.4256258422041 Z" stroke-linecap="round" stroke-miterlimit="10" stroke-dasharray=""/></g><g><path fill="none" stroke="#000000" paint-order="fill stroke markers" d=" M 655.6921938165306 151.4256258422041 L 625.8357873559796 159.4256258422041 L 633.8357873559796 189.28203230275514 L 611.9793808954286 167.4256258422041 L 590.1229744348775 189.28203230275514 L 598.1229744348775 159.4256258422041 L 568.2665679743266 151.4256258422041 L 598.1229744348775 143.4256258422041 L 590.1229744348775 113.5692193816531 L 611.9793808954286 135.4256258422041 L 633.8357873559796 113.56921938165308 L 625.8357873559796 143.4256258422041 L 655.6921938165306 151.4256258422041 L 655.6921938165306 151.4256258422041 Z" stroke-linecap="round" stroke-miterlimit="10" stroke-dasharray=""/></g><g><path fill="none" stroke="#000000" paint-order="fill stroke markers" d=" M 743.1178196587347 151.4256258422041 L 713.2614131981837 159.4256258422041 L 721.2614131981837 189.28203230275514 L 699.4050067376327 167.4256258422041 L 677.5486002770816 189.28203230275514 L 685.5486002770816 159.4256258422041 L 655.6921938165307 151.4256258422041 L 685.5486002770816 143.4256258422041 L 677.5486002770816 113.5692193816531 L 699.4050067376327 135.4256258422041 L 721.2614131981837 113.56921938165308 L 713.2614131981837 143.4256258422041 L 743.1178196587347 151.4256258422041 L 743.1178196587347 151.4256258422041 Z" stroke-linecap="round" stroke-miterlimit="10" stroke-dasharray=""/></g><g><path fill="none" stroke="#000000" paint-order="fill stroke markers" d=" M 830.5434455009388 151.4256258422041 L 800.6870390403878 159.4256258422041 L 808.6870390403878 189.28203230275514 L 786.8306325798368 167.4256258422041 L 764.9742261192857 189.28203230275514 L 772.9742261192857 159.4256258422041 L 743.1178196587348 151.4256258422041 L 772.9742261192857 143.4256258422041 L 764.9742261192857 113.5692193816531 L 786.8306325798368 135.4256258422041 L 808.6870390403878 113.56921938165308 L 800.6870390403878 143.4256258422041 L 830.5434455009388 151.4256258422041 L 830.5434455009388 151.4256258422041 Z" stroke-linecap="round" stroke-miterlimit="10" stroke-dasharray=""/></g><g><path fill="none" stroke="#000000" paint-order="fill stroke markers" d=" M 87.42562584220408 227.13843876330617 L 57.56921938165306 235.13843876330617 L 65.56921938165307 264.99484522385717 L 43.71281292110204 243.13843876330617 L 21.85640646055103 264.99484522385717 L 29.85640646055102 235.13843876330617 L 0 227.13843876330617 L 29.856406460551025 219.13843876330617 L 21.856406460551003 189.28203230275517 L 43.71281292110204 211.13843876330617 L 65.56921938165307 189.28203230275514 L 57.569219381653056 219.13843876330617 L 87.42562584220408 227.13843876330617 L 87.42562584220408 227.13843876330617 Z" stroke-linecap="round" stroke-miterlimit="10" stroke-dasharray=""/></g><g><path fill="none" stroke="#000000" paint-order="fill stroke markers" d=" M 174.85125168440817 227.13843876330617 L 144.99484522385714 235.13843876330617 L 152.99484522385714 264.99484522385717 L 131.1384387633061 243.13843876330617 L 109.2820323027551 264.99484522385717 L 117.2820323027551 235.13843876330617 L 87.42562584220407 227.13843876330617 L 117.2820323027551 219.13843876330617 L 109.28203230275507 189.28203230275517 L 131.1384387633061 211.13843876330617 L 152.99484522385714 189.28203230275514 L 144.9948452238571 219.13843876330617 L 174.85125168440817 227.13843876330617 L 174.85125168440817 227.13843876330617 Z" stroke-linecap="round" stroke-miterlimit="10" stroke-dasharray=""/></g><g><path fill="none" stroke="#000000" paint-order="fill stroke markers" d=" M 262.2768775266123 227.13843876330617 L 232.42047106606125 235.13843876330617 L 240.42047106606125 264.99484522385717 L 218.56406460551023 243.13843876330617 L 196.70765814495923 264.99484522385717 L 204.7076581449592 235.13843876330617 L 174.85125168440817 227.13843876330617 L 204.7076581449592 219.13843876330617 L 196.7076581449592 189.28203230275517 L 218.56406460551023 211.13843876330617 L 240.42047106606125 189.28203230275514 L 232.42047106606122 219.13843876330617 L 262.2768775266123 227.13843876330617 L 262.2768775266123 227.13843876330617 Z" stroke-linecap="round" stroke-miterlimit="10" stroke-dasharray=""/></g><g><path fill="none" stroke="#000000" paint-order="fill stroke markers" d=" M 349.70250336881634 227.13843876330617 L 319.8460969082653 235.13843876330617 L 327.8460969082653 264.99484522385717 L 305.9896904477143 243.13843876330617 L 284.1332839871633 264.99484522385717 L 292.1332839871633 235.13843876330617 L 262.2768775266122 227.13843876330617 L 292.1332839871633 219.13843876330617 L 284.1332839871632 189.28203230275517 L 305.9896904477143 211.13843876330617 L 327.8460969082653 189.28203230275514 L 319.8460969082653 219.13843876330617 L 349.70250336881634 227.13843876330617 L 349.70250336881634 227.13843876330617 Z" stroke-linecap="round" stroke-miterlimit="10" stroke-dasharray=""/></g><g><path fill="none" stroke="#000000" paint-order="fill stroke markers" d=" M 437.12812921102045 227.13843876330617 L 407.2717227504694 235.13843876330617 L 415.2717227504694 264.99484522385717 L 393.4153162899184 243.13843876330617 L 371.5589098293674 264.99484522385717 L 379.5589098293674 235.13843876330617 L 349.70250336881634 227.13843876330617 L 379.5589098293674 219.13843876330617 L 371.55890982936734 189.28203230275517 L 393.4153162899184 211.13843876330617 L 415.2717227504694 189.28203230275514 L 407.2717227504694 219.13843876330617 L 437.12812921102045 227.13843876330617 L 437.12812921102045 227.13843876330617 Z" stroke-linecap="round" stroke-miterlimit="10" stroke-dasharray=""/></g><g><path fill="none" stroke="#000000" paint-order="fill stroke markers" d=" M 524.5537550532246 227.13843876330617 L 494.6973485926735 235.13843876330617 L 502.6973485926735 264.99484522385717 L 480.8409421321225 243.13843876330617 L 458.9845356715715 264.99484522385717 L 466.9845356715715 235.13843876330617 L 437.12812921102045 227.13843876330617 L 466.9845356715715 219.13843876330617 L 458.98453567157145 189.28203230275517 L 480.8409421321225 211.13843876330617 L 502.6973485926735 189.28203230275514 L 494.6973485926735 219.13843876330617 L 524.5537550532246 227.13843876330617 L 524.5537550532246 227.13843876330617 Z" stroke-linecap="round" stroke-miterlimit="10" stroke-dasharray=""/></g><g><path fill="none" stroke="#000000" paint-order="fill stroke markers" d=" M 611.9793808954284 227.13843876330617 L 582.1229744348775 235.13843876330617 L 590.1229744348775 264.99484522385717 L 568.2665679743264 243.13843876330617 L 546.4101615137754 264.99484522385717 L 554.4101615137754 235.13843876330617 L 524.5537550532244 227.13843876330617 L 554.4101615137754 219.13843876330617 L 546.4101615137754 189.28203230275517 L 568.2665679743264 211.13843876330617 L 590.1229744348775 189.28203230275514 L 582.1229744348775 219.13843876330617 L 611.9793808954284 227.13843876330617 L 611.9793808954284 227.13843876330617 Z" stroke-linecap="round" stroke-miterlimit="10" stroke-dasharray=""/></g><g><path fill="none" stroke="#000000" paint-order="fill stroke markers" d=" M 699.4050067376326 227.13843876330617 L 669.5486002770816 235.13843876330617 L 677.5486002770816 264.99484522385717 L 655.6921938165306 243.13843876330617 L 633.8357873559795 264.99484522385717 L 641.8357873559795 235.13843876330617 L 611.9793808954286 227.13843876330617 L 641.8357873559795 219.13843876330617 L 633.8357873559795 189.28203230275517 L 655.6921938165306 211.13843876330617 L 677.5486002770816 189.28203230275514 L 669.5486002770816 219.13843876330617 L 699.4050067376326 227.13843876330617 L 699.4050067376326 227.13843876330617 Z" stroke-linecap="round" stroke-miterlimit="10" stroke-dasharray=""/></g><g><path fill="none" stroke="#000000" paint-order="fill stroke markers" d=" M 786.8306325798367 227.13843876330617 L 756.9742261192857 235.13843876330617 L 764.9742261192857 264.99484522385717 L 743.1178196587347 243.13843876330617 L 721.2614131981836 264.99484522385717 L 729.2614131981836 235.13843876330617 L 699.4050067376327 227.13843876330617 L 729.2614131981836 219.13843876330617 L 721.2614131981836 189.28203230275517 L 743.1178196587347 211.13843876330617 L 764.9742261192857 189.28203230275514 L 756.9742261192857 219.13843876330617 L 786.8306325798367 227.13843876330617 L 786.8306325798367 227.13843876330617 Z" stroke-linecap="round" stroke-miterlimit="10" stroke-dasharray=""/></g><g><path fill="none" stroke="#000000" paint-order="fill stroke markers" d=" M 874.2562584220408 227.13843876330617 L 844.3998519614898 235.13843876330617 L 852.3998519614898 264.99484522385717 L 830.5434455009388 243.13843876330617 L 808.6870390403877 264.99484522385717 L 816.6870390403877 235.13843876330617 L 786.8306325798368 227.13843876330617 L 816.6870390403877 219.13843876330617 L 808.6870390403877 189.28203230275517 L 830.5434455009388 211.13843876330617 L 852.3998519614898 189.28203230275514 L 844.3998519614898 219.13843876330617 L 874.2562584220408 227.13843876330617 L 874.2562584220408 227.13843876330617 Z" stroke-linecap="round" stroke-miterlimit="10" stroke-dasharray=""/></g><g><path fill="none" stroke="#000000" paint-order="fill stroke markers" d=" M 43.71281292110204 302.8512516844082 L 13.85640646055102 310.8512516844082 L 21.856406460551025 340.7076581449592 L 9.797174393178826e-16 318.8512516844082 L -21.85640646055101 340.7076581449593 L -13.85640646055102 310.8512516844082 L -43.71281292110204 302.8512516844082 L -13.856406460551018 294.8512516844082 L -21.85640646055104 264.9948452238572 L -2.9391523179536475e-15 286.8512516844082 L 21.856406460551025 264.9948452238572 L 13.856406460551014 294.8512516844082 L 43.71281292110204 302.8512516844082 L 43.71281292110204 302.8512516844082 Z" stroke-linecap="round" stroke-miterlimit="10" stroke-dasharray=""/></g><g><path fill="none" stroke="#000000" paint-order="fill stroke markers" d=" M 131.1384387633061 302.8512516844082 L 101.2820323027551 310.8512516844082 L 109.28203230275511 340.7076581449592 L 87.42562584220408 318.8512516844082 L 65.56921938165307 340.7076581449593 L 73.56921938165307 310.8512516844082 L 43.71281292110204 302.8512516844082 L 73.56921938165307 294.8512516844082 L 65.56921938165304 264.9948452238572 L 87.42562584220408 286.8512516844082 L 109.28203230275511 264.9948452238572 L 101.2820323027551 294.8512516844082 L 131.1384387633061 302.8512516844082 L 131.1384387633061 302.8512516844082 Z" stroke-linecap="round" stroke-miterlimit="10" stroke-dasharray=""/></g><g><path fill="none" stroke="#000000" paint-order="fill stroke markers" d=" M 218.56406460551023 302.8512516844082 L 188.7076581449592 310.8512516844082 L 196.7076581449592 340.7076581449592 L 174.85125168440817 318.8512516844082 L 152.99484522385717 340.7076581449593 L 160.99484522385714 310.8512516844082 L 131.1384387633061 302.8512516844082 L 160.99484522385714 294.8512516844082 L 152.99484522385714 264.9948452238572 L 174.85125168440817 286.8512516844082 L 196.7076581449592 264.9948452238572 L 188.70765814495917 294.8512516844082 L 218.56406460551023 302.8512516844082 L 218.56406460551023 302.8512516844082 Z" stroke-linecap="round" stroke-miterlimit="10" stroke-dasharray=""/></g><g><path fill="none" stroke="#000000" paint-order="fill stroke markers" d=" M 305.9896904477143 302.8512516844082 L 276.1332839871632 310.8512516844082 L 284.1332839871632 340.7076581449592 L 262.2768775266122 318.8512516844082 L 240.42047106606122 340.7076581449593 L 248.4204710660612 310.8512516844082 L 218.56406460551017 302.8512516844082 L 248.4204710660612 294.8512516844082 L 240.4204710660612 264.9948452238572 L 262.2768775266122 286.8512516844082 L 284.1332839871632 264.9948452238572 L 276.1332839871632 294.8512516844082 L 305.9896904477143 302.8512516844082 L 305.9896904477143 302.8512516844082 Z" stroke-linecap="round" stroke-miterlimit="10" stroke-dasharray=""/></g><g><path fill="none" stroke="#000000" paint-order="fill stroke markers" d=" M 393.4153162899184 302.8512516844082 L 363.55890982936734 310.8512516844082 L 371.55890982936734 340.7076581449592 L 349.70250336881634 318.8512516844082 L 327.84609690826534 340.7076581449593 L 335.84609690826534 310.8512516844082 L 305.9896904477143 302.8512516844082 L 335.84609690826534 294.8512516844082 L 327.8460969082653 264.9948452238572 L 349.70250336881634 286.8512516844082 L 371.55890982936734 264.9948452238572 L 363.55890982936734 294.8512516844082 L 393.4153162899184 302.8512516844082 L 393.4153162899184 302.8512516844082 Z" stroke-linecap="round" stroke-miterlimit="10" stroke-dasharray=""/></g><g><path fill="none" stroke="#000000" paint-order="fill stroke markers" d=" M 480.8409421321225 302.8512516844082 L 450.98453567157145 310.8512516844082 L 458.98453567157145 340.7076581449592 L 437.12812921102045 318.8512516844082 L 415.27172275046945 340.7076581449593 L 423.27172275046945 310.8512516844082 L 393.4153162899184 302.8512516844082 L 423.27172275046945 294.8512516844082 L 415.2717227504694 264.9948452238572 L 437.12812921102045 286.8512516844082 L 458.98453567157145 264.9948452238572 L 450.98453567157145 294.8512516844082 L 480.8409421321225 302.8512516844082 L 480.8409421321225 302.8512516844082 Z" stroke-linecap="round" stroke-miterlimit="10" stroke-dasharray=""/></g><g><path fill="none" stroke="#000000" paint-order="fill stroke markers" d=" M 568.2665679743264 302.8512516844082 L 538.4101615137755 310.8512516844082 L 546.4101615137755 340.7076581449592 L 524.5537550532244 318.8512516844082 L 502.69734859267345 340.7076581449593 L 510.69734859267345 310.8512516844082 L 480.8409421321224 302.8512516844082 L 510.69734859267345 294.8512516844082 L 502.6973485926734 264.9948452238572 L 524.5537550532244 286.8512516844082 L 546.4101615137755 264.9948452238572 L 538.4101615137755 294.8512516844082 L 568.2665679743264 302.8512516844082 L 568.2665679743264 302.8512516844082 Z" stroke-linecap="round" stroke-miterlimit="10" stroke-dasharray=""/></g><g><path fill="none" stroke="#000000" paint-order="fill stroke markers" d=" M 655.6921938165306 302.8512516844082 L 625.8357873559796 310.8512516844082 L 633.8357873559796 340.7076581449592 L 611.9793808954286 318.8512516844082 L 590.1229744348775 340.7076581449593 L 598.1229744348775 310.8512516844082 L 568.2665679743266 302.8512516844082 L 598.1229744348775 294.8512516844082 L 590.1229744348775 264.9948452238572 L 611.9793808954286 286.8512516844082 L 633.8357873559796 264.9948452238572 L 625.8357873559796 294.8512516844082 L 655.6921938165306 302.8512516844082 L 655.6921938165306 302.8512516844082 Z" stroke-linecap="round" stroke-miterlimit="10" stroke-dasharray=""/></g><g><path fill="none" stroke="#000000" paint-order="fill stroke markers" d=" M 743.1178196587347 302.8512516844082 L 713.2614131981837 310.8512516844082 L 721.2614131981837 340.7076581449592 L 699.4050067376327 318.8512516844082 L 677.5486002770816 340.7076581449593 L 685.5486002770816 310.8512516844082 L 655.6921938165307 302.8512516844082 L 685.5486002770816 294.8512516844082 L 677.5486002770816 264.9948452238572 L 699.4050067376327 286.8512516844082 L 721.2614131981837 264.9948452238572 L 713.2614131981837 294.8512516844082 L 743.1178196587347 302.8512516844082 L 743.1178196587347 302.8512516844082 Z" stroke-linecap="round" stroke-miterlimit="10" stroke-dasharray=""/></g><g><path fill="none" stroke="#000000" paint-order="fill stroke markers" d=" M 830.5434455009388 302.8512516844082 L 800.6870390403878 310.8512516844082 L 808.6870390403878 340.7076581449592 L 786.8306325798368 318.8512516844082 L 764.9742261192857 340.7076581449593 L 772.9742261192857 310.8512516844082 L 743.1178196587348 302.8512516844082 L 772.9742261192857 294.8512516844082 L 764.9742261192857 264.9948452238572 L 786.8306325798368 286.8512516844082 L 808.6870390403878 264.9948452238572 L 800.6870390403878 294.8512516844082 L 830.5434455009388 302.8512516844082 L 830.5434455009388 302.8512516844082 Z" stroke-linecap="round" stroke-miterlimit="10" stroke-dasharray=""/></g><g><path fill="none" stroke="#000000" paint-order="fill stroke markers" d=" M 87.42562584220408 378.5640646055103 L 57.56921938165306 386.5640646055103 L 65.56921938165307 416.4204710660613 L 43.71281292110204 394.5640646055103 L 21.85640646055103 416.4204710660613 L 29.85640646055102 386.5640646055103 L 0 378.5640646055103 L 29.856406460551025 370.5640646055103 L 21.856406460551003 340.7076581449593 L 43.71281292110204 362.5640646055103 L 65.56921938165307 340.7076581449593 L 57.569219381653056 370.5640646055103 L 87.42562584220408 378.5640646055103 L 87.42562584220408 378.5640646055103 Z" stroke-linecap="round" stroke-miterlimit="10" stroke-dasharray=""/></g><g><path fill="none" stroke="#000000" paint-order="fill stroke markers" d=" M 174.85125168440817 378.5640646055103 L 144.99484522385714 386.5640646055103 L 152.99484522385714 416.4204710660613 L 131.1384387633061 394.5640646055103 L 109.2820323027551 416.4204710660613 L 117.2820323027551 386.5640646055103 L 87.42562584220407 378.5640646055103 L 117.2820323027551 370.5640646055103 L 109.28203230275507 340.7076581449593 L 131.1384387633061 362.5640646055103 L 152.99484522385714 340.7076581449593 L 144.9948452238571 370.5640646055103 L 174.85125168440817 378.5640646055103 L 174.85125168440817 378.5640646055103 Z" stroke-linecap="round" stroke-miterlimit="10" stroke-dasharray=""/></g><g><path fill="none" stroke="#000000" paint-order="fill stroke markers" d=" M 262.2768775266123 378.5640646055103 L 232.42047106606125 386.5640646055103 L 240.42047106606125 416.4204710660613 L 218.56406460551023 394.5640646055103 L 196.70765814495923 416.4204710660613 L 204.7076581449592 386.5640646055103 L 174.85125168440817 378.5640646055103 L 204.7076581449592 370.5640646055103 L 196.7076581449592 340.7076581449593 L 218.56406460551023 362.5640646055103 L 240.42047106606125 340.7076581449593 L 232.42047106606122 370.5640646055103 L 262.2768775266123 378.5640646055103 L 262.2768775266123 378.5640646055103 Z" stroke-linecap="round" stroke-miterlimit="10" stroke-dasharray=""/></g><g><path fill="none" stroke="#000000" paint-order="fill stroke markers" d=" M 349.70250336881634 378.5640646055103 L 319.8460969082653 386.5640646055103 L 327.8460969082653 416.4204710660613 L 305.9896904477143 394.5640646055103 L 284.1332839871633 416.4204710660613 L 292.1332839871633 386.5640646055103 L 262.2768775266122 378.5640646055103 L 292.1332839871633 370.5640646055103 L 284.1332839871632 340.7076581449593 L 305.9896904477143 362.5640646055103 L 327.8460969082653 340.7076581449593 L 319.8460969082653 370.5640646055103 L 349.70250336881634 378.5640646055103 L 349.70250336881634 378.5640646055103 Z" stroke-linecap="round" stroke-miterlimit="10" stroke-dasharray=""/></g><g><path fill="none" stroke="#000000" paint-order="fill stroke markers" d=" M 437.12812921102045 378.5640646055103 L 407.2717227504694 386.5640646055103 L 415.2717227504694 416.4204710660613 L 393.4153162899184 394.5640646055103 L 371.5589098293674 416.4204710660613 L 379.5589098293674 386.5640646055103 L 349.70250336881634 378.5640646055103 L 379.5589098293674 370.5640646055103 L 371.55890982936734 340.7076581449593 L 393.4153162899184 362.5640646055103 L 415.2717227504694 340.7076581449593 L 407.2717227504694 370.5640646055103 L 437.12812921102045 378.5640646055103 L 437.12812921102045 378.5640646055103 Z" stroke-linecap="round" stroke-miterlimit="10" stroke-dasharray=""/></g><g><path fill="none" stroke="#000000" paint-order="fill stroke markers" d=" M 524.5537550532246 378.5640646055103 L 494.6973485926735 386.5640646055103 L 502.6973485926735 416.4204710660613 L 480.8409421321225 394.5640646055103 L 458.9845356715715 416.4204710660613 L 466.9845356715715 386.5640646055103 L 437.12812921102045 378.5640646055103 L 466.9845356715715 370.5640646055103 L 458.98453567157145 340.7076581449593 L 480.8409421321225 362.5640646055103 L 502.6973485926735 340.7076581449593 L 494.6973485926735 370.5640646055103 L 524.5537550532246 378.5640646055103 L 524.5537550532246 378.5640646055103 Z" stroke-linecap="round" stroke-miterlimit="10" stroke-dasharray=""/></g><g><path fill="none" stroke="#000000" paint-order="fill stroke markers" d=" M 611.9793808954284 378.5640646055103 L 582.1229744348775 386.5640646055103 L 590.1229744348775 416.4204710660613 L 568.2665679743264 394.5640646055103 L 546.4101615137754 416.4204710660613 L 554.4101615137754 386.5640646055103 L 524.5537550532244 378.5640646055103 L 554.4101615137754 370.5640646055103 L 546.4101615137754 340.7076581449593 L 568.2665679743264 362.5640646055103 L 590.1229744348775 340.7076581449593 L 582.1229744348775 370.5640646055103 L 611.9793808954284 378.5640646055103 L 611.9793808954284 378.5640646055103 Z" stroke-linecap="round" stroke-miterlimit="10" stroke-dasharray=""/></g><g><path fill="none" stroke="#000000" paint-order="fill stroke markers" d=" M 699.4050067376326 378.5640646055103 L 669.5486002770816 386.5640646055103 L 677.5486002770816 416.4204710660613 L 655.6921938165306 394.5640646055103 L 633.8357873559795 416.4204710660613 L 641.8357873559795 386.5640646055103 L 611.9793808954286 378.5640646055103 L 641.8357873559795 370.5640646055103 L 633.8357873559795 340.7076581449593 L 655.6921938165306 362.5640646055103 L 677.5486002770816 340.7076581449593 L 669.5486002770816 370.5640646055103 L 699.4050067376326 378.5640646055103 L 699.4050067376326 378.5640646055103 Z" stroke-linecap="round" stroke-miterlimit="10" stroke-dasharray=""/></g><g><path fill="none" stroke="#000000" paint-order="fill stroke markers" d=" M 786.8306325798367 378.5640646055103 L 756.9742261192857 386.5640646055103 L 764.9742261192857 416.4204710660613 L 743.1178196587347 394.5640646055103 L 721.2614131981836 416.4204710660613 L 729.2614131981836 386.5640646055103 L 699.4050067376327 378.5640646055103 L 729.2614131981836 370.5640646055103 L 721.2614131981836 340.7076581449593 L 743.1178196587347 362.5640646055103 L 764.9742261192857 340.7076581449593 L 756.9742261192857 370.5640646055103 L 786.8306325798367 378.5640646055103 L 786.8306325798367 378.5640646055103 Z" stroke-linecap="round" stroke-miterlimit="10" stroke-dasharray=""/></g><g><path fill="none" stroke="#000000" paint-order="fill stroke markers" d=" M 874.2562584220408 378.5640646055103 L 844.3998519614898 386.5640646055103 L 852.3998519614898 416.4204710660613 L 830.5434455009388 394.5640646055103 L 808.6870390403877 416.4204710660613 L 816.6870390403877 386.5640646055103 L 786.8306325798368 378.5640646055103 L 816.6870390403877 370.5640646055103 L 808.6870390403877 340.7076581449593 L 830.5434455009388 362.5640646055103 L 852.3998519614898 340.7076581449593 L 844.3998519614898 370.5640646055103 L 874.2562584220408 378.5640646055103 L 874.2562584220408 378.5640646055103 Z" stroke-linecap="round" stroke-miterlimit="10" stroke-dasharray=""/></g><g><path fill="none" stroke="#000000" paint-order="fill stroke markers" d=" M 43.71281292110204 454.27687752661234 L 13.85640646055102 462.27687752661234 L 21.856406460551025 492.13328398716334 L 9.797174393178826e-16 470.27687752661234 L -21.85640646055101 492.1332839871634 L -13.85640646055102 462.27687752661234 L -43.71281292110204 454.27687752661234 L -13.856406460551018 446.27687752661234 L -21.85640646055104 416.42047106606134 L -2.9391523179536475e-15 438.27687752661234 L 21.856406460551025 416.42047106606134 L 13.856406460551014 446.27687752661234 L 43.71281292110204 454.27687752661234 L 43.71281292110204 454.27687752661234 Z" stroke-linecap="round" stroke-miterlimit="10" stroke-dasharray=""/></g><g><path fill="none" stroke="#000000" paint-order="fill stroke markers" d=" M 131.1384387633061 454.27687752661234 L 101.2820323027551 462.27687752661234 L 109.28203230275511 492.13328398716334 L 87.42562584220408 470.27687752661234 L 65.56921938165307 492.1332839871634 L 73.56921938165307 462.27687752661234 L 43.71281292110204 454.27687752661234 L 73.56921938165307 446.27687752661234 L 65.56921938165304 416.42047106606134 L 87.42562584220408 438.27687752661234 L 109.28203230275511 416.42047106606134 L 101.2820323027551 446.27687752661234 L 131.1384387633061 454.27687752661234 L 131.1384387633061 454.27687752661234 Z" stroke-linecap="round" stroke-miterlimit="10" stroke-dasharray=""/></g><g><path fill="none" stroke="#000000" paint-order="fill stroke markers" d=" M 218.56406460551023 454.27687752661234 L 188.7076581449592 462.27687752661234 L 196.7076581449592 492.13328398716334 L 174.85125168440817 470.27687752661234 L 152.99484522385717 492.1332839871634 L 160.99484522385714 462.27687752661234 L 131.1384387633061 454.27687752661234 L 160.99484522385714 446.27687752661234 L 152.99484522385714 416.42047106606134 L 174.85125168440817 438.27687752661234 L 196.7076581449592 416.42047106606134 L 188.70765814495917 446.27687752661234 L 218.56406460551023 454.27687752661234 L 218.56406460551023 454.27687752661234 Z" stroke-linecap="round" stroke-miterlimit="10" stroke-dasharray=""/></g><g><path fill="none" stroke="#000000" paint-order="fill stroke markers" d=" M 305.9896904477143 454.27687752661234 L 276.1332839871632 462.27687752661234 L 284.1332839871632 492.13328398716334 L 262.2768775266122 470.27687752661234 L 240.42047106606122 492.1332839871634 L 248.4204710660612 462.27687752661234 L 218.56406460551017 454.27687752661234 L 248.4204710660612 446.27687752661234 L 240.4204710660612 416.42047106606134 L 262.2768775266122 438.27687752661234 L 284.1332839871632 416.42047106606134 L 276.1332839871632 446.27687752661234 L 305.9896904477143 454.27687752661234 L 305.9896904477143 454.27687752661234 Z" stroke-linecap="round" stroke-miterlimit="10" stroke-dasharray=""/></g><g><path fill="none" stroke="#000000" paint-order="fill stroke markers" d=" M 393.4153162899184 454.27687752661234 L 363.55890982936734 462.27687752661234 L 371.55890982936734 492.13328398716334 L 349.70250336881634 470.27687752661234 L 327.84609690826534 492.1332839871634 L 335.84609690826534 462.27687752661234 L 305.9896904477143 454.27687752661234 L 335.84609690826534 446.27687752661234 L 327.8460969082653 416.42047106606134 L 349.70250336881634 438.27687752661234 L 371.55890982936734 416.42047106606134 L 363.55890982936734 446.27687752661234 L 393.4153162899184 454.27687752661234 L 393.4153162899184 454.27687752661234 Z" stroke-linecap="round" stroke-miterlimit="10" stroke-dasharray=""/></g><g><path fill="none" stroke="#000000" paint-order="fill stroke markers" d=" M 480.8409421321225 454.27687752661234 L 450.98453567157145 462.27687752661234 L 458.98453567157145 492.13328398716334 L 437.12812921102045 470.27687752661234 L 415.27172275046945 492.1332839871634 L 423.27172275046945 462.27687752661234 L 393.4153162899184 454.27687752661234 L 423.27172275046945 446.27687752661234 L 415.2717227504694 416.42047106606134 L 437.12812921102045 438.27687752661234 L 458.98453567157145 416.42047106606134 L 450.98453567157145 446.27687752661234 L 480.8409421321225 454.27687752661234 L 480.8409421321225 454.27687752661234 Z" stroke-linecap="round" stroke-miterlimit="10" stroke-dasharray=""/></g><g><path fill="none" stroke="#000000" paint-order="fill stroke markers" d=" M 568.2665679743264 454.27687752661234 L 538.4101615137755 462.27687752661234 L 546.4101615137755 492.13328398716334 L 524.5537550532244 470.27687752661234 L 502.69734859267345 492.1332839871634 L 510.69734859267345 462.27687752661234 L 480.8409421321224 454.27687752661234 L 510.69734859267345 446.27687752661234 L 502.6973485926734 416.42047106606134 L 524.5537550532244 438.27687752661234 L 546.4101615137755 416.42047106606134 L 538.4101615137755 446.27687752661234 L 568.2665679743264 454.27687752661234 L 568.2665679743264 454.27687752661234 Z" stroke-linecap="round" stroke-miterlimit="10" stroke-dasharray=""/></g><g><path fill="none" stroke="#000000" paint-order="fill stroke markers" d=" M 655.6921938165306 454.27687752661234 L 625.8357873559796 462.27687752661234 L 633.8357873559796 492.13328398716334 L 611.9793808954286 470.27687752661234 L 590.1229744348775 492.1332839871634 L 598.1229744348775 462.27687752661234 L 568.2665679743266 454.27687752661234 L 598.1229744348775 446.27687752661234 L 590.1229744348775 416.42047106606134 L 611.9793808954286 438.27687752661234 L 633.8357873559796 416.42047106606134 L 625.8357873559796 446.27687752661234 L 655.6921938165306 454.27687752661234 L 655.6921938165306 454.27687752661234 Z" stroke-linecap="round" stroke-miterlimit="10" stroke-dasharray=""/></g><g><path fill="none" stroke="#000000" paint-order="fill stroke markers" d=" M 743.1178196587347 454.27687752661234 L 713.2614131981837 462.27687752661234 L 721.2614131981837 492.13328398716334 L 699.4050067376327 470.27687752661234 L 677.5486002770816 492.1332839871634 L 685.5486002770816 462.27687752661234 L 655.6921938165307 454.27687752661234 L 685.5486002770816 446.27687752661234 L 677.5486002770816 416.42047106606134 L 699.4050067376327 438.27687752661234 L 721.2614131981837 416.42047106606134 L 713.2614131981837 446.27687752661234 L 743.1178196587347 454.27687752661234 L 743.1178196587347 454.27687752661234 Z" stroke-linecap="round" stroke-miterlimit="10" stroke-dasharray=""/></g><g><path fill="none" stroke="#000000" paint-order="fill stroke markers" d=" M 830.5434455009388 454.27687752661234 L 800.6870390403878 462.27687752661234 L 808.6870390403878 492.13328398716334 L 786.8306325798368 470.27687752661234 L 764.9742261192857 492.1332839871634 L 772.9742261192857 462.27687752661234 L 743.1178196587348 454.27687752661234 L 772.9742261192857 446.27687752661234 L 764.9742261192857 416.42047106606134 L 786.8306325798368 438.27687752661234 L 808.6870390403878 416.42047106606134 L 800.6870390403878 446.27687752661234 L 830.5434455009388 454.27687752661234 L 830.5434455009388 454.27687752661234 Z" stroke-linecap="round" stroke-miterlimit="10" stroke-dasharray=""/></g><g><path fill="none" stroke="#000000" paint-order="fill stroke markers" d=" M 87.42562584220408 529.9896904477143 L 57.56921938165306 537.9896904477143 L 65.56921938165307 567.8460969082654 L 43.71281292110204 545.9896904477143 L 21.85640646055103 567.8460969082654 L 29.85640646055102 537.9896904477143 L 0 529.9896904477143 L 29.856406460551025 521.9896904477143 L 21.856406460551003 492.13328398716334 L 43.71281292110204 513.9896904477143 L 65.56921938165307 492.13328398716334 L 57.569219381653056 521.9896904477143 L 87.42562584220408 529.9896904477143 L 87.42562584220408 529.9896904477143 Z" stroke-linecap="round" stroke-miterlimit="10" stroke-dasharray=""/></g><g><path fill="none" stroke="#000000" paint-order="fill stroke markers" d=" M 174.85125168440817 529.9896904477143 L 144.99484522385714 537.9896904477143 L 152.99484522385714 567.8460969082654 L 131.1384387633061 545.9896904477143 L 109.2820323027551 567.8460969082654 L 117.2820323027551 537.9896904477143 L 87.42562584220407 529.9896904477143 L 117.2820323027551 521.9896904477143 L 109.28203230275507 492.13328398716334 L 131.1384387633061 513.9896904477143 L 152.99484522385714 492.13328398716334 L 144.9948452238571 521.9896904477143 L 174.85125168440817 529.9896904477143 L 174.85125168440817 529.9896904477143 Z" stroke-linecap="round" stroke-miterlimit="10" stroke-dasharray=""/></g><g><path fill="none" stroke="#000000" paint-order="fill stroke markers" d=" M 262.2768775266123 529.9896904477143 L 232.42047106606125 537.9896904477143 L 240.42047106606125 567.8460969082654 L 218.56406460551023 545.9896904477143 L 196.70765814495923 567.8460969082654 L 204.7076581449592 537.9896904477143 L 174.85125168440817 529.9896904477143 L 204.7076581449592 521.9896904477143 L 196.7076581449592 492.13328398716334 L 218.56406460551023 513.9896904477143 L 240.42047106606125 492.13328398716334 L 232.42047106606122 521.9896904477143 L 262.2768775266123 529.9896904477143 L 262.2768775266123 529.9896904477143 Z" stroke-linecap="round" stroke-miterlimit="10" stroke-dasharray=""/></g><g><path fill="none" stroke="#000000" paint-order="fill stroke markers" d=" M 349.70250336881634 529.9896904477143 L 319.8460969082653 537.9896904477143 L 327.8460969082653 567.8460969082654 L 305.9896904477143 545.9896904477143 L 284.1332839871633 567.8460969082654 L 292.1332839871633 537.9896904477143 L 262.2768775266122 529.9896904477143 L 292.1332839871633 521.9896904477143 L 284.1332839871632 492.13328398716334 L 305.9896904477143 513.9896904477143 L 327.8460969082653 492.13328398716334 L 319.8460969082653 521.9896904477143 L 349.70250336881634 529.9896904477143 L 349.70250336881634 529.9896904477143 Z" stroke-linecap="round" stroke-miterlimit="10" stroke-dasharray=""/></g><g><path fill="none" stroke="#000000" paint-order="fill stroke markers" d=" M 437.12812921102045 529.9896904477143 L 407.2717227504694 537.9896904477143 L 415.2717227504694 567.8460969082654 L 393.4153162899184 545.9896904477143 L 371.5589098293674 567.8460969082654 L 379.5589098293674 537.9896904477143 L 349.70250336881634 529.9896904477143 L 379.5589098293674 521.9896904477143 L 371.55890982936734 492.13328398716334 L 393.4153162899184 513.9896904477143 L 415.2717227504694 492.13328398716334 L 407.2717227504694 521.9896904477143 L 437.12812921102045 529.9896904477143 L 437.12812921102045 529.9896904477143 Z" stroke-linecap="round" stroke-miterlimit="10" stroke-dasharray=""/></g><g><path fill="none" stroke="#000000" paint-order="fill stroke markers" d=" M 524.5537550532246 529.9896904477143 L 494.6973485926735 537.9896904477143 L 502.6973485926735 567.8460969082654 L 480.8409421321225 545.9896904477143 L 458.9845356715715 567.8460969082654 L 466.9845356715715 537.9896904477143 L 437.12812921102045 529.9896904477143 L 466.9845356715715 521.9896904477143 L 458.98453567157145 492.13328398716334 L 480.8409421321225 513.9896904477143 L 502.6973485926735 492.13328398716334 L 494.6973485926735 521.9896904477143 L 524.5537550532246 529.9896904477143 L 524.5537550532246 529.9896904477143 Z" stroke-linecap="round" stroke-miterlimit="10" stroke-dasharray=""/></g><g><path fill="none" stroke="#000000" paint-order="fill stroke markers" d=" M 611.9793808954284 529.9896904477143 L 582.1229744348775 537.9896904477143 L 590.1229744348775 567.8460969082654 L 568.2665679743264 545.9896904477143 L 546.4101615137754 567.8460969082654 L 554.4101615137754 537.9896904477143 L 524.5537550532244 529.9896904477143 L 554.4101615137754 521.9896904477143 L 546.4101615137754 492.13328398716334 L 568.2665679743264 513.9896904477143 L 590.1229744348775 492.13328398716334 L 582.1229744348775 521.9896904477143 L 611.9793808954284 529.9896904477143 L 611.9793808954284 529.9896904477143 Z" stroke-linecap="round" stroke-miterlimit="10" stroke-dasharray=""/></g><g><path fill="none" stroke="#000000" paint-order="fill stroke markers" d=" M 699.4050067376326 529.9896904477143 L 669.5486002770816 537.9896904477143 L 677.5486002770816 567.8460969082654 L 655.6921938165306 545.9896904477143 L 633.8357873559795 567.8460969082654 L 641.8357873559795 537.9896904477143 L 611.9793808954286 529.9896904477143 L 641.8357873559795 521.9896904477143 L 633.8357873559795 492.13328398716334 L 655.6921938165306 513.9896904477143 L 677.5486002770816 492.13328398716334 L 669.5486002770816 521.9896904477143 L 699.4050067376326 529.9896904477143 L 699.4050067376326 529.9896904477143 Z" stroke-linecap="round" stroke-miterlimit="10" stroke-dasharray=""/></g><g><path fill="none" stroke="#000000" paint-order="fill stroke markers" d=" M 786.8306325798367 529.9896904477143 L 756.9742261192857 537.9896904477143 L 764.9742261192857 567.8460969082654 L 743.1178196587347 545.9896904477143 L 721.2614131981836 567.8460969082654 L 729.2614131981836 537.9896904477143 L 699.4050067376327 529.9896904477143 L 729.2614131981836 521.9896904477143 L 721.2614131981836 492.13328398716334 L 743.1178196587347 513.9896904477143 L 764.9742261192857 492.13328398716334 L 756.9742261192857 521.9896904477143 L 786.8306325798367 529.9896904477143 L 786.8306325798367 529.9896904477143 Z" stroke-linecap="round" stroke-miterlimit="10" stroke-dasharray=""/></g><g><path fill="none" stroke="#000000" paint-order="fill stroke markers" d=" M 874.2562584220408 529.9896904477143 L 844.3998519614898 537.9896904477143 L 852.3998519614898 567.8460969082654 L 830.5434455009388 545.9896904477143 L 808.6870390403877 567.8460969082654 L 816.6870390403877 537.9896904477143 L 786.8306325798368 529.9896904477143 L 816.6870390403877 521.9896904477143 L 808.6870390403877 492.13328398716334 L 830.5434455009388 513.9896904477143 L 852.3998519614898 492.13328398716334 L 844.3998519614898 521.9896904477143 L 874.2562584220408 529.9896904477143 L 874.2562584220408 529.9896904477143 Z" stroke-linecap="round" stroke-miterlimit="10" stroke-dasharray=""/></g><g><path fill="none" stroke="#000000" paint-order="fill stroke markers" d=" M 43.71281292110204 605.7025033688165 L 13.85640646055102 613.7025033688165 L 21.856406460551025 643.5589098293675 L 9.797174393178826e-16 621.7025033688165 L -21.85640646055101 643.5589098293675 L -13.85640646055102 613.7025033688165 L -43.71281292110204 605.7025033688165 L -13.856406460551018 597.7025033688165 L -21.85640646055104 567.8460969082654 L -2.9391523179536475e-15 589.7025033688165 L 21.856406460551025 567.8460969082654 L 13.856406460551014 597.7025033688165 L 43.71281292110204 605.7025033688165 L 43.71281292110204 605.7025033688165 Z" stroke-linecap="round" stroke-miterlimit="10" stroke-dasharray=""/></g><g><path fill="none" stroke="#000000" paint-order="fill stroke markers" d=" M 131.1384387633061 605.7025033688165 L 101.2820323027551 613.7025033688165 L 109.28203230275511 643.5589098293675 L 87.42562584220408 621.7025033688165 L 65.56921938165307 643.5589098293675 L 73.56921938165307 613.7025033688165 L 43.71281292110204 605.7025033688165 L 73.56921938165307 597.7025033688165 L 65.56921938165304 567.8460969082654 L 87.42562584220408 589.7025033688165 L 109.28203230275511 567.8460969082654 L 101.2820323027551 597.7025033688165 L 131.1384387633061 605.7025033688165 L 131.1384387633061 605.7025033688165 Z" stroke-linecap="round" stroke-miterlimit="10" stroke-dasharray=""/></g><g><path fill="none" stroke="#000000" paint-order="fill stroke markers" d=" M 218.56406460551023 605.7025033688165 L 188.7076581449592 613.7025033688165 L 196.7076581449592 643.5589098293675 L 174.85125168440817 621.7025033688165 L 152.99484522385717 643.5589098293675 L 160.99484522385714 613.7025033688165 L 131.1384387633061 605.7025033688165 L 160.99484522385714 597.7025033688165 L 152.99484522385714 567.8460969082654 L 174.85125168440817 589.7025033688165 L 196.7076581449592 567.8460969082654 L 188.70765814495917 597.7025033688165 L 218.56406460551023 605.7025033688165 L 218.56406460551023 605.7025033688165 Z" stroke-linecap="round" stroke-miterlimit="10" stroke-dasharray=""/></g><g><path fill="none" stroke="#000000" paint-order="fill stroke markers" d=" M 305.9896904477143 605.7025033688165 L 276.1332839871632 613.7025033688165 L 284.1332839871632 643.5589098293675 L 262.2768775266122 621.7025033688165 L 240.42047106606122 643.5589098293675 L 248.4204710660612 613.7025033688165 L 218.56406460551017 605.7025033688165 L 248.4204710660612 597.7025033688165 L 240.4204710660612 567.8460969082654 L 262.2768775266122 589.7025033688165 L 284.1332839871632 567.8460969082654 L 276.1332839871632 597.7025033688165 L 305.9896904477143 605.7025033688165 L 305.9896904477143 605.7025033688165 Z" stroke-linecap="round" stroke-miterlimit="10" stroke-dasharray=""/></g><g><path fill="none" stroke="#000000" paint-order="fill stroke markers" d=" M 393.4153162899184 605.7025033688165 L 363.55890982936734 613.7025033688165 L 371.55890982936734 643.5589098293675 L 349.70250336881634 621.7025033688165 L 327.84609690826534 643.5589098293675 L 335.84609690826534 613.7025033688165 L 305.9896904477143 605.7025033688165 L 335.84609690826534 597.7025033688165 L 327.8460969082653 567.8460969082654 L 349.70250336881634 589.7025033688165 L 371.55890982936734 567.8460969082654 L 363.55890982936734 597.7025033688165 L 393.4153162899184 605.7025033688165 L 393.4153162899184 605.7025033688165 Z" stroke-linecap="round" stroke-miterlimit="10" stroke-dasharray=""/></g><g><path fill="none" stroke="#000000" paint-order="fill stroke markers" d=" M 480.8409421321225 605.7025033688165 L 450.98453567157145 613.7025033688165 L 458.98453567157145 643.5589098293675 L 437.12812921102045 621.7025033688165 L 415.27172275046945 643.5589098293675 L 423.27172275046945 613.7025033688165 L 393.4153162899184 605.7025033688165 L 423.27172275046945 597.7025033688165 L 415.2717227504694 567.8460969082654 L 437.12812921102045 589.7025033688165 L 458.98453567157145 567.8460969082654 L 450.98453567157145 597.7025033688165 L 480.8409421321225 605.7025033688165 L 480.8409421321225 605.7025033688165 Z" stroke-linecap="round" stroke-miterlimit="10" stroke-dasharray=""/></g><g><path fill="none" stroke="#000000" paint-order="fill stroke markers" d=" M 568.2665679743264 605.7025033688165 L 538.4101615137755 613.7025033688165 L 546.4101615137755 643.5589098293675 L 524.5537550532244 621.7025033688165 L 502.69734859267345 643.5589098293675 L 510.69734859267345 613.7025033688165 L 480.8409421321224 605.7025033688165 L 510.69734859267345 597.7025033688165 L 502.6973485926734 567.8460969082654 L 524.5537550532244 589.7025033688165 L 546.4101615137755 567.8460969082654 L 538.4101615137755 597.7025033688165 L 568.2665679743264 605.7025033688165 L 568.2665679743264 605.7025033688165 Z" stroke-linecap="round" stroke-miterlimit="10" stroke-dasharray=""/></g><g><path fill="none" stroke="#000000" paint-order="fill stroke markers" d=" M 655.6921938165306 605.7025033688165 L 625.8357873559796 613.7025033688165 L 633.8357873559796 643.5589098293675 L 611.9793808954286 621.7025033688165 L 590.1229744348775 643.5589098293675 L 598.1229744348775 613.7025033688165 L 568.2665679743266 605.7025033688165 L 598.1229744348775 597.7025033688165 L 590.1229744348775 567.8460969082654 L 611.9793808954286 589.7025033688165 L 633.8357873559796 567.8460969082654 L 625.8357873559796 597.7025033688165 L 655.6921938165306 605.7025033688165 L 655.6921938165306 605.7025033688165 Z" stroke-linecap="round" stroke-miterlimit="10" stroke-dasharray=""/></g><g><path fill="none" stroke="#000000" paint-order="fill stroke markers" d=" M 743.1178196587347 605.7025033688165 L 713.2614131981837 613.7025033688165 L 721.2614131981837 643.5589098293675 L 699.4050067376327 621.7025033688165 L 677.5486002770816 643.5589098293675 L 685.5486002770816 613.7025033688165 L 655.6921938165307 605.7025033688165 L 685.5486002770816 597.7025033688165 L 677.5486002770816 567.8460969082654 L 699.4050067376327 589.7025033688165 L 721.2614131981837 567.8460969082654 L 713.2614131981837 597.7025033688165 L 743.1178196587347 605.7025033688165 L 743.1178196587347 605.7025033688165 Z" stroke-linecap="round" stroke-miterlimit="10" stroke-dasharray=""/></g><g><path fill="none" stroke="#000000" paint-order="fill stroke markers" d=" M 830.5434455009388 605.7025033688165 L 800.6870390403878 613.7025033688165 L 808.6870390403878 643.5589098293675 L 786.8306325798368 621.7025033688165 L 764.9742261192857 643.5589098293675 L 772.9742261192857 613.7025033688165 L 743.1178196587348 605.7025033688165 L 772.9742261192857 597.7025033688165 L 764.9742261192857 567.8460969082654 L 786.8306325798368 589.7025033688165 L 808.6870390403878 567.8460969082654 L 800.6870390403878 597.7025033688165 L 830.5434455009388 605.7025033688165 L 830.5434455009388 605.7025033688165 Z" stroke-linecap="round" stroke-miterlimit="10" stroke-dasharray=""/></g><g><path fill="none" stroke="#000000" paint-order="fill stroke markers" d=" M 87.42562584220408 681.4153162899186 L 57.56921938165306 689.4153162899186 L 65.56921938165307 719.2717227504696 L 43.71281292110204 697.4153162899186 L 21.85640646055103 719.2717227504696 L 29.85640646055102 689.4153162899186 L 0 681.4153162899186 L 29.856406460551025 673.4153162899186 L 21.856406460551003 643.5589098293675 L 43.71281292110204 665.4153162899186 L 65.56921938165307 643.5589098293675 L 57.569219381653056 673.4153162899186 L 87.42562584220408 681.4153162899186 L 87.42562584220408 681.4153162899186 Z" stroke-linecap="round" stroke-miterlimit="10" stroke-dasharray=""/></g><g><path fill="none" stroke="#000000" paint-order="fill stroke markers" d=" M 174.85125168440817 681.4153162899186 L 144.99484522385714 689.4153162899186 L 152.99484522385714 719.2717227504696 L 131.1384387633061 697.4153162899186 L 109.2820323027551 719.2717227504696 L 117.2820323027551 689.4153162899186 L 87.42562584220407 681.4153162899186 L 117.2820323027551 673.4153162899186 L 109.28203230275507 643.5589098293675 L 131.1384387633061 665.4153162899186 L 152.99484522385714 643.5589098293675 L 144.9948452238571 673.4153162899186 L 174.85125168440817 681.4153162899186 L 174.85125168440817 681.4153162899186 Z" stroke-linecap="round" stroke-miterlimit="10" stroke-dasharray=""/></g><g><path fill="none" stroke="#000000" paint-order="fill stroke markers" d=" M 262.2768775266123 681.4153162899186 L 232.42047106606125 689.4153162899186 L 240.42047106606125 719.2717227504696 L 218.56406460551023 697.4153162899186 L 196.70765814495923 719.2717227504696 L 204.7076581449592 689.4153162899186 L 174.85125168440817 681.4153162899186 L 204.7076581449592 673.4153162899186 L 196.7076581449592 643.5589098293675 L 218.56406460551023 665.4153162899186 L 240.42047106606125 643.5589098293675 L 232.42047106606122 673.4153162899186 L 262.2768775266123 681.4153162899186 L 262.2768775266123 681.4153162899186 Z" stroke-linecap="round" stroke-miterlimit="10" stroke-dasharray=""/></g><g><path fill="none" stroke="#000000" paint-order="fill stroke markers" d=" M 349.70250336881634 681.4153162899186 L 319.8460969082653 689.4153162899186 L 327.8460969082653 719.2717227504696 L 305.9896904477143 697.4153162899186 L 284.1332839871633 719.2717227504696 L 292.1332839871633 689.4153162899186 L 262.2768775266122 681.4153162899186 L 292.1332839871633 673.4153162899186 L 284.1332839871632 643.5589098293675 L 305.9896904477143 665.4153162899186 L 327.8460969082653 643.5589098293675 L 319.8460969082653 673.4153162899186 L 349.70250336881634 681.4153162899186 L 349.70250336881634 681.4153162899186 Z" stroke-linecap="round" stroke-miterlimit="10" stroke-dasharray=""/></g><g><path fill="none" stroke="#000000" paint-order="fill stroke markers" d=" M 437.12812921102045 681.4153162899186 L 407.2717227504694 689.4153162899186 L 415.2717227504694 719.2717227504696 L 393.4153162899184 697.4153162899186 L 371.5589098293674 719.2717227504696 L 379.5589098293674 689.4153162899186 L 349.70250336881634 681.4153162899186 L 379.5589098293674 673.4153162899186 L 371.55890982936734 643.5589098293675 L 393.4153162899184 665.4153162899186 L 415.2717227504694 643.5589098293675 L 407.2717227504694 673.4153162899186 L 437.12812921102045 681.4153162899186 L 437.12812921102045 681.4153162899186 Z" stroke-linecap="round" stroke-miterlimit="10" stroke-dasharray=""/></g><g><path fill="none" stroke="#000000" paint-order="fill stroke markers" d=" M 524.5537550532246 681.4153162899186 L 494.6973485926735 689.4153162899186 L 502.6973485926735 719.2717227504696 L 480.8409421321225 697.4153162899186 L 458.9845356715715 719.2717227504696 L 466.9845356715715 689.4153162899186 L 437.12812921102045 681.4153162899186 L 466.9845356715715 673.4153162899186 L 458.98453567157145 643.5589098293675 L 480.8409421321225 665.4153162899186 L 502.6973485926735 643.5589098293675 L 494.6973485926735 673.4153162899186 L 524.5537550532246 681.4153162899186 L 524.5537550532246 681.4153162899186 Z" stroke-linecap="round" stroke-miterlimit="10" stroke-dasharray=""/></g><g><path fill="none" stroke="#000000" paint-order="fill stroke markers" d=" M 611.9793808954284 681.4153162899186 L 582.1229744348775 689.4153162899186 L 590.1229744348775 719.2717227504696 L 568.2665679743264 697.4153162899186 L 546.4101615137754 719.2717227504696 L 554.4101615137754 689.4153162899186 L 524.5537550532244 681.4153162899186 L 554.4101615137754 673.4153162899186 L 546.4101615137754 643.5589098293675 L 568.2665679743264 665.4153162899186 L 590.1229744348775 643.5589098293675 L 582.1229744348775 673.4153162899186 L 611.9793808954284 681.4153162899186 L 611.9793808954284 681.4153162899186 Z" stroke-linecap="round" stroke-miterlimit="10" stroke-dasharray=""/></g><g><path fill="none" stroke="#000000" paint-order="fill stroke markers" d=" M 699.4050067376326 681.4153162899186 L 669.5486002770816 689.4153162899186 L 677.5486002770816 719.2717227504696 L 655.6921938165306 697.4153162899186 L 633.8357873559795 719.2717227504696 L 641.8357873559795 689.4153162899186 L 611.9793808954286 681.4153162899186 L 641.8357873559795 673.4153162899186 L 633.8357873559795 643.5589098293675 L 655.6921938165306 665.4153162899186 L 677.5486002770816 643.5589098293675 L 669.5486002770816 673.4153162899186 L 699.4050067376326 681.4153162899186 L 699.4050067376326 681.4153162899186 Z" stroke-linecap="round" stroke-miterlimit="10" stroke-dasharray=""/></g><g><path fill="none" stroke="#000000" paint-order="fill stroke markers" d=" M 786.8306325798367 681.4153162899186 L 756.9742261192857 689.4153162899186 L 764.9742261192857 719.2717227504696 L 743.1178196587347 697.4153162899186 L 721.2614131981836 719.2717227504696 L 729.2614131981836 689.4153162899186 L 699.4050067376327 681.4153162899186 L 729.2614131981836 673.4153162899186 L 721.2614131981836 643.5589098293675 L 743.1178196587347 665.4153162899186 L 764.9742261192857 643.5589098293675 L 756.9742261192857 673.4153162899186 L 786.8306325798367 681.4153162899186 L 786.8306325798367 681.4153162899186 Z" stroke-linecap="round" stroke-miterlimit="10" stroke-dasharray=""/></g><g><path fill="none" stroke="#000000" paint-order="fill stroke markers" d=" M 874.2562584220408 681.4153162899186 L 844.3998519614898 689.4153162899186 L 852.3998519614898 719.2717227504696 L 830.5434455009388 697.4153162899186 L 808.6870390403877 719.2717227504696 L 816.6870390403877 689.4153162899186 L 786.8306325798368 681.4153162899186 L 816.6870390403877 673.4153162899186 L 808.6870390403877 643.5589098293675 L 830.5434455009388 665.4153162899186 L 852.3998519614898 643.5589098293675 L 844.3998519614898 673.4153162899186 L 874.2562584220408 681.4153162899186 L 874.2562584220408 681.4153162899186 Z" stroke-linecap="round" stroke-miterlimit="10" stroke-dasharray=""/></g><g><path fill="none" stroke="#000000" paint-order="fill stroke markers" d=" M 43.71281292110204 757.1281292110206 L 13.85640646055102 765.1281292110206 L 21.856406460551025 794.9845356715716 L 9.797174393178826e-16 773.1281292110206 L -21.85640646055101 794.9845356715716 L -13.85640646055102 765.1281292110206 L -43.71281292110204 757.1281292110206 L -13.856406460551018 749.1281292110206 L -21.85640646055104 719.2717227504695 L -2.9391523179536475e-15 741.1281292110206 L 21.856406460551025 719.2717227504695 L 13.856406460551014 749.1281292110206 L 43.71281292110204 757.1281292110206 L 43.71281292110204 757.1281292110206 Z" stroke-linecap="round" stroke-miterlimit="10" stroke-dasharray=""/></g><g><path fill="none" stroke="#000000" paint-order="fill stroke markers" d=" M 131.1384387633061 757.1281292110206 L 101.2820323027551 765.1281292110206 L 109.28203230275511 794.9845356715716 L 87.42562584220408 773.1281292110206 L 65.56921938165307 794.9845356715716 L 73.56921938165307 765.1281292110206 L 43.71281292110204 757.1281292110206 L 73.56921938165307 749.1281292110206 L 65.56921938165304 719.2717227504695 L 87.42562584220408 741.1281292110206 L 109.28203230275511 719.2717227504695 L 101.2820323027551 749.1281292110206 L 131.1384387633061 757.1281292110206 L 131.1384387633061 757.1281292110206 Z" stroke-linecap="round" stroke-miterlimit="10" stroke-dasharray=""/></g><g><path fill="none" stroke="#000000" paint-order="fill stroke markers" d=" M 218.56406460551023 757.1281292110206 L 188.7076581449592 765.1281292110206 L 196.7076581449592 794.9845356715716 L 174.85125168440817 773.1281292110206 L 152.99484522385717 794.9845356715716 L 160.99484522385714 765.1281292110206 L 131.1384387633061 757.1281292110206 L 160.99484522385714 749.1281292110206 L 152.99484522385714 719.2717227504695 L 174.85125168440817 741.1281292110206 L 196.7076581449592 719.2717227504695 L 188.70765814495917 749.1281292110206 L 218.56406460551023 757.1281292110206 L 218.56406460551023 757.1281292110206 Z" stroke-linecap="round" stroke-miterlimit="10" stroke-dasharray=""/></g><g><path fill="none" stroke="#000000" paint-order="fill stroke markers" d=" M 305.9896904477143 757.1281292110206 L 276.1332839871632 765.1281292110206 L 284.1332839871632 794.9845356715716 L 262.2768775266122 773.1281292110206 L 240.42047106606122 794.9845356715716 L 248.4204710660612 765.1281292110206 L 218.56406460551017 757.1281292110206 L 248.4204710660612 749.1281292110206 L 240.4204710660612 719.2717227504695 L 262.2768775266122 741.1281292110206 L 284.1332839871632 719.2717227504695 L 276.1332839871632 749.1281292110206 L 305.9896904477143 757.1281292110206 L 305.9896904477143 757.1281292110206 Z" stroke-linecap="round" stroke-miterlimit="10" stroke-dasharray=""/></g><g><path fill="none" stroke="#000000" paint-order="fill stroke markers" d=" M 393.4153162899184 757.1281292110206 L 363.55890982936734 765.1281292110206 L 371.55890982936734 794.9845356715716 L 349.70250336881634 773.1281292110206 L 327.84609690826534 794.9845356715716 L 335.84609690826534 765.1281292110206 L 305.9896904477143 757.1281292110206 L 335.84609690826534 749.1281292110206 L 327.8460969082653 719.2717227504695 L 349.70250336881634 741.1281292110206 L 371.55890982936734 719.2717227504695 L 363.55890982936734 749.1281292110206 L 393.4153162899184 757.1281292110206 L 393.4153162899184 757.1281292110206 Z" stroke-linecap="round" stroke-miterlimit="10" stroke-dasharray=""/></g><g><path fill="none" stroke="#000000" paint-order="fill stroke markers" d=" M 480.8409421321225 757.1281292110206 L 450.98453567157145 765.1281292110206 L 458.98453567157145 794.9845356715716 L 437.12812921102045 773.1281292110206 L 415.27172275046945 794.9845356715716 L 423.27172275046945 765.1281292110206 L 393.4153162899184 757.1281292110206 L 423.27172275046945 749.1281292110206 L 415.2717227504694 719.2717227504695 L 437.12812921102045 741.1281292110206 L 458.98453567157145 719.2717227504695 L 450.98453567157145 749.1281292110206 L 480.8409421321225 757.1281292110206 L 480.8409421321225 757.1281292110206 Z" stroke-linecap="round" stroke-miterlimit="10" stroke-dasharray=""/></g><g><path fill="none" stroke="#000000" paint-order="fill stroke markers" d=" M 568.2665679743264 757.1281292110206 L 538.4101615137755 765.1281292110206 L 546.4101615137755 794.9845356715716 L 524.5537550532244 773.1281292110206 L 502.69734859267345 794.9845356715716 L 510.69734859267345 765.1281292110206 L 480.8409421321224 757.1281292110206 L 510.69734859267345 749.1281292110206 L 502.6973485926734 719.2717227504695 L 524.5537550532244 741.1281292110206 L 546.4101615137755 719.2717227504695 L 538.4101615137755 749.1281292110206 L 568.2665679743264 757.1281292110206 L 568.2665679743264 757.1281292110206 Z" stroke-linecap="round" stroke-miterlimit="10" stroke-dasharray=""/></g><g><path fill="none" stroke="#000000" paint-order="fill stroke markers" d=" M 655.6921938165306 757.1281292110206 L 625.8357873559796 765.1281292110206 L 633.8357873559796 794.9845356715716 L 611.9793808954286 773.1281292110206 L 590.1229744348775 794.9845356715716 L 598.1229744348775 765.1281292110206 L 568.2665679743266 757.1281292110206 L 598.1229744348775 749.1281292110206 L 590.1229744348775 719.2717227504695 L 611.9793808954286 741.1281292110206 L 633.8357873559796 719.2717227504695 L 625.8357873559796 749.1281292110206 L 655.6921938165306 757.1281292110206 L 655.6921938165306 757.1281292110206 Z" stroke-linecap="round" stroke-miterlimit="10" stroke-dasharray=""/></g><g><path fill="none" stroke="#000000" paint-order="fill stroke markers" d=" M 743.1178196587347 757.1281292110206 L 713.2614131981837 765.1281292110206 L 721.2614131981837 794.9845356715716 L 699.4050067376327 773.1281292110206 L 677.5486002770816 794.9845356715716 L 685.5486002770816 765.1281292110206 L 655.6921938165307 757.1281292110206 L 685.5486002770816 749.1281292110206 L 677.5486002770816 719.2717227504695 L 699.4050067376327 741.1281292110206 L 721.2614131981837 719.2717227504695 L 713.2614131981837 749.1281292110206 L 743.1178196587347 757.1281292110206 L 743.1178196587347 757.1281292110206 Z" stroke-linecap="round" stroke-miterlimit="10" stroke-dasharray=""/></g><g><path fill="none" stroke="#000000" paint-order="fill stroke markers" d=" M 830.5434455009388 757.1281292110206 L 800.6870390403878 765.1281292110206 L 808.6870390403878 794.9845356715716 L 786.8306325798368 773.1281292110206 L 764.9742261192857 794.9845356715716 L 772.9742261192857 765.1281292110206 L 743.1178196587348 757.1281292110206 L 772.9742261192857 749.1281292110206 L 764.9742261192857 719.2717227504695 L 786.8306325798368 741.1281292110206 L 808.6870390403878 719.2717227504695 L 800.6870390403878 749.1281292110206 L 830.5434455009388 757.1281292110206 L 830.5434455009388 757.1281292110206 Z" stroke-linecap="round" stroke-miterlimit="10" stroke-dasharray=""/></g></g></svg>