<svg version="1.1" xmlns="http://www.w3.org/2000/svg" xmlns:xlink="http://www.w3.org/1999/xlink" width="400" height="400" viewBox="0 0 400 400"><defs/><g><g><g><g><g><path fill="none" stroke="#000000" paint-order="fill stroke markers" d=" M 252.77916867529368 147.2208313247063 L 382.8324034537128 182.0684905566389" stroke-linecap="round" stroke-miterlimit="10" stroke-dasharray=""/><path fill="none" stroke="#000000" paint-order="fill stroke markers" d=" M 291.4162017268564 108.58379827314356 L 272.097685201075 180.68148347421862 L 291.4162017268564 199.99999999999997 L 356.15263998443373 135.26356174242267 L 329.4728765151546 70.52712348484535 L 383.0280257554032 92.71039263507143" stroke-linecap="round" stroke-miterlimit="10" stroke-dasharray=""/></g><g><path fill="none" stroke="#000000" paint-order="fill stroke markers" d=" M 252.77916867529368 147.2208313247063 L 217.93150944336105 17.167596546287143" stroke-linecap="round" stroke-miterlimit="10" stroke-dasharray=""/><path fill="none" stroke="#000000" paint-order="fill stroke markers" d=" M 291.4162017268564 108.58379827314356 L 219.31851652578135 127.90231479892493 L 200 108.58379827314357 L 264.7364382575773 43.84736001556624 L 329.4728765151546 70.52712348484535 L 307.28960736492854 16.971974244596765" stroke-linecap="round" stroke-miterlimit="10" stroke-dasharray=""/></g></g></g><g><g><g><path fill="none" stroke="#000000" paint-order="fill stroke markers" d=" M 252.7791686752937 252.77916867529368 L 217.9315094433611 382.8324034537128" stroke-linecap="round" stroke-miterlimit="10" stroke-dasharray=""/><path fill="none" stroke="#000000" paint-order="fill stroke markers" d=" M 291.41620172685646 291.4162017268564 L 219.31851652578138 272.097685201075 L 200.00000000000003 291.4162017268564 L 264.73643825757733 356.15263998443373 L 329.47287651515467 329.4728765151546 L 307.28960736492854 383.0280257554032" stroke-linecap="round" stroke-miterlimit="10" stroke-dasharray=""/></g><g><path fill="none" stroke="#000000" paint-order="fill stroke markers" d=" M 252.7791686752937 252.77916867529368 L 382.83240345371286 217.93150944336105" stroke-linecap="round" stroke-miterlimit="10" stroke-dasharray=""/><path fill="none" stroke="#000000" paint-order="fill stroke markers" d=" M 291.41620172685646 291.4162017268564 L 272.0976852010751 219.31851652578135 L 291.41620172685646 200 L 356.1526399844338 264.7364382575773 L 329.47287651515467 329.4728765151546 L 383.02802575540323 307.28960736492854" stroke-linecap="round" stroke-miterlimit="10" stroke-dasharray=""/></g></g></g><g><g><g><path fill="none" stroke="#000000" paint-order="fill stroke markers" d=" M 147.22083132470632 252.7791686752937 L 17.16759654628717 217.9315094433611" stroke-linecap="round" stroke-miterlimit="10" stroke-dasharray=""/><path fill="none" stroke="#000000" paint-order="fill stroke markers" d=" M 108.5837982731436 291.41620172685646 L 127.90231479892495 219.3185165257814 L 108.58379827314357 200.00000000000003 L 43.847360015566295 264.73643825757733 L 70.5271234848454 329.47287651515467 L 16.971974244596794 307.2896073649286" stroke-linecap="round" stroke-miterlimit="10" stroke-dasharray=""/></g><g><path fill="none" stroke="#000000" paint-order="fill stroke markers" d=" M 147.22083132470632 252.7791686752937 L 182.06849055663898 382.8324034537128" stroke-linecap="round" stroke-miterlimit="10" stroke-dasharray=""/><path fill="none" stroke="#000000" paint-order="fill stroke markers" d=" M 108.5837982731436 291.41620172685646 L 180.68148347421865 272.0976852010751 L 200.00000000000003 291.41620172685646 L 135.26356174242272 356.1526399844338 L 70.5271234848454 329.47287651515467 L 92.7103926350715 383.02802575540323" stroke-linecap="round" stroke-miterlimit="10" stroke-dasharray=""/></g></g></g><g><g><g><path fill="none" stroke="#000000" paint-order="fill stroke markers" d=" M 147.2208313247063 147.22083132470632 L 182.0684905566389 17.16759654628717" stroke-linecap="round" stroke-miterlimit="10" stroke-dasharray=""/><path fill="none" stroke="#000000" paint-order="fill stroke markers" d=" M 108.58379827314354 108.5837982731436 L 180.6814834742186 127.90231479892495 L 199.99999999999997 108.58379827314357 L 135.26356174242264 43.847360015566295 L 70.52712348484533 70.5271234848454 L 92.71039263507141 16.971974244596794" stroke-linecap="round" stroke-miterlimit="10" stroke-dasharray=""/></g><g><path fill="none" stroke="#000000" paint-order="fill stroke markers" d=" M 147.2208313247063 147.22083132470632 L 17.16759654628717 182.06849055663898" stroke-linecap="round" stroke-miterlimit="10" stroke-dasharray=""/><path fill="none" stroke="#000000" paint-order="fill stroke markers" d=" M 108.58379827314354 108.5837982731436 L 127.90231479892493 180.68148347421865 L 108.58379827314357 200.00000000000003 L 43.84736001556624 135.26356174242272 L 70.52712348484533 70.5271234848454 L 16.971974244596765 92.7103926350715" stroke-linecap="round" stroke-miterlimit="10" stroke-dasharray=""/></g></g></g></g></g></svg>