<?xml version="1.0" encoding="utf-8"?>
<!-- Generator: Adobe Illustrator 27.7.0, SVG Export Plug-In . SVG Version: 6.00 Build 0)  -->
<svg version="1.1" xmlns="http://www.w3.org/2000/svg" xmlns:xlink="http://www.w3.org/1999/xlink" x="0px" y="0px"
	 viewBox="0 0 800 800" style="enable-background:new 0 0 800 800;" xml:space="preserve">
<style type="text/css">
	.st0{fill:#FFFFFF;}
	.st1{fill:none;stroke:#000000;stroke-linecap:round;stroke-miterlimit:10;}
</style>
<g id="Layer_2">
	<rect class="st0" width="800" height="800"/>
</g>
<g id="Layer_1">
	<g>
		<g>
			<g>
				<g>
					<g>
						<g>
							<g>
								<path class="st1" d="M26.4-26.4L91.4-9"/>
								<path class="st1" d="M45.7-45.7L36-9.7L45.7,0l32.4-32.4L64.7-64.7l26.8,11.1"/>
							</g>
							<g>
								<path class="st1" d="M26.4-26.4L9-91.4"/>
								<path class="st1" d="M45.7-45.7L9.7-36L0-45.7l32.4-32.4l32.4,13.3L53.6-91.5"/>
							</g>
						</g>
					</g>
					<g>
						<g>
							<g>
								<path class="st1" d="M26.4,26.4L9,91.4"/>
								<path class="st1" d="M45.7,45.7L9.7,36L0,45.7l32.4,32.4l32.4-13.3L53.6,91.5"/>
							</g>
							<g>
								<path class="st1" d="M26.4,26.4L91.4,9"/>
								<path class="st1" d="M45.7,45.7L36,9.7L45.7,0l32.4,32.4L64.7,64.7l26.8-11.1"/>
							</g>
						</g>
					</g>
					<g>
						<g>
							<g>
								<path class="st1" d="M-26.4,26.4L-91.4,9"/>
								<path class="st1" d="M-45.7,45.7l9.7-36L-45.7,0l-32.4,32.4l13.3,32.4l-26.8-11.1"/>
							</g>
							<g>
								<path class="st1" d="M-26.4,26.4l17.4,65"/>
								<path class="st1" d="M-45.7,45.7l36-9.7L0,45.7l-32.4,32.4l-32.4-13.3l11.1,26.8"/>
							</g>
						</g>
					</g>
					<g>
						<g>
							<g>
								<path class="st1" d="M-26.4-26.4l17.4-65"/>
								<path class="st1" d="M-45.7-45.7l36,9.7L0-45.7l-32.4-32.4l-32.4,13.3l11.1-26.8"/>
							</g>
							<g>
								<path class="st1" d="M-26.4-26.4L-91.4-9"/>
								<path class="st1" d="M-45.7-45.7l9.7,36L-45.7,0l-32.4-32.4l13.3-32.4l-26.8,11.1"/>
							</g>
						</g>
					</g>
				</g>
			</g>
			<g>
				<g>
					<g>
						<g>
							<g>
								<path class="st1" d="M26.4,156.4l65,17.4"/>
								<path class="st1" d="M45.7,137.1l-9.7,36l9.7,9.7l32.4-32.4l-13.3-32.4l26.8,11.1"/>
							</g>
							<g>
								<path class="st1" d="M26.4,156.4L9,91.4"/>
								<path class="st1" d="M45.7,137.1l-36,9.7L0,137.1l32.4-32.4l32.4,13.3L53.6,91.3"/>
							</g>
						</g>
					</g>
					<g>
						<g>
							<g>
								<path class="st1" d="M26.4,209.2L9,274.2"/>
								<path class="st1" d="M45.7,228.5l-36-9.7L0,228.5l32.4,32.4l32.4-13.3l-11.1,26.8"/>
							</g>
							<g>
								<path class="st1" d="M26.4,209.2l65-17.4"/>
								<path class="st1" d="M45.7,228.5l-9.7-36l9.7-9.7l32.4,32.4l-13.3,32.4l26.8-11.1"/>
							</g>
						</g>
					</g>
					<g>
						<g>
							<g>
								<path class="st1" d="M-26.4,209.2l-65-17.4"/>
								<path class="st1" d="M-45.7,228.5l9.7-36l-9.7-9.7l-32.4,32.4l13.3,32.4l-26.8-11.1"/>
							</g>
							<g>
								<path class="st1" d="M-26.4,209.2l17.4,65"/>
								<path class="st1" d="M-45.7,228.5l36-9.7l9.7,9.7l-32.4,32.4l-32.4-13.3l11.1,26.8"/>
							</g>
						</g>
					</g>
					<g>
						<g>
							<g>
								<path class="st1" d="M-26.4,156.4l17.4-65"/>
								<path class="st1" d="M-45.7,137.1l36,9.7l9.7-9.7l-32.4-32.4l-32.4,13.3l11.1-26.8"/>
							</g>
							<g>
								<path class="st1" d="M-26.4,156.4l-65,17.4"/>
								<path class="st1" d="M-45.7,137.1l9.7,36l-9.7,9.7l-32.4-32.4l13.3-32.4l-26.8,11.1"/>
							</g>
						</g>
					</g>
				</g>
			</g>
			<g>
				<g>
					<g>
						<g>
							<g>
								<path class="st1" d="M26.4,339.3l65,17.4"/>
								<path class="st1" d="M45.7,320L36,356l9.7,9.7l32.4-32.4l-13.3-32.4L91.5,312"/>
							</g>
							<g>
								<path class="st1" d="M26.4,339.3L9,274.2"/>
								<path class="st1" d="M45.7,320l-36,9.7L0,320l32.4-32.4l32.4,13.3l-11.1-26.8"/>
							</g>
						</g>
					</g>
					<g>
						<g>
							<g>
								<path class="st1" d="M26.4,392.1L9,457.1"/>
								<path class="st1" d="M45.7,411.4l-36-9.7L0,411.4l32.4,32.4l32.4-13.3l-11.1,26.8"/>
							</g>
							<g>
								<path class="st1" d="M26.4,392.1l65-17.4"/>
								<path class="st1" d="M45.7,411.4l-9.7-36l9.7-9.7L78.1,398l-13.3,32.4l26.8-11.1"/>
							</g>
						</g>
					</g>
					<g>
						<g>
							<g>
								<path class="st1" d="M-26.4,392.1l-65-17.4"/>
								<path class="st1" d="M-45.7,411.4l9.7-36l-9.7-9.7L-78.1,398l13.3,32.4l-26.8-11.1"/>
							</g>
							<g>
								<path class="st1" d="M-26.4,392.1l17.4,65"/>
								<path class="st1" d="M-45.7,411.4l36-9.7l9.7,9.7l-32.4,32.4l-32.4-13.3l11.1,26.8"/>
							</g>
						</g>
					</g>
					<g>
						<g>
							<g>
								<path class="st1" d="M-26.4,339.3l17.4-65"/>
								<path class="st1" d="M-45.7,320l36,9.7L0,320l-32.4-32.4l-32.4,13.3l11.1-26.8"/>
							</g>
							<g>
								<path class="st1" d="M-26.4,339.3l-65,17.4"/>
								<path class="st1" d="M-45.7,320l9.7,36l-9.7,9.7l-32.4-32.4l13.3-32.4L-91.5,312"/>
							</g>
						</g>
					</g>
				</g>
			</g>
			<g>
				<g>
					<g>
						<g>
							<g>
								<path class="st1" d="M26.4,522.1l65,17.4"/>
								<path class="st1" d="M45.7,502.8l-9.7,36l9.7,9.7l32.4-32.4l-13.3-32.4l26.8,11.1"/>
							</g>
							<g>
								<path class="st1" d="M26.4,522.1L9,457.1"/>
								<path class="st1" d="M45.7,502.8l-36,9.7L0,502.8l32.4-32.4l32.4,13.3L53.6,457"/>
							</g>
						</g>
					</g>
					<g>
						<g>
							<g>
								<path class="st1" d="M26.4,574.9L9,639.9"/>
								<path class="st1" d="M45.7,594.2l-36-9.7L0,594.2l32.4,32.4l32.4-13.3L53.6,640"/>
							</g>
							<g>
								<path class="st1" d="M26.4,574.9l65-17.4"/>
								<path class="st1" d="M45.7,594.2l-9.7-36l9.7-9.7l32.4,32.4l-13.3,32.4l26.8-11.1"/>
							</g>
						</g>
					</g>
					<g>
						<g>
							<g>
								<path class="st1" d="M-26.4,574.9l-65-17.4"/>
								<path class="st1" d="M-45.7,594.2l9.7-36l-9.7-9.7l-32.4,32.4l13.3,32.4l-26.8-11.1"/>
							</g>
							<g>
								<path class="st1" d="M-26.4,574.9l17.4,65"/>
								<path class="st1" d="M-45.7,594.2l36-9.7l9.7,9.7l-32.4,32.4l-32.4-13.3l11.1,26.8"/>
							</g>
						</g>
					</g>
					<g>
						<g>
							<g>
								<path class="st1" d="M-26.4,522.1l17.4-65"/>
								<path class="st1" d="M-45.7,502.8l36,9.7l9.7-9.7l-32.4-32.4l-32.4,13.3l11.1-26.8"/>
							</g>
							<g>
								<path class="st1" d="M-26.4,522.1l-65,17.4"/>
								<path class="st1" d="M-45.7,502.8l9.7,36l-9.7,9.7l-32.4-32.4l13.3-32.4l-26.8,11.1"/>
							</g>
						</g>
					</g>
				</g>
			</g>
			<g>
				<g>
					<g>
						<g>
							<g>
								<path class="st1" d="M26.4,704.9l65,17.4"/>
								<path class="st1" d="M45.7,685.6l-9.7,36l9.7,9.7L78.1,699l-13.3-32.4l26.8,11.1"/>
							</g>
							<g>
								<path class="st1" d="M26.4,704.9L9,639.9"/>
								<path class="st1" d="M45.7,685.6l-36,9.7L0,685.6l32.4-32.4l32.4,13.3l-11.1-26.8"/>
							</g>
						</g>
					</g>
					<g>
						<g>
							<g>
								<path class="st1" d="M26.4,757.7L9,822.7"/>
								<path class="st1" d="M45.7,777l-36-9.7L0,777l32.4,32.4l32.4-13.3l-11.1,26.8"/>
							</g>
							<g>
								<path class="st1" d="M26.4,757.7l65-17.4"/>
								<path class="st1" d="M45.7,777L36,741l9.7-9.7l32.4,32.4l-13.3,32.4L91.5,785"/>
							</g>
						</g>
					</g>
					<g>
						<g>
							<g>
								<path class="st1" d="M-26.4,757.7l-65-17.4"/>
								<path class="st1" d="M-45.7,777l9.7-36l-9.7-9.7l-32.4,32.4l13.3,32.4L-91.5,785"/>
							</g>
							<g>
								<path class="st1" d="M-26.4,757.7l17.4,65"/>
								<path class="st1" d="M-45.7,777l36-9.7L0,777l-32.4,32.4l-32.4-13.3l11.1,26.8"/>
							</g>
						</g>
					</g>
					<g>
						<g>
							<g>
								<path class="st1" d="M-26.4,704.9l17.4-65"/>
								<path class="st1" d="M-45.7,685.6l36,9.7l9.7-9.7l-32.4-32.4l-32.4,13.3l11.1-26.8"/>
							</g>
							<g>
								<path class="st1" d="M-26.4,704.9l-65,17.4"/>
								<path class="st1" d="M-45.7,685.6l9.7,36l-9.7,9.7L-78.1,699l13.3-32.4l-26.8,11.1"/>
							</g>
						</g>
					</g>
				</g>
			</g>
			<g>
				<g>
					<g>
						<g>
							<g>
								<path class="st1" d="M209.2-26.4l65,17.4"/>
								<path class="st1" d="M228.5-45.7l-9.7,36l9.7,9.7l32.4-32.4l-13.3-32.4l26.8,11.1"/>
							</g>
							<g>
								<path class="st1" d="M209.2-26.4l-17.4-65"/>
								<path class="st1" d="M228.5-45.7l-36,9.7l-9.7-9.7l32.4-32.4l32.4,13.3l-11.1-26.8"/>
							</g>
						</g>
					</g>
					<g>
						<g>
							<g>
								<path class="st1" d="M209.2,26.4l-17.4,65"/>
								<path class="st1" d="M228.5,45.7l-36-9.7l-9.7,9.7l32.4,32.4l32.4-13.3l-11.1,26.8"/>
							</g>
							<g>
								<path class="st1" d="M209.2,26.4l65-17.4"/>
								<path class="st1" d="M228.5,45.7l-9.7-36l9.7-9.7l32.4,32.4l-13.3,32.4l26.8-11.1"/>
							</g>
						</g>
					</g>
					<g>
						<g>
							<g>
								<path class="st1" d="M156.4,26.4L91.4,9"/>
								<path class="st1" d="M137.1,45.7l9.7-36L137.1,0l-32.4,32.4l13.3,32.4L91.3,53.6"/>
							</g>
							<g>
								<path class="st1" d="M156.4,26.4l17.4,65"/>
								<path class="st1" d="M137.1,45.7l36-9.7l9.7,9.7l-32.4,32.4l-32.4-13.3l11.1,26.8"/>
							</g>
						</g>
					</g>
					<g>
						<g>
							<g>
								<path class="st1" d="M156.4-26.4l17.4-65"/>
								<path class="st1" d="M137.1-45.7l36,9.7l9.7-9.7l-32.4-32.4l-32.4,13.3l11.1-26.8"/>
							</g>
							<g>
								<path class="st1" d="M156.4-26.4L91.4-9"/>
								<path class="st1" d="M137.1-45.7l9.7,36L137.1,0l-32.4-32.4l13.3-32.4L91.3-53.6"/>
							</g>
						</g>
					</g>
				</g>
			</g>
			<g>
				<g>
					<g>
						<g>
							<g>
								<path class="st1" d="M209.2,156.4l65,17.4"/>
								<path class="st1" d="M228.5,137.1l-9.7,36l9.7,9.7l32.4-32.4l-13.3-32.4l26.8,11.1"/>
							</g>
							<g>
								<path class="st1" d="M209.2,156.4l-17.4-65"/>
								<path class="st1" d="M228.5,137.1l-36,9.7l-9.7-9.7l32.4-32.4l32.4,13.3l-11.1-26.8"/>
							</g>
						</g>
					</g>
					<g>
						<g>
							<g>
								<path class="st1" d="M209.2,209.2l-17.4,65"/>
								<path class="st1" d="M228.5,228.5l-36-9.7l-9.7,9.7l32.4,32.4l32.4-13.3l-11.1,26.8"/>
							</g>
							<g>
								<path class="st1" d="M209.2,209.2l65-17.4"/>
								<path class="st1" d="M228.5,228.5l-9.7-36l9.7-9.7l32.4,32.4l-13.3,32.4l26.8-11.1"/>
							</g>
						</g>
					</g>
					<g>
						<g>
							<g>
								<path class="st1" d="M156.4,209.2l-65-17.4"/>
								<path class="st1" d="M137.1,228.5l9.7-36l-9.7-9.7l-32.4,32.4l13.3,32.4l-26.8-11.1"/>
							</g>
							<g>
								<path class="st1" d="M156.4,209.2l17.4,65"/>
								<path class="st1" d="M137.1,228.5l36-9.7l9.7,9.7l-32.4,32.4l-32.4-13.3l11.1,26.8"/>
							</g>
						</g>
					</g>
					<g>
						<g>
							<g>
								<path class="st1" d="M156.4,156.4l17.4-65"/>
								<path class="st1" d="M137.1,137.1l36,9.7l9.7-9.7l-32.4-32.4l-32.4,13.3l11.1-26.8"/>
							</g>
							<g>
								<path class="st1" d="M156.4,156.4l-65,17.4"/>
								<path class="st1" d="M137.1,137.1l9.7,36l-9.7,9.7l-32.4-32.4l13.3-32.4l-26.8,11.1"/>
							</g>
						</g>
					</g>
				</g>
			</g>
			<g>
				<g>
					<g>
						<g>
							<g>
								<path class="st1" d="M209.2,339.3l65,17.4"/>
								<path class="st1" d="M228.5,320l-9.7,36l9.7,9.7l32.4-32.4l-13.3-32.4l26.8,11.1"/>
							</g>
							<g>
								<path class="st1" d="M209.2,339.3l-17.4-65"/>
								<path class="st1" d="M228.5,320l-36,9.7l-9.7-9.7l32.4-32.4l32.4,13.3l-11.1-26.8"/>
							</g>
						</g>
					</g>
					<g>
						<g>
							<g>
								<path class="st1" d="M209.2,392.1l-17.4,65"/>
								<path class="st1" d="M228.5,411.4l-36-9.7l-9.7,9.7l32.4,32.4l32.4-13.3l-11.1,26.8"/>
							</g>
							<g>
								<path class="st1" d="M209.2,392.1l65-17.4"/>
								<path class="st1" d="M228.5,411.4l-9.7-36l9.7-9.7l32.4,32.4l-13.3,32.4l26.8-11.1"/>
							</g>
						</g>
					</g>
					<g>
						<g>
							<g>
								<path class="st1" d="M156.4,392.1l-65-17.4"/>
								<path class="st1" d="M137.1,411.4l9.7-36l-9.7-9.7L104.8,398l13.3,32.4l-26.8-11.1"/>
							</g>
							<g>
								<path class="st1" d="M156.4,392.1l17.4,65"/>
								<path class="st1" d="M137.1,411.4l36-9.7l9.7,9.7l-32.4,32.4l-32.4-13.3l11.1,26.8"/>
							</g>
						</g>
					</g>
					<g>
						<g>
							<g>
								<path class="st1" d="M156.4,339.3l17.4-65"/>
								<path class="st1" d="M137.1,320l36,9.7l9.7-9.7l-32.4-32.4l-32.4,13.3l11.1-26.8"/>
							</g>
							<g>
								<path class="st1" d="M156.4,339.3l-65,17.4"/>
								<path class="st1" d="M137.1,320l9.7,36l-9.7,9.7l-32.4-32.4l13.3-32.4L91.3,312"/>
							</g>
						</g>
					</g>
				</g>
			</g>
			<g>
				<g>
					<g>
						<g>
							<g>
								<path class="st1" d="M209.2,522.1l65,17.4"/>
								<path class="st1" d="M228.5,502.8l-9.7,36l9.7,9.7l32.4-32.4l-13.3-32.4l26.8,11.1"/>
							</g>
							<g>
								<path class="st1" d="M209.2,522.1l-17.4-65"/>
								<path class="st1" d="M228.5,502.8l-36,9.7l-9.7-9.7l32.4-32.4l32.4,13.3L236.5,457"/>
							</g>
						</g>
					</g>
					<g>
						<g>
							<g>
								<path class="st1" d="M209.2,574.9l-17.4,65"/>
								<path class="st1" d="M228.5,594.2l-36-9.7l-9.7,9.7l32.4,32.4l32.4-13.3L236.5,640"/>
							</g>
							<g>
								<path class="st1" d="M209.2,574.9l65-17.4"/>
								<path class="st1" d="M228.5,594.2l-9.7-36l9.7-9.7l32.4,32.4l-13.3,32.4l26.8-11.1"/>
							</g>
						</g>
					</g>
					<g>
						<g>
							<g>
								<path class="st1" d="M156.4,574.9l-65-17.4"/>
								<path class="st1" d="M137.1,594.2l9.7-36l-9.7-9.7l-32.4,32.4l13.3,32.4l-26.8-11.1"/>
							</g>
							<g>
								<path class="st1" d="M156.4,574.9l17.4,65"/>
								<path class="st1" d="M137.1,594.2l36-9.7l9.7,9.7l-32.4,32.4l-32.4-13.3l11.1,26.8"/>
							</g>
						</g>
					</g>
					<g>
						<g>
							<g>
								<path class="st1" d="M156.4,522.1l17.4-65"/>
								<path class="st1" d="M137.1,502.8l36,9.7l9.7-9.7l-32.4-32.4l-32.4,13.3l11.1-26.8"/>
							</g>
							<g>
								<path class="st1" d="M156.4,522.1l-65,17.4"/>
								<path class="st1" d="M137.1,502.8l9.7,36l-9.7,9.7l-32.4-32.4l13.3-32.4l-26.8,11.1"/>
							</g>
						</g>
					</g>
				</g>
			</g>
			<g>
				<g>
					<g>
						<g>
							<g>
								<path class="st1" d="M209.2,704.9l65,17.4"/>
								<path class="st1" d="M228.5,685.6l-9.7,36l9.7,9.7l32.4-32.4l-13.3-32.4l26.8,11.1"/>
							</g>
							<g>
								<path class="st1" d="M209.2,704.9l-17.4-65"/>
								<path class="st1" d="M228.5,685.6l-36,9.7l-9.7-9.7l32.4-32.4l32.4,13.3l-11.1-26.8"/>
							</g>
						</g>
					</g>
					<g>
						<g>
							<g>
								<path class="st1" d="M209.2,757.7l-17.4,65"/>
								<path class="st1" d="M228.5,777l-36-9.7l-9.7,9.7l32.4,32.4l32.4-13.3l-11.1,26.8"/>
							</g>
							<g>
								<path class="st1" d="M209.2,757.7l65-17.4"/>
								<path class="st1" d="M228.5,777l-9.7-36l9.7-9.7l32.4,32.4l-13.3,32.4l26.8-11.1"/>
							</g>
						</g>
					</g>
					<g>
						<g>
							<g>
								<path class="st1" d="M156.4,757.7l-65-17.4"/>
								<path class="st1" d="M137.1,777l9.7-36l-9.7-9.7l-32.4,32.4l13.3,32.4L91.3,785"/>
							</g>
							<g>
								<path class="st1" d="M156.4,757.7l17.4,65"/>
								<path class="st1" d="M137.1,777l36-9.7l9.7,9.7l-32.4,32.4l-32.4-13.3l11.1,26.8"/>
							</g>
						</g>
					</g>
					<g>
						<g>
							<g>
								<path class="st1" d="M156.4,704.9l17.4-65"/>
								<path class="st1" d="M137.1,685.6l36,9.7l9.7-9.7l-32.4-32.4l-32.4,13.3l11.1-26.8"/>
							</g>
							<g>
								<path class="st1" d="M156.4,704.9l-65,17.4"/>
								<path class="st1" d="M137.1,685.6l9.7,36l-9.7,9.7L104.8,699l13.3-32.4l-26.8,11.1"/>
							</g>
						</g>
					</g>
				</g>
			</g>
			<g>
				<g>
					<g>
						<g>
							<g>
								<path class="st1" d="M392.1-26.4l65,17.4"/>
								<path class="st1" d="M411.4-45.7l-9.7,36l9.7,9.7l32.4-32.4l-13.3-32.4l26.8,11.1"/>
							</g>
							<g>
								<path class="st1" d="M392.1-26.4l-17.4-65"/>
								<path class="st1" d="M411.4-45.7l-36,9.7l-9.7-9.7L398-78.1l32.4,13.3l-11.1-26.8"/>
							</g>
						</g>
					</g>
					<g>
						<g>
							<g>
								<path class="st1" d="M392.1,26.4l-17.4,65"/>
								<path class="st1" d="M411.4,45.7l-36-9.7l-9.7,9.7L398,78.1l32.4-13.3l-11.1,26.8"/>
							</g>
							<g>
								<path class="st1" d="M392.1,26.4l65-17.4"/>
								<path class="st1" d="M411.4,45.7l-9.7-36l9.7-9.7l32.4,32.4l-13.3,32.4l26.8-11.1"/>
							</g>
						</g>
					</g>
					<g>
						<g>
							<g>
								<path class="st1" d="M339.3,26.4L274.2,9"/>
								<path class="st1" d="M320,45.7l9.7-36L320,0l-32.4,32.4l13.3,32.4l-26.8-11.1"/>
							</g>
							<g>
								<path class="st1" d="M339.3,26.4l17.4,65"/>
								<path class="st1" d="M320,45.7l36-9.7l9.7,9.7l-32.4,32.4l-32.4-13.3L312,91.5"/>
							</g>
						</g>
					</g>
					<g>
						<g>
							<g>
								<path class="st1" d="M339.3-26.4l17.4-65"/>
								<path class="st1" d="M320-45.7l36,9.7l9.7-9.7l-32.4-32.4l-32.4,13.3L312-91.5"/>
							</g>
							<g>
								<path class="st1" d="M339.3-26.4L274.2-9"/>
								<path class="st1" d="M320-45.7l9.7,36L320,0l-32.4-32.4l13.3-32.4l-26.8,11.1"/>
							</g>
						</g>
					</g>
				</g>
			</g>
			<g>
				<g>
					<g>
						<g>
							<g>
								<path class="st1" d="M392.1,156.4l65,17.4"/>
								<path class="st1" d="M411.4,137.1l-9.7,36l9.7,9.7l32.4-32.4l-13.3-32.4l26.8,11.1"/>
							</g>
							<g>
								<path class="st1" d="M392.1,156.4l-17.4-65"/>
								<path class="st1" d="M411.4,137.1l-36,9.7l-9.7-9.7l32.4-32.4l32.4,13.3l-11.1-26.8"/>
							</g>
						</g>
					</g>
					<g>
						<g>
							<g>
								<path class="st1" d="M392.1,209.2l-17.4,65"/>
								<path class="st1" d="M411.4,228.5l-36-9.7l-9.7,9.7l32.4,32.4l32.4-13.3l-11.1,26.8"/>
							</g>
							<g>
								<path class="st1" d="M392.1,209.2l65-17.4"/>
								<path class="st1" d="M411.4,228.5l-9.7-36l9.7-9.7l32.4,32.4l-13.3,32.4l26.8-11.1"/>
							</g>
						</g>
					</g>
					<g>
						<g>
							<g>
								<path class="st1" d="M339.3,209.2l-65-17.4"/>
								<path class="st1" d="M320,228.5l9.7-36l-9.7-9.7l-32.4,32.4l13.3,32.4l-26.8-11.1"/>
							</g>
							<g>
								<path class="st1" d="M339.3,209.2l17.4,65"/>
								<path class="st1" d="M320,228.5l36-9.7l9.7,9.7l-32.4,32.4l-32.4-13.3l11.1,26.8"/>
							</g>
						</g>
					</g>
					<g>
						<g>
							<g>
								<path class="st1" d="M339.3,156.4l17.4-65"/>
								<path class="st1" d="M320,137.1l36,9.7l9.7-9.7l-32.4-32.4l-32.4,13.3L312,91.3"/>
							</g>
							<g>
								<path class="st1" d="M339.3,156.4l-65,17.4"/>
								<path class="st1" d="M320,137.1l9.7,36l-9.7,9.7l-32.4-32.4l13.3-32.4l-26.8,11.1"/>
							</g>
						</g>
					</g>
				</g>
			</g>
			<g>
				<g>
					<g>
						<g>
							<g>
								<path class="st1" d="M392.1,339.3l65,17.4"/>
								<path class="st1" d="M411.4,320l-9.7,36l9.7,9.7l32.4-32.4l-13.3-32.4l26.8,11.1"/>
							</g>
							<g>
								<path class="st1" d="M392.1,339.3l-17.4-65"/>
								<path class="st1" d="M411.4,320l-36,9.7l-9.7-9.7l32.4-32.4l32.4,13.3l-11.1-26.8"/>
							</g>
						</g>
					</g>
					<g>
						<g>
							<g>
								<path class="st1" d="M392.1,392.1l-17.4,65"/>
								<path class="st1" d="M411.4,411.4l-36-9.7l-9.7,9.7l32.4,32.4l32.4-13.3l-11.1,26.8"/>
							</g>
							<g>
								<path class="st1" d="M392.1,392.1l65-17.4"/>
								<path class="st1" d="M411.4,411.4l-9.7-36l9.7-9.7l32.4,32.4l-13.3,32.4l26.8-11.1"/>
							</g>
						</g>
					</g>
					<g>
						<g>
							<g>
								<path class="st1" d="M339.3,392.1l-65-17.4"/>
								<path class="st1" d="M320,411.4l9.7-36l-9.7-9.7L287.6,398l13.3,32.4l-26.8-11.1"/>
							</g>
							<g>
								<path class="st1" d="M339.3,392.1l17.4,65"/>
								<path class="st1" d="M320,411.4l36-9.7l9.7,9.7l-32.4,32.4l-32.4-13.3l11.1,26.8"/>
							</g>
						</g>
					</g>
					<g>
						<g>
							<g>
								<path class="st1" d="M339.3,339.3l17.4-65"/>
								<path class="st1" d="M320,320l36,9.7l9.7-9.7l-32.4-32.4l-32.4,13.3l11.1-26.8"/>
							</g>
							<g>
								<path class="st1" d="M339.3,339.3l-65,17.4"/>
								<path class="st1" d="M320,320l9.7,36l-9.7,9.7l-32.4-32.4l13.3-32.4L274.2,312"/>
							</g>
						</g>
					</g>
				</g>
			</g>
			<g>
				<g>
					<g>
						<g>
							<g>
								<path class="st1" d="M392.1,522.1l65,17.4"/>
								<path class="st1" d="M411.4,502.8l-9.7,36l9.7,9.7l32.4-32.4l-13.3-32.4l26.8,11.1"/>
							</g>
							<g>
								<path class="st1" d="M392.1,522.1l-17.4-65"/>
								<path class="st1" d="M411.4,502.8l-36,9.7l-9.7-9.7l32.4-32.4l32.4,13.3L419.3,457"/>
							</g>
						</g>
					</g>
					<g>
						<g>
							<g>
								<path class="st1" d="M392.1,574.9l-17.4,65"/>
								<path class="st1" d="M411.4,594.2l-36-9.7l-9.7,9.7l32.4,32.4l32.4-13.3L419.3,640"/>
							</g>
							<g>
								<path class="st1" d="M392.1,574.9l65-17.4"/>
								<path class="st1" d="M411.4,594.2l-9.7-36l9.7-9.7l32.4,32.4l-13.3,32.4l26.8-11.1"/>
							</g>
						</g>
					</g>
					<g>
						<g>
							<g>
								<path class="st1" d="M339.3,574.9l-65-17.4"/>
								<path class="st1" d="M320,594.2l9.7-36l-9.7-9.7l-32.4,32.4l13.3,32.4l-26.8-11.1"/>
							</g>
							<g>
								<path class="st1" d="M339.3,574.9l17.4,65"/>
								<path class="st1" d="M320,594.2l36-9.7l9.7,9.7l-32.4,32.4l-32.4-13.3L312,640"/>
							</g>
						</g>
					</g>
					<g>
						<g>
							<g>
								<path class="st1" d="M339.3,522.1l17.4-65"/>
								<path class="st1" d="M320,502.8l36,9.7l9.7-9.7l-32.4-32.4l-32.4,13.3L312,457"/>
							</g>
							<g>
								<path class="st1" d="M339.3,522.1l-65,17.4"/>
								<path class="st1" d="M320,502.8l9.7,36l-9.7,9.7l-32.4-32.4l13.3-32.4l-26.8,11.1"/>
							</g>
						</g>
					</g>
				</g>
			</g>
			<g>
				<g>
					<g>
						<g>
							<g>
								<path class="st1" d="M392.1,704.9l65,17.4"/>
								<path class="st1" d="M411.4,685.6l-9.7,36l9.7,9.7l32.4-32.4l-13.3-32.4l26.8,11.1"/>
							</g>
							<g>
								<path class="st1" d="M392.1,704.9l-17.4-65"/>
								<path class="st1" d="M411.4,685.6l-36,9.7l-9.7-9.7l32.4-32.4l32.4,13.3l-11.1-26.8"/>
							</g>
						</g>
					</g>
					<g>
						<g>
							<g>
								<path class="st1" d="M392.1,757.7l-17.4,65"/>
								<path class="st1" d="M411.4,777l-36-9.7l-9.7,9.7l32.4,32.4l32.4-13.3l-11.1,26.8"/>
							</g>
							<g>
								<path class="st1" d="M392.1,757.7l65-17.4"/>
								<path class="st1" d="M411.4,777l-9.7-36l9.7-9.7l32.4,32.4l-13.3,32.4l26.8-11.1"/>
							</g>
						</g>
					</g>
					<g>
						<g>
							<g>
								<path class="st1" d="M339.3,757.7l-65-17.4"/>
								<path class="st1" d="M320,777l9.7-36l-9.7-9.7l-32.4,32.4l13.3,32.4L274.2,785"/>
							</g>
							<g>
								<path class="st1" d="M339.3,757.7l17.4,65"/>
								<path class="st1" d="M320,777l36-9.7l9.7,9.7l-32.4,32.4l-32.4-13.3l11.1,26.8"/>
							</g>
						</g>
					</g>
					<g>
						<g>
							<g>
								<path class="st1" d="M339.3,704.9l17.4-65"/>
								<path class="st1" d="M320,685.6l36,9.7l9.7-9.7l-32.4-32.4l-32.4,13.3l11.1-26.8"/>
							</g>
							<g>
								<path class="st1" d="M339.3,704.9l-65,17.4"/>
								<path class="st1" d="M320,685.6l9.7,36l-9.7,9.7L287.6,699l13.3-32.4l-26.8,11.1"/>
							</g>
						</g>
					</g>
				</g>
			</g>
			<g>
				<g>
					<g>
						<g>
							<g>
								<path class="st1" d="M574.9-26.4l65,17.4"/>
								<path class="st1" d="M594.2-45.7l-9.7,36l9.7,9.7l32.4-32.4l-13.3-32.4L640-53.6"/>
							</g>
							<g>
								<path class="st1" d="M574.9-26.4l-17.4-65"/>
								<path class="st1" d="M594.2-45.7l-36,9.7l-9.7-9.7l32.4-32.4l32.4,13.3l-11.1-26.8"/>
							</g>
						</g>
					</g>
					<g>
						<g>
							<g>
								<path class="st1" d="M574.9,26.4l-17.4,65"/>
								<path class="st1" d="M594.2,45.7l-36-9.7l-9.7,9.7l32.4,32.4l32.4-13.3l-11.1,26.8"/>
							</g>
							<g>
								<path class="st1" d="M574.9,26.4l65-17.4"/>
								<path class="st1" d="M594.2,45.7l-9.7-36l9.7-9.7l32.4,32.4l-13.3,32.4L640,53.6"/>
							</g>
						</g>
					</g>
					<g>
						<g>
							<g>
								<path class="st1" d="M522.1,26.4L457.1,9"/>
								<path class="st1" d="M502.8,45.7l9.7-36L502.8,0l-32.4,32.4l13.3,32.4L457,53.6"/>
							</g>
							<g>
								<path class="st1" d="M522.1,26.4l17.4,65"/>
								<path class="st1" d="M502.8,45.7l36-9.7l9.7,9.7l-32.4,32.4l-32.4-13.3l11.1,26.8"/>
							</g>
						</g>
					</g>
					<g>
						<g>
							<g>
								<path class="st1" d="M522.1-26.4l17.4-65"/>
								<path class="st1" d="M502.8-45.7l36,9.7l9.7-9.7l-32.4-32.4l-32.4,13.3l11.1-26.8"/>
							</g>
							<g>
								<path class="st1" d="M522.1-26.4L457.1-9"/>
								<path class="st1" d="M502.8-45.7l9.7,36L502.8,0l-32.4-32.4l13.3-32.4L457-53.6"/>
							</g>
						</g>
					</g>
				</g>
			</g>
			<g>
				<g>
					<g>
						<g>
							<g>
								<path class="st1" d="M574.9,156.4l65,17.4"/>
								<path class="st1" d="M594.2,137.1l-9.7,36l9.7,9.7l32.4-32.4l-13.3-32.4l26.8,11.1"/>
							</g>
							<g>
								<path class="st1" d="M574.9,156.4l-17.4-65"/>
								<path class="st1" d="M594.2,137.1l-36,9.7l-9.7-9.7l32.4-32.4l32.4,13.3l-11.1-26.8"/>
							</g>
						</g>
					</g>
					<g>
						<g>
							<g>
								<path class="st1" d="M574.9,209.2l-17.4,65"/>
								<path class="st1" d="M594.2,228.5l-36-9.7l-9.7,9.7l32.4,32.4l32.4-13.3l-11.1,26.8"/>
							</g>
							<g>
								<path class="st1" d="M574.9,209.2l65-17.4"/>
								<path class="st1" d="M594.2,228.5l-9.7-36l9.7-9.7l32.4,32.4l-13.3,32.4l26.8-11.1"/>
							</g>
						</g>
					</g>
					<g>
						<g>
							<g>
								<path class="st1" d="M522.1,209.2l-65-17.4"/>
								<path class="st1" d="M502.8,228.5l9.7-36l-9.7-9.7l-32.4,32.4l13.3,32.4L457,236.5"/>
							</g>
							<g>
								<path class="st1" d="M522.1,209.2l17.4,65"/>
								<path class="st1" d="M502.8,228.5l36-9.7l9.7,9.7l-32.4,32.4l-32.4-13.3l11.1,26.8"/>
							</g>
						</g>
					</g>
					<g>
						<g>
							<g>
								<path class="st1" d="M522.1,156.4l17.4-65"/>
								<path class="st1" d="M502.8,137.1l36,9.7l9.7-9.7l-32.4-32.4l-32.4,13.3l11.1-26.8"/>
							</g>
							<g>
								<path class="st1" d="M522.1,156.4l-65,17.4"/>
								<path class="st1" d="M502.8,137.1l9.7,36l-9.7,9.7l-32.4-32.4l13.3-32.4L457,129.2"/>
							</g>
						</g>
					</g>
				</g>
			</g>
			<g>
				<g>
					<g>
						<g>
							<g>
								<path class="st1" d="M574.9,339.3l65,17.4"/>
								<path class="st1" d="M594.2,320l-9.7,36l9.7,9.7l32.4-32.4l-13.3-32.4L640,312"/>
							</g>
							<g>
								<path class="st1" d="M574.9,339.3l-17.4-65"/>
								<path class="st1" d="M594.2,320l-36,9.7l-9.7-9.7l32.4-32.4l32.4,13.3l-11.1-26.8"/>
							</g>
						</g>
					</g>
					<g>
						<g>
							<g>
								<path class="st1" d="M574.9,392.1l-17.4,65"/>
								<path class="st1" d="M594.2,411.4l-36-9.7l-9.7,9.7l32.4,32.4l32.4-13.3l-11.1,26.8"/>
							</g>
							<g>
								<path class="st1" d="M574.9,392.1l65-17.4"/>
								<path class="st1" d="M594.2,411.4l-9.7-36l9.7-9.7l32.4,32.4l-13.3,32.4l26.8-11.1"/>
							</g>
						</g>
					</g>
					<g>
						<g>
							<g>
								<path class="st1" d="M522.1,392.1l-65-17.4"/>
								<path class="st1" d="M502.8,411.4l9.7-36l-9.7-9.7L470.4,398l13.3,32.4L457,419.3"/>
							</g>
							<g>
								<path class="st1" d="M522.1,392.1l17.4,65"/>
								<path class="st1" d="M502.8,411.4l36-9.7l9.7,9.7l-32.4,32.4l-32.4-13.3l11.1,26.8"/>
							</g>
						</g>
					</g>
					<g>
						<g>
							<g>
								<path class="st1" d="M522.1,339.3l17.4-65"/>
								<path class="st1" d="M502.8,320l36,9.7l9.7-9.7l-32.4-32.4l-32.4,13.3l11.1-26.8"/>
							</g>
							<g>
								<path class="st1" d="M522.1,339.3l-65,17.4"/>
								<path class="st1" d="M502.8,320l9.7,36l-9.7,9.7l-32.4-32.4l13.3-32.4L457,312"/>
							</g>
						</g>
					</g>
				</g>
			</g>
			<g>
				<g>
					<g>
						<g>
							<g>
								<path class="st1" d="M574.9,522.1l65,17.4"/>
								<path class="st1" d="M594.2,502.8l-9.7,36l9.7,9.7l32.4-32.4l-13.3-32.4l26.8,11.1"/>
							</g>
							<g>
								<path class="st1" d="M574.9,522.1l-17.4-65"/>
								<path class="st1" d="M594.2,502.8l-36,9.7l-9.7-9.7l32.4-32.4l32.4,13.3L602.1,457"/>
							</g>
						</g>
					</g>
					<g>
						<g>
							<g>
								<path class="st1" d="M574.9,574.9l-17.4,65"/>
								<path class="st1" d="M594.2,594.2l-36-9.7l-9.7,9.7l32.4,32.4l32.4-13.3L602.1,640"/>
							</g>
							<g>
								<path class="st1" d="M574.9,574.9l65-17.4"/>
								<path class="st1" d="M594.2,594.2l-9.7-36l9.7-9.7l32.4,32.4l-13.3,32.4l26.8-11.1"/>
							</g>
						</g>
					</g>
					<g>
						<g>
							<g>
								<path class="st1" d="M522.1,574.9l-65-17.4"/>
								<path class="st1" d="M502.8,594.2l9.7-36l-9.7-9.7l-32.4,32.4l13.3,32.4L457,602.1"/>
							</g>
							<g>
								<path class="st1" d="M522.1,574.9l17.4,65"/>
								<path class="st1" d="M502.8,594.2l36-9.7l9.7,9.7l-32.4,32.4l-32.4-13.3l11.1,26.8"/>
							</g>
						</g>
					</g>
					<g>
						<g>
							<g>
								<path class="st1" d="M522.1,522.1l17.4-65"/>
								<path class="st1" d="M502.8,502.8l36,9.7l9.7-9.7l-32.4-32.4l-32.4,13.3l11.1-26.8"/>
							</g>
							<g>
								<path class="st1" d="M522.1,522.1l-65,17.4"/>
								<path class="st1" d="M502.8,502.8l9.7,36l-9.7,9.7l-32.4-32.4l13.3-32.4L457,494.9"/>
							</g>
						</g>
					</g>
				</g>
			</g>
			<g>
				<g>
					<g>
						<g>
							<g>
								<path class="st1" d="M574.9,704.9l65,17.4"/>
								<path class="st1" d="M594.2,685.6l-9.7,36l9.7,9.7l32.4-32.4l-13.3-32.4l26.8,11.1"/>
							</g>
							<g>
								<path class="st1" d="M574.9,704.9l-17.4-65"/>
								<path class="st1" d="M594.2,685.6l-36,9.7l-9.7-9.7l32.4-32.4l32.4,13.3l-11.1-26.8"/>
							</g>
						</g>
					</g>
					<g>
						<g>
							<g>
								<path class="st1" d="M574.9,757.7l-17.4,65"/>
								<path class="st1" d="M594.2,777l-36-9.7l-9.7,9.7l32.4,32.4l32.4-13.3l-11.1,26.8"/>
							</g>
							<g>
								<path class="st1" d="M574.9,757.7l65-17.4"/>
								<path class="st1" d="M594.2,777l-9.7-36l9.7-9.7l32.4,32.4l-13.3,32.4L640,785"/>
							</g>
						</g>
					</g>
					<g>
						<g>
							<g>
								<path class="st1" d="M522.1,757.7l-65-17.4"/>
								<path class="st1" d="M502.8,777l9.7-36l-9.7-9.7l-32.4,32.4l13.3,32.4L457,785"/>
							</g>
							<g>
								<path class="st1" d="M522.1,757.7l17.4,65"/>
								<path class="st1" d="M502.8,777l36-9.7l9.7,9.7l-32.4,32.4l-32.4-13.3l11.1,26.8"/>
							</g>
						</g>
					</g>
					<g>
						<g>
							<g>
								<path class="st1" d="M522.1,704.9l17.4-65"/>
								<path class="st1" d="M502.8,685.6l36,9.7l9.7-9.7l-32.4-32.4l-32.4,13.3l11.1-26.8"/>
							</g>
							<g>
								<path class="st1" d="M522.1,704.9l-65,17.4"/>
								<path class="st1" d="M502.8,685.6l9.7,36l-9.7,9.7L470.4,699l13.3-32.4L457,677.7"/>
							</g>
						</g>
					</g>
				</g>
			</g>
			<g>
				<g>
					<g>
						<g>
							<g>
								<path class="st1" d="M757.7-26.4l65,17.4"/>
								<path class="st1" d="M777-45.7l-9.7,36L777,0l32.4-32.4l-13.3-32.4l26.8,11.1"/>
							</g>
							<g>
								<path class="st1" d="M757.7-26.4l-17.4-65"/>
								<path class="st1" d="M777-45.7L741-36l-9.7-9.7l32.4-32.4l32.4,13.3L785-91.5"/>
							</g>
						</g>
					</g>
					<g>
						<g>
							<g>
								<path class="st1" d="M757.7,26.4l-17.4,65"/>
								<path class="st1" d="M777,45.7L741,36l-9.7,9.7l32.4,32.4l32.4-13.3L785,91.5"/>
							</g>
							<g>
								<path class="st1" d="M757.7,26.4l65-17.4"/>
								<path class="st1" d="M777,45.7l-9.7-36L777,0l32.4,32.4l-13.3,32.4l26.8-11.1"/>
							</g>
						</g>
					</g>
					<g>
						<g>
							<g>
								<path class="st1" d="M704.9,26.4L639.9,9"/>
								<path class="st1" d="M685.6,45.7l9.7-36L685.6,0l-32.4,32.4l13.3,32.4l-26.8-11.1"/>
							</g>
							<g>
								<path class="st1" d="M704.9,26.4l17.4,65"/>
								<path class="st1" d="M685.6,45.7l36-9.7l9.7,9.7L699,78.1l-32.4-13.3l11.1,26.8"/>
							</g>
						</g>
					</g>
					<g>
						<g>
							<g>
								<path class="st1" d="M704.9-26.4l17.4-65"/>
								<path class="st1" d="M685.6-45.7l36,9.7l9.7-9.7L699-78.1l-32.4,13.3l11.1-26.8"/>
							</g>
							<g>
								<path class="st1" d="M704.9-26.4L639.9-9"/>
								<path class="st1" d="M685.6-45.7l9.7,36L685.6,0l-32.4-32.4l13.3-32.4l-26.8,11.1"/>
							</g>
						</g>
					</g>
				</g>
			</g>
			<g>
				<g>
					<g>
						<g>
							<g>
								<path class="st1" d="M757.7,156.4l65,17.4"/>
								<path class="st1" d="M777,137.1l-9.7,36l9.7,9.7l32.4-32.4l-13.3-32.4l26.8,11.1"/>
							</g>
							<g>
								<path class="st1" d="M757.7,156.4l-17.4-65"/>
								<path class="st1" d="M777,137.1l-36,9.7l-9.7-9.7l32.4-32.4l32.4,13.3L785,91.3"/>
							</g>
						</g>
					</g>
					<g>
						<g>
							<g>
								<path class="st1" d="M757.7,209.2l-17.4,65"/>
								<path class="st1" d="M777,228.5l-36-9.7l-9.7,9.7l32.4,32.4l32.4-13.3L785,274.3"/>
							</g>
							<g>
								<path class="st1" d="M757.7,209.2l65-17.4"/>
								<path class="st1" d="M777,228.5l-9.7-36l9.7-9.7l32.4,32.4l-13.3,32.4l26.8-11.1"/>
							</g>
						</g>
					</g>
					<g>
						<g>
							<g>
								<path class="st1" d="M704.9,209.2l-65-17.4"/>
								<path class="st1" d="M685.6,228.5l9.7-36l-9.7-9.7l-32.4,32.4l13.3,32.4l-26.8-11.1"/>
							</g>
							<g>
								<path class="st1" d="M704.9,209.2l17.4,65"/>
								<path class="st1" d="M685.6,228.5l36-9.7l9.7,9.7L699,260.9l-32.4-13.3l11.1,26.8"/>
							</g>
						</g>
					</g>
					<g>
						<g>
							<g>
								<path class="st1" d="M704.9,156.4l17.4-65"/>
								<path class="st1" d="M685.6,137.1l36,9.7l9.7-9.7L699,104.8l-32.4,13.3l11.1-26.8"/>
							</g>
							<g>
								<path class="st1" d="M704.9,156.4l-65,17.4"/>
								<path class="st1" d="M685.6,137.1l9.7,36l-9.7,9.7l-32.4-32.4l13.3-32.4l-26.8,11.1"/>
							</g>
						</g>
					</g>
				</g>
			</g>
			<g>
				<g>
					<g>
						<g>
							<g>
								<path class="st1" d="M757.7,339.3l65,17.4"/>
								<path class="st1" d="M777,320l-9.7,36l9.7,9.7l32.4-32.4l-13.3-32.4l26.8,11.1"/>
							</g>
							<g>
								<path class="st1" d="M757.7,339.3l-17.4-65"/>
								<path class="st1" d="M777,320l-36,9.7l-9.7-9.7l32.4-32.4l32.4,13.3L785,274.2"/>
							</g>
						</g>
					</g>
					<g>
						<g>
							<g>
								<path class="st1" d="M757.7,392.1l-17.4,65"/>
								<path class="st1" d="M777,411.4l-36-9.7l-9.7,9.7l32.4,32.4l32.4-13.3L785,457.2"/>
							</g>
							<g>
								<path class="st1" d="M757.7,392.1l65-17.4"/>
								<path class="st1" d="M777,411.4l-9.7-36l9.7-9.7l32.4,32.4l-13.3,32.4l26.8-11.1"/>
							</g>
						</g>
					</g>
					<g>
						<g>
							<g>
								<path class="st1" d="M704.9,392.1l-65-17.4"/>
								<path class="st1" d="M685.6,411.4l9.7-36l-9.7-9.7L653.3,398l13.3,32.4l-26.8-11.1"/>
							</g>
							<g>
								<path class="st1" d="M704.9,392.1l17.4,65"/>
								<path class="st1" d="M685.6,411.4l36-9.7l9.7,9.7L699,443.7l-32.4-13.3l11.1,26.8"/>
							</g>
						</g>
					</g>
					<g>
						<g>
							<g>
								<path class="st1" d="M704.9,339.3l17.4-65"/>
								<path class="st1" d="M685.6,320l36,9.7l9.7-9.7L699,287.6l-32.4,13.3l11.1-26.8"/>
							</g>
							<g>
								<path class="st1" d="M704.9,339.3l-65,17.4"/>
								<path class="st1" d="M685.6,320l9.7,36l-9.7,9.7l-32.4-32.4l13.3-32.4L639.8,312"/>
							</g>
						</g>
					</g>
				</g>
			</g>
			<g>
				<g>
					<g>
						<g>
							<g>
								<path class="st1" d="M757.7,522.1l65,17.4"/>
								<path class="st1" d="M777,502.8l-9.7,36l9.7,9.7l32.4-32.4l-13.3-32.4l26.8,11.1"/>
							</g>
							<g>
								<path class="st1" d="M757.7,522.1l-17.4-65"/>
								<path class="st1" d="M777,502.8l-36,9.7l-9.7-9.7l32.4-32.4l32.4,13.3L785,457"/>
							</g>
						</g>
					</g>
					<g>
						<g>
							<g>
								<path class="st1" d="M757.7,574.9l-17.4,65"/>
								<path class="st1" d="M777,594.2l-36-9.7l-9.7,9.7l32.4,32.4l32.4-13.3L785,640"/>
							</g>
							<g>
								<path class="st1" d="M757.7,574.9l65-17.4"/>
								<path class="st1" d="M777,594.2l-9.7-36l9.7-9.7l32.4,32.4l-13.3,32.4l26.8-11.1"/>
							</g>
						</g>
					</g>
					<g>
						<g>
							<g>
								<path class="st1" d="M704.9,574.9l-65-17.4"/>
								<path class="st1" d="M685.6,594.2l9.7-36l-9.7-9.7l-32.4,32.4l13.3,32.4l-26.8-11.1"/>
							</g>
							<g>
								<path class="st1" d="M704.9,574.9l17.4,65"/>
								<path class="st1" d="M685.6,594.2l36-9.7l9.7,9.7L699,626.6l-32.4-13.3l11.1,26.8"/>
							</g>
						</g>
					</g>
					<g>
						<g>
							<g>
								<path class="st1" d="M704.9,522.1l17.4-65"/>
								<path class="st1" d="M685.6,502.8l36,9.7l9.7-9.7L699,470.4l-32.4,13.3l11.1-26.8"/>
							</g>
							<g>
								<path class="st1" d="M704.9,522.1l-65,17.4"/>
								<path class="st1" d="M685.6,502.8l9.7,36l-9.7,9.7l-32.4-32.4l13.3-32.4l-26.8,11.1"/>
							</g>
						</g>
					</g>
				</g>
			</g>
			<g>
				<g>
					<g>
						<g>
							<g>
								<path class="st1" d="M757.7,704.9l65,17.4"/>
								<path class="st1" d="M777,685.6l-9.7,36l9.7,9.7l32.4-32.4l-13.3-32.4l26.8,11.1"/>
							</g>
							<g>
								<path class="st1" d="M757.7,704.9l-17.4-65"/>
								<path class="st1" d="M777,685.6l-36,9.7l-9.7-9.7l32.4-32.4l32.4,13.3L785,639.8"/>
							</g>
						</g>
					</g>
					<g>
						<g>
							<g>
								<path class="st1" d="M757.7,757.7l-17.4,65"/>
								<path class="st1" d="M777,777l-36-9.7l-9.7,9.7l32.4,32.4l32.4-13.3L785,822.8"/>
							</g>
							<g>
								<path class="st1" d="M757.7,757.7l65-17.4"/>
								<path class="st1" d="M777,777l-9.7-36l9.7-9.7l32.4,32.4l-13.3,32.4l26.8-11.1"/>
							</g>
						</g>
					</g>
					<g>
						<g>
							<g>
								<path class="st1" d="M704.9,757.7l-65-17.4"/>
								<path class="st1" d="M685.6,777l9.7-36l-9.7-9.7l-32.4,32.4l13.3,32.4L639.8,785"/>
							</g>
							<g>
								<path class="st1" d="M704.9,757.7l17.4,65"/>
								<path class="st1" d="M685.6,777l36-9.7l9.7,9.7L699,809.4l-32.4-13.3l11.1,26.8"/>
							</g>
						</g>
					</g>
					<g>
						<g>
							<g>
								<path class="st1" d="M704.9,704.9l17.4-65"/>
								<path class="st1" d="M685.6,685.6l36,9.7l9.7-9.7L699,653.3l-32.4,13.3l11.1-26.8"/>
							</g>
							<g>
								<path class="st1" d="M704.9,704.9l-65,17.4"/>
								<path class="st1" d="M685.6,685.6l9.7,36l-9.7,9.7L653.3,699l13.3-32.4l-26.8,11.1"/>
							</g>
						</g>
					</g>
				</g>
			</g>
		</g>
	</g>
</g>
</svg>
