<svg version="1.1" xmlns="http://www.w3.org/2000/svg" xmlns:xlink="http://www.w3.org/1999/xlink" width="400" height="400" viewBox="0 0 400 400"><defs/><g><g><g><path fill="none" stroke="#000000" paint-order="fill stroke markers" d=" M 200 200 L 200 140 L 221.96152422706632 118.03847577293367 L 230 148.03847577293368 L 200 200 L 200 200 Z" stroke-linecap="round" stroke-miterlimit="10" stroke-dasharray=""/></g><g><path fill="none" stroke="#000000" paint-order="fill stroke markers" d=" M 200 200 L 230 148.03847577293368 L 260 140 L 251.96152422706632 170 L 200 200 L 200 200 Z" stroke-linecap="round" stroke-miterlimit="10" stroke-dasharray=""/></g><g><path fill="none" stroke="#000000" paint-order="fill stroke markers" d=" M 200 200 L 251.96152422706632 170 L 281.9615242270663 178.03847577293368 L 260 200 L 200 200 L 200 200 Z" stroke-linecap="round" stroke-miterlimit="10" stroke-dasharray=""/></g><g><path fill="none" stroke="#000000" paint-order="fill stroke markers" d=" M 200 200 L 260 200 L 281.9615242270663 221.96152422706632 L 251.96152422706632 230 L 200 200 L 200 200 Z" stroke-linecap="round" stroke-miterlimit="10" stroke-dasharray=""/></g><g><path fill="none" stroke="#000000" paint-order="fill stroke markers" d=" M 200 200 L 251.96152422706632 230 L 260 260 L 230 251.96152422706632 L 200 200 L 200 200 Z" stroke-linecap="round" stroke-miterlimit="10" stroke-dasharray=""/></g><g><path fill="none" stroke="#000000" paint-order="fill stroke markers" d=" M 200 200 L 230 251.96152422706632 L 221.96152422706632 281.9615242270663 L 200 260 L 200 200 L 200 200 Z" stroke-linecap="round" stroke-miterlimit="10" stroke-dasharray=""/></g><g><path fill="none" stroke="#000000" paint-order="fill stroke markers" d=" M 200 200 L 200 260 L 178.03847577293368 281.9615242270663 L 170 251.96152422706632 L 200 200 L 200 200 Z" stroke-linecap="round" stroke-miterlimit="10" stroke-dasharray=""/></g><g><path fill="none" stroke="#000000" paint-order="fill stroke markers" d=" M 200 200 L 170 251.96152422706632 L 140 260 L 148.03847577293368 230 L 200 200 L 200 200 Z" stroke-linecap="round" stroke-miterlimit="10" stroke-dasharray=""/></g><g><path fill="none" stroke="#000000" paint-order="fill stroke markers" d=" M 200 200 L 148.03847577293368 230.00000000000003 L 118.03847577293368 221.96152422706638 L 140 200.00000000000003 L 200 200 L 200 200 Z" stroke-linecap="round" stroke-miterlimit="10" stroke-dasharray=""/></g><g><path fill="none" stroke="#000000" paint-order="fill stroke markers" d=" M 200 200 L 140 200 L 118.03847577293367 178.03847577293368 L 148.03847577293368 170 L 200 200 L 200 200 Z" stroke-linecap="round" stroke-miterlimit="10" stroke-dasharray=""/></g><g><path fill="none" stroke="#000000" paint-order="fill stroke markers" d=" M 200 200 L 148.03847577293368 170 L 140 140 L 170 148.03847577293368 L 200 200 L 200 200 Z" stroke-linecap="round" stroke-miterlimit="10" stroke-dasharray=""/></g><g><path fill="none" stroke="#000000" paint-order="fill stroke markers" d=" M 200 200 L 169.99999999999997 148.03847577293368 L 178.03847577293362 118.03847577293368 L 199.99999999999997 140 L 200 200 L 200 200 Z" stroke-linecap="round" stroke-miterlimit="10" stroke-dasharray=""/></g><g><path fill="none" stroke="#000000" paint-order="fill stroke markers" d=" M 200 140 L 200 105.35898384862244 L 230 88.03847577293365 L 221.96152422706632 118.03847577293367 L 200 140 L 200 140 Z" stroke-linecap="round" stroke-miterlimit="10" stroke-dasharray=""/><path fill="none" stroke="#000000" paint-order="fill stroke markers" d=" M 200 140 L 200 105.35898384862244 L 170 88.03847577293365 L 178.03847577293368 118.03847577293367 L 200 140 L 200 140 Z" stroke-linecap="round" stroke-miterlimit="10" stroke-dasharray=""/></g><g><path fill="none" stroke="#000000" paint-order="fill stroke markers" d=" M 230 148.03847577293368 L 247.32050807568876 118.03847577293367 L 281.9615242270663 118.03847577293365 L 260 140 L 230 148.03847577293368 L 230 148.03847577293368 Z" stroke-linecap="round" stroke-miterlimit="10" stroke-dasharray=""/><path fill="none" stroke="#000000" paint-order="fill stroke markers" d=" M 230 148.03847577293368 L 247.32050807568876 118.03847577293367 L 230 88.03847577293365 L 221.96152422706632 118.03847577293367 L 230 148.03847577293368 L 230 148.03847577293368 Z" stroke-linecap="round" stroke-miterlimit="10" stroke-dasharray=""/></g><g><path fill="none" stroke="#000000" paint-order="fill stroke markers" d=" M 251.96152422706632 170 L 281.9615242270663 152.6794919243112 L 311.9615242270663 169.99999999999997 L 281.9615242270663 178.03847577293368 L 251.96152422706632 170 L 251.96152422706632 170 Z" stroke-linecap="round" stroke-miterlimit="10" stroke-dasharray=""/><path fill="none" stroke="#000000" paint-order="fill stroke markers" d=" M 251.96152422706632 170 L 281.9615242270663 152.6794919243112 L 281.9615242270663 118.03847577293365 L 260 140 L 251.96152422706632 170 L 251.96152422706632 170 Z" stroke-linecap="round" stroke-miterlimit="10" stroke-dasharray=""/></g><g><path fill="none" stroke="#000000" paint-order="fill stroke markers" d=" M 260 200 L 294.6410161513776 200 L 311.9615242270663 230 L 281.9615242270663 221.96152422706632 L 260 200 L 260 200 Z" stroke-linecap="round" stroke-miterlimit="10" stroke-dasharray=""/><path fill="none" stroke="#000000" paint-order="fill stroke markers" d=" M 260 200 L 294.6410161513776 200 L 311.9615242270663 170 L 281.9615242270663 178.03847577293368 L 260 200 L 260 200 Z" stroke-linecap="round" stroke-miterlimit="10" stroke-dasharray=""/></g><g><path fill="none" stroke="#000000" paint-order="fill stroke markers" d=" M 251.96152422706632 230 L 281.9615242270663 247.32050807568876 L 281.9615242270663 281.9615242270663 L 260 260 L 251.96152422706632 230 L 251.96152422706632 230 Z" stroke-linecap="round" stroke-miterlimit="10" stroke-dasharray=""/><path fill="none" stroke="#000000" paint-order="fill stroke markers" d=" M 251.96152422706632 230 L 281.9615242270663 247.32050807568876 L 311.9615242270663 230 L 281.9615242270663 221.96152422706632 L 251.96152422706632 230 L 251.96152422706632 230 Z" stroke-linecap="round" stroke-miterlimit="10" stroke-dasharray=""/></g><g><path fill="none" stroke="#000000" paint-order="fill stroke markers" d=" M 230 251.96152422706632 L 247.32050807568876 281.9615242270663 L 230 311.9615242270663 L 221.96152422706632 281.9615242270663 L 230 251.96152422706632 L 230 251.96152422706632 Z" stroke-linecap="round" stroke-miterlimit="10" stroke-dasharray=""/><path fill="none" stroke="#000000" paint-order="fill stroke markers" d=" M 230 251.96152422706632 L 247.32050807568876 281.9615242270663 L 281.9615242270663 281.9615242270663 L 260 260 L 230 251.96152422706632 L 230 251.96152422706632 Z" stroke-linecap="round" stroke-miterlimit="10" stroke-dasharray=""/></g><g><path fill="none" stroke="#000000" paint-order="fill stroke markers" d=" M 200 260 L 200 294.6410161513776 L 170 311.9615242270663 L 178.03847577293368 281.9615242270663 L 200 260 L 200 260 Z" stroke-linecap="round" stroke-miterlimit="10" stroke-dasharray=""/><path fill="none" stroke="#000000" paint-order="fill stroke markers" d=" M 200 260 L 200 294.6410161513776 L 230.00000000000003 311.9615242270663 L 221.96152422706632 281.9615242270663 L 200 260 L 200 260 Z" stroke-linecap="round" stroke-miterlimit="10" stroke-dasharray=""/></g><g><path fill="none" stroke="#000000" paint-order="fill stroke markers" d=" M 170 251.96152422706632 L 152.6794919243112 281.9615242270663 L 118.03847577293365 281.9615242270663 L 140 260 L 170 251.96152422706632 L 170 251.96152422706632 Z" stroke-linecap="round" stroke-miterlimit="10" stroke-dasharray=""/><path fill="none" stroke="#000000" paint-order="fill stroke markers" d=" M 170 251.96152422706632 L 152.6794919243112 281.9615242270663 L 169.99999999999997 311.9615242270663 L 178.03847577293368 281.9615242270663 L 170 251.96152422706632 L 170 251.96152422706632 Z" stroke-linecap="round" stroke-miterlimit="10" stroke-dasharray=""/></g><g><path fill="none" stroke="#000000" paint-order="fill stroke markers" d=" M 148.03847577293368 230.00000000000003 L 118.0384757729337 247.32050807568882 L 88.03847577293367 230.00000000000006 L 118.03847577293368 221.96152422706638 L 148.03847577293368 230.00000000000003 L 148.03847577293368 230.00000000000003 Z" stroke-linecap="round" stroke-miterlimit="10" stroke-dasharray=""/><path fill="none" stroke="#000000" paint-order="fill stroke markers" d=" M 148.03847577293368 230.00000000000003 L 118.0384757729337 247.32050807568882 L 118.0384757729337 281.9615242270664 L 140.00000000000003 260.00000000000006 L 148.03847577293368 230.00000000000003 L 148.03847577293368 230.00000000000003 Z" stroke-linecap="round" stroke-miterlimit="10" stroke-dasharray=""/></g><g><path fill="none" stroke="#000000" paint-order="fill stroke markers" d=" M 140 200 L 105.35898384862244 200.00000000000003 L 88.03847577293365 170.00000000000003 L 118.03847577293367 178.03847577293368 L 140 200 L 140 200 Z" stroke-linecap="round" stroke-miterlimit="10" stroke-dasharray=""/><path fill="none" stroke="#000000" paint-order="fill stroke markers" d=" M 140 200 L 105.35898384862244 200.00000000000003 L 88.03847577293365 230.00000000000003 L 118.03847577293367 221.96152422706632 L 140 200 L 140 200 Z" stroke-linecap="round" stroke-miterlimit="10" stroke-dasharray=""/></g><g><path fill="none" stroke="#000000" paint-order="fill stroke markers" d=" M 148.03847577293368 170 L 118.03847577293368 152.6794919243112 L 118.03847577293367 118.03847577293365 L 140 140 L 148.03847577293368 170 L 148.03847577293368 170 Z" stroke-linecap="round" stroke-miterlimit="10" stroke-dasharray=""/><path fill="none" stroke="#000000" paint-order="fill stroke markers" d=" M 148.03847577293368 170 L 118.03847577293368 152.6794919243112 L 88.03847577293367 169.99999999999997 L 118.03847577293367 178.03847577293368 L 148.03847577293368 170 L 148.03847577293368 170 Z" stroke-linecap="round" stroke-miterlimit="10" stroke-dasharray=""/></g><g><path fill="none" stroke="#000000" paint-order="fill stroke markers" d=" M 169.99999999999997 148.03847577293368 L 152.67949192431118 118.0384757729337 L 169.99999999999994 88.03847577293367 L 178.03847577293362 118.03847577293368 L 169.99999999999997 148.03847577293368 L 169.99999999999997 148.03847577293368 Z" stroke-linecap="round" stroke-miterlimit="10" stroke-dasharray=""/><path fill="none" stroke="#000000" paint-order="fill stroke markers" d=" M 169.99999999999997 148.03847577293368 L 152.67949192431118 118.0384757729337 L 118.03847577293362 118.0384757729337 L 139.99999999999994 140.00000000000003 L 169.99999999999997 148.03847577293368 L 169.99999999999997 148.03847577293368 Z" stroke-linecap="round" stroke-miterlimit="10" stroke-dasharray=""/></g><g><path fill="none" stroke="#000000" paint-order="fill stroke markers" d=" M 200 105.35898384862244 L 230 88.03847577293365 L 247.3205080756888 118.03847577293368 L 270.98076211353316 77.05771365940053 L 238.03847577293368 58.03847577293368 L 212.67949192431124 58.03847577293368 L 200 36.07695154586736" stroke-linecap="round" stroke-miterlimit="10" stroke-dasharray=""/><path fill="none" stroke="#000000" paint-order="fill stroke markers" d=" M 200 105.35898384862244 L 260 70.71796769724492" stroke-linecap="round" stroke-miterlimit="10" stroke-dasharray=""/><path fill="none" stroke="#000000" paint-order="fill stroke markers" d=" M 247.3205080756888 118.03847577293368 L 212.67949192431124 58.03847577293368 L 200 79.99999999999999 L 200 105.35898384862244" stroke-linecap="round" stroke-miterlimit="10" stroke-dasharray=""/><path fill="none" stroke="#000000" paint-order="fill stroke markers" d=" M 200 105.35898384862244 L 170 88.03847577293365 L 152.6794919243112 118.03847577293368 L 129.01923788646684 77.05771365940053 L 161.96152422706632 58.03847577293368 L 187.32050807568876 58.03847577293368 L 200 36.07695154586736" stroke-linecap="round" stroke-miterlimit="10" stroke-dasharray=""/><path fill="none" stroke="#000000" paint-order="fill stroke markers" d=" M 200 105.35898384862244 L 139.99999999999997 70.71796769724492" stroke-linecap="round" stroke-miterlimit="10" stroke-dasharray=""/><path fill="none" stroke="#000000" paint-order="fill stroke markers" d=" M 152.6794919243112 118.03847577293368 L 187.32050807568876 58.03847577293368 L 200 79.99999999999999 L 200 105.35898384862244" stroke-linecap="round" stroke-miterlimit="10" stroke-dasharray=""/></g><g><path fill="none" stroke="#000000" paint-order="fill stroke markers" d=" M 281.9615242270663 152.6794919243112 L 311.9615242270663 169.99999999999997 L 294.6410161513776 200 L 341.9615242270663 200 L 341.9615242270663 161.9615242270663 L 329.28203230275506 140 L 341.9615242270663 118.03847577293367" stroke-linecap="round" stroke-miterlimit="10" stroke-dasharray=""/><path fill="none" stroke="#000000" paint-order="fill stroke markers" d=" M 281.9615242270663 152.6794919243112 L 341.9615242270663 187.3205080756888" stroke-linecap="round" stroke-miterlimit="10" stroke-dasharray=""/><path fill="none" stroke="#000000" paint-order="fill stroke markers" d=" M 294.6410161513776 200 L 329.28203230275506 140 L 303.92304845413264 139.99999999999997 L 281.9615242270663 152.6794919243112" stroke-linecap="round" stroke-miterlimit="10" stroke-dasharray=""/><path fill="none" stroke="#000000" paint-order="fill stroke markers" d=" M 281.9615242270663 152.6794919243112 L 281.9615242270663 118.03847577293365 L 247.32050807568876 118.03847577293367 L 270.98076211353316 77.0577136594005 L 303.92304845413264 96.07695154586736 L 316.60254037844385 118.03847577293367 L 341.9615242270663 118.03847577293367" stroke-linecap="round" stroke-miterlimit="10" stroke-dasharray=""/><path fill="none" stroke="#000000" paint-order="fill stroke markers" d=" M 281.9615242270663 152.6794919243112 L 281.9615242270663 83.39745962155611" stroke-linecap="round" stroke-miterlimit="10" stroke-dasharray=""/><path fill="none" stroke="#000000" paint-order="fill stroke markers" d=" M 247.32050807568876 118.03847577293367 L 316.60254037844385 118.03847577293367 L 303.92304845413264 139.99999999999997 L 281.9615242270663 152.6794919243112" stroke-linecap="round" stroke-miterlimit="10" stroke-dasharray=""/></g><g><path fill="none" stroke="#000000" paint-order="fill stroke markers" d=" M 281.9615242270663 247.32050807568876 L 281.9615242270663 281.9615242270663 L 247.3205080756888 281.9615242270663 L 270.98076211353316 322.9422863405995 L 303.92304845413264 303.92304845413264 L 316.6025403784439 281.9615242270663 L 341.9615242270663 281.9615242270663" stroke-linecap="round" stroke-miterlimit="10" stroke-dasharray=""/><path fill="none" stroke="#000000" paint-order="fill stroke markers" d=" M 281.9615242270663 247.32050807568876 L 281.9615242270663 316.60254037844385" stroke-linecap="round" stroke-miterlimit="10" stroke-dasharray=""/><path fill="none" stroke="#000000" paint-order="fill stroke markers" d=" M 247.3205080756888 281.9615242270663 L 316.6025403784439 281.9615242270663 L 303.92304845413264 260 L 281.9615242270663 247.32050807568876" stroke-linecap="round" stroke-miterlimit="10" stroke-dasharray=""/><path fill="none" stroke="#000000" paint-order="fill stroke markers" d=" M 281.9615242270663 247.32050807568876 L 311.9615242270663 230 L 294.6410161513775 199.99999999999997 L 341.9615242270663 199.99999999999994 L 341.9615242270663 238.03847577293365 L 329.2820323027551 260 L 341.9615242270663 281.9615242270663" stroke-linecap="round" stroke-miterlimit="10" stroke-dasharray=""/><path fill="none" stroke="#000000" paint-order="fill stroke markers" d=" M 281.9615242270663 247.32050807568876 L 341.9615242270663 212.67949192431118" stroke-linecap="round" stroke-miterlimit="10" stroke-dasharray=""/><path fill="none" stroke="#000000" paint-order="fill stroke markers" d=" M 294.6410161513775 199.99999999999997 L 329.2820323027551 260 L 303.92304845413264 260 L 281.9615242270663 247.32050807568876" stroke-linecap="round" stroke-miterlimit="10" stroke-dasharray=""/></g><g><path fill="none" stroke="#000000" paint-order="fill stroke markers" d=" M 200 294.6410161513776 L 170 311.9615242270663 L 152.6794919243112 281.9615242270663 L 129.01923788646684 322.9422863405995 L 161.96152422706632 341.9615242270663 L 187.3205080756888 341.9615242270663 L 200.00000000000003 363.92304845413264" stroke-linecap="round" stroke-miterlimit="10" stroke-dasharray=""/><path fill="none" stroke="#000000" paint-order="fill stroke markers" d=" M 200 294.6410161513776 L 140 329.28203230275506" stroke-linecap="round" stroke-miterlimit="10" stroke-dasharray=""/><path fill="none" stroke="#000000" paint-order="fill stroke markers" d=" M 152.6794919243112 281.9615242270663 L 187.3205080756888 341.9615242270663 L 200.00000000000003 320 L 200 294.6410161513776" stroke-linecap="round" stroke-miterlimit="10" stroke-dasharray=""/><path fill="none" stroke="#000000" paint-order="fill stroke markers" d=" M 200 294.6410161513776 L 230.00000000000003 311.9615242270663 L 247.3205080756888 281.9615242270663 L 270.98076211353316 322.9422863405995 L 238.03847577293368 341.9615242270663 L 212.67949192431124 341.9615242270663 L 200.00000000000003 363.92304845413264" stroke-linecap="round" stroke-miterlimit="10" stroke-dasharray=""/><path fill="none" stroke="#000000" paint-order="fill stroke markers" d=" M 200 294.6410161513776 L 260.00000000000006 329.28203230275506" stroke-linecap="round" stroke-miterlimit="10" stroke-dasharray=""/><path fill="none" stroke="#000000" paint-order="fill stroke markers" d=" M 247.3205080756888 281.9615242270663 L 212.67949192431124 341.9615242270663 L 200.00000000000003 320 L 200 294.6410161513776" stroke-linecap="round" stroke-miterlimit="10" stroke-dasharray=""/></g><g><path fill="none" stroke="#000000" paint-order="fill stroke markers" d=" M 118.0384757729337 247.32050807568882 L 88.03847577293367 230.00000000000006 L 105.35898384862246 200.00000000000003 L 58.03847577293368 200.00000000000006 L 58.03847577293371 238.03847577293374 L 70.71796769724494 260.00000000000006 L 58.03847577293374 281.9615242270664" stroke-linecap="round" stroke-miterlimit="10" stroke-dasharray=""/><path fill="none" stroke="#000000" paint-order="fill stroke markers" d=" M 118.0384757729337 247.32050807568882 L 58.03847577293368 212.67949192431126" stroke-linecap="round" stroke-miterlimit="10" stroke-dasharray=""/><path fill="none" stroke="#000000" paint-order="fill stroke markers" d=" M 105.35898384862246 200.00000000000003 L 70.71796769724494 260.00000000000006 L 96.07695154586739 260.00000000000006 L 118.0384757729337 247.32050807568882" stroke-linecap="round" stroke-miterlimit="10" stroke-dasharray=""/><path fill="none" stroke="#000000" paint-order="fill stroke markers" d=" M 118.0384757729337 247.32050807568882 L 118.0384757729337 281.9615242270664 L 152.67949192431126 281.9615242270663 L 129.01923788646693 322.94228634059954 L 96.07695154586742 303.9230484541327 L 83.39745962155618 281.9615242270664 L 58.03847577293374 281.9615242270664" stroke-linecap="round" stroke-miterlimit="10" stroke-dasharray=""/><path fill="none" stroke="#000000" paint-order="fill stroke markers" d=" M 118.0384757729337 247.32050807568882 L 118.03847577293377 316.6025403784439" stroke-linecap="round" stroke-miterlimit="10" stroke-dasharray=""/><path fill="none" stroke="#000000" paint-order="fill stroke markers" d=" M 152.67949192431126 281.9615242270663 L 83.39745962155618 281.9615242270664 L 96.07695154586739 260.00000000000006 L 118.0384757729337 247.32050807568882" stroke-linecap="round" stroke-miterlimit="10" stroke-dasharray=""/></g><g><path fill="none" stroke="#000000" paint-order="fill stroke markers" d=" M 118.03847577293368 152.6794919243112 L 118.03847577293367 118.03847577293365 L 152.67949192431124 118.03847577293367 L 129.01923788646687 77.0577136594005 L 96.07695154586737 96.07695154586736 L 83.39745962155615 118.03847577293367 L 58.03847577293368 118.03847577293367" stroke-linecap="round" stroke-miterlimit="10" stroke-dasharray=""/><path fill="none" stroke="#000000" paint-order="fill stroke markers" d=" M 118.03847577293368 152.6794919243112 L 118.03847577293371 83.39745962155611" stroke-linecap="round" stroke-miterlimit="10" stroke-dasharray=""/><path fill="none" stroke="#000000" paint-order="fill stroke markers" d=" M 152.67949192431124 118.03847577293367 L 83.39745962155615 118.03847577293367 L 96.07695154586736 139.99999999999997 L 118.03847577293368 152.6794919243112" stroke-linecap="round" stroke-miterlimit="10" stroke-dasharray=""/><path fill="none" stroke="#000000" paint-order="fill stroke markers" d=" M 118.03847577293368 152.6794919243112 L 88.03847577293367 169.99999999999997 L 105.35898384862244 200 L 58.03847577293368 200 L 58.03847577293368 161.9615242270663 L 70.71796769724492 140 L 58.03847577293368 118.03847577293367" stroke-linecap="round" stroke-miterlimit="10" stroke-dasharray=""/><path fill="none" stroke="#000000" paint-order="fill stroke markers" d=" M 118.03847577293368 152.6794919243112 L 58.03847577293368 187.3205080756888" stroke-linecap="round" stroke-miterlimit="10" stroke-dasharray=""/><path fill="none" stroke="#000000" paint-order="fill stroke markers" d=" M 105.35898384862244 200 L 70.71796769724492 140 L 96.07695154586736 139.99999999999997 L 118.03847577293368 152.6794919243112" stroke-linecap="round" stroke-miterlimit="10" stroke-dasharray=""/></g></g></g></svg>