<svg version="1.1" xmlns="http://www.w3.org/2000/svg" xmlns:xlink="http://www.w3.org/1999/xlink" width="400" height="400" viewBox="0 0 400 400"><defs/><g><rect fill="rgb(255,255,255)" stroke="none" x="0" y="0" width="400" height="400" transform="matrix(1 0 0 1 0 0)" fill-opacity="1"/><g><g><path fill="none" stroke="#000000" paint-order="fill stroke markers" d=" M 268.2842712474619 131.7157287525381 L 308.2842712474619 131.7157287525381 L 336.5685424949238 63.43145750507621" stroke-linecap="round" stroke-miterlimit="10" stroke-dasharray=""/><path fill="none" stroke="#000000" paint-order="fill stroke markers" d=" M 268.2842712474619 131.7157287525381 L 268.2842712474619 171.7157287525381 L 336.5685424949238 200" stroke-linecap="round" stroke-miterlimit="10" stroke-dasharray=""/><path fill="none" stroke="#000000" paint-order="fill stroke markers" d=" M 268.2842712474619 131.7157287525381 L 268.2842712474619 91.7157287525381 L 200 63.43145750507621" stroke-linecap="round" stroke-miterlimit="10" stroke-dasharray=""/><path fill="none" stroke="#000000" paint-order="fill stroke markers" d=" M 268.2842712474619 131.7157287525381 L 228.2842712474619 131.71572875253813 L 200.00000000000003 200" stroke-linecap="round" stroke-miterlimit="10" stroke-dasharray=""/></g><g><path fill="none" stroke="#000000" paint-order="fill stroke markers" d=" M 268.2842712474619 268.2842712474619 L 308.2842712474619 268.2842712474619 L 336.5685424949238 336.5685424949238" stroke-linecap="round" stroke-miterlimit="10" stroke-dasharray=""/><path fill="none" stroke="#000000" paint-order="fill stroke markers" d=" M 268.2842712474619 268.2842712474619 L 268.2842712474619 228.2842712474619 L 336.5685424949238 200" stroke-linecap="round" stroke-miterlimit="10" stroke-dasharray=""/><path fill="none" stroke="#000000" paint-order="fill stroke markers" d=" M 268.2842712474619 268.2842712474619 L 268.2842712474619 308.2842712474619 L 200 336.5685424949238" stroke-linecap="round" stroke-miterlimit="10" stroke-dasharray=""/><path fill="none" stroke="#000000" paint-order="fill stroke markers" d=" M 268.2842712474619 268.2842712474619 L 228.2842712474619 268.2842712474619 L 200.00000000000003 200" stroke-linecap="round" stroke-miterlimit="10" stroke-dasharray=""/></g><g><path fill="none" stroke="#000000" paint-order="fill stroke markers" d=" M 131.7157287525381 268.2842712474619 L 91.7157287525381 268.2842712474619 L 63.431457505076196 336.5685424949238" stroke-linecap="round" stroke-miterlimit="10" stroke-dasharray=""/><path fill="none" stroke="#000000" paint-order="fill stroke markers" d=" M 131.7157287525381 268.2842712474619 L 131.7157287525381 228.2842712474619 L 63.43145750507621 200" stroke-linecap="round" stroke-miterlimit="10" stroke-dasharray=""/><path fill="none" stroke="#000000" paint-order="fill stroke markers" d=" M 131.7157287525381 268.2842712474619 L 131.7157287525381 308.2842712474619 L 200 336.5685424949238" stroke-linecap="round" stroke-miterlimit="10" stroke-dasharray=""/><path fill="none" stroke="#000000" paint-order="fill stroke markers" d=" M 131.7157287525381 268.2842712474619 L 171.7157287525381 268.2842712474619 L 199.99999999999997 200" stroke-linecap="round" stroke-miterlimit="10" stroke-dasharray=""/></g><g><path fill="none" stroke="#000000" paint-order="fill stroke markers" d=" M 131.7157287525381 131.7157287525381 L 91.7157287525381 131.7157287525381 L 63.431457505076196 63.43145750507621" stroke-linecap="round" stroke-miterlimit="10" stroke-dasharray=""/><path fill="none" stroke="#000000" paint-order="fill stroke markers" d=" M 131.7157287525381 131.7157287525381 L 131.7157287525381 171.7157287525381 L 63.43145750507621 200" stroke-linecap="round" stroke-miterlimit="10" stroke-dasharray=""/><path fill="none" stroke="#000000" paint-order="fill stroke markers" d=" M 131.7157287525381 131.7157287525381 L 131.7157287525381 91.7157287525381 L 200 63.43145750507621" stroke-linecap="round" stroke-miterlimit="10" stroke-dasharray=""/><path fill="none" stroke="#000000" paint-order="fill stroke markers" d=" M 131.7157287525381 131.7157287525381 L 171.7157287525381 131.71572875253813 L 199.99999999999997 200" stroke-linecap="round" stroke-miterlimit="10" stroke-dasharray=""/></g></g></g></svg>