<?xml version="1.0" encoding="utf-8"?>
<!-- Generator: Adobe Illustrator 27.7.0, SVG Export Plug-In . SVG Version: 6.00 Build 0)  -->
<svg version="1.1" xmlns="http://www.w3.org/2000/svg" xmlns:xlink="http://www.w3.org/1999/xlink" x="0px" y="0px"
	 viewBox="0 0 800 800" style="enable-background:new 0 0 800 800;" xml:space="preserve">
<style type="text/css">
	.st0{fill:#FFFFFF;}
	.st1{fill:none;stroke:#000000;stroke-linecap:round;stroke-miterlimit:10;}
</style>
<g id="Layer_2">
	<rect class="st0" width="800" height="800"/>
</g>
<g id="Layer_1">
	<g>
		<g>
			<g>
				<g>
					<path class="st1" d="M34.1-34.1h20l14.1-34.1"/>
					<path class="st1" d="M34.1-34.1v20L68.3,0"/>
					<path class="st1" d="M34.1-34.1v-20L0-68.3"/>
					<path class="st1" d="M34.1-34.1h-20L0,0"/>
				</g>
				<g>
					<path class="st1" d="M34.1,34.1h20l14.1,34.1"/>
					<path class="st1" d="M34.1,34.1v-20L68.3,0"/>
					<path class="st1" d="M34.1,34.1v20L0,68.3"/>
					<path class="st1" d="M34.1,34.1h-20L0,0"/>
				</g>
				<g>
					<path class="st1" d="M-34.1,34.1h-20l-14.1,34.1"/>
					<path class="st1" d="M-34.1,34.1v-20L-68.3,0"/>
					<path class="st1" d="M-34.1,34.1v20L0,68.3"/>
					<path class="st1" d="M-34.1,34.1h20L0,0"/>
				</g>
				<g>
					<path class="st1" d="M-34.1-34.1h-20l-14.1-34.1"/>
					<path class="st1" d="M-34.1-34.1v20L-68.3,0"/>
					<path class="st1" d="M-34.1-34.1v-20L0-68.3"/>
					<path class="st1" d="M-34.1-34.1h20L0,0"/>
				</g>
			</g>
			<g>
				<g>
					<path class="st1" d="M170.7-34.1h20l14.1-34.1"/>
					<path class="st1" d="M170.7-34.1v20L204.9,0"/>
					<path class="st1" d="M170.7-34.1v-20l-34.1-14.1"/>
					<path class="st1" d="M170.7-34.1h-20L136.6,0"/>
				</g>
				<g>
					<path class="st1" d="M170.7,34.1h20l14.1,34.1"/>
					<path class="st1" d="M170.7,34.1v-20L204.9,0"/>
					<path class="st1" d="M170.7,34.1v20l-34.1,14.1"/>
					<path class="st1" d="M170.7,34.1h-20L136.6,0"/>
				</g>
				<g>
					<path class="st1" d="M102.4,34.1h-20L68.3,68.3"/>
					<path class="st1" d="M102.4,34.1v-20L68.3,0"/>
					<path class="st1" d="M102.4,34.1v20l34.1,14.1"/>
					<path class="st1" d="M102.4,34.1h20L136.6,0"/>
				</g>
				<g>
					<path class="st1" d="M102.4-34.1h-20L68.3-68.3"/>
					<path class="st1" d="M102.4-34.1v20L68.3,0"/>
					<path class="st1" d="M102.4-34.1v-20l34.1-14.1"/>
					<path class="st1" d="M102.4-34.1h20L136.6,0"/>
				</g>
			</g>
			<g>
				<g>
					<path class="st1" d="M307.3-34.1h20l14.1-34.1"/>
					<path class="st1" d="M307.3-34.1v20L341.4,0"/>
					<path class="st1" d="M307.3-34.1v-20l-34.1-14.1"/>
					<path class="st1" d="M307.3-34.1h-20L273.1,0"/>
				</g>
				<g>
					<path class="st1" d="M307.3,34.1h20l14.1,34.1"/>
					<path class="st1" d="M307.3,34.1v-20L341.4,0"/>
					<path class="st1" d="M307.3,34.1v20l-34.1,14.1"/>
					<path class="st1" d="M307.3,34.1h-20L273.1,0"/>
				</g>
				<g>
					<path class="st1" d="M239,34.1h-20l-14.1,34.1"/>
					<path class="st1" d="M239,34.1v-20L204.9,0"/>
					<path class="st1" d="M239,34.1v20l34.1,14.1"/>
					<path class="st1" d="M239,34.1h20L273.1,0"/>
				</g>
				<g>
					<path class="st1" d="M239-34.1h-20l-14.1-34.1"/>
					<path class="st1" d="M239-34.1v20L204.9,0"/>
					<path class="st1" d="M239-34.1v-20l34.1-14.1"/>
					<path class="st1" d="M239-34.1h20L273.1,0"/>
				</g>
			</g>
			<g>
				<g>
					<path class="st1" d="M443.8-34.1h20L478-68.3"/>
					<path class="st1" d="M443.8-34.1v20L478,0"/>
					<path class="st1" d="M443.8-34.1v-20l-34.1-14.1"/>
					<path class="st1" d="M443.8-34.1h-20L409.7,0"/>
				</g>
				<g>
					<path class="st1" d="M443.8,34.1h20L478,68.3"/>
					<path class="st1" d="M443.8,34.1v-20L478,0"/>
					<path class="st1" d="M443.8,34.1v20l-34.1,14.1"/>
					<path class="st1" d="M443.8,34.1h-20L409.7,0"/>
				</g>
				<g>
					<path class="st1" d="M375.6,34.1h-20l-14.1,34.1"/>
					<path class="st1" d="M375.6,34.1v-20L341.4,0"/>
					<path class="st1" d="M375.6,34.1v20l34.1,14.1"/>
					<path class="st1" d="M375.6,34.1h20L409.7,0"/>
				</g>
				<g>
					<path class="st1" d="M375.6-34.1h-20l-14.1-34.1"/>
					<path class="st1" d="M375.6-34.1v20L341.4,0"/>
					<path class="st1" d="M375.6-34.1v-20l34.1-14.1"/>
					<path class="st1" d="M375.6-34.1h20L409.7,0"/>
				</g>
			</g>
			<g>
				<g>
					<path class="st1" d="M580.4-34.1h20l14.1-34.1"/>
					<path class="st1" d="M580.4-34.1v20L614.6,0"/>
					<path class="st1" d="M580.4-34.1v-20l-34.1-14.1"/>
					<path class="st1" d="M580.4-34.1h-20L546.3,0"/>
				</g>
				<g>
					<path class="st1" d="M580.4,34.1h20l14.1,34.1"/>
					<path class="st1" d="M580.4,34.1v-20L614.6,0"/>
					<path class="st1" d="M580.4,34.1v20l-34.1,14.1"/>
					<path class="st1" d="M580.4,34.1h-20L546.3,0"/>
				</g>
				<g>
					<path class="st1" d="M512.1,34.1h-20L478,68.3"/>
					<path class="st1" d="M512.1,34.1v-20L478,0"/>
					<path class="st1" d="M512.1,34.1v20l34.1,14.1"/>
					<path class="st1" d="M512.1,34.1h20L546.3,0"/>
				</g>
				<g>
					<path class="st1" d="M512.1-34.1h-20L478-68.3"/>
					<path class="st1" d="M512.1-34.1v20L478,0"/>
					<path class="st1" d="M512.1-34.1v-20l34.1-14.1"/>
					<path class="st1" d="M512.1-34.1h20L546.3,0"/>
				</g>
			</g>
			<g>
				<g>
					<path class="st1" d="M717-34.1h20l14.1-34.1"/>
					<path class="st1" d="M717-34.1v20L751.1,0"/>
					<path class="st1" d="M717-34.1v-20l-34.1-14.1"/>
					<path class="st1" d="M717-34.1h-20L682.8,0"/>
				</g>
				<g>
					<path class="st1" d="M717,34.1h20l14.1,34.1"/>
					<path class="st1" d="M717,34.1v-20L751.1,0"/>
					<path class="st1" d="M717,34.1v20l-34.1,14.1"/>
					<path class="st1" d="M717,34.1h-20L682.8,0"/>
				</g>
				<g>
					<path class="st1" d="M648.7,34.1h-20l-14.1,34.1"/>
					<path class="st1" d="M648.7,34.1v-20L614.6,0"/>
					<path class="st1" d="M648.7,34.1v20l34.1,14.1"/>
					<path class="st1" d="M648.7,34.1h20L682.8,0"/>
				</g>
				<g>
					<path class="st1" d="M648.7-34.1h-20l-14.1-34.1"/>
					<path class="st1" d="M648.7-34.1v20L614.6,0"/>
					<path class="st1" d="M648.7-34.1v-20l34.1-14.1"/>
					<path class="st1" d="M648.7-34.1h20L682.8,0"/>
				</g>
			</g>
			<g>
				<g>
					<path class="st1" d="M853.6-34.1h20l14.1-34.1"/>
					<path class="st1" d="M853.6-34.1v20L887.7,0"/>
					<path class="st1" d="M853.6-34.1v-20l-34.1-14.1"/>
					<path class="st1" d="M853.6-34.1h-20L819.4,0"/>
				</g>
				<g>
					<path class="st1" d="M853.6,34.1h20l14.1,34.1"/>
					<path class="st1" d="M853.6,34.1v-20L887.7,0"/>
					<path class="st1" d="M853.6,34.1v20l-34.1,14.1"/>
					<path class="st1" d="M853.6,34.1h-20L819.4,0"/>
				</g>
				<g>
					<path class="st1" d="M785.3,34.1h-20l-14.1,34.1"/>
					<path class="st1" d="M785.3,34.1v-20L751.1,0"/>
					<path class="st1" d="M785.3,34.1v20l34.1,14.1"/>
					<path class="st1" d="M785.3,34.1h20L819.4,0"/>
				</g>
				<g>
					<path class="st1" d="M785.3-34.1h-20l-14.1-34.1"/>
					<path class="st1" d="M785.3-34.1v20L751.1,0"/>
					<path class="st1" d="M785.3-34.1v-20l34.1-14.1"/>
					<path class="st1" d="M785.3-34.1h20L819.4,0"/>
				</g>
			</g>
			<g>
				<g>
					<path class="st1" d="M34.1,102.4h20l14.1-34.1"/>
					<path class="st1" d="M34.1,102.4v20l34.1,14.1"/>
					<path class="st1" d="M34.1,102.4v-20L0,68.3"/>
					<path class="st1" d="M34.1,102.4h-20L0,136.6"/>
				</g>
				<g>
					<path class="st1" d="M34.1,170.7h20l14.1,34.1"/>
					<path class="st1" d="M34.1,170.7v-20l34.1-14.1"/>
					<path class="st1" d="M34.1,170.7v20L0,204.9"/>
					<path class="st1" d="M34.1,170.7h-20L0,136.6"/>
				</g>
				<g>
					<path class="st1" d="M-34.1,170.7h-20l-14.1,34.1"/>
					<path class="st1" d="M-34.1,170.7v-20l-34.1-14.1"/>
					<path class="st1" d="M-34.1,170.7v20L0,204.9"/>
					<path class="st1" d="M-34.1,170.7h20L0,136.6"/>
				</g>
				<g>
					<path class="st1" d="M-34.1,102.4h-20l-14.1-34.1"/>
					<path class="st1" d="M-34.1,102.4v20l-34.1,14.1"/>
					<path class="st1" d="M-34.1,102.4v-20L0,68.3"/>
					<path class="st1" d="M-34.1,102.4h20L0,136.6"/>
				</g>
			</g>
			<g>
				<g>
					<path class="st1" d="M170.7,102.4h20l14.1-34.1"/>
					<path class="st1" d="M170.7,102.4v20l34.1,14.1"/>
					<path class="st1" d="M170.7,102.4v-20l-34.1-14.1"/>
					<path class="st1" d="M170.7,102.4h-20l-14.1,34.1"/>
				</g>
				<g>
					<path class="st1" d="M170.7,170.7h20l14.1,34.1"/>
					<path class="st1" d="M170.7,170.7v-20l34.1-14.1"/>
					<path class="st1" d="M170.7,170.7v20l-34.1,14.1"/>
					<path class="st1" d="M170.7,170.7h-20l-14.1-34.1"/>
				</g>
				<g>
					<path class="st1" d="M102.4,170.7h-20l-14.1,34.1"/>
					<path class="st1" d="M102.4,170.7v-20l-34.1-14.1"/>
					<path class="st1" d="M102.4,170.7v20l34.1,14.1"/>
					<path class="st1" d="M102.4,170.7h20l14.1-34.1"/>
				</g>
				<g>
					<path class="st1" d="M102.4,102.4h-20L68.3,68.3"/>
					<path class="st1" d="M102.4,102.4v20l-34.1,14.1"/>
					<path class="st1" d="M102.4,102.4v-20l34.1-14.1"/>
					<path class="st1" d="M102.4,102.4h20l14.1,34.1"/>
				</g>
			</g>
			<g>
				<g>
					<path class="st1" d="M307.3,102.4h20l14.1-34.1"/>
					<path class="st1" d="M307.3,102.4v20l34.1,14.1"/>
					<path class="st1" d="M307.3,102.4v-20l-34.1-14.1"/>
					<path class="st1" d="M307.3,102.4h-20l-14.1,34.1"/>
				</g>
				<g>
					<path class="st1" d="M307.3,170.7h20l14.1,34.1"/>
					<path class="st1" d="M307.3,170.7v-20l34.1-14.1"/>
					<path class="st1" d="M307.3,170.7v20l-34.1,14.1"/>
					<path class="st1" d="M307.3,170.7h-20l-14.1-34.1"/>
				</g>
				<g>
					<path class="st1" d="M239,170.7h-20l-14.1,34.1"/>
					<path class="st1" d="M239,170.7v-20l-34.1-14.1"/>
					<path class="st1" d="M239,170.7v20l34.1,14.1"/>
					<path class="st1" d="M239,170.7h20l14.1-34.1"/>
				</g>
				<g>
					<path class="st1" d="M239,102.4h-20l-14.1-34.1"/>
					<path class="st1" d="M239,102.4v20l-34.1,14.1"/>
					<path class="st1" d="M239,102.4v-20l34.1-14.1"/>
					<path class="st1" d="M239,102.4h20l14.1,34.1"/>
				</g>
			</g>
			<g>
				<g>
					<path class="st1" d="M443.8,102.4h20L478,68.3"/>
					<path class="st1" d="M443.8,102.4v20l34.1,14.1"/>
					<path class="st1" d="M443.8,102.4v-20l-34.1-14.1"/>
					<path class="st1" d="M443.8,102.4h-20l-14.1,34.1"/>
				</g>
				<g>
					<path class="st1" d="M443.8,170.7h20l14.1,34.1"/>
					<path class="st1" d="M443.8,170.7v-20l34.1-14.1"/>
					<path class="st1" d="M443.8,170.7v20l-34.1,14.1"/>
					<path class="st1" d="M443.8,170.7h-20l-14.1-34.1"/>
				</g>
				<g>
					<path class="st1" d="M375.6,170.7h-20l-14.1,34.1"/>
					<path class="st1" d="M375.6,170.7v-20l-34.1-14.1"/>
					<path class="st1" d="M375.6,170.7v20l34.1,14.1"/>
					<path class="st1" d="M375.6,170.7h20l14.1-34.1"/>
				</g>
				<g>
					<path class="st1" d="M375.6,102.4h-20l-14.1-34.1"/>
					<path class="st1" d="M375.6,102.4v20l-34.1,14.1"/>
					<path class="st1" d="M375.6,102.4v-20l34.1-14.1"/>
					<path class="st1" d="M375.6,102.4h20l14.1,34.1"/>
				</g>
			</g>
			<g>
				<g>
					<path class="st1" d="M580.4,102.4h20l14.1-34.1"/>
					<path class="st1" d="M580.4,102.4v20l34.1,14.1"/>
					<path class="st1" d="M580.4,102.4v-20l-34.1-14.1"/>
					<path class="st1" d="M580.4,102.4h-20l-14.1,34.1"/>
				</g>
				<g>
					<path class="st1" d="M580.4,170.7h20l14.1,34.1"/>
					<path class="st1" d="M580.4,170.7v-20l34.1-14.1"/>
					<path class="st1" d="M580.4,170.7v20l-34.1,14.1"/>
					<path class="st1" d="M580.4,170.7h-20l-14.1-34.1"/>
				</g>
				<g>
					<path class="st1" d="M512.1,170.7h-20L478,204.9"/>
					<path class="st1" d="M512.1,170.7v-20L478,136.6"/>
					<path class="st1" d="M512.1,170.7v20l34.1,14.1"/>
					<path class="st1" d="M512.1,170.7h20l14.1-34.1"/>
				</g>
				<g>
					<path class="st1" d="M512.1,102.4h-20L478,68.3"/>
					<path class="st1" d="M512.1,102.4v20L478,136.6"/>
					<path class="st1" d="M512.1,102.4v-20l34.1-14.1"/>
					<path class="st1" d="M512.1,102.4h20l14.1,34.1"/>
				</g>
			</g>
			<g>
				<g>
					<path class="st1" d="M717,102.4h20l14.1-34.1"/>
					<path class="st1" d="M717,102.4v20l34.1,14.1"/>
					<path class="st1" d="M717,102.4v-20l-34.1-14.1"/>
					<path class="st1" d="M717,102.4h-20l-14.1,34.1"/>
				</g>
				<g>
					<path class="st1" d="M717,170.7h20l14.1,34.1"/>
					<path class="st1" d="M717,170.7v-20l34.1-14.1"/>
					<path class="st1" d="M717,170.7v20l-34.1,14.1"/>
					<path class="st1" d="M717,170.7h-20l-14.1-34.1"/>
				</g>
				<g>
					<path class="st1" d="M648.7,170.7h-20l-14.1,34.1"/>
					<path class="st1" d="M648.7,170.7v-20l-34.1-14.1"/>
					<path class="st1" d="M648.7,170.7v20l34.1,14.1"/>
					<path class="st1" d="M648.7,170.7h20l14.1-34.1"/>
				</g>
				<g>
					<path class="st1" d="M648.7,102.4h-20l-14.1-34.1"/>
					<path class="st1" d="M648.7,102.4v20l-34.1,14.1"/>
					<path class="st1" d="M648.7,102.4v-20l34.1-14.1"/>
					<path class="st1" d="M648.7,102.4h20l14.1,34.1"/>
				</g>
			</g>
			<g>
				<g>
					<path class="st1" d="M853.6,102.4h20l14.1-34.1"/>
					<path class="st1" d="M853.6,102.4v20l34.1,14.1"/>
					<path class="st1" d="M853.6,102.4v-20l-34.1-14.1"/>
					<path class="st1" d="M853.6,102.4h-20l-14.1,34.1"/>
				</g>
				<g>
					<path class="st1" d="M853.6,170.7h20l14.1,34.1"/>
					<path class="st1" d="M853.6,170.7v-20l34.1-14.1"/>
					<path class="st1" d="M853.6,170.7v20l-34.1,14.1"/>
					<path class="st1" d="M853.6,170.7h-20l-14.1-34.1"/>
				</g>
				<g>
					<path class="st1" d="M785.3,170.7h-20l-14.1,34.1"/>
					<path class="st1" d="M785.3,170.7v-20l-34.1-14.1"/>
					<path class="st1" d="M785.3,170.7v20l34.1,14.1"/>
					<path class="st1" d="M785.3,170.7h20l14.1-34.1"/>
				</g>
				<g>
					<path class="st1" d="M785.3,102.4h-20l-14.1-34.1"/>
					<path class="st1" d="M785.3,102.4v20l-34.1,14.1"/>
					<path class="st1" d="M785.3,102.4v-20l34.1-14.1"/>
					<path class="st1" d="M785.3,102.4h20l14.1,34.1"/>
				</g>
			</g>
			<g>
				<g>
					<path class="st1" d="M34.1,239h20l14.1-34.1"/>
					<path class="st1" d="M34.1,239v20l34.1,14.1"/>
					<path class="st1" d="M34.1,239v-20L0,204.9"/>
					<path class="st1" d="M34.1,239h-20L0,273.1"/>
				</g>
				<g>
					<path class="st1" d="M34.1,307.3h20l14.1,34.1"/>
					<path class="st1" d="M34.1,307.3v-20l34.1-14.1"/>
					<path class="st1" d="M34.1,307.3v20L0,341.4"/>
					<path class="st1" d="M34.1,307.3h-20L0,273.1"/>
				</g>
				<g>
					<path class="st1" d="M-34.1,307.3h-20l-14.1,34.1"/>
					<path class="st1" d="M-34.1,307.3v-20l-34.1-14.1"/>
					<path class="st1" d="M-34.1,307.3v20L0,341.4"/>
					<path class="st1" d="M-34.1,307.3h20L0,273.1"/>
				</g>
				<g>
					<path class="st1" d="M-34.1,239h-20l-14.1-34.1"/>
					<path class="st1" d="M-34.1,239v20l-34.1,14.1"/>
					<path class="st1" d="M-34.1,239v-20L0,204.9"/>
					<path class="st1" d="M-34.1,239h20L0,273.1"/>
				</g>
			</g>
			<g>
				<g>
					<path class="st1" d="M170.7,239h20l14.1-34.1"/>
					<path class="st1" d="M170.7,239v20l34.1,14.1"/>
					<path class="st1" d="M170.7,239v-20l-34.1-14.1"/>
					<path class="st1" d="M170.7,239h-20l-14.1,34.1"/>
				</g>
				<g>
					<path class="st1" d="M170.7,307.3h20l14.1,34.1"/>
					<path class="st1" d="M170.7,307.3v-20l34.1-14.1"/>
					<path class="st1" d="M170.7,307.3v20l-34.1,14.1"/>
					<path class="st1" d="M170.7,307.3h-20l-14.1-34.1"/>
				</g>
				<g>
					<path class="st1" d="M102.4,307.3h-20l-14.1,34.1"/>
					<path class="st1" d="M102.4,307.3v-20l-34.1-14.1"/>
					<path class="st1" d="M102.4,307.3v20l34.1,14.1"/>
					<path class="st1" d="M102.4,307.3h20l14.1-34.1"/>
				</g>
				<g>
					<path class="st1" d="M102.4,239h-20l-14.1-34.1"/>
					<path class="st1" d="M102.4,239v20l-34.1,14.1"/>
					<path class="st1" d="M102.4,239v-20l34.1-14.1"/>
					<path class="st1" d="M102.4,239h20l14.1,34.1"/>
				</g>
			</g>
			<g>
				<g>
					<path class="st1" d="M307.3,239h20l14.1-34.1"/>
					<path class="st1" d="M307.3,239v20l34.1,14.1"/>
					<path class="st1" d="M307.3,239v-20l-34.1-14.1"/>
					<path class="st1" d="M307.3,239h-20l-14.1,34.1"/>
				</g>
				<g>
					<path class="st1" d="M307.3,307.3h20l14.1,34.1"/>
					<path class="st1" d="M307.3,307.3v-20l34.1-14.1"/>
					<path class="st1" d="M307.3,307.3v20l-34.1,14.1"/>
					<path class="st1" d="M307.3,307.3h-20l-14.1-34.1"/>
				</g>
				<g>
					<path class="st1" d="M239,307.3h-20l-14.1,34.1"/>
					<path class="st1" d="M239,307.3v-20l-34.1-14.1"/>
					<path class="st1" d="M239,307.3v20l34.1,14.1"/>
					<path class="st1" d="M239,307.3h20l14.1-34.1"/>
				</g>
				<g>
					<path class="st1" d="M239,239h-20l-14.1-34.1"/>
					<path class="st1" d="M239,239v20l-34.1,14.1"/>
					<path class="st1" d="M239,239v-20l34.1-14.1"/>
					<path class="st1" d="M239,239h20l14.1,34.1"/>
				</g>
			</g>
			<g>
				<g>
					<path class="st1" d="M443.8,239h20l14.1-34.1"/>
					<path class="st1" d="M443.8,239v20l34.1,14.1"/>
					<path class="st1" d="M443.8,239v-20l-34.1-14.1"/>
					<path class="st1" d="M443.8,239h-20l-14.1,34.1"/>
				</g>
				<g>
					<path class="st1" d="M443.8,307.3h20l14.1,34.1"/>
					<path class="st1" d="M443.8,307.3v-20l34.1-14.1"/>
					<path class="st1" d="M443.8,307.3v20l-34.1,14.1"/>
					<path class="st1" d="M443.8,307.3h-20l-14.1-34.1"/>
				</g>
				<g>
					<path class="st1" d="M375.6,307.3h-20l-14.1,34.1"/>
					<path class="st1" d="M375.6,307.3v-20l-34.1-14.1"/>
					<path class="st1" d="M375.6,307.3v20l34.1,14.1"/>
					<path class="st1" d="M375.6,307.3h20l14.1-34.1"/>
				</g>
				<g>
					<path class="st1" d="M375.6,239h-20l-14.1-34.1"/>
					<path class="st1" d="M375.6,239v20l-34.1,14.1"/>
					<path class="st1" d="M375.6,239v-20l34.1-14.1"/>
					<path class="st1" d="M375.6,239h20l14.1,34.1"/>
				</g>
			</g>
			<g>
				<g>
					<path class="st1" d="M580.4,239h20l14.1-34.1"/>
					<path class="st1" d="M580.4,239v20l34.1,14.1"/>
					<path class="st1" d="M580.4,239v-20l-34.1-14.1"/>
					<path class="st1" d="M580.4,239h-20l-14.1,34.1"/>
				</g>
				<g>
					<path class="st1" d="M580.4,307.3h20l14.1,34.1"/>
					<path class="st1" d="M580.4,307.3v-20l34.1-14.1"/>
					<path class="st1" d="M580.4,307.3v20l-34.1,14.1"/>
					<path class="st1" d="M580.4,307.3h-20l-14.1-34.1"/>
				</g>
				<g>
					<path class="st1" d="M512.1,307.3h-20L478,341.4"/>
					<path class="st1" d="M512.1,307.3v-20L478,273.1"/>
					<path class="st1" d="M512.1,307.3v20l34.1,14.1"/>
					<path class="st1" d="M512.1,307.3h20l14.1-34.1"/>
				</g>
				<g>
					<path class="st1" d="M512.1,239h-20L478,204.9"/>
					<path class="st1" d="M512.1,239v20L478,273.1"/>
					<path class="st1" d="M512.1,239v-20l34.1-14.1"/>
					<path class="st1" d="M512.1,239h20l14.1,34.1"/>
				</g>
			</g>
			<g>
				<g>
					<path class="st1" d="M717,239h20l14.1-34.1"/>
					<path class="st1" d="M717,239v20l34.1,14.1"/>
					<path class="st1" d="M717,239v-20l-34.1-14.1"/>
					<path class="st1" d="M717,239h-20l-14.1,34.1"/>
				</g>
				<g>
					<path class="st1" d="M717,307.3h20l14.1,34.1"/>
					<path class="st1" d="M717,307.3v-20l34.1-14.1"/>
					<path class="st1" d="M717,307.3v20l-34.1,14.1"/>
					<path class="st1" d="M717,307.3h-20l-14.1-34.1"/>
				</g>
				<g>
					<path class="st1" d="M648.7,307.3h-20l-14.1,34.1"/>
					<path class="st1" d="M648.7,307.3v-20l-34.1-14.1"/>
					<path class="st1" d="M648.7,307.3v20l34.1,14.1"/>
					<path class="st1" d="M648.7,307.3h20l14.1-34.1"/>
				</g>
				<g>
					<path class="st1" d="M648.7,239h-20l-14.1-34.1"/>
					<path class="st1" d="M648.7,239v20l-34.1,14.1"/>
					<path class="st1" d="M648.7,239v-20l34.1-14.1"/>
					<path class="st1" d="M648.7,239h20l14.1,34.1"/>
				</g>
			</g>
			<g>
				<g>
					<path class="st1" d="M853.6,239h20l14.1-34.1"/>
					<path class="st1" d="M853.6,239v20l34.1,14.1"/>
					<path class="st1" d="M853.6,239v-20l-34.1-14.1"/>
					<path class="st1" d="M853.6,239h-20l-14.1,34.1"/>
				</g>
				<g>
					<path class="st1" d="M853.6,307.3h20l14.1,34.1"/>
					<path class="st1" d="M853.6,307.3v-20l34.1-14.1"/>
					<path class="st1" d="M853.6,307.3v20l-34.1,14.1"/>
					<path class="st1" d="M853.6,307.3h-20l-14.1-34.1"/>
				</g>
				<g>
					<path class="st1" d="M785.3,307.3h-20l-14.1,34.1"/>
					<path class="st1" d="M785.3,307.3v-20l-34.1-14.1"/>
					<path class="st1" d="M785.3,307.3v20l34.1,14.1"/>
					<path class="st1" d="M785.3,307.3h20l14.1-34.1"/>
				</g>
				<g>
					<path class="st1" d="M785.3,239h-20l-14.1-34.1"/>
					<path class="st1" d="M785.3,239v20l-34.1,14.1"/>
					<path class="st1" d="M785.3,239v-20l34.1-14.1"/>
					<path class="st1" d="M785.3,239h20l14.1,34.1"/>
				</g>
			</g>
			<g>
				<g>
					<path class="st1" d="M34.1,375.6h20l14.1-34.1"/>
					<path class="st1" d="M34.1,375.6v20l34.1,14.1"/>
					<path class="st1" d="M34.1,375.6v-20L0,341.4"/>
					<path class="st1" d="M34.1,375.6h-20L0,409.7"/>
				</g>
				<g>
					<path class="st1" d="M34.1,443.8h20L68.3,478"/>
					<path class="st1" d="M34.1,443.8v-20l34.1-14.1"/>
					<path class="st1" d="M34.1,443.8v20L0,478"/>
					<path class="st1" d="M34.1,443.8h-20L0,409.7"/>
				</g>
				<g>
					<path class="st1" d="M-34.1,443.8h-20L-68.3,478"/>
					<path class="st1" d="M-34.1,443.8v-20l-34.1-14.1"/>
					<path class="st1" d="M-34.1,443.8v20L0,478"/>
					<path class="st1" d="M-34.1,443.8h20L0,409.7"/>
				</g>
				<g>
					<path class="st1" d="M-34.1,375.6h-20l-14.1-34.1"/>
					<path class="st1" d="M-34.1,375.6v20l-34.1,14.1"/>
					<path class="st1" d="M-34.1,375.6v-20L0,341.4"/>
					<path class="st1" d="M-34.1,375.6h20L0,409.7"/>
				</g>
			</g>
			<g>
				<g>
					<path class="st1" d="M170.7,375.6h20l14.1-34.1"/>
					<path class="st1" d="M170.7,375.6v20l34.1,14.1"/>
					<path class="st1" d="M170.7,375.6v-20l-34.1-14.1"/>
					<path class="st1" d="M170.7,375.6h-20l-14.1,34.1"/>
				</g>
				<g>
					<path class="st1" d="M170.7,443.8h20l14.1,34.1"/>
					<path class="st1" d="M170.7,443.8v-20l34.1-14.1"/>
					<path class="st1" d="M170.7,443.8v20L136.6,478"/>
					<path class="st1" d="M170.7,443.8h-20l-14.1-34.1"/>
				</g>
				<g>
					<path class="st1" d="M102.4,443.8h-20L68.3,478"/>
					<path class="st1" d="M102.4,443.8v-20l-34.1-14.1"/>
					<path class="st1" d="M102.4,443.8v20l34.1,14.1"/>
					<path class="st1" d="M102.4,443.8h20l14.1-34.1"/>
				</g>
				<g>
					<path class="st1" d="M102.4,375.6h-20l-14.1-34.1"/>
					<path class="st1" d="M102.4,375.6v20l-34.1,14.1"/>
					<path class="st1" d="M102.4,375.6v-20l34.1-14.1"/>
					<path class="st1" d="M102.4,375.6h20l14.1,34.1"/>
				</g>
			</g>
			<g>
				<g>
					<path class="st1" d="M307.3,375.6h20l14.1-34.1"/>
					<path class="st1" d="M307.3,375.6v20l34.1,14.1"/>
					<path class="st1" d="M307.3,375.6v-20l-34.1-14.1"/>
					<path class="st1" d="M307.3,375.6h-20l-14.1,34.1"/>
				</g>
				<g>
					<path class="st1" d="M307.3,443.8h20l14.1,34.1"/>
					<path class="st1" d="M307.3,443.8v-20l34.1-14.1"/>
					<path class="st1" d="M307.3,443.8v20L273.1,478"/>
					<path class="st1" d="M307.3,443.8h-20l-14.1-34.1"/>
				</g>
				<g>
					<path class="st1" d="M239,443.8h-20L204.9,478"/>
					<path class="st1" d="M239,443.8v-20l-34.1-14.1"/>
					<path class="st1" d="M239,443.8v20l34.1,14.1"/>
					<path class="st1" d="M239,443.8h20l14.1-34.1"/>
				</g>
				<g>
					<path class="st1" d="M239,375.6h-20l-14.1-34.1"/>
					<path class="st1" d="M239,375.6v20l-34.1,14.1"/>
					<path class="st1" d="M239,375.6v-20l34.1-14.1"/>
					<path class="st1" d="M239,375.6h20l14.1,34.1"/>
				</g>
			</g>
			<g>
				<g>
					<path class="st1" d="M443.8,375.6h20l14.1-34.1"/>
					<path class="st1" d="M443.8,375.6v20l34.1,14.1"/>
					<path class="st1" d="M443.8,375.6v-20l-34.1-14.1"/>
					<path class="st1" d="M443.8,375.6h-20l-14.1,34.1"/>
				</g>
				<g>
					<path class="st1" d="M443.8,443.8h20L478,478"/>
					<path class="st1" d="M443.8,443.8v-20l34.1-14.1"/>
					<path class="st1" d="M443.8,443.8v20L409.7,478"/>
					<path class="st1" d="M443.8,443.8h-20l-14.1-34.1"/>
				</g>
				<g>
					<path class="st1" d="M375.6,443.8h-20L341.4,478"/>
					<path class="st1" d="M375.6,443.8v-20l-34.1-14.1"/>
					<path class="st1" d="M375.6,443.8v20l34.1,14.1"/>
					<path class="st1" d="M375.6,443.8h20l14.1-34.1"/>
				</g>
				<g>
					<path class="st1" d="M375.6,375.6h-20l-14.1-34.1"/>
					<path class="st1" d="M375.6,375.6v20l-34.1,14.1"/>
					<path class="st1" d="M375.6,375.6v-20l34.1-14.1"/>
					<path class="st1" d="M375.6,375.6h20l14.1,34.1"/>
				</g>
			</g>
			<g>
				<g>
					<path class="st1" d="M580.4,375.6h20l14.1-34.1"/>
					<path class="st1" d="M580.4,375.6v20l34.1,14.1"/>
					<path class="st1" d="M580.4,375.6v-20l-34.1-14.1"/>
					<path class="st1" d="M580.4,375.6h-20l-14.1,34.1"/>
				</g>
				<g>
					<path class="st1" d="M580.4,443.8h20l14.1,34.1"/>
					<path class="st1" d="M580.4,443.8v-20l34.1-14.1"/>
					<path class="st1" d="M580.4,443.8v20L546.3,478"/>
					<path class="st1" d="M580.4,443.8h-20l-14.1-34.1"/>
				</g>
				<g>
					<path class="st1" d="M512.1,443.8h-20L478,478"/>
					<path class="st1" d="M512.1,443.8v-20L478,409.7"/>
					<path class="st1" d="M512.1,443.8v20l34.1,14.1"/>
					<path class="st1" d="M512.1,443.8h20l14.1-34.1"/>
				</g>
				<g>
					<path class="st1" d="M512.1,375.6h-20L478,341.4"/>
					<path class="st1" d="M512.1,375.6v20L478,409.7"/>
					<path class="st1" d="M512.1,375.6v-20l34.1-14.1"/>
					<path class="st1" d="M512.1,375.6h20l14.1,34.1"/>
				</g>
			</g>
			<g>
				<g>
					<path class="st1" d="M717,375.6h20l14.1-34.1"/>
					<path class="st1" d="M717,375.6v20l34.1,14.1"/>
					<path class="st1" d="M717,375.6v-20l-34.1-14.1"/>
					<path class="st1" d="M717,375.6h-20l-14.1,34.1"/>
				</g>
				<g>
					<path class="st1" d="M717,443.8h20l14.1,34.1"/>
					<path class="st1" d="M717,443.8v-20l34.1-14.1"/>
					<path class="st1" d="M717,443.8v20L682.8,478"/>
					<path class="st1" d="M717,443.8h-20l-14.1-34.1"/>
				</g>
				<g>
					<path class="st1" d="M648.7,443.8h-20L614.6,478"/>
					<path class="st1" d="M648.7,443.8v-20l-34.1-14.1"/>
					<path class="st1" d="M648.7,443.8v20l34.1,14.1"/>
					<path class="st1" d="M648.7,443.8h20l14.1-34.1"/>
				</g>
				<g>
					<path class="st1" d="M648.7,375.6h-20l-14.1-34.1"/>
					<path class="st1" d="M648.7,375.6v20l-34.1,14.1"/>
					<path class="st1" d="M648.7,375.6v-20l34.1-14.1"/>
					<path class="st1" d="M648.7,375.6h20l14.1,34.1"/>
				</g>
			</g>
			<g>
				<g>
					<path class="st1" d="M853.6,375.6h20l14.1-34.1"/>
					<path class="st1" d="M853.6,375.6v20l34.1,14.1"/>
					<path class="st1" d="M853.6,375.6v-20l-34.1-14.1"/>
					<path class="st1" d="M853.6,375.6h-20l-14.1,34.1"/>
				</g>
				<g>
					<path class="st1" d="M853.6,443.8h20l14.1,34.1"/>
					<path class="st1" d="M853.6,443.8v-20l34.1-14.1"/>
					<path class="st1" d="M853.6,443.8v20L819.4,478"/>
					<path class="st1" d="M853.6,443.8h-20l-14.1-34.1"/>
				</g>
				<g>
					<path class="st1" d="M785.3,443.8h-20L751.1,478"/>
					<path class="st1" d="M785.3,443.8v-20l-34.1-14.1"/>
					<path class="st1" d="M785.3,443.8v20l34.1,14.1"/>
					<path class="st1" d="M785.3,443.8h20l14.1-34.1"/>
				</g>
				<g>
					<path class="st1" d="M785.3,375.6h-20l-14.1-34.1"/>
					<path class="st1" d="M785.3,375.6v20l-34.1,14.1"/>
					<path class="st1" d="M785.3,375.6v-20l34.1-14.1"/>
					<path class="st1" d="M785.3,375.6h20l14.1,34.1"/>
				</g>
			</g>
			<g>
				<g>
					<path class="st1" d="M34.1,512.1h20L68.3,478"/>
					<path class="st1" d="M34.1,512.1v20l34.1,14.1"/>
					<path class="st1" d="M34.1,512.1v-20L0,478"/>
					<path class="st1" d="M34.1,512.1h-20L0,546.3"/>
				</g>
				<g>
					<path class="st1" d="M34.1,580.4h20l14.1,34.1"/>
					<path class="st1" d="M34.1,580.4v-20l34.1-14.1"/>
					<path class="st1" d="M34.1,580.4v20L0,614.6"/>
					<path class="st1" d="M34.1,580.4h-20L0,546.3"/>
				</g>
				<g>
					<path class="st1" d="M-34.1,580.4h-20l-14.1,34.1"/>
					<path class="st1" d="M-34.1,580.4v-20l-34.1-14.1"/>
					<path class="st1" d="M-34.1,580.4v20L0,614.6"/>
					<path class="st1" d="M-34.1,580.4h20L0,546.3"/>
				</g>
				<g>
					<path class="st1" d="M-34.1,512.1h-20L-68.3,478"/>
					<path class="st1" d="M-34.1,512.1v20l-34.1,14.1"/>
					<path class="st1" d="M-34.1,512.1v-20L0,478"/>
					<path class="st1" d="M-34.1,512.1h20L0,546.3"/>
				</g>
			</g>
			<g>
				<g>
					<path class="st1" d="M170.7,512.1h20l14.1-34.1"/>
					<path class="st1" d="M170.7,512.1v20l34.1,14.1"/>
					<path class="st1" d="M170.7,512.1v-20L136.6,478"/>
					<path class="st1" d="M170.7,512.1h-20l-14.1,34.1"/>
				</g>
				<g>
					<path class="st1" d="M170.7,580.4h20l14.1,34.1"/>
					<path class="st1" d="M170.7,580.4v-20l34.1-14.1"/>
					<path class="st1" d="M170.7,580.4v20l-34.1,14.1"/>
					<path class="st1" d="M170.7,580.4h-20l-14.1-34.1"/>
				</g>
				<g>
					<path class="st1" d="M102.4,580.4h-20l-14.1,34.1"/>
					<path class="st1" d="M102.4,580.4v-20l-34.1-14.1"/>
					<path class="st1" d="M102.4,580.4v20l34.1,14.1"/>
					<path class="st1" d="M102.4,580.4h20l14.1-34.1"/>
				</g>
				<g>
					<path class="st1" d="M102.4,512.1h-20L68.3,478"/>
					<path class="st1" d="M102.4,512.1v20l-34.1,14.1"/>
					<path class="st1" d="M102.4,512.1v-20l34.1-14.1"/>
					<path class="st1" d="M102.4,512.1h20l14.1,34.1"/>
				</g>
			</g>
			<g>
				<g>
					<path class="st1" d="M307.3,512.1h20l14.1-34.1"/>
					<path class="st1" d="M307.3,512.1v20l34.1,14.1"/>
					<path class="st1" d="M307.3,512.1v-20L273.1,478"/>
					<path class="st1" d="M307.3,512.1h-20l-14.1,34.1"/>
				</g>
				<g>
					<path class="st1" d="M307.3,580.4h20l14.1,34.1"/>
					<path class="st1" d="M307.3,580.4v-20l34.1-14.1"/>
					<path class="st1" d="M307.3,580.4v20l-34.1,14.1"/>
					<path class="st1" d="M307.3,580.4h-20l-14.1-34.1"/>
				</g>
				<g>
					<path class="st1" d="M239,580.4h-20l-14.1,34.1"/>
					<path class="st1" d="M239,580.4v-20l-34.1-14.1"/>
					<path class="st1" d="M239,580.4v20l34.1,14.1"/>
					<path class="st1" d="M239,580.4h20l14.1-34.1"/>
				</g>
				<g>
					<path class="st1" d="M239,512.1h-20L204.9,478"/>
					<path class="st1" d="M239,512.1v20l-34.1,14.1"/>
					<path class="st1" d="M239,512.1v-20l34.1-14.1"/>
					<path class="st1" d="M239,512.1h20l14.1,34.1"/>
				</g>
			</g>
			<g>
				<g>
					<path class="st1" d="M443.8,512.1h20L478,478"/>
					<path class="st1" d="M443.8,512.1v20l34.1,14.1"/>
					<path class="st1" d="M443.8,512.1v-20L409.7,478"/>
					<path class="st1" d="M443.8,512.1h-20l-14.1,34.1"/>
				</g>
				<g>
					<path class="st1" d="M443.8,580.4h20l14.1,34.1"/>
					<path class="st1" d="M443.8,580.4v-20l34.1-14.1"/>
					<path class="st1" d="M443.8,580.4v20l-34.1,14.1"/>
					<path class="st1" d="M443.8,580.4h-20l-14.1-34.1"/>
				</g>
				<g>
					<path class="st1" d="M375.6,580.4h-20l-14.1,34.1"/>
					<path class="st1" d="M375.6,580.4v-20l-34.1-14.1"/>
					<path class="st1" d="M375.6,580.4v20l34.1,14.1"/>
					<path class="st1" d="M375.6,580.4h20l14.1-34.1"/>
				</g>
				<g>
					<path class="st1" d="M375.6,512.1h-20L341.4,478"/>
					<path class="st1" d="M375.6,512.1v20l-34.1,14.1"/>
					<path class="st1" d="M375.6,512.1v-20l34.1-14.1"/>
					<path class="st1" d="M375.6,512.1h20l14.1,34.1"/>
				</g>
			</g>
			<g>
				<g>
					<path class="st1" d="M580.4,512.1h20l14.1-34.1"/>
					<path class="st1" d="M580.4,512.1v20l34.1,14.1"/>
					<path class="st1" d="M580.4,512.1v-20L546.3,478"/>
					<path class="st1" d="M580.4,512.1h-20l-14.1,34.1"/>
				</g>
				<g>
					<path class="st1" d="M580.4,580.4h20l14.1,34.1"/>
					<path class="st1" d="M580.4,580.4v-20l34.1-14.1"/>
					<path class="st1" d="M580.4,580.4v20l-34.1,14.1"/>
					<path class="st1" d="M580.4,580.4h-20l-14.1-34.1"/>
				</g>
				<g>
					<path class="st1" d="M512.1,580.4h-20L478,614.6"/>
					<path class="st1" d="M512.1,580.4v-20L478,546.3"/>
					<path class="st1" d="M512.1,580.4v20l34.1,14.1"/>
					<path class="st1" d="M512.1,580.4h20l14.1-34.1"/>
				</g>
				<g>
					<path class="st1" d="M512.1,512.1h-20L478,478"/>
					<path class="st1" d="M512.1,512.1v20L478,546.3"/>
					<path class="st1" d="M512.1,512.1v-20l34.1-14.1"/>
					<path class="st1" d="M512.1,512.1h20l14.1,34.1"/>
				</g>
			</g>
			<g>
				<g>
					<path class="st1" d="M717,512.1h20l14.1-34.1"/>
					<path class="st1" d="M717,512.1v20l34.1,14.1"/>
					<path class="st1" d="M717,512.1v-20L682.8,478"/>
					<path class="st1" d="M717,512.1h-20l-14.1,34.1"/>
				</g>
				<g>
					<path class="st1" d="M717,580.4h20l14.1,34.1"/>
					<path class="st1" d="M717,580.4v-20l34.1-14.1"/>
					<path class="st1" d="M717,580.4v20l-34.1,14.1"/>
					<path class="st1" d="M717,580.4h-20l-14.1-34.1"/>
				</g>
				<g>
					<path class="st1" d="M648.7,580.4h-20l-14.1,34.1"/>
					<path class="st1" d="M648.7,580.4v-20l-34.1-14.1"/>
					<path class="st1" d="M648.7,580.4v20l34.1,14.1"/>
					<path class="st1" d="M648.7,580.4h20l14.1-34.1"/>
				</g>
				<g>
					<path class="st1" d="M648.7,512.1h-20L614.6,478"/>
					<path class="st1" d="M648.7,512.1v20l-34.1,14.1"/>
					<path class="st1" d="M648.7,512.1v-20l34.1-14.1"/>
					<path class="st1" d="M648.7,512.1h20l14.1,34.1"/>
				</g>
			</g>
			<g>
				<g>
					<path class="st1" d="M853.6,512.1h20l14.1-34.1"/>
					<path class="st1" d="M853.6,512.1v20l34.1,14.1"/>
					<path class="st1" d="M853.6,512.1v-20L819.4,478"/>
					<path class="st1" d="M853.6,512.1h-20l-14.1,34.1"/>
				</g>
				<g>
					<path class="st1" d="M853.6,580.4h20l14.1,34.1"/>
					<path class="st1" d="M853.6,580.4v-20l34.1-14.1"/>
					<path class="st1" d="M853.6,580.4v20l-34.1,14.1"/>
					<path class="st1" d="M853.6,580.4h-20l-14.1-34.1"/>
				</g>
				<g>
					<path class="st1" d="M785.3,580.4h-20l-14.1,34.1"/>
					<path class="st1" d="M785.3,580.4v-20l-34.1-14.1"/>
					<path class="st1" d="M785.3,580.4v20l34.1,14.1"/>
					<path class="st1" d="M785.3,580.4h20l14.1-34.1"/>
				</g>
				<g>
					<path class="st1" d="M785.3,512.1h-20L751.1,478"/>
					<path class="st1" d="M785.3,512.1v20l-34.1,14.1"/>
					<path class="st1" d="M785.3,512.1v-20l34.1-14.1"/>
					<path class="st1" d="M785.3,512.1h20l14.1,34.1"/>
				</g>
			</g>
			<g>
				<g>
					<path class="st1" d="M34.1,648.7h20l14.1-34.1"/>
					<path class="st1" d="M34.1,648.7v20l34.1,14.1"/>
					<path class="st1" d="M34.1,648.7v-20L0,614.6"/>
					<path class="st1" d="M34.1,648.7h-20L0,682.8"/>
				</g>
				<g>
					<path class="st1" d="M34.1,717h20l14.1,34.1"/>
					<path class="st1" d="M34.1,717v-20l34.1-14.1"/>
					<path class="st1" d="M34.1,717v20L0,751.1"/>
					<path class="st1" d="M34.1,717h-20L0,682.8"/>
				</g>
				<g>
					<path class="st1" d="M-34.1,717h-20l-14.1,34.1"/>
					<path class="st1" d="M-34.1,717v-20l-34.1-14.1"/>
					<path class="st1" d="M-34.1,717v20L0,751.1"/>
					<path class="st1" d="M-34.1,717h20L0,682.8"/>
				</g>
				<g>
					<path class="st1" d="M-34.1,648.7h-20l-14.1-34.1"/>
					<path class="st1" d="M-34.1,648.7v20l-34.1,14.1"/>
					<path class="st1" d="M-34.1,648.7v-20L0,614.6"/>
					<path class="st1" d="M-34.1,648.7h20L0,682.8"/>
				</g>
			</g>
			<g>
				<g>
					<path class="st1" d="M170.7,648.7h20l14.1-34.1"/>
					<path class="st1" d="M170.7,648.7v20l34.1,14.1"/>
					<path class="st1" d="M170.7,648.7v-20l-34.1-14.1"/>
					<path class="st1" d="M170.7,648.7h-20l-14.1,34.1"/>
				</g>
				<g>
					<path class="st1" d="M170.7,717h20l14.1,34.1"/>
					<path class="st1" d="M170.7,717v-20l34.1-14.1"/>
					<path class="st1" d="M170.7,717v20l-34.1,14.1"/>
					<path class="st1" d="M170.7,717h-20l-14.1-34.1"/>
				</g>
				<g>
					<path class="st1" d="M102.4,717h-20l-14.1,34.1"/>
					<path class="st1" d="M102.4,717v-20l-34.1-14.1"/>
					<path class="st1" d="M102.4,717v20l34.1,14.1"/>
					<path class="st1" d="M102.4,717h20l14.1-34.1"/>
				</g>
				<g>
					<path class="st1" d="M102.4,648.7h-20l-14.1-34.1"/>
					<path class="st1" d="M102.4,648.7v20l-34.1,14.1"/>
					<path class="st1" d="M102.4,648.7v-20l34.1-14.1"/>
					<path class="st1" d="M102.4,648.7h20l14.1,34.1"/>
				</g>
			</g>
			<g>
				<g>
					<path class="st1" d="M307.3,648.7h20l14.1-34.1"/>
					<path class="st1" d="M307.3,648.7v20l34.1,14.1"/>
					<path class="st1" d="M307.3,648.7v-20l-34.1-14.1"/>
					<path class="st1" d="M307.3,648.7h-20l-14.1,34.1"/>
				</g>
				<g>
					<path class="st1" d="M307.3,717h20l14.1,34.1"/>
					<path class="st1" d="M307.3,717v-20l34.1-14.1"/>
					<path class="st1" d="M307.3,717v20l-34.1,14.1"/>
					<path class="st1" d="M307.3,717h-20l-14.1-34.1"/>
				</g>
				<g>
					<path class="st1" d="M239,717h-20l-14.1,34.1"/>
					<path class="st1" d="M239,717v-20l-34.1-14.1"/>
					<path class="st1" d="M239,717v20l34.1,14.1"/>
					<path class="st1" d="M239,717h20l14.1-34.1"/>
				</g>
				<g>
					<path class="st1" d="M239,648.7h-20l-14.1-34.1"/>
					<path class="st1" d="M239,648.7v20l-34.1,14.1"/>
					<path class="st1" d="M239,648.7v-20l34.1-14.1"/>
					<path class="st1" d="M239,648.7h20l14.1,34.1"/>
				</g>
			</g>
			<g>
				<g>
					<path class="st1" d="M443.8,648.7h20l14.1-34.1"/>
					<path class="st1" d="M443.8,648.7v20l34.1,14.1"/>
					<path class="st1" d="M443.8,648.7v-20l-34.1-14.1"/>
					<path class="st1" d="M443.8,648.7h-20l-14.1,34.1"/>
				</g>
				<g>
					<path class="st1" d="M443.8,717h20l14.1,34.1"/>
					<path class="st1" d="M443.8,717v-20l34.1-14.1"/>
					<path class="st1" d="M443.8,717v20l-34.1,14.1"/>
					<path class="st1" d="M443.8,717h-20l-14.1-34.1"/>
				</g>
				<g>
					<path class="st1" d="M375.6,717h-20l-14.1,34.1"/>
					<path class="st1" d="M375.6,717v-20l-34.1-14.1"/>
					<path class="st1" d="M375.6,717v20l34.1,14.1"/>
					<path class="st1" d="M375.6,717h20l14.1-34.1"/>
				</g>
				<g>
					<path class="st1" d="M375.6,648.7h-20l-14.1-34.1"/>
					<path class="st1" d="M375.6,648.7v20l-34.1,14.1"/>
					<path class="st1" d="M375.6,648.7v-20l34.1-14.1"/>
					<path class="st1" d="M375.6,648.7h20l14.1,34.1"/>
				</g>
			</g>
			<g>
				<g>
					<path class="st1" d="M580.4,648.7h20l14.1-34.1"/>
					<path class="st1" d="M580.4,648.7v20l34.1,14.1"/>
					<path class="st1" d="M580.4,648.7v-20l-34.1-14.1"/>
					<path class="st1" d="M580.4,648.7h-20l-14.1,34.1"/>
				</g>
				<g>
					<path class="st1" d="M580.4,717h20l14.1,34.1"/>
					<path class="st1" d="M580.4,717v-20l34.1-14.1"/>
					<path class="st1" d="M580.4,717v20l-34.1,14.1"/>
					<path class="st1" d="M580.4,717h-20l-14.1-34.1"/>
				</g>
				<g>
					<path class="st1" d="M512.1,717h-20L478,751.1"/>
					<path class="st1" d="M512.1,717v-20L478,682.8"/>
					<path class="st1" d="M512.1,717v20l34.1,14.1"/>
					<path class="st1" d="M512.1,717h20l14.1-34.1"/>
				</g>
				<g>
					<path class="st1" d="M512.1,648.7h-20L478,614.6"/>
					<path class="st1" d="M512.1,648.7v20L478,682.8"/>
					<path class="st1" d="M512.1,648.7v-20l34.1-14.1"/>
					<path class="st1" d="M512.1,648.7h20l14.1,34.1"/>
				</g>
			</g>
			<g>
				<g>
					<path class="st1" d="M717,648.7h20l14.1-34.1"/>
					<path class="st1" d="M717,648.7v20l34.1,14.1"/>
					<path class="st1" d="M717,648.7v-20l-34.1-14.1"/>
					<path class="st1" d="M717,648.7h-20l-14.1,34.1"/>
				</g>
				<g>
					<path class="st1" d="M717,717h20l14.1,34.1"/>
					<path class="st1" d="M717,717v-20l34.1-14.1"/>
					<path class="st1" d="M717,717v20l-34.1,14.1"/>
					<path class="st1" d="M717,717h-20l-14.1-34.1"/>
				</g>
				<g>
					<path class="st1" d="M648.7,717h-20l-14.1,34.1"/>
					<path class="st1" d="M648.7,717v-20l-34.1-14.1"/>
					<path class="st1" d="M648.7,717v20l34.1,14.1"/>
					<path class="st1" d="M648.7,717h20l14.1-34.1"/>
				</g>
				<g>
					<path class="st1" d="M648.7,648.7h-20l-14.1-34.1"/>
					<path class="st1" d="M648.7,648.7v20l-34.1,14.1"/>
					<path class="st1" d="M648.7,648.7v-20l34.1-14.1"/>
					<path class="st1" d="M648.7,648.7h20l14.1,34.1"/>
				</g>
			</g>
			<g>
				<g>
					<path class="st1" d="M853.6,648.7h20l14.1-34.1"/>
					<path class="st1" d="M853.6,648.7v20l34.1,14.1"/>
					<path class="st1" d="M853.6,648.7v-20l-34.1-14.1"/>
					<path class="st1" d="M853.6,648.7h-20l-14.1,34.1"/>
				</g>
				<g>
					<path class="st1" d="M853.6,717h20l14.1,34.1"/>
					<path class="st1" d="M853.6,717v-20l34.1-14.1"/>
					<path class="st1" d="M853.6,717v20l-34.1,14.1"/>
					<path class="st1" d="M853.6,717h-20l-14.1-34.1"/>
				</g>
				<g>
					<path class="st1" d="M785.3,717h-20l-14.1,34.1"/>
					<path class="st1" d="M785.3,717v-20l-34.1-14.1"/>
					<path class="st1" d="M785.3,717v20l34.1,14.1"/>
					<path class="st1" d="M785.3,717h20l14.1-34.1"/>
				</g>
				<g>
					<path class="st1" d="M785.3,648.7h-20l-14.1-34.1"/>
					<path class="st1" d="M785.3,648.7v20l-34.1,14.1"/>
					<path class="st1" d="M785.3,648.7v-20l34.1-14.1"/>
					<path class="st1" d="M785.3,648.7h20l14.1,34.1"/>
				</g>
			</g>
			<g>
				<g>
					<path class="st1" d="M34.1,785.3h20l14.1-34.1"/>
					<path class="st1" d="M34.1,785.3v20l34.1,14.1"/>
					<path class="st1" d="M34.1,785.3v-20L0,751.1"/>
					<path class="st1" d="M34.1,785.3h-20L0,819.4"/>
				</g>
				<g>
					<path class="st1" d="M34.1,853.6h20l14.1,34.1"/>
					<path class="st1" d="M34.1,853.6v-20l34.1-14.1"/>
					<path class="st1" d="M34.1,853.6v20L0,887.7"/>
					<path class="st1" d="M34.1,853.6h-20L0,819.4"/>
				</g>
				<g>
					<path class="st1" d="M-34.1,853.6h-20l-14.1,34.1"/>
					<path class="st1" d="M-34.1,853.6v-20l-34.1-14.1"/>
					<path class="st1" d="M-34.1,853.6v20L0,887.7"/>
					<path class="st1" d="M-34.1,853.6h20L0,819.4"/>
				</g>
				<g>
					<path class="st1" d="M-34.1,785.3h-20l-14.1-34.1"/>
					<path class="st1" d="M-34.1,785.3v20l-34.1,14.1"/>
					<path class="st1" d="M-34.1,785.3v-20L0,751.1"/>
					<path class="st1" d="M-34.1,785.3h20L0,819.4"/>
				</g>
			</g>
			<g>
				<g>
					<path class="st1" d="M170.7,785.3h20l14.1-34.1"/>
					<path class="st1" d="M170.7,785.3v20l34.1,14.1"/>
					<path class="st1" d="M170.7,785.3v-20l-34.1-14.1"/>
					<path class="st1" d="M170.7,785.3h-20l-14.1,34.1"/>
				</g>
				<g>
					<path class="st1" d="M170.7,853.6h20l14.1,34.1"/>
					<path class="st1" d="M170.7,853.6v-20l34.1-14.1"/>
					<path class="st1" d="M170.7,853.6v20l-34.1,14.1"/>
					<path class="st1" d="M170.7,853.6h-20l-14.1-34.1"/>
				</g>
				<g>
					<path class="st1" d="M102.4,853.6h-20l-14.1,34.1"/>
					<path class="st1" d="M102.4,853.6v-20l-34.1-14.1"/>
					<path class="st1" d="M102.4,853.6v20l34.1,14.1"/>
					<path class="st1" d="M102.4,853.6h20l14.1-34.1"/>
				</g>
				<g>
					<path class="st1" d="M102.4,785.3h-20l-14.1-34.1"/>
					<path class="st1" d="M102.4,785.3v20l-34.1,14.1"/>
					<path class="st1" d="M102.4,785.3v-20l34.1-14.1"/>
					<path class="st1" d="M102.4,785.3h20l14.1,34.1"/>
				</g>
			</g>
			<g>
				<g>
					<path class="st1" d="M307.3,785.3h20l14.1-34.1"/>
					<path class="st1" d="M307.3,785.3v20l34.1,14.1"/>
					<path class="st1" d="M307.3,785.3v-20l-34.1-14.1"/>
					<path class="st1" d="M307.3,785.3h-20l-14.1,34.1"/>
				</g>
				<g>
					<path class="st1" d="M307.3,853.6h20l14.1,34.1"/>
					<path class="st1" d="M307.3,853.6v-20l34.1-14.1"/>
					<path class="st1" d="M307.3,853.6v20l-34.1,14.1"/>
					<path class="st1" d="M307.3,853.6h-20l-14.1-34.1"/>
				</g>
				<g>
					<path class="st1" d="M239,853.6h-20l-14.1,34.1"/>
					<path class="st1" d="M239,853.6v-20l-34.1-14.1"/>
					<path class="st1" d="M239,853.6v20l34.1,14.1"/>
					<path class="st1" d="M239,853.6h20l14.1-34.1"/>
				</g>
				<g>
					<path class="st1" d="M239,785.3h-20l-14.1-34.1"/>
					<path class="st1" d="M239,785.3v20l-34.1,14.1"/>
					<path class="st1" d="M239,785.3v-20l34.1-14.1"/>
					<path class="st1" d="M239,785.3h20l14.1,34.1"/>
				</g>
			</g>
			<g>
				<g>
					<path class="st1" d="M443.8,785.3h20l14.1-34.1"/>
					<path class="st1" d="M443.8,785.3v20l34.1,14.1"/>
					<path class="st1" d="M443.8,785.3v-20l-34.1-14.1"/>
					<path class="st1" d="M443.8,785.3h-20l-14.1,34.1"/>
				</g>
				<g>
					<path class="st1" d="M443.8,853.6h20l14.1,34.1"/>
					<path class="st1" d="M443.8,853.6v-20l34.1-14.1"/>
					<path class="st1" d="M443.8,853.6v20l-34.1,14.1"/>
					<path class="st1" d="M443.8,853.6h-20l-14.1-34.1"/>
				</g>
				<g>
					<path class="st1" d="M375.6,853.6h-20l-14.1,34.1"/>
					<path class="st1" d="M375.6,853.6v-20l-34.1-14.1"/>
					<path class="st1" d="M375.6,853.6v20l34.1,14.1"/>
					<path class="st1" d="M375.6,853.6h20l14.1-34.1"/>
				</g>
				<g>
					<path class="st1" d="M375.6,785.3h-20l-14.1-34.1"/>
					<path class="st1" d="M375.6,785.3v20l-34.1,14.1"/>
					<path class="st1" d="M375.6,785.3v-20l34.1-14.1"/>
					<path class="st1" d="M375.6,785.3h20l14.1,34.1"/>
				</g>
			</g>
			<g>
				<g>
					<path class="st1" d="M580.4,785.3h20l14.1-34.1"/>
					<path class="st1" d="M580.4,785.3v20l34.1,14.1"/>
					<path class="st1" d="M580.4,785.3v-20l-34.1-14.1"/>
					<path class="st1" d="M580.4,785.3h-20l-14.1,34.1"/>
				</g>
				<g>
					<path class="st1" d="M580.4,853.6h20l14.1,34.1"/>
					<path class="st1" d="M580.4,853.6v-20l34.1-14.1"/>
					<path class="st1" d="M580.4,853.6v20l-34.1,14.1"/>
					<path class="st1" d="M580.4,853.6h-20l-14.1-34.1"/>
				</g>
				<g>
					<path class="st1" d="M512.1,853.6h-20L478,887.7"/>
					<path class="st1" d="M512.1,853.6v-20L478,819.4"/>
					<path class="st1" d="M512.1,853.6v20l34.1,14.1"/>
					<path class="st1" d="M512.1,853.6h20l14.1-34.1"/>
				</g>
				<g>
					<path class="st1" d="M512.1,785.3h-20L478,751.1"/>
					<path class="st1" d="M512.1,785.3v20L478,819.4"/>
					<path class="st1" d="M512.1,785.3v-20l34.1-14.1"/>
					<path class="st1" d="M512.1,785.3h20l14.1,34.1"/>
				</g>
			</g>
			<g>
				<g>
					<path class="st1" d="M717,785.3h20l14.1-34.1"/>
					<path class="st1" d="M717,785.3v20l34.1,14.1"/>
					<path class="st1" d="M717,785.3v-20l-34.1-14.1"/>
					<path class="st1" d="M717,785.3h-20l-14.1,34.1"/>
				</g>
				<g>
					<path class="st1" d="M717,853.6h20l14.1,34.1"/>
					<path class="st1" d="M717,853.6v-20l34.1-14.1"/>
					<path class="st1" d="M717,853.6v20l-34.1,14.1"/>
					<path class="st1" d="M717,853.6h-20l-14.1-34.1"/>
				</g>
				<g>
					<path class="st1" d="M648.7,853.6h-20l-14.1,34.1"/>
					<path class="st1" d="M648.7,853.6v-20l-34.1-14.1"/>
					<path class="st1" d="M648.7,853.6v20l34.1,14.1"/>
					<path class="st1" d="M648.7,853.6h20l14.1-34.1"/>
				</g>
				<g>
					<path class="st1" d="M648.7,785.3h-20l-14.1-34.1"/>
					<path class="st1" d="M648.7,785.3v20l-34.1,14.1"/>
					<path class="st1" d="M648.7,785.3v-20l34.1-14.1"/>
					<path class="st1" d="M648.7,785.3h20l14.1,34.1"/>
				</g>
			</g>
			<g>
				<g>
					<path class="st1" d="M853.6,785.3h20l14.1-34.1"/>
					<path class="st1" d="M853.6,785.3v20l34.1,14.1"/>
					<path class="st1" d="M853.6,785.3v-20l-34.1-14.1"/>
					<path class="st1" d="M853.6,785.3h-20l-14.1,34.1"/>
				</g>
				<g>
					<path class="st1" d="M853.6,853.6h20l14.1,34.1"/>
					<path class="st1" d="M853.6,853.6v-20l34.1-14.1"/>
					<path class="st1" d="M853.6,853.6v20l-34.1,14.1"/>
					<path class="st1" d="M853.6,853.6h-20l-14.1-34.1"/>
				</g>
				<g>
					<path class="st1" d="M785.3,853.6h-20l-14.1,34.1"/>
					<path class="st1" d="M785.3,853.6v-20l-34.1-14.1"/>
					<path class="st1" d="M785.3,853.6v20l34.1,14.1"/>
					<path class="st1" d="M785.3,853.6h20l14.1-34.1"/>
				</g>
				<g>
					<path class="st1" d="M785.3,785.3h-20l-14.1-34.1"/>
					<path class="st1" d="M785.3,785.3v20l-34.1,14.1"/>
					<path class="st1" d="M785.3,785.3v-20l34.1-14.1"/>
					<path class="st1" d="M785.3,785.3h20l14.1,34.1"/>
				</g>
			</g>
		</g>
	</g>
</g>
</svg>
