<?xml version="1.0" encoding="utf-8"?>
<!-- Generator: Adobe Illustrator 27.7.0, SVG Export Plug-In . SVG Version: 6.00 Build 0)  -->
<svg version="1.1" id="Layer_1" xmlns="http://www.w3.org/2000/svg" xmlns:xlink="http://www.w3.org/1999/xlink" x="0px" y="0px"
	 viewBox="0 0 400 400" style="enable-background:new 0 0 400 400;" xml:space="preserve">
<style type="text/css">
	.st0{fill:#FFFFFF;}
	.st1{fill:none;stroke:#000000;stroke-linecap:round;stroke-miterlimit:10;}
</style>
<g>
	<rect y="0" class="st0" width="400" height="400"/>
	<g>
		<g>
			<path class="st1" d="M256.7,143.3h33.2l23.5-56.7"/>
			<path class="st1" d="M256.7,143.3v33.2l56.7,23.5"/>
			<path class="st1" d="M256.7,143.3v-33.2L200,86.6"/>
			<path class="st1" d="M256.7,143.3h-33.2L200,200"/>
		</g>
		<g>
			<path class="st1" d="M256.7,256.7h33.2l23.5,56.7"/>
			<path class="st1" d="M256.7,256.7v-33.2l56.7-23.5"/>
			<path class="st1" d="M256.7,256.7v33.2L200,313.4"/>
			<path class="st1" d="M256.7,256.7h-33.2L200,200"/>
		</g>
		<g>
			<path class="st1" d="M143.3,256.7h-33.2l-23.5,56.7"/>
			<path class="st1" d="M143.3,256.7v-33.2L86.6,200"/>
			<path class="st1" d="M143.3,256.7v33.2l56.7,23.5"/>
			<path class="st1" d="M143.3,256.7h33.2L200,200"/>
		</g>
		<g>
			<path class="st1" d="M143.3,143.3h-33.2L86.6,86.6"/>
			<path class="st1" d="M143.3,143.3v33.2L86.6,200"/>
			<path class="st1" d="M143.3,143.3v-33.2L200,86.6"/>
			<path class="st1" d="M143.3,143.3h33.2L200,200"/>
		</g>
	</g>
</g>
</svg>
