<svg version="1.1" xmlns="http://www.w3.org/2000/svg" xmlns:xlink="http://www.w3.org/1999/xlink" width="400" height="400" viewBox="0 0 400 400"><defs/><g><rect fill="rgb(255,255,255)" stroke="none" x="0" y="0" width="400" height="400" transform="matrix(1 0 0 1 0 0)" fill-opacity="1"/><g><g><path fill="none" stroke="#000000" paint-order="fill stroke markers" d=" M 251.96152422706632 230 L 303.92304845413264 200 L 251.96152422706632 170" stroke-linecap="round" stroke-miterlimit="10" stroke-dasharray=""/><path fill="none" stroke="#000000" paint-order="fill stroke markers" d=" M 303.92304845413264 200 L 355.88457268119896 170 L 355.88457268119896 110" stroke-linecap="round" stroke-miterlimit="10" stroke-dasharray=""/></g><g><path fill="none" stroke="#000000" paint-order="fill stroke markers" d=" M 200 260 L 251.96152422706632 290 L 251.96152422706632 230" stroke-linecap="round" stroke-miterlimit="10" stroke-dasharray=""/><path fill="none" stroke="#000000" paint-order="fill stroke markers" d=" M 251.96152422706632 290 L 303.92304845413264 320 L 355.88457268119896 290" stroke-linecap="round" stroke-miterlimit="10" stroke-dasharray=""/></g><g><path fill="none" stroke="#000000" paint-order="fill stroke markers" d=" M 148.03847577293368 230 L 148.03847577293368 290 L 200 260" stroke-linecap="round" stroke-miterlimit="10" stroke-dasharray=""/><path fill="none" stroke="#000000" paint-order="fill stroke markers" d=" M 148.03847577293368 290 L 148.03847577293368 350 L 200.00000000000003 380" stroke-linecap="round" stroke-miterlimit="10" stroke-dasharray=""/></g><g><path fill="none" stroke="#000000" paint-order="fill stroke markers" d=" M 148.03847577293368 170 L 96.07695154586736 200 L 148.03847577293368 230" stroke-linecap="round" stroke-miterlimit="10" stroke-dasharray=""/><path fill="none" stroke="#000000" paint-order="fill stroke markers" d=" M 96.07695154586736 200 L 44.11542731880105 230 L 44.11542731880105 290 L 96.07695154586737 260" stroke-linecap="round" stroke-miterlimit="10" stroke-dasharray=""/></g><g><path fill="none" stroke="#000000" paint-order="fill stroke markers" d=" M 199.99999999999997 140 L 148.03847577293362 110.00000000000001 L 148.03847577293368 170.00000000000003" stroke-linecap="round" stroke-miterlimit="10" stroke-dasharray=""/><path fill="none" stroke="#000000" paint-order="fill stroke markers" d=" M 148.03847577293362 110.00000000000001 L 96.0769515458673 80.00000000000003 L 44.11542731880101 110.00000000000007 L 96.07695154586733 140.00000000000006" stroke-linecap="round" stroke-miterlimit="10" stroke-dasharray=""/></g><g><path fill="none" stroke="#000000" paint-order="fill stroke markers" d=" M 251.96152422706632 170 L 251.96152422706632 110 L 200 140" stroke-linecap="round" stroke-miterlimit="10" stroke-dasharray=""/><path fill="none" stroke="#000000" paint-order="fill stroke markers" d=" M 251.96152422706632 110 L 251.96152422706635 50 L 200.00000000000003 20 L 200 80" stroke-linecap="round" stroke-miterlimit="10" stroke-dasharray=""/></g></g></g></svg>