<?xml version="1.0" encoding="utf-8"?>
<!-- Generator: Adobe Illustrator 27.7.0, SVG Export Plug-In . SVG Version: 6.00 Build 0)  -->
<svg version="1.1" id="Layer_1" xmlns="http://www.w3.org/2000/svg" xmlns:xlink="http://www.w3.org/1999/xlink" x="0px" y="0px"
	 viewBox="0 0 400 400" style="enable-background:new 0 0 400 400;" xml:space="preserve">
<style type="text/css">
	.st0{fill:#FFFFFF;}
	.st1{fill:none;stroke:#000000;stroke-linecap:round;stroke-miterlimit:10;}
</style>
<g>
	<rect y="0" class="st0" width="400" height="400"/>
	<g>
		<g>
			<path class="st1" d="M237.8,221.8l37.8-21.8l-37.8-21.8"/>
			<path class="st1" d="M275.6,200l37.8-21.8v-43.6"/>
		</g>
		<g>
			<path class="st1" d="M200,243.6l37.8,21.8v-43.6"/>
			<path class="st1" d="M237.8,265.5l37.8,21.8l37.8-21.8"/>
		</g>
		<g>
			<path class="st1" d="M162.2,221.8v43.6l37.8-21.8"/>
			<path class="st1" d="M162.2,265.5v43.6l37.8,21.8"/>
		</g>
		<g>
			<path class="st1" d="M162.2,178.2L124.4,200l37.8,21.8"/>
			<path class="st1" d="M124.4,200l-37.8,21.8v43.6l37.8-21.8"/>
		</g>
		<g>
			<path class="st1" d="M200,156.4l-37.8-21.8v43.6"/>
			<path class="st1" d="M162.2,134.5l-37.8-21.8l-37.8,21.8l37.8,21.8"/>
		</g>
		<g>
			<path class="st1" d="M237.8,178.2v-43.6L200,156.4"/>
			<path class="st1" d="M237.8,134.5V90.9L200,69.1v43.6"/>
		</g>
	</g>
</g>
</svg>
