<svg version="1.1" xmlns="http://www.w3.org/2000/svg" xmlns:xlink="http://www.w3.org/1999/xlink" width="800" height="800" viewBox="0 0 800 800"><defs/><g><g><path fill="none" stroke="#000000" paint-order="fill stroke markers" d=" M 40 69.2820323027551 L 60.00000000000001 103.92304845413264 L 20.000000000000004 103.92304845413264 L 4.242300954899628e-15 138.5640646055102 L -19.999999999999993 103.92304845413264 L -60.00000000000001 103.92304845413264 L -40 69.2820323027551 L -60 34.64101615137754 L -20.000000000000018 34.641016151377556 L -1.2726902864698884e-14 0 L 20.000000000000004 34.641016151377556 L 59.999999999999986 34.64101615137752 L 40 69.2820323027551 L 40 69.2820323027551 Z" stroke-linecap="round" stroke-miterlimit="10" stroke-dasharray=""/></g><g><path fill="none" stroke="#000000" paint-order="fill stroke markers" d=" M 40 207.84609690826528 L 60.00000000000001 242.4871130596428 L 20.000000000000004 242.4871130596428 L 4.242300954899628e-15 277.1281292110204 L -19.999999999999993 242.48711305964284 L -60.00000000000001 242.4871130596428 L -40 207.84609690826528 L -60 173.20508075688772 L -20.000000000000018 173.20508075688775 L -1.2726902864698884e-14 138.56406460551017 L 20.000000000000004 173.20508075688775 L 59.999999999999986 173.2050807568877 L 40 207.84609690826528 L 40 207.84609690826528 Z" stroke-linecap="round" stroke-miterlimit="10" stroke-dasharray=""/></g><g><path fill="none" stroke="#000000" paint-order="fill stroke markers" d=" M 40 346.4101615137755 L 60.00000000000001 381.05117766515303 L 20.000000000000004 381.05117766515303 L 4.242300954899628e-15 415.6921938165306 L -19.999999999999993 381.05117766515303 L -60.00000000000001 381.05117766515303 L -40 346.4101615137755 L -60 311.7691453623979 L -20.000000000000018 311.769145362398 L -1.2726902864698884e-14 277.1281292110204 L 20.000000000000004 311.769145362398 L 59.999999999999986 311.7691453623979 L 40 346.4101615137755 L 40 346.4101615137755 Z" stroke-linecap="round" stroke-miterlimit="10" stroke-dasharray=""/></g><g><path fill="none" stroke="#000000" paint-order="fill stroke markers" d=" M 40 484.9742261192857 L 60.00000000000001 519.6152422706632 L 20.000000000000004 519.6152422706632 L 4.242300954899628e-15 554.2562584220408 L -19.999999999999993 519.6152422706632 L -60.00000000000001 519.6152422706632 L -40 484.9742261192857 L -60 450.33320996790815 L -20.000000000000018 450.33320996790815 L -1.2726902864698884e-14 415.69219381653056 L 20.000000000000004 450.33320996790815 L 59.999999999999986 450.3332099679081 L 40 484.9742261192857 L 40 484.9742261192857 Z" stroke-linecap="round" stroke-miterlimit="10" stroke-dasharray=""/></g><g><path fill="none" stroke="#000000" paint-order="fill stroke markers" d=" M 40 623.5382907247958 L 60.00000000000001 658.1793068761734 L 20.000000000000004 658.1793068761734 L 4.242300954899628e-15 692.8203230275509 L -19.999999999999993 658.1793068761734 L -60.00000000000001 658.1793068761734 L -40 623.5382907247958 L -60 588.8972745734183 L -20.000000000000018 588.8972745734183 L -1.2726902864698884e-14 554.2562584220408 L 20.000000000000004 588.8972745734183 L 59.999999999999986 588.8972745734183 L 40 623.5382907247958 L 40 623.5382907247958 Z" stroke-linecap="round" stroke-miterlimit="10" stroke-dasharray=""/></g><g><path fill="none" stroke="#000000" paint-order="fill stroke markers" d=" M 40 762.1023553303061 L 60.00000000000001 796.7433714816837 L 20.000000000000004 796.7433714816837 L 4.242300954899628e-15 831.3843876330611 L -19.999999999999993 796.7433714816837 L -60.00000000000001 796.7433714816837 L -40 762.1023553303061 L -60 727.4613391789285 L -20.000000000000018 727.4613391789285 L -1.2726902864698884e-14 692.820323027551 L 20.000000000000004 727.4613391789285 L 59.999999999999986 727.4613391789285 L 40 762.1023553303061 L 40 762.1023553303061 Z" stroke-linecap="round" stroke-miterlimit="10" stroke-dasharray=""/></g><g><path fill="none" stroke="#000000" paint-order="fill stroke markers" d=" M 40 900.6664199358162 L 60.00000000000001 935.3074360871938 L 20.000000000000004 935.3074360871938 L 4.242300954899628e-15 969.9484522385712 L -19.999999999999993 935.3074360871938 L -60.00000000000001 935.3074360871938 L -40 900.6664199358162 L -60 866.0254037844386 L -20.000000000000018 866.0254037844386 L -1.2726902864698884e-14 831.3843876330611 L 20.000000000000004 866.0254037844386 L 59.999999999999986 866.0254037844386 L 40 900.6664199358162 L 40 900.6664199358162 Z" stroke-linecap="round" stroke-miterlimit="10" stroke-dasharray=""/></g><g><path fill="none" stroke="#000000" paint-order="fill stroke markers" d=" M 160 0 L 180 34.64101615137754 L 140 34.64101615137754 L 120 69.2820323027551 L 100 34.64101615137755 L 59.99999999999999 34.64101615137754 L 80 4.898587196589413e-15 L 60 -34.641016151377556 L 99.99999999999999 -34.64101615137754 L 119.99999999999999 -69.2820323027551 L 140 -34.64101615137754 L 180 -34.64101615137758 L 160 0 L 160 0 Z" stroke-linecap="round" stroke-miterlimit="10" stroke-dasharray=""/></g><g><path fill="none" stroke="#000000" paint-order="fill stroke markers" d=" M 160 138.5640646055102 L 180 173.20508075688775 L 140 173.20508075688775 L 120 207.84609690826528 L 100 173.20508075688775 L 59.99999999999999 173.20508075688775 L 80 138.5640646055102 L 60 103.92304845413264 L 99.99999999999999 103.92304845413265 L 119.99999999999999 69.2820323027551 L 140 103.92304845413265 L 180 103.92304845413261 L 160 138.5640646055102 L 160 138.5640646055102 Z" stroke-linecap="round" stroke-miterlimit="10" stroke-dasharray=""/></g><g><path fill="none" stroke="#000000" paint-order="fill stroke markers" d=" M 160 277.1281292110204 L 180 311.7691453623979 L 140 311.7691453623979 L 120 346.4101615137755 L 100 311.7691453623979 L 59.99999999999999 311.7691453623979 L 80 277.1281292110204 L 60 242.48711305964284 L 99.99999999999999 242.48711305964287 L 119.99999999999999 207.84609690826528 L 140 242.48711305964287 L 180 242.4871130596428 L 160 277.1281292110204 L 160 277.1281292110204 Z" stroke-linecap="round" stroke-miterlimit="10" stroke-dasharray=""/></g><g><path fill="none" stroke="#000000" paint-order="fill stroke markers" d=" M 160 415.69219381653056 L 180 450.3332099679081 L 140 450.3332099679081 L 120 484.9742261192857 L 100 450.3332099679081 L 59.99999999999999 450.3332099679081 L 80 415.69219381653056 L 60 381.051177665153 L 99.99999999999999 381.05117766515303 L 119.99999999999999 346.41016151377545 L 140 381.05117766515303 L 180 381.051177665153 L 160 415.69219381653056 L 160 415.69219381653056 Z" stroke-linecap="round" stroke-miterlimit="10" stroke-dasharray=""/></g><g><path fill="none" stroke="#000000" paint-order="fill stroke markers" d=" M 160 554.2562584220408 L 180 588.8972745734184 L 140 588.8972745734184 L 120 623.5382907247958 L 100 588.8972745734184 L 59.99999999999999 588.8972745734184 L 80 554.2562584220408 L 60 519.6152422706632 L 99.99999999999999 519.6152422706632 L 119.99999999999999 484.9742261192857 L 140 519.6152422706632 L 180 519.6152422706632 L 160 554.2562584220408 L 160 554.2562584220408 Z" stroke-linecap="round" stroke-miterlimit="10" stroke-dasharray=""/></g><g><path fill="none" stroke="#000000" paint-order="fill stroke markers" d=" M 160 692.820323027551 L 180 727.4613391789286 L 140 727.4613391789286 L 120 762.1023553303061 L 100 727.4613391789286 L 59.99999999999999 727.4613391789286 L 80 692.820323027551 L 60 658.1793068761734 L 99.99999999999999 658.1793068761734 L 119.99999999999999 623.538290724796 L 140 658.1793068761734 L 180 658.1793068761734 L 160 692.820323027551 L 160 692.820323027551 Z" stroke-linecap="round" stroke-miterlimit="10" stroke-dasharray=""/></g><g><path fill="none" stroke="#000000" paint-order="fill stroke markers" d=" M 160 831.3843876330611 L 180 866.0254037844387 L 140 866.0254037844387 L 120 900.6664199358162 L 100 866.0254037844387 L 59.99999999999999 866.0254037844387 L 80 831.3843876330611 L 60 796.7433714816835 L 99.99999999999999 796.7433714816835 L 119.99999999999999 762.1023553303061 L 140 796.7433714816835 L 180 796.7433714816835 L 160 831.3843876330611 L 160 831.3843876330611 Z" stroke-linecap="round" stroke-miterlimit="10" stroke-dasharray=""/></g><g><path fill="none" stroke="#000000" paint-order="fill stroke markers" d=" M 280 69.2820323027551 L 300 103.92304845413264 L 260 103.92304845413264 L 240 138.5640646055102 L 220 103.92304845413264 L 180 103.92304845413264 L 200 69.2820323027551 L 180 34.64101615137754 L 219.99999999999997 34.641016151377556 L 240 0 L 260 34.641016151377556 L 300 34.64101615137752 L 280 69.2820323027551 L 280 69.2820323027551 Z" stroke-linecap="round" stroke-miterlimit="10" stroke-dasharray=""/></g><g><path fill="none" stroke="#000000" paint-order="fill stroke markers" d=" M 280 207.84609690826528 L 300 242.4871130596428 L 260 242.4871130596428 L 240 277.1281292110204 L 220 242.48711305964284 L 180 242.4871130596428 L 200 207.84609690826528 L 180 173.20508075688772 L 219.99999999999997 173.20508075688775 L 240 138.56406460551017 L 260 173.20508075688775 L 300 173.2050807568877 L 280 207.84609690826528 L 280 207.84609690826528 Z" stroke-linecap="round" stroke-miterlimit="10" stroke-dasharray=""/></g><g><path fill="none" stroke="#000000" paint-order="fill stroke markers" d=" M 280 346.4101615137755 L 300 381.05117766515303 L 260 381.05117766515303 L 240 415.6921938165306 L 220 381.05117766515303 L 180 381.05117766515303 L 200 346.4101615137755 L 180 311.7691453623979 L 219.99999999999997 311.769145362398 L 240 277.1281292110204 L 260 311.769145362398 L 300 311.7691453623979 L 280 346.4101615137755 L 280 346.4101615137755 Z" stroke-linecap="round" stroke-miterlimit="10" stroke-dasharray=""/></g><g><path fill="none" stroke="#000000" paint-order="fill stroke markers" d=" M 280 484.9742261192857 L 300 519.6152422706632 L 260 519.6152422706632 L 240 554.2562584220408 L 220 519.6152422706632 L 180 519.6152422706632 L 200 484.9742261192857 L 180 450.33320996790815 L 219.99999999999997 450.33320996790815 L 240 415.69219381653056 L 260 450.33320996790815 L 300 450.3332099679081 L 280 484.9742261192857 L 280 484.9742261192857 Z" stroke-linecap="round" stroke-miterlimit="10" stroke-dasharray=""/></g><g><path fill="none" stroke="#000000" paint-order="fill stroke markers" d=" M 280 623.5382907247958 L 300 658.1793068761734 L 260 658.1793068761734 L 240 692.8203230275509 L 220 658.1793068761734 L 180 658.1793068761734 L 200 623.5382907247958 L 180 588.8972745734183 L 219.99999999999997 588.8972745734183 L 240 554.2562584220408 L 260 588.8972745734183 L 300 588.8972745734183 L 280 623.5382907247958 L 280 623.5382907247958 Z" stroke-linecap="round" stroke-miterlimit="10" stroke-dasharray=""/></g><g><path fill="none" stroke="#000000" paint-order="fill stroke markers" d=" M 280 762.1023553303061 L 300 796.7433714816837 L 260 796.7433714816837 L 240 831.3843876330611 L 220 796.7433714816837 L 180 796.7433714816837 L 200 762.1023553303061 L 180 727.4613391789285 L 219.99999999999997 727.4613391789285 L 240 692.820323027551 L 260 727.4613391789285 L 300 727.4613391789285 L 280 762.1023553303061 L 280 762.1023553303061 Z" stroke-linecap="round" stroke-miterlimit="10" stroke-dasharray=""/></g><g><path fill="none" stroke="#000000" paint-order="fill stroke markers" d=" M 280 900.6664199358162 L 300 935.3074360871938 L 260 935.3074360871938 L 240 969.9484522385712 L 220 935.3074360871938 L 180 935.3074360871938 L 200 900.6664199358162 L 180 866.0254037844386 L 219.99999999999997 866.0254037844386 L 240 831.3843876330611 L 260 866.0254037844386 L 300 866.0254037844386 L 280 900.6664199358162 L 280 900.6664199358162 Z" stroke-linecap="round" stroke-miterlimit="10" stroke-dasharray=""/></g><g><path fill="none" stroke="#000000" paint-order="fill stroke markers" d=" M 400 0 L 420 34.64101615137754 L 380 34.64101615137754 L 360 69.2820323027551 L 340 34.64101615137755 L 300 34.64101615137754 L 320 4.898587196589413e-15 L 300 -34.641016151377556 L 340 -34.64101615137754 L 360 -69.2820323027551 L 380 -34.64101615137754 L 420 -34.64101615137758 L 400 0 L 400 0 Z" stroke-linecap="round" stroke-miterlimit="10" stroke-dasharray=""/></g><g><path fill="none" stroke="#000000" paint-order="fill stroke markers" d=" M 400 138.5640646055102 L 420 173.20508075688775 L 380 173.20508075688775 L 360 207.84609690826528 L 340 173.20508075688775 L 300 173.20508075688775 L 320 138.5640646055102 L 300 103.92304845413264 L 340 103.92304845413265 L 360 69.2820323027551 L 380 103.92304845413265 L 420 103.92304845413261 L 400 138.5640646055102 L 400 138.5640646055102 Z" stroke-linecap="round" stroke-miterlimit="10" stroke-dasharray=""/></g><g><path fill="none" stroke="#000000" paint-order="fill stroke markers" d=" M 400 277.1281292110204 L 420 311.7691453623979 L 380 311.7691453623979 L 360 346.4101615137755 L 340 311.7691453623979 L 300 311.7691453623979 L 320 277.1281292110204 L 300 242.48711305964284 L 340 242.48711305964287 L 360 207.84609690826528 L 380 242.48711305964287 L 420 242.4871130596428 L 400 277.1281292110204 L 400 277.1281292110204 Z" stroke-linecap="round" stroke-miterlimit="10" stroke-dasharray=""/></g><g><path fill="none" stroke="#000000" paint-order="fill stroke markers" d=" M 400 415.69219381653056 L 420 450.3332099679081 L 380 450.3332099679081 L 360 484.9742261192857 L 340 450.3332099679081 L 300 450.3332099679081 L 320 415.69219381653056 L 300 381.051177665153 L 340 381.05117766515303 L 360 346.41016151377545 L 380 381.05117766515303 L 420 381.051177665153 L 400 415.69219381653056 L 400 415.69219381653056 Z" stroke-linecap="round" stroke-miterlimit="10" stroke-dasharray=""/></g><g><path fill="none" stroke="#000000" paint-order="fill stroke markers" d=" M 400 554.2562584220408 L 420 588.8972745734184 L 380 588.8972745734184 L 360 623.5382907247958 L 340 588.8972745734184 L 300 588.8972745734184 L 320 554.2562584220408 L 300 519.6152422706632 L 340 519.6152422706632 L 360 484.9742261192857 L 380 519.6152422706632 L 420 519.6152422706632 L 400 554.2562584220408 L 400 554.2562584220408 Z" stroke-linecap="round" stroke-miterlimit="10" stroke-dasharray=""/></g><g><path fill="none" stroke="#000000" paint-order="fill stroke markers" d=" M 400 692.820323027551 L 420 727.4613391789286 L 380 727.4613391789286 L 360 762.1023553303061 L 340 727.4613391789286 L 300 727.4613391789286 L 320 692.820323027551 L 300 658.1793068761734 L 340 658.1793068761734 L 360 623.538290724796 L 380 658.1793068761734 L 420 658.1793068761734 L 400 692.820323027551 L 400 692.820323027551 Z" stroke-linecap="round" stroke-miterlimit="10" stroke-dasharray=""/></g><g><path fill="none" stroke="#000000" paint-order="fill stroke markers" d=" M 400 831.3843876330611 L 420 866.0254037844387 L 380 866.0254037844387 L 360 900.6664199358162 L 340 866.0254037844387 L 300 866.0254037844387 L 320 831.3843876330611 L 300 796.7433714816835 L 340 796.7433714816835 L 360 762.1023553303061 L 380 796.7433714816835 L 420 796.7433714816835 L 400 831.3843876330611 L 400 831.3843876330611 Z" stroke-linecap="round" stroke-miterlimit="10" stroke-dasharray=""/></g><g><path fill="none" stroke="#000000" paint-order="fill stroke markers" d=" M 520 69.2820323027551 L 540 103.92304845413264 L 500 103.92304845413264 L 480 138.5640646055102 L 460 103.92304845413264 L 420 103.92304845413264 L 440 69.2820323027551 L 420 34.64101615137754 L 460 34.641016151377556 L 480 0 L 500 34.641016151377556 L 540 34.64101615137752 L 520 69.2820323027551 L 520 69.2820323027551 Z" stroke-linecap="round" stroke-miterlimit="10" stroke-dasharray=""/></g><g><path fill="none" stroke="#000000" paint-order="fill stroke markers" d=" M 520 207.84609690826528 L 540 242.4871130596428 L 500 242.4871130596428 L 480 277.1281292110204 L 460 242.48711305964284 L 420 242.4871130596428 L 440 207.84609690826528 L 420 173.20508075688772 L 460 173.20508075688775 L 480 138.56406460551017 L 500 173.20508075688775 L 540 173.2050807568877 L 520 207.84609690826528 L 520 207.84609690826528 Z" stroke-linecap="round" stroke-miterlimit="10" stroke-dasharray=""/></g><g><path fill="none" stroke="#000000" paint-order="fill stroke markers" d=" M 520 346.4101615137755 L 540 381.05117766515303 L 500 381.05117766515303 L 480 415.6921938165306 L 460 381.05117766515303 L 420 381.05117766515303 L 440 346.4101615137755 L 420 311.7691453623979 L 460 311.769145362398 L 480 277.1281292110204 L 500 311.769145362398 L 540 311.7691453623979 L 520 346.4101615137755 L 520 346.4101615137755 Z" stroke-linecap="round" stroke-miterlimit="10" stroke-dasharray=""/></g><g><path fill="none" stroke="#000000" paint-order="fill stroke markers" d=" M 520 484.9742261192857 L 540 519.6152422706632 L 500 519.6152422706632 L 480 554.2562584220408 L 460 519.6152422706632 L 420 519.6152422706632 L 440 484.9742261192857 L 420 450.33320996790815 L 460 450.33320996790815 L 480 415.69219381653056 L 500 450.33320996790815 L 540 450.3332099679081 L 520 484.9742261192857 L 520 484.9742261192857 Z" stroke-linecap="round" stroke-miterlimit="10" stroke-dasharray=""/></g><g><path fill="none" stroke="#000000" paint-order="fill stroke markers" d=" M 520 623.5382907247958 L 540 658.1793068761734 L 500 658.1793068761734 L 480 692.8203230275509 L 460 658.1793068761734 L 420 658.1793068761734 L 440 623.5382907247958 L 420 588.8972745734183 L 460 588.8972745734183 L 480 554.2562584220408 L 500 588.8972745734183 L 540 588.8972745734183 L 520 623.5382907247958 L 520 623.5382907247958 Z" stroke-linecap="round" stroke-miterlimit="10" stroke-dasharray=""/></g><g><path fill="none" stroke="#000000" paint-order="fill stroke markers" d=" M 520 762.1023553303061 L 540 796.7433714816837 L 500 796.7433714816837 L 480 831.3843876330611 L 460 796.7433714816837 L 420 796.7433714816837 L 440 762.1023553303061 L 420 727.4613391789285 L 460 727.4613391789285 L 480 692.820323027551 L 500 727.4613391789285 L 540 727.4613391789285 L 520 762.1023553303061 L 520 762.1023553303061 Z" stroke-linecap="round" stroke-miterlimit="10" stroke-dasharray=""/></g><g><path fill="none" stroke="#000000" paint-order="fill stroke markers" d=" M 520 900.6664199358162 L 540 935.3074360871938 L 500 935.3074360871938 L 480 969.9484522385712 L 460 935.3074360871938 L 420 935.3074360871938 L 440 900.6664199358162 L 420 866.0254037844386 L 460 866.0254037844386 L 480 831.3843876330611 L 500 866.0254037844386 L 540 866.0254037844386 L 520 900.6664199358162 L 520 900.6664199358162 Z" stroke-linecap="round" stroke-miterlimit="10" stroke-dasharray=""/></g><g><path fill="none" stroke="#000000" paint-order="fill stroke markers" d=" M 640 0 L 660 34.64101615137754 L 620 34.64101615137754 L 600 69.2820323027551 L 580 34.64101615137755 L 540 34.64101615137754 L 560 4.898587196589413e-15 L 540 -34.641016151377556 L 580 -34.64101615137754 L 600 -69.2820323027551 L 620 -34.64101615137754 L 660 -34.64101615137758 L 640 0 L 640 0 Z" stroke-linecap="round" stroke-miterlimit="10" stroke-dasharray=""/></g><g><path fill="none" stroke="#000000" paint-order="fill stroke markers" d=" M 640 138.5640646055102 L 660 173.20508075688775 L 620 173.20508075688775 L 600 207.84609690826528 L 580 173.20508075688775 L 540 173.20508075688775 L 560 138.5640646055102 L 540 103.92304845413264 L 580 103.92304845413265 L 600 69.2820323027551 L 620 103.92304845413265 L 660 103.92304845413261 L 640 138.5640646055102 L 640 138.5640646055102 Z" stroke-linecap="round" stroke-miterlimit="10" stroke-dasharray=""/></g><g><path fill="none" stroke="#000000" paint-order="fill stroke markers" d=" M 640 277.1281292110204 L 660 311.7691453623979 L 620 311.7691453623979 L 600 346.4101615137755 L 580 311.7691453623979 L 540 311.7691453623979 L 560 277.1281292110204 L 540 242.48711305964284 L 580 242.48711305964287 L 600 207.84609690826528 L 620 242.48711305964287 L 660 242.4871130596428 L 640 277.1281292110204 L 640 277.1281292110204 Z" stroke-linecap="round" stroke-miterlimit="10" stroke-dasharray=""/></g><g><path fill="none" stroke="#000000" paint-order="fill stroke markers" d=" M 640 415.69219381653056 L 660 450.3332099679081 L 620 450.3332099679081 L 600 484.9742261192857 L 580 450.3332099679081 L 540 450.3332099679081 L 560 415.69219381653056 L 540 381.051177665153 L 580 381.05117766515303 L 600 346.41016151377545 L 620 381.05117766515303 L 660 381.051177665153 L 640 415.69219381653056 L 640 415.69219381653056 Z" stroke-linecap="round" stroke-miterlimit="10" stroke-dasharray=""/></g><g><path fill="none" stroke="#000000" paint-order="fill stroke markers" d=" M 640 554.2562584220408 L 660 588.8972745734184 L 620 588.8972745734184 L 600 623.5382907247958 L 580 588.8972745734184 L 540 588.8972745734184 L 560 554.2562584220408 L 540 519.6152422706632 L 580 519.6152422706632 L 600 484.9742261192857 L 620 519.6152422706632 L 660 519.6152422706632 L 640 554.2562584220408 L 640 554.2562584220408 Z" stroke-linecap="round" stroke-miterlimit="10" stroke-dasharray=""/></g><g><path fill="none" stroke="#000000" paint-order="fill stroke markers" d=" M 640 692.820323027551 L 660 727.4613391789286 L 620 727.4613391789286 L 600 762.1023553303061 L 580 727.4613391789286 L 540 727.4613391789286 L 560 692.820323027551 L 540 658.1793068761734 L 580 658.1793068761734 L 600 623.538290724796 L 620 658.1793068761734 L 660 658.1793068761734 L 640 692.820323027551 L 640 692.820323027551 Z" stroke-linecap="round" stroke-miterlimit="10" stroke-dasharray=""/></g><g><path fill="none" stroke="#000000" paint-order="fill stroke markers" d=" M 640 831.3843876330611 L 660 866.0254037844387 L 620 866.0254037844387 L 600 900.6664199358162 L 580 866.0254037844387 L 540 866.0254037844387 L 560 831.3843876330611 L 540 796.7433714816835 L 580 796.7433714816835 L 600 762.1023553303061 L 620 796.7433714816835 L 660 796.7433714816835 L 640 831.3843876330611 L 640 831.3843876330611 Z" stroke-linecap="round" stroke-miterlimit="10" stroke-dasharray=""/></g><g><path fill="none" stroke="#000000" paint-order="fill stroke markers" d=" M 760 69.2820323027551 L 780 103.92304845413264 L 740 103.92304845413264 L 720 138.5640646055102 L 700 103.92304845413264 L 660 103.92304845413264 L 680 69.2820323027551 L 660 34.64101615137754 L 700 34.641016151377556 L 720 0 L 740 34.641016151377556 L 780 34.64101615137752 L 760 69.2820323027551 L 760 69.2820323027551 Z" stroke-linecap="round" stroke-miterlimit="10" stroke-dasharray=""/></g><g><path fill="none" stroke="#000000" paint-order="fill stroke markers" d=" M 760 207.84609690826528 L 780 242.4871130596428 L 740 242.4871130596428 L 720 277.1281292110204 L 700 242.48711305964284 L 660 242.4871130596428 L 680 207.84609690826528 L 660 173.20508075688772 L 700 173.20508075688775 L 720 138.56406460551017 L 740 173.20508075688775 L 780 173.2050807568877 L 760 207.84609690826528 L 760 207.84609690826528 Z" stroke-linecap="round" stroke-miterlimit="10" stroke-dasharray=""/></g><g><path fill="none" stroke="#000000" paint-order="fill stroke markers" d=" M 760 346.4101615137755 L 780 381.05117766515303 L 740 381.05117766515303 L 720 415.6921938165306 L 700 381.05117766515303 L 660 381.05117766515303 L 680 346.4101615137755 L 660 311.7691453623979 L 700 311.769145362398 L 720 277.1281292110204 L 740 311.769145362398 L 780 311.7691453623979 L 760 346.4101615137755 L 760 346.4101615137755 Z" stroke-linecap="round" stroke-miterlimit="10" stroke-dasharray=""/></g><g><path fill="none" stroke="#000000" paint-order="fill stroke markers" d=" M 760 484.9742261192857 L 780 519.6152422706632 L 740 519.6152422706632 L 720 554.2562584220408 L 700 519.6152422706632 L 660 519.6152422706632 L 680 484.9742261192857 L 660 450.33320996790815 L 700 450.33320996790815 L 720 415.69219381653056 L 740 450.33320996790815 L 780 450.3332099679081 L 760 484.9742261192857 L 760 484.9742261192857 Z" stroke-linecap="round" stroke-miterlimit="10" stroke-dasharray=""/></g><g><path fill="none" stroke="#000000" paint-order="fill stroke markers" d=" M 760 623.5382907247958 L 780 658.1793068761734 L 740 658.1793068761734 L 720 692.8203230275509 L 700 658.1793068761734 L 660 658.1793068761734 L 680 623.5382907247958 L 660 588.8972745734183 L 700 588.8972745734183 L 720 554.2562584220408 L 740 588.8972745734183 L 780 588.8972745734183 L 760 623.5382907247958 L 760 623.5382907247958 Z" stroke-linecap="round" stroke-miterlimit="10" stroke-dasharray=""/></g><g><path fill="none" stroke="#000000" paint-order="fill stroke markers" d=" M 760 762.1023553303061 L 780 796.7433714816837 L 740 796.7433714816837 L 720 831.3843876330611 L 700 796.7433714816837 L 660 796.7433714816837 L 680 762.1023553303061 L 660 727.4613391789285 L 700 727.4613391789285 L 720 692.820323027551 L 740 727.4613391789285 L 780 727.4613391789285 L 760 762.1023553303061 L 760 762.1023553303061 Z" stroke-linecap="round" stroke-miterlimit="10" stroke-dasharray=""/></g><g><path fill="none" stroke="#000000" paint-order="fill stroke markers" d=" M 760 900.6664199358162 L 780 935.3074360871938 L 740 935.3074360871938 L 720 969.9484522385712 L 700 935.3074360871938 L 660 935.3074360871938 L 680 900.6664199358162 L 660 866.0254037844386 L 700 866.0254037844386 L 720 831.3843876330611 L 740 866.0254037844386 L 780 866.0254037844386 L 760 900.6664199358162 L 760 900.6664199358162 Z" stroke-linecap="round" stroke-miterlimit="10" stroke-dasharray=""/></g></g></svg>