<?xml version="1.0" encoding="utf-8"?>
<!-- Generator: Adobe Illustrator 27.7.0, SVG Export Plug-In . SVG Version: 6.00 Build 0)  -->
<svg version="1.1" xmlns="http://www.w3.org/2000/svg" xmlns:xlink="http://www.w3.org/1999/xlink" x="0px" y="0px"
	 viewBox="0 0 800 800" style="enable-background:new 0 0 800 800;" xml:space="preserve">
<style type="text/css">
	.st0{fill:#FFFFFF;}
	.st1{fill:none;stroke:#000000;stroke-linecap:round;stroke-miterlimit:10;}
</style>
<g id="Layer_2">
	<rect class="st0" width="800" height="800"/>
</g>
<g id="Layer_1">
	<g>
		<g>
			<path class="st1" d="M40,69.3l20,34.6H20L0,138.6l-20-34.6h-40l20-34.6l-20-34.6h40L0,0l20,34.6h40L40,69.3L40,69.3z"/>
		</g>
		<g>
			<path class="st1" d="M40,207.8l20,34.6H20L0,277.1l-20-34.6h-40l20-34.6l-20-34.6h40l20-34.6l20,34.6h40L40,207.8L40,207.8z"/>
		</g>
		<g>
			<path class="st1" d="M40,346.4l20,34.6H20L0,415.7l-20-34.6h-40l20-34.6l-20-34.6h40l20-34.6l20,34.6h40L40,346.4L40,346.4z"/>
		</g>
		<g>
			<path class="st1" d="M40,485l20,34.6H20L0,554.3l-20-34.6h-40l20-34.6l-20-34.6h40l20-34.6l20,34.6h40L40,485L40,485z"/>
		</g>
		<g>
			<path class="st1" d="M40,623.5l20,34.6H20L0,692.8l-20-34.6h-40l20-34.6l-20-34.6h40l20-34.6l20,34.6h40L40,623.5L40,623.5z"/>
		</g>
		<g>
			<path class="st1" d="M40,762.1l20,34.6H20L0,831.4l-20-34.6h-40l20-34.6l-20-34.6h40l20-34.6l20,34.6h40L40,762.1L40,762.1z"/>
		</g>
		<g>
			<path class="st1" d="M40,900.7l20,34.6H20L0,969.9l-20-34.6h-40l20-34.6L-60,866h40l20-34.6L20,866h40L40,900.7L40,900.7z"/>
		</g>
		<g>
			<path class="st1" d="M160,0l20,34.6h-40l-20,34.6l-20-34.6H60L80,0L60-34.6h40l20-34.6l20,34.6h40L160,0L160,0z"/>
		</g>
		<g>
			<path class="st1" d="M160,138.6l20,34.6h-40l-20,34.6l-20-34.6H60l20-34.6l-20-34.6h40l20-34.6l20,34.6h40L160,138.6L160,138.6z"
				/>
		</g>
		<g>
			<path class="st1" d="M160,277.1l20,34.6h-40l-20,34.6l-20-34.6H60l20-34.6l-20-34.6h40l20-34.6l20,34.6h40L160,277.1L160,277.1z"
				/>
		</g>
		<g>
			<path class="st1" d="M160,415.7l20,34.6h-40L120,485l-20-34.6H60l20-34.6l-20-34.6h40l20-34.6l20,34.6h40L160,415.7L160,415.7z"
				/>
		</g>
		<g>
			<path class="st1" d="M160,554.3l20,34.6h-40l-20,34.6l-20-34.6H60l20-34.6l-20-34.6h40l20-34.6l20,34.6h40L160,554.3L160,554.3z"
				/>
		</g>
		<g>
			<path class="st1" d="M160,692.8l20,34.6h-40l-20,34.6l-20-34.6H60l20-34.6l-20-34.6h40l20-34.6l20,34.6h40L160,692.8L160,692.8z"
				/>
		</g>
		<g>
			<path class="st1" d="M160,831.4l20,34.6h-40l-20,34.6L100,866H60l20-34.6l-20-34.6h40l20-34.6l20,34.6h40L160,831.4L160,831.4z"
				/>
		</g>
		<g>
			<path class="st1" d="M280,69.3l20,34.6h-40l-20,34.6l-20-34.6h-40l20-34.6l-20-34.6h40L240,0l20,34.6h40L280,69.3L280,69.3z"/>
		</g>
		<g>
			<path class="st1" d="M280,207.8l20,34.6h-40l-20,34.6l-20-34.6h-40l20-34.6l-20-34.6h40l20-34.6l20,34.6h40L280,207.8L280,207.8z
				"/>
		</g>
		<g>
			<path class="st1" d="M280,346.4l20,34.6h-40l-20,34.6l-20-34.6h-40l20-34.6l-20-34.6h40l20-34.6l20,34.6h40L280,346.4L280,346.4z
				"/>
		</g>
		<g>
			<path class="st1" d="M280,485l20,34.6h-40l-20,34.6l-20-34.6h-40l20-34.6l-20-34.6h40l20-34.6l20,34.6h40L280,485L280,485z"/>
		</g>
		<g>
			<path class="st1" d="M280,623.5l20,34.6h-40l-20,34.6l-20-34.6h-40l20-34.6l-20-34.6h40l20-34.6l20,34.6h40L280,623.5L280,623.5z
				"/>
		</g>
		<g>
			<path class="st1" d="M280,762.1l20,34.6h-40l-20,34.6l-20-34.6h-40l20-34.6l-20-34.6h40l20-34.6l20,34.6h40L280,762.1L280,762.1z
				"/>
		</g>
		<g>
			<path class="st1" d="M280,900.7l20,34.6h-40l-20,34.6l-20-34.6h-40l20-34.6L180,866h40l20-34.6l20,34.6h40L280,900.7L280,900.7z"
				/>
		</g>
		<g>
			<path class="st1" d="M400,0l20,34.6h-40l-20,34.6l-20-34.6h-40L320,0l-20-34.6h40l20-34.6l20,34.6h40L400,0L400,0z"/>
		</g>
		<g>
			<path class="st1" d="M400,138.6l20,34.6h-40l-20,34.6l-20-34.6h-40l20-34.6l-20-34.6h40l20-34.6l20,34.6h40L400,138.6L400,138.6z
				"/>
		</g>
		<g>
			<path class="st1" d="M400,277.1l20,34.6h-40l-20,34.6l-20-34.6h-40l20-34.6l-20-34.6h40l20-34.6l20,34.6h40L400,277.1L400,277.1z
				"/>
		</g>
		<g>
			<path class="st1" d="M400,415.7l20,34.6h-40L360,485l-20-34.6h-40l20-34.6l-20-34.6h40l20-34.6l20,34.6h40L400,415.7L400,415.7z"
				/>
		</g>
		<g>
			<path class="st1" d="M400,554.3l20,34.6h-40l-20,34.6l-20-34.6h-40l20-34.6l-20-34.6h40l20-34.6l20,34.6h40L400,554.3L400,554.3z
				"/>
		</g>
		<g>
			<path class="st1" d="M400,692.8l20,34.6h-40l-20,34.6l-20-34.6h-40l20-34.6l-20-34.6h40l20-34.6l20,34.6h40L400,692.8L400,692.8z
				"/>
		</g>
		<g>
			<path class="st1" d="M400,831.4l20,34.6h-40l-20,34.6L340,866h-40l20-34.6l-20-34.6h40l20-34.6l20,34.6h40L400,831.4L400,831.4z"
				/>
		</g>
		<g>
			<path class="st1" d="M520,69.3l20,34.6h-40l-20,34.6l-20-34.6h-40l20-34.6l-20-34.6h40L480,0l20,34.6h40L520,69.3L520,69.3z"/>
		</g>
		<g>
			<path class="st1" d="M520,207.8l20,34.6h-40l-20,34.6l-20-34.6h-40l20-34.6l-20-34.6h40l20-34.6l20,34.6h40L520,207.8L520,207.8z
				"/>
		</g>
		<g>
			<path class="st1" d="M520,346.4l20,34.6h-40l-20,34.6l-20-34.6h-40l20-34.6l-20-34.6h40l20-34.6l20,34.6h40L520,346.4L520,346.4z
				"/>
		</g>
		<g>
			<path class="st1" d="M520,485l20,34.6h-40l-20,34.6l-20-34.6h-40l20-34.6l-20-34.6h40l20-34.6l20,34.6h40L520,485L520,485z"/>
		</g>
		<g>
			<path class="st1" d="M520,623.5l20,34.6h-40l-20,34.6l-20-34.6h-40l20-34.6l-20-34.6h40l20-34.6l20,34.6h40L520,623.5L520,623.5z
				"/>
		</g>
		<g>
			<path class="st1" d="M520,762.1l20,34.6h-40l-20,34.6l-20-34.6h-40l20-34.6l-20-34.6h40l20-34.6l20,34.6h40L520,762.1L520,762.1z
				"/>
		</g>
		<g>
			<path class="st1" d="M520,900.7l20,34.6h-40l-20,34.6l-20-34.6h-40l20-34.6L420,866h40l20-34.6l20,34.6h40L520,900.7L520,900.7z"
				/>
		</g>
		<g>
			<path class="st1" d="M640,0l20,34.6h-40l-20,34.6l-20-34.6h-40L560,0l-20-34.6h40l20-34.6l20,34.6h40L640,0L640,0z"/>
		</g>
		<g>
			<path class="st1" d="M640,138.6l20,34.6h-40l-20,34.6l-20-34.6h-40l20-34.6l-20-34.6h40l20-34.6l20,34.6h40L640,138.6L640,138.6z
				"/>
		</g>
		<g>
			<path class="st1" d="M640,277.1l20,34.6h-40l-20,34.6l-20-34.6h-40l20-34.6l-20-34.6h40l20-34.6l20,34.6h40L640,277.1L640,277.1z
				"/>
		</g>
		<g>
			<path class="st1" d="M640,415.7l20,34.6h-40L600,485l-20-34.6h-40l20-34.6l-20-34.6h40l20-34.6l20,34.6h40L640,415.7L640,415.7z"
				/>
		</g>
		<g>
			<path class="st1" d="M640,554.3l20,34.6h-40l-20,34.6l-20-34.6h-40l20-34.6l-20-34.6h40l20-34.6l20,34.6h40L640,554.3L640,554.3z
				"/>
		</g>
		<g>
			<path class="st1" d="M640,692.8l20,34.6h-40l-20,34.6l-20-34.6h-40l20-34.6l-20-34.6h40l20-34.6l20,34.6h40L640,692.8L640,692.8z
				"/>
		</g>
		<g>
			<path class="st1" d="M640,831.4l20,34.6h-40l-20,34.6L580,866h-40l20-34.6l-20-34.6h40l20-34.6l20,34.6h40L640,831.4L640,831.4z"
				/>
		</g>
		<g>
			<path class="st1" d="M760,69.3l20,34.6h-40l-20,34.6l-20-34.6h-40l20-34.6l-20-34.6h40L720,0l20,34.6h40L760,69.3L760,69.3z"/>
		</g>
		<g>
			<path class="st1" d="M760,207.8l20,34.6h-40l-20,34.6l-20-34.6h-40l20-34.6l-20-34.6h40l20-34.6l20,34.6h40L760,207.8L760,207.8z
				"/>
		</g>
		<g>
			<path class="st1" d="M760,346.4l20,34.6h-40l-20,34.6l-20-34.6h-40l20-34.6l-20-34.6h40l20-34.6l20,34.6h40L760,346.4L760,346.4z
				"/>
		</g>
		<g>
			<path class="st1" d="M760,485l20,34.6h-40l-20,34.6l-20-34.6h-40l20-34.6l-20-34.6h40l20-34.6l20,34.6h40L760,485L760,485z"/>
		</g>
		<g>
			<path class="st1" d="M760,623.5l20,34.6h-40l-20,34.6l-20-34.6h-40l20-34.6l-20-34.6h40l20-34.6l20,34.6h40L760,623.5L760,623.5z
				"/>
		</g>
		<g>
			<path class="st1" d="M760,762.1l20,34.6h-40l-20,34.6l-20-34.6h-40l20-34.6l-20-34.6h40l20-34.6l20,34.6h40L760,762.1L760,762.1z
				"/>
		</g>
		<g>
			<path class="st1" d="M760,900.7l20,34.6h-40l-20,34.6l-20-34.6h-40l20-34.6L660,866h40l20-34.6l20,34.6h40L760,900.7L760,900.7z"
				/>
		</g>
		<g>
			<path class="st1" d="M880,0l20,34.6h-40l-20,34.6l-20-34.6h-40L800,0l-20-34.6h40l20-34.6l20,34.6h40L880,0L880,0z"/>
		</g>
		<g>
			<path class="st1" d="M880,138.6l20,34.6h-40l-20,34.6l-20-34.6h-40l20-34.6l-20-34.6h40l20-34.6l20,34.6h40L880,138.6L880,138.6z
				"/>
		</g>
		<g>
			<path class="st1" d="M880,277.1l20,34.6h-40l-20,34.6l-20-34.6h-40l20-34.6l-20-34.6h40l20-34.6l20,34.6h40L880,277.1L880,277.1z
				"/>
		</g>
		<g>
			<path class="st1" d="M880,415.7l20,34.6h-40L840,485l-20-34.6h-40l20-34.6l-20-34.6h40l20-34.6l20,34.6h40L880,415.7L880,415.7z"
				/>
		</g>
		<g>
			<path class="st1" d="M880,554.3l20,34.6h-40l-20,34.6l-20-34.6h-40l20-34.6l-20-34.6h40l20-34.6l20,34.6h40L880,554.3L880,554.3z
				"/>
		</g>
		<g>
			<path class="st1" d="M880,692.8l20,34.6h-40l-20,34.6l-20-34.6h-40l20-34.6l-20-34.6h40l20-34.6l20,34.6h40L880,692.8L880,692.8z
				"/>
		</g>
		<g>
			<path class="st1" d="M880,831.4l20,34.6h-40l-20,34.6L820,866h-40l20-34.6l-20-34.6h40l20-34.6l20,34.6h40L880,831.4L880,831.4z"
				/>
		</g>
	</g>
</g>
</svg>
