<svg version="1.1" xmlns="http://www.w3.org/2000/svg" xmlns:xlink="http://www.w3.org/1999/xlink" width="400" height="400" viewBox="0 0 400 400"><defs/><g><g><g><g><path fill="none" stroke="#000000" paint-order="fill stroke markers" d=" M 228.5316954888546 209.27050983124843 L 274.6969485464834 194.27050983124843" stroke-linecap="round" stroke-miterlimit="10" stroke-dasharray=""/><g><path fill="none" stroke="#000000" paint-order="fill stroke markers" d=" M 228.5316954888546 190.72949016875157 L 274.6969485464834 205.72949016875157" stroke-linecap="round" stroke-miterlimit="10" stroke-dasharray=""/></g></g><g><path fill="none" stroke="#000000" paint-order="fill stroke markers" d=" M 217.63355756877422 224.27050983124843 L 263.798810626403 239.27050983124843" stroke-linecap="round" stroke-miterlimit="10" stroke-dasharray=""/><g><path fill="none" stroke="#000000" paint-order="fill stroke markers" d=" M 228.53169548885464 209.27050983124843 L 257.0633909777092 248.54101966249686" stroke-linecap="round" stroke-miterlimit="10" stroke-dasharray=""/></g></g><g><path fill="none" stroke="#000000" paint-order="fill stroke markers" d=" M 200 230 L 228.5316954888546 269.27050983124843" stroke-linecap="round" stroke-miterlimit="10" stroke-dasharray=""/><g><path fill="none" stroke="#000000" paint-order="fill stroke markers" d=" M 217.6335575687742 224.27050983124843 L 217.6335575687742 272.8115294937453" stroke-linecap="round" stroke-miterlimit="10" stroke-dasharray=""/></g></g><g><path fill="none" stroke="#000000" paint-order="fill stroke markers" d=" M 182.3664424312258 224.27050983124843 L 182.3664424312258 272.8115294937453" stroke-linecap="round" stroke-miterlimit="10" stroke-dasharray=""/><g><path fill="none" stroke="#000000" paint-order="fill stroke markers" d=" M 200 230 L 171.4683045111454 269.27050983124843" stroke-linecap="round" stroke-miterlimit="10" stroke-dasharray=""/></g></g><g><path fill="none" stroke="#000000" paint-order="fill stroke markers" d=" M 171.4683045111454 209.27050983124843 L 142.93660902229078 248.54101966249686" stroke-linecap="round" stroke-miterlimit="10" stroke-dasharray=""/><g><path fill="none" stroke="#000000" paint-order="fill stroke markers" d=" M 182.3664424312258 224.27050983124843 L 136.201189373597 239.27050983124843" stroke-linecap="round" stroke-miterlimit="10" stroke-dasharray=""/></g></g><g><path fill="none" stroke="#000000" paint-order="fill stroke markers" d=" M 171.4683045111454 190.72949016875157 L 125.30305145351659 205.72949016875157" stroke-linecap="round" stroke-miterlimit="10" stroke-dasharray=""/><g><path fill="none" stroke="#000000" paint-order="fill stroke markers" d=" M 171.4683045111454 209.27050983124843 L 125.30305145351659 194.27050983124843" stroke-linecap="round" stroke-miterlimit="10" stroke-dasharray=""/></g></g><g><path fill="none" stroke="#000000" paint-order="fill stroke markers" d=" M 182.36644243122578 175.72949016875157 L 136.20118937359697 160.72949016875157" stroke-linecap="round" stroke-miterlimit="10" stroke-dasharray=""/><g><path fill="none" stroke="#000000" paint-order="fill stroke markers" d=" M 171.46830451114536 190.72949016875157 L 142.93660902229075 151.45898033750314" stroke-linecap="round" stroke-miterlimit="10" stroke-dasharray=""/></g></g><g><path fill="none" stroke="#000000" paint-order="fill stroke markers" d=" M 199.99999999999997 170 L 171.46830451114536 130.72949016875157" stroke-linecap="round" stroke-miterlimit="10" stroke-dasharray=""/><g><path fill="none" stroke="#000000" paint-order="fill stroke markers" d=" M 182.36644243122578 175.72949016875157 L 182.36644243122578 127.18847050625473" stroke-linecap="round" stroke-miterlimit="10" stroke-dasharray=""/></g></g><g><path fill="none" stroke="#000000" paint-order="fill stroke markers" d=" M 217.6335575687742 175.72949016875157 L 217.6335575687742 127.18847050625473" stroke-linecap="round" stroke-miterlimit="10" stroke-dasharray=""/><g><path fill="none" stroke="#000000" paint-order="fill stroke markers" d=" M 200 170 L 228.5316954888546 130.72949016875157" stroke-linecap="round" stroke-miterlimit="10" stroke-dasharray=""/></g></g><g><path fill="none" stroke="#000000" paint-order="fill stroke markers" d=" M 228.5316954888546 190.72949016875157 L 257.0633909777092 151.45898033750314" stroke-linecap="round" stroke-miterlimit="10" stroke-dasharray=""/><g><path fill="none" stroke="#000000" paint-order="fill stroke markers" d=" M 217.6335575687742 175.72949016875157 L 263.798810626403 160.72949016875157" stroke-linecap="round" stroke-miterlimit="10" stroke-dasharray=""/></g></g><g><path fill="none" stroke="#000000" paint-order="fill stroke markers" d=" M 228.5316954888546 209.27050983124843 L 217.6335575687742 212.81152949374527 L 217.6335575687742 224.27050983124843 L 206.73541964869378 220.72949016875157 L 200 230 L 193.26458035130622 220.72949016875157 L 182.3664424312258 224.27050983124843 L 182.3664424312258 212.81152949374527 L 171.4683045111454 209.27050983124843 L 178.20372415983917 200 L 171.4683045111454 190.72949016875157 L 182.3664424312258 187.18847050625473 L 182.3664424312258 175.72949016875157 L 193.26458035130622 179.27050983124843 L 200 170 L 206.73541964869378 179.27050983124843 L 217.6335575687742 175.72949016875157 L 217.6335575687742 187.18847050625473 L 228.5316954888546 190.72949016875157 L 221.79627584016083 200 L 228.5316954888546 209.27050983124843 L 228.5316954888546 209.27050983124843 Z" stroke-linecap="round" stroke-miterlimit="10" stroke-dasharray=""/></g><g><path fill="none" stroke="#000000" paint-order="fill stroke markers" d=" M 257.0633909777092 151.45898033750316 L 200 72.91796067500633 L 142.93660902229078 151.45898033750316" stroke-linecap="round" stroke-miterlimit="10" stroke-dasharray=""/></g><g><path fill="none" stroke="#000000" paint-order="fill stroke markers" d=" M 274.6969485464834 194.27050983124843 L 274.6969485464834 97.18847050625475 L 182.36644243122578 127.18847050625475" stroke-linecap="round" stroke-miterlimit="10" stroke-dasharray=""/></g><g><path fill="none" stroke="#000000" paint-order="fill stroke markers" d=" M 263.798810626403 239.2705098312484 L 320.8622016041122 160.72949016875157 L 228.5316954888546 130.72949016875157" stroke-linecap="round" stroke-miterlimit="10" stroke-dasharray=""/></g><g><path fill="none" stroke="#000000" paint-order="fill stroke markers" d=" M 228.5316954888546 269.27050983124843 L 320.8622016041122 239.2705098312484 L 263.798810626403 160.72949016875157" stroke-linecap="round" stroke-miterlimit="10" stroke-dasharray=""/></g><g><path fill="none" stroke="#000000" paint-order="fill stroke markers" d=" M 182.36644243122583 272.81152949374524 L 274.69694854648344 302.81152949374524 L 274.69694854648344 205.72949016875157" stroke-linecap="round" stroke-miterlimit="10" stroke-dasharray=""/></g><g><path fill="none" stroke="#000000" paint-order="fill stroke markers" d=" M 142.9366090222908 248.54101966249684 L 200.00000000000003 327.0820393249937 L 257.0633909777092 248.54101966249684" stroke-linecap="round" stroke-miterlimit="10" stroke-dasharray=""/></g><g><path fill="none" stroke="#000000" paint-order="fill stroke markers" d=" M 125.30305145351662 205.72949016875157 L 125.30305145351662 302.81152949374524 L 217.6335575687742 272.81152949374524" stroke-linecap="round" stroke-miterlimit="10" stroke-dasharray=""/></g><g><path fill="none" stroke="#000000" paint-order="fill stroke markers" d=" M 136.201189373597 160.7294901687516 L 79.13779839588781 239.27050983124843 L 171.4683045111454 269.27050983124843" stroke-linecap="round" stroke-miterlimit="10" stroke-dasharray=""/></g><g><path fill="none" stroke="#000000" paint-order="fill stroke markers" d=" M 171.4683045111454 130.72949016875162 L 79.1377983958878 160.72949016875162 L 136.20118937359703 239.27050983124843" stroke-linecap="round" stroke-miterlimit="10" stroke-dasharray=""/></g><g><path fill="none" stroke="#000000" paint-order="fill stroke markers" d=" M 217.63355756877417 127.18847050625473 L 125.30305145351657 97.18847050625476 L 125.3030514535166 194.27050983124843" stroke-linecap="round" stroke-miterlimit="10" stroke-dasharray=""/></g><g><g><path fill="none" stroke="#000000" paint-order="fill stroke markers" d=" M 200 112.18847050625475 L 242.7975432332819 53.28270575938212 L 200 39.37694101250949" stroke-linecap="round" stroke-miterlimit="10" stroke-dasharray=""/><g><path fill="none" stroke="#000000" paint-order="fill stroke markers" d=" M 200 112.18847050625475 L 157.2024567667181 53.28270575938212 L 200 39.37694101250949" stroke-linecap="round" stroke-miterlimit="10" stroke-dasharray=""/></g></g></g><g><g><path fill="none" stroke="#000000" paint-order="fill stroke markers" d=" M 200 287.81152949374524 L 157.20245676671811 346.7172942406179 L 200 360.6230589874905" stroke-linecap="round" stroke-miterlimit="10" stroke-dasharray=""/><g><path fill="none" stroke="#000000" paint-order="fill stroke markers" d=" M 200 287.81152949374524 L 242.7975432332819 346.7172942406179 L 200 360.6230589874905" stroke-linecap="round" stroke-miterlimit="10" stroke-dasharray=""/></g></g></g></g></g></g></svg>