<?xml version="1.0" encoding="utf-8"?>
<!-- Generator: Adobe Illustrator 27.7.0, SVG Export Plug-In . SVG Version: 6.00 Build 0)  -->
<svg version="1.1" xmlns="http://www.w3.org/2000/svg" xmlns:xlink="http://www.w3.org/1999/xlink" x="0px" y="0px"
	 viewBox="0 0 400 400" style="enable-background:new 0 0 400 400;" xml:space="preserve">
<style type="text/css">
	.st0{fill:#FFFFFF;}
	.st1{fill:none;stroke:#000000;stroke-linecap:round;stroke-miterlimit:10;}
</style>
<g id="Layer_2">
	<rect class="st0" width="400" height="400"/>
</g>
<g id="Layer_1">
	<g>
		<g>
			<g>
				<g>
					<path class="st1" d="M228.5,209.3l46.2-15"/>
					<g>
						<path class="st1" d="M228.5,190.7l46.2,15"/>
					</g>
				</g>
				<g>
					<path class="st1" d="M217.6,224.3l46.2,15"/>
					<g>
						<path class="st1" d="M228.5,209.3l28.5,39.3"/>
					</g>
				</g>
				<g>
					<path class="st1" d="M200,230l28.5,39.3"/>
					<g>
						<path class="st1" d="M217.6,224.3v48.5"/>
					</g>
				</g>
				<g>
					<path class="st1" d="M182.4,224.3v48.5"/>
					<g>
						<path class="st1" d="M200,230l-28.5,39.3"/>
					</g>
				</g>
				<g>
					<path class="st1" d="M171.5,209.3l-28.5,39.3"/>
					<g>
						<path class="st1" d="M182.4,224.3l-46.2,15"/>
					</g>
				</g>
				<g>
					<path class="st1" d="M171.5,190.7l-46.2,15"/>
					<g>
						<path class="st1" d="M171.5,209.3l-46.2-15"/>
					</g>
				</g>
				<g>
					<path class="st1" d="M182.4,175.7l-46.2-15"/>
					<g>
						<path class="st1" d="M171.5,190.7l-28.5-39.3"/>
					</g>
				</g>
				<g>
					<path class="st1" d="M200,170l-28.5-39.3"/>
					<g>
						<path class="st1" d="M182.4,175.7v-48.5"/>
					</g>
				</g>
				<g>
					<path class="st1" d="M217.6,175.7v-48.5"/>
					<g>
						<path class="st1" d="M200,170l28.5-39.3"/>
					</g>
				</g>
				<g>
					<path class="st1" d="M228.5,190.7l28.5-39.3"/>
					<g>
						<path class="st1" d="M217.6,175.7l46.2-15"/>
					</g>
				</g>
				<g>
					<path class="st1" d="M228.5,209.3l-10.9,3.5v11.5l-10.9-3.5L200,230l-6.7-9.3l-10.9,3.5v-11.5l-10.9-3.5l6.7-9.3l-6.7-9.3
						l10.9-3.5v-11.5l10.9,3.5l6.7-9.3l6.7,9.3l10.9-3.5v11.5l10.9,3.5l-6.7,9.3L228.5,209.3L228.5,209.3z"/>
				</g>
				<g>
					<path class="st1" d="M257.1,151.5L200,72.9l-57.1,78.5"/>
				</g>
				<g>
					<path class="st1" d="M274.7,194.3V97.2l-92.3,30"/>
				</g>
				<g>
					<path class="st1" d="M263.8,239.3l57.1-78.5l-92.3-30"/>
				</g>
				<g>
					<path class="st1" d="M228.5,269.3l92.3-30l-57.1-78.5"/>
				</g>
				<g>
					<path class="st1" d="M182.4,272.8l92.3,30v-97.1"/>
				</g>
				<g>
					<path class="st1" d="M142.9,248.5l57.1,78.5l57.1-78.5"/>
				</g>
				<g>
					<path class="st1" d="M125.3,205.7v97.1l92.3-30"/>
				</g>
				<g>
					<path class="st1" d="M136.2,160.7l-57.1,78.5l92.3,30"/>
				</g>
				<g>
					<path class="st1" d="M171.5,130.7l-92.3,30l57.1,78.5"/>
				</g>
				<g>
					<path class="st1" d="M217.6,127.2l-92.3-30v97.1"/>
				</g>
				<g>
					<g>
						<path class="st1" d="M200,112.2l42.8-58.9L200,39.4"/>
						<g>
							<path class="st1" d="M200,112.2l-42.8-58.9L200,39.4"/>
						</g>
					</g>
				</g>
				<g>
					<g>
						<path class="st1" d="M200,287.8l-42.8,58.9l42.8,13.9"/>
						<g>
							<path class="st1" d="M200,287.8l42.8,58.9L200,360.6"/>
						</g>
					</g>
				</g>
			</g>
		</g>
	</g>
</g>
</svg>
